<?xml version="1.0" encoding="utf-8" standalone="no"?>
<!DOCTYPE svg PUBLIC "-//W3C//DTD SVG 1.1//EN"
  "http://www.w3.org/Graphics/SVG/1.1/DTD/svg11.dtd">
<svg xmlns:xlink="http://www.w3.org/1999/xlink" width="696.742pt" height="558.01pt" viewBox="0 0 696.742 558.01" xmlns="http://www.w3.org/2000/svg" version="1.1">
 <metadata>
  <rdf:RDF xmlns:dc="http://purl.org/dc/elements/1.1/" xmlns:cc="http://creativecommons.org/ns#" xmlns:rdf="http://www.w3.org/1999/02/22-rdf-syntax-ns#">
   <cc:Work>
    <dc:type rdf:resource="http://purl.org/dc/dcmitype/StillImage"/>
    <dc:date>2024-07-18T17:04:13.333601</dc:date>
    <dc:format>image/svg+xml</dc:format>
    <dc:creator>
     <cc:Agent>
      <dc:title>Matplotlib v3.7.1, https://matplotlib.org/</dc:title>
     </cc:Agent>
    </dc:creator>
   </cc:Work>
  </rdf:RDF>
 </metadata>
 <defs>
  <style type="text/css">*{stroke-linejoin: round; stroke-linecap: butt}</style>
 </defs>
 <g id="figure_1">
  <g id="patch_1">
   <path d="M 0 558.01 
L 696.742 558.01 
L 696.742 0 
L 0 0 
z
" style="fill: #ffffff"/>
  </g>
  <g id="axes_1">
   <g id="patch_2">
    <path d="M 65.63 240.98 
L 338.182 240.98 
L 338.182 69.36 
L 65.63 69.36 
z
" style="fill: #ffffff"/>
   </g>
   <g id="matplotlib.axis_1">
    <g id="xtick_1">
     <g id="line2d_1">
      <defs>
       <path id="meca9d7b4d2" d="M 0 0 
L 0 10 
" style="stroke: #000000; stroke-width: 2.5"/>
      </defs>
      <g>
       <use xlink:href="#meca9d7b4d2" x="78.018727" y="240.98" style="stroke: #000000; stroke-width: 2.5"/>
      </g>
     </g>
     <g id="text_1">
      <!-- 0 -->
      <g transform="translate(72.928727 266.6375) scale(0.16 -0.16)">
       <defs>
        <path id="DejaVuSans-30" d="M 2034 4250 
Q 1547 4250 1301 3770 
Q 1056 3291 1056 2328 
Q 1056 1369 1301 889 
Q 1547 409 2034 409 
Q 2525 409 2770 889 
Q 3016 1369 3016 2328 
Q 3016 3291 2770 3770 
Q 2525 4250 2034 4250 
z
M 2034 4750 
Q 2819 4750 3233 4129 
Q 3647 3509 3647 2328 
Q 3647 1150 3233 529 
Q 2819 -91 2034 -91 
Q 1250 -91 836 529 
Q 422 1150 422 2328 
Q 422 3509 836 4129 
Q 1250 4750 2034 4750 
z
" transform="scale(0.015625)"/>
       </defs>
       <use xlink:href="#DejaVuSans-30"/>
      </g>
     </g>
    </g>
    <g id="xtick_2">
     <g id="line2d_2">
      <g>
       <use xlink:href="#meca9d7b4d2" x="160.610242" y="240.98" style="stroke: #000000; stroke-width: 2.5"/>
      </g>
     </g>
     <g id="text_2">
      <!-- 5 -->
      <g transform="translate(155.520242 266.6375) scale(0.16 -0.16)">
       <defs>
        <path id="DejaVuSans-35" d="M 691 4666 
L 3169 4666 
L 3169 4134 
L 1269 4134 
L 1269 2991 
Q 1406 3038 1543 3061 
Q 1681 3084 1819 3084 
Q 2600 3084 3056 2656 
Q 3513 2228 3513 1497 
Q 3513 744 3044 326 
Q 2575 -91 1722 -91 
Q 1428 -91 1123 -41 
Q 819 9 494 109 
L 494 744 
Q 775 591 1075 516 
Q 1375 441 1709 441 
Q 2250 441 2565 725 
Q 2881 1009 2881 1497 
Q 2881 1984 2565 2268 
Q 2250 2553 1709 2553 
Q 1456 2553 1204 2497 
Q 953 2441 691 2322 
L 691 4666 
z
" transform="scale(0.015625)"/>
       </defs>
       <use xlink:href="#DejaVuSans-35"/>
      </g>
     </g>
    </g>
    <g id="xtick_3">
     <g id="line2d_3">
      <g>
       <use xlink:href="#meca9d7b4d2" x="243.201758" y="240.98" style="stroke: #000000; stroke-width: 2.5"/>
      </g>
     </g>
     <g id="text_3">
      <!-- 10 -->
      <g transform="translate(233.021758 266.6375) scale(0.16 -0.16)">
       <defs>
        <path id="DejaVuSans-31" d="M 794 531 
L 1825 531 
L 1825 4091 
L 703 3866 
L 703 4441 
L 1819 4666 
L 2450 4666 
L 2450 531 
L 3481 531 
L 3481 0 
L 794 0 
L 794 531 
z
" transform="scale(0.015625)"/>
       </defs>
       <use xlink:href="#DejaVuSans-31"/>
       <use xlink:href="#DejaVuSans-30" x="63.623047"/>
      </g>
     </g>
    </g>
    <g id="xtick_4">
     <g id="line2d_4">
      <g>
       <use xlink:href="#meca9d7b4d2" x="325.793273" y="240.98" style="stroke: #000000; stroke-width: 2.5"/>
      </g>
     </g>
     <g id="text_4">
      <!-- 15 -->
      <g transform="translate(315.613273 266.6375) scale(0.16 -0.16)">
       <use xlink:href="#DejaVuSans-31"/>
       <use xlink:href="#DejaVuSans-35" x="63.623047"/>
      </g>
     </g>
    </g>
    <g id="text_5">
     <!-- $r$ [a.u.] -->
     <g transform="translate(174.706 286.1225) scale(0.16 -0.16)">
      <defs>
       <path id="DejaVuSans-Oblique-72" d="M 2853 2969 
Q 2766 3016 2653 3041 
Q 2541 3066 2413 3066 
Q 1953 3066 1609 2717 
Q 1266 2369 1153 1784 
L 800 0 
L 225 0 
L 909 3500 
L 1484 3500 
L 1375 2956 
Q 1603 3259 1920 3421 
Q 2238 3584 2597 3584 
Q 2691 3584 2781 3573 
Q 2872 3563 2963 3538 
L 2853 2969 
z
" transform="scale(0.015625)"/>
       <path id="DejaVuSans-20" transform="scale(0.015625)"/>
       <path id="DejaVuSans-5b" d="M 550 4863 
L 1875 4863 
L 1875 4416 
L 1125 4416 
L 1125 -397 
L 1875 -397 
L 1875 -844 
L 550 -844 
L 550 4863 
z
" transform="scale(0.015625)"/>
       <path id="DejaVuSans-61" d="M 2194 1759 
Q 1497 1759 1228 1600 
Q 959 1441 959 1056 
Q 959 750 1161 570 
Q 1363 391 1709 391 
Q 2188 391 2477 730 
Q 2766 1069 2766 1631 
L 2766 1759 
L 2194 1759 
z
M 3341 1997 
L 3341 0 
L 2766 0 
L 2766 531 
Q 2569 213 2275 61 
Q 1981 -91 1556 -91 
Q 1019 -91 701 211 
Q 384 513 384 1019 
Q 384 1609 779 1909 
Q 1175 2209 1959 2209 
L 2766 2209 
L 2766 2266 
Q 2766 2663 2505 2880 
Q 2244 3097 1772 3097 
Q 1472 3097 1187 3025 
Q 903 2953 641 2809 
L 641 3341 
Q 956 3463 1253 3523 
Q 1550 3584 1831 3584 
Q 2591 3584 2966 3190 
Q 3341 2797 3341 1997 
z
" transform="scale(0.015625)"/>
       <path id="DejaVuSans-2e" d="M 684 794 
L 1344 794 
L 1344 0 
L 684 0 
L 684 794 
z
" transform="scale(0.015625)"/>
       <path id="DejaVuSans-75" d="M 544 1381 
L 544 3500 
L 1119 3500 
L 1119 1403 
Q 1119 906 1312 657 
Q 1506 409 1894 409 
Q 2359 409 2629 706 
Q 2900 1003 2900 1516 
L 2900 3500 
L 3475 3500 
L 3475 0 
L 2900 0 
L 2900 538 
Q 2691 219 2414 64 
Q 2138 -91 1772 -91 
Q 1169 -91 856 284 
Q 544 659 544 1381 
z
M 1991 3584 
L 1991 3584 
z
" transform="scale(0.015625)"/>
       <path id="DejaVuSans-5d" d="M 1947 4863 
L 1947 -844 
L 622 -844 
L 622 -397 
L 1369 -397 
L 1369 4416 
L 622 4416 
L 622 4863 
L 1947 4863 
z
" transform="scale(0.015625)"/>
      </defs>
      <use xlink:href="#DejaVuSans-Oblique-72" transform="translate(0 0.015625)"/>
      <use xlink:href="#DejaVuSans-20" transform="translate(41.113281 0.015625)"/>
      <use xlink:href="#DejaVuSans-5b" transform="translate(72.900391 0.015625)"/>
      <use xlink:href="#DejaVuSans-61" transform="translate(111.914062 0.015625)"/>
      <use xlink:href="#DejaVuSans-2e" transform="translate(173.193359 0.015625)"/>
      <use xlink:href="#DejaVuSans-75" transform="translate(204.980469 0.015625)"/>
      <use xlink:href="#DejaVuSans-2e" transform="translate(268.359375 0.015625)"/>
      <use xlink:href="#DejaVuSans-5d" transform="translate(300.146484 0.015625)"/>
     </g>
    </g>
   </g>
   <g id="matplotlib.axis_2">
    <g id="ytick_1">
     <g id="line2d_5">
      <defs>
       <path id="m121f2cccaf" d="M 0 0 
L -10 0 
" style="stroke: #000000; stroke-width: 2.5"/>
      </defs>
      <g>
       <use xlink:href="#m121f2cccaf" x="65.63" y="233.179139" style="stroke: #000000; stroke-width: 2.5"/>
      </g>
     </g>
     <g id="text_6">
      <!-- 0.0 -->
      <g transform="translate(26.685 239.257889) scale(0.16 -0.16)">
       <use xlink:href="#DejaVuSans-30"/>
       <use xlink:href="#DejaVuSans-2e" x="63.623047"/>
       <use xlink:href="#DejaVuSans-30" x="95.410156"/>
      </g>
     </g>
    </g>
    <g id="ytick_2">
     <g id="line2d_6">
      <g>
       <use xlink:href="#m121f2cccaf" x="65.63" y="194.174581" style="stroke: #000000; stroke-width: 2.5"/>
      </g>
     </g>
     <g id="text_7">
      <!-- 0.5 -->
      <g transform="translate(26.685 200.253331) scale(0.16 -0.16)">
       <use xlink:href="#DejaVuSans-30"/>
       <use xlink:href="#DejaVuSans-2e" x="63.623047"/>
       <use xlink:href="#DejaVuSans-35" x="95.410156"/>
      </g>
     </g>
    </g>
    <g id="ytick_3">
     <g id="line2d_7">
      <g>
       <use xlink:href="#m121f2cccaf" x="65.63" y="155.170024" style="stroke: #000000; stroke-width: 2.5"/>
      </g>
     </g>
     <g id="text_8">
      <!-- 1.0 -->
      <g transform="translate(26.685 161.248774) scale(0.16 -0.16)">
       <use xlink:href="#DejaVuSans-31"/>
       <use xlink:href="#DejaVuSans-2e" x="63.623047"/>
       <use xlink:href="#DejaVuSans-30" x="95.410156"/>
      </g>
     </g>
    </g>
    <g id="ytick_4">
     <g id="line2d_8">
      <g>
       <use xlink:href="#m121f2cccaf" x="65.63" y="116.165466" style="stroke: #000000; stroke-width: 2.5"/>
      </g>
     </g>
     <g id="text_9">
      <!-- 1.5 -->
      <g transform="translate(26.685 122.244216) scale(0.16 -0.16)">
       <use xlink:href="#DejaVuSans-31"/>
       <use xlink:href="#DejaVuSans-2e" x="63.623047"/>
       <use xlink:href="#DejaVuSans-35" x="95.410156"/>
      </g>
     </g>
    </g>
    <g id="ytick_5">
     <g id="line2d_9">
      <g>
       <use xlink:href="#m121f2cccaf" x="65.63" y="77.160909" style="stroke: #000000; stroke-width: 2.5"/>
      </g>
     </g>
     <g id="text_10">
      <!-- 2.0 -->
      <g transform="translate(26.685 83.239659) scale(0.16 -0.16)">
       <defs>
        <path id="DejaVuSans-32" d="M 1228 531 
L 3431 531 
L 3431 0 
L 469 0 
L 469 531 
Q 828 903 1448 1529 
Q 2069 2156 2228 2338 
Q 2531 2678 2651 2914 
Q 2772 3150 2772 3378 
Q 2772 3750 2511 3984 
Q 2250 4219 1831 4219 
Q 1534 4219 1204 4116 
Q 875 4013 500 3803 
L 500 4441 
Q 881 4594 1212 4672 
Q 1544 4750 1819 4750 
Q 2544 4750 2975 4387 
Q 3406 4025 3406 3419 
Q 3406 3131 3298 2873 
Q 3191 2616 2906 2266 
Q 2828 2175 2409 1742 
Q 1991 1309 1228 531 
z
" transform="scale(0.015625)"/>
       </defs>
       <use xlink:href="#DejaVuSans-32"/>
       <use xlink:href="#DejaVuSans-2e" x="63.623047"/>
       <use xlink:href="#DejaVuSans-30" x="95.410156"/>
      </g>
     </g>
    </g>
    <g id="text_11">
     <!-- $R_{nl}(r)$ -->
     <g transform="translate(19.3575 175.65) rotate(-90) scale(0.16 -0.16)">
      <defs>
       <path id="DejaVuSans-Oblique-52" d="M 1613 4147 
L 1294 2491 
L 2106 2491 
Q 2584 2491 2879 2755 
Q 3175 3019 3175 3444 
Q 3175 3784 2976 3965 
Q 2778 4147 2406 4147 
L 1613 4147 
z
M 2772 2241 
Q 2972 2194 3105 2009 
Q 3238 1825 3413 1275 
L 3809 0 
L 3144 0 
L 2778 1197 
Q 2638 1659 2453 1815 
Q 2269 1972 1888 1972 
L 1191 1972 
L 806 0 
L 172 0 
L 1081 4666 
L 2503 4666 
Q 3150 4666 3495 4373 
Q 3841 4081 3841 3531 
Q 3841 3044 3547 2687 
Q 3253 2331 2772 2241 
z
" transform="scale(0.015625)"/>
       <path id="DejaVuSans-Oblique-6e" d="M 3566 2113 
L 3156 0 
L 2578 0 
L 2988 2091 
Q 3016 2238 3031 2350 
Q 3047 2463 3047 2528 
Q 3047 2791 2881 2937 
Q 2716 3084 2419 3084 
Q 1956 3084 1622 2776 
Q 1288 2469 1184 1941 
L 800 0 
L 225 0 
L 903 3500 
L 1478 3500 
L 1363 2950 
Q 1603 3253 1940 3418 
Q 2278 3584 2650 3584 
Q 3113 3584 3367 3334 
Q 3622 3084 3622 2631 
Q 3622 2519 3608 2391 
Q 3594 2263 3566 2113 
z
" transform="scale(0.015625)"/>
       <path id="DejaVuSans-Oblique-6c" d="M 1172 4863 
L 1747 4863 
L 800 0 
L 225 0 
L 1172 4863 
z
" transform="scale(0.015625)"/>
       <path id="DejaVuSans-28" d="M 1984 4856 
Q 1566 4138 1362 3434 
Q 1159 2731 1159 2009 
Q 1159 1288 1364 580 
Q 1569 -128 1984 -844 
L 1484 -844 
Q 1016 -109 783 600 
Q 550 1309 550 2009 
Q 550 2706 781 3412 
Q 1013 4119 1484 4856 
L 1984 4856 
z
" transform="scale(0.015625)"/>
       <path id="DejaVuSans-29" d="M 513 4856 
L 1013 4856 
Q 1481 4119 1714 3412 
Q 1947 2706 1947 2009 
Q 1947 1309 1714 600 
Q 1481 -109 1013 -844 
L 513 -844 
Q 928 -128 1133 580 
Q 1338 1288 1338 2009 
Q 1338 2731 1133 3434 
Q 928 4138 513 4856 
z
" transform="scale(0.015625)"/>
      </defs>
      <use xlink:href="#DejaVuSans-Oblique-52" transform="translate(0 0.125)"/>
      <use xlink:href="#DejaVuSans-Oblique-6e" transform="translate(69.482422 -16.28125) scale(0.7)"/>
      <use xlink:href="#DejaVuSans-Oblique-6c" transform="translate(113.847656 -16.28125) scale(0.7)"/>
      <use xlink:href="#DejaVuSans-28" transform="translate(136.030273 0.125)"/>
      <use xlink:href="#DejaVuSans-Oblique-72" transform="translate(175.043945 0.125)"/>
      <use xlink:href="#DejaVuSans-29" transform="translate(216.157227 0.125)"/>
     </g>
    </g>
   </g>
   <g id="line2d_10">
    <path d="M 78.018727 77.160909 
L 80.002908 94.820003 
L 81.987088 110.480333 
L 83.971269 124.368132 
L 85.955449 136.684025 
L 87.93963 147.60593 
L 89.923811 157.291627 
L 91.907991 165.881038 
L 93.892172 173.498247 
L 95.876352 180.253294 
L 97.860533 186.243764 
L 99.844713 191.556195 
L 101.828894 196.267334 
L 103.813074 200.445237 
L 105.797255 204.150259 
L 107.781435 207.435925 
L 110.013639 210.689922 
L 112.245842 213.532608 
L 114.478045 216.015971 
L 116.710248 218.185433 
L 119.190474 220.275874 
L 121.670699 222.074863 
L 124.398947 223.765448 
L 127.127196 225.198648 
L 130.103467 226.514474 
L 133.32776 227.696292 
L 136.800076 228.735763 
L 140.768437 229.684695 
L 145.232843 230.512273 
L 150.193295 231.204069 
L 156.145836 231.801676 
L 163.338491 232.287944 
L 172.267303 232.660077 
L 184.420409 232.930429 
L 203.022102 233.098485 
L 240.721532 233.170908 
L 325.793273 233.179091 
L 325.793273 233.179091 
" clip-path="url(#pb08dbdfdcd)" style="fill: none; stroke: #1f77b4; stroke-width: 2; stroke-linecap: square"/>
   </g>
   <g id="patch_3">
    <path d="M 65.63 240.98 
L 65.63 69.36 
" style="fill: none; stroke: #000000; stroke-width: 2.5; stroke-linejoin: miter; stroke-linecap: square"/>
   </g>
   <g id="patch_4">
    <path d="M 338.182 240.98 
L 338.182 69.36 
" style="fill: none; stroke: #000000; stroke-width: 2.5; stroke-linejoin: miter; stroke-linecap: square"/>
   </g>
   <g id="patch_5">
    <path d="M 65.63 240.98 
L 338.182 240.98 
" style="fill: none; stroke: #000000; stroke-width: 2.5; stroke-linejoin: miter; stroke-linecap: square"/>
   </g>
   <g id="patch_6">
    <path d="M 65.63 69.36 
L 338.182 69.36 
" style="fill: none; stroke: #000000; stroke-width: 2.5; stroke-linejoin: miter; stroke-linecap: square"/>
   </g>
   <g id="text_12">
    <!-- $n=1$ -->
    <g transform="translate(177.906 63.36) scale(0.192 -0.192)">
     <defs>
      <path id="DejaVuSans-3d" d="M 678 2906 
L 4684 2906 
L 4684 2381 
L 678 2381 
L 678 2906 
z
M 678 1631 
L 4684 1631 
L 4684 1100 
L 678 1100 
L 678 1631 
z
" transform="scale(0.015625)"/>
     </defs>
     <use xlink:href="#DejaVuSans-Oblique-6e" transform="translate(0 0.09375)"/>
     <use xlink:href="#DejaVuSans-3d" transform="translate(82.861328 0.09375)"/>
     <use xlink:href="#DejaVuSans-31" transform="translate(186.132812 0.09375)"/>
    </g>
   </g>
  </g>
  <g id="axes_2">
   <g id="patch_7">
    <path d="M 416.99 240.98 
L 689.542 240.98 
L 689.542 69.36 
L 416.99 69.36 
z
" style="fill: #ffffff"/>
   </g>
   <g id="matplotlib.axis_3">
    <g id="xtick_5">
     <g id="line2d_11">
      <g>
       <use xlink:href="#meca9d7b4d2" x="429.378727" y="240.98" style="stroke: #000000; stroke-width: 2.5"/>
      </g>
     </g>
     <g id="text_13">
      <!-- 0 -->
      <g transform="translate(424.288727 266.6375) scale(0.16 -0.16)">
       <use xlink:href="#DejaVuSans-30"/>
      </g>
     </g>
    </g>
    <g id="xtick_6">
     <g id="line2d_12">
      <g>
       <use xlink:href="#meca9d7b4d2" x="511.970242" y="240.98" style="stroke: #000000; stroke-width: 2.5"/>
      </g>
     </g>
     <g id="text_14">
      <!-- 5 -->
      <g transform="translate(506.880242 266.6375) scale(0.16 -0.16)">
       <use xlink:href="#DejaVuSans-35"/>
      </g>
     </g>
    </g>
    <g id="xtick_7">
     <g id="line2d_13">
      <g>
       <use xlink:href="#meca9d7b4d2" x="594.561758" y="240.98" style="stroke: #000000; stroke-width: 2.5"/>
      </g>
     </g>
     <g id="text_15">
      <!-- 10 -->
      <g transform="translate(584.381758 266.6375) scale(0.16 -0.16)">
       <use xlink:href="#DejaVuSans-31"/>
       <use xlink:href="#DejaVuSans-30" x="63.623047"/>
      </g>
     </g>
    </g>
    <g id="xtick_8">
     <g id="line2d_14">
      <g>
       <use xlink:href="#meca9d7b4d2" x="677.153273" y="240.98" style="stroke: #000000; stroke-width: 2.5"/>
      </g>
     </g>
     <g id="text_16">
      <!-- 15 -->
      <g transform="translate(666.973273 266.6375) scale(0.16 -0.16)">
       <use xlink:href="#DejaVuSans-31"/>
       <use xlink:href="#DejaVuSans-35" x="63.623047"/>
      </g>
     </g>
    </g>
    <g id="text_17">
     <!-- $r$ [a.u.] -->
     <g transform="translate(526.066 286.1225) scale(0.16 -0.16)">
      <use xlink:href="#DejaVuSans-Oblique-72" transform="translate(0 0.015625)"/>
      <use xlink:href="#DejaVuSans-20" transform="translate(41.113281 0.015625)"/>
      <use xlink:href="#DejaVuSans-5b" transform="translate(72.900391 0.015625)"/>
      <use xlink:href="#DejaVuSans-61" transform="translate(111.914062 0.015625)"/>
      <use xlink:href="#DejaVuSans-2e" transform="translate(173.193359 0.015625)"/>
      <use xlink:href="#DejaVuSans-75" transform="translate(204.980469 0.015625)"/>
      <use xlink:href="#DejaVuSans-2e" transform="translate(268.359375 0.015625)"/>
      <use xlink:href="#DejaVuSans-5d" transform="translate(300.146484 0.015625)"/>
     </g>
    </g>
   </g>
   <g id="matplotlib.axis_4">
    <g id="ytick_6">
     <g id="line2d_15">
      <g>
       <use xlink:href="#m121f2cccaf" x="416.99" y="214.581342" style="stroke: #000000; stroke-width: 2.5"/>
      </g>
     </g>
     <g id="text_18">
      <!-- 0.0 -->
      <g transform="translate(378.045 220.660092) scale(0.16 -0.16)">
       <use xlink:href="#DejaVuSans-30"/>
       <use xlink:href="#DejaVuSans-2e" x="63.623047"/>
       <use xlink:href="#DejaVuSans-30" x="95.410156"/>
      </g>
     </g>
    </g>
    <g id="ytick_7">
     <g id="line2d_16">
      <g>
       <use xlink:href="#m121f2cccaf" x="416.99" y="175.712974" style="stroke: #000000; stroke-width: 2.5"/>
      </g>
     </g>
     <g id="text_19">
      <!-- 0.2 -->
      <g transform="translate(378.045 181.791724) scale(0.16 -0.16)">
       <use xlink:href="#DejaVuSans-30"/>
       <use xlink:href="#DejaVuSans-2e" x="63.623047"/>
       <use xlink:href="#DejaVuSans-32" x="95.410156"/>
      </g>
     </g>
    </g>
    <g id="ytick_8">
     <g id="line2d_17">
      <g>
       <use xlink:href="#m121f2cccaf" x="416.99" y="136.844606" style="stroke: #000000; stroke-width: 2.5"/>
      </g>
     </g>
     <g id="text_20">
      <!-- 0.4 -->
      <g transform="translate(378.045 142.923356) scale(0.16 -0.16)">
       <defs>
        <path id="DejaVuSans-34" d="M 2419 4116 
L 825 1625 
L 2419 1625 
L 2419 4116 
z
M 2253 4666 
L 3047 4666 
L 3047 1625 
L 3713 1625 
L 3713 1100 
L 3047 1100 
L 3047 0 
L 2419 0 
L 2419 1100 
L 313 1100 
L 313 1709 
L 2253 4666 
z
" transform="scale(0.015625)"/>
       </defs>
       <use xlink:href="#DejaVuSans-30"/>
       <use xlink:href="#DejaVuSans-2e" x="63.623047"/>
       <use xlink:href="#DejaVuSans-34" x="95.410156"/>
      </g>
     </g>
    </g>
    <g id="ytick_9">
     <g id="line2d_18">
      <g>
       <use xlink:href="#m121f2cccaf" x="416.99" y="97.976238" style="stroke: #000000; stroke-width: 2.5"/>
      </g>
     </g>
     <g id="text_21">
      <!-- 0.6 -->
      <g transform="translate(378.045 104.054988) scale(0.16 -0.16)">
       <defs>
        <path id="DejaVuSans-36" d="M 2113 2584 
Q 1688 2584 1439 2293 
Q 1191 2003 1191 1497 
Q 1191 994 1439 701 
Q 1688 409 2113 409 
Q 2538 409 2786 701 
Q 3034 994 3034 1497 
Q 3034 2003 2786 2293 
Q 2538 2584 2113 2584 
z
M 3366 4563 
L 3366 3988 
Q 3128 4100 2886 4159 
Q 2644 4219 2406 4219 
Q 1781 4219 1451 3797 
Q 1122 3375 1075 2522 
Q 1259 2794 1537 2939 
Q 1816 3084 2150 3084 
Q 2853 3084 3261 2657 
Q 3669 2231 3669 1497 
Q 3669 778 3244 343 
Q 2819 -91 2113 -91 
Q 1303 -91 875 529 
Q 447 1150 447 2328 
Q 447 3434 972 4092 
Q 1497 4750 2381 4750 
Q 2619 4750 2861 4703 
Q 3103 4656 3366 4563 
z
" transform="scale(0.015625)"/>
       </defs>
       <use xlink:href="#DejaVuSans-30"/>
       <use xlink:href="#DejaVuSans-2e" x="63.623047"/>
       <use xlink:href="#DejaVuSans-36" x="95.410156"/>
      </g>
     </g>
    </g>
    <g id="text_22">
     <!-- $R_{nl}(r)$ -->
     <g transform="translate(370.7175 175.65) rotate(-90) scale(0.16 -0.16)">
      <use xlink:href="#DejaVuSans-Oblique-52" transform="translate(0 0.125)"/>
      <use xlink:href="#DejaVuSans-Oblique-6e" transform="translate(69.482422 -16.28125) scale(0.7)"/>
      <use xlink:href="#DejaVuSans-Oblique-6c" transform="translate(113.847656 -16.28125) scale(0.7)"/>
      <use xlink:href="#DejaVuSans-28" transform="translate(136.030273 0.125)"/>
      <use xlink:href="#DejaVuSans-Oblique-72" transform="translate(175.043945 0.125)"/>
      <use xlink:href="#DejaVuSans-29" transform="translate(216.157227 0.125)"/>
     </g>
    </g>
   </g>
   <g id="line2d_19">
    <path d="M 429.378727 77.160909 
L 431.61093 94.817847 
L 433.843133 110.754147 
L 436.075337 125.119273 
L 438.30754 138.050504 
L 440.539743 149.673889 
L 442.771946 160.105125 
L 445.004149 169.450374 
L 447.236352 177.807015 
L 449.468555 185.264337 
L 451.700758 191.904184 
L 453.932962 197.801543 
L 456.165165 203.025091 
L 458.397368 207.637701 
L 460.629571 211.696909 
L 462.861774 215.255336 
L 465.093977 218.361094 
L 467.32618 221.058142 
L 469.558383 223.38663 
L 471.790586 225.383205 
L 474.02279 227.081298 
L 476.254993 228.51139 
L 478.735218 229.819751 
L 481.215444 230.865985 
L 483.69567 231.681166 
L 486.423918 232.34427 
L 489.400189 232.826283 
L 492.624482 233.107047 
L 496.096798 233.175678 
L 500.065159 233.013881 
L 504.529565 232.593371 
L 509.738039 231.868893 
L 516.434649 230.694487 
L 526.851597 228.603727 
L 545.205267 224.918338 
L 555.622214 223.071682 
L 565.543117 221.538535 
L 575.46402 220.229477 
L 585.880968 219.081689 
L 597.041983 218.081678 
L 609.195089 217.223032 
L 622.588308 216.503281 
L 637.965707 215.903864 
L 656.319377 215.419476 
L 677.153273 215.075375 
L 677.153273 215.075375 
" clip-path="url(#p8ca0db2d99)" style="fill: none; stroke: #1f77b4; stroke-width: 2; stroke-linecap: square"/>
   </g>
   <g id="line2d_20">
    <path d="M 429.378727 214.581342 
L 431.362908 210.093963 
L 433.347088 206.129742 
L 435.331269 202.642933 
L 437.315449 199.591349 
L 439.29963 196.936097 
L 441.283811 194.641341 
L 443.267991 192.674074 
L 445.252172 191.003915 
L 447.236352 189.602909 
L 449.468555 188.316579 
L 451.700758 187.304961 
L 453.932962 186.537648 
L 456.413187 185.938123 
L 458.893413 185.572018 
L 461.621661 185.402447 
L 464.597932 185.454849 
L 467.822225 185.744649 
L 471.294541 186.276946 
L 475.510925 187.162308 
L 480.471376 188.447874 
L 486.919963 190.368508 
L 499.073069 194.281111 
L 510.73013 197.930874 
L 519.410919 200.412224 
L 527.595664 202.516104 
L 535.532386 204.326016 
L 543.717131 205.95928 
L 552.149898 207.409025 
L 560.830688 208.676426 
L 570.255546 209.823737 
L 580.424471 210.831801 
L 591.585487 211.709124 
L 603.986615 212.457174 
L 618.371924 213.093818 
L 635.237459 213.608874 
L 656.071354 214.011356 
L 677.153273 214.25223 
L 677.153273 214.25223 
" clip-path="url(#p8ca0db2d99)" style="fill: none; stroke: #ff7f0e; stroke-width: 2; stroke-linecap: square"/>
   </g>
   <g id="patch_8">
    <path d="M 416.99 240.98 
L 416.99 69.36 
" style="fill: none; stroke: #000000; stroke-width: 2.5; stroke-linejoin: miter; stroke-linecap: square"/>
   </g>
   <g id="patch_9">
    <path d="M 689.542 240.98 
L 689.542 69.36 
" style="fill: none; stroke: #000000; stroke-width: 2.5; stroke-linejoin: miter; stroke-linecap: square"/>
   </g>
   <g id="patch_10">
    <path d="M 416.99 240.98 
L 689.542 240.98 
" style="fill: none; stroke: #000000; stroke-width: 2.5; stroke-linejoin: miter; stroke-linecap: square"/>
   </g>
   <g id="patch_11">
    <path d="M 416.99 69.36 
L 689.542 69.36 
" style="fill: none; stroke: #000000; stroke-width: 2.5; stroke-linejoin: miter; stroke-linecap: square"/>
   </g>
   <g id="text_23">
    <!-- $n=2$ -->
    <g transform="translate(529.266 63.36) scale(0.192 -0.192)">
     <use xlink:href="#DejaVuSans-Oblique-6e" transform="translate(0 0.78125)"/>
     <use xlink:href="#DejaVuSans-3d" transform="translate(82.861328 0.78125)"/>
     <use xlink:href="#DejaVuSans-32" transform="translate(186.132812 0.78125)"/>
    </g>
   </g>
   <g id="legend_1">
    <g id="patch_12">
     <path d="M 592.742 129.13 
L 678.342 129.13 
Q 681.542 129.13 681.542 125.93 
L 681.542 80.56 
Q 681.542 77.36 678.342 77.36 
L 592.742 77.36 
Q 589.542 77.36 589.542 80.56 
L 589.542 125.93 
Q 589.542 129.13 592.742 129.13 
z
" style="fill: #ffffff; opacity: 0.8; stroke: #cccccc; stroke-linejoin: miter"/>
    </g>
    <g id="line2d_21">
     <path d="M 595.942 90.3175 
L 611.942 90.3175 
L 627.942 90.3175 
" style="fill: none; stroke: #1f77b4; stroke-width: 2; stroke-linecap: square"/>
    </g>
    <g id="text_24">
     <!-- $l=0$ -->
     <g transform="translate(640.742 95.9175) scale(0.16 -0.16)">
      <use xlink:href="#DejaVuSans-Oblique-6c" transform="translate(0 0.015625)"/>
      <use xlink:href="#DejaVuSans-3d" transform="translate(47.265625 0.015625)"/>
      <use xlink:href="#DejaVuSans-30" transform="translate(150.537109 0.015625)"/>
     </g>
    </g>
    <g id="line2d_22">
     <path d="M 595.942 113.8025 
L 611.942 113.8025 
L 627.942 113.8025 
" style="fill: none; stroke: #ff7f0e; stroke-width: 2; stroke-linecap: square"/>
    </g>
    <g id="text_25">
     <!-- $l=1$ -->
     <g transform="translate(640.742 119.4025) scale(0.16 -0.16)">
      <use xlink:href="#DejaVuSans-Oblique-6c" transform="translate(0 0.015625)"/>
      <use xlink:href="#DejaVuSans-3d" transform="translate(47.265625 0.015625)"/>
      <use xlink:href="#DejaVuSans-31" transform="translate(150.537109 0.015625)"/>
     </g>
    </g>
   </g>
  </g>
  <g id="axes_3">
   <g id="patch_13">
    <path d="M 65.63 502.34 
L 338.182 502.34 
L 338.182 330.72 
L 65.63 330.72 
z
" style="fill: #ffffff"/>
   </g>
   <g id="matplotlib.axis_5">
    <g id="xtick_9">
     <g id="line2d_23">
      <g>
       <use xlink:href="#meca9d7b4d2" x="78.018727" y="502.34" style="stroke: #000000; stroke-width: 2.5"/>
      </g>
     </g>
     <g id="text_26">
      <!-- 0 -->
      <g transform="translate(72.928727 527.9975) scale(0.16 -0.16)">
       <use xlink:href="#DejaVuSans-30"/>
      </g>
     </g>
    </g>
    <g id="xtick_10">
     <g id="line2d_24">
      <g>
       <use xlink:href="#meca9d7b4d2" x="160.610242" y="502.34" style="stroke: #000000; stroke-width: 2.5"/>
      </g>
     </g>
     <g id="text_27">
      <!-- 5 -->
      <g transform="translate(155.520242 527.9975) scale(0.16 -0.16)">
       <use xlink:href="#DejaVuSans-35"/>
      </g>
     </g>
    </g>
    <g id="xtick_11">
     <g id="line2d_25">
      <g>
       <use xlink:href="#meca9d7b4d2" x="243.201758" y="502.34" style="stroke: #000000; stroke-width: 2.5"/>
      </g>
     </g>
     <g id="text_28">
      <!-- 10 -->
      <g transform="translate(233.021758 527.9975) scale(0.16 -0.16)">
       <use xlink:href="#DejaVuSans-31"/>
       <use xlink:href="#DejaVuSans-30" x="63.623047"/>
      </g>
     </g>
    </g>
    <g id="xtick_12">
     <g id="line2d_26">
      <g>
       <use xlink:href="#meca9d7b4d2" x="325.793273" y="502.34" style="stroke: #000000; stroke-width: 2.5"/>
      </g>
     </g>
     <g id="text_29">
      <!-- 15 -->
      <g transform="translate(315.613273 527.9975) scale(0.16 -0.16)">
       <use xlink:href="#DejaVuSans-31"/>
       <use xlink:href="#DejaVuSans-35" x="63.623047"/>
      </g>
     </g>
    </g>
    <g id="text_30">
     <!-- $r$ [a.u.] -->
     <g transform="translate(174.706 547.4825) scale(0.16 -0.16)">
      <use xlink:href="#DejaVuSans-Oblique-72" transform="translate(0 0.015625)"/>
      <use xlink:href="#DejaVuSans-20" transform="translate(41.113281 0.015625)"/>
      <use xlink:href="#DejaVuSans-5b" transform="translate(72.900391 0.015625)"/>
      <use xlink:href="#DejaVuSans-61" transform="translate(111.914062 0.015625)"/>
      <use xlink:href="#DejaVuSans-2e" transform="translate(173.193359 0.015625)"/>
      <use xlink:href="#DejaVuSans-75" transform="translate(204.980469 0.015625)"/>
      <use xlink:href="#DejaVuSans-2e" transform="translate(268.359375 0.015625)"/>
      <use xlink:href="#DejaVuSans-5d" transform="translate(300.146484 0.015625)"/>
     </g>
    </g>
   </g>
   <g id="matplotlib.axis_6">
    <g id="ytick_10">
     <g id="line2d_27">
      <g>
       <use xlink:href="#m121f2cccaf" x="65.63" y="476.265304" style="stroke: #000000; stroke-width: 2.5"/>
      </g>
     </g>
     <g id="text_31">
      <!-- 0.0 -->
      <g transform="translate(26.685 482.344054) scale(0.16 -0.16)">
       <use xlink:href="#DejaVuSans-30"/>
       <use xlink:href="#DejaVuSans-2e" x="63.623047"/>
       <use xlink:href="#DejaVuSans-30" x="95.410156"/>
      </g>
     </g>
    </g>
    <g id="ytick_11">
     <g id="line2d_28">
      <g>
       <use xlink:href="#m121f2cccaf" x="65.63" y="440.47826" style="stroke: #000000; stroke-width: 2.5"/>
      </g>
     </g>
     <g id="text_32">
      <!-- 0.1 -->
      <g transform="translate(26.685 446.55701) scale(0.16 -0.16)">
       <use xlink:href="#DejaVuSans-30"/>
       <use xlink:href="#DejaVuSans-2e" x="63.623047"/>
       <use xlink:href="#DejaVuSans-31" x="95.410156"/>
      </g>
     </g>
    </g>
    <g id="ytick_12">
     <g id="line2d_29">
      <g>
       <use xlink:href="#m121f2cccaf" x="65.63" y="404.691217" style="stroke: #000000; stroke-width: 2.5"/>
      </g>
     </g>
     <g id="text_33">
      <!-- 0.2 -->
      <g transform="translate(26.685 410.769967) scale(0.16 -0.16)">
       <use xlink:href="#DejaVuSans-30"/>
       <use xlink:href="#DejaVuSans-2e" x="63.623047"/>
       <use xlink:href="#DejaVuSans-32" x="95.410156"/>
      </g>
     </g>
    </g>
    <g id="ytick_13">
     <g id="line2d_30">
      <g>
       <use xlink:href="#m121f2cccaf" x="65.63" y="368.904173" style="stroke: #000000; stroke-width: 2.5"/>
      </g>
     </g>
     <g id="text_34">
      <!-- 0.3 -->
      <g transform="translate(26.685 374.982923) scale(0.16 -0.16)">
       <defs>
        <path id="DejaVuSans-33" d="M 2597 2516 
Q 3050 2419 3304 2112 
Q 3559 1806 3559 1356 
Q 3559 666 3084 287 
Q 2609 -91 1734 -91 
Q 1441 -91 1130 -33 
Q 819 25 488 141 
L 488 750 
Q 750 597 1062 519 
Q 1375 441 1716 441 
Q 2309 441 2620 675 
Q 2931 909 2931 1356 
Q 2931 1769 2642 2001 
Q 2353 2234 1838 2234 
L 1294 2234 
L 1294 2753 
L 1863 2753 
Q 2328 2753 2575 2939 
Q 2822 3125 2822 3475 
Q 2822 3834 2567 4026 
Q 2313 4219 1838 4219 
Q 1578 4219 1281 4162 
Q 984 4106 628 3988 
L 628 4550 
Q 988 4650 1302 4700 
Q 1616 4750 1894 4750 
Q 2613 4750 3031 4423 
Q 3450 4097 3450 3541 
Q 3450 3153 3228 2886 
Q 3006 2619 2597 2516 
z
" transform="scale(0.015625)"/>
       </defs>
       <use xlink:href="#DejaVuSans-30"/>
       <use xlink:href="#DejaVuSans-2e" x="63.623047"/>
       <use xlink:href="#DejaVuSans-33" x="95.410156"/>
      </g>
     </g>
    </g>
    <g id="ytick_14">
     <g id="line2d_31">
      <g>
       <use xlink:href="#m121f2cccaf" x="65.63" y="333.11713" style="stroke: #000000; stroke-width: 2.5"/>
      </g>
     </g>
     <g id="text_35">
      <!-- 0.4 -->
      <g transform="translate(26.685 339.19588) scale(0.16 -0.16)">
       <use xlink:href="#DejaVuSans-30"/>
       <use xlink:href="#DejaVuSans-2e" x="63.623047"/>
       <use xlink:href="#DejaVuSans-34" x="95.410156"/>
      </g>
     </g>
    </g>
    <g id="text_36">
     <!-- $R_{nl}(r)$ -->
     <g transform="translate(19.3575 437.01) rotate(-90) scale(0.16 -0.16)">
      <use xlink:href="#DejaVuSans-Oblique-52" transform="translate(0 0.125)"/>
      <use xlink:href="#DejaVuSans-Oblique-6e" transform="translate(69.482422 -16.28125) scale(0.7)"/>
      <use xlink:href="#DejaVuSans-Oblique-6c" transform="translate(113.847656 -16.28125) scale(0.7)"/>
      <use xlink:href="#DejaVuSans-28" transform="translate(136.030273 0.125)"/>
      <use xlink:href="#DejaVuSans-Oblique-72" transform="translate(175.043945 0.125)"/>
      <use xlink:href="#DejaVuSans-29" transform="translate(216.157227 0.125)"/>
     </g>
    </g>
   </g>
   <g id="line2d_32">
    <path d="M 78.018727 338.520909 
L 80.25093 356.272646 
L 82.483133 372.387287 
L 84.715337 386.989608 
L 86.94754 400.195907 
L 89.179743 412.11454 
L 91.411946 422.846422 
L 93.644149 432.4855 
L 95.876352 441.119194 
L 98.108555 448.828819 
L 100.340758 455.68997 
L 102.572962 461.772894 
L 104.557142 466.579463 
L 106.541323 470.865461 
L 108.525503 474.670848 
L 110.509684 478.032991 
L 112.493864 480.986823 
L 114.478045 483.564977 
L 116.462225 485.797932 
L 118.446406 487.714134 
L 120.430586 489.340118 
L 122.414767 490.700625 
L 124.398947 491.818706 
L 126.631151 492.813445 
L 128.863354 493.556812 
L 131.095557 494.074904 
L 133.575783 494.415508 
L 136.056008 494.537791 
L 138.784256 494.452845 
L 141.760527 494.135513 
L 144.984821 493.570323 
L 148.705159 492.686657 
L 152.921543 491.454196 
L 158.130017 489.693235 
L 165.570694 486.91777 
L 183.676341 480.081095 
L 191.117018 477.558866 
L 198.06165 475.443685 
L 204.75826 473.643488 
L 211.206846 472.137922 
L 217.903456 470.807906 
L 224.600065 469.705919 
L 231.544697 468.788561 
L 238.737351 468.060158 
L 246.426051 467.505018 
L 254.610796 467.135893 
L 263.539608 466.954568 
L 273.708533 466.977435 
L 285.365594 467.235041 
L 299.502881 467.779966 
L 319.096663 468.777252 
L 325.793273 469.14976 
L 325.793273 469.14976 
" clip-path="url(#p8c3286aced)" style="fill: none; stroke: #1f77b4; stroke-width: 2; stroke-linecap: square"/>
   </g>
   <g id="line2d_33">
    <path d="M 78.018727 476.265304 
L 80.002908 471.369543 
L 81.987088 467.050269 
L 83.971269 463.26223 
L 85.955449 459.96313 
L 87.93963 457.113462 
L 89.923811 454.67634 
L 91.907991 452.617342 
L 93.892172 450.904367 
L 95.876352 449.507493 
L 97.860533 448.398845 
L 99.844713 447.552475 
L 101.828894 446.944242 
L 103.813074 446.551703 
L 106.045277 446.342014 
L 108.277481 446.351531 
L 110.757706 446.588613 
L 113.485954 447.08848 
L 116.462225 447.876328 
L 119.686519 448.965972 
L 123.406857 450.465938 
L 127.871263 452.521562 
L 133.575783 455.413073 
L 144.488776 461.263957 
L 153.665611 466.067524 
L 160.610242 469.451791 
L 166.810807 472.228034 
L 172.763348 474.649011 
L 178.467867 476.7339 
L 184.172386 478.586534 
L 189.876905 480.210803 
L 195.829447 481.671101 
L 201.781989 482.904481 
L 207.982553 483.964366 
L 214.43114 484.843222 
L 221.375772 485.559931 
L 228.568426 486.079867 
L 236.505148 486.426431 
L 245.185938 486.575888 
L 254.858818 486.513692 
L 266.019834 486.21226 
L 279.661075 485.609963 
L 298.51079 484.534648 
L 325.793273 482.828064 
L 325.793273 482.828064 
" clip-path="url(#p8c3286aced)" style="fill: none; stroke: #ff7f0e; stroke-width: 2; stroke-linecap: square"/>
   </g>
   <g id="line2d_34">
    <path d="M 78.018727 476.265304 
L 81.243021 476.150112 
L 84.715337 475.802037 
L 88.683698 475.180723 
L 93.396126 474.215043 
L 99.596691 472.703065 
L 112.989909 469.124521 
L 122.414767 466.750165 
L 129.855444 465.102012 
L 136.800076 463.787611 
L 143.496685 462.739689 
L 150.441317 461.882195 
L 157.385949 461.250318 
L 164.578604 460.818448 
L 172.267303 460.584316 
L 180.452048 460.562544 
L 189.38086 460.765817 
L 199.301763 461.21669 
L 210.958824 461.974818 
L 225.840178 463.179778 
L 251.13848 465.493272 
L 281.14921 468.171673 
L 301.983106 469.803335 
L 321.824912 471.134272 
L 325.793273 471.373711 
L 325.793273 471.373711 
" clip-path="url(#p8c3286aced)" style="fill: none; stroke: #2ca02c; stroke-width: 2; stroke-linecap: square"/>
   </g>
   <g id="patch_14">
    <path d="M 65.63 502.34 
L 65.63 330.72 
" style="fill: none; stroke: #000000; stroke-width: 2.5; stroke-linejoin: miter; stroke-linecap: square"/>
   </g>
   <g id="patch_15">
    <path d="M 338.182 502.34 
L 338.182 330.72 
" style="fill: none; stroke: #000000; stroke-width: 2.5; stroke-linejoin: miter; stroke-linecap: square"/>
   </g>
   <g id="patch_16">
    <path d="M 65.63 502.34 
L 338.182 502.34 
" style="fill: none; stroke: #000000; stroke-width: 2.5; stroke-linejoin: miter; stroke-linecap: square"/>
   </g>
   <g id="patch_17">
    <path d="M 65.63 330.72 
L 338.182 330.72 
" style="fill: none; stroke: #000000; stroke-width: 2.5; stroke-linejoin: miter; stroke-linecap: square"/>
   </g>
   <g id="text_37">
    <!-- $n=3$ -->
    <g transform="translate(177.906 324.72) scale(0.192 -0.192)">
     <use xlink:href="#DejaVuSans-Oblique-6e" transform="translate(0 0.78125)"/>
     <use xlink:href="#DejaVuSans-3d" transform="translate(82.861328 0.78125)"/>
     <use xlink:href="#DejaVuSans-33" transform="translate(186.132812 0.78125)"/>
    </g>
   </g>
   <g id="legend_2">
    <g id="patch_18">
     <path d="M 241.382 413.975 
L 326.982 413.975 
Q 330.182 413.975 330.182 410.775 
L 330.182 341.92 
Q 330.182 338.72 326.982 338.72 
L 241.382 338.72 
Q 238.182 338.72 238.182 341.92 
L 238.182 410.775 
Q 238.182 413.975 241.382 413.975 
z
" style="fill: #ffffff; opacity: 0.8; stroke: #cccccc; stroke-linejoin: miter"/>
    </g>
    <g id="line2d_35">
     <path d="M 244.582 351.6775 
L 260.582 351.6775 
L 276.582 351.6775 
" style="fill: none; stroke: #1f77b4; stroke-width: 2; stroke-linecap: square"/>
    </g>
    <g id="text_38">
     <!-- $l=0$ -->
     <g transform="translate(289.382 357.2775) scale(0.16 -0.16)">
      <use xlink:href="#DejaVuSans-Oblique-6c" transform="translate(0 0.015625)"/>
      <use xlink:href="#DejaVuSans-3d" transform="translate(47.265625 0.015625)"/>
      <use xlink:href="#DejaVuSans-30" transform="translate(150.537109 0.015625)"/>
     </g>
    </g>
    <g id="line2d_36">
     <path d="M 244.582 375.1625 
L 260.582 375.1625 
L 276.582 375.1625 
" style="fill: none; stroke: #ff7f0e; stroke-width: 2; stroke-linecap: square"/>
    </g>
    <g id="text_39">
     <!-- $l=1$ -->
     <g transform="translate(289.382 380.7625) scale(0.16 -0.16)">
      <use xlink:href="#DejaVuSans-Oblique-6c" transform="translate(0 0.015625)"/>
      <use xlink:href="#DejaVuSans-3d" transform="translate(47.265625 0.015625)"/>
      <use xlink:href="#DejaVuSans-31" transform="translate(150.537109 0.015625)"/>
     </g>
    </g>
    <g id="line2d_37">
     <path d="M 244.582 398.6475 
L 260.582 398.6475 
L 276.582 398.6475 
" style="fill: none; stroke: #2ca02c; stroke-width: 2; stroke-linecap: square"/>
    </g>
    <g id="text_40">
     <!-- $l=2$ -->
     <g transform="translate(289.382 404.2475) scale(0.16 -0.16)">
      <use xlink:href="#DejaVuSans-Oblique-6c" transform="translate(0 0.015625)"/>
      <use xlink:href="#DejaVuSans-3d" transform="translate(47.265625 0.015625)"/>
      <use xlink:href="#DejaVuSans-32" transform="translate(150.537109 0.015625)"/>
     </g>
    </g>
   </g>
  </g>
  <g id="axes_4">
   <g id="patch_19">
    <path d="M 416.99 502.34 
L 689.542 502.34 
L 689.542 330.72 
L 416.99 330.72 
z
" style="fill: #ffffff"/>
   </g>
   <g id="matplotlib.axis_7">
    <g id="xtick_13">
     <g id="line2d_38">
      <g>
       <use xlink:href="#meca9d7b4d2" x="429.378727" y="502.34" style="stroke: #000000; stroke-width: 2.5"/>
      </g>
     </g>
     <g id="text_41">
      <!-- 0 -->
      <g transform="translate(424.288727 527.9975) scale(0.16 -0.16)">
       <use xlink:href="#DejaVuSans-30"/>
      </g>
     </g>
    </g>
    <g id="xtick_14">
     <g id="line2d_39">
      <g>
       <use xlink:href="#meca9d7b4d2" x="511.970242" y="502.34" style="stroke: #000000; stroke-width: 2.5"/>
      </g>
     </g>
     <g id="text_42">
      <!-- 5 -->
      <g transform="translate(506.880242 527.9975) scale(0.16 -0.16)">
       <use xlink:href="#DejaVuSans-35"/>
      </g>
     </g>
    </g>
    <g id="xtick_15">
     <g id="line2d_40">
      <g>
       <use xlink:href="#meca9d7b4d2" x="594.561758" y="502.34" style="stroke: #000000; stroke-width: 2.5"/>
      </g>
     </g>
     <g id="text_43">
      <!-- 10 -->
      <g transform="translate(584.381758 527.9975) scale(0.16 -0.16)">
       <use xlink:href="#DejaVuSans-31"/>
       <use xlink:href="#DejaVuSans-30" x="63.623047"/>
      </g>
     </g>
    </g>
    <g id="xtick_16">
     <g id="line2d_41">
      <g>
       <use xlink:href="#meca9d7b4d2" x="677.153273" y="502.34" style="stroke: #000000; stroke-width: 2.5"/>
      </g>
     </g>
     <g id="text_44">
      <!-- 15 -->
      <g transform="translate(666.973273 527.9975) scale(0.16 -0.16)">
       <use xlink:href="#DejaVuSans-31"/>
       <use xlink:href="#DejaVuSans-35" x="63.623047"/>
      </g>
     </g>
    </g>
    <g id="text_45">
     <!-- $r$ [a.u.] -->
     <g transform="translate(526.066 547.4825) scale(0.16 -0.16)">
      <use xlink:href="#DejaVuSans-Oblique-72" transform="translate(0 0.015625)"/>
      <use xlink:href="#DejaVuSans-20" transform="translate(41.113281 0.015625)"/>
      <use xlink:href="#DejaVuSans-5b" transform="translate(72.900391 0.015625)"/>
      <use xlink:href="#DejaVuSans-61" transform="translate(111.914062 0.015625)"/>
      <use xlink:href="#DejaVuSans-2e" transform="translate(173.193359 0.015625)"/>
      <use xlink:href="#DejaVuSans-75" transform="translate(204.980469 0.015625)"/>
      <use xlink:href="#DejaVuSans-2e" transform="translate(268.359375 0.015625)"/>
      <use xlink:href="#DejaVuSans-5d" transform="translate(300.146484 0.015625)"/>
     </g>
    </g>
   </g>
   <g id="matplotlib.axis_8">
    <g id="ytick_15">
     <g id="line2d_42">
      <g>
       <use xlink:href="#m121f2cccaf" x="416.99" y="476.299079" style="stroke: #000000; stroke-width: 2.5"/>
      </g>
     </g>
     <g id="text_46">
      <!-- 0.0 -->
      <g transform="translate(378.045 482.377829) scale(0.16 -0.16)">
       <use xlink:href="#DejaVuSans-30"/>
       <use xlink:href="#DejaVuSans-2e" x="63.623047"/>
       <use xlink:href="#DejaVuSans-30" x="95.410156"/>
      </g>
     </g>
    </g>
    <g id="ytick_16">
     <g id="line2d_43">
      <g>
       <use xlink:href="#m121f2cccaf" x="416.99" y="421.187811" style="stroke: #000000; stroke-width: 2.5"/>
      </g>
     </g>
     <g id="text_47">
      <!-- 0.1 -->
      <g transform="translate(378.045 427.266561) scale(0.16 -0.16)">
       <use xlink:href="#DejaVuSans-30"/>
       <use xlink:href="#DejaVuSans-2e" x="63.623047"/>
       <use xlink:href="#DejaVuSans-31" x="95.410156"/>
      </g>
     </g>
    </g>
    <g id="ytick_17">
     <g id="line2d_44">
      <g>
       <use xlink:href="#m121f2cccaf" x="416.99" y="366.076543" style="stroke: #000000; stroke-width: 2.5"/>
      </g>
     </g>
     <g id="text_48">
      <!-- 0.2 -->
      <g transform="translate(378.045 372.155293) scale(0.16 -0.16)">
       <use xlink:href="#DejaVuSans-30"/>
       <use xlink:href="#DejaVuSans-2e" x="63.623047"/>
       <use xlink:href="#DejaVuSans-32" x="95.410156"/>
      </g>
     </g>
    </g>
    <g id="text_49">
     <!-- $R_{nl}(r)$ -->
     <g transform="translate(370.7175 437.01) rotate(-90) scale(0.16 -0.16)">
      <use xlink:href="#DejaVuSans-Oblique-52" transform="translate(0 0.125)"/>
      <use xlink:href="#DejaVuSans-Oblique-6e" transform="translate(69.482422 -16.28125) scale(0.7)"/>
      <use xlink:href="#DejaVuSans-Oblique-6c" transform="translate(113.847656 -16.28125) scale(0.7)"/>
      <use xlink:href="#DejaVuSans-28" transform="translate(136.030273 0.125)"/>
      <use xlink:href="#DejaVuSans-Oblique-72" transform="translate(175.043945 0.125)"/>
      <use xlink:href="#DejaVuSans-29" transform="translate(216.157227 0.125)"/>
     </g>
    </g>
   </g>
   <g id="line2d_45">
    <path d="M 429.378727 338.520909 
L 431.61093 356.295611 
L 433.843133 372.463441 
L 436.075337 387.140344 
L 438.30754 400.435061 
L 440.539743 412.449529 
L 442.771946 423.279265 
L 445.004149 433.013732 
L 447.236352 441.736679 
L 449.468555 449.526469 
L 451.700758 456.456386 
L 453.932962 462.594929 
L 455.917142 467.438877 
L 457.901323 471.750276 
L 459.885503 475.568732 
L 461.869684 478.931465 
L 463.853864 481.873443 
L 465.838045 484.427496 
L 467.822225 486.62443 
L 469.806406 488.493138 
L 471.790586 490.060697 
L 473.774767 491.352472 
L 475.758947 492.392208 
L 477.743128 493.202113 
L 479.975331 493.864333 
L 482.207534 494.289407 
L 484.68776 494.514453 
L 487.167986 494.510201 
L 489.896234 494.275673 
L 492.872505 493.785581 
L 496.096798 493.025474 
L 499.817137 491.911676 
L 504.281543 490.324269 
L 509.986062 488.034309 
L 520.40301 483.549565 
L 529.827867 479.600681 
L 536.524477 477.033732 
L 542.477018 474.979826 
L 548.181537 473.238427 
L 553.886056 471.731113 
L 559.590575 470.460999 
L 565.295095 469.424563 
L 570.999614 468.613267 
L 576.952155 467.993487 
L 583.152719 467.5762 
L 589.601306 467.36674 
L 596.545938 467.368446 
L 603.986615 467.59611 
L 612.17136 468.07103 
L 621.596217 468.84731 
L 633.005256 470.021966 
L 649.126723 471.929772 
L 677.153273 475.337135 
L 677.153273 475.337135 
" clip-path="url(#pf7724ec06a)" style="fill: none; stroke: #1f77b4; stroke-width: 2; stroke-linecap: square"/>
   </g>
   <g id="line2d_46">
    <path d="M 429.378727 476.299079 
L 431.362908 471.270356 
L 433.347088 466.835833 
L 435.331269 462.950696 
L 437.315449 459.572834 
L 439.29963 456.662696 
L 441.283811 454.183158 
L 443.267991 452.099395 
L 445.004149 450.57504 
L 446.740307 449.308091 
L 448.724488 448.150468 
L 450.708668 447.276449 
L 452.692849 446.660541 
L 454.677029 446.278919 
L 456.66121 446.109333 
L 458.893413 446.146204 
L 461.125616 446.397756 
L 463.605842 446.898302 
L 466.33409 447.680971 
L 469.310361 448.768299 
L 472.782677 450.286823 
L 476.751038 452.275489 
L 481.711489 455.024034 
L 489.400189 459.581197 
L 501.305272 466.623376 
L 507.753859 470.16375 
L 513.458378 473.043875 
L 518.666852 475.435427 
L 523.875326 477.58318 
L 528.835777 479.395073 
L 533.796228 480.978138 
L 538.75668 482.335853 
L 543.965154 483.526484 
L 549.173628 484.487302 
L 554.630124 485.261945 
L 560.334643 485.836491 
L 566.287185 486.202034 
L 572.487749 486.354987 
L 579.184358 486.29096 
L 586.377013 485.995501 
L 594.313735 485.444872 
L 603.49057 484.579102 
L 614.651586 483.292282 
L 630.773053 481.185228 
L 662.519941 477.006863 
L 677.153273 475.31866 
L 677.153273 475.31866 
" clip-path="url(#pf7724ec06a)" style="fill: none; stroke: #ff7f0e; stroke-width: 2; stroke-linecap: square"/>
   </g>
   <g id="line2d_47">
    <path d="M 429.378727 476.299079 
L 432.354998 476.181357 
L 435.579291 475.820505 
L 439.29963 475.163445 
L 443.516014 474.184038 
L 448.97251 472.669216 
L 457.901323 469.915367 
L 468.566293 466.68955 
L 475.262902 464.895757 
L 481.463467 463.466216 
L 487.167986 462.373651 
L 492.872505 461.505572 
L 498.577024 460.863788 
L 504.281543 460.44337 
L 510.234084 460.229853 
L 516.434649 460.235391 
L 522.883235 460.465686 
L 529.827867 460.940425 
L 537.268544 461.672663 
L 545.701312 462.731129 
L 555.622214 464.212175 
L 568.271365 466.340958 
L 615.891698 474.575573 
L 629.036895 476.497987 
L 641.438023 478.088396 
L 653.591129 479.424709 
L 665.744235 480.54039 
L 677.153273 481.393486 
L 677.153273 481.393486 
" clip-path="url(#pf7724ec06a)" style="fill: none; stroke: #2ca02c; stroke-width: 2; stroke-linecap: square"/>
   </g>
   <g id="line2d_48">
    <path d="M 429.378727 476.299079 
L 446.740307 476.190786 
L 458.149345 475.884422 
L 469.310361 475.362742 
L 481.463467 474.570333 
L 496.344821 473.36582 
L 527.347642 470.554329 
L 547.189447 468.900609 
L 563.062891 467.797642 
L 577.944246 466.983873 
L 592.577577 466.404306 
L 607.458931 466.03577 
L 623.084353 465.872006 
L 639.949888 465.921969 
L 658.55158 466.204187 
L 677.153273 466.671555 
L 677.153273 466.671555 
" clip-path="url(#pf7724ec06a)" style="fill: none; stroke: #d62728; stroke-width: 2; stroke-linecap: square"/>
   </g>
   <g id="patch_20">
    <path d="M 416.99 502.34 
L 416.99 330.72 
" style="fill: none; stroke: #000000; stroke-width: 2.5; stroke-linejoin: miter; stroke-linecap: square"/>
   </g>
   <g id="patch_21">
    <path d="M 689.542 502.34 
L 689.542 330.72 
" style="fill: none; stroke: #000000; stroke-width: 2.5; stroke-linejoin: miter; stroke-linecap: square"/>
   </g>
   <g id="patch_22">
    <path d="M 416.99 502.34 
L 689.542 502.34 
" style="fill: none; stroke: #000000; stroke-width: 2.5; stroke-linejoin: miter; stroke-linecap: square"/>
   </g>
   <g id="patch_23">
    <path d="M 416.99 330.72 
L 689.542 330.72 
" style="fill: none; stroke: #000000; stroke-width: 2.5; stroke-linejoin: miter; stroke-linecap: square"/>
   </g>
   <g id="text_50">
    <!-- $n=4$ -->
    <g transform="translate(529.266 324.72) scale(0.192 -0.192)">
     <use xlink:href="#DejaVuSans-Oblique-6e" transform="translate(0 0.09375)"/>
     <use xlink:href="#DejaVuSans-3d" transform="translate(82.861328 0.09375)"/>
     <use xlink:href="#DejaVuSans-34" transform="translate(186.132812 0.09375)"/>
    </g>
   </g>
   <g id="legend_3">
    <g id="patch_24">
     <path d="M 592.742 437.46 
L 678.342 437.46 
Q 681.542 437.46 681.542 434.26 
L 681.542 341.92 
Q 681.542 338.72 678.342 338.72 
L 592.742 338.72 
Q 589.542 338.72 589.542 341.92 
L 589.542 434.26 
Q 589.542 437.46 592.742 437.46 
z
" style="fill: #ffffff; opacity: 0.8; stroke: #cccccc; stroke-linejoin: miter"/>
    </g>
    <g id="line2d_49">
     <path d="M 595.942 351.6775 
L 611.942 351.6775 
L 627.942 351.6775 
" style="fill: none; stroke: #1f77b4; stroke-width: 2; stroke-linecap: square"/>
    </g>
    <g id="text_51">
     <!-- $l=0$ -->
     <g transform="translate(640.742 357.2775) scale(0.16 -0.16)">
      <use xlink:href="#DejaVuSans-Oblique-6c" transform="translate(0 0.015625)"/>
      <use xlink:href="#DejaVuSans-3d" transform="translate(47.265625 0.015625)"/>
      <use xlink:href="#DejaVuSans-30" transform="translate(150.537109 0.015625)"/>
     </g>
    </g>
    <g id="line2d_50">
     <path d="M 595.942 375.1625 
L 611.942 375.1625 
L 627.942 375.1625 
" style="fill: none; stroke: #ff7f0e; stroke-width: 2; stroke-linecap: square"/>
    </g>
    <g id="text_52">
     <!-- $l=1$ -->
     <g transform="translate(640.742 380.7625) scale(0.16 -0.16)">
      <use xlink:href="#DejaVuSans-Oblique-6c" transform="translate(0 0.015625)"/>
      <use xlink:href="#DejaVuSans-3d" transform="translate(47.265625 0.015625)"/>
      <use xlink:href="#DejaVuSans-31" transform="translate(150.537109 0.015625)"/>
     </g>
    </g>
    <g id="line2d_51">
     <path d="M 595.942 398.6475 
L 611.942 398.6475 
L 627.942 398.6475 
" style="fill: none; stroke: #2ca02c; stroke-width: 2; stroke-linecap: square"/>
    </g>
    <g id="text_53">
     <!-- $l=2$ -->
     <g transform="translate(640.742 404.2475) scale(0.16 -0.16)">
      <use xlink:href="#DejaVuSans-Oblique-6c" transform="translate(0 0.015625)"/>
      <use xlink:href="#DejaVuSans-3d" transform="translate(47.265625 0.015625)"/>
      <use xlink:href="#DejaVuSans-32" transform="translate(150.537109 0.015625)"/>
     </g>
    </g>
    <g id="line2d_52">
     <path d="M 595.942 422.1325 
L 611.942 422.1325 
L 627.942 422.1325 
" style="fill: none; stroke: #d62728; stroke-width: 2; stroke-linecap: square"/>
    </g>
    <g id="text_54">
     <!-- $l=3$ -->
     <g transform="translate(640.742 427.7325) scale(0.16 -0.16)">
      <use xlink:href="#DejaVuSans-Oblique-6c" transform="translate(0 0.015625)"/>
      <use xlink:href="#DejaVuSans-3d" transform="translate(47.265625 0.015625)"/>
      <use xlink:href="#DejaVuSans-33" transform="translate(150.537109 0.015625)"/>
     </g>
    </g>
   </g>
  </g>
  <g id="text_55">
   <!-- Radial component of the Hydrogen wavefunction -->
   <g transform="translate(111.376 21.789) scale(0.192 -0.192)">
    <defs>
     <path id="DejaVuSans-52" d="M 2841 2188 
Q 3044 2119 3236 1894 
Q 3428 1669 3622 1275 
L 4263 0 
L 3584 0 
L 2988 1197 
Q 2756 1666 2539 1819 
Q 2322 1972 1947 1972 
L 1259 1972 
L 1259 0 
L 628 0 
L 628 4666 
L 2053 4666 
Q 2853 4666 3247 4331 
Q 3641 3997 3641 3322 
Q 3641 2881 3436 2590 
Q 3231 2300 2841 2188 
z
M 1259 4147 
L 1259 2491 
L 2053 2491 
Q 2509 2491 2742 2702 
Q 2975 2913 2975 3322 
Q 2975 3731 2742 3939 
Q 2509 4147 2053 4147 
L 1259 4147 
z
" transform="scale(0.015625)"/>
     <path id="DejaVuSans-64" d="M 2906 2969 
L 2906 4863 
L 3481 4863 
L 3481 0 
L 2906 0 
L 2906 525 
Q 2725 213 2448 61 
Q 2172 -91 1784 -91 
Q 1150 -91 751 415 
Q 353 922 353 1747 
Q 353 2572 751 3078 
Q 1150 3584 1784 3584 
Q 2172 3584 2448 3432 
Q 2725 3281 2906 2969 
z
M 947 1747 
Q 947 1113 1208 752 
Q 1469 391 1925 391 
Q 2381 391 2643 752 
Q 2906 1113 2906 1747 
Q 2906 2381 2643 2742 
Q 2381 3103 1925 3103 
Q 1469 3103 1208 2742 
Q 947 2381 947 1747 
z
" transform="scale(0.015625)"/>
     <path id="DejaVuSans-69" d="M 603 3500 
L 1178 3500 
L 1178 0 
L 603 0 
L 603 3500 
z
M 603 4863 
L 1178 4863 
L 1178 4134 
L 603 4134 
L 603 4863 
z
" transform="scale(0.015625)"/>
     <path id="DejaVuSans-6c" d="M 603 4863 
L 1178 4863 
L 1178 0 
L 603 0 
L 603 4863 
z
" transform="scale(0.015625)"/>
     <path id="DejaVuSans-63" d="M 3122 3366 
L 3122 2828 
Q 2878 2963 2633 3030 
Q 2388 3097 2138 3097 
Q 1578 3097 1268 2742 
Q 959 2388 959 1747 
Q 959 1106 1268 751 
Q 1578 397 2138 397 
Q 2388 397 2633 464 
Q 2878 531 3122 666 
L 3122 134 
Q 2881 22 2623 -34 
Q 2366 -91 2075 -91 
Q 1284 -91 818 406 
Q 353 903 353 1747 
Q 353 2603 823 3093 
Q 1294 3584 2113 3584 
Q 2378 3584 2631 3529 
Q 2884 3475 3122 3366 
z
" transform="scale(0.015625)"/>
     <path id="DejaVuSans-6f" d="M 1959 3097 
Q 1497 3097 1228 2736 
Q 959 2375 959 1747 
Q 959 1119 1226 758 
Q 1494 397 1959 397 
Q 2419 397 2687 759 
Q 2956 1122 2956 1747 
Q 2956 2369 2687 2733 
Q 2419 3097 1959 3097 
z
M 1959 3584 
Q 2709 3584 3137 3096 
Q 3566 2609 3566 1747 
Q 3566 888 3137 398 
Q 2709 -91 1959 -91 
Q 1206 -91 779 398 
Q 353 888 353 1747 
Q 353 2609 779 3096 
Q 1206 3584 1959 3584 
z
" transform="scale(0.015625)"/>
     <path id="DejaVuSans-6d" d="M 3328 2828 
Q 3544 3216 3844 3400 
Q 4144 3584 4550 3584 
Q 5097 3584 5394 3201 
Q 5691 2819 5691 2113 
L 5691 0 
L 5113 0 
L 5113 2094 
Q 5113 2597 4934 2840 
Q 4756 3084 4391 3084 
Q 3944 3084 3684 2787 
Q 3425 2491 3425 1978 
L 3425 0 
L 2847 0 
L 2847 2094 
Q 2847 2600 2669 2842 
Q 2491 3084 2119 3084 
Q 1678 3084 1418 2786 
Q 1159 2488 1159 1978 
L 1159 0 
L 581 0 
L 581 3500 
L 1159 3500 
L 1159 2956 
Q 1356 3278 1631 3431 
Q 1906 3584 2284 3584 
Q 2666 3584 2933 3390 
Q 3200 3197 3328 2828 
z
" transform="scale(0.015625)"/>
     <path id="DejaVuSans-70" d="M 1159 525 
L 1159 -1331 
L 581 -1331 
L 581 3500 
L 1159 3500 
L 1159 2969 
Q 1341 3281 1617 3432 
Q 1894 3584 2278 3584 
Q 2916 3584 3314 3078 
Q 3713 2572 3713 1747 
Q 3713 922 3314 415 
Q 2916 -91 2278 -91 
Q 1894 -91 1617 61 
Q 1341 213 1159 525 
z
M 3116 1747 
Q 3116 2381 2855 2742 
Q 2594 3103 2138 3103 
Q 1681 3103 1420 2742 
Q 1159 2381 1159 1747 
Q 1159 1113 1420 752 
Q 1681 391 2138 391 
Q 2594 391 2855 752 
Q 3116 1113 3116 1747 
z
" transform="scale(0.015625)"/>
     <path id="DejaVuSans-6e" d="M 3513 2113 
L 3513 0 
L 2938 0 
L 2938 2094 
Q 2938 2591 2744 2837 
Q 2550 3084 2163 3084 
Q 1697 3084 1428 2787 
Q 1159 2491 1159 1978 
L 1159 0 
L 581 0 
L 581 3500 
L 1159 3500 
L 1159 2956 
Q 1366 3272 1645 3428 
Q 1925 3584 2291 3584 
Q 2894 3584 3203 3211 
Q 3513 2838 3513 2113 
z
" transform="scale(0.015625)"/>
     <path id="DejaVuSans-65" d="M 3597 1894 
L 3597 1613 
L 953 1613 
Q 991 1019 1311 708 
Q 1631 397 2203 397 
Q 2534 397 2845 478 
Q 3156 559 3463 722 
L 3463 178 
Q 3153 47 2828 -22 
Q 2503 -91 2169 -91 
Q 1331 -91 842 396 
Q 353 884 353 1716 
Q 353 2575 817 3079 
Q 1281 3584 2069 3584 
Q 2775 3584 3186 3129 
Q 3597 2675 3597 1894 
z
M 3022 2063 
Q 3016 2534 2758 2815 
Q 2500 3097 2075 3097 
Q 1594 3097 1305 2825 
Q 1016 2553 972 2059 
L 3022 2063 
z
" transform="scale(0.015625)"/>
     <path id="DejaVuSans-74" d="M 1172 4494 
L 1172 3500 
L 2356 3500 
L 2356 3053 
L 1172 3053 
L 1172 1153 
Q 1172 725 1289 603 
Q 1406 481 1766 481 
L 2356 481 
L 2356 0 
L 1766 0 
Q 1100 0 847 248 
Q 594 497 594 1153 
L 594 3053 
L 172 3053 
L 172 3500 
L 594 3500 
L 594 4494 
L 1172 4494 
z
" transform="scale(0.015625)"/>
     <path id="DejaVuSans-66" d="M 2375 4863 
L 2375 4384 
L 1825 4384 
Q 1516 4384 1395 4259 
Q 1275 4134 1275 3809 
L 1275 3500 
L 2222 3500 
L 2222 3053 
L 1275 3053 
L 1275 0 
L 697 0 
L 697 3053 
L 147 3053 
L 147 3500 
L 697 3500 
L 697 3744 
Q 697 4328 969 4595 
Q 1241 4863 1831 4863 
L 2375 4863 
z
" transform="scale(0.015625)"/>
     <path id="DejaVuSans-68" d="M 3513 2113 
L 3513 0 
L 2938 0 
L 2938 2094 
Q 2938 2591 2744 2837 
Q 2550 3084 2163 3084 
Q 1697 3084 1428 2787 
Q 1159 2491 1159 1978 
L 1159 0 
L 581 0 
L 581 4863 
L 1159 4863 
L 1159 2956 
Q 1366 3272 1645 3428 
Q 1925 3584 2291 3584 
Q 2894 3584 3203 3211 
Q 3513 2838 3513 2113 
z
" transform="scale(0.015625)"/>
     <path id="DejaVuSans-48" d="M 628 4666 
L 1259 4666 
L 1259 2753 
L 3553 2753 
L 3553 4666 
L 4184 4666 
L 4184 0 
L 3553 0 
L 3553 2222 
L 1259 2222 
L 1259 0 
L 628 0 
L 628 4666 
z
" transform="scale(0.015625)"/>
     <path id="DejaVuSans-79" d="M 2059 -325 
Q 1816 -950 1584 -1140 
Q 1353 -1331 966 -1331 
L 506 -1331 
L 506 -850 
L 844 -850 
Q 1081 -850 1212 -737 
Q 1344 -625 1503 -206 
L 1606 56 
L 191 3500 
L 800 3500 
L 1894 763 
L 2988 3500 
L 3597 3500 
L 2059 -325 
z
" transform="scale(0.015625)"/>
     <path id="DejaVuSans-72" d="M 2631 2963 
Q 2534 3019 2420 3045 
Q 2306 3072 2169 3072 
Q 1681 3072 1420 2755 
Q 1159 2438 1159 1844 
L 1159 0 
L 581 0 
L 581 3500 
L 1159 3500 
L 1159 2956 
Q 1341 3275 1631 3429 
Q 1922 3584 2338 3584 
Q 2397 3584 2469 3576 
Q 2541 3569 2628 3553 
L 2631 2963 
z
" transform="scale(0.015625)"/>
     <path id="DejaVuSans-67" d="M 2906 1791 
Q 2906 2416 2648 2759 
Q 2391 3103 1925 3103 
Q 1463 3103 1205 2759 
Q 947 2416 947 1791 
Q 947 1169 1205 825 
Q 1463 481 1925 481 
Q 2391 481 2648 825 
Q 2906 1169 2906 1791 
z
M 3481 434 
Q 3481 -459 3084 -895 
Q 2688 -1331 1869 -1331 
Q 1566 -1331 1297 -1286 
Q 1028 -1241 775 -1147 
L 775 -588 
Q 1028 -725 1275 -790 
Q 1522 -856 1778 -856 
Q 2344 -856 2625 -561 
Q 2906 -266 2906 331 
L 2906 616 
Q 2728 306 2450 153 
Q 2172 0 1784 0 
Q 1141 0 747 490 
Q 353 981 353 1791 
Q 353 2603 747 3093 
Q 1141 3584 1784 3584 
Q 2172 3584 2450 3431 
Q 2728 3278 2906 2969 
L 2906 3500 
L 3481 3500 
L 3481 434 
z
" transform="scale(0.015625)"/>
     <path id="DejaVuSans-77" d="M 269 3500 
L 844 3500 
L 1563 769 
L 2278 3500 
L 2956 3500 
L 3675 769 
L 4391 3500 
L 4966 3500 
L 4050 0 
L 3372 0 
L 2619 2869 
L 1863 0 
L 1184 0 
L 269 3500 
z
" transform="scale(0.015625)"/>
     <path id="DejaVuSans-76" d="M 191 3500 
L 800 3500 
L 1894 563 
L 2988 3500 
L 3597 3500 
L 2284 0 
L 1503 0 
L 191 3500 
z
" transform="scale(0.015625)"/>
    </defs>
    <use xlink:href="#DejaVuSans-52"/>
    <use xlink:href="#DejaVuSans-61" x="67.232422"/>
    <use xlink:href="#DejaVuSans-64" x="128.511719"/>
    <use xlink:href="#DejaVuSans-69" x="191.988281"/>
    <use xlink:href="#DejaVuSans-61" x="219.771484"/>
    <use xlink:href="#DejaVuSans-6c" x="281.050781"/>
    <use xlink:href="#DejaVuSans-20" x="308.833984"/>
    <use xlink:href="#DejaVuSans-63" x="340.621094"/>
    <use xlink:href="#DejaVuSans-6f" x="395.601562"/>
    <use xlink:href="#DejaVuSans-6d" x="456.783203"/>
    <use xlink:href="#DejaVuSans-70" x="554.195312"/>
    <use xlink:href="#DejaVuSans-6f" x="617.671875"/>
    <use xlink:href="#DejaVuSans-6e" x="678.853516"/>
    <use xlink:href="#DejaVuSans-65" x="742.232422"/>
    <use xlink:href="#DejaVuSans-6e" x="803.755859"/>
    <use xlink:href="#DejaVuSans-74" x="867.134766"/>
    <use xlink:href="#DejaVuSans-20" x="906.34375"/>
    <use xlink:href="#DejaVuSans-6f" x="938.130859"/>
    <use xlink:href="#DejaVuSans-66" x="999.3125"/>
    <use xlink:href="#DejaVuSans-20" x="1034.517578"/>
    <use xlink:href="#DejaVuSans-74" x="1066.304688"/>
    <use xlink:href="#DejaVuSans-68" x="1105.513672"/>
    <use xlink:href="#DejaVuSans-65" x="1168.892578"/>
    <use xlink:href="#DejaVuSans-20" x="1230.416016"/>
    <use xlink:href="#DejaVuSans-48" x="1262.203125"/>
    <use xlink:href="#DejaVuSans-79" x="1337.398438"/>
    <use xlink:href="#DejaVuSans-64" x="1396.578125"/>
    <use xlink:href="#DejaVuSans-72" x="1460.054688"/>
    <use xlink:href="#DejaVuSans-6f" x="1498.917969"/>
    <use xlink:href="#DejaVuSans-67" x="1560.099609"/>
    <use xlink:href="#DejaVuSans-65" x="1623.576172"/>
    <use xlink:href="#DejaVuSans-6e" x="1685.099609"/>
    <use xlink:href="#DejaVuSans-20" x="1748.478516"/>
    <use xlink:href="#DejaVuSans-77" x="1780.265625"/>
    <use xlink:href="#DejaVuSans-61" x="1862.052734"/>
    <use xlink:href="#DejaVuSans-76" x="1923.332031"/>
    <use xlink:href="#DejaVuSans-65" x="1982.511719"/>
    <use xlink:href="#DejaVuSans-66" x="2044.035156"/>
    <use xlink:href="#DejaVuSans-75" x="2079.240234"/>
    <use xlink:href="#DejaVuSans-6e" x="2142.619141"/>
    <use xlink:href="#DejaVuSans-63" x="2205.998047"/>
    <use xlink:href="#DejaVuSans-74" x="2260.978516"/>
    <use xlink:href="#DejaVuSans-69" x="2300.1875"/>
    <use xlink:href="#DejaVuSans-6f" x="2327.970703"/>
    <use xlink:href="#DejaVuSans-6e" x="2389.152344"/>
   </g>
  </g>
 </g>
 <defs>
  <clipPath id="pb08dbdfdcd">
   <rect x="65.63" y="69.36" width="272.552" height="171.62"/>
  </clipPath>
  <clipPath id="p8ca0db2d99">
   <rect x="416.99" y="69.36" width="272.552" height="171.62"/>
  </clipPath>
  <clipPath id="p8c3286aced">
   <rect x="65.63" y="330.72" width="272.552" height="171.62"/>
  </clipPath>
  <clipPath id="pf7724ec06a">
   <rect x="416.99" y="330.72" width="272.552" height="171.62"/>
  </clipPath>
 </defs>
</svg>
