<?xml version="1.0" encoding="utf-8" standalone="no"?>
<!DOCTYPE svg PUBLIC "-//W3C//DTD SVG 1.1//EN"
  "http://www.w3.org/Graphics/SVG/1.1/DTD/svg11.dtd">
<svg xmlns:xlink="http://www.w3.org/1999/xlink" width="864pt" height="720pt" viewBox="0 0 864 720" xmlns="http://www.w3.org/2000/svg" version="1.1">
 <metadata>
  <rdf:RDF xmlns:dc="http://purl.org/dc/elements/1.1/" xmlns:cc="http://creativecommons.org/ns#" xmlns:rdf="http://www.w3.org/1999/02/22-rdf-syntax-ns#">
   <cc:Work>
    <dc:type rdf:resource="http://purl.org/dc/dcmitype/StillImage"/>
    <dc:date>2024-07-18T18:02:17.126169</dc:date>
    <dc:format>image/svg+xml</dc:format>
    <dc:creator>
     <cc:Agent>
      <dc:title>Matplotlib v3.7.1, https://matplotlib.org/</dc:title>
     </cc:Agent>
    </dc:creator>
   </cc:Work>
  </rdf:RDF>
 </metadata>
 <defs>
  <style type="text/css">*{stroke-linejoin: round; stroke-linecap: butt}</style>
 </defs>
 <g id="figure_1">
  <g id="patch_1">
   <path d="M 0 720 
L 864 720 
L 864 0 
L 0 0 
z
" style="fill: #ffffff"/>
  </g>
  <g id="axes_1">
   <g id="patch_2">
    <path d="M 108 640.8 
L 777.6 640.8 
L 777.6 86.4 
L 108 86.4 
z
" style="fill: #ffffff"/>
   </g>
   <g id="matplotlib.axis_1">
    <g id="xtick_1">
     <g id="line2d_1">
      <defs>
       <path id="mc573638ba9" d="M 0 0 
L 0 10 
" style="stroke: #000000; stroke-width: 2.5"/>
      </defs>
      <g>
       <use xlink:href="#mc573638ba9" x="163.8" y="640.8" style="stroke: #000000; stroke-width: 2.5"/>
      </g>
     </g>
     <g id="text_1">
      <!-- 0.0 -->
      <g transform="translate(151.0775 666.4575) scale(0.16 -0.16)">
       <defs>
        <path id="DejaVuSans-30" d="M 2034 4250 
Q 1547 4250 1301 3770 
Q 1056 3291 1056 2328 
Q 1056 1369 1301 889 
Q 1547 409 2034 409 
Q 2525 409 2770 889 
Q 3016 1369 3016 2328 
Q 3016 3291 2770 3770 
Q 2525 4250 2034 4250 
z
M 2034 4750 
Q 2819 4750 3233 4129 
Q 3647 3509 3647 2328 
Q 3647 1150 3233 529 
Q 2819 -91 2034 -91 
Q 1250 -91 836 529 
Q 422 1150 422 2328 
Q 422 3509 836 4129 
Q 1250 4750 2034 4750 
z
" transform="scale(0.015625)"/>
        <path id="DejaVuSans-2e" d="M 684 794 
L 1344 794 
L 1344 0 
L 684 0 
L 684 794 
z
" transform="scale(0.015625)"/>
       </defs>
       <use xlink:href="#DejaVuSans-30"/>
       <use xlink:href="#DejaVuSans-2e" x="63.623047"/>
       <use xlink:href="#DejaVuSans-30" x="95.410156"/>
      </g>
     </g>
    </g>
    <g id="xtick_2">
     <g id="line2d_2">
      <g>
       <use xlink:href="#mc573638ba9" x="275.4" y="640.8" style="stroke: #000000; stroke-width: 2.5"/>
      </g>
     </g>
     <g id="text_2">
      <!-- 0.2 -->
      <g transform="translate(262.6775 666.4575) scale(0.16 -0.16)">
       <defs>
        <path id="DejaVuSans-32" d="M 1228 531 
L 3431 531 
L 3431 0 
L 469 0 
L 469 531 
Q 828 903 1448 1529 
Q 2069 2156 2228 2338 
Q 2531 2678 2651 2914 
Q 2772 3150 2772 3378 
Q 2772 3750 2511 3984 
Q 2250 4219 1831 4219 
Q 1534 4219 1204 4116 
Q 875 4013 500 3803 
L 500 4441 
Q 881 4594 1212 4672 
Q 1544 4750 1819 4750 
Q 2544 4750 2975 4387 
Q 3406 4025 3406 3419 
Q 3406 3131 3298 2873 
Q 3191 2616 2906 2266 
Q 2828 2175 2409 1742 
Q 1991 1309 1228 531 
z
" transform="scale(0.015625)"/>
       </defs>
       <use xlink:href="#DejaVuSans-30"/>
       <use xlink:href="#DejaVuSans-2e" x="63.623047"/>
       <use xlink:href="#DejaVuSans-32" x="95.410156"/>
      </g>
     </g>
    </g>
    <g id="xtick_3">
     <g id="line2d_3">
      <g>
       <use xlink:href="#mc573638ba9" x="387" y="640.8" style="stroke: #000000; stroke-width: 2.5"/>
      </g>
     </g>
     <g id="text_3">
      <!-- 0.4 -->
      <g transform="translate(374.2775 666.4575) scale(0.16 -0.16)">
       <defs>
        <path id="DejaVuSans-34" d="M 2419 4116 
L 825 1625 
L 2419 1625 
L 2419 4116 
z
M 2253 4666 
L 3047 4666 
L 3047 1625 
L 3713 1625 
L 3713 1100 
L 3047 1100 
L 3047 0 
L 2419 0 
L 2419 1100 
L 313 1100 
L 313 1709 
L 2253 4666 
z
" transform="scale(0.015625)"/>
       </defs>
       <use xlink:href="#DejaVuSans-30"/>
       <use xlink:href="#DejaVuSans-2e" x="63.623047"/>
       <use xlink:href="#DejaVuSans-34" x="95.410156"/>
      </g>
     </g>
    </g>
    <g id="xtick_4">
     <g id="line2d_4">
      <g>
       <use xlink:href="#mc573638ba9" x="498.6" y="640.8" style="stroke: #000000; stroke-width: 2.5"/>
      </g>
     </g>
     <g id="text_4">
      <!-- 0.6 -->
      <g transform="translate(485.8775 666.4575) scale(0.16 -0.16)">
       <defs>
        <path id="DejaVuSans-36" d="M 2113 2584 
Q 1688 2584 1439 2293 
Q 1191 2003 1191 1497 
Q 1191 994 1439 701 
Q 1688 409 2113 409 
Q 2538 409 2786 701 
Q 3034 994 3034 1497 
Q 3034 2003 2786 2293 
Q 2538 2584 2113 2584 
z
M 3366 4563 
L 3366 3988 
Q 3128 4100 2886 4159 
Q 2644 4219 2406 4219 
Q 1781 4219 1451 3797 
Q 1122 3375 1075 2522 
Q 1259 2794 1537 2939 
Q 1816 3084 2150 3084 
Q 2853 3084 3261 2657 
Q 3669 2231 3669 1497 
Q 3669 778 3244 343 
Q 2819 -91 2113 -91 
Q 1303 -91 875 529 
Q 447 1150 447 2328 
Q 447 3434 972 4092 
Q 1497 4750 2381 4750 
Q 2619 4750 2861 4703 
Q 3103 4656 3366 4563 
z
" transform="scale(0.015625)"/>
       </defs>
       <use xlink:href="#DejaVuSans-30"/>
       <use xlink:href="#DejaVuSans-2e" x="63.623047"/>
       <use xlink:href="#DejaVuSans-36" x="95.410156"/>
      </g>
     </g>
    </g>
    <g id="xtick_5">
     <g id="line2d_5">
      <g>
       <use xlink:href="#mc573638ba9" x="610.2" y="640.8" style="stroke: #000000; stroke-width: 2.5"/>
      </g>
     </g>
     <g id="text_5">
      <!-- 0.8 -->
      <g transform="translate(597.4775 666.4575) scale(0.16 -0.16)">
       <defs>
        <path id="DejaVuSans-38" d="M 2034 2216 
Q 1584 2216 1326 1975 
Q 1069 1734 1069 1313 
Q 1069 891 1326 650 
Q 1584 409 2034 409 
Q 2484 409 2743 651 
Q 3003 894 3003 1313 
Q 3003 1734 2745 1975 
Q 2488 2216 2034 2216 
z
M 1403 2484 
Q 997 2584 770 2862 
Q 544 3141 544 3541 
Q 544 4100 942 4425 
Q 1341 4750 2034 4750 
Q 2731 4750 3128 4425 
Q 3525 4100 3525 3541 
Q 3525 3141 3298 2862 
Q 3072 2584 2669 2484 
Q 3125 2378 3379 2068 
Q 3634 1759 3634 1313 
Q 3634 634 3220 271 
Q 2806 -91 2034 -91 
Q 1263 -91 848 271 
Q 434 634 434 1313 
Q 434 1759 690 2068 
Q 947 2378 1403 2484 
z
M 1172 3481 
Q 1172 3119 1398 2916 
Q 1625 2713 2034 2713 
Q 2441 2713 2670 2916 
Q 2900 3119 2900 3481 
Q 2900 3844 2670 4047 
Q 2441 4250 2034 4250 
Q 1625 4250 1398 4047 
Q 1172 3844 1172 3481 
z
" transform="scale(0.015625)"/>
       </defs>
       <use xlink:href="#DejaVuSans-30"/>
       <use xlink:href="#DejaVuSans-2e" x="63.623047"/>
       <use xlink:href="#DejaVuSans-38" x="95.410156"/>
      </g>
     </g>
    </g>
    <g id="xtick_6">
     <g id="line2d_6">
      <g>
       <use xlink:href="#mc573638ba9" x="721.8" y="640.8" style="stroke: #000000; stroke-width: 2.5"/>
      </g>
     </g>
     <g id="text_6">
      <!-- 1.0 -->
      <g transform="translate(709.0775 666.4575) scale(0.16 -0.16)">
       <defs>
        <path id="DejaVuSans-31" d="M 794 531 
L 1825 531 
L 1825 4091 
L 703 3866 
L 703 4441 
L 1819 4666 
L 2450 4666 
L 2450 531 
L 3481 531 
L 3481 0 
L 794 0 
L 794 531 
z
" transform="scale(0.015625)"/>
       </defs>
       <use xlink:href="#DejaVuSans-31"/>
       <use xlink:href="#DejaVuSans-2e" x="63.623047"/>
       <use xlink:href="#DejaVuSans-30" x="95.410156"/>
      </g>
     </g>
    </g>
   </g>
   <g id="matplotlib.axis_2">
    <g id="ytick_1">
     <g id="line2d_7">
      <defs>
       <path id="m3fd7085498" d="M 0 0 
L -10 0 
" style="stroke: #000000; stroke-width: 2.5"/>
      </defs>
      <g>
       <use xlink:href="#m3fd7085498" x="108" y="590.4" style="stroke: #000000; stroke-width: 2.5"/>
      </g>
     </g>
     <g id="text_7">
      <!-- 0 -->
      <g transform="translate(84.32 596.47875) scale(0.16 -0.16)">
       <use xlink:href="#DejaVuSans-30"/>
      </g>
     </g>
    </g>
    <g id="ytick_2">
     <g id="line2d_8">
      <g>
       <use xlink:href="#m3fd7085498" x="108" y="489.6" style="stroke: #000000; stroke-width: 2.5"/>
      </g>
     </g>
     <g id="text_8">
      <!-- 5 -->
      <g transform="translate(84.32 495.67875) scale(0.16 -0.16)">
       <defs>
        <path id="DejaVuSans-35" d="M 691 4666 
L 3169 4666 
L 3169 4134 
L 1269 4134 
L 1269 2991 
Q 1406 3038 1543 3061 
Q 1681 3084 1819 3084 
Q 2600 3084 3056 2656 
Q 3513 2228 3513 1497 
Q 3513 744 3044 326 
Q 2575 -91 1722 -91 
Q 1428 -91 1123 -41 
Q 819 9 494 109 
L 494 744 
Q 775 591 1075 516 
Q 1375 441 1709 441 
Q 2250 441 2565 725 
Q 2881 1009 2881 1497 
Q 2881 1984 2565 2268 
Q 2250 2553 1709 2553 
Q 1456 2553 1204 2497 
Q 953 2441 691 2322 
L 691 4666 
z
" transform="scale(0.015625)"/>
       </defs>
       <use xlink:href="#DejaVuSans-35"/>
      </g>
     </g>
    </g>
    <g id="ytick_3">
     <g id="line2d_9">
      <g>
       <use xlink:href="#m3fd7085498" x="108" y="388.8" style="stroke: #000000; stroke-width: 2.5"/>
      </g>
     </g>
     <g id="text_9">
      <!-- 10 -->
      <g transform="translate(74.14 394.87875) scale(0.16 -0.16)">
       <use xlink:href="#DejaVuSans-31"/>
       <use xlink:href="#DejaVuSans-30" x="63.623047"/>
      </g>
     </g>
    </g>
    <g id="ytick_4">
     <g id="line2d_10">
      <g>
       <use xlink:href="#m3fd7085498" x="108" y="288" style="stroke: #000000; stroke-width: 2.5"/>
      </g>
     </g>
     <g id="text_10">
      <!-- 15 -->
      <g transform="translate(74.14 294.07875) scale(0.16 -0.16)">
       <use xlink:href="#DejaVuSans-31"/>
       <use xlink:href="#DejaVuSans-35" x="63.623047"/>
      </g>
     </g>
    </g>
    <g id="ytick_5">
     <g id="line2d_11">
      <g>
       <use xlink:href="#m3fd7085498" x="108" y="187.2" style="stroke: #000000; stroke-width: 2.5"/>
      </g>
     </g>
     <g id="text_11">
      <!-- 20 -->
      <g transform="translate(74.14 193.27875) scale(0.16 -0.16)">
       <use xlink:href="#DejaVuSans-32"/>
       <use xlink:href="#DejaVuSans-30" x="63.623047"/>
      </g>
     </g>
    </g>
    <g id="ytick_6">
     <g id="line2d_12">
      <g>
       <use xlink:href="#m3fd7085498" x="108" y="86.4" style="stroke: #000000; stroke-width: 2.5"/>
      </g>
     </g>
     <g id="text_12">
      <!-- 25 -->
      <g transform="translate(74.14 92.47875) scale(0.16 -0.16)">
       <use xlink:href="#DejaVuSans-32"/>
       <use xlink:href="#DejaVuSans-35" x="63.623047"/>
      </g>
     </g>
    </g>
   </g>
   <g id="line2d_13">
    <path d="M 163.8 565.528597 
L 169.436364 564.624016 
L 175.072727 563.720346 
L 180.709091 562.818497 
L 186.345455 561.919377 
L 191.981818 561.023891 
L 197.618182 560.132941 
L 203.254545 559.247423 
L 208.890909 558.368231 
L 214.527273 557.496248 
L 220.163636 556.632353 
L 225.8 555.777416 
L 231.436364 554.932298 
L 237.072727 554.097849 
L 242.709091 553.27491 
L 248.345455 552.464309 
L 253.981818 551.666863 
L 259.618182 550.883374 
L 265.254545 550.114632 
L 270.890909 549.361411 
L 276.527273 548.624468 
L 282.163636 547.904547 
L 287.8 547.202372 
L 293.436364 546.518649 
L 299.072727 545.854068 
L 304.709091 545.209297 
L 310.345455 544.584987 
L 315.981818 543.981764 
L 321.618182 543.400238 
L 327.254545 542.840993 
L 332.890909 542.304592 
L 338.527273 541.791576 
L 344.163636 541.302461 
L 349.8 540.83774 
L 355.436364 540.397881 
L 361.072727 539.983326 
L 366.709091 539.594493 
L 372.345455 539.231773 
L 377.981818 538.895532 
L 383.618182 538.586108 
L 389.254545 538.303813 
L 394.890909 538.048931 
L 400.527273 537.821719 
L 406.163636 537.622405 
L 411.8 537.451191 
L 417.436364 537.308248 
L 423.072727 537.19372 
L 428.709091 537.107724 
L 434.345455 537.050344 
L 439.981818 537.02164 
L 445.618182 537.02164 
L 451.254545 537.050344 
L 456.890909 537.107724 
L 462.527273 537.19372 
L 468.163636 537.308248 
L 473.8 537.451191 
L 479.436364 537.622405 
L 485.072727 537.821719 
L 490.709091 538.048931 
L 496.345455 538.303813 
L 501.981818 538.586108 
L 507.618182 538.895532 
L 513.254545 539.231773 
L 518.890909 539.594493 
L 524.527273 539.983326 
L 530.163636 540.397881 
L 535.8 540.83774 
L 541.436364 541.302461 
L 547.072727 541.791576 
L 552.709091 542.304592 
L 558.345455 542.840993 
L 563.981818 543.400238 
L 569.618182 543.981764 
L 575.254545 544.584987 
L 580.890909 545.209297 
L 586.527273 545.854068 
L 592.163636 546.518649 
L 597.8 547.202372 
L 603.436364 547.904547 
L 609.072727 548.624468 
L 614.709091 549.361411 
L 620.345455 550.114632 
L 625.981818 550.883374 
L 631.618182 551.666863 
L 637.254545 552.464309 
L 642.890909 553.27491 
L 648.527273 554.097849 
L 654.163636 554.932298 
L 659.8 555.777416 
L 665.436364 556.632353 
L 671.072727 557.496248 
L 676.709091 558.368231 
L 682.345455 559.247423 
L 687.981818 560.132941 
L 693.618182 561.023891 
L 699.254545 561.919377 
L 704.890909 562.818497 
L 710.527273 563.720346 
L 716.163636 564.624016 
L 721.8 565.528597 
" clip-path="url(#p45c7528dea)" style="fill: none; stroke-dasharray: 5.55,2.4; stroke-dashoffset: 0; stroke: #1f77b4; stroke-width: 1.5"/>
   </g>
   <g id="line2d_14">
    <path d="M 163.8 490.914388 
L 169.436364 489.106137 
L 175.072727 487.305168 
L 180.709091 485.518731 
L 186.345455 483.754022 
L 191.981818 482.018144 
L 197.618182 480.318088 
L 203.254545 478.6607 
L 208.890909 477.052654 
L 214.527273 475.500423 
L 220.163636 474.010259 
L 225.8 472.588162 
L 231.436364 471.239859 
L 237.072727 469.970777 
L 242.709091 468.786029 
L 248.345455 467.690383 
L 253.981818 466.688252 
L 259.618182 465.783671 
L 265.254545 464.980283 
L 270.890909 464.281323 
L 276.527273 463.689604 
L 282.163636 463.20751 
L 287.8 462.836981 
L 293.436364 462.579511 
L 299.072727 462.436135 
L 304.709091 462.407431 
L 310.345455 462.493514 
L 315.981818 462.694038 
L 321.618182 463.008196 
L 327.254545 463.434722 
L 332.890909 463.971899 
L 338.527273 464.617564 
L 344.163636 465.369116 
L 349.8 466.223531 
L 355.436364 467.177367 
L 361.072727 468.226784 
L 366.709091 469.367555 
L 372.345455 470.595088 
L 377.981818 471.90444 
L 383.618182 473.290338 
L 389.254545 474.747202 
L 394.890909 476.269165 
L 400.527273 477.8501 
L 406.163636 479.483639 
L 411.8 481.163207 
L 417.436364 482.882039 
L 423.072727 484.633214 
L 428.709091 486.409682 
L 434.345455 488.204288 
L 439.981818 490.009807 
L 445.618182 491.818968 
L 451.254545 493.624487 
L 456.890909 495.419094 
L 462.527273 497.195561 
L 468.163636 498.946736 
L 473.8 500.665568 
L 479.436364 502.345136 
L 485.072727 503.978676 
L 490.709091 505.55961 
L 496.345455 507.081574 
L 501.981818 508.538437 
L 507.618182 509.924336 
L 513.254545 511.233687 
L 518.890909 512.46122 
L 524.527273 513.601992 
L 530.163636 514.651408 
L 535.8 515.605244 
L 541.436364 516.459659 
L 547.072727 517.211212 
L 552.709091 517.856876 
L 558.345455 518.394053 
L 563.981818 518.820579 
L 569.618182 519.134737 
L 575.254545 519.335261 
L 580.890909 519.421344 
L 586.527273 519.39264 
L 592.163636 519.249264 
L 597.8 518.991794 
L 603.436364 518.621265 
L 609.072727 518.139171 
L 614.709091 517.547453 
L 620.345455 516.848492 
L 625.981818 516.045104 
L 631.618182 515.140523 
L 637.254545 514.138392 
L 642.890909 513.042747 
L 648.527273 511.857998 
L 654.163636 510.588917 
L 659.8 509.240613 
L 665.436364 507.818516 
L 671.072727 506.328352 
L 676.709091 504.776122 
L 682.345455 503.168075 
L 687.981818 501.510687 
L 693.618182 499.810631 
L 699.254545 498.074754 
L 704.890909 496.310044 
L 710.527273 494.523608 
L 716.163636 492.722638 
L 721.8 490.914388 
" clip-path="url(#p45c7528dea)" style="fill: none; stroke-dasharray: 5.55,2.4; stroke-dashoffset: 0; stroke: #ff7f0e; stroke-width: 1.5"/>
   </g>
   <g id="line2d_15">
    <path d="M 163.8 366.557372 
L 169.436364 363.847273 
L 175.072727 361.161716 
L 180.709091 358.525023 
L 186.345455 355.961073 
L 191.981818 353.493084 
L 197.618182 351.143408 
L 203.254545 348.933322 
L 208.890909 346.882843 
L 214.527273 345.01054 
L 220.163636 343.333368 
L 225.8 341.866516 
L 231.436364 340.623268 
L 237.072727 339.614883 
L 242.709091 338.850494 
L 248.345455 338.337023 
L 253.981818 338.07912 
L 259.618182 338.07912 
L 265.254545 338.337023 
L 270.890909 338.850494 
L 276.527273 339.614883 
L 282.163636 340.623268 
L 287.8 341.866516 
L 293.436364 343.333368 
L 299.072727 345.01054 
L 304.709091 346.882843 
L 310.345455 348.933322 
L 315.981818 351.143408 
L 321.618182 353.493084 
L 327.254545 355.961073 
L 332.890909 358.525023 
L 338.527273 361.161716 
L 344.163636 363.847273 
L 349.8 366.557372 
L 355.436364 369.267472 
L 361.072727 371.953028 
L 366.709091 374.589721 
L 372.345455 377.153672 
L 377.981818 379.62166 
L 383.618182 381.971337 
L 389.254545 384.181422 
L 394.890909 386.231901 
L 400.527273 388.104205 
L 406.163636 389.781377 
L 411.8 391.248229 
L 417.436364 392.491477 
L 423.072727 393.499861 
L 428.709091 394.26425 
L 434.345455 394.777721 
L 439.981818 395.035625 
L 445.618182 395.035625 
L 451.254545 394.777721 
L 456.890909 394.26425 
L 462.527273 393.499861 
L 468.163636 392.491477 
L 473.8 391.248229 
L 479.436364 389.781377 
L 485.072727 388.104205 
L 490.709091 386.231901 
L 496.345455 384.181422 
L 501.981818 381.971337 
L 507.618182 379.62166 
L 513.254545 377.153672 
L 518.890909 374.589721 
L 524.527273 371.953028 
L 530.163636 369.267472 
L 535.8 366.557372 
L 541.436364 363.847273 
L 547.072727 361.161716 
L 552.709091 358.525023 
L 558.345455 355.961073 
L 563.981818 353.493084 
L 569.618182 351.143408 
L 575.254545 348.933322 
L 580.890909 346.882843 
L 586.527273 345.01054 
L 592.163636 343.333368 
L 597.8 341.866516 
L 603.436364 340.623268 
L 609.072727 339.614883 
L 614.709091 338.850494 
L 620.345455 338.337023 
L 625.981818 338.07912 
L 631.618182 338.07912 
L 637.254545 338.337023 
L 642.890909 338.850494 
L 648.527273 339.614883 
L 654.163636 340.623268 
L 659.8 341.866516 
L 665.436364 343.333368 
L 671.072727 345.01054 
L 676.709091 346.882843 
L 682.345455 348.933322 
L 687.981818 351.143408 
L 693.618182 353.493084 
L 699.254545 355.961073 
L 704.890909 358.525023 
L 710.527273 361.161716 
L 716.163636 363.847273 
L 721.8 366.557372 
" clip-path="url(#p45c7528dea)" style="fill: none; stroke-dasharray: 5.55,2.4; stroke-dashoffset: 0; stroke: #2ca02c; stroke-width: 1.5"/>
   </g>
   <g id="line2d_16">
    <path d="M 163.8 192.457551 
L 169.436364 188.848331 
L 175.072727 185.297184 
L 180.709091 181.861251 
L 186.345455 178.595816 
L 191.981818 175.553422 
L 197.618182 172.783022 
L 203.254545 170.329192 
L 208.890909 168.231415 
L 214.527273 166.523446 
L 220.163636 165.232767 
L 225.8 164.380144 
L 231.436364 163.979298 
L 237.072727 164.036677 
L 242.709091 164.551359 
L 248.345455 165.515062 
L 253.981818 166.912279 
L 259.618182 168.72053 
L 265.254545 170.910718 
L 270.890909 173.447603 
L 276.527273 176.290365 
L 282.163636 179.393262 
L 287.8 182.70637 
L 293.436364 186.176377 
L 299.072727 189.747451 
L 304.709091 193.362131 
L 310.345455 196.962257 
L 315.981818 200.489899 
L 321.618182 203.888299 
L 327.254545 207.102773 
L 332.890909 210.0816 
L 338.527273 212.77685 
L 344.163636 215.145155 
L 349.8 217.148407 
L 355.436364 218.754375 
L 361.072727 219.937216 
L 366.709091 220.6779 
L 372.345455 220.964507 
L 377.981818 220.792427 
L 383.618182 220.164428 
L 389.254545 219.090616 
L 394.890909 217.588267 
L 400.527273 215.681555 
L 406.163636 213.401161 
L 411.8 210.783776 
L 417.436364 207.871515 
L 423.072727 204.711238 
L 428.709091 201.353794 
L 434.345455 197.853207 
L 439.981818 194.265801 
L 445.618182 190.6493 
L 451.254545 187.061894 
L 456.890909 183.561307 
L 462.527273 180.203863 
L 468.163636 177.043586 
L 473.8 174.131325 
L 479.436364 171.51394 
L 485.072727 169.233546 
L 490.709091 167.326834 
L 496.345455 165.824486 
L 501.981818 164.750673 
L 507.618182 164.122674 
L 513.254545 163.950594 
L 518.890909 164.237201 
L 524.527273 164.977885 
L 530.163636 166.160727 
L 535.8 167.766694 
L 541.436364 169.769946 
L 547.072727 172.138251 
L 552.709091 174.833501 
L 558.345455 177.812328 
L 563.981818 181.026802 
L 569.618182 184.425202 
L 575.254545 187.952845 
L 580.890909 191.55297 
L 586.527273 195.16765 
L 592.163636 198.738724 
L 597.8 202.208731 
L 603.436364 205.521839 
L 609.072727 208.624737 
L 614.709091 211.467498 
L 620.345455 214.004383 
L 625.981818 216.194571 
L 631.618182 218.002822 
L 637.254545 219.400039 
L 642.890909 220.363742 
L 648.527273 220.878424 
L 654.163636 220.935803 
L 659.8 220.534957 
L 665.436364 219.682334 
L 671.072727 218.391655 
L 676.709091 216.683686 
L 682.345455 214.58591 
L 687.981818 212.13208 
L 693.618182 209.361679 
L 699.254545 206.319285 
L 704.890909 203.05385 
L 710.527273 199.617917 
L 716.163636 196.06677 
L 721.8 192.457551 
" clip-path="url(#p45c7528dea)" style="fill: none; stroke-dasharray: 5.55,2.4; stroke-dashoffset: 0; stroke: #d62728; stroke-width: 1.5"/>
   </g>
   <g id="line2d_17">
    <path d="M 163.8 565.2 
L 169.436364 564.095904 
L 175.072727 563.014341 
L 180.709091 561.95531 
L 186.345455 560.918811 
L 191.981818 559.904846 
L 197.618182 558.913412 
L 203.254545 557.944512 
L 208.890909 556.998144 
L 214.527273 556.074308 
L 220.163636 555.173006 
L 225.8 554.294235 
L 231.436364 553.437998 
L 237.072727 552.604292 
L 242.709091 551.79312 
L 248.345455 551.00448 
L 253.981818 550.238372 
L 259.618182 549.494798 
L 265.254545 548.773755 
L 270.890909 548.075246 
L 276.527273 547.399268 
L 282.163636 546.745824 
L 287.8 546.114912 
L 293.436364 545.506532 
L 299.072727 544.920685 
L 304.709091 544.357371 
L 310.345455 543.816589 
L 315.981818 543.29834 
L 321.618182 542.802624 
L 327.254545 542.32944 
L 332.890909 541.878788 
L 338.527273 541.450669 
L 344.163636 541.045083 
L 349.8 540.662029 
L 355.436364 540.301508 
L 361.072727 539.96352 
L 366.709091 539.648064 
L 372.345455 539.35514 
L 377.981818 539.084749 
L 383.618182 538.836891 
L 389.254545 538.611565 
L 394.890909 538.408772 
L 400.527273 538.228512 
L 406.163636 538.070784 
L 411.8 537.935588 
L 417.436364 537.822925 
L 423.072727 537.732795 
L 428.709091 537.665197 
L 434.345455 537.620132 
L 439.981818 537.5976 
L 445.618182 537.5976 
L 451.254545 537.620132 
L 456.890909 537.665197 
L 462.527273 537.732795 
L 468.163636 537.822925 
L 473.8 537.935588 
L 479.436364 538.070784 
L 485.072727 538.228512 
L 490.709091 538.408772 
L 496.345455 538.611565 
L 501.981818 538.836891 
L 507.618182 539.084749 
L 513.254545 539.35514 
L 518.890909 539.648064 
L 524.527273 539.96352 
L 530.163636 540.301508 
L 535.8 540.662029 
L 541.436364 541.045083 
L 547.072727 541.450669 
L 552.709091 541.878788 
L 558.345455 542.32944 
L 563.981818 542.802624 
L 569.618182 543.29834 
L 575.254545 543.816589 
L 580.890909 544.357371 
L 586.527273 544.920685 
L 592.163636 545.506532 
L 597.8 546.114912 
L 603.436364 546.745824 
L 609.072727 547.399268 
L 614.709091 548.075246 
L 620.345455 548.773755 
L 625.981818 549.494798 
L 631.618182 550.238372 
L 637.254545 551.00448 
L 642.890909 551.79312 
L 648.527273 552.604292 
L 654.163636 553.437998 
L 659.8 554.294235 
L 665.436364 555.173006 
L 671.072727 556.074308 
L 676.709091 556.998144 
L 682.345455 557.944512 
L 687.981818 558.913412 
L 693.618182 559.904846 
L 699.254545 560.918811 
L 704.890909 561.95531 
L 710.527273 563.014341 
L 716.163636 564.095904 
L 721.8 565.2 
" clip-path="url(#p45c7528dea)" style="fill: none; stroke: #9467bd; stroke-width: 1.5; stroke-linecap: square"/>
   </g>
   <g id="LineCollection_1">
    <path d="M 163.8 590.4 
L 721.8 590.4 
" clip-path="url(#p45c7528dea)" style="fill: none; stroke: #000000; stroke-width: 5"/>
   </g>
   <g id="LineCollection_2">
    <path d="M 721.8 590.4 
L 721.8 -1 
" clip-path="url(#p45c7528dea)" style="fill: none; stroke: #000000; stroke-width: 5"/>
   </g>
   <g id="LineCollection_3">
    <path d="M 163.8 590.4 
L 163.8 -1 
" clip-path="url(#p45c7528dea)" style="fill: none; stroke: #000000; stroke-width: 5"/>
   </g>
   <g id="patch_3">
    <path d="M 108 640.8 
L 108 86.4 
" style="fill: none; stroke: #000000; stroke-width: 2.5; stroke-linejoin: miter; stroke-linecap: square"/>
   </g>
   <g id="patch_4">
    <path d="M 777.6 640.8 
L 777.6 86.4 
" style="fill: none; stroke: #000000; stroke-width: 2.5; stroke-linejoin: miter; stroke-linecap: square"/>
   </g>
   <g id="patch_5">
    <path d="M 108 640.8 
L 777.6 640.8 
" style="fill: none; stroke: #000000; stroke-width: 2.5; stroke-linejoin: miter; stroke-linecap: square"/>
   </g>
   <g id="patch_6">
    <path d="M 108 86.4 
L 777.6 86.4 
" style="fill: none; stroke: #000000; stroke-width: 2.5; stroke-linejoin: miter; stroke-linecap: square"/>
   </g>
   <g id="text_13">
    <!-- $\psi_1 (x)$ -->
    <g transform="translate(729.62 565.528597) scale(0.16 -0.16)">
     <defs>
      <path id="DejaVuSans-Oblique-3c8" d="M 1591 -78 
Q 891 38 616 341 
Q 278 713 425 1472 
L 819 3500 
L 1400 3500 
L 1009 1494 
Q 900 922 1119 684 
Q 1313 478 1691 434 
L 2284 3500 
L 2856 3500 
L 2263 438 
Q 2681 481 2928 688 
Q 3247 950 3353 1497 
L 3741 3500 
L 4322 3500 
L 3928 1475 
Q 3775 688 3300 344 
Q 2872 34 2163 -75 
L 1919 -1331 
L 1347 -1331 
L 1591 -78 
z
" transform="scale(0.015625)"/>
      <path id="DejaVuSans-28" d="M 1984 4856 
Q 1566 4138 1362 3434 
Q 1159 2731 1159 2009 
Q 1159 1288 1364 580 
Q 1569 -128 1984 -844 
L 1484 -844 
Q 1016 -109 783 600 
Q 550 1309 550 2009 
Q 550 2706 781 3412 
Q 1013 4119 1484 4856 
L 1984 4856 
z
" transform="scale(0.015625)"/>
      <path id="DejaVuSans-Oblique-78" d="M 3841 3500 
L 2234 1784 
L 3219 0 
L 2559 0 
L 1819 1388 
L 531 0 
L -166 0 
L 1556 1844 
L 641 3500 
L 1300 3500 
L 1972 2234 
L 3144 3500 
L 3841 3500 
z
" transform="scale(0.015625)"/>
      <path id="DejaVuSans-29" d="M 513 4856 
L 1013 4856 
Q 1481 4119 1714 3412 
Q 1947 2706 1947 2009 
Q 1947 1309 1714 600 
Q 1481 -109 1013 -844 
L 513 -844 
Q 928 -128 1133 580 
Q 1338 1288 1338 2009 
Q 1338 2731 1133 3434 
Q 928 4138 513 4856 
z
" transform="scale(0.015625)"/>
     </defs>
     <use xlink:href="#DejaVuSans-Oblique-3c8" transform="translate(0 0.125)"/>
     <use xlink:href="#DejaVuSans-31" transform="translate(65.966797 -16.28125) scale(0.7)"/>
     <use xlink:href="#DejaVuSans-28" transform="translate(113.237305 0.125)"/>
     <use xlink:href="#DejaVuSans-Oblique-78" transform="translate(152.250977 0.125)"/>
     <use xlink:href="#DejaVuSans-29" transform="translate(211.430664 0.125)"/>
    </g>
   </g>
   <g id="text_14">
    <!-- $\psi_2 (x)$ -->
    <g transform="translate(729.62 490.914388) scale(0.16 -0.16)">
     <use xlink:href="#DejaVuSans-Oblique-3c8" transform="translate(0 0.125)"/>
     <use xlink:href="#DejaVuSans-32" transform="translate(65.966797 -16.28125) scale(0.7)"/>
     <use xlink:href="#DejaVuSans-28" transform="translate(113.237305 0.125)"/>
     <use xlink:href="#DejaVuSans-Oblique-78" transform="translate(152.250977 0.125)"/>
     <use xlink:href="#DejaVuSans-29" transform="translate(211.430664 0.125)"/>
    </g>
   </g>
   <g id="text_15">
    <!-- $\psi_3 (x)$ -->
    <g transform="translate(729.62 366.557372) scale(0.16 -0.16)">
     <defs>
      <path id="DejaVuSans-33" d="M 2597 2516 
Q 3050 2419 3304 2112 
Q 3559 1806 3559 1356 
Q 3559 666 3084 287 
Q 2609 -91 1734 -91 
Q 1441 -91 1130 -33 
Q 819 25 488 141 
L 488 750 
Q 750 597 1062 519 
Q 1375 441 1716 441 
Q 2309 441 2620 675 
Q 2931 909 2931 1356 
Q 2931 1769 2642 2001 
Q 2353 2234 1838 2234 
L 1294 2234 
L 1294 2753 
L 1863 2753 
Q 2328 2753 2575 2939 
Q 2822 3125 2822 3475 
Q 2822 3834 2567 4026 
Q 2313 4219 1838 4219 
Q 1578 4219 1281 4162 
Q 984 4106 628 3988 
L 628 4550 
Q 988 4650 1302 4700 
Q 1616 4750 1894 4750 
Q 2613 4750 3031 4423 
Q 3450 4097 3450 3541 
Q 3450 3153 3228 2886 
Q 3006 2619 2597 2516 
z
" transform="scale(0.015625)"/>
     </defs>
     <use xlink:href="#DejaVuSans-Oblique-3c8" transform="translate(0 0.125)"/>
     <use xlink:href="#DejaVuSans-33" transform="translate(65.966797 -16.28125) scale(0.7)"/>
     <use xlink:href="#DejaVuSans-28" transform="translate(113.237305 0.125)"/>
     <use xlink:href="#DejaVuSans-Oblique-78" transform="translate(152.250977 0.125)"/>
     <use xlink:href="#DejaVuSans-29" transform="translate(211.430664 0.125)"/>
    </g>
   </g>
   <g id="text_16">
    <!-- $\psi_4 (x)$ -->
    <g transform="translate(729.62 192.457551) scale(0.16 -0.16)">
     <use xlink:href="#DejaVuSans-Oblique-3c8" transform="translate(0 0.125)"/>
     <use xlink:href="#DejaVuSans-34" transform="translate(65.966797 -16.28125) scale(0.7)"/>
     <use xlink:href="#DejaVuSans-28" transform="translate(113.237305 0.125)"/>
     <use xlink:href="#DejaVuSans-Oblique-78" transform="translate(152.250977 0.125)"/>
     <use xlink:href="#DejaVuSans-29" transform="translate(211.430664 0.125)"/>
    </g>
   </g>
  </g>
 </g>
 <defs>
  <clipPath id="p45c7528dea">
   <rect x="108" y="86.4" width="669.6" height="554.4"/>
  </clipPath>
 </defs>
</svg>
