<?xml version="1.0" encoding="utf-8" standalone="no"?>
<!DOCTYPE svg PUBLIC "-//W3C//DTD SVG 1.1//EN"
  "http://www.w3.org/Graphics/SVG/1.1/DTD/svg11.dtd">
<svg xmlns:xlink="http://www.w3.org/1999/xlink" width="864pt" height="720pt" viewBox="0 0 864 720" xmlns="http://www.w3.org/2000/svg" version="1.1">
 <metadata>
  <rdf:RDF xmlns:dc="http://purl.org/dc/elements/1.1/" xmlns:cc="http://creativecommons.org/ns#" xmlns:rdf="http://www.w3.org/1999/02/22-rdf-syntax-ns#">
   <cc:Work>
    <dc:type rdf:resource="http://purl.org/dc/dcmitype/StillImage"/>
    <dc:date>2024-07-18T20:27:19.108982</dc:date>
    <dc:format>image/svg+xml</dc:format>
    <dc:creator>
     <cc:Agent>
      <dc:title>Matplotlib v3.7.1, https://matplotlib.org/</dc:title>
     </cc:Agent>
    </dc:creator>
   </cc:Work>
  </rdf:RDF>
 </metadata>
 <defs>
  <style type="text/css">*{stroke-linejoin: round; stroke-linecap: butt}</style>
 </defs>
 <g id="figure_1">
  <g id="patch_1">
   <path d="M 0 720 
L 864 720 
L 864 0 
L 0 0 
z
" style="fill: #ffffff"/>
  </g>
  <g id="axes_1">
   <g id="patch_2">
    <path d="M 57.1 665.06 
L 846.72 665.06 
L 846.72 17.28 
L 57.1 17.28 
z
" style="fill: #ffffff"/>
   </g>
   <g id="matplotlib.axis_1">
    <g id="xtick_1">
     <g id="line2d_1">
      <defs>
       <path id="m84a93358c6" d="M 0 0 
L 0 10 
" style="stroke: #000000; stroke-width: 2.5"/>
      </defs>
      <g>
       <use xlink:href="#m84a93358c6" x="83.420667" y="665.06" style="stroke: #000000; stroke-width: 2.5"/>
      </g>
     </g>
    </g>
    <g id="xtick_2">
     <g id="line2d_2">
      <g>
       <use xlink:href="#m84a93358c6" x="188.703333" y="665.06" style="stroke: #000000; stroke-width: 2.5"/>
      </g>
     </g>
    </g>
    <g id="xtick_3">
     <g id="line2d_3">
      <g>
       <use xlink:href="#m84a93358c6" x="293.986" y="665.06" style="stroke: #000000; stroke-width: 2.5"/>
      </g>
     </g>
    </g>
    <g id="xtick_4">
     <g id="line2d_4">
      <g>
       <use xlink:href="#m84a93358c6" x="399.268667" y="665.06" style="stroke: #000000; stroke-width: 2.5"/>
      </g>
     </g>
    </g>
    <g id="xtick_5">
     <g id="line2d_5">
      <g>
       <use xlink:href="#m84a93358c6" x="504.551333" y="665.06" style="stroke: #000000; stroke-width: 2.5"/>
      </g>
     </g>
    </g>
    <g id="xtick_6">
     <g id="line2d_6">
      <g>
       <use xlink:href="#m84a93358c6" x="609.834" y="665.06" style="stroke: #000000; stroke-width: 2.5"/>
      </g>
     </g>
    </g>
    <g id="xtick_7">
     <g id="line2d_7">
      <g>
       <use xlink:href="#m84a93358c6" x="715.116667" y="665.06" style="stroke: #000000; stroke-width: 2.5"/>
      </g>
     </g>
    </g>
    <g id="xtick_8">
     <g id="line2d_8">
      <g>
       <use xlink:href="#m84a93358c6" x="820.399333" y="665.06" style="stroke: #000000; stroke-width: 2.5"/>
      </g>
     </g>
    </g>
    <g id="text_1">
     <!-- Position -->
     <g transform="translate(412.981875 697.756875) scale(0.2 -0.2)">
      <defs>
       <path id="DejaVuSans-50" d="M 1259 4147 
L 1259 2394 
L 2053 2394 
Q 2494 2394 2734 2622 
Q 2975 2850 2975 3272 
Q 2975 3691 2734 3919 
Q 2494 4147 2053 4147 
L 1259 4147 
z
M 628 4666 
L 2053 4666 
Q 2838 4666 3239 4311 
Q 3641 3956 3641 3272 
Q 3641 2581 3239 2228 
Q 2838 1875 2053 1875 
L 1259 1875 
L 1259 0 
L 628 0 
L 628 4666 
z
" transform="scale(0.015625)"/>
       <path id="DejaVuSans-6f" d="M 1959 3097 
Q 1497 3097 1228 2736 
Q 959 2375 959 1747 
Q 959 1119 1226 758 
Q 1494 397 1959 397 
Q 2419 397 2687 759 
Q 2956 1122 2956 1747 
Q 2956 2369 2687 2733 
Q 2419 3097 1959 3097 
z
M 1959 3584 
Q 2709 3584 3137 3096 
Q 3566 2609 3566 1747 
Q 3566 888 3137 398 
Q 2709 -91 1959 -91 
Q 1206 -91 779 398 
Q 353 888 353 1747 
Q 353 2609 779 3096 
Q 1206 3584 1959 3584 
z
" transform="scale(0.015625)"/>
       <path id="DejaVuSans-73" d="M 2834 3397 
L 2834 2853 
Q 2591 2978 2328 3040 
Q 2066 3103 1784 3103 
Q 1356 3103 1142 2972 
Q 928 2841 928 2578 
Q 928 2378 1081 2264 
Q 1234 2150 1697 2047 
L 1894 2003 
Q 2506 1872 2764 1633 
Q 3022 1394 3022 966 
Q 3022 478 2636 193 
Q 2250 -91 1575 -91 
Q 1294 -91 989 -36 
Q 684 19 347 128 
L 347 722 
Q 666 556 975 473 
Q 1284 391 1588 391 
Q 1994 391 2212 530 
Q 2431 669 2431 922 
Q 2431 1156 2273 1281 
Q 2116 1406 1581 1522 
L 1381 1569 
Q 847 1681 609 1914 
Q 372 2147 372 2553 
Q 372 3047 722 3315 
Q 1072 3584 1716 3584 
Q 2034 3584 2315 3537 
Q 2597 3491 2834 3397 
z
" transform="scale(0.015625)"/>
       <path id="DejaVuSans-69" d="M 603 3500 
L 1178 3500 
L 1178 0 
L 603 0 
L 603 3500 
z
M 603 4863 
L 1178 4863 
L 1178 4134 
L 603 4134 
L 603 4863 
z
" transform="scale(0.015625)"/>
       <path id="DejaVuSans-74" d="M 1172 4494 
L 1172 3500 
L 2356 3500 
L 2356 3053 
L 1172 3053 
L 1172 1153 
Q 1172 725 1289 603 
Q 1406 481 1766 481 
L 2356 481 
L 2356 0 
L 1766 0 
Q 1100 0 847 248 
Q 594 497 594 1153 
L 594 3053 
L 172 3053 
L 172 3500 
L 594 3500 
L 594 4494 
L 1172 4494 
z
" transform="scale(0.015625)"/>
       <path id="DejaVuSans-6e" d="M 3513 2113 
L 3513 0 
L 2938 0 
L 2938 2094 
Q 2938 2591 2744 2837 
Q 2550 3084 2163 3084 
Q 1697 3084 1428 2787 
Q 1159 2491 1159 1978 
L 1159 0 
L 581 0 
L 581 3500 
L 1159 3500 
L 1159 2956 
Q 1366 3272 1645 3428 
Q 1925 3584 2291 3584 
Q 2894 3584 3203 3211 
Q 3513 2838 3513 2113 
z
" transform="scale(0.015625)"/>
      </defs>
      <use xlink:href="#DejaVuSans-50"/>
      <use xlink:href="#DejaVuSans-6f" x="56.677734"/>
      <use xlink:href="#DejaVuSans-73" x="117.859375"/>
      <use xlink:href="#DejaVuSans-69" x="169.958984"/>
      <use xlink:href="#DejaVuSans-74" x="197.742188"/>
      <use xlink:href="#DejaVuSans-69" x="236.951172"/>
      <use xlink:href="#DejaVuSans-6f" x="264.734375"/>
      <use xlink:href="#DejaVuSans-6e" x="325.916016"/>
     </g>
    </g>
   </g>
   <g id="matplotlib.axis_2">
    <g id="ytick_1">
     <g id="line2d_9">
      <defs>
       <path id="mac560ac50b" d="M 0 0 
L -10 0 
" style="stroke: #000000; stroke-width: 2.5"/>
      </defs>
      <g>
       <use xlink:href="#mac560ac50b" x="57.1" y="611.078333" style="stroke: #000000; stroke-width: 2.5"/>
      </g>
     </g>
    </g>
    <g id="ytick_2">
     <g id="line2d_10">
      <g>
       <use xlink:href="#mac560ac50b" x="57.1" y="503.115" style="stroke: #000000; stroke-width: 2.5"/>
      </g>
     </g>
    </g>
    <g id="ytick_3">
     <g id="line2d_11">
      <g>
       <use xlink:href="#mac560ac50b" x="57.1" y="395.151667" style="stroke: #000000; stroke-width: 2.5"/>
      </g>
     </g>
    </g>
    <g id="ytick_4">
     <g id="line2d_12">
      <g>
       <use xlink:href="#mac560ac50b" x="57.1" y="287.188333" style="stroke: #000000; stroke-width: 2.5"/>
      </g>
     </g>
    </g>
    <g id="ytick_5">
     <g id="line2d_13">
      <g>
       <use xlink:href="#mac560ac50b" x="57.1" y="179.225" style="stroke: #000000; stroke-width: 2.5"/>
      </g>
     </g>
    </g>
    <g id="ytick_6">
     <g id="line2d_14">
      <g>
       <use xlink:href="#mac560ac50b" x="57.1" y="71.261667" style="stroke: #000000; stroke-width: 2.5"/>
      </g>
     </g>
    </g>
    <g id="text_2">
     <!-- $Energy$ -->
     <g transform="translate(35.4 376.37) rotate(-90) scale(0.2 -0.2)">
      <defs>
       <path id="DejaVuSans-Oblique-45" d="M 1081 4666 
L 4031 4666 
L 3928 4134 
L 1606 4134 
L 1338 2753 
L 3566 2753 
L 3463 2222 
L 1234 2222 
L 909 531 
L 3284 531 
L 3181 0 
L 172 0 
L 1081 4666 
z
" transform="scale(0.015625)"/>
       <path id="DejaVuSans-Oblique-6e" d="M 3566 2113 
L 3156 0 
L 2578 0 
L 2988 2091 
Q 3016 2238 3031 2350 
Q 3047 2463 3047 2528 
Q 3047 2791 2881 2937 
Q 2716 3084 2419 3084 
Q 1956 3084 1622 2776 
Q 1288 2469 1184 1941 
L 800 0 
L 225 0 
L 903 3500 
L 1478 3500 
L 1363 2950 
Q 1603 3253 1940 3418 
Q 2278 3584 2650 3584 
Q 3113 3584 3367 3334 
Q 3622 3084 3622 2631 
Q 3622 2519 3608 2391 
Q 3594 2263 3566 2113 
z
" transform="scale(0.015625)"/>
       <path id="DejaVuSans-Oblique-65" d="M 3078 2063 
Q 3088 2113 3092 2166 
Q 3097 2219 3097 2272 
Q 3097 2653 2873 2875 
Q 2650 3097 2266 3097 
Q 1838 3097 1509 2826 
Q 1181 2556 1013 2059 
L 3078 2063 
z
M 3578 1613 
L 903 1613 
Q 884 1494 878 1425 
Q 872 1356 872 1306 
Q 872 872 1139 634 
Q 1406 397 1894 397 
Q 2269 397 2603 481 
Q 2938 566 3225 728 
L 3116 159 
Q 2806 34 2476 -28 
Q 2147 -91 1806 -91 
Q 1078 -91 686 257 
Q 294 606 294 1247 
Q 294 1794 489 2264 
Q 684 2734 1063 3103 
Q 1306 3334 1642 3459 
Q 1978 3584 2356 3584 
Q 2950 3584 3301 3228 
Q 3653 2872 3653 2272 
Q 3653 2128 3634 1964 
Q 3616 1800 3578 1613 
z
" transform="scale(0.015625)"/>
       <path id="DejaVuSans-Oblique-72" d="M 2853 2969 
Q 2766 3016 2653 3041 
Q 2541 3066 2413 3066 
Q 1953 3066 1609 2717 
Q 1266 2369 1153 1784 
L 800 0 
L 225 0 
L 909 3500 
L 1484 3500 
L 1375 2956 
Q 1603 3259 1920 3421 
Q 2238 3584 2597 3584 
Q 2691 3584 2781 3573 
Q 2872 3563 2963 3538 
L 2853 2969 
z
" transform="scale(0.015625)"/>
       <path id="DejaVuSans-Oblique-67" d="M 3816 3500 
L 3219 434 
Q 3047 -456 2561 -893 
Q 2075 -1331 1253 -1331 
Q 950 -1331 690 -1286 
Q 431 -1241 206 -1147 
L 313 -588 
Q 525 -725 762 -790 
Q 1000 -856 1269 -856 
Q 1816 -856 2167 -557 
Q 2519 -259 2631 300 
L 2681 563 
Q 2441 288 2122 144 
Q 1803 0 1434 0 
Q 903 0 598 351 
Q 294 703 294 1319 
Q 294 1803 478 2267 
Q 663 2731 997 3091 
Q 1219 3328 1514 3456 
Q 1809 3584 2131 3584 
Q 2484 3584 2746 3420 
Q 3009 3256 3138 2956 
L 3238 3500 
L 3816 3500 
z
M 2950 2216 
Q 2950 2641 2750 2872 
Q 2550 3103 2181 3103 
Q 1953 3103 1747 3012 
Q 1541 2922 1394 2759 
Q 1156 2491 1023 2127 
Q 891 1763 891 1375 
Q 891 944 1092 712 
Q 1294 481 1672 481 
Q 2219 481 2584 976 
Q 2950 1472 2950 2216 
z
" transform="scale(0.015625)"/>
       <path id="DejaVuSans-Oblique-79" d="M 1588 -325 
Q 1188 -997 936 -1164 
Q 684 -1331 294 -1331 
L -159 -1331 
L -63 -850 
L 269 -850 
Q 509 -850 678 -719 
Q 847 -588 1056 -206 
L 1234 128 
L 459 3500 
L 1069 3500 
L 1650 819 
L 3256 3500 
L 3859 3500 
L 1588 -325 
z
" transform="scale(0.015625)"/>
      </defs>
      <use xlink:href="#DejaVuSans-Oblique-45" transform="translate(0 0.09375)"/>
      <use xlink:href="#DejaVuSans-Oblique-6e" transform="translate(63.183594 0.09375)"/>
      <use xlink:href="#DejaVuSans-Oblique-65" transform="translate(126.5625 0.09375)"/>
      <use xlink:href="#DejaVuSans-Oblique-72" transform="translate(188.085938 0.09375)"/>
      <use xlink:href="#DejaVuSans-Oblique-67" transform="translate(229.199219 0.09375)"/>
      <use xlink:href="#DejaVuSans-Oblique-79" transform="translate(292.675781 0.09375)"/>
     </g>
    </g>
   </g>
   <g id="line2d_15">
    <path d="M 188.703333 344.689486 
L 194.02064 335.00084 
L 199.337946 325.321951 
L 204.655253 315.662562 
L 209.972559 306.032401 
L 215.289865 296.441165 
L 220.607172 286.898511 
L 225.924478 277.414047 
L 231.241785 267.997324 
L 236.559091 258.657823 
L 241.876397 249.404949 
L 247.193704 240.248019 
L 252.51101 231.196252 
L 257.828316 222.258763 
L 263.145623 213.444552 
L 268.462929 204.762493 
L 273.780236 196.221329 
L 279.097542 187.82966 
L 284.414848 179.595935 
L 289.732155 171.528445 
L 295.049461 163.635314 
L 300.366768 155.924489 
L 305.684074 148.403734 
L 311.00138 141.080623 
L 316.318687 133.962528 
L 321.635993 127.056618 
L 326.9533 120.369845 
L 332.270606 113.908944 
L 337.587912 107.680418 
L 342.905219 101.690541 
L 348.222525 95.945343 
L 353.539832 90.45061 
L 358.857138 85.211873 
L 364.174444 80.234408 
L 369.491751 75.523227 
L 374.809057 71.083074 
L 380.126364 66.91842 
L 385.44367 63.033457 
L 390.760976 59.432098 
L 396.078283 56.117969 
L 401.395589 53.094407 
L 406.712896 50.364456 
L 412.030202 47.930866 
L 417.347508 45.796087 
L 422.664815 43.962267 
L 427.982121 42.431255 
L 433.299428 41.204591 
L 438.616734 40.283511 
L 443.93404 39.668942 
L 449.251347 39.361503 
L 454.568653 39.361503 
L 459.88596 39.668942 
L 465.203266 40.283511 
L 470.520572 41.204591 
L 475.837879 42.431255 
L 481.155185 43.962267 
L 486.472492 45.796087 
L 491.789798 47.930866 
L 497.107104 50.364456 
L 502.424411 53.094407 
L 507.741717 56.117969 
L 513.059024 59.432098 
L 518.37633 63.033457 
L 523.693636 66.91842 
L 529.010943 71.083074 
L 534.328249 75.523227 
L 539.645556 80.234408 
L 544.962862 85.211873 
L 550.280168 90.45061 
L 555.597475 95.945343 
L 560.914781 101.690541 
L 566.232088 107.680418 
L 571.549394 113.908944 
L 576.8667 120.369845 
L 582.184007 127.056618 
L 587.501313 133.962528 
L 592.81862 141.080623 
L 598.135926 148.403734 
L 603.453232 155.924489 
L 608.770539 163.635314 
L 614.087845 171.528445 
L 619.405152 179.595935 
L 624.722458 187.82966 
L 630.039764 196.221329 
L 635.357071 204.762493 
L 640.674377 213.444552 
L 645.991684 222.258763 
L 651.30899 231.196252 
L 656.626296 240.248019 
L 661.943603 249.404949 
L 667.260909 258.657823 
L 672.578215 267.997324 
L 677.895522 277.414047 
L 683.212828 286.898511 
L 688.530135 296.441165 
L 693.847441 306.032401 
L 699.164747 315.662562 
L 704.482054 325.321951 
L 709.79936 335.00084 
L 715.116667 344.689486 
" clip-path="url(#paf37bec09b)" style="fill: none; stroke-dasharray: 5.55,2.4; stroke-dashoffset: 0; stroke: #1f77b4; stroke-width: 1.5"/>
   </g>
   <g id="line2d_16">
    <path d="M 188.703333 341.17 
L 194.02064 329.344416 
L 199.337946 317.760171 
L 204.655253 306.417264 
L 209.972559 295.315695 
L 215.289865 284.455465 
L 220.607172 273.836573 
L 225.924478 263.45902 
L 231.241785 253.322805 
L 236.559091 243.427929 
L 241.876397 233.774391 
L 247.193704 224.362192 
L 252.51101 215.191331 
L 257.828316 206.261808 
L 263.145623 197.573624 
L 268.462929 189.126778 
L 273.780236 180.921271 
L 279.097542 172.957102 
L 284.414848 165.234272 
L 289.732155 157.75278 
L 295.049461 150.512627 
L 300.366768 143.513812 
L 305.684074 136.756335 
L 311.00138 130.240197 
L 316.318687 123.965397 
L 321.635993 117.931936 
L 326.9533 112.139814 
L 332.270606 106.589029 
L 337.587912 101.279583 
L 342.905219 96.211476 
L 348.222525 91.384707 
L 353.539832 86.799277 
L 358.857138 82.455184 
L 364.174444 78.352431 
L 369.491751 74.491016 
L 374.809057 70.870939 
L 380.126364 67.492201 
L 385.44367 64.354801 
L 390.760976 61.45874 
L 396.078283 58.804017 
L 401.395589 56.390632 
L 406.712896 54.218586 
L 412.030202 52.287879 
L 417.347508 50.598509 
L 422.664815 49.150479 
L 427.982121 47.943787 
L 433.299428 46.978433 
L 438.616734 46.254417 
L 443.93404 45.771741 
L 449.251347 45.530402 
L 454.568653 45.530402 
L 459.88596 45.771741 
L 465.203266 46.254417 
L 470.520572 46.978433 
L 475.837879 47.943787 
L 481.155185 49.150479 
L 486.472492 50.598509 
L 491.789798 52.287879 
L 497.107104 54.218586 
L 502.424411 56.390632 
L 507.741717 58.804017 
L 513.059024 61.45874 
L 518.37633 64.354801 
L 523.693636 67.492201 
L 529.010943 70.870939 
L 534.328249 74.491016 
L 539.645556 78.352431 
L 544.962862 82.455184 
L 550.280168 86.799277 
L 555.597475 91.384707 
L 560.914781 96.211476 
L 566.232088 101.279583 
L 571.549394 106.589029 
L 576.8667 112.139814 
L 582.184007 117.931936 
L 587.501313 123.965397 
L 592.81862 130.240197 
L 598.135926 136.756335 
L 603.453232 143.513812 
L 608.770539 150.512627 
L 614.087845 157.75278 
L 619.405152 165.234272 
L 624.722458 172.957102 
L 630.039764 180.921271 
L 635.357071 189.126778 
L 640.674377 197.573624 
L 645.991684 206.261808 
L 651.30899 215.191331 
L 656.626296 224.362192 
L 661.943603 233.774391 
L 667.260909 243.427929 
L 672.578215 253.322805 
L 677.895522 263.45902 
L 683.212828 273.836573 
L 688.530135 284.455465 
L 693.847441 295.315695 
L 699.164747 306.417264 
L 704.482054 317.760171 
L 709.79936 329.344416 
L 715.116667 341.17 
" clip-path="url(#paf37bec09b)" style="fill: none; stroke: #1f77b4; stroke-width: 1.5; stroke-linecap: square"/>
   </g>
   <g id="LineCollection_1">
    <path d="M 188.703333 611.078333 
L 715.116667 611.078333 
" clip-path="url(#paf37bec09b)" style="fill: none; stroke: #000000; stroke-width: 5"/>
   </g>
   <g id="LineCollection_2">
    <path d="M 715.116667 611.078333 
L 715.116667 -1 
" clip-path="url(#paf37bec09b)" style="fill: none; stroke: #000000; stroke-width: 5"/>
   </g>
   <g id="LineCollection_3">
    <path d="M 188.703333 611.078333 
L 188.703333 -1 
" clip-path="url(#paf37bec09b)" style="fill: none; stroke: #000000; stroke-width: 5"/>
   </g>
   <g id="patch_3">
    <path d="M 57.1 665.06 
L 57.1 17.28 
" style="fill: none; stroke: #000000; stroke-width: 2.5; stroke-linejoin: miter; stroke-linecap: square"/>
   </g>
   <g id="patch_4">
    <path d="M 846.72 665.06 
L 846.72 17.28 
" style="fill: none; stroke: #000000; stroke-width: 2.5; stroke-linejoin: miter; stroke-linecap: square"/>
   </g>
   <g id="patch_5">
    <path d="M 57.1 665.06 
L 846.72 665.06 
" style="fill: none; stroke: #000000; stroke-width: 2.5; stroke-linejoin: miter; stroke-linecap: square"/>
   </g>
   <g id="patch_6">
    <path d="M 57.1 17.28 
L 846.72 17.28 
" style="fill: none; stroke: #000000; stroke-width: 2.5; stroke-linejoin: miter; stroke-linecap: square"/>
   </g>
   <g id="legend_1">
    <g id="patch_7">
     <path d="M 729.28 77.12 
L 835.52 77.12 
Q 838.72 77.12 838.72 73.92 
L 838.72 28.48 
Q 838.72 25.28 835.52 25.28 
L 729.28 25.28 
Q 726.08 25.28 726.08 28.48 
L 726.08 73.92 
Q 726.08 77.12 729.28 77.12 
z
" style="fill: #ffffff; opacity: 0.8; stroke: #cccccc; stroke-linejoin: miter"/>
    </g>
    <g id="line2d_17">
     <path d="M 732.48 38.24 
L 748.48 38.24 
L 764.48 38.24 
" style="fill: none; stroke-dasharray: 5.55,2.4; stroke-dashoffset: 0; stroke: #1f77b4; stroke-width: 1.5"/>
    </g>
    <g id="text_3">
     <!-- $\psi_{1} (x)$ -->
     <g transform="translate(777.28 43.84) scale(0.16 -0.16)">
      <defs>
       <path id="DejaVuSans-Oblique-3c8" d="M 1591 -78 
Q 891 38 616 341 
Q 278 713 425 1472 
L 819 3500 
L 1400 3500 
L 1009 1494 
Q 900 922 1119 684 
Q 1313 478 1691 434 
L 2284 3500 
L 2856 3500 
L 2263 438 
Q 2681 481 2928 688 
Q 3247 950 3353 1497 
L 3741 3500 
L 4322 3500 
L 3928 1475 
Q 3775 688 3300 344 
Q 2872 34 2163 -75 
L 1919 -1331 
L 1347 -1331 
L 1591 -78 
z
" transform="scale(0.015625)"/>
       <path id="DejaVuSans-31" d="M 794 531 
L 1825 531 
L 1825 4091 
L 703 3866 
L 703 4441 
L 1819 4666 
L 2450 4666 
L 2450 531 
L 3481 531 
L 3481 0 
L 794 0 
L 794 531 
z
" transform="scale(0.015625)"/>
       <path id="DejaVuSans-28" d="M 1984 4856 
Q 1566 4138 1362 3434 
Q 1159 2731 1159 2009 
Q 1159 1288 1364 580 
Q 1569 -128 1984 -844 
L 1484 -844 
Q 1016 -109 783 600 
Q 550 1309 550 2009 
Q 550 2706 781 3412 
Q 1013 4119 1484 4856 
L 1984 4856 
z
" transform="scale(0.015625)"/>
       <path id="DejaVuSans-Oblique-78" d="M 3841 3500 
L 2234 1784 
L 3219 0 
L 2559 0 
L 1819 1388 
L 531 0 
L -166 0 
L 1556 1844 
L 641 3500 
L 1300 3500 
L 1972 2234 
L 3144 3500 
L 3841 3500 
z
" transform="scale(0.015625)"/>
       <path id="DejaVuSans-29" d="M 513 4856 
L 1013 4856 
Q 1481 4119 1714 3412 
Q 1947 2706 1947 2009 
Q 1947 1309 1714 600 
Q 1481 -109 1013 -844 
L 513 -844 
Q 928 -128 1133 580 
Q 1338 1288 1338 2009 
Q 1338 2731 1133 3434 
Q 928 4138 513 4856 
z
" transform="scale(0.015625)"/>
      </defs>
      <use xlink:href="#DejaVuSans-Oblique-3c8" transform="translate(0 0.125)"/>
      <use xlink:href="#DejaVuSans-31" transform="translate(65.966797 -16.28125) scale(0.7)"/>
      <use xlink:href="#DejaVuSans-28" transform="translate(113.237305 0.125)"/>
      <use xlink:href="#DejaVuSans-Oblique-78" transform="translate(152.250977 0.125)"/>
      <use xlink:href="#DejaVuSans-29" transform="translate(211.430664 0.125)"/>
     </g>
    </g>
    <g id="line2d_18">
     <path d="M 732.48 61.76 
L 748.48 61.76 
L 764.48 61.76 
" style="fill: none; stroke: #1f77b4; stroke-width: 1.5; stroke-linecap: square"/>
    </g>
    <g id="text_4">
     <!-- $\psi_{tiral}(x)$ -->
     <g transform="translate(777.28 67.36) scale(0.16 -0.16)">
      <defs>
       <path id="DejaVuSans-Oblique-74" d="M 2706 3500 
L 2619 3053 
L 1472 3053 
L 1100 1153 
Q 1081 1047 1072 975 
Q 1063 903 1063 863 
Q 1063 663 1183 572 
Q 1303 481 1569 481 
L 2150 481 
L 2053 0 
L 1503 0 
Q 991 0 739 200 
Q 488 400 488 806 
Q 488 878 497 964 
Q 506 1050 525 1153 
L 897 3053 
L 409 3053 
L 500 3500 
L 978 3500 
L 1172 4494 
L 1747 4494 
L 1556 3500 
L 2706 3500 
z
" transform="scale(0.015625)"/>
       <path id="DejaVuSans-Oblique-69" d="M 1172 4863 
L 1747 4863 
L 1606 4134 
L 1031 4134 
L 1172 4863 
z
M 909 3500 
L 1484 3500 
L 800 0 
L 225 0 
L 909 3500 
z
" transform="scale(0.015625)"/>
       <path id="DejaVuSans-Oblique-61" d="M 3438 1997 
L 3047 0 
L 2472 0 
L 2578 531 
Q 2325 219 2001 64 
Q 1678 -91 1281 -91 
Q 834 -91 548 182 
Q 263 456 263 884 
Q 263 1497 752 1853 
Q 1241 2209 2100 2209 
L 2900 2209 
L 2931 2363 
Q 2938 2388 2941 2417 
Q 2944 2447 2944 2509 
Q 2944 2788 2717 2942 
Q 2491 3097 2081 3097 
Q 1800 3097 1504 3025 
Q 1209 2953 897 2809 
L 997 3341 
Q 1322 3463 1633 3523 
Q 1944 3584 2234 3584 
Q 2853 3584 3176 3315 
Q 3500 3047 3500 2534 
Q 3500 2431 3484 2292 
Q 3469 2153 3438 1997 
z
M 2816 1759 
L 2241 1759 
Q 1534 1759 1195 1570 
Q 856 1381 856 984 
Q 856 709 1029 553 
Q 1203 397 1509 397 
Q 1978 397 2328 733 
Q 2678 1069 2791 1631 
L 2816 1759 
z
" transform="scale(0.015625)"/>
       <path id="DejaVuSans-Oblique-6c" d="M 1172 4863 
L 1747 4863 
L 800 0 
L 225 0 
L 1172 4863 
z
" transform="scale(0.015625)"/>
      </defs>
      <use xlink:href="#DejaVuSans-Oblique-3c8" transform="translate(0 0.125)"/>
      <use xlink:href="#DejaVuSans-Oblique-74" transform="translate(65.966797 -16.28125) scale(0.7)"/>
      <use xlink:href="#DejaVuSans-Oblique-69" transform="translate(93.413086 -16.28125) scale(0.7)"/>
      <use xlink:href="#DejaVuSans-Oblique-72" transform="translate(112.861328 -16.28125) scale(0.7)"/>
      <use xlink:href="#DejaVuSans-Oblique-61" transform="translate(141.640625 -16.28125) scale(0.7)"/>
      <use xlink:href="#DejaVuSans-Oblique-6c" transform="translate(184.536133 -16.28125) scale(0.7)"/>
      <use xlink:href="#DejaVuSans-28" transform="translate(206.71875 0.125)"/>
      <use xlink:href="#DejaVuSans-Oblique-78" transform="translate(245.732422 0.125)"/>
      <use xlink:href="#DejaVuSans-29" transform="translate(304.912109 0.125)"/>
     </g>
    </g>
   </g>
  </g>
 </g>
 <defs>
  <clipPath id="paf37bec09b">
   <rect x="57.1" y="17.28" width="789.62" height="647.78"/>
  </clipPath>
 </defs>
</svg>
