<?xml version="1.0" encoding="utf-8" standalone="no"?>
<!DOCTYPE svg PUBLIC "-//W3C//DTD SVG 1.1//EN"
  "http://www.w3.org/Graphics/SVG/1.1/DTD/svg11.dtd">
<svg xmlns:xlink="http://www.w3.org/1999/xlink" width="864pt" height="576pt" viewBox="0 0 864 576" xmlns="http://www.w3.org/2000/svg" version="1.1">
 <metadata>
  <rdf:RDF xmlns:dc="http://purl.org/dc/elements/1.1/" xmlns:cc="http://creativecommons.org/ns#" xmlns:rdf="http://www.w3.org/1999/02/22-rdf-syntax-ns#">
   <cc:Work>
    <dc:type rdf:resource="http://purl.org/dc/dcmitype/StillImage"/>
    <dc:date>2024-07-19T10:16:44.193408</dc:date>
    <dc:format>image/svg+xml</dc:format>
    <dc:creator>
     <cc:Agent>
      <dc:title>Matplotlib v3.7.1, https://matplotlib.org/</dc:title>
     </cc:Agent>
    </dc:creator>
   </cc:Work>
  </rdf:RDF>
 </metadata>
 <defs>
  <style type="text/css">*{stroke-linejoin: round; stroke-linecap: butt}</style>
 </defs>
 <g id="figure_1">
  <g id="patch_1">
   <path d="M 0 576 
L 864 576 
L 864 0 
L 0 0 
z
" style="fill: #ffffff"/>
  </g>
  <g id="axes_1">
   <g id="patch_2">
    <path d="M 108 512.64 
L 777.6 512.64 
L 777.6 69.12 
L 108 69.12 
z
" style="fill: #ffffff"/>
   </g>
   <g id="matplotlib.axis_1">
    <g id="xtick_1">
     <g id="line2d_1">
      <defs>
       <path id="m8aae22c7af" d="M 0 0 
L 0 10 
" style="stroke: #000000; stroke-width: 2.5"/>
      </defs>
      <g>
       <use xlink:href="#m8aae22c7af" x="108" y="472.32" style="stroke: #000000; stroke-width: 2.5"/>
      </g>
     </g>
    </g>
    <g id="xtick_2">
     <g id="line2d_2">
      <g>
       <use xlink:href="#m8aae22c7af" x="191.7" y="472.32" style="stroke: #000000; stroke-width: 2.5"/>
      </g>
     </g>
    </g>
    <g id="xtick_3">
     <g id="line2d_3">
      <g>
       <use xlink:href="#m8aae22c7af" x="275.4" y="472.32" style="stroke: #000000; stroke-width: 2.5"/>
      </g>
     </g>
    </g>
    <g id="xtick_4">
     <g id="line2d_4">
      <g>
       <use xlink:href="#m8aae22c7af" x="359.1" y="472.32" style="stroke: #000000; stroke-width: 2.5"/>
      </g>
     </g>
    </g>
    <g id="xtick_5">
     <g id="line2d_5">
      <g>
       <use xlink:href="#m8aae22c7af" x="442.8" y="472.32" style="stroke: #000000; stroke-width: 2.5"/>
      </g>
     </g>
    </g>
    <g id="xtick_6">
     <g id="line2d_6">
      <g>
       <use xlink:href="#m8aae22c7af" x="526.5" y="472.32" style="stroke: #000000; stroke-width: 2.5"/>
      </g>
     </g>
    </g>
    <g id="xtick_7">
     <g id="line2d_7">
      <g>
       <use xlink:href="#m8aae22c7af" x="610.2" y="472.32" style="stroke: #000000; stroke-width: 2.5"/>
      </g>
     </g>
    </g>
    <g id="xtick_8">
     <g id="line2d_8">
      <g>
       <use xlink:href="#m8aae22c7af" x="693.9" y="472.32" style="stroke: #000000; stroke-width: 2.5"/>
      </g>
     </g>
    </g>
    <g id="xtick_9">
     <g id="line2d_9">
      <g>
       <use xlink:href="#m8aae22c7af" x="777.6" y="472.32" style="stroke: #000000; stroke-width: 2.5"/>
      </g>
     </g>
    </g>
   </g>
   <g id="matplotlib.axis_2">
    <g id="ytick_1">
     <g id="line2d_10">
      <defs>
       <path id="ma575c8b2db" d="M 0 0 
L -10 0 
" style="stroke: #000000; stroke-width: 2.5"/>
      </defs>
      <g>
       <use xlink:href="#ma575c8b2db" x="442.8" y="472.32" style="stroke: #000000; stroke-width: 2.5"/>
      </g>
     </g>
    </g>
    <g id="ytick_2">
     <g id="line2d_11">
      <g>
       <use xlink:href="#ma575c8b2db" x="442.8" y="407.808" style="stroke: #000000; stroke-width: 2.5"/>
      </g>
     </g>
    </g>
    <g id="ytick_3">
     <g id="line2d_12">
      <g>
       <use xlink:href="#ma575c8b2db" x="442.8" y="343.296" style="stroke: #000000; stroke-width: 2.5"/>
      </g>
     </g>
    </g>
    <g id="ytick_4">
     <g id="line2d_13">
      <g>
       <use xlink:href="#ma575c8b2db" x="442.8" y="278.784" style="stroke: #000000; stroke-width: 2.5"/>
      </g>
     </g>
    </g>
    <g id="ytick_5">
     <g id="line2d_14">
      <g>
       <use xlink:href="#ma575c8b2db" x="442.8" y="214.272" style="stroke: #000000; stroke-width: 2.5"/>
      </g>
     </g>
    </g>
    <g id="ytick_6">
     <g id="line2d_15">
      <g>
       <use xlink:href="#ma575c8b2db" x="442.8" y="149.76" style="stroke: #000000; stroke-width: 2.5"/>
      </g>
     </g>
    </g>
    <g id="ytick_7">
     <g id="line2d_16">
      <g>
       <use xlink:href="#ma575c8b2db" x="442.8" y="85.248" style="stroke: #000000; stroke-width: 2.5"/>
      </g>
     </g>
    </g>
    <g id="text_1">
     <!-- $E$ -->
     <g transform="translate(421.900625 75.52) rotate(-90) scale(0.2 -0.2)">
      <defs>
       <path id="DejaVuSans-Oblique-45" d="M 1081 4666 
L 4031 4666 
L 3928 4134 
L 1606 4134 
L 1338 2753 
L 3566 2753 
L 3463 2222 
L 1234 2222 
L 909 531 
L 3284 531 
L 3181 0 
L 172 0 
L 1081 4666 
z
" transform="scale(0.015625)"/>
      </defs>
      <use xlink:href="#DejaVuSans-Oblique-45" transform="translate(0 0.09375)"/>
     </g>
    </g>
   </g>
   <g id="line2d_17">
    <path d="M 108 287.684927 
L 136.151351 287.496262 
L 148.886486 287.203186 
L 158.940541 286.754194 
L 166.983784 286.17822 
L 173.686486 285.497014 
L 179.718919 284.687281 
L 185.751351 283.654236 
L 191.113514 282.518851 
L 196.475676 281.152564 
L 201.167568 279.748514 
L 205.859459 278.13406 
L 210.551351 276.295882 
L 215.243243 274.222745 
L 219.935135 271.905876 
L 224.627027 269.339256 
L 229.318919 266.519856 
L 234.010811 263.447768 
L 238.702703 260.126263 
L 244.064865 256.033213 
L 249.427027 251.637242 
L 254.789189 246.95748 
L 260.821622 241.382746 
L 267.524324 234.849233 
L 274.897297 227.318587 
L 283.610811 218.067836 
L 295.675676 204.890351 
L 315.783784 182.910753 
L 325.167568 173.010134 
L 333.210811 164.84501 
L 340.583784 157.682478 
L 347.286486 151.477523 
L 353.989189 145.594322 
L 360.021622 140.595134 
L 366.054054 135.892365 
L 371.416216 131.97202 
L 376.778378 128.305051 
L 382.140541 124.898873 
L 387.502703 121.76005 
L 392.864865 118.894386 
L 398.227027 116.307009 
L 402.918919 114.274894 
L 407.610811 112.461965 
L 412.302703 110.870566 
L 416.994595 109.502737 
L 421.686486 108.36022 
L 426.378378 107.444467 
L 431.07027 106.756636 
L 435.762162 106.297598 
L 440.454054 106.067934 
L 445.145946 106.067934 
L 449.837838 106.297598 
L 454.52973 106.756636 
L 459.221622 107.444467 
L 463.913514 108.36022 
L 468.605405 109.502737 
L 473.297297 110.870566 
L 477.989189 112.461965 
L 482.681081 114.274894 
L 487.372973 116.307009 
L 492.064865 118.555647 
L 497.427027 121.386792 
L 502.789189 124.491773 
L 508.151351 127.864874 
L 513.513514 131.499632 
L 518.875676 135.388742 
L 524.908108 140.057701 
L 530.940541 145.024686 
L 536.972973 150.274293 
L 543.675676 156.417069 
L 550.378378 162.858876 
L 557.751351 170.251457 
L 565.794595 178.625202 
L 575.848649 189.433472 
L 594.616216 210.045454 
L 606.010811 222.376336 
L 614.054054 230.781235 
L 621.427027 238.157297 
L 627.459459 243.898734 
L 633.491892 249.331467 
L 638.854054 253.872002 
L 644.216216 258.118618 
L 649.578378 262.054504 
L 654.27027 265.23407 
L 658.962162 268.161962 
L 663.654054 270.836725 
L 668.345946 273.260063 
L 673.037838 275.436737 
L 677.72973 277.374372 
L 682.421622 279.083189 
L 687.113514 280.575663 
L 692.475676 282.034892 
L 697.837838 283.253924 
L 703.2 284.257893 
L 709.232432 285.162377 
L 715.935135 285.930503 
L 723.308108 286.541995 
L 732.021622 287.024489 
L 742.745946 287.370986 
L 756.821622 287.582637 
L 777.6 287.684927 
L 777.6 287.684927 
" clip-path="url(#p273e0006c7)" style="fill: none; stroke: #1f77b4; stroke-width: 1.5; stroke-linecap: square"/>
   </g>
   <g id="line2d_18">
    <path d="M 108 275.385809 
L 150.227027 275.232945 
L 171.005405 274.955517 
L 185.751351 274.554487 
L 197.816216 274.009585 
L 207.87027 273.335062 
L 216.583784 272.530537 
L 224.627027 271.555582 
L 231.32973 270.534409 
L 238.032432 269.28746 
L 244.064865 267.941465 
L 250.097297 266.353334 
L 255.459459 264.713607 
L 260.821622 262.836051 
L 266.183784 260.698046 
L 270.875676 258.5959 
L 275.567568 256.262275 
L 280.259459 253.682955 
L 284.951351 250.844604 
L 289.643243 247.73509 
L 294.335135 244.343824 
L 299.027027 240.662118 
L 303.718919 236.683552 
L 308.410811 232.404334 
L 313.102703 227.823666 
L 317.794595 222.944078 
L 322.486486 217.771753 
L 327.848649 211.515227 
L 333.210811 204.911464 
L 339.243243 197.10384 
L 345.945946 188.021927 
L 353.318919 177.642954 
L 364.043243 162.117178 
L 377.448649 142.750213 
L 384.151351 133.430313 
L 390.183784 125.42807 
L 394.875676 119.535594 
L 399.567568 113.993218 
L 403.589189 109.561467 
L 407.610811 105.457723 
L 411.632432 101.712031 
L 414.983784 98.88432 
L 418.335135 96.339478 
L 421.686486 94.090982 
L 425.037838 92.15085 
L 427.718919 90.827845 
L 430.4 89.713504 
L 433.081081 88.81171 
L 435.762162 88.125619 
L 438.443243 87.657636 
L 441.124324 87.409408 
L 443.805405 87.381807 
L 446.486486 87.57493 
L 449.167568 87.988098 
L 451.848649 88.619858 
L 454.52973 89.467993 
L 457.210811 90.529533 
L 459.891892 91.800775 
L 462.572973 93.277304 
L 465.924324 95.403811 
L 469.275676 97.831653 
L 472.627027 100.547922 
L 475.978378 103.538323 
L 480 107.466669 
L 484.021622 111.738294 
L 488.043243 116.322205 
L 492.735135 122.021232 
L 498.097297 128.931367 
L 504.12973 137.112614 
L 511.502703 147.530642 
L 524.237838 166.023194 
L 534.962162 181.456062 
L 542.335135 191.700998 
L 549.037838 200.620443 
L 555.07027 208.255102 
L 560.432432 214.688427 
L 565.794595 220.762716 
L 570.486486 225.768743 
L 575.178378 230.478035 
L 579.87027 234.886535 
L 584.562162 238.993654 
L 589.254054 242.801945 
L 593.945946 246.316745 
L 598.637838 249.545816 
L 603.32973 252.498976 
L 608.021622 255.187739 
L 612.713514 257.624965 
L 617.405405 259.824532 
L 622.097297 261.801021 
L 627.459459 263.805968 
L 632.821622 265.561795 
L 638.183784 267.090997 
L 644.216216 268.567805 
L 650.248649 269.815646 
L 656.951351 270.967994 
L 664.324324 271.992249 
L 672.367568 272.867827 
L 681.081081 273.58667 
L 691.135135 274.185961 
L 703.2 274.666917 
L 717.945946 275.018116 
L 738.054054 275.253808 
L 770.227027 275.376088 
L 777.6 275.385809 
L 777.6 275.385809 
" clip-path="url(#p273e0006c7)" style="fill: none; stroke: #ff7f0e; stroke-width: 1.5; stroke-linecap: square"/>
   </g>
   <g id="LineCollection_1">
    <path d="M 108 287.686875 
L 777.6 287.686875 
" clip-path="url(#p273e0006c7)" style="fill: none; stroke-dasharray: 1.5,2.475; stroke-dashoffset: 0; stroke: #1f77b4; stroke-width: 1.5"/>
   </g>
   <g id="LineCollection_2">
    <path d="M 108 275.405641 
L 777.6 275.405641 
" clip-path="url(#p273e0006c7)" style="fill: none; stroke-dasharray: 1.5,2.475; stroke-dashoffset: 0; stroke: #ff7f0e; stroke-width: 1.5"/>
   </g>
   <g id="line2d_19">
    <path d="M 273.892487 -1 
L 276.237838 37.115379 
L 278.918919 77.491658 
L 281.6 114.69685 
L 284.281081 148.933408 
L 286.962162 180.393928 
L 289.643243 209.261484 
L 292.324324 235.709937 
L 295.005405 259.904256 
L 297.686486 282.000826 
L 300.367568 302.147748 
L 303.048649 320.485139 
L 305.72973 337.145425 
L 308.410811 352.253624 
L 311.091892 365.927634 
L 313.772973 378.278501 
L 316.454054 389.410696 
L 319.135135 399.422378 
L 321.816216 408.40565 
L 324.497297 416.446819 
L 327.178378 423.626641 
L 329.859459 430.020565 
L 332.540541 435.69897 
L 335.221622 440.727401 
L 337.902703 445.166789 
L 340.583784 449.073681 
L 343.264865 452.500447 
L 345.945946 455.495498 
L 348.627027 458.103487 
L 351.308108 460.36551 
L 353.989189 462.3193 
L 356.67027 463.999414 
L 359.351351 465.43742 
L 362.032432 466.662072 
L 365.383784 467.9324 
L 368.735135 468.955591 
L 372.756757 469.913239 
L 376.778378 470.632077 
L 381.47027 471.23542 
L 386.832432 471.693597 
L 393.535135 472.02862 
L 402.248649 472.229371 
L 416.994595 472.313981 
L 477.318919 472.285519 
L 489.383784 472.111722 
L 497.427027 471.778397 
L 503.459459 471.304625 
L 508.151351 470.732321 
L 512.172973 470.048163 
L 516.194595 469.13419 
L 519.545946 468.15545 
L 522.897297 466.938014 
L 525.578378 465.762521 
L 528.259459 464.380443 
L 530.940541 462.763703 
L 533.621622 460.881452 
L 536.302703 458.699897 
L 538.983784 456.182118 
L 541.664865 453.287876 
L 544.345946 449.973427 
L 547.027027 446.191318 
L 549.037838 443.017091 
L 551.048649 439.527819 
L 553.059459 435.69897 
L 555.07027 431.504605 
L 557.081081 426.917325 
L 559.091892 421.908222 
L 561.772973 414.52034 
L 564.454054 406.251429 
L 567.135135 397.019368 
L 569.816216 386.736425 
L 572.497297 375.309006 
L 575.178378 362.637399 
L 577.859459 348.615516 
L 580.540541 333.130621 
L 583.221622 316.063064 
L 585.902703 297.286001 
L 588.583784 276.66511 
L 591.264865 254.058305 
L 593.945946 229.315443 
L 596.627027 202.278023 
L 599.308108 172.77888 
L 601.989189 140.64188 
L 604.67027 105.681599 
L 607.351351 67.703007 
L 610.032432 26.501137 
L 611.707513 -1 
L 611.707513 -1 
" clip-path="url(#p273e0006c7)" style="fill: none; stroke: #808080; stroke-width: 3; stroke-linecap: square"/>
   </g>
   <g id="patch_3">
    <path d="M 442.8 512.64 
L 442.8 69.12 
" style="fill: none; stroke: #000000; stroke-width: 2.5; stroke-linejoin: miter; stroke-linecap: square"/>
   </g>
   <g id="patch_4">
    <path d="M 777.6 512.64 
L 777.6 69.12 
" style="fill: none"/>
   </g>
   <g id="patch_5">
    <path d="M 108 472.32 
L 777.6 472.32 
" style="fill: none; stroke: #000000; stroke-width: 2.5; stroke-linejoin: miter; stroke-linecap: square"/>
   </g>
   <g id="patch_6">
    <path d="M 108 69.12 
L 777.6 69.12 
" style="fill: none"/>
   </g>
   <g id="legend_1">
    <g id="patch_7">
     <path d="M 660.16 175.93 
L 766.4 175.93 
Q 769.6 175.93 769.6 172.73 
L 769.6 80.32 
Q 769.6 77.12 766.4 77.12 
L 660.16 77.12 
Q 656.96 77.12 656.96 80.32 
L 656.96 172.73 
Q 656.96 175.93 660.16 175.93 
z
" style="fill: #ffffff; opacity: 0.8; stroke: #cccccc; stroke-linejoin: miter"/>
    </g>
    <g id="line2d_20">
     <path d="M 663.36 90.08 
L 679.36 90.08 
L 695.36 90.08 
" style="fill: none; stroke: #1f77b4; stroke-width: 1.5; stroke-linecap: square"/>
    </g>
    <g id="text_2">
     <!-- $\psi_{1} (x)$ -->
     <g transform="translate(708.16 95.68) scale(0.16 -0.16)">
      <defs>
       <path id="DejaVuSans-Oblique-3c8" d="M 1591 -78 
Q 891 38 616 341 
Q 278 713 425 1472 
L 819 3500 
L 1400 3500 
L 1009 1494 
Q 900 922 1119 684 
Q 1313 478 1691 434 
L 2284 3500 
L 2856 3500 
L 2263 438 
Q 2681 481 2928 688 
Q 3247 950 3353 1497 
L 3741 3500 
L 4322 3500 
L 3928 1475 
Q 3775 688 3300 344 
Q 2872 34 2163 -75 
L 1919 -1331 
L 1347 -1331 
L 1591 -78 
z
" transform="scale(0.015625)"/>
       <path id="DejaVuSans-31" d="M 794 531 
L 1825 531 
L 1825 4091 
L 703 3866 
L 703 4441 
L 1819 4666 
L 2450 4666 
L 2450 531 
L 3481 531 
L 3481 0 
L 794 0 
L 794 531 
z
" transform="scale(0.015625)"/>
       <path id="DejaVuSans-28" d="M 1984 4856 
Q 1566 4138 1362 3434 
Q 1159 2731 1159 2009 
Q 1159 1288 1364 580 
Q 1569 -128 1984 -844 
L 1484 -844 
Q 1016 -109 783 600 
Q 550 1309 550 2009 
Q 550 2706 781 3412 
Q 1013 4119 1484 4856 
L 1984 4856 
z
" transform="scale(0.015625)"/>
       <path id="DejaVuSans-Oblique-78" d="M 3841 3500 
L 2234 1784 
L 3219 0 
L 2559 0 
L 1819 1388 
L 531 0 
L -166 0 
L 1556 1844 
L 641 3500 
L 1300 3500 
L 1972 2234 
L 3144 3500 
L 3841 3500 
z
" transform="scale(0.015625)"/>
       <path id="DejaVuSans-29" d="M 513 4856 
L 1013 4856 
Q 1481 4119 1714 3412 
Q 1947 2706 1947 2009 
Q 1947 1309 1714 600 
Q 1481 -109 1013 -844 
L 513 -844 
Q 928 -128 1133 580 
Q 1338 1288 1338 2009 
Q 1338 2731 1133 3434 
Q 928 4138 513 4856 
z
" transform="scale(0.015625)"/>
      </defs>
      <use xlink:href="#DejaVuSans-Oblique-3c8" transform="translate(0 0.125)"/>
      <use xlink:href="#DejaVuSans-31" transform="translate(65.966797 -16.28125) scale(0.7)"/>
      <use xlink:href="#DejaVuSans-28" transform="translate(113.237305 0.125)"/>
      <use xlink:href="#DejaVuSans-Oblique-78" transform="translate(152.250977 0.125)"/>
      <use xlink:href="#DejaVuSans-29" transform="translate(211.430664 0.125)"/>
     </g>
    </g>
    <g id="line2d_21">
     <path d="M 663.36 113.6 
L 679.36 113.6 
L 695.36 113.6 
" style="fill: none; stroke: #ff7f0e; stroke-width: 1.5; stroke-linecap: square"/>
    </g>
    <g id="text_3">
     <!-- $\psi_{tiral}(x)$ -->
     <g transform="translate(708.16 119.2) scale(0.16 -0.16)">
      <defs>
       <path id="DejaVuSans-Oblique-74" d="M 2706 3500 
L 2619 3053 
L 1472 3053 
L 1100 1153 
Q 1081 1047 1072 975 
Q 1063 903 1063 863 
Q 1063 663 1183 572 
Q 1303 481 1569 481 
L 2150 481 
L 2053 0 
L 1503 0 
Q 991 0 739 200 
Q 488 400 488 806 
Q 488 878 497 964 
Q 506 1050 525 1153 
L 897 3053 
L 409 3053 
L 500 3500 
L 978 3500 
L 1172 4494 
L 1747 4494 
L 1556 3500 
L 2706 3500 
z
" transform="scale(0.015625)"/>
       <path id="DejaVuSans-Oblique-69" d="M 1172 4863 
L 1747 4863 
L 1606 4134 
L 1031 4134 
L 1172 4863 
z
M 909 3500 
L 1484 3500 
L 800 0 
L 225 0 
L 909 3500 
z
" transform="scale(0.015625)"/>
       <path id="DejaVuSans-Oblique-72" d="M 2853 2969 
Q 2766 3016 2653 3041 
Q 2541 3066 2413 3066 
Q 1953 3066 1609 2717 
Q 1266 2369 1153 1784 
L 800 0 
L 225 0 
L 909 3500 
L 1484 3500 
L 1375 2956 
Q 1603 3259 1920 3421 
Q 2238 3584 2597 3584 
Q 2691 3584 2781 3573 
Q 2872 3563 2963 3538 
L 2853 2969 
z
" transform="scale(0.015625)"/>
       <path id="DejaVuSans-Oblique-61" d="M 3438 1997 
L 3047 0 
L 2472 0 
L 2578 531 
Q 2325 219 2001 64 
Q 1678 -91 1281 -91 
Q 834 -91 548 182 
Q 263 456 263 884 
Q 263 1497 752 1853 
Q 1241 2209 2100 2209 
L 2900 2209 
L 2931 2363 
Q 2938 2388 2941 2417 
Q 2944 2447 2944 2509 
Q 2944 2788 2717 2942 
Q 2491 3097 2081 3097 
Q 1800 3097 1504 3025 
Q 1209 2953 897 2809 
L 997 3341 
Q 1322 3463 1633 3523 
Q 1944 3584 2234 3584 
Q 2853 3584 3176 3315 
Q 3500 3047 3500 2534 
Q 3500 2431 3484 2292 
Q 3469 2153 3438 1997 
z
M 2816 1759 
L 2241 1759 
Q 1534 1759 1195 1570 
Q 856 1381 856 984 
Q 856 709 1029 553 
Q 1203 397 1509 397 
Q 1978 397 2328 733 
Q 2678 1069 2791 1631 
L 2816 1759 
z
" transform="scale(0.015625)"/>
       <path id="DejaVuSans-Oblique-6c" d="M 1172 4863 
L 1747 4863 
L 800 0 
L 225 0 
L 1172 4863 
z
" transform="scale(0.015625)"/>
      </defs>
      <use xlink:href="#DejaVuSans-Oblique-3c8" transform="translate(0 0.125)"/>
      <use xlink:href="#DejaVuSans-Oblique-74" transform="translate(65.966797 -16.28125) scale(0.7)"/>
      <use xlink:href="#DejaVuSans-Oblique-69" transform="translate(93.413086 -16.28125) scale(0.7)"/>
      <use xlink:href="#DejaVuSans-Oblique-72" transform="translate(112.861328 -16.28125) scale(0.7)"/>
      <use xlink:href="#DejaVuSans-Oblique-61" transform="translate(141.640625 -16.28125) scale(0.7)"/>
      <use xlink:href="#DejaVuSans-Oblique-6c" transform="translate(184.536133 -16.28125) scale(0.7)"/>
      <use xlink:href="#DejaVuSans-28" transform="translate(206.71875 0.125)"/>
      <use xlink:href="#DejaVuSans-Oblique-78" transform="translate(245.732422 0.125)"/>
      <use xlink:href="#DejaVuSans-29" transform="translate(304.912109 0.125)"/>
     </g>
    </g>
    <g id="line2d_22">
     <path d="M 663.36 137.1175 
L 695.36 137.1175 
" style="fill: none; stroke-dasharray: 1.5,2.475; stroke-dashoffset: 0; stroke: #1f77b4; stroke-width: 1.5"/>
    </g>
    <g id="text_4">
     <!-- $E_0$ -->
     <g transform="translate(708.16 142.7175) scale(0.16 -0.16)">
      <defs>
       <path id="DejaVuSans-30" d="M 2034 4250 
Q 1547 4250 1301 3770 
Q 1056 3291 1056 2328 
Q 1056 1369 1301 889 
Q 1547 409 2034 409 
Q 2525 409 2770 889 
Q 3016 1369 3016 2328 
Q 3016 3291 2770 3770 
Q 2525 4250 2034 4250 
z
M 2034 4750 
Q 2819 4750 3233 4129 
Q 3647 3509 3647 2328 
Q 3647 1150 3233 529 
Q 2819 -91 2034 -91 
Q 1250 -91 836 529 
Q 422 1150 422 2328 
Q 422 3509 836 4129 
Q 1250 4750 2034 4750 
z
" transform="scale(0.015625)"/>
      </defs>
      <use xlink:href="#DejaVuSans-Oblique-45" transform="translate(0 0.09375)"/>
      <use xlink:href="#DejaVuSans-30" transform="translate(63.183594 -16.3125) scale(0.7)"/>
     </g>
    </g>
    <g id="line2d_23">
     <path d="M 663.36 160.6025 
L 695.36 160.6025 
" style="fill: none; stroke-dasharray: 1.5,2.475; stroke-dashoffset: 0; stroke: #ff7f0e; stroke-width: 1.5"/>
    </g>
    <g id="text_5">
     <!-- $E_{var}$ -->
     <g transform="translate(708.16 166.2025) scale(0.16 -0.16)">
      <defs>
       <path id="DejaVuSans-Oblique-76" d="M 459 3500 
L 1069 3500 
L 1581 525 
L 3256 3500 
L 3866 3500 
L 1875 0 
L 1100 0 
L 459 3500 
z
" transform="scale(0.015625)"/>
      </defs>
      <use xlink:href="#DejaVuSans-Oblique-45" transform="translate(0 0.09375)"/>
      <use xlink:href="#DejaVuSans-Oblique-76" transform="translate(63.183594 -16.3125) scale(0.7)"/>
      <use xlink:href="#DejaVuSans-Oblique-61" transform="translate(104.609375 -16.3125) scale(0.7)"/>
      <use xlink:href="#DejaVuSans-Oblique-72" transform="translate(147.504883 -16.3125) scale(0.7)"/>
     </g>
    </g>
   </g>
  </g>
  <g id="text_6">
   <!-- Sextic potential with Gaussian trail wavefunction -->
   <g transform="translate(196.9455 26.109) scale(0.192 -0.192)">
    <defs>
     <path id="DejaVuSans-53" d="M 3425 4513 
L 3425 3897 
Q 3066 4069 2747 4153 
Q 2428 4238 2131 4238 
Q 1616 4238 1336 4038 
Q 1056 3838 1056 3469 
Q 1056 3159 1242 3001 
Q 1428 2844 1947 2747 
L 2328 2669 
Q 3034 2534 3370 2195 
Q 3706 1856 3706 1288 
Q 3706 609 3251 259 
Q 2797 -91 1919 -91 
Q 1588 -91 1214 -16 
Q 841 59 441 206 
L 441 856 
Q 825 641 1194 531 
Q 1563 422 1919 422 
Q 2459 422 2753 634 
Q 3047 847 3047 1241 
Q 3047 1584 2836 1778 
Q 2625 1972 2144 2069 
L 1759 2144 
Q 1053 2284 737 2584 
Q 422 2884 422 3419 
Q 422 4038 858 4394 
Q 1294 4750 2059 4750 
Q 2388 4750 2728 4690 
Q 3069 4631 3425 4513 
z
" transform="scale(0.015625)"/>
     <path id="DejaVuSans-65" d="M 3597 1894 
L 3597 1613 
L 953 1613 
Q 991 1019 1311 708 
Q 1631 397 2203 397 
Q 2534 397 2845 478 
Q 3156 559 3463 722 
L 3463 178 
Q 3153 47 2828 -22 
Q 2503 -91 2169 -91 
Q 1331 -91 842 396 
Q 353 884 353 1716 
Q 353 2575 817 3079 
Q 1281 3584 2069 3584 
Q 2775 3584 3186 3129 
Q 3597 2675 3597 1894 
z
M 3022 2063 
Q 3016 2534 2758 2815 
Q 2500 3097 2075 3097 
Q 1594 3097 1305 2825 
Q 1016 2553 972 2059 
L 3022 2063 
z
" transform="scale(0.015625)"/>
     <path id="DejaVuSans-78" d="M 3513 3500 
L 2247 1797 
L 3578 0 
L 2900 0 
L 1881 1375 
L 863 0 
L 184 0 
L 1544 1831 
L 300 3500 
L 978 3500 
L 1906 2253 
L 2834 3500 
L 3513 3500 
z
" transform="scale(0.015625)"/>
     <path id="DejaVuSans-74" d="M 1172 4494 
L 1172 3500 
L 2356 3500 
L 2356 3053 
L 1172 3053 
L 1172 1153 
Q 1172 725 1289 603 
Q 1406 481 1766 481 
L 2356 481 
L 2356 0 
L 1766 0 
Q 1100 0 847 248 
Q 594 497 594 1153 
L 594 3053 
L 172 3053 
L 172 3500 
L 594 3500 
L 594 4494 
L 1172 4494 
z
" transform="scale(0.015625)"/>
     <path id="DejaVuSans-69" d="M 603 3500 
L 1178 3500 
L 1178 0 
L 603 0 
L 603 3500 
z
M 603 4863 
L 1178 4863 
L 1178 4134 
L 603 4134 
L 603 4863 
z
" transform="scale(0.015625)"/>
     <path id="DejaVuSans-63" d="M 3122 3366 
L 3122 2828 
Q 2878 2963 2633 3030 
Q 2388 3097 2138 3097 
Q 1578 3097 1268 2742 
Q 959 2388 959 1747 
Q 959 1106 1268 751 
Q 1578 397 2138 397 
Q 2388 397 2633 464 
Q 2878 531 3122 666 
L 3122 134 
Q 2881 22 2623 -34 
Q 2366 -91 2075 -91 
Q 1284 -91 818 406 
Q 353 903 353 1747 
Q 353 2603 823 3093 
Q 1294 3584 2113 3584 
Q 2378 3584 2631 3529 
Q 2884 3475 3122 3366 
z
" transform="scale(0.015625)"/>
     <path id="DejaVuSans-20" transform="scale(0.015625)"/>
     <path id="DejaVuSans-70" d="M 1159 525 
L 1159 -1331 
L 581 -1331 
L 581 3500 
L 1159 3500 
L 1159 2969 
Q 1341 3281 1617 3432 
Q 1894 3584 2278 3584 
Q 2916 3584 3314 3078 
Q 3713 2572 3713 1747 
Q 3713 922 3314 415 
Q 2916 -91 2278 -91 
Q 1894 -91 1617 61 
Q 1341 213 1159 525 
z
M 3116 1747 
Q 3116 2381 2855 2742 
Q 2594 3103 2138 3103 
Q 1681 3103 1420 2742 
Q 1159 2381 1159 1747 
Q 1159 1113 1420 752 
Q 1681 391 2138 391 
Q 2594 391 2855 752 
Q 3116 1113 3116 1747 
z
" transform="scale(0.015625)"/>
     <path id="DejaVuSans-6f" d="M 1959 3097 
Q 1497 3097 1228 2736 
Q 959 2375 959 1747 
Q 959 1119 1226 758 
Q 1494 397 1959 397 
Q 2419 397 2687 759 
Q 2956 1122 2956 1747 
Q 2956 2369 2687 2733 
Q 2419 3097 1959 3097 
z
M 1959 3584 
Q 2709 3584 3137 3096 
Q 3566 2609 3566 1747 
Q 3566 888 3137 398 
Q 2709 -91 1959 -91 
Q 1206 -91 779 398 
Q 353 888 353 1747 
Q 353 2609 779 3096 
Q 1206 3584 1959 3584 
z
" transform="scale(0.015625)"/>
     <path id="DejaVuSans-6e" d="M 3513 2113 
L 3513 0 
L 2938 0 
L 2938 2094 
Q 2938 2591 2744 2837 
Q 2550 3084 2163 3084 
Q 1697 3084 1428 2787 
Q 1159 2491 1159 1978 
L 1159 0 
L 581 0 
L 581 3500 
L 1159 3500 
L 1159 2956 
Q 1366 3272 1645 3428 
Q 1925 3584 2291 3584 
Q 2894 3584 3203 3211 
Q 3513 2838 3513 2113 
z
" transform="scale(0.015625)"/>
     <path id="DejaVuSans-61" d="M 2194 1759 
Q 1497 1759 1228 1600 
Q 959 1441 959 1056 
Q 959 750 1161 570 
Q 1363 391 1709 391 
Q 2188 391 2477 730 
Q 2766 1069 2766 1631 
L 2766 1759 
L 2194 1759 
z
M 3341 1997 
L 3341 0 
L 2766 0 
L 2766 531 
Q 2569 213 2275 61 
Q 1981 -91 1556 -91 
Q 1019 -91 701 211 
Q 384 513 384 1019 
Q 384 1609 779 1909 
Q 1175 2209 1959 2209 
L 2766 2209 
L 2766 2266 
Q 2766 2663 2505 2880 
Q 2244 3097 1772 3097 
Q 1472 3097 1187 3025 
Q 903 2953 641 2809 
L 641 3341 
Q 956 3463 1253 3523 
Q 1550 3584 1831 3584 
Q 2591 3584 2966 3190 
Q 3341 2797 3341 1997 
z
" transform="scale(0.015625)"/>
     <path id="DejaVuSans-6c" d="M 603 4863 
L 1178 4863 
L 1178 0 
L 603 0 
L 603 4863 
z
" transform="scale(0.015625)"/>
     <path id="DejaVuSans-77" d="M 269 3500 
L 844 3500 
L 1563 769 
L 2278 3500 
L 2956 3500 
L 3675 769 
L 4391 3500 
L 4966 3500 
L 4050 0 
L 3372 0 
L 2619 2869 
L 1863 0 
L 1184 0 
L 269 3500 
z
" transform="scale(0.015625)"/>
     <path id="DejaVuSans-68" d="M 3513 2113 
L 3513 0 
L 2938 0 
L 2938 2094 
Q 2938 2591 2744 2837 
Q 2550 3084 2163 3084 
Q 1697 3084 1428 2787 
Q 1159 2491 1159 1978 
L 1159 0 
L 581 0 
L 581 4863 
L 1159 4863 
L 1159 2956 
Q 1366 3272 1645 3428 
Q 1925 3584 2291 3584 
Q 2894 3584 3203 3211 
Q 3513 2838 3513 2113 
z
" transform="scale(0.015625)"/>
     <path id="DejaVuSans-47" d="M 3809 666 
L 3809 1919 
L 2778 1919 
L 2778 2438 
L 4434 2438 
L 4434 434 
Q 4069 175 3628 42 
Q 3188 -91 2688 -91 
Q 1594 -91 976 548 
Q 359 1188 359 2328 
Q 359 3472 976 4111 
Q 1594 4750 2688 4750 
Q 3144 4750 3555 4637 
Q 3966 4525 4313 4306 
L 4313 3634 
Q 3963 3931 3569 4081 
Q 3175 4231 2741 4231 
Q 1884 4231 1454 3753 
Q 1025 3275 1025 2328 
Q 1025 1384 1454 906 
Q 1884 428 2741 428 
Q 3075 428 3337 486 
Q 3600 544 3809 666 
z
" transform="scale(0.015625)"/>
     <path id="DejaVuSans-75" d="M 544 1381 
L 544 3500 
L 1119 3500 
L 1119 1403 
Q 1119 906 1312 657 
Q 1506 409 1894 409 
Q 2359 409 2629 706 
Q 2900 1003 2900 1516 
L 2900 3500 
L 3475 3500 
L 3475 0 
L 2900 0 
L 2900 538 
Q 2691 219 2414 64 
Q 2138 -91 1772 -91 
Q 1169 -91 856 284 
Q 544 659 544 1381 
z
M 1991 3584 
L 1991 3584 
z
" transform="scale(0.015625)"/>
     <path id="DejaVuSans-73" d="M 2834 3397 
L 2834 2853 
Q 2591 2978 2328 3040 
Q 2066 3103 1784 3103 
Q 1356 3103 1142 2972 
Q 928 2841 928 2578 
Q 928 2378 1081 2264 
Q 1234 2150 1697 2047 
L 1894 2003 
Q 2506 1872 2764 1633 
Q 3022 1394 3022 966 
Q 3022 478 2636 193 
Q 2250 -91 1575 -91 
Q 1294 -91 989 -36 
Q 684 19 347 128 
L 347 722 
Q 666 556 975 473 
Q 1284 391 1588 391 
Q 1994 391 2212 530 
Q 2431 669 2431 922 
Q 2431 1156 2273 1281 
Q 2116 1406 1581 1522 
L 1381 1569 
Q 847 1681 609 1914 
Q 372 2147 372 2553 
Q 372 3047 722 3315 
Q 1072 3584 1716 3584 
Q 2034 3584 2315 3537 
Q 2597 3491 2834 3397 
z
" transform="scale(0.015625)"/>
     <path id="DejaVuSans-72" d="M 2631 2963 
Q 2534 3019 2420 3045 
Q 2306 3072 2169 3072 
Q 1681 3072 1420 2755 
Q 1159 2438 1159 1844 
L 1159 0 
L 581 0 
L 581 3500 
L 1159 3500 
L 1159 2956 
Q 1341 3275 1631 3429 
Q 1922 3584 2338 3584 
Q 2397 3584 2469 3576 
Q 2541 3569 2628 3553 
L 2631 2963 
z
" transform="scale(0.015625)"/>
     <path id="DejaVuSans-76" d="M 191 3500 
L 800 3500 
L 1894 563 
L 2988 3500 
L 3597 3500 
L 2284 0 
L 1503 0 
L 191 3500 
z
" transform="scale(0.015625)"/>
     <path id="DejaVuSans-66" d="M 2375 4863 
L 2375 4384 
L 1825 4384 
Q 1516 4384 1395 4259 
Q 1275 4134 1275 3809 
L 1275 3500 
L 2222 3500 
L 2222 3053 
L 1275 3053 
L 1275 0 
L 697 0 
L 697 3053 
L 147 3053 
L 147 3500 
L 697 3500 
L 697 3744 
Q 697 4328 969 4595 
Q 1241 4863 1831 4863 
L 2375 4863 
z
" transform="scale(0.015625)"/>
    </defs>
    <use xlink:href="#DejaVuSans-53"/>
    <use xlink:href="#DejaVuSans-65" x="63.476562"/>
    <use xlink:href="#DejaVuSans-78" x="123.25"/>
    <use xlink:href="#DejaVuSans-74" x="182.429688"/>
    <use xlink:href="#DejaVuSans-69" x="221.638672"/>
    <use xlink:href="#DejaVuSans-63" x="249.421875"/>
    <use xlink:href="#DejaVuSans-20" x="304.402344"/>
    <use xlink:href="#DejaVuSans-70" x="336.189453"/>
    <use xlink:href="#DejaVuSans-6f" x="399.666016"/>
    <use xlink:href="#DejaVuSans-74" x="460.847656"/>
    <use xlink:href="#DejaVuSans-65" x="500.056641"/>
    <use xlink:href="#DejaVuSans-6e" x="561.580078"/>
    <use xlink:href="#DejaVuSans-74" x="624.958984"/>
    <use xlink:href="#DejaVuSans-69" x="664.167969"/>
    <use xlink:href="#DejaVuSans-61" x="691.951172"/>
    <use xlink:href="#DejaVuSans-6c" x="753.230469"/>
    <use xlink:href="#DejaVuSans-20" x="781.013672"/>
    <use xlink:href="#DejaVuSans-77" x="812.800781"/>
    <use xlink:href="#DejaVuSans-69" x="894.587891"/>
    <use xlink:href="#DejaVuSans-74" x="922.371094"/>
    <use xlink:href="#DejaVuSans-68" x="961.580078"/>
    <use xlink:href="#DejaVuSans-20" x="1024.958984"/>
    <use xlink:href="#DejaVuSans-47" x="1056.746094"/>
    <use xlink:href="#DejaVuSans-61" x="1134.236328"/>
    <use xlink:href="#DejaVuSans-75" x="1195.515625"/>
    <use xlink:href="#DejaVuSans-73" x="1258.894531"/>
    <use xlink:href="#DejaVuSans-73" x="1310.994141"/>
    <use xlink:href="#DejaVuSans-69" x="1363.09375"/>
    <use xlink:href="#DejaVuSans-61" x="1390.876953"/>
    <use xlink:href="#DejaVuSans-6e" x="1452.15625"/>
    <use xlink:href="#DejaVuSans-20" x="1515.535156"/>
    <use xlink:href="#DejaVuSans-74" x="1547.322266"/>
    <use xlink:href="#DejaVuSans-72" x="1586.53125"/>
    <use xlink:href="#DejaVuSans-61" x="1627.644531"/>
    <use xlink:href="#DejaVuSans-69" x="1688.923828"/>
    <use xlink:href="#DejaVuSans-6c" x="1716.707031"/>
    <use xlink:href="#DejaVuSans-20" x="1744.490234"/>
    <use xlink:href="#DejaVuSans-77" x="1776.277344"/>
    <use xlink:href="#DejaVuSans-61" x="1858.064453"/>
    <use xlink:href="#DejaVuSans-76" x="1919.34375"/>
    <use xlink:href="#DejaVuSans-65" x="1978.523438"/>
    <use xlink:href="#DejaVuSans-66" x="2040.046875"/>
    <use xlink:href="#DejaVuSans-75" x="2075.251953"/>
    <use xlink:href="#DejaVuSans-6e" x="2138.630859"/>
    <use xlink:href="#DejaVuSans-63" x="2202.009766"/>
    <use xlink:href="#DejaVuSans-74" x="2256.990234"/>
    <use xlink:href="#DejaVuSans-69" x="2296.199219"/>
    <use xlink:href="#DejaVuSans-6f" x="2323.982422"/>
    <use xlink:href="#DejaVuSans-6e" x="2385.164062"/>
   </g>
  </g>
 </g>
 <defs>
  <clipPath id="p273e0006c7">
   <rect x="108" y="69.12" width="669.6" height="443.52"/>
  </clipPath>
 </defs>
</svg>
