<?xml version="1.0" encoding="utf-8" standalone="no"?>
<!DOCTYPE svg PUBLIC "-//W3C//DTD SVG 1.1//EN"
  "http://www.w3.org/Graphics/SVG/1.1/DTD/svg11.dtd">
<svg xmlns:xlink="http://www.w3.org/1999/xlink" width="864pt" height="720pt" viewBox="0 0 864 720" xmlns="http://www.w3.org/2000/svg" version="1.1">
 <metadata>
  <rdf:RDF xmlns:dc="http://purl.org/dc/elements/1.1/" xmlns:cc="http://creativecommons.org/ns#" xmlns:rdf="http://www.w3.org/1999/02/22-rdf-syntax-ns#">
   <cc:Work>
    <dc:type rdf:resource="http://purl.org/dc/dcmitype/StillImage"/>
    <dc:date>2024-07-18T20:26:14.415015</dc:date>
    <dc:format>image/svg+xml</dc:format>
    <dc:creator>
     <cc:Agent>
      <dc:title>Matplotlib v3.7.1, https://matplotlib.org/</dc:title>
     </cc:Agent>
    </dc:creator>
   </cc:Work>
  </rdf:RDF>
 </metadata>
 <defs>
  <style type="text/css">*{stroke-linejoin: round; stroke-linecap: butt}</style>
 </defs>
 <g id="figure_1">
  <g id="patch_1">
   <path d="M 0 720 
L 864 720 
L 864 0 
L 0 0 
z
" style="fill: #ffffff"/>
  </g>
  <g id="axes_1">
   <g id="patch_2">
    <path d="M 17.28 702.72 
L 846.72 702.72 
L 846.72 53.64 
L 17.28 53.64 
z
" style="fill: #ffffff"/>
   </g>
   <g id="matplotlib.axis_1">
    <g id="xtick_1">
     <g id="line2d_1">
      <defs>
       <path id="mcfe1fea774" d="M 0 0 
L 0 10 
" style="stroke: #000000; stroke-width: 2.5"/>
      </defs>
      <g>
       <use xlink:href="#mcfe1fea774" x="86.4" y="659.448" style="stroke: #000000; stroke-width: 2.5"/>
      </g>
     </g>
    </g>
    <g id="xtick_2">
     <g id="line2d_2">
      <g>
       <use xlink:href="#mcfe1fea774" x="224.64" y="659.448" style="stroke: #000000; stroke-width: 2.5"/>
      </g>
     </g>
    </g>
    <g id="xtick_3">
     <g id="line2d_3">
      <g>
       <use xlink:href="#mcfe1fea774" x="362.88" y="659.448" style="stroke: #000000; stroke-width: 2.5"/>
      </g>
     </g>
    </g>
    <g id="xtick_4">
     <g id="line2d_4">
      <g>
       <use xlink:href="#mcfe1fea774" x="501.12" y="659.448" style="stroke: #000000; stroke-width: 2.5"/>
      </g>
     </g>
    </g>
    <g id="xtick_5">
     <g id="line2d_5">
      <g>
       <use xlink:href="#mcfe1fea774" x="639.36" y="659.448" style="stroke: #000000; stroke-width: 2.5"/>
      </g>
     </g>
    </g>
    <g id="xtick_6">
     <g id="line2d_6">
      <g>
       <use xlink:href="#mcfe1fea774" x="777.6" y="659.448" style="stroke: #000000; stroke-width: 2.5"/>
      </g>
     </g>
    </g>
   </g>
   <g id="matplotlib.axis_2">
    <g id="ytick_1">
     <g id="line2d_7">
      <defs>
       <path id="m76e3eb2a5c" d="M 0 0 
L -10 0 
" style="stroke: #000000; stroke-width: 2.5"/>
      </defs>
      <g>
       <use xlink:href="#m76e3eb2a5c" x="432" y="659.448" style="stroke: #000000; stroke-width: 2.5"/>
      </g>
     </g>
    </g>
    <g id="ytick_2">
     <g id="line2d_8">
      <g>
       <use xlink:href="#m76e3eb2a5c" x="432" y="572.904" style="stroke: #000000; stroke-width: 2.5"/>
      </g>
     </g>
    </g>
    <g id="ytick_3">
     <g id="line2d_9">
      <g>
       <use xlink:href="#m76e3eb2a5c" x="432" y="486.36" style="stroke: #000000; stroke-width: 2.5"/>
      </g>
     </g>
    </g>
    <g id="ytick_4">
     <g id="line2d_10">
      <g>
       <use xlink:href="#m76e3eb2a5c" x="432" y="399.816" style="stroke: #000000; stroke-width: 2.5"/>
      </g>
     </g>
    </g>
    <g id="ytick_5">
     <g id="line2d_11">
      <g>
       <use xlink:href="#m76e3eb2a5c" x="432" y="313.272" style="stroke: #000000; stroke-width: 2.5"/>
      </g>
     </g>
    </g>
    <g id="ytick_6">
     <g id="line2d_12">
      <g>
       <use xlink:href="#m76e3eb2a5c" x="432" y="226.728" style="stroke: #000000; stroke-width: 2.5"/>
      </g>
     </g>
    </g>
    <g id="ytick_7">
     <g id="line2d_13">
      <g>
       <use xlink:href="#m76e3eb2a5c" x="432" y="140.184" style="stroke: #000000; stroke-width: 2.5"/>
      </g>
     </g>
    </g>
    <g id="ytick_8">
     <g id="line2d_14">
      <g>
       <use xlink:href="#m76e3eb2a5c" x="432" y="53.64" style="stroke: #000000; stroke-width: 2.5"/>
      </g>
     </g>
    </g>
    <g id="text_1">
     <!-- $E$ -->
     <g transform="translate(407.104625 60.04) rotate(-90) scale(0.2 -0.2)">
      <defs>
       <path id="DejaVuSans-Oblique-45" d="M 1081 4666 
L 4031 4666 
L 3928 4134 
L 1606 4134 
L 1338 2753 
L 3566 2753 
L 3463 2222 
L 1234 2222 
L 909 531 
L 3284 531 
L 3181 0 
L 172 0 
L 1081 4666 
z
" transform="scale(0.015625)"/>
      </defs>
      <use xlink:href="#DejaVuSans-Oblique-45" transform="translate(0 0.09375)"/>
     </g>
    </g>
   </g>
   <g id="line2d_15">
    <path d="M 86.4 606.06331 
L 93.381818 604.121692 
L 100.363636 602.182029 
L 107.345455 600.246274 
L 114.327273 598.316377 
L 121.309091 596.39428 
L 128.290909 594.481919 
L 135.272727 592.58122 
L 142.254545 590.694095 
L 149.236364 588.822447 
L 156.218182 586.968158 
L 163.2 585.133097 
L 170.181818 583.31911 
L 177.163636 581.528025 
L 184.145455 579.761645 
L 191.127273 578.021749 
L 198.109091 576.310088 
L 205.090909 574.628386 
L 212.072727 572.978336 
L 219.054545 571.3616 
L 226.036364 569.779806 
L 233.018182 568.234546 
L 240 566.727376 
L 246.981818 565.259815 
L 253.963636 563.833339 
L 260.945455 562.449385 
L 267.927273 561.109346 
L 274.909091 559.814573 
L 281.890909 558.566368 
L 288.872727 557.365988 
L 295.854545 556.214643 
L 302.836364 555.11349 
L 309.818182 554.06364 
L 316.8 553.06615 
L 323.781818 552.122023 
L 330.763636 551.23221 
L 337.745455 550.397607 
L 344.727273 549.619055 
L 351.709091 548.897338 
L 358.690909 548.233182 
L 365.672727 547.627256 
L 372.654545 547.08017 
L 379.636364 546.592476 
L 386.618182 546.164663 
L 393.6 545.797163 
L 400.581818 545.490346 
L 407.563636 545.244521 
L 414.545455 545.059935 
L 421.527273 544.936775 
L 428.509091 544.875163 
L 435.490909 544.875163 
L 442.472727 544.936775 
L 449.454545 545.059935 
L 456.436364 545.244521 
L 463.418182 545.490346 
L 470.4 545.797163 
L 477.381818 546.164663 
L 484.363636 546.592476 
L 491.345455 547.08017 
L 498.327273 547.627256 
L 505.309091 548.233182 
L 512.290909 548.897338 
L 519.272727 549.619055 
L 526.254545 550.397607 
L 533.236364 551.23221 
L 540.218182 552.122023 
L 547.2 553.06615 
L 554.181818 554.06364 
L 561.163636 555.11349 
L 568.145455 556.214643 
L 575.127273 557.365988 
L 582.109091 558.566368 
L 589.090909 559.814573 
L 596.072727 561.109346 
L 603.054545 562.449385 
L 610.036364 563.833339 
L 617.018182 565.259815 
L 624 566.727376 
L 630.981818 568.234546 
L 637.963636 569.779806 
L 644.945455 571.3616 
L 651.927273 572.978336 
L 658.909091 574.628386 
L 665.890909 576.310088 
L 672.872727 578.021749 
L 679.854545 579.761645 
L 686.836364 581.528025 
L 693.818182 583.31911 
L 700.8 585.133097 
L 707.781818 586.968158 
L 714.763636 588.822447 
L 721.745455 590.694095 
L 728.727273 592.58122 
L 735.709091 594.481919 
L 742.690909 596.39428 
L 749.672727 598.316377 
L 756.654545 600.246274 
L 763.636364 602.182029 
L 770.618182 604.121692 
L 777.6 606.06331 
" clip-path="url(#p964a5a719e)" style="fill: none; stroke: #1f77b4; stroke-width: 1.5; stroke-linecap: square"/>
   </g>
   <g id="line2d_16">
    <path d="M 86.4 445.909239 
L 93.381818 442.027959 
L 100.363636 438.162306 
L 107.345455 434.327849 
L 114.327273 430.540025 
L 121.309091 426.814087 
L 128.290909 423.16504 
L 135.272727 419.607575 
L 142.254545 416.156017 
L 149.236364 412.824265 
L 156.218182 409.625735 
L 163.2 406.573306 
L 170.181818 403.679268 
L 177.163636 400.955276 
L 184.145455 398.412297 
L 191.127273 396.060572 
L 198.109091 393.90957 
L 205.090909 391.967952 
L 212.072727 390.243537 
L 219.054545 388.743268 
L 226.036364 387.473186 
L 233.018182 386.438405 
L 240 385.643092 
L 246.981818 385.09045 
L 253.963636 384.782704 
L 260.945455 384.721093 
L 267.927273 384.905865 
L 274.909091 385.336275 
L 281.890909 386.010592 
L 288.872727 386.9261 
L 295.854545 388.079112 
L 302.836364 389.464985 
L 309.818182 391.078139 
L 316.8 392.912079 
L 323.781818 394.95942 
L 330.763636 397.211918 
L 337.745455 399.660502 
L 344.727273 402.295314 
L 351.709091 405.105744 
L 358.690909 408.080475 
L 365.672727 411.207529 
L 372.654545 414.474315 
L 379.636364 417.867678 
L 386.618182 421.373955 
L 393.6 424.979026 
L 400.581818 428.668376 
L 407.563636 432.427149 
L 414.545455 436.24021 
L 421.527273 440.092204 
L 428.509091 443.967621 
L 435.490909 447.850857 
L 442.472727 451.726274 
L 449.454545 455.578269 
L 456.436364 459.391329 
L 463.418182 463.150102 
L 470.4 466.839452 
L 477.381818 470.444524 
L 484.363636 473.9508 
L 491.345455 477.344163 
L 498.327273 480.610949 
L 505.309091 483.738003 
L 512.290909 486.712734 
L 519.272727 489.523164 
L 526.254545 492.157976 
L 533.236364 494.606561 
L 540.218182 496.859059 
L 547.2 498.906399 
L 554.181818 500.740339 
L 561.163636 502.353494 
L 568.145455 503.739367 
L 575.127273 504.892379 
L 582.109091 505.807886 
L 589.090909 506.482203 
L 596.072727 506.912614 
L 603.054545 507.097386 
L 610.036364 507.035774 
L 617.018182 506.728028 
L 624 506.175386 
L 630.981818 505.380073 
L 637.963636 504.345293 
L 644.945455 503.075211 
L 651.927273 501.574942 
L 658.909091 499.850526 
L 665.890909 497.908909 
L 672.872727 495.757906 
L 679.854545 493.406181 
L 686.836364 490.863203 
L 693.818182 488.13921 
L 700.8 485.245173 
L 707.781818 482.192743 
L 714.763636 478.994213 
L 721.745455 475.662461 
L 728.727273 472.210904 
L 735.709091 468.653439 
L 742.690909 465.004391 
L 749.672727 461.278454 
L 756.654545 457.49063 
L 763.636364 453.656172 
L 770.618182 449.79052 
L 777.6 445.909239 
" clip-path="url(#p964a5a719e)" style="fill: none; stroke: #ff7f0e; stroke-width: 1.5; stroke-linecap: square"/>
   </g>
   <g id="line2d_17">
    <path d="M 86.4 178.985788 
L 93.381818 173.168753 
L 100.363636 167.404398 
L 107.345455 161.744925 
L 114.327273 156.241589 
L 121.309091 150.944227 
L 128.290909 145.900814 
L 135.272727 141.157024 
L 142.254545 136.755817 
L 149.236364 132.737051 
L 156.218182 129.137121 
L 163.2 125.988628 
L 170.181818 123.320086 
L 177.163636 121.15566 
L 184.145455 119.514954 
L 191.127273 118.412824 
L 198.109091 117.859253 
L 205.090909 117.859253 
L 212.072727 118.412824 
L 219.054545 119.514954 
L 226.036364 121.15566 
L 233.018182 123.320086 
L 240 125.988628 
L 246.981818 129.137121 
L 253.963636 132.737051 
L 260.945455 136.755817 
L 267.927273 141.157024 
L 274.909091 145.900814 
L 281.890909 150.944227 
L 288.872727 156.241589 
L 295.854545 161.744925 
L 302.836364 167.404398 
L 309.818182 173.168753 
L 316.8 178.985788 
L 323.781818 184.802823 
L 330.763636 190.567179 
L 337.745455 196.226651 
L 344.727273 201.729988 
L 351.709091 207.027349 
L 358.690909 212.070762 
L 365.672727 216.814552 
L 372.654545 221.215759 
L 379.636364 225.234525 
L 386.618182 228.834455 
L 393.6 231.982948 
L 400.581818 234.651491 
L 407.563636 236.815916 
L 414.545455 238.456622 
L 421.527273 239.558752 
L 428.509091 240.112323 
L 435.490909 240.112323 
L 442.472727 239.558752 
L 449.454545 238.456622 
L 456.436364 236.815916 
L 463.418182 234.651491 
L 470.4 231.982948 
L 477.381818 228.834455 
L 484.363636 225.234525 
L 491.345455 221.215759 
L 498.327273 216.814552 
L 505.309091 212.070762 
L 512.290909 207.027349 
L 519.272727 201.729988 
L 526.254545 196.226651 
L 533.236364 190.567179 
L 540.218182 184.802823 
L 547.2 178.985788 
L 554.181818 173.168753 
L 561.163636 167.404398 
L 568.145455 161.744925 
L 575.127273 156.241589 
L 582.109091 150.944227 
L 589.090909 145.900814 
L 596.072727 141.157024 
L 603.054545 136.755817 
L 610.036364 132.737051 
L 617.018182 129.137121 
L 624 125.988628 
L 630.981818 123.320086 
L 637.963636 121.15566 
L 644.945455 119.514954 
L 651.927273 118.412824 
L 658.909091 117.859253 
L 665.890909 117.859253 
L 672.872727 118.412824 
L 679.854545 119.514954 
L 686.836364 121.15566 
L 693.818182 123.320086 
L 700.8 125.988628 
L 707.781818 129.137121 
L 714.763636 132.737051 
L 721.745455 136.755817 
L 728.727273 141.157024 
L 735.709091 145.900814 
L 742.690909 150.944227 
L 749.672727 156.241589 
L 756.654545 161.744925 
L 763.636364 167.404398 
L 770.618182 173.168753 
L 777.6 178.985788 
" clip-path="url(#p964a5a719e)" style="fill: none; stroke: #2ca02c; stroke-width: 1.5; stroke-linecap: square"/>
   </g>
   <g id="LineCollection_1">
    <path d="M 86.4 659.448 
L 777.6 659.448 
" clip-path="url(#p964a5a719e)" style="fill: none; stroke: #000000; stroke-width: 5"/>
   </g>
   <g id="LineCollection_2">
    <path d="M 777.6 659.448 
L 777.6 -1 
" clip-path="url(#p964a5a719e)" style="fill: none; stroke: #000000; stroke-width: 5"/>
   </g>
   <g id="LineCollection_3">
    <path d="M 86.4 659.448 
L 86.4 -1 
" clip-path="url(#p964a5a719e)" style="fill: none; stroke: #000000; stroke-width: 5"/>
   </g>
   <g id="patch_3">
    <path d="M 432 702.72 
L 432 53.64 
" style="fill: none; stroke: #000000; stroke-width: 2.5; stroke-linejoin: miter; stroke-linecap: square"/>
   </g>
   <g id="patch_4">
    <path d="M 846.72 702.72 
L 846.72 53.64 
" style="fill: none"/>
   </g>
   <g id="patch_5">
    <path d="M 17.28 659.448 
L 846.72 659.448 
" style="fill: none; stroke: #000000; stroke-width: 2.5; stroke-linejoin: miter; stroke-linecap: square"/>
   </g>
   <g id="patch_6">
    <path d="M 17.28 53.64 
L 846.72 53.64 
" style="fill: none"/>
   </g>
   <g id="text_2">
    <!-- $\psi_1 (x)$ -->
    <g transform="translate(792.08 606.06331) scale(0.16 -0.16)">
     <defs>
      <path id="DejaVuSans-Oblique-3c8" d="M 1591 -78 
Q 891 38 616 341 
Q 278 713 425 1472 
L 819 3500 
L 1400 3500 
L 1009 1494 
Q 900 922 1119 684 
Q 1313 478 1691 434 
L 2284 3500 
L 2856 3500 
L 2263 438 
Q 2681 481 2928 688 
Q 3247 950 3353 1497 
L 3741 3500 
L 4322 3500 
L 3928 1475 
Q 3775 688 3300 344 
Q 2872 34 2163 -75 
L 1919 -1331 
L 1347 -1331 
L 1591 -78 
z
" transform="scale(0.015625)"/>
      <path id="DejaVuSans-31" d="M 794 531 
L 1825 531 
L 1825 4091 
L 703 3866 
L 703 4441 
L 1819 4666 
L 2450 4666 
L 2450 531 
L 3481 531 
L 3481 0 
L 794 0 
L 794 531 
z
" transform="scale(0.015625)"/>
      <path id="DejaVuSans-28" d="M 1984 4856 
Q 1566 4138 1362 3434 
Q 1159 2731 1159 2009 
Q 1159 1288 1364 580 
Q 1569 -128 1984 -844 
L 1484 -844 
Q 1016 -109 783 600 
Q 550 1309 550 2009 
Q 550 2706 781 3412 
Q 1013 4119 1484 4856 
L 1984 4856 
z
" transform="scale(0.015625)"/>
      <path id="DejaVuSans-Oblique-78" d="M 3841 3500 
L 2234 1784 
L 3219 0 
L 2559 0 
L 1819 1388 
L 531 0 
L -166 0 
L 1556 1844 
L 641 3500 
L 1300 3500 
L 1972 2234 
L 3144 3500 
L 3841 3500 
z
" transform="scale(0.015625)"/>
      <path id="DejaVuSans-29" d="M 513 4856 
L 1013 4856 
Q 1481 4119 1714 3412 
Q 1947 2706 1947 2009 
Q 1947 1309 1714 600 
Q 1481 -109 1013 -844 
L 513 -844 
Q 928 -128 1133 580 
Q 1338 1288 1338 2009 
Q 1338 2731 1133 3434 
Q 928 4138 513 4856 
z
" transform="scale(0.015625)"/>
     </defs>
     <use xlink:href="#DejaVuSans-Oblique-3c8" transform="translate(0 0.125)"/>
     <use xlink:href="#DejaVuSans-31" transform="translate(65.966797 -16.28125) scale(0.7)"/>
     <use xlink:href="#DejaVuSans-28" transform="translate(113.237305 0.125)"/>
     <use xlink:href="#DejaVuSans-Oblique-78" transform="translate(152.250977 0.125)"/>
     <use xlink:href="#DejaVuSans-29" transform="translate(211.430664 0.125)"/>
    </g>
   </g>
   <g id="text_3">
    <!-- $\psi_2 (x)$ -->
    <g transform="translate(792.08 445.909239) scale(0.16 -0.16)">
     <defs>
      <path id="DejaVuSans-32" d="M 1228 531 
L 3431 531 
L 3431 0 
L 469 0 
L 469 531 
Q 828 903 1448 1529 
Q 2069 2156 2228 2338 
Q 2531 2678 2651 2914 
Q 2772 3150 2772 3378 
Q 2772 3750 2511 3984 
Q 2250 4219 1831 4219 
Q 1534 4219 1204 4116 
Q 875 4013 500 3803 
L 500 4441 
Q 881 4594 1212 4672 
Q 1544 4750 1819 4750 
Q 2544 4750 2975 4387 
Q 3406 4025 3406 3419 
Q 3406 3131 3298 2873 
Q 3191 2616 2906 2266 
Q 2828 2175 2409 1742 
Q 1991 1309 1228 531 
z
" transform="scale(0.015625)"/>
     </defs>
     <use xlink:href="#DejaVuSans-Oblique-3c8" transform="translate(0 0.125)"/>
     <use xlink:href="#DejaVuSans-32" transform="translate(65.966797 -16.28125) scale(0.7)"/>
     <use xlink:href="#DejaVuSans-28" transform="translate(113.237305 0.125)"/>
     <use xlink:href="#DejaVuSans-Oblique-78" transform="translate(152.250977 0.125)"/>
     <use xlink:href="#DejaVuSans-29" transform="translate(211.430664 0.125)"/>
    </g>
   </g>
   <g id="text_4">
    <!-- $\psi_3 (x)$ -->
    <g transform="translate(792.08 178.985788) scale(0.16 -0.16)">
     <defs>
      <path id="DejaVuSans-33" d="M 2597 2516 
Q 3050 2419 3304 2112 
Q 3559 1806 3559 1356 
Q 3559 666 3084 287 
Q 2609 -91 1734 -91 
Q 1441 -91 1130 -33 
Q 819 25 488 141 
L 488 750 
Q 750 597 1062 519 
Q 1375 441 1716 441 
Q 2309 441 2620 675 
Q 2931 909 2931 1356 
Q 2931 1769 2642 2001 
Q 2353 2234 1838 2234 
L 1294 2234 
L 1294 2753 
L 1863 2753 
Q 2328 2753 2575 2939 
Q 2822 3125 2822 3475 
Q 2822 3834 2567 4026 
Q 2313 4219 1838 4219 
Q 1578 4219 1281 4162 
Q 984 4106 628 3988 
L 628 4550 
Q 988 4650 1302 4700 
Q 1616 4750 1894 4750 
Q 2613 4750 3031 4423 
Q 3450 4097 3450 3541 
Q 3450 3153 3228 2886 
Q 3006 2619 2597 2516 
z
" transform="scale(0.015625)"/>
     </defs>
     <use xlink:href="#DejaVuSans-Oblique-3c8" transform="translate(0 0.125)"/>
     <use xlink:href="#DejaVuSans-33" transform="translate(65.966797 -16.28125) scale(0.7)"/>
     <use xlink:href="#DejaVuSans-28" transform="translate(113.237305 0.125)"/>
     <use xlink:href="#DejaVuSans-Oblique-78" transform="translate(152.250977 0.125)"/>
     <use xlink:href="#DejaVuSans-29" transform="translate(211.430664 0.125)"/>
    </g>
   </g>
  </g>
  <g id="text_5">
   <!-- Infinite square well -->
   <g transform="translate(340.722 28.989) scale(0.192 -0.192)">
    <defs>
     <path id="DejaVuSans-49" d="M 628 4666 
L 1259 4666 
L 1259 0 
L 628 0 
L 628 4666 
z
" transform="scale(0.015625)"/>
     <path id="DejaVuSans-6e" d="M 3513 2113 
L 3513 0 
L 2938 0 
L 2938 2094 
Q 2938 2591 2744 2837 
Q 2550 3084 2163 3084 
Q 1697 3084 1428 2787 
Q 1159 2491 1159 1978 
L 1159 0 
L 581 0 
L 581 3500 
L 1159 3500 
L 1159 2956 
Q 1366 3272 1645 3428 
Q 1925 3584 2291 3584 
Q 2894 3584 3203 3211 
Q 3513 2838 3513 2113 
z
" transform="scale(0.015625)"/>
     <path id="DejaVuSans-66" d="M 2375 4863 
L 2375 4384 
L 1825 4384 
Q 1516 4384 1395 4259 
Q 1275 4134 1275 3809 
L 1275 3500 
L 2222 3500 
L 2222 3053 
L 1275 3053 
L 1275 0 
L 697 0 
L 697 3053 
L 147 3053 
L 147 3500 
L 697 3500 
L 697 3744 
Q 697 4328 969 4595 
Q 1241 4863 1831 4863 
L 2375 4863 
z
" transform="scale(0.015625)"/>
     <path id="DejaVuSans-69" d="M 603 3500 
L 1178 3500 
L 1178 0 
L 603 0 
L 603 3500 
z
M 603 4863 
L 1178 4863 
L 1178 4134 
L 603 4134 
L 603 4863 
z
" transform="scale(0.015625)"/>
     <path id="DejaVuSans-74" d="M 1172 4494 
L 1172 3500 
L 2356 3500 
L 2356 3053 
L 1172 3053 
L 1172 1153 
Q 1172 725 1289 603 
Q 1406 481 1766 481 
L 2356 481 
L 2356 0 
L 1766 0 
Q 1100 0 847 248 
Q 594 497 594 1153 
L 594 3053 
L 172 3053 
L 172 3500 
L 594 3500 
L 594 4494 
L 1172 4494 
z
" transform="scale(0.015625)"/>
     <path id="DejaVuSans-65" d="M 3597 1894 
L 3597 1613 
L 953 1613 
Q 991 1019 1311 708 
Q 1631 397 2203 397 
Q 2534 397 2845 478 
Q 3156 559 3463 722 
L 3463 178 
Q 3153 47 2828 -22 
Q 2503 -91 2169 -91 
Q 1331 -91 842 396 
Q 353 884 353 1716 
Q 353 2575 817 3079 
Q 1281 3584 2069 3584 
Q 2775 3584 3186 3129 
Q 3597 2675 3597 1894 
z
M 3022 2063 
Q 3016 2534 2758 2815 
Q 2500 3097 2075 3097 
Q 1594 3097 1305 2825 
Q 1016 2553 972 2059 
L 3022 2063 
z
" transform="scale(0.015625)"/>
     <path id="DejaVuSans-20" transform="scale(0.015625)"/>
     <path id="DejaVuSans-73" d="M 2834 3397 
L 2834 2853 
Q 2591 2978 2328 3040 
Q 2066 3103 1784 3103 
Q 1356 3103 1142 2972 
Q 928 2841 928 2578 
Q 928 2378 1081 2264 
Q 1234 2150 1697 2047 
L 1894 2003 
Q 2506 1872 2764 1633 
Q 3022 1394 3022 966 
Q 3022 478 2636 193 
Q 2250 -91 1575 -91 
Q 1294 -91 989 -36 
Q 684 19 347 128 
L 347 722 
Q 666 556 975 473 
Q 1284 391 1588 391 
Q 1994 391 2212 530 
Q 2431 669 2431 922 
Q 2431 1156 2273 1281 
Q 2116 1406 1581 1522 
L 1381 1569 
Q 847 1681 609 1914 
Q 372 2147 372 2553 
Q 372 3047 722 3315 
Q 1072 3584 1716 3584 
Q 2034 3584 2315 3537 
Q 2597 3491 2834 3397 
z
" transform="scale(0.015625)"/>
     <path id="DejaVuSans-71" d="M 947 1747 
Q 947 1113 1208 752 
Q 1469 391 1925 391 
Q 2381 391 2643 752 
Q 2906 1113 2906 1747 
Q 2906 2381 2643 2742 
Q 2381 3103 1925 3103 
Q 1469 3103 1208 2742 
Q 947 2381 947 1747 
z
M 2906 525 
Q 2725 213 2448 61 
Q 2172 -91 1784 -91 
Q 1150 -91 751 415 
Q 353 922 353 1747 
Q 353 2572 751 3078 
Q 1150 3584 1784 3584 
Q 2172 3584 2448 3432 
Q 2725 3281 2906 2969 
L 2906 3500 
L 3481 3500 
L 3481 -1331 
L 2906 -1331 
L 2906 525 
z
" transform="scale(0.015625)"/>
     <path id="DejaVuSans-75" d="M 544 1381 
L 544 3500 
L 1119 3500 
L 1119 1403 
Q 1119 906 1312 657 
Q 1506 409 1894 409 
Q 2359 409 2629 706 
Q 2900 1003 2900 1516 
L 2900 3500 
L 3475 3500 
L 3475 0 
L 2900 0 
L 2900 538 
Q 2691 219 2414 64 
Q 2138 -91 1772 -91 
Q 1169 -91 856 284 
Q 544 659 544 1381 
z
M 1991 3584 
L 1991 3584 
z
" transform="scale(0.015625)"/>
     <path id="DejaVuSans-61" d="M 2194 1759 
Q 1497 1759 1228 1600 
Q 959 1441 959 1056 
Q 959 750 1161 570 
Q 1363 391 1709 391 
Q 2188 391 2477 730 
Q 2766 1069 2766 1631 
L 2766 1759 
L 2194 1759 
z
M 3341 1997 
L 3341 0 
L 2766 0 
L 2766 531 
Q 2569 213 2275 61 
Q 1981 -91 1556 -91 
Q 1019 -91 701 211 
Q 384 513 384 1019 
Q 384 1609 779 1909 
Q 1175 2209 1959 2209 
L 2766 2209 
L 2766 2266 
Q 2766 2663 2505 2880 
Q 2244 3097 1772 3097 
Q 1472 3097 1187 3025 
Q 903 2953 641 2809 
L 641 3341 
Q 956 3463 1253 3523 
Q 1550 3584 1831 3584 
Q 2591 3584 2966 3190 
Q 3341 2797 3341 1997 
z
" transform="scale(0.015625)"/>
     <path id="DejaVuSans-72" d="M 2631 2963 
Q 2534 3019 2420 3045 
Q 2306 3072 2169 3072 
Q 1681 3072 1420 2755 
Q 1159 2438 1159 1844 
L 1159 0 
L 581 0 
L 581 3500 
L 1159 3500 
L 1159 2956 
Q 1341 3275 1631 3429 
Q 1922 3584 2338 3584 
Q 2397 3584 2469 3576 
Q 2541 3569 2628 3553 
L 2631 2963 
z
" transform="scale(0.015625)"/>
     <path id="DejaVuSans-77" d="M 269 3500 
L 844 3500 
L 1563 769 
L 2278 3500 
L 2956 3500 
L 3675 769 
L 4391 3500 
L 4966 3500 
L 4050 0 
L 3372 0 
L 2619 2869 
L 1863 0 
L 1184 0 
L 269 3500 
z
" transform="scale(0.015625)"/>
     <path id="DejaVuSans-6c" d="M 603 4863 
L 1178 4863 
L 1178 0 
L 603 0 
L 603 4863 
z
" transform="scale(0.015625)"/>
    </defs>
    <use xlink:href="#DejaVuSans-49"/>
    <use xlink:href="#DejaVuSans-6e" x="29.492188"/>
    <use xlink:href="#DejaVuSans-66" x="92.871094"/>
    <use xlink:href="#DejaVuSans-69" x="128.076172"/>
    <use xlink:href="#DejaVuSans-6e" x="155.859375"/>
    <use xlink:href="#DejaVuSans-69" x="219.238281"/>
    <use xlink:href="#DejaVuSans-74" x="247.021484"/>
    <use xlink:href="#DejaVuSans-65" x="286.230469"/>
    <use xlink:href="#DejaVuSans-20" x="347.753906"/>
    <use xlink:href="#DejaVuSans-73" x="379.541016"/>
    <use xlink:href="#DejaVuSans-71" x="431.640625"/>
    <use xlink:href="#DejaVuSans-75" x="495.117188"/>
    <use xlink:href="#DejaVuSans-61" x="558.496094"/>
    <use xlink:href="#DejaVuSans-72" x="619.775391"/>
    <use xlink:href="#DejaVuSans-65" x="658.638672"/>
    <use xlink:href="#DejaVuSans-20" x="720.162109"/>
    <use xlink:href="#DejaVuSans-77" x="751.949219"/>
    <use xlink:href="#DejaVuSans-65" x="833.736328"/>
    <use xlink:href="#DejaVuSans-6c" x="895.259766"/>
    <use xlink:href="#DejaVuSans-6c" x="923.042969"/>
   </g>
  </g>
 </g>
 <defs>
  <clipPath id="p964a5a719e">
   <rect x="17.28" y="53.64" width="829.44" height="649.08"/>
  </clipPath>
 </defs>
</svg>
