<?xml version="1.0" encoding="utf-8" standalone="no"?>
<!DOCTYPE svg PUBLIC "-//W3C//DTD SVG 1.1//EN"
  "http://www.w3.org/Graphics/SVG/1.1/DTD/svg11.dtd">
<svg xmlns:xlink="http://www.w3.org/1999/xlink" width="480.731545pt" height="558.01pt" viewBox="0 0 480.731545 558.01" xmlns="http://www.w3.org/2000/svg" version="1.1">
 <metadata>
  <rdf:RDF xmlns:dc="http://purl.org/dc/elements/1.1/" xmlns:cc="http://creativecommons.org/ns#" xmlns:rdf="http://www.w3.org/1999/02/22-rdf-syntax-ns#">
   <cc:Work>
    <dc:type rdf:resource="http://purl.org/dc/dcmitype/StillImage"/>
    <dc:date>2024-07-18T17:07:07.182796</dc:date>
    <dc:format>image/svg+xml</dc:format>
    <dc:creator>
     <cc:Agent>
      <dc:title>Matplotlib v3.7.1, https://matplotlib.org/</dc:title>
     </cc:Agent>
    </dc:creator>
   </cc:Work>
  </rdf:RDF>
 </metadata>
 <defs>
  <style type="text/css">*{stroke-linejoin: round; stroke-linecap: butt}</style>
 </defs>
 <g id="figure_1">
  <g id="patch_1">
   <path d="M 0 558.01 
L 480.731545 558.01 
L 480.731545 0 
L 0 0 
z
" style="fill: #ffffff"/>
  </g>
  <g id="axes_1">
   <g id="patch_2">
    <path d="M 75.81 240.98 
L 473.531545 240.98 
L 473.531545 69.36 
L 75.81 69.36 
z
" style="fill: #ffffff"/>
   </g>
   <g id="matplotlib.axis_1">
    <g id="xtick_1">
     <g id="line2d_1">
      <defs>
       <path id="mf8e97e91d4" d="M 0 0 
L 0 10 
" style="stroke: #000000; stroke-width: 2.5"/>
      </defs>
      <g>
       <use xlink:href="#mf8e97e91d4" x="93.888252" y="240.98" style="stroke: #000000; stroke-width: 2.5"/>
      </g>
     </g>
     <g id="text_1">
      <!-- 0.0 -->
      <g transform="translate(81.165752 266.6375) scale(0.16 -0.16)">
       <defs>
        <path id="DejaVuSans-30" d="M 2034 4250 
Q 1547 4250 1301 3770 
Q 1056 3291 1056 2328 
Q 1056 1369 1301 889 
Q 1547 409 2034 409 
Q 2525 409 2770 889 
Q 3016 1369 3016 2328 
Q 3016 3291 2770 3770 
Q 2525 4250 2034 4250 
z
M 2034 4750 
Q 2819 4750 3233 4129 
Q 3647 3509 3647 2328 
Q 3647 1150 3233 529 
Q 2819 -91 2034 -91 
Q 1250 -91 836 529 
Q 422 1150 422 2328 
Q 422 3509 836 4129 
Q 1250 4750 2034 4750 
z
" transform="scale(0.015625)"/>
        <path id="DejaVuSans-2e" d="M 684 794 
L 1344 794 
L 1344 0 
L 684 0 
L 684 794 
z
" transform="scale(0.015625)"/>
       </defs>
       <use xlink:href="#DejaVuSans-30"/>
       <use xlink:href="#DejaVuSans-2e" x="63.623047"/>
       <use xlink:href="#DejaVuSans-30" x="95.410156"/>
      </g>
     </g>
    </g>
    <g id="xtick_2">
     <g id="line2d_2">
      <g>
       <use xlink:href="#mf8e97e91d4" x="154.149092" y="240.98" style="stroke: #000000; stroke-width: 2.5"/>
      </g>
     </g>
     <g id="text_2">
      <!-- 2.5 -->
      <g transform="translate(141.426592 266.6375) scale(0.16 -0.16)">
       <defs>
        <path id="DejaVuSans-32" d="M 1228 531 
L 3431 531 
L 3431 0 
L 469 0 
L 469 531 
Q 828 903 1448 1529 
Q 2069 2156 2228 2338 
Q 2531 2678 2651 2914 
Q 2772 3150 2772 3378 
Q 2772 3750 2511 3984 
Q 2250 4219 1831 4219 
Q 1534 4219 1204 4116 
Q 875 4013 500 3803 
L 500 4441 
Q 881 4594 1212 4672 
Q 1544 4750 1819 4750 
Q 2544 4750 2975 4387 
Q 3406 4025 3406 3419 
Q 3406 3131 3298 2873 
Q 3191 2616 2906 2266 
Q 2828 2175 2409 1742 
Q 1991 1309 1228 531 
z
" transform="scale(0.015625)"/>
        <path id="DejaVuSans-35" d="M 691 4666 
L 3169 4666 
L 3169 4134 
L 1269 4134 
L 1269 2991 
Q 1406 3038 1543 3061 
Q 1681 3084 1819 3084 
Q 2600 3084 3056 2656 
Q 3513 2228 3513 1497 
Q 3513 744 3044 326 
Q 2575 -91 1722 -91 
Q 1428 -91 1123 -41 
Q 819 9 494 109 
L 494 744 
Q 775 591 1075 516 
Q 1375 441 1709 441 
Q 2250 441 2565 725 
Q 2881 1009 2881 1497 
Q 2881 1984 2565 2268 
Q 2250 2553 1709 2553 
Q 1456 2553 1204 2497 
Q 953 2441 691 2322 
L 691 4666 
z
" transform="scale(0.015625)"/>
       </defs>
       <use xlink:href="#DejaVuSans-32"/>
       <use xlink:href="#DejaVuSans-2e" x="63.623047"/>
       <use xlink:href="#DejaVuSans-35" x="95.410156"/>
      </g>
     </g>
    </g>
    <g id="xtick_3">
     <g id="line2d_3">
      <g>
       <use xlink:href="#mf8e97e91d4" x="214.409933" y="240.98" style="stroke: #000000; stroke-width: 2.5"/>
      </g>
     </g>
     <g id="text_3">
      <!-- 5.0 -->
      <g transform="translate(201.687433 266.6375) scale(0.16 -0.16)">
       <use xlink:href="#DejaVuSans-35"/>
       <use xlink:href="#DejaVuSans-2e" x="63.623047"/>
       <use xlink:href="#DejaVuSans-30" x="95.410156"/>
      </g>
     </g>
    </g>
    <g id="xtick_4">
     <g id="line2d_4">
      <g>
       <use xlink:href="#mf8e97e91d4" x="274.670773" y="240.98" style="stroke: #000000; stroke-width: 2.5"/>
      </g>
     </g>
     <g id="text_4">
      <!-- 7.5 -->
      <g transform="translate(261.948273 266.6375) scale(0.16 -0.16)">
       <defs>
        <path id="DejaVuSans-37" d="M 525 4666 
L 3525 4666 
L 3525 4397 
L 1831 0 
L 1172 0 
L 2766 4134 
L 525 4134 
L 525 4666 
z
" transform="scale(0.015625)"/>
       </defs>
       <use xlink:href="#DejaVuSans-37"/>
       <use xlink:href="#DejaVuSans-2e" x="63.623047"/>
       <use xlink:href="#DejaVuSans-35" x="95.410156"/>
      </g>
     </g>
    </g>
    <g id="xtick_5">
     <g id="line2d_5">
      <g>
       <use xlink:href="#mf8e97e91d4" x="334.931613" y="240.98" style="stroke: #000000; stroke-width: 2.5"/>
      </g>
     </g>
     <g id="text_5">
      <!-- 10.0 -->
      <g transform="translate(317.119113 266.6375) scale(0.16 -0.16)">
       <defs>
        <path id="DejaVuSans-31" d="M 794 531 
L 1825 531 
L 1825 4091 
L 703 3866 
L 703 4441 
L 1819 4666 
L 2450 4666 
L 2450 531 
L 3481 531 
L 3481 0 
L 794 0 
L 794 531 
z
" transform="scale(0.015625)"/>
       </defs>
       <use xlink:href="#DejaVuSans-31"/>
       <use xlink:href="#DejaVuSans-30" x="63.623047"/>
       <use xlink:href="#DejaVuSans-2e" x="127.246094"/>
       <use xlink:href="#DejaVuSans-30" x="159.033203"/>
      </g>
     </g>
    </g>
    <g id="xtick_6">
     <g id="line2d_6">
      <g>
       <use xlink:href="#mf8e97e91d4" x="395.192453" y="240.98" style="stroke: #000000; stroke-width: 2.5"/>
      </g>
     </g>
     <g id="text_6">
      <!-- 12.5 -->
      <g transform="translate(377.379953 266.6375) scale(0.16 -0.16)">
       <use xlink:href="#DejaVuSans-31"/>
       <use xlink:href="#DejaVuSans-32" x="63.623047"/>
       <use xlink:href="#DejaVuSans-2e" x="127.246094"/>
       <use xlink:href="#DejaVuSans-35" x="159.033203"/>
      </g>
     </g>
    </g>
    <g id="xtick_7">
     <g id="line2d_7">
      <g>
       <use xlink:href="#mf8e97e91d4" x="455.453293" y="240.98" style="stroke: #000000; stroke-width: 2.5"/>
      </g>
     </g>
     <g id="text_7">
      <!-- 15.0 -->
      <g transform="translate(437.640793 266.6375) scale(0.16 -0.16)">
       <use xlink:href="#DejaVuSans-31"/>
       <use xlink:href="#DejaVuSans-35" x="63.623047"/>
       <use xlink:href="#DejaVuSans-2e" x="127.246094"/>
       <use xlink:href="#DejaVuSans-30" x="159.033203"/>
      </g>
     </g>
    </g>
    <g id="text_8">
     <!-- $r$ [a.u.] -->
     <g transform="translate(247.470773 286.1225) scale(0.16 -0.16)">
      <defs>
       <path id="DejaVuSans-Oblique-72" d="M 2853 2969 
Q 2766 3016 2653 3041 
Q 2541 3066 2413 3066 
Q 1953 3066 1609 2717 
Q 1266 2369 1153 1784 
L 800 0 
L 225 0 
L 909 3500 
L 1484 3500 
L 1375 2956 
Q 1603 3259 1920 3421 
Q 2238 3584 2597 3584 
Q 2691 3584 2781 3573 
Q 2872 3563 2963 3538 
L 2853 2969 
z
" transform="scale(0.015625)"/>
       <path id="DejaVuSans-20" transform="scale(0.015625)"/>
       <path id="DejaVuSans-5b" d="M 550 4863 
L 1875 4863 
L 1875 4416 
L 1125 4416 
L 1125 -397 
L 1875 -397 
L 1875 -844 
L 550 -844 
L 550 4863 
z
" transform="scale(0.015625)"/>
       <path id="DejaVuSans-61" d="M 2194 1759 
Q 1497 1759 1228 1600 
Q 959 1441 959 1056 
Q 959 750 1161 570 
Q 1363 391 1709 391 
Q 2188 391 2477 730 
Q 2766 1069 2766 1631 
L 2766 1759 
L 2194 1759 
z
M 3341 1997 
L 3341 0 
L 2766 0 
L 2766 531 
Q 2569 213 2275 61 
Q 1981 -91 1556 -91 
Q 1019 -91 701 211 
Q 384 513 384 1019 
Q 384 1609 779 1909 
Q 1175 2209 1959 2209 
L 2766 2209 
L 2766 2266 
Q 2766 2663 2505 2880 
Q 2244 3097 1772 3097 
Q 1472 3097 1187 3025 
Q 903 2953 641 2809 
L 641 3341 
Q 956 3463 1253 3523 
Q 1550 3584 1831 3584 
Q 2591 3584 2966 3190 
Q 3341 2797 3341 1997 
z
" transform="scale(0.015625)"/>
       <path id="DejaVuSans-75" d="M 544 1381 
L 544 3500 
L 1119 3500 
L 1119 1403 
Q 1119 906 1312 657 
Q 1506 409 1894 409 
Q 2359 409 2629 706 
Q 2900 1003 2900 1516 
L 2900 3500 
L 3475 3500 
L 3475 0 
L 2900 0 
L 2900 538 
Q 2691 219 2414 64 
Q 2138 -91 1772 -91 
Q 1169 -91 856 284 
Q 544 659 544 1381 
z
M 1991 3584 
L 1991 3584 
z
" transform="scale(0.015625)"/>
       <path id="DejaVuSans-5d" d="M 1947 4863 
L 1947 -844 
L 622 -844 
L 622 -397 
L 1369 -397 
L 1369 4416 
L 622 4416 
L 622 4863 
L 1947 4863 
z
" transform="scale(0.015625)"/>
      </defs>
      <use xlink:href="#DejaVuSans-Oblique-72" transform="translate(0 0.015625)"/>
      <use xlink:href="#DejaVuSans-20" transform="translate(41.113281 0.015625)"/>
      <use xlink:href="#DejaVuSans-5b" transform="translate(72.900391 0.015625)"/>
      <use xlink:href="#DejaVuSans-61" transform="translate(111.914062 0.015625)"/>
      <use xlink:href="#DejaVuSans-2e" transform="translate(173.193359 0.015625)"/>
      <use xlink:href="#DejaVuSans-75" transform="translate(204.980469 0.015625)"/>
      <use xlink:href="#DejaVuSans-2e" transform="translate(268.359375 0.015625)"/>
      <use xlink:href="#DejaVuSans-5d" transform="translate(300.146484 0.015625)"/>
     </g>
    </g>
   </g>
   <g id="matplotlib.axis_2">
    <g id="ytick_1">
     <g id="line2d_8">
      <defs>
       <path id="mbcf16fad07" d="M 0 0 
L -10 0 
" style="stroke: #000000; stroke-width: 2.5"/>
      </defs>
      <g>
       <use xlink:href="#mbcf16fad07" x="75.81" y="233.179091" style="stroke: #000000; stroke-width: 2.5"/>
      </g>
     </g>
     <g id="text_9">
      <!-- 0.0 -->
      <g transform="translate(36.865 239.257841) scale(0.16 -0.16)">
       <use xlink:href="#DejaVuSans-30"/>
       <use xlink:href="#DejaVuSans-2e" x="63.623047"/>
       <use xlink:href="#DejaVuSans-30" x="95.410156"/>
      </g>
     </g>
    </g>
    <g id="ytick_2">
     <g id="line2d_9">
      <g>
       <use xlink:href="#mbcf16fad07" x="75.81" y="175.535665" style="stroke: #000000; stroke-width: 2.5"/>
      </g>
     </g>
     <g id="text_10">
      <!-- 0.2 -->
      <g transform="translate(36.865 181.614415) scale(0.16 -0.16)">
       <use xlink:href="#DejaVuSans-30"/>
       <use xlink:href="#DejaVuSans-2e" x="63.623047"/>
       <use xlink:href="#DejaVuSans-32" x="95.410156"/>
      </g>
     </g>
    </g>
    <g id="ytick_3">
     <g id="line2d_10">
      <g>
       <use xlink:href="#mbcf16fad07" x="75.81" y="117.892239" style="stroke: #000000; stroke-width: 2.5"/>
      </g>
     </g>
     <g id="text_11">
      <!-- 0.4 -->
      <g transform="translate(36.865 123.970989) scale(0.16 -0.16)">
       <defs>
        <path id="DejaVuSans-34" d="M 2419 4116 
L 825 1625 
L 2419 1625 
L 2419 4116 
z
M 2253 4666 
L 3047 4666 
L 3047 1625 
L 3713 1625 
L 3713 1100 
L 3047 1100 
L 3047 0 
L 2419 0 
L 2419 1100 
L 313 1100 
L 313 1709 
L 2253 4666 
z
" transform="scale(0.015625)"/>
       </defs>
       <use xlink:href="#DejaVuSans-30"/>
       <use xlink:href="#DejaVuSans-2e" x="63.623047"/>
       <use xlink:href="#DejaVuSans-34" x="95.410156"/>
      </g>
     </g>
    </g>
    <g id="text_12">
     <!-- $D_{nl}(r)$ -->
     <g transform="translate(29.5375 176.21) rotate(-90) scale(0.16 -0.16)">
      <defs>
       <path id="DejaVuSans-Oblique-44" d="M 1081 4666 
L 2438 4666 
Q 3519 4666 4070 4208 
Q 4622 3750 4622 2847 
Q 4622 2250 4412 1698 
Q 4203 1147 3834 769 
Q 3463 381 2891 190 
Q 2319 0 1538 0 
L 172 0 
L 1081 4666 
z
M 1613 4147 
L 909 519 
L 1734 519 
Q 2794 519 3375 1128 
Q 3956 1738 3956 2847 
Q 3956 3519 3581 3833 
Q 3206 4147 2406 4147 
L 1613 4147 
z
" transform="scale(0.015625)"/>
       <path id="DejaVuSans-Oblique-6e" d="M 3566 2113 
L 3156 0 
L 2578 0 
L 2988 2091 
Q 3016 2238 3031 2350 
Q 3047 2463 3047 2528 
Q 3047 2791 2881 2937 
Q 2716 3084 2419 3084 
Q 1956 3084 1622 2776 
Q 1288 2469 1184 1941 
L 800 0 
L 225 0 
L 903 3500 
L 1478 3500 
L 1363 2950 
Q 1603 3253 1940 3418 
Q 2278 3584 2650 3584 
Q 3113 3584 3367 3334 
Q 3622 3084 3622 2631 
Q 3622 2519 3608 2391 
Q 3594 2263 3566 2113 
z
" transform="scale(0.015625)"/>
       <path id="DejaVuSans-Oblique-6c" d="M 1172 4863 
L 1747 4863 
L 800 0 
L 225 0 
L 1172 4863 
z
" transform="scale(0.015625)"/>
       <path id="DejaVuSans-28" d="M 1984 4856 
Q 1566 4138 1362 3434 
Q 1159 2731 1159 2009 
Q 1159 1288 1364 580 
Q 1569 -128 1984 -844 
L 1484 -844 
Q 1016 -109 783 600 
Q 550 1309 550 2009 
Q 550 2706 781 3412 
Q 1013 4119 1484 4856 
L 1984 4856 
z
" transform="scale(0.015625)"/>
       <path id="DejaVuSans-29" d="M 513 4856 
L 1013 4856 
Q 1481 4119 1714 3412 
Q 1947 2706 1947 2009 
Q 1947 1309 1714 600 
Q 1481 -109 1013 -844 
L 513 -844 
Q 928 -128 1133 580 
Q 1338 1288 1338 2009 
Q 1338 2731 1133 3434 
Q 928 4138 513 4856 
z
" transform="scale(0.015625)"/>
      </defs>
      <use xlink:href="#DejaVuSans-Oblique-44" transform="translate(0 0.125)"/>
      <use xlink:href="#DejaVuSans-Oblique-6e" transform="translate(77.001953 -16.28125) scale(0.7)"/>
      <use xlink:href="#DejaVuSans-Oblique-6c" transform="translate(121.367188 -16.28125) scale(0.7)"/>
      <use xlink:href="#DejaVuSans-28" transform="translate(143.549805 0.125)"/>
      <use xlink:href="#DejaVuSans-Oblique-72" transform="translate(182.563477 0.125)"/>
      <use xlink:href="#DejaVuSans-29" transform="translate(223.676758 0.125)"/>
     </g>
    </g>
   </g>
   <g id="line2d_11">
    <path d="M 93.888252 233.179091 
L 94.250179 232.926865 
L 94.612106 232.200035 
L 94.974033 231.041384 
L 95.697887 227.587158 
L 96.421741 222.857794 
L 97.507522 213.929897 
L 98.95523 199.721003 
L 102.212572 164.262492 
L 104.384134 141.680817 
L 106.193769 124.944679 
L 107.641477 113.282395 
L 109.089185 103.290473 
L 110.536893 95.006891 
L 111.622674 89.90372 
L 112.708454 85.723773 
L 113.794235 82.430416 
L 114.880016 79.979191 
L 115.60387 78.788353 
L 116.327724 77.933824 
L 117.051578 77.399276 
L 117.775432 77.168043 
L 118.499286 77.223282 
L 119.22314 77.548109 
L 119.946994 78.125718 
L 120.670848 78.939483 
L 121.756629 80.567228 
L 122.84241 82.635875 
L 124.290117 85.991132 
L 125.737825 89.923511 
L 127.54746 95.48899 
L 129.719022 102.875629 
L 132.976365 114.832381 
L 141.662612 147.188386 
L 144.919955 158.299238 
L 147.81537 167.418715 
L 150.710786 175.760036 
L 153.244275 182.403931 
L 155.777764 188.44252 
L 158.311252 193.894943 
L 160.844741 198.789449 
L 163.37823 203.160277 
L 165.911719 207.045199 
L 168.445208 210.483618 
L 170.978696 213.515136 
L 173.512185 216.178505 
L 176.045674 218.510881 
L 178.579163 220.547328 
L 181.112651 222.320507 
L 184.008067 224.063123 
L 186.903483 225.54187 
L 190.160826 226.935197 
L 193.418168 228.086008 
L 197.037438 229.127867 
L 201.018635 230.038442 
L 205.361758 230.807527 
L 210.428736 231.476702 
L 216.581494 232.0466 
L 223.820034 232.482486 
L 233.230135 232.812121 
L 246.259506 233.030235 
L 268.337051 233.147849 
L 332.398124 233.178804 
L 455.453293 233.179091 
L 455.453293 233.179091 
" clip-path="url(#p83fabc5fb2)" style="fill: none; stroke: #1f77b4; stroke-width: 2; stroke-linecap: square"/>
   </g>
   <g id="patch_3">
    <path d="M 75.81 240.98 
L 75.81 69.36 
" style="fill: none; stroke: #000000; stroke-width: 2.5; stroke-linejoin: miter; stroke-linecap: square"/>
   </g>
   <g id="patch_4">
    <path d="M 473.531545 240.98 
L 473.531545 69.36 
" style="fill: none; stroke: #000000; stroke-width: 2.5; stroke-linejoin: miter; stroke-linecap: square"/>
   </g>
   <g id="patch_5">
    <path d="M 75.81 240.98 
L 473.531545 240.98 
" style="fill: none; stroke: #000000; stroke-width: 2.5; stroke-linejoin: miter; stroke-linecap: square"/>
   </g>
   <g id="patch_6">
    <path d="M 75.81 69.36 
L 473.531545 69.36 
" style="fill: none; stroke: #000000; stroke-width: 2.5; stroke-linejoin: miter; stroke-linecap: square"/>
   </g>
   <g id="text_13">
    <!-- $n=1$ -->
    <g transform="translate(250.670773 63.36) scale(0.192 -0.192)">
     <defs>
      <path id="DejaVuSans-3d" d="M 678 2906 
L 4684 2906 
L 4684 2381 
L 678 2381 
L 678 2906 
z
M 678 1631 
L 4684 1631 
L 4684 1100 
L 678 1100 
L 678 1631 
z
" transform="scale(0.015625)"/>
     </defs>
     <use xlink:href="#DejaVuSans-Oblique-6e" transform="translate(0 0.09375)"/>
     <use xlink:href="#DejaVuSans-3d" transform="translate(82.861328 0.09375)"/>
     <use xlink:href="#DejaVuSans-31" transform="translate(186.132812 0.09375)"/>
    </g>
   </g>
  </g>
  <g id="axes_2">
   <g id="patch_7">
    <path d="M 75.81 502.34 
L 473.531545 502.34 
L 473.531545 330.72 
L 75.81 330.72 
z
" style="fill: #ffffff"/>
   </g>
   <g id="matplotlib.axis_3">
    <g id="xtick_8">
     <g id="line2d_12">
      <g>
       <use xlink:href="#mf8e97e91d4" x="93.888252" y="502.34" style="stroke: #000000; stroke-width: 2.5"/>
      </g>
     </g>
     <g id="text_14">
      <!-- 0.0 -->
      <g transform="translate(81.165752 527.9975) scale(0.16 -0.16)">
       <use xlink:href="#DejaVuSans-30"/>
       <use xlink:href="#DejaVuSans-2e" x="63.623047"/>
       <use xlink:href="#DejaVuSans-30" x="95.410156"/>
      </g>
     </g>
    </g>
    <g id="xtick_9">
     <g id="line2d_13">
      <g>
       <use xlink:href="#mf8e97e91d4" x="154.149092" y="502.34" style="stroke: #000000; stroke-width: 2.5"/>
      </g>
     </g>
     <g id="text_15">
      <!-- 2.5 -->
      <g transform="translate(141.426592 527.9975) scale(0.16 -0.16)">
       <use xlink:href="#DejaVuSans-32"/>
       <use xlink:href="#DejaVuSans-2e" x="63.623047"/>
       <use xlink:href="#DejaVuSans-35" x="95.410156"/>
      </g>
     </g>
    </g>
    <g id="xtick_10">
     <g id="line2d_14">
      <g>
       <use xlink:href="#mf8e97e91d4" x="214.409933" y="502.34" style="stroke: #000000; stroke-width: 2.5"/>
      </g>
     </g>
     <g id="text_16">
      <!-- 5.0 -->
      <g transform="translate(201.687433 527.9975) scale(0.16 -0.16)">
       <use xlink:href="#DejaVuSans-35"/>
       <use xlink:href="#DejaVuSans-2e" x="63.623047"/>
       <use xlink:href="#DejaVuSans-30" x="95.410156"/>
      </g>
     </g>
    </g>
    <g id="xtick_11">
     <g id="line2d_15">
      <g>
       <use xlink:href="#mf8e97e91d4" x="274.670773" y="502.34" style="stroke: #000000; stroke-width: 2.5"/>
      </g>
     </g>
     <g id="text_17">
      <!-- 7.5 -->
      <g transform="translate(261.948273 527.9975) scale(0.16 -0.16)">
       <use xlink:href="#DejaVuSans-37"/>
       <use xlink:href="#DejaVuSans-2e" x="63.623047"/>
       <use xlink:href="#DejaVuSans-35" x="95.410156"/>
      </g>
     </g>
    </g>
    <g id="xtick_12">
     <g id="line2d_16">
      <g>
       <use xlink:href="#mf8e97e91d4" x="334.931613" y="502.34" style="stroke: #000000; stroke-width: 2.5"/>
      </g>
     </g>
     <g id="text_18">
      <!-- 10.0 -->
      <g transform="translate(317.119113 527.9975) scale(0.16 -0.16)">
       <use xlink:href="#DejaVuSans-31"/>
       <use xlink:href="#DejaVuSans-30" x="63.623047"/>
       <use xlink:href="#DejaVuSans-2e" x="127.246094"/>
       <use xlink:href="#DejaVuSans-30" x="159.033203"/>
      </g>
     </g>
    </g>
    <g id="xtick_13">
     <g id="line2d_17">
      <g>
       <use xlink:href="#mf8e97e91d4" x="395.192453" y="502.34" style="stroke: #000000; stroke-width: 2.5"/>
      </g>
     </g>
     <g id="text_19">
      <!-- 12.5 -->
      <g transform="translate(377.379953 527.9975) scale(0.16 -0.16)">
       <use xlink:href="#DejaVuSans-31"/>
       <use xlink:href="#DejaVuSans-32" x="63.623047"/>
       <use xlink:href="#DejaVuSans-2e" x="127.246094"/>
       <use xlink:href="#DejaVuSans-35" x="159.033203"/>
      </g>
     </g>
    </g>
    <g id="xtick_14">
     <g id="line2d_18">
      <g>
       <use xlink:href="#mf8e97e91d4" x="455.453293" y="502.34" style="stroke: #000000; stroke-width: 2.5"/>
      </g>
     </g>
     <g id="text_20">
      <!-- 15.0 -->
      <g transform="translate(437.640793 527.9975) scale(0.16 -0.16)">
       <use xlink:href="#DejaVuSans-31"/>
       <use xlink:href="#DejaVuSans-35" x="63.623047"/>
       <use xlink:href="#DejaVuSans-2e" x="127.246094"/>
       <use xlink:href="#DejaVuSans-30" x="159.033203"/>
      </g>
     </g>
    </g>
    <g id="text_21">
     <!-- $r$ [a.u.] -->
     <g transform="translate(247.470773 547.4825) scale(0.16 -0.16)">
      <use xlink:href="#DejaVuSans-Oblique-72" transform="translate(0 0.015625)"/>
      <use xlink:href="#DejaVuSans-20" transform="translate(41.113281 0.015625)"/>
      <use xlink:href="#DejaVuSans-5b" transform="translate(72.900391 0.015625)"/>
      <use xlink:href="#DejaVuSans-61" transform="translate(111.914062 0.015625)"/>
      <use xlink:href="#DejaVuSans-2e" transform="translate(173.193359 0.015625)"/>
      <use xlink:href="#DejaVuSans-75" transform="translate(204.980469 0.015625)"/>
      <use xlink:href="#DejaVuSans-2e" transform="translate(268.359375 0.015625)"/>
      <use xlink:href="#DejaVuSans-5d" transform="translate(300.146484 0.015625)"/>
     </g>
    </g>
   </g>
   <g id="matplotlib.axis_4">
    <g id="ytick_4">
     <g id="line2d_19">
      <g>
       <use xlink:href="#mbcf16fad07" x="75.81" y="494.539091" style="stroke: #000000; stroke-width: 2.5"/>
      </g>
     </g>
     <g id="text_22">
      <!-- 0.00 -->
      <g transform="translate(26.685 500.617841) scale(0.16 -0.16)">
       <use xlink:href="#DejaVuSans-30"/>
       <use xlink:href="#DejaVuSans-2e" x="63.623047"/>
       <use xlink:href="#DejaVuSans-30" x="95.410156"/>
       <use xlink:href="#DejaVuSans-30" x="159.033203"/>
      </g>
     </g>
    </g>
    <g id="ytick_5">
     <g id="line2d_20">
      <g>
       <use xlink:href="#mbcf16fad07" x="75.81" y="454.60936" style="stroke: #000000; stroke-width: 2.5"/>
      </g>
     </g>
     <g id="text_23">
      <!-- 0.05 -->
      <g transform="translate(26.685 460.68811) scale(0.16 -0.16)">
       <use xlink:href="#DejaVuSans-30"/>
       <use xlink:href="#DejaVuSans-2e" x="63.623047"/>
       <use xlink:href="#DejaVuSans-30" x="95.410156"/>
       <use xlink:href="#DejaVuSans-35" x="159.033203"/>
      </g>
     </g>
    </g>
    <g id="ytick_6">
     <g id="line2d_21">
      <g>
       <use xlink:href="#mbcf16fad07" x="75.81" y="414.67963" style="stroke: #000000; stroke-width: 2.5"/>
      </g>
     </g>
     <g id="text_24">
      <!-- 0.10 -->
      <g transform="translate(26.685 420.75838) scale(0.16 -0.16)">
       <use xlink:href="#DejaVuSans-30"/>
       <use xlink:href="#DejaVuSans-2e" x="63.623047"/>
       <use xlink:href="#DejaVuSans-31" x="95.410156"/>
       <use xlink:href="#DejaVuSans-30" x="159.033203"/>
      </g>
     </g>
    </g>
    <g id="ytick_7">
     <g id="line2d_22">
      <g>
       <use xlink:href="#mbcf16fad07" x="75.81" y="374.749899" style="stroke: #000000; stroke-width: 2.5"/>
      </g>
     </g>
     <g id="text_25">
      <!-- 0.15 -->
      <g transform="translate(26.685 380.828649) scale(0.16 -0.16)">
       <use xlink:href="#DejaVuSans-30"/>
       <use xlink:href="#DejaVuSans-2e" x="63.623047"/>
       <use xlink:href="#DejaVuSans-31" x="95.410156"/>
       <use xlink:href="#DejaVuSans-35" x="159.033203"/>
      </g>
     </g>
    </g>
    <g id="ytick_8">
     <g id="line2d_23">
      <g>
       <use xlink:href="#mbcf16fad07" x="75.81" y="334.820168" style="stroke: #000000; stroke-width: 2.5"/>
      </g>
     </g>
     <g id="text_26">
      <!-- 0.20 -->
      <g transform="translate(26.685 340.898918) scale(0.16 -0.16)">
       <use xlink:href="#DejaVuSans-30"/>
       <use xlink:href="#DejaVuSans-2e" x="63.623047"/>
       <use xlink:href="#DejaVuSans-32" x="95.410156"/>
       <use xlink:href="#DejaVuSans-30" x="159.033203"/>
      </g>
     </g>
    </g>
    <g id="text_27">
     <!-- $D_{nl}(r)$ -->
     <g transform="translate(19.3575 437.57) rotate(-90) scale(0.16 -0.16)">
      <use xlink:href="#DejaVuSans-Oblique-44" transform="translate(0 0.125)"/>
      <use xlink:href="#DejaVuSans-Oblique-6e" transform="translate(77.001953 -16.28125) scale(0.7)"/>
      <use xlink:href="#DejaVuSans-Oblique-6c" transform="translate(121.367188 -16.28125) scale(0.7)"/>
      <use xlink:href="#DejaVuSans-28" transform="translate(143.549805 0.125)"/>
      <use xlink:href="#DejaVuSans-Oblique-72" transform="translate(182.563477 0.125)"/>
      <use xlink:href="#DejaVuSans-29" transform="translate(223.676758 0.125)"/>
     </g>
    </g>
   </g>
   <g id="line2d_24">
    <path d="M 93.888252 494.539091 
L 94.250179 494.451737 
L 94.612106 494.200071 
L 95.33596 493.262944 
L 96.059814 491.838302 
L 97.145595 489.000756 
L 98.593303 484.347009 
L 104.384134 464.56378 
L 105.831842 460.739469 
L 106.917623 458.354536 
L 108.003404 456.410224 
L 109.089185 454.916002 
L 110.174966 453.870469 
L 110.89882 453.417905 
L 111.622674 453.155341 
L 112.346527 453.076579 
L 113.070381 453.174358 
L 113.794235 453.440516 
L 114.880016 454.135801 
L 115.965797 455.157223 
L 117.051578 456.470082 
L 118.499286 458.611451 
L 120.308921 461.793737 
L 122.480483 466.131257 
L 130.804803 483.42911 
L 132.614438 486.541315 
L 134.424073 489.216756 
L 135.87178 491.000067 
L 137.319488 492.43852 
L 138.767196 493.513056 
L 139.852977 494.071817 
L 140.938758 494.414409 
L 142.024539 494.538604 
L 143.11032 494.443617 
L 144.196101 494.130005 
L 145.281882 493.599566 
L 146.367662 492.855241 
L 147.81537 491.537121 
L 149.263078 489.857977 
L 150.710786 487.832445 
L 152.520421 484.839297 
L 154.330056 481.368382 
L 156.501618 476.629918 
L 158.673179 471.336923 
L 161.206668 464.565505 
L 164.102084 456.195915 
L 168.083281 443.921233 
L 182.560359 398.39438 
L 186.179629 388.15537 
L 189.075045 380.568286 
L 191.97046 373.590101 
L 194.503949 368.023113 
L 197.037438 362.984697 
L 199.209 359.099248 
L 201.380562 355.620128 
L 203.552123 352.549719 
L 205.723685 349.887145 
L 207.53332 347.977208 
L 209.342955 346.344285 
L 211.15259 344.983633 
L 212.962225 343.889489 
L 214.771859 343.055192 
L 216.581494 342.473284 
L 218.391129 342.135626 
L 220.200764 342.033492 
L 222.010399 342.157668 
L 223.820034 342.498537 
L 225.629669 343.046164 
L 227.80123 343.961898 
L 229.972792 345.142813 
L 232.144354 346.570829 
L 234.677843 348.524986 
L 237.211332 350.762212 
L 240.106747 353.629516 
L 243.36409 357.202098 
L 246.98336 361.536493 
L 250.964556 366.663565 
L 255.669607 373.088107 
L 262.184292 382.398744 
L 281.366422 410.084522 
L 287.51918 418.442538 
L 292.948085 425.450827 
L 298.015062 431.640641 
L 303.08204 437.467176 
L 307.78709 442.540502 
L 312.492141 447.284979 
L 317.197192 451.701733 
L 321.902242 455.79614 
L 326.607293 459.576964 
L 331.312343 463.055601 
L 336.017394 466.245407 
L 340.722444 469.161137 
L 345.427495 471.818453 
L 350.132546 474.233516 
L 355.199523 476.58216 
L 360.266501 478.689024 
L 365.695405 480.700541 
L 371.12431 482.480646 
L 376.915141 484.149439 
L 383.0679 485.690156 
L 389.582585 487.091166 
L 396.459198 488.345946 
L 404.059664 489.502992 
L 412.383984 490.536992 
L 421.432158 491.433122 
L 431.566113 492.210837 
L 443.147776 492.872893 
L 455.453293 493.377941 
L 455.453293 493.377941 
" clip-path="url(#p986134a10b)" style="fill: none; stroke: #1f77b4; stroke-width: 2; stroke-linecap: square"/>
   </g>
   <g id="line2d_25">
    <path d="M 93.888252 494.539091 
L 100.041011 494.429655 
L 102.574499 494.147745 
L 104.746061 493.665969 
L 106.555696 493.038516 
L 108.365331 492.164326 
L 110.174966 491.010299 
L 111.9846 489.549656 
L 113.794235 487.762405 
L 115.60387 485.635464 
L 117.413505 483.162539 
L 119.22314 480.343787 
L 121.394702 476.513841 
L 123.566263 472.215878 
L 126.099752 466.651259 
L 128.633241 460.553636 
L 131.528657 453.027058 
L 135.147926 442.962733 
L 140.214904 428.106986 
L 149.986932 399.303431 
L 153.968129 388.326786 
L 157.225472 379.933387 
L 160.120887 373.007022 
L 163.016303 366.644406 
L 165.549792 361.575351 
L 168.083281 356.99519 
L 170.616769 352.919684 
L 172.788331 349.835379 
L 174.959893 347.1314 
L 177.131455 344.807381 
L 178.94109 343.158848 
L 180.750724 341.76911 
L 182.560359 340.6341 
L 184.369994 339.748802 
L 186.179629 339.107351 
L 187.989264 338.703129 
L 189.798899 338.528853 
L 191.608534 338.576669 
L 193.418168 338.838236 
L 195.227803 339.304802 
L 197.399365 340.122473 
L 199.570927 341.206074 
L 201.742489 342.539051 
L 204.275977 344.386983 
L 206.809466 346.524719 
L 209.704882 349.288497 
L 212.600298 352.35668 
L 215.85764 356.124568 
L 219.47691 360.642175 
L 223.820034 366.430218 
L 229.248938 374.070522 
L 237.211332 385.71941 
L 249.878775 404.256721 
L 256.393461 413.386508 
L 262.184292 421.122573 
L 267.613197 427.991422 
L 272.680174 434.035304 
L 277.385225 439.314259 
L 282.090276 444.265056 
L 286.795326 448.886334 
L 291.500377 453.181375 
L 296.205427 457.157222 
L 300.910478 460.823894 
L 305.615529 464.193692 
L 310.320579 467.280592 
L 315.02563 470.09973 
L 319.73068 472.666957 
L 324.797658 475.168522 
L 329.864635 477.416995 
L 334.931613 479.432366 
L 340.360517 481.355073 
L 346.151349 483.161366 
L 352.304107 484.832623 
L 358.818793 486.355653 
L 365.695405 487.722717 
L 372.933945 488.931292 
L 380.896338 490.028775 
L 389.582585 490.99504 
L 399.354613 491.848075 
L 410.212422 492.566832 
L 422.879866 493.174693 
L 438.080799 493.669073 
L 455.453293 494.023788 
L 455.453293 494.023788 
" clip-path="url(#p986134a10b)" style="fill: none; stroke: #ff7f0e; stroke-width: 2; stroke-linecap: square"/>
   </g>
   <g id="patch_8">
    <path d="M 75.81 502.34 
L 75.81 330.72 
" style="fill: none; stroke: #000000; stroke-width: 2.5; stroke-linejoin: miter; stroke-linecap: square"/>
   </g>
   <g id="patch_9">
    <path d="M 473.531545 502.34 
L 473.531545 330.72 
" style="fill: none; stroke: #000000; stroke-width: 2.5; stroke-linejoin: miter; stroke-linecap: square"/>
   </g>
   <g id="patch_10">
    <path d="M 75.81 502.34 
L 473.531545 502.34 
" style="fill: none; stroke: #000000; stroke-width: 2.5; stroke-linejoin: miter; stroke-linecap: square"/>
   </g>
   <g id="patch_11">
    <path d="M 75.81 330.72 
L 473.531545 330.72 
" style="fill: none; stroke: #000000; stroke-width: 2.5; stroke-linejoin: miter; stroke-linecap: square"/>
   </g>
   <g id="text_28">
    <!-- $n=2$ -->
    <g transform="translate(250.670773 324.72) scale(0.192 -0.192)">
     <use xlink:href="#DejaVuSans-Oblique-6e" transform="translate(0 0.78125)"/>
     <use xlink:href="#DejaVuSans-3d" transform="translate(82.861328 0.78125)"/>
     <use xlink:href="#DejaVuSans-32" transform="translate(186.132812 0.78125)"/>
    </g>
   </g>
   <g id="legend_1">
    <g id="patch_12">
     <path d="M 376.731545 390.49 
L 462.331545 390.49 
Q 465.531545 390.49 465.531545 387.29 
L 465.531545 341.92 
Q 465.531545 338.72 462.331545 338.72 
L 376.731545 338.72 
Q 373.531545 338.72 373.531545 341.92 
L 373.531545 387.29 
Q 373.531545 390.49 376.731545 390.49 
z
" style="fill: #ffffff; opacity: 0.8; stroke: #cccccc; stroke-linejoin: miter"/>
    </g>
    <g id="line2d_26">
     <path d="M 379.931545 351.6775 
L 395.931545 351.6775 
L 411.931545 351.6775 
" style="fill: none; stroke: #1f77b4; stroke-width: 2; stroke-linecap: square"/>
    </g>
    <g id="text_29">
     <!-- $l=0$ -->
     <g transform="translate(424.731545 357.2775) scale(0.16 -0.16)">
      <use xlink:href="#DejaVuSans-Oblique-6c" transform="translate(0 0.015625)"/>
      <use xlink:href="#DejaVuSans-3d" transform="translate(47.265625 0.015625)"/>
      <use xlink:href="#DejaVuSans-30" transform="translate(150.537109 0.015625)"/>
     </g>
    </g>
    <g id="line2d_27">
     <path d="M 379.931545 375.1625 
L 395.931545 375.1625 
L 411.931545 375.1625 
" style="fill: none; stroke: #ff7f0e; stroke-width: 2; stroke-linecap: square"/>
    </g>
    <g id="text_30">
     <!-- $l=1$ -->
     <g transform="translate(424.731545 380.7625) scale(0.16 -0.16)">
      <use xlink:href="#DejaVuSans-Oblique-6c" transform="translate(0 0.015625)"/>
      <use xlink:href="#DejaVuSans-3d" transform="translate(47.265625 0.015625)"/>
      <use xlink:href="#DejaVuSans-31" transform="translate(150.537109 0.015625)"/>
     </g>
    </g>
   </g>
  </g>
  <g id="text_31">
   <!-- Radial probability density -->
   <g transform="translate(116.6645 21.789) scale(0.192 -0.192)">
    <defs>
     <path id="DejaVuSans-52" d="M 2841 2188 
Q 3044 2119 3236 1894 
Q 3428 1669 3622 1275 
L 4263 0 
L 3584 0 
L 2988 1197 
Q 2756 1666 2539 1819 
Q 2322 1972 1947 1972 
L 1259 1972 
L 1259 0 
L 628 0 
L 628 4666 
L 2053 4666 
Q 2853 4666 3247 4331 
Q 3641 3997 3641 3322 
Q 3641 2881 3436 2590 
Q 3231 2300 2841 2188 
z
M 1259 4147 
L 1259 2491 
L 2053 2491 
Q 2509 2491 2742 2702 
Q 2975 2913 2975 3322 
Q 2975 3731 2742 3939 
Q 2509 4147 2053 4147 
L 1259 4147 
z
" transform="scale(0.015625)"/>
     <path id="DejaVuSans-64" d="M 2906 2969 
L 2906 4863 
L 3481 4863 
L 3481 0 
L 2906 0 
L 2906 525 
Q 2725 213 2448 61 
Q 2172 -91 1784 -91 
Q 1150 -91 751 415 
Q 353 922 353 1747 
Q 353 2572 751 3078 
Q 1150 3584 1784 3584 
Q 2172 3584 2448 3432 
Q 2725 3281 2906 2969 
z
M 947 1747 
Q 947 1113 1208 752 
Q 1469 391 1925 391 
Q 2381 391 2643 752 
Q 2906 1113 2906 1747 
Q 2906 2381 2643 2742 
Q 2381 3103 1925 3103 
Q 1469 3103 1208 2742 
Q 947 2381 947 1747 
z
" transform="scale(0.015625)"/>
     <path id="DejaVuSans-69" d="M 603 3500 
L 1178 3500 
L 1178 0 
L 603 0 
L 603 3500 
z
M 603 4863 
L 1178 4863 
L 1178 4134 
L 603 4134 
L 603 4863 
z
" transform="scale(0.015625)"/>
     <path id="DejaVuSans-6c" d="M 603 4863 
L 1178 4863 
L 1178 0 
L 603 0 
L 603 4863 
z
" transform="scale(0.015625)"/>
     <path id="DejaVuSans-70" d="M 1159 525 
L 1159 -1331 
L 581 -1331 
L 581 3500 
L 1159 3500 
L 1159 2969 
Q 1341 3281 1617 3432 
Q 1894 3584 2278 3584 
Q 2916 3584 3314 3078 
Q 3713 2572 3713 1747 
Q 3713 922 3314 415 
Q 2916 -91 2278 -91 
Q 1894 -91 1617 61 
Q 1341 213 1159 525 
z
M 3116 1747 
Q 3116 2381 2855 2742 
Q 2594 3103 2138 3103 
Q 1681 3103 1420 2742 
Q 1159 2381 1159 1747 
Q 1159 1113 1420 752 
Q 1681 391 2138 391 
Q 2594 391 2855 752 
Q 3116 1113 3116 1747 
z
" transform="scale(0.015625)"/>
     <path id="DejaVuSans-72" d="M 2631 2963 
Q 2534 3019 2420 3045 
Q 2306 3072 2169 3072 
Q 1681 3072 1420 2755 
Q 1159 2438 1159 1844 
L 1159 0 
L 581 0 
L 581 3500 
L 1159 3500 
L 1159 2956 
Q 1341 3275 1631 3429 
Q 1922 3584 2338 3584 
Q 2397 3584 2469 3576 
Q 2541 3569 2628 3553 
L 2631 2963 
z
" transform="scale(0.015625)"/>
     <path id="DejaVuSans-6f" d="M 1959 3097 
Q 1497 3097 1228 2736 
Q 959 2375 959 1747 
Q 959 1119 1226 758 
Q 1494 397 1959 397 
Q 2419 397 2687 759 
Q 2956 1122 2956 1747 
Q 2956 2369 2687 2733 
Q 2419 3097 1959 3097 
z
M 1959 3584 
Q 2709 3584 3137 3096 
Q 3566 2609 3566 1747 
Q 3566 888 3137 398 
Q 2709 -91 1959 -91 
Q 1206 -91 779 398 
Q 353 888 353 1747 
Q 353 2609 779 3096 
Q 1206 3584 1959 3584 
z
" transform="scale(0.015625)"/>
     <path id="DejaVuSans-62" d="M 3116 1747 
Q 3116 2381 2855 2742 
Q 2594 3103 2138 3103 
Q 1681 3103 1420 2742 
Q 1159 2381 1159 1747 
Q 1159 1113 1420 752 
Q 1681 391 2138 391 
Q 2594 391 2855 752 
Q 3116 1113 3116 1747 
z
M 1159 2969 
Q 1341 3281 1617 3432 
Q 1894 3584 2278 3584 
Q 2916 3584 3314 3078 
Q 3713 2572 3713 1747 
Q 3713 922 3314 415 
Q 2916 -91 2278 -91 
Q 1894 -91 1617 61 
Q 1341 213 1159 525 
L 1159 0 
L 581 0 
L 581 4863 
L 1159 4863 
L 1159 2969 
z
" transform="scale(0.015625)"/>
     <path id="DejaVuSans-74" d="M 1172 4494 
L 1172 3500 
L 2356 3500 
L 2356 3053 
L 1172 3053 
L 1172 1153 
Q 1172 725 1289 603 
Q 1406 481 1766 481 
L 2356 481 
L 2356 0 
L 1766 0 
Q 1100 0 847 248 
Q 594 497 594 1153 
L 594 3053 
L 172 3053 
L 172 3500 
L 594 3500 
L 594 4494 
L 1172 4494 
z
" transform="scale(0.015625)"/>
     <path id="DejaVuSans-79" d="M 2059 -325 
Q 1816 -950 1584 -1140 
Q 1353 -1331 966 -1331 
L 506 -1331 
L 506 -850 
L 844 -850 
Q 1081 -850 1212 -737 
Q 1344 -625 1503 -206 
L 1606 56 
L 191 3500 
L 800 3500 
L 1894 763 
L 2988 3500 
L 3597 3500 
L 2059 -325 
z
" transform="scale(0.015625)"/>
     <path id="DejaVuSans-65" d="M 3597 1894 
L 3597 1613 
L 953 1613 
Q 991 1019 1311 708 
Q 1631 397 2203 397 
Q 2534 397 2845 478 
Q 3156 559 3463 722 
L 3463 178 
Q 3153 47 2828 -22 
Q 2503 -91 2169 -91 
Q 1331 -91 842 396 
Q 353 884 353 1716 
Q 353 2575 817 3079 
Q 1281 3584 2069 3584 
Q 2775 3584 3186 3129 
Q 3597 2675 3597 1894 
z
M 3022 2063 
Q 3016 2534 2758 2815 
Q 2500 3097 2075 3097 
Q 1594 3097 1305 2825 
Q 1016 2553 972 2059 
L 3022 2063 
z
" transform="scale(0.015625)"/>
     <path id="DejaVuSans-6e" d="M 3513 2113 
L 3513 0 
L 2938 0 
L 2938 2094 
Q 2938 2591 2744 2837 
Q 2550 3084 2163 3084 
Q 1697 3084 1428 2787 
Q 1159 2491 1159 1978 
L 1159 0 
L 581 0 
L 581 3500 
L 1159 3500 
L 1159 2956 
Q 1366 3272 1645 3428 
Q 1925 3584 2291 3584 
Q 2894 3584 3203 3211 
Q 3513 2838 3513 2113 
z
" transform="scale(0.015625)"/>
     <path id="DejaVuSans-73" d="M 2834 3397 
L 2834 2853 
Q 2591 2978 2328 3040 
Q 2066 3103 1784 3103 
Q 1356 3103 1142 2972 
Q 928 2841 928 2578 
Q 928 2378 1081 2264 
Q 1234 2150 1697 2047 
L 1894 2003 
Q 2506 1872 2764 1633 
Q 3022 1394 3022 966 
Q 3022 478 2636 193 
Q 2250 -91 1575 -91 
Q 1294 -91 989 -36 
Q 684 19 347 128 
L 347 722 
Q 666 556 975 473 
Q 1284 391 1588 391 
Q 1994 391 2212 530 
Q 2431 669 2431 922 
Q 2431 1156 2273 1281 
Q 2116 1406 1581 1522 
L 1381 1569 
Q 847 1681 609 1914 
Q 372 2147 372 2553 
Q 372 3047 722 3315 
Q 1072 3584 1716 3584 
Q 2034 3584 2315 3537 
Q 2597 3491 2834 3397 
z
" transform="scale(0.015625)"/>
    </defs>
    <use xlink:href="#DejaVuSans-52"/>
    <use xlink:href="#DejaVuSans-61" x="67.232422"/>
    <use xlink:href="#DejaVuSans-64" x="128.511719"/>
    <use xlink:href="#DejaVuSans-69" x="191.988281"/>
    <use xlink:href="#DejaVuSans-61" x="219.771484"/>
    <use xlink:href="#DejaVuSans-6c" x="281.050781"/>
    <use xlink:href="#DejaVuSans-20" x="308.833984"/>
    <use xlink:href="#DejaVuSans-70" x="340.621094"/>
    <use xlink:href="#DejaVuSans-72" x="404.097656"/>
    <use xlink:href="#DejaVuSans-6f" x="442.960938"/>
    <use xlink:href="#DejaVuSans-62" x="504.142578"/>
    <use xlink:href="#DejaVuSans-61" x="567.619141"/>
    <use xlink:href="#DejaVuSans-62" x="628.898438"/>
    <use xlink:href="#DejaVuSans-69" x="692.375"/>
    <use xlink:href="#DejaVuSans-6c" x="720.158203"/>
    <use xlink:href="#DejaVuSans-69" x="747.941406"/>
    <use xlink:href="#DejaVuSans-74" x="775.724609"/>
    <use xlink:href="#DejaVuSans-79" x="814.933594"/>
    <use xlink:href="#DejaVuSans-20" x="874.113281"/>
    <use xlink:href="#DejaVuSans-64" x="905.900391"/>
    <use xlink:href="#DejaVuSans-65" x="969.376953"/>
    <use xlink:href="#DejaVuSans-6e" x="1030.900391"/>
    <use xlink:href="#DejaVuSans-73" x="1094.279297"/>
    <use xlink:href="#DejaVuSans-69" x="1146.378906"/>
    <use xlink:href="#DejaVuSans-74" x="1174.162109"/>
    <use xlink:href="#DejaVuSans-79" x="1213.371094"/>
   </g>
  </g>
 </g>
 <defs>
  <clipPath id="p83fabc5fb2">
   <rect x="75.81" y="69.36" width="397.721545" height="171.62"/>
  </clipPath>
  <clipPath id="p986134a10b">
   <rect x="75.81" y="330.72" width="397.721545" height="171.62"/>
  </clipPath>
 </defs>
</svg>
