<?xml version="1.0" encoding="utf-8" standalone="no"?>
<!DOCTYPE svg PUBLIC "-//W3C//DTD SVG 1.1//EN"
  "http://www.w3.org/Graphics/SVG/1.1/DTD/svg11.dtd">
<svg xmlns:xlink="http://www.w3.org/1999/xlink" width="591.885pt" height="497.994pt" viewBox="0 0 591.885 497.994" xmlns="http://www.w3.org/2000/svg" version="1.1">
 <metadata>
  <rdf:RDF xmlns:dc="http://purl.org/dc/elements/1.1/" xmlns:cc="http://creativecommons.org/ns#" xmlns:rdf="http://www.w3.org/1999/02/22-rdf-syntax-ns#">
   <cc:Work>
    <dc:type rdf:resource="http://purl.org/dc/dcmitype/StillImage"/>
    <dc:date>2024-08-06T09:27:29.875285</dc:date>
    <dc:format>image/svg+xml</dc:format>
    <dc:creator>
     <cc:Agent>
      <dc:title>Matplotlib v3.7.1, https://matplotlib.org/</dc:title>
     </cc:Agent>
    </dc:creator>
   </cc:Work>
  </rdf:RDF>
 </metadata>
 <defs>
  <style type="text/css">*{stroke-linejoin: round; stroke-linecap: butt}</style>
 </defs>
 <g id="figure_1">
  <g id="patch_1">
   <path d="M 0 497.994 
L 591.885 497.994 
L 591.885 0 
L 0 0 
z
" style="fill: #ffffff"/>
  </g>
  <g id="axes_1">
   <g id="patch_2">
    <path d="M 26.685 471.309 
L 584.685 471.309 
L 584.685 27.789 
L 26.685 27.789 
z
" style="fill: #ffffff"/>
   </g>
   <g id="matplotlib.axis_1">
    <g id="xtick_1">
     <g id="line2d_1"/>
    </g>
    <g id="xtick_2">
     <g id="line2d_2"/>
    </g>
    <g id="xtick_3">
     <g id="line2d_3"/>
    </g>
    <g id="xtick_4">
     <g id="line2d_4"/>
    </g>
    <g id="xtick_5">
     <g id="line2d_5"/>
    </g>
    <g id="xtick_6">
     <g id="line2d_6"/>
    </g>
    <g id="text_1">
     <!-- $\omega$ -->
     <g transform="translate(298.965 487.4665) scale(0.16 -0.16)">
      <defs>
       <path id="DejaVuSans-Oblique-3c9" d="M 1369 -91 
Q 72 -91 434 1766 
Q 575 2500 1256 3500 
L 1875 3500 
Q 1231 2500 1088 1750 
Q 819 397 1519 397 
Q 2166 397 2478 2078 
L 3009 2078 
Q 2669 388 3316 397 
Q 4013 403 4275 1750 
Q 4419 2500 4169 3500 
L 4788 3500 
Q 5075 2500 4934 1766 
Q 4578 -94 3278 -91 
Q 2428 -88 2503 844 
Q 2194 -91 1369 -91 
z
" transform="scale(0.015625)"/>
      </defs>
      <use xlink:href="#DejaVuSans-Oblique-3c9" transform="translate(0 0.3125)"/>
     </g>
    </g>
   </g>
   <g id="matplotlib.axis_2">
    <g id="ytick_1">
     <g id="line2d_7"/>
    </g>
    <g id="ytick_2">
     <g id="line2d_8"/>
    </g>
    <g id="ytick_3">
     <g id="line2d_9"/>
    </g>
    <g id="ytick_4">
     <g id="line2d_10"/>
    </g>
    <g id="ytick_5">
     <g id="line2d_11"/>
    </g>
    <g id="ytick_6">
     <g id="line2d_12"/>
    </g>
    <g id="ytick_7">
     <g id="line2d_13"/>
    </g>
    <g id="ytick_8">
     <g id="line2d_14"/>
    </g>
    <g id="ytick_9">
     <g id="line2d_15"/>
    </g>
    <g id="text_2">
     <!-- $\mathscr{P}(\omega)$ -->
     <g transform="translate(19.3575 269.789) rotate(-90) scale(0.16 -0.16)">
      <defs>
       <path id="STIXGeneral-Italic-1d4ab" d="M 5478 4282 
L 5523 4160 
Q 5306 4070 5101 3917 
Q 5670 3488 5670 2861 
Q 5670 2426 5392 2083 
Q 5114 1741 4717 1741 
Q 4493 1741 4374 1862 
Q 4256 1984 4256 2163 
Q 4256 2304 4358 2441 
Q 4461 2579 4627 2669 
L 4691 2554 
Q 4461 2419 4461 2208 
Q 4461 2125 4518 2073 
Q 4576 2022 4678 2022 
Q 4941 2022 5110 2297 
Q 5280 2573 5280 2976 
Q 5280 3456 4928 3763 
Q 4774 3616 4636 3398 
Q 4499 3181 4409 3001 
Q 4320 2822 4163 2483 
Q 4006 2144 3904 1933 
Q 3366 851 2745 377 
Q 2125 -96 1350 -96 
Q 858 -96 550 134 
Q 243 365 243 691 
Q 243 890 352 1018 
Q 461 1146 621 1146 
Q 762 1146 854 1059 
Q 947 973 947 838 
Q 947 710 873 620 
Q 800 531 672 531 
Q 525 531 480 608 
L 467 608 
Q 467 429 691 265 
Q 915 102 1235 102 
Q 1837 102 2233 438 
Q 2630 774 3168 1734 
Q 3443 2227 3577 2457 
Q 3712 2688 3923 3008 
Q 4134 3328 4329 3529 
Q 4525 3731 4749 3898 
Q 4262 4205 3520 4205 
Q 2566 4205 1920 3725 
Q 1274 3245 1274 2611 
Q 1274 2349 1466 2173 
Q 1658 1997 1933 1997 
Q 2944 1997 3245 3590 
L 3373 3590 
Q 3322 2867 2944 2336 
Q 2566 1805 1920 1805 
Q 1517 1805 1264 2032 
Q 1011 2259 1011 2637 
Q 1011 3322 1721 3859 
Q 2432 4397 3526 4397 
Q 4326 4397 4941 4019 
Q 5171 4166 5478 4282 
z
" transform="scale(0.015625)"/>
       <path id="DejaVuSans-28" d="M 1984 4856 
Q 1566 4138 1362 3434 
Q 1159 2731 1159 2009 
Q 1159 1288 1364 580 
Q 1569 -128 1984 -844 
L 1484 -844 
Q 1016 -109 783 600 
Q 550 1309 550 2009 
Q 550 2706 781 3412 
Q 1013 4119 1484 4856 
L 1984 4856 
z
" transform="scale(0.015625)"/>
       <path id="DejaVuSans-29" d="M 513 4856 
L 1013 4856 
Q 1481 4119 1714 3412 
Q 1947 2706 1947 2009 
Q 1947 1309 1714 600 
Q 1481 -109 1013 -844 
L 513 -844 
Q 928 -128 1133 580 
Q 1338 1288 1338 2009 
Q 1338 2731 1133 3434 
Q 928 4138 513 4856 
z
" transform="scale(0.015625)"/>
      </defs>
      <use xlink:href="#STIXGeneral-Italic-1d4ab" transform="translate(0 0.125)"/>
      <use xlink:href="#DejaVuSans-28" transform="translate(90.999985 0.125)"/>
      <use xlink:href="#DejaVuSans-Oblique-3c9" transform="translate(130.013657 0.125)"/>
      <use xlink:href="#DejaVuSans-29" transform="translate(213.753891 0.125)"/>
     </g>
    </g>
   </g>
   <g id="line2d_16">
    <path d="M 52.048636 444.975681 
L 55.6031 444.619355 
L 59.157563 444.504601 
L 62.204247 444.61246 
L 65.75871 444.978504 
L 69.313174 445.583579 
L 73.375418 446.514439 
L 79.468784 448.186149 
L 85.56215 449.811393 
L 89.116613 450.549685 
L 92.163296 450.972174 
L 95.20998 451.146776 
L 97.748882 451.073027 
L 100.287785 450.781395 
L 102.826687 450.261939 
L 105.36559 449.512698 
L 107.904492 448.540271 
L 110.951175 447.101158 
L 113.997858 445.406915 
L 118.060102 442.858644 
L 128.215713 436.289335 
L 131.262396 434.664678 
L 133.801298 433.563377 
L 135.83242 432.884617 
L 137.863542 432.410359 
L 139.894664 432.159351 
L 141.925786 432.145765 
L 143.956908 432.378517 
L 145.98803 432.860657 
L 148.019152 433.588837 
L 150.050274 434.552877 
L 152.081396 435.735435 
L 154.620299 437.48257 
L 157.666982 439.885903 
L 167.822592 448.238751 
L 169.853714 449.500414 
L 171.377056 450.24953 
L 172.900397 450.792685 
L 174.423739 451.096114 
L 175.94708 451.125926 
L 177.470422 450.84842 
L 178.485983 450.476254 
L 179.501544 449.943078 
L 181.024885 448.820829 
L 182.548227 447.284335 
L 184.071568 445.3044 
L 185.59491 442.853727 
L 187.118251 439.907242 
L 188.641593 436.442395 
L 190.164934 432.439452 
L 191.688276 427.881773 
L 193.211618 422.756067 
L 195.24274 415.021962 
L 197.273862 406.24879 
L 199.304984 396.436861 
L 201.336106 385.599801 
L 203.875008 370.654863 
L 206.413911 354.235894 
L 208.952813 336.460744 
L 211.999496 313.555011 
L 215.55396 285.069867 
L 220.631765 242.264855 
L 228.756253 173.480824 
L 232.310717 145.323887 
L 235.3574 123.009757 
L 237.896302 106.065235 
L 239.927424 93.776496 
L 241.958546 82.74549 
L 243.989668 73.081761 
L 245.51301 66.789956 
L 247.036351 61.357613 
L 248.559693 56.815653 
L 249.575254 54.295361 
L 250.590815 52.188849 
L 251.606376 50.501489 
L 252.621937 49.23759 
L 253.637498 48.400382 
L 254.653059 47.992006 
L 255.66862 48.013508 
L 256.684181 48.464832 
L 257.699742 49.344824 
L 258.715303 50.651232 
L 259.730864 52.380719 
L 260.746425 54.528868 
L 261.761986 57.090202 
L 263.285328 61.692384 
L 264.808669 67.18304 
L 266.332011 73.530926 
L 267.855352 80.700074 
L 269.886474 91.465998 
L 271.917596 103.51252 
L 274.456499 120.189653 
L 276.995401 138.427965 
L 280.042084 161.989628 
L 284.104328 195.430202 
L 297.814402 310.38636 
L 300.861085 333.500495 
L 303.907768 354.919585 
L 306.446671 371.281632 
L 308.985573 386.165635 
L 311.016695 396.951973 
L 313.047817 406.712175 
L 315.078939 415.433293 
L 317.110061 423.115667 
L 319.141183 429.772342 
L 320.664525 434.106338 
L 322.187867 437.891867 
L 323.711208 441.146837 
L 325.23455 443.892143 
L 326.757891 446.15138 
L 328.281233 447.95055 
L 329.804574 449.317746 
L 331.327916 450.282839 
L 332.851257 450.87715 
L 334.374599 451.133129 
L 335.89794 451.084023 
L 337.421282 450.763558 
L 338.944623 450.205625 
L 340.467965 449.44397 
L 342.499087 448.169004 
L 345.037989 446.265934 
L 348.592453 443.276745 
L 354.178038 438.56966 
L 357.224722 436.332566 
L 359.763624 434.772591 
L 361.794746 433.763226 
L 363.825868 432.986834 
L 365.85699 432.455006 
L 367.888112 432.172423 
L 369.919234 432.137275 
L 371.950356 432.341774 
L 373.981478 432.772745 
L 376.0126 433.4123 
L 378.551503 434.471401 
L 381.090405 435.772318 
L 384.137088 437.574639 
L 388.707113 440.560365 
L 395.30826 444.857573 
L 398.862723 446.888841 
L 401.909406 448.364879 
L 404.448309 449.371812 
L 406.987211 450.157436 
L 409.526114 450.713742 
L 412.065016 451.041356 
L 414.603919 451.148992 
L 417.142821 451.05266 
L 420.189505 450.699602 
L 423.743968 450.021952 
L 427.806212 449.00636 
L 439.992944 445.773293 
L 443.547408 445.11254 
L 447.101871 444.682282 
L 450.148554 444.516721 
L 453.703018 444.565744 
L 457.257482 444.862642 
L 460.811945 445.37678 
L 465.38197 446.283445 
L 472.490897 447.975056 
L 479.599824 449.586971 
L 484.169848 450.387921 
L 488.232093 450.872621 
L 492.294337 451.117422 
L 496.356581 451.12243 
L 500.418825 450.910481 
L 505.49663 450.405743 
L 513.621118 449.313954 
L 521.237826 448.365046 
L 526.315631 447.951632 
L 530.885655 447.792175 
L 535.45568 447.849195 
L 540.533485 448.148533 
L 546.626851 448.758997 
L 559.321364 450.294278 
L 559.321364 450.294278 
" clip-path="url(#pa1fad81508)" style="fill: none; stroke: #1f77b4; stroke-width: 1.5; stroke-linecap: square"/>
   </g>
   <g id="patch_3">
    <path d="M 26.685 471.309 
L 26.685 27.789 
" style="fill: none; stroke: #000000; stroke-width: 2.5; stroke-linejoin: miter; stroke-linecap: square"/>
   </g>
   <g id="patch_4">
    <path d="M 584.685 471.309 
L 584.685 27.789 
" style="fill: none; stroke: #000000; stroke-width: 2.5; stroke-linejoin: miter; stroke-linecap: square"/>
   </g>
   <g id="patch_5">
    <path d="M 26.685 471.309 
L 584.685 471.309 
" style="fill: none; stroke: #000000; stroke-width: 2.5; stroke-linejoin: miter; stroke-linecap: square"/>
   </g>
   <g id="patch_6">
    <path d="M 26.685 27.789 
L 584.685 27.789 
" style="fill: none; stroke: #000000; stroke-width: 2.5; stroke-linejoin: miter; stroke-linecap: square"/>
   </g>
   <g id="text_3">
    <!-- Excitation probability -->
    <g transform="translate(203.856 21.789) scale(0.192 -0.192)">
     <defs>
      <path id="DejaVuSans-45" d="M 628 4666 
L 3578 4666 
L 3578 4134 
L 1259 4134 
L 1259 2753 
L 3481 2753 
L 3481 2222 
L 1259 2222 
L 1259 531 
L 3634 531 
L 3634 0 
L 628 0 
L 628 4666 
z
" transform="scale(0.015625)"/>
      <path id="DejaVuSans-78" d="M 3513 3500 
L 2247 1797 
L 3578 0 
L 2900 0 
L 1881 1375 
L 863 0 
L 184 0 
L 1544 1831 
L 300 3500 
L 978 3500 
L 1906 2253 
L 2834 3500 
L 3513 3500 
z
" transform="scale(0.015625)"/>
      <path id="DejaVuSans-63" d="M 3122 3366 
L 3122 2828 
Q 2878 2963 2633 3030 
Q 2388 3097 2138 3097 
Q 1578 3097 1268 2742 
Q 959 2388 959 1747 
Q 959 1106 1268 751 
Q 1578 397 2138 397 
Q 2388 397 2633 464 
Q 2878 531 3122 666 
L 3122 134 
Q 2881 22 2623 -34 
Q 2366 -91 2075 -91 
Q 1284 -91 818 406 
Q 353 903 353 1747 
Q 353 2603 823 3093 
Q 1294 3584 2113 3584 
Q 2378 3584 2631 3529 
Q 2884 3475 3122 3366 
z
" transform="scale(0.015625)"/>
      <path id="DejaVuSans-69" d="M 603 3500 
L 1178 3500 
L 1178 0 
L 603 0 
L 603 3500 
z
M 603 4863 
L 1178 4863 
L 1178 4134 
L 603 4134 
L 603 4863 
z
" transform="scale(0.015625)"/>
      <path id="DejaVuSans-74" d="M 1172 4494 
L 1172 3500 
L 2356 3500 
L 2356 3053 
L 1172 3053 
L 1172 1153 
Q 1172 725 1289 603 
Q 1406 481 1766 481 
L 2356 481 
L 2356 0 
L 1766 0 
Q 1100 0 847 248 
Q 594 497 594 1153 
L 594 3053 
L 172 3053 
L 172 3500 
L 594 3500 
L 594 4494 
L 1172 4494 
z
" transform="scale(0.015625)"/>
      <path id="DejaVuSans-61" d="M 2194 1759 
Q 1497 1759 1228 1600 
Q 959 1441 959 1056 
Q 959 750 1161 570 
Q 1363 391 1709 391 
Q 2188 391 2477 730 
Q 2766 1069 2766 1631 
L 2766 1759 
L 2194 1759 
z
M 3341 1997 
L 3341 0 
L 2766 0 
L 2766 531 
Q 2569 213 2275 61 
Q 1981 -91 1556 -91 
Q 1019 -91 701 211 
Q 384 513 384 1019 
Q 384 1609 779 1909 
Q 1175 2209 1959 2209 
L 2766 2209 
L 2766 2266 
Q 2766 2663 2505 2880 
Q 2244 3097 1772 3097 
Q 1472 3097 1187 3025 
Q 903 2953 641 2809 
L 641 3341 
Q 956 3463 1253 3523 
Q 1550 3584 1831 3584 
Q 2591 3584 2966 3190 
Q 3341 2797 3341 1997 
z
" transform="scale(0.015625)"/>
      <path id="DejaVuSans-6f" d="M 1959 3097 
Q 1497 3097 1228 2736 
Q 959 2375 959 1747 
Q 959 1119 1226 758 
Q 1494 397 1959 397 
Q 2419 397 2687 759 
Q 2956 1122 2956 1747 
Q 2956 2369 2687 2733 
Q 2419 3097 1959 3097 
z
M 1959 3584 
Q 2709 3584 3137 3096 
Q 3566 2609 3566 1747 
Q 3566 888 3137 398 
Q 2709 -91 1959 -91 
Q 1206 -91 779 398 
Q 353 888 353 1747 
Q 353 2609 779 3096 
Q 1206 3584 1959 3584 
z
" transform="scale(0.015625)"/>
      <path id="DejaVuSans-6e" d="M 3513 2113 
L 3513 0 
L 2938 0 
L 2938 2094 
Q 2938 2591 2744 2837 
Q 2550 3084 2163 3084 
Q 1697 3084 1428 2787 
Q 1159 2491 1159 1978 
L 1159 0 
L 581 0 
L 581 3500 
L 1159 3500 
L 1159 2956 
Q 1366 3272 1645 3428 
Q 1925 3584 2291 3584 
Q 2894 3584 3203 3211 
Q 3513 2838 3513 2113 
z
" transform="scale(0.015625)"/>
      <path id="DejaVuSans-20" transform="scale(0.015625)"/>
      <path id="DejaVuSans-70" d="M 1159 525 
L 1159 -1331 
L 581 -1331 
L 581 3500 
L 1159 3500 
L 1159 2969 
Q 1341 3281 1617 3432 
Q 1894 3584 2278 3584 
Q 2916 3584 3314 3078 
Q 3713 2572 3713 1747 
Q 3713 922 3314 415 
Q 2916 -91 2278 -91 
Q 1894 -91 1617 61 
Q 1341 213 1159 525 
z
M 3116 1747 
Q 3116 2381 2855 2742 
Q 2594 3103 2138 3103 
Q 1681 3103 1420 2742 
Q 1159 2381 1159 1747 
Q 1159 1113 1420 752 
Q 1681 391 2138 391 
Q 2594 391 2855 752 
Q 3116 1113 3116 1747 
z
" transform="scale(0.015625)"/>
      <path id="DejaVuSans-72" d="M 2631 2963 
Q 2534 3019 2420 3045 
Q 2306 3072 2169 3072 
Q 1681 3072 1420 2755 
Q 1159 2438 1159 1844 
L 1159 0 
L 581 0 
L 581 3500 
L 1159 3500 
L 1159 2956 
Q 1341 3275 1631 3429 
Q 1922 3584 2338 3584 
Q 2397 3584 2469 3576 
Q 2541 3569 2628 3553 
L 2631 2963 
z
" transform="scale(0.015625)"/>
      <path id="DejaVuSans-62" d="M 3116 1747 
Q 3116 2381 2855 2742 
Q 2594 3103 2138 3103 
Q 1681 3103 1420 2742 
Q 1159 2381 1159 1747 
Q 1159 1113 1420 752 
Q 1681 391 2138 391 
Q 2594 391 2855 752 
Q 3116 1113 3116 1747 
z
M 1159 2969 
Q 1341 3281 1617 3432 
Q 1894 3584 2278 3584 
Q 2916 3584 3314 3078 
Q 3713 2572 3713 1747 
Q 3713 922 3314 415 
Q 2916 -91 2278 -91 
Q 1894 -91 1617 61 
Q 1341 213 1159 525 
L 1159 0 
L 581 0 
L 581 4863 
L 1159 4863 
L 1159 2969 
z
" transform="scale(0.015625)"/>
      <path id="DejaVuSans-6c" d="M 603 4863 
L 1178 4863 
L 1178 0 
L 603 0 
L 603 4863 
z
" transform="scale(0.015625)"/>
      <path id="DejaVuSans-79" d="M 2059 -325 
Q 1816 -950 1584 -1140 
Q 1353 -1331 966 -1331 
L 506 -1331 
L 506 -850 
L 844 -850 
Q 1081 -850 1212 -737 
Q 1344 -625 1503 -206 
L 1606 56 
L 191 3500 
L 800 3500 
L 1894 763 
L 2988 3500 
L 3597 3500 
L 2059 -325 
z
" transform="scale(0.015625)"/>
     </defs>
     <use xlink:href="#DejaVuSans-45"/>
     <use xlink:href="#DejaVuSans-78" x="63.183594"/>
     <use xlink:href="#DejaVuSans-63" x="120.613281"/>
     <use xlink:href="#DejaVuSans-69" x="175.59375"/>
     <use xlink:href="#DejaVuSans-74" x="203.376953"/>
     <use xlink:href="#DejaVuSans-61" x="242.585938"/>
     <use xlink:href="#DejaVuSans-74" x="303.865234"/>
     <use xlink:href="#DejaVuSans-69" x="343.074219"/>
     <use xlink:href="#DejaVuSans-6f" x="370.857422"/>
     <use xlink:href="#DejaVuSans-6e" x="432.039062"/>
     <use xlink:href="#DejaVuSans-20" x="495.417969"/>
     <use xlink:href="#DejaVuSans-70" x="527.205078"/>
     <use xlink:href="#DejaVuSans-72" x="590.681641"/>
     <use xlink:href="#DejaVuSans-6f" x="629.544922"/>
     <use xlink:href="#DejaVuSans-62" x="690.726562"/>
     <use xlink:href="#DejaVuSans-61" x="754.203125"/>
     <use xlink:href="#DejaVuSans-62" x="815.482422"/>
     <use xlink:href="#DejaVuSans-69" x="878.958984"/>
     <use xlink:href="#DejaVuSans-6c" x="906.742188"/>
     <use xlink:href="#DejaVuSans-69" x="934.525391"/>
     <use xlink:href="#DejaVuSans-74" x="962.308594"/>
     <use xlink:href="#DejaVuSans-79" x="1001.517578"/>
    </g>
   </g>
  </g>
 </g>
 <defs>
  <clipPath id="pa1fad81508">
   <rect x="26.685" y="27.789" width="558" height="443.52"/>
  </clipPath>
 </defs>
</svg>
