<?xml version="1.0" encoding="utf-8" standalone="no"?>
<!DOCTYPE svg PUBLIC "-//W3C//DTD SVG 1.1//EN"
  "http://www.w3.org/Graphics/SVG/1.1/DTD/svg11.dtd">
<svg xmlns:xlink="http://www.w3.org/1999/xlink" width="591.885pt" height="526.979pt" viewBox="0 0 591.885 526.979" xmlns="http://www.w3.org/2000/svg" version="1.1">
 <metadata>
  <rdf:RDF xmlns:dc="http://purl.org/dc/elements/1.1/" xmlns:cc="http://creativecommons.org/ns#" xmlns:rdf="http://www.w3.org/1999/02/22-rdf-syntax-ns#">
   <cc:Work>
    <dc:type rdf:resource="http://purl.org/dc/dcmitype/StillImage"/>
    <dc:date>2024-08-06T09:27:29.249726</dc:date>
    <dc:format>image/svg+xml</dc:format>
    <dc:creator>
     <cc:Agent>
      <dc:title>Matplotlib v3.7.1, https://matplotlib.org/</dc:title>
     </cc:Agent>
    </dc:creator>
   </cc:Work>
  </rdf:RDF>
 </metadata>
 <defs>
  <style type="text/css">*{stroke-linejoin: round; stroke-linecap: butt}</style>
 </defs>
 <g id="figure_1">
  <g id="patch_1">
   <path d="M 0 526.979 
L 591.885 526.979 
L 591.885 0 
L 0 0 
z
" style="fill: #ffffff"/>
  </g>
  <g id="axes_1">
   <g id="patch_2">
    <path d="M 26.685 471.309 
L 584.685 471.309 
L 584.685 27.789 
L 26.685 27.789 
z
" style="fill: #ffffff"/>
   </g>
   <g id="matplotlib.axis_1">
    <g id="xtick_1">
     <g id="line2d_1">
      <defs>
       <path id="m4b1f800229" d="M 0 0 
L 0 10 
" style="stroke: #000000; stroke-width: 2.5"/>
      </defs>
      <g>
       <use xlink:href="#m4b1f800229" x="52.048636" y="471.309" style="stroke: #000000; stroke-width: 2.5"/>
      </g>
     </g>
     <g id="text_1">
      <!-- −1.0 -->
      <g transform="translate(32.622386 496.9665) scale(0.16 -0.16)">
       <defs>
        <path id="DejaVuSans-2212" d="M 678 2272 
L 4684 2272 
L 4684 1741 
L 678 1741 
L 678 2272 
z
" transform="scale(0.015625)"/>
        <path id="DejaVuSans-31" d="M 794 531 
L 1825 531 
L 1825 4091 
L 703 3866 
L 703 4441 
L 1819 4666 
L 2450 4666 
L 2450 531 
L 3481 531 
L 3481 0 
L 794 0 
L 794 531 
z
" transform="scale(0.015625)"/>
        <path id="DejaVuSans-2e" d="M 684 794 
L 1344 794 
L 1344 0 
L 684 0 
L 684 794 
z
" transform="scale(0.015625)"/>
        <path id="DejaVuSans-30" d="M 2034 4250 
Q 1547 4250 1301 3770 
Q 1056 3291 1056 2328 
Q 1056 1369 1301 889 
Q 1547 409 2034 409 
Q 2525 409 2770 889 
Q 3016 1369 3016 2328 
Q 3016 3291 2770 3770 
Q 2525 4250 2034 4250 
z
M 2034 4750 
Q 2819 4750 3233 4129 
Q 3647 3509 3647 2328 
Q 3647 1150 3233 529 
Q 2819 -91 2034 -91 
Q 1250 -91 836 529 
Q 422 1150 422 2328 
Q 422 3509 836 4129 
Q 1250 4750 2034 4750 
z
" transform="scale(0.015625)"/>
       </defs>
       <use xlink:href="#DejaVuSans-2212"/>
       <use xlink:href="#DejaVuSans-31" x="83.789062"/>
       <use xlink:href="#DejaVuSans-2e" x="147.412109"/>
       <use xlink:href="#DejaVuSans-30" x="179.199219"/>
      </g>
     </g>
    </g>
    <g id="xtick_2">
     <g id="line2d_2">
      <g>
       <use xlink:href="#m4b1f800229" x="179.504095" y="471.309" style="stroke: #000000; stroke-width: 2.5"/>
      </g>
     </g>
     <g id="text_2">
      <!-- −0.5 -->
      <g transform="translate(160.077845 496.9665) scale(0.16 -0.16)">
       <defs>
        <path id="DejaVuSans-35" d="M 691 4666 
L 3169 4666 
L 3169 4134 
L 1269 4134 
L 1269 2991 
Q 1406 3038 1543 3061 
Q 1681 3084 1819 3084 
Q 2600 3084 3056 2656 
Q 3513 2228 3513 1497 
Q 3513 744 3044 326 
Q 2575 -91 1722 -91 
Q 1428 -91 1123 -41 
Q 819 9 494 109 
L 494 744 
Q 775 591 1075 516 
Q 1375 441 1709 441 
Q 2250 441 2565 725 
Q 2881 1009 2881 1497 
Q 2881 1984 2565 2268 
Q 2250 2553 1709 2553 
Q 1456 2553 1204 2497 
Q 953 2441 691 2322 
L 691 4666 
z
" transform="scale(0.015625)"/>
       </defs>
       <use xlink:href="#DejaVuSans-2212"/>
       <use xlink:href="#DejaVuSans-30" x="83.789062"/>
       <use xlink:href="#DejaVuSans-2e" x="147.412109"/>
       <use xlink:href="#DejaVuSans-35" x="179.199219"/>
      </g>
     </g>
    </g>
    <g id="xtick_3">
     <g id="line2d_3">
      <g>
       <use xlink:href="#m4b1f800229" x="306.959555" y="471.309" style="stroke: #000000; stroke-width: 2.5"/>
      </g>
     </g>
     <g id="text_3">
      <!-- 0.0 -->
      <g transform="translate(294.237055 496.9665) scale(0.16 -0.16)">
       <use xlink:href="#DejaVuSans-30"/>
       <use xlink:href="#DejaVuSans-2e" x="63.623047"/>
       <use xlink:href="#DejaVuSans-30" x="95.410156"/>
      </g>
     </g>
    </g>
    <g id="xtick_4">
     <g id="line2d_4">
      <g>
       <use xlink:href="#m4b1f800229" x="434.415014" y="471.309" style="stroke: #000000; stroke-width: 2.5"/>
      </g>
     </g>
     <g id="text_4">
      <!-- 0.5 -->
      <g transform="translate(421.692514 496.9665) scale(0.16 -0.16)">
       <use xlink:href="#DejaVuSans-30"/>
       <use xlink:href="#DejaVuSans-2e" x="63.623047"/>
       <use xlink:href="#DejaVuSans-35" x="95.410156"/>
      </g>
     </g>
    </g>
    <g id="xtick_5">
     <g id="line2d_5">
      <g>
       <use xlink:href="#m4b1f800229" x="561.870473" y="471.309" style="stroke: #000000; stroke-width: 2.5"/>
      </g>
     </g>
     <g id="text_5">
      <!-- 1.0 -->
      <g transform="translate(549.147973 496.9665) scale(0.16 -0.16)">
       <use xlink:href="#DejaVuSans-31"/>
       <use xlink:href="#DejaVuSans-2e" x="63.623047"/>
       <use xlink:href="#DejaVuSans-30" x="95.410156"/>
      </g>
     </g>
    </g>
    <g id="text_6">
     <!-- $x_1 - x_2$ [L] -->
     <g transform="translate(265.525 516.4515) scale(0.16 -0.16)">
      <defs>
       <path id="DejaVuSans-Oblique-78" d="M 3841 3500 
L 2234 1784 
L 3219 0 
L 2559 0 
L 1819 1388 
L 531 0 
L -166 0 
L 1556 1844 
L 641 3500 
L 1300 3500 
L 1972 2234 
L 3144 3500 
L 3841 3500 
z
" transform="scale(0.015625)"/>
       <path id="DejaVuSans-32" d="M 1228 531 
L 3431 531 
L 3431 0 
L 469 0 
L 469 531 
Q 828 903 1448 1529 
Q 2069 2156 2228 2338 
Q 2531 2678 2651 2914 
Q 2772 3150 2772 3378 
Q 2772 3750 2511 3984 
Q 2250 4219 1831 4219 
Q 1534 4219 1204 4116 
Q 875 4013 500 3803 
L 500 4441 
Q 881 4594 1212 4672 
Q 1544 4750 1819 4750 
Q 2544 4750 2975 4387 
Q 3406 4025 3406 3419 
Q 3406 3131 3298 2873 
Q 3191 2616 2906 2266 
Q 2828 2175 2409 1742 
Q 1991 1309 1228 531 
z
" transform="scale(0.015625)"/>
       <path id="DejaVuSans-20" transform="scale(0.015625)"/>
       <path id="DejaVuSans-5b" d="M 550 4863 
L 1875 4863 
L 1875 4416 
L 1125 4416 
L 1125 -397 
L 1875 -397 
L 1875 -844 
L 550 -844 
L 550 4863 
z
" transform="scale(0.015625)"/>
       <path id="DejaVuSans-4c" d="M 628 4666 
L 1259 4666 
L 1259 531 
L 3531 531 
L 3531 0 
L 628 0 
L 628 4666 
z
" transform="scale(0.015625)"/>
       <path id="DejaVuSans-5d" d="M 1947 4863 
L 1947 -844 
L 622 -844 
L 622 -397 
L 1369 -397 
L 1369 4416 
L 622 4416 
L 622 4863 
L 1947 4863 
z
" transform="scale(0.015625)"/>
      </defs>
      <use xlink:href="#DejaVuSans-Oblique-78" transform="translate(0 0.015625)"/>
      <use xlink:href="#DejaVuSans-31" transform="translate(59.179688 -16.390625) scale(0.7)"/>
      <use xlink:href="#DejaVuSans-2212" transform="translate(125.932617 0.015625)"/>
      <use xlink:href="#DejaVuSans-Oblique-78" transform="translate(229.204102 0.015625)"/>
      <use xlink:href="#DejaVuSans-32" transform="translate(288.383789 -16.390625) scale(0.7)"/>
      <use xlink:href="#DejaVuSans-20" transform="translate(335.654297 0.015625)"/>
      <use xlink:href="#DejaVuSans-5b" transform="translate(367.441406 0.015625)"/>
      <use xlink:href="#DejaVuSans-4c" transform="translate(406.455078 0.015625)"/>
      <use xlink:href="#DejaVuSans-5d" transform="translate(462.167969 0.015625)"/>
     </g>
    </g>
   </g>
   <g id="matplotlib.axis_2">
    <g id="ytick_1">
     <g id="line2d_6"/>
    </g>
    <g id="ytick_2">
     <g id="line2d_7"/>
    </g>
    <g id="ytick_3">
     <g id="line2d_8"/>
    </g>
    <g id="ytick_4">
     <g id="line2d_9"/>
    </g>
    <g id="ytick_5">
     <g id="line2d_10"/>
    </g>
    <g id="ytick_6">
     <g id="line2d_11"/>
    </g>
    <g id="ytick_7">
     <g id="line2d_12"/>
    </g>
    <g id="text_7">
     <!-- $\mathscr{P}(x_1 - x_2)$ -->
     <g transform="translate(19.3575 289.949) rotate(-90) scale(0.16 -0.16)">
      <defs>
       <path id="STIXGeneral-Italic-1d4ab" d="M 5478 4282 
L 5523 4160 
Q 5306 4070 5101 3917 
Q 5670 3488 5670 2861 
Q 5670 2426 5392 2083 
Q 5114 1741 4717 1741 
Q 4493 1741 4374 1862 
Q 4256 1984 4256 2163 
Q 4256 2304 4358 2441 
Q 4461 2579 4627 2669 
L 4691 2554 
Q 4461 2419 4461 2208 
Q 4461 2125 4518 2073 
Q 4576 2022 4678 2022 
Q 4941 2022 5110 2297 
Q 5280 2573 5280 2976 
Q 5280 3456 4928 3763 
Q 4774 3616 4636 3398 
Q 4499 3181 4409 3001 
Q 4320 2822 4163 2483 
Q 4006 2144 3904 1933 
Q 3366 851 2745 377 
Q 2125 -96 1350 -96 
Q 858 -96 550 134 
Q 243 365 243 691 
Q 243 890 352 1018 
Q 461 1146 621 1146 
Q 762 1146 854 1059 
Q 947 973 947 838 
Q 947 710 873 620 
Q 800 531 672 531 
Q 525 531 480 608 
L 467 608 
Q 467 429 691 265 
Q 915 102 1235 102 
Q 1837 102 2233 438 
Q 2630 774 3168 1734 
Q 3443 2227 3577 2457 
Q 3712 2688 3923 3008 
Q 4134 3328 4329 3529 
Q 4525 3731 4749 3898 
Q 4262 4205 3520 4205 
Q 2566 4205 1920 3725 
Q 1274 3245 1274 2611 
Q 1274 2349 1466 2173 
Q 1658 1997 1933 1997 
Q 2944 1997 3245 3590 
L 3373 3590 
Q 3322 2867 2944 2336 
Q 2566 1805 1920 1805 
Q 1517 1805 1264 2032 
Q 1011 2259 1011 2637 
Q 1011 3322 1721 3859 
Q 2432 4397 3526 4397 
Q 4326 4397 4941 4019 
Q 5171 4166 5478 4282 
z
" transform="scale(0.015625)"/>
       <path id="DejaVuSans-28" d="M 1984 4856 
Q 1566 4138 1362 3434 
Q 1159 2731 1159 2009 
Q 1159 1288 1364 580 
Q 1569 -128 1984 -844 
L 1484 -844 
Q 1016 -109 783 600 
Q 550 1309 550 2009 
Q 550 2706 781 3412 
Q 1013 4119 1484 4856 
L 1984 4856 
z
" transform="scale(0.015625)"/>
       <path id="DejaVuSans-29" d="M 513 4856 
L 1013 4856 
Q 1481 4119 1714 3412 
Q 1947 2706 1947 2009 
Q 1947 1309 1714 600 
Q 1481 -109 1013 -844 
L 513 -844 
Q 928 -128 1133 580 
Q 1338 1288 1338 2009 
Q 1338 2731 1133 3434 
Q 928 4138 513 4856 
z
" transform="scale(0.015625)"/>
      </defs>
      <use xlink:href="#STIXGeneral-Italic-1d4ab" transform="translate(0 0.125)"/>
      <use xlink:href="#DejaVuSans-28" transform="translate(90.999985 0.125)"/>
      <use xlink:href="#DejaVuSans-Oblique-78" transform="translate(130.013657 0.125)"/>
      <use xlink:href="#DejaVuSans-31" transform="translate(189.193344 -16.28125) scale(0.7)"/>
      <use xlink:href="#DejaVuSans-2212" transform="translate(255.946274 0.125)"/>
      <use xlink:href="#DejaVuSans-Oblique-78" transform="translate(359.217758 0.125)"/>
      <use xlink:href="#DejaVuSans-32" transform="translate(418.397446 -16.28125) scale(0.7)"/>
      <use xlink:href="#DejaVuSans-29" transform="translate(465.667953 0.125)"/>
     </g>
    </g>
   </g>
   <g id="line2d_13">
    <path d="M 52.048636 451.149 
L 77.539728 451.049076 
L 85.187056 450.789843 
L 90.285274 450.433558 
L 95.383492 449.85101 
L 100.481711 448.960939 
L 105.579929 447.673581 
L 108.129038 446.851497 
L 110.678148 445.894613 
L 113.227257 444.791198 
L 115.776366 443.529849 
L 118.325475 442.099663 
L 120.874584 440.490404 
L 123.423693 438.692667 
L 125.972803 436.698039 
L 128.521912 434.499249 
L 131.071021 432.090315 
L 133.62013 429.466671 
L 136.169239 426.625277 
L 138.718349 423.564724 
L 141.267458 420.285309 
L 143.816567 416.789096 
L 146.365676 413.07995 
L 151.463894 405.047425 
L 156.562113 396.254784 
L 161.660331 386.796601 
L 166.75855 376.792253 
L 174.405877 361.072758 
L 189.700532 329.069607 
L 194.798751 318.843631 
L 199.896969 309.096036 
L 204.995187 299.957172 
L 210.093406 291.53444 
L 212.642515 287.61805 
L 215.191624 283.908904 
L 217.740733 280.412691 
L 220.289842 277.133276 
L 222.838952 274.072723 
L 225.388061 271.231329 
L 227.93717 268.607685 
L 230.486279 266.198751 
L 233.035388 263.999961 
L 235.584497 262.005333 
L 238.133607 260.207596 
L 240.682716 258.598337 
L 243.231825 257.168151 
L 245.780934 255.906802 
L 248.330043 254.803387 
L 250.879153 253.846503 
L 253.428262 253.024419 
L 258.52648 251.737061 
L 263.624698 250.84699 
L 268.722917 250.264442 
L 273.821135 249.908157 
L 281.468463 249.648924 
L 294.214009 249.552235 
L 329.901537 249.608534 
L 337.548865 249.792548 
L 342.647083 250.062675 
L 347.745302 250.522593 
L 352.84352 251.248132 
L 357.941738 252.325239 
L 360.490847 253.024419 
L 363.039957 253.846503 
L 365.589066 254.803387 
L 368.138175 255.906802 
L 370.687284 257.168151 
L 373.236393 258.598337 
L 375.785503 260.207596 
L 378.334612 262.005333 
L 380.883721 263.999961 
L 383.43283 266.198751 
L 385.981939 268.607685 
L 388.531048 271.231329 
L 391.080158 274.072723 
L 393.629267 277.133276 
L 396.178376 280.412691 
L 398.727485 283.908904 
L 401.276594 287.61805 
L 406.374813 295.650575 
L 411.473031 304.443216 
L 416.571249 313.901399 
L 421.669468 323.905747 
L 429.316795 339.625242 
L 444.61145 371.628393 
L 449.709669 381.854369 
L 454.807887 391.601964 
L 459.906106 400.740828 
L 465.004324 409.16356 
L 467.553433 413.07995 
L 470.102542 416.789096 
L 472.651651 420.285309 
L 475.200761 423.564724 
L 477.74987 426.625277 
L 480.298979 429.466671 
L 482.848088 432.090315 
L 485.397197 434.499249 
L 487.946307 436.698039 
L 490.495416 438.692667 
L 493.044525 440.490404 
L 495.593634 442.099663 
L 498.142743 443.529849 
L 500.691852 444.791198 
L 503.240962 445.894613 
L 505.790071 446.851497 
L 508.33918 447.673581 
L 513.437398 448.960939 
L 518.535617 449.85101 
L 523.633835 450.433558 
L 528.732053 450.789843 
L 536.379381 451.049076 
L 549.124927 451.145765 
L 559.321364 451.148999 
L 559.321364 451.148999 
" clip-path="url(#pc83ac9b284)" style="fill: none; stroke-dasharray: 5.55,2.4; stroke-dashoffset: 0; stroke: #1f77b4; stroke-width: 1.5"/>
   </g>
   <g id="line2d_14">
    <path d="M 52.048636 451.149 
L 120.874584 451.039927 
L 131.071021 450.799151 
L 138.718349 450.396753 
L 143.816567 449.949026 
L 148.914785 449.292713 
L 154.013004 448.356416 
L 159.111222 447.053583 
L 161.660331 446.233388 
L 164.20944 445.282015 
L 166.75855 444.184289 
L 169.307659 442.924142 
L 171.856768 441.484675 
L 174.405877 439.848238 
L 176.954986 437.996526 
L 179.504095 435.910697 
L 182.053205 433.57151 
L 184.602314 430.959475 
L 187.151423 428.055027 
L 189.700532 424.83872 
L 192.249641 421.29143 
L 194.798751 417.394581 
L 197.34786 413.130379 
L 199.896969 408.482063 
L 202.446078 403.434162 
L 204.995187 397.972761 
L 207.544296 392.085772 
L 210.093406 385.763205 
L 212.642515 378.997433 
L 215.191624 371.783464 
L 217.740733 364.11919 
L 220.289842 356.005629 
L 222.838952 347.447155 
L 225.388061 338.451697 
L 230.486279 319.200401 
L 235.584497 298.392492 
L 240.682716 276.23401 
L 245.780934 252.997136 
L 253.428262 216.872214 
L 263.624698 168.546424 
L 268.722917 145.397182 
L 273.821135 123.612683 
L 276.370244 113.395983 
L 278.919354 103.715495 
L 281.468463 94.633579 
L 284.017572 86.210221 
L 286.566681 78.502382 
L 289.11579 71.563368 
L 291.664899 65.442205 
L 294.214009 60.183027 
L 296.763118 55.824497 
L 299.312227 52.399257 
L 301.861336 49.933418 
L 304.410445 48.446095 
L 306.959555 47.949 
L 309.508664 48.446095 
L 312.057773 49.933418 
L 314.606882 52.399257 
L 317.155991 55.824497 
L 319.705101 60.183027 
L 322.25421 65.442205 
L 324.803319 71.563368 
L 327.352428 78.502382 
L 329.901537 86.210221 
L 332.450646 94.633579 
L 334.999756 103.715495 
L 337.548865 113.395983 
L 340.097974 123.612683 
L 345.196192 145.397182 
L 350.294411 168.546424 
L 357.941738 204.693306 
L 368.138175 252.997136 
L 373.236393 276.23401 
L 378.334612 298.392492 
L 383.43283 319.200401 
L 388.531048 338.451697 
L 391.080158 347.447155 
L 393.629267 356.005629 
L 396.178376 364.11919 
L 398.727485 371.783464 
L 401.276594 378.997433 
L 403.825704 385.763205 
L 406.374813 392.085772 
L 408.923922 397.972761 
L 411.473031 403.434162 
L 414.02214 408.482063 
L 416.571249 413.130379 
L 419.120359 417.394581 
L 421.669468 421.29143 
L 424.218577 424.83872 
L 426.767686 428.055027 
L 429.316795 430.959475 
L 431.865905 433.57151 
L 434.415014 435.910697 
L 436.964123 437.996526 
L 439.513232 439.848238 
L 442.062341 441.484675 
L 444.61145 442.924142 
L 447.16056 444.184289 
L 449.709669 445.282015 
L 452.258778 446.233388 
L 454.807887 447.053583 
L 459.906106 448.356416 
L 465.004324 449.292713 
L 470.102542 449.949026 
L 475.200761 450.396753 
L 482.848088 450.799151 
L 493.044525 451.039927 
L 510.888289 451.140828 
L 559.321364 451.149 
L 559.321364 451.149 
" clip-path="url(#pc83ac9b284)" style="fill: none; stroke: #ff7f0e; stroke-width: 1.5; stroke-linecap: square"/>
   </g>
   <g id="line2d_15">
    <path d="M 52.048636 451.149 
L 72.44151 451.082398 
L 80.088837 450.830349 
L 85.187056 450.430868 
L 90.285274 449.718766 
L 92.834383 449.202964 
L 95.383492 448.554985 
L 97.932602 447.753983 
L 100.481711 446.778096 
L 103.03082 445.604694 
L 105.579929 444.210668 
L 108.129038 442.572734 
L 110.678148 440.667769 
L 113.227257 438.473165 
L 115.776366 435.967192 
L 118.325475 433.129377 
L 120.874584 429.940882 
L 123.423693 426.384883 
L 125.972803 422.446936 
L 128.521912 418.115342 
L 131.071021 413.38148 
L 133.62013 408.240124 
L 136.169239 402.689732 
L 138.718349 396.732695 
L 141.267458 390.375553 
L 143.816567 383.629166 
L 146.365676 376.508841 
L 151.463894 361.230242 
L 156.562113 344.752731 
L 161.660331 327.359813 
L 179.504095 264.787303 
L 184.602314 248.29101 
L 187.151423 240.577139 
L 189.700532 233.300493 
L 192.249641 226.520063 
L 194.798751 220.292681 
L 197.34786 214.67242 
L 199.896969 209.710009 
L 202.446078 205.452271 
L 204.995187 201.941584 
L 207.544296 199.215379 
L 210.093406 197.305676 
L 212.642515 196.238666 
L 215.191624 196.034344 
L 217.740733 196.706192 
L 220.289842 198.260923 
L 222.838952 200.698292 
L 225.388061 204.010962 
L 227.93717 208.184444 
L 230.486279 213.197101 
L 233.035388 219.020224 
L 235.584497 225.618173 
L 238.133607 232.948588 
L 240.682716 240.962664 
L 243.231825 249.605494 
L 245.780934 258.816469 
L 250.879153 278.674704 
L 255.977371 299.957172 
L 271.272026 365.82386 
L 276.370244 386.189112 
L 278.919354 395.701197 
L 281.468463 404.664268 
L 284.017572 413.006846 
L 286.566681 420.662223 
L 289.11579 427.569036 
L 291.664899 433.67181 
L 294.214009 438.921442 
L 296.763118 443.275632 
L 299.312227 446.69925 
L 301.861336 449.164649 
L 304.410445 450.651907 
L 306.959555 451.149 
L 309.508664 450.651907 
L 312.057773 449.164649 
L 314.606882 446.69925 
L 317.155991 443.275632 
L 319.705101 438.921442 
L 322.25421 433.67181 
L 324.803319 427.569036 
L 327.352428 420.662223 
L 329.901537 413.006846 
L 332.450646 404.664268 
L 334.999756 395.701197 
L 337.548865 386.189112 
L 342.647083 365.82386 
L 347.745302 344.211148 
L 360.490847 289.176624 
L 365.589066 268.529734 
L 368.138175 258.816469 
L 370.687284 249.605494 
L 373.236393 240.962664 
L 375.785503 232.948588 
L 378.334612 225.618173 
L 380.883721 219.020224 
L 383.43283 213.197101 
L 385.981939 208.184444 
L 388.531048 204.010962 
L 391.080158 200.698292 
L 393.629267 198.260923 
L 396.178376 196.706192 
L 398.727485 196.034344 
L 401.276594 196.238666 
L 403.825704 197.305676 
L 406.374813 199.215379 
L 408.923922 201.941584 
L 411.473031 205.452271 
L 414.02214 209.710009 
L 416.571249 214.67242 
L 419.120359 220.292681 
L 421.669468 226.520063 
L 424.218577 233.300493 
L 426.767686 240.577139 
L 429.316795 248.29101 
L 434.415014 264.787303 
L 439.513232 282.297277 
L 454.807887 336.150345 
L 459.906106 353.125239 
L 465.004324 369.034407 
L 467.553433 376.508841 
L 470.102542 383.629166 
L 472.651651 390.375553 
L 475.200761 396.732695 
L 477.74987 402.689732 
L 480.298979 408.240124 
L 482.848088 413.38148 
L 485.397197 418.115342 
L 487.946307 422.446936 
L 490.495416 426.384883 
L 493.044525 429.940882 
L 495.593634 433.129377 
L 498.142743 435.967192 
L 500.691852 438.473165 
L 503.240962 440.667769 
L 505.790071 442.572734 
L 508.33918 444.210668 
L 510.888289 445.604694 
L 513.437398 446.778096 
L 515.986508 447.753983 
L 518.535617 448.554985 
L 521.084726 449.202964 
L 526.182944 450.122003 
L 531.281163 450.661994 
L 536.379381 450.94917 
L 544.026709 451.114597 
L 559.321364 451.148998 
L 559.321364 451.148998 
" clip-path="url(#pc83ac9b284)" style="fill: none; stroke: #2ca02c; stroke-width: 1.5; stroke-linecap: square"/>
   </g>
   <g id="patch_3">
    <path d="M 26.685 471.309 
L 26.685 27.789 
" style="fill: none; stroke: #000000; stroke-width: 2.5; stroke-linejoin: miter; stroke-linecap: square"/>
   </g>
   <g id="patch_4">
    <path d="M 584.685 471.309 
L 584.685 27.789 
" style="fill: none; stroke: #000000; stroke-width: 2.5; stroke-linejoin: miter; stroke-linecap: square"/>
   </g>
   <g id="patch_5">
    <path d="M 26.685 471.309 
L 584.685 471.309 
" style="fill: none; stroke: #000000; stroke-width: 2.5; stroke-linejoin: miter; stroke-linecap: square"/>
   </g>
   <g id="patch_6">
    <path d="M 26.685 27.789 
L 584.685 27.789 
" style="fill: none; stroke: #000000; stroke-width: 2.5; stroke-linejoin: miter; stroke-linecap: square"/>
   </g>
   <g id="text_8">
    <!-- Probability density of interparticle separation -->
    <g transform="translate(88.6065 21.789) scale(0.192 -0.192)">
     <defs>
      <path id="DejaVuSans-50" d="M 1259 4147 
L 1259 2394 
L 2053 2394 
Q 2494 2394 2734 2622 
Q 2975 2850 2975 3272 
Q 2975 3691 2734 3919 
Q 2494 4147 2053 4147 
L 1259 4147 
z
M 628 4666 
L 2053 4666 
Q 2838 4666 3239 4311 
Q 3641 3956 3641 3272 
Q 3641 2581 3239 2228 
Q 2838 1875 2053 1875 
L 1259 1875 
L 1259 0 
L 628 0 
L 628 4666 
z
" transform="scale(0.015625)"/>
      <path id="DejaVuSans-72" d="M 2631 2963 
Q 2534 3019 2420 3045 
Q 2306 3072 2169 3072 
Q 1681 3072 1420 2755 
Q 1159 2438 1159 1844 
L 1159 0 
L 581 0 
L 581 3500 
L 1159 3500 
L 1159 2956 
Q 1341 3275 1631 3429 
Q 1922 3584 2338 3584 
Q 2397 3584 2469 3576 
Q 2541 3569 2628 3553 
L 2631 2963 
z
" transform="scale(0.015625)"/>
      <path id="DejaVuSans-6f" d="M 1959 3097 
Q 1497 3097 1228 2736 
Q 959 2375 959 1747 
Q 959 1119 1226 758 
Q 1494 397 1959 397 
Q 2419 397 2687 759 
Q 2956 1122 2956 1747 
Q 2956 2369 2687 2733 
Q 2419 3097 1959 3097 
z
M 1959 3584 
Q 2709 3584 3137 3096 
Q 3566 2609 3566 1747 
Q 3566 888 3137 398 
Q 2709 -91 1959 -91 
Q 1206 -91 779 398 
Q 353 888 353 1747 
Q 353 2609 779 3096 
Q 1206 3584 1959 3584 
z
" transform="scale(0.015625)"/>
      <path id="DejaVuSans-62" d="M 3116 1747 
Q 3116 2381 2855 2742 
Q 2594 3103 2138 3103 
Q 1681 3103 1420 2742 
Q 1159 2381 1159 1747 
Q 1159 1113 1420 752 
Q 1681 391 2138 391 
Q 2594 391 2855 752 
Q 3116 1113 3116 1747 
z
M 1159 2969 
Q 1341 3281 1617 3432 
Q 1894 3584 2278 3584 
Q 2916 3584 3314 3078 
Q 3713 2572 3713 1747 
Q 3713 922 3314 415 
Q 2916 -91 2278 -91 
Q 1894 -91 1617 61 
Q 1341 213 1159 525 
L 1159 0 
L 581 0 
L 581 4863 
L 1159 4863 
L 1159 2969 
z
" transform="scale(0.015625)"/>
      <path id="DejaVuSans-61" d="M 2194 1759 
Q 1497 1759 1228 1600 
Q 959 1441 959 1056 
Q 959 750 1161 570 
Q 1363 391 1709 391 
Q 2188 391 2477 730 
Q 2766 1069 2766 1631 
L 2766 1759 
L 2194 1759 
z
M 3341 1997 
L 3341 0 
L 2766 0 
L 2766 531 
Q 2569 213 2275 61 
Q 1981 -91 1556 -91 
Q 1019 -91 701 211 
Q 384 513 384 1019 
Q 384 1609 779 1909 
Q 1175 2209 1959 2209 
L 2766 2209 
L 2766 2266 
Q 2766 2663 2505 2880 
Q 2244 3097 1772 3097 
Q 1472 3097 1187 3025 
Q 903 2953 641 2809 
L 641 3341 
Q 956 3463 1253 3523 
Q 1550 3584 1831 3584 
Q 2591 3584 2966 3190 
Q 3341 2797 3341 1997 
z
" transform="scale(0.015625)"/>
      <path id="DejaVuSans-69" d="M 603 3500 
L 1178 3500 
L 1178 0 
L 603 0 
L 603 3500 
z
M 603 4863 
L 1178 4863 
L 1178 4134 
L 603 4134 
L 603 4863 
z
" transform="scale(0.015625)"/>
      <path id="DejaVuSans-6c" d="M 603 4863 
L 1178 4863 
L 1178 0 
L 603 0 
L 603 4863 
z
" transform="scale(0.015625)"/>
      <path id="DejaVuSans-74" d="M 1172 4494 
L 1172 3500 
L 2356 3500 
L 2356 3053 
L 1172 3053 
L 1172 1153 
Q 1172 725 1289 603 
Q 1406 481 1766 481 
L 2356 481 
L 2356 0 
L 1766 0 
Q 1100 0 847 248 
Q 594 497 594 1153 
L 594 3053 
L 172 3053 
L 172 3500 
L 594 3500 
L 594 4494 
L 1172 4494 
z
" transform="scale(0.015625)"/>
      <path id="DejaVuSans-79" d="M 2059 -325 
Q 1816 -950 1584 -1140 
Q 1353 -1331 966 -1331 
L 506 -1331 
L 506 -850 
L 844 -850 
Q 1081 -850 1212 -737 
Q 1344 -625 1503 -206 
L 1606 56 
L 191 3500 
L 800 3500 
L 1894 763 
L 2988 3500 
L 3597 3500 
L 2059 -325 
z
" transform="scale(0.015625)"/>
      <path id="DejaVuSans-64" d="M 2906 2969 
L 2906 4863 
L 3481 4863 
L 3481 0 
L 2906 0 
L 2906 525 
Q 2725 213 2448 61 
Q 2172 -91 1784 -91 
Q 1150 -91 751 415 
Q 353 922 353 1747 
Q 353 2572 751 3078 
Q 1150 3584 1784 3584 
Q 2172 3584 2448 3432 
Q 2725 3281 2906 2969 
z
M 947 1747 
Q 947 1113 1208 752 
Q 1469 391 1925 391 
Q 2381 391 2643 752 
Q 2906 1113 2906 1747 
Q 2906 2381 2643 2742 
Q 2381 3103 1925 3103 
Q 1469 3103 1208 2742 
Q 947 2381 947 1747 
z
" transform="scale(0.015625)"/>
      <path id="DejaVuSans-65" d="M 3597 1894 
L 3597 1613 
L 953 1613 
Q 991 1019 1311 708 
Q 1631 397 2203 397 
Q 2534 397 2845 478 
Q 3156 559 3463 722 
L 3463 178 
Q 3153 47 2828 -22 
Q 2503 -91 2169 -91 
Q 1331 -91 842 396 
Q 353 884 353 1716 
Q 353 2575 817 3079 
Q 1281 3584 2069 3584 
Q 2775 3584 3186 3129 
Q 3597 2675 3597 1894 
z
M 3022 2063 
Q 3016 2534 2758 2815 
Q 2500 3097 2075 3097 
Q 1594 3097 1305 2825 
Q 1016 2553 972 2059 
L 3022 2063 
z
" transform="scale(0.015625)"/>
      <path id="DejaVuSans-6e" d="M 3513 2113 
L 3513 0 
L 2938 0 
L 2938 2094 
Q 2938 2591 2744 2837 
Q 2550 3084 2163 3084 
Q 1697 3084 1428 2787 
Q 1159 2491 1159 1978 
L 1159 0 
L 581 0 
L 581 3500 
L 1159 3500 
L 1159 2956 
Q 1366 3272 1645 3428 
Q 1925 3584 2291 3584 
Q 2894 3584 3203 3211 
Q 3513 2838 3513 2113 
z
" transform="scale(0.015625)"/>
      <path id="DejaVuSans-73" d="M 2834 3397 
L 2834 2853 
Q 2591 2978 2328 3040 
Q 2066 3103 1784 3103 
Q 1356 3103 1142 2972 
Q 928 2841 928 2578 
Q 928 2378 1081 2264 
Q 1234 2150 1697 2047 
L 1894 2003 
Q 2506 1872 2764 1633 
Q 3022 1394 3022 966 
Q 3022 478 2636 193 
Q 2250 -91 1575 -91 
Q 1294 -91 989 -36 
Q 684 19 347 128 
L 347 722 
Q 666 556 975 473 
Q 1284 391 1588 391 
Q 1994 391 2212 530 
Q 2431 669 2431 922 
Q 2431 1156 2273 1281 
Q 2116 1406 1581 1522 
L 1381 1569 
Q 847 1681 609 1914 
Q 372 2147 372 2553 
Q 372 3047 722 3315 
Q 1072 3584 1716 3584 
Q 2034 3584 2315 3537 
Q 2597 3491 2834 3397 
z
" transform="scale(0.015625)"/>
      <path id="DejaVuSans-66" d="M 2375 4863 
L 2375 4384 
L 1825 4384 
Q 1516 4384 1395 4259 
Q 1275 4134 1275 3809 
L 1275 3500 
L 2222 3500 
L 2222 3053 
L 1275 3053 
L 1275 0 
L 697 0 
L 697 3053 
L 147 3053 
L 147 3500 
L 697 3500 
L 697 3744 
Q 697 4328 969 4595 
Q 1241 4863 1831 4863 
L 2375 4863 
z
" transform="scale(0.015625)"/>
      <path id="DejaVuSans-70" d="M 1159 525 
L 1159 -1331 
L 581 -1331 
L 581 3500 
L 1159 3500 
L 1159 2969 
Q 1341 3281 1617 3432 
Q 1894 3584 2278 3584 
Q 2916 3584 3314 3078 
Q 3713 2572 3713 1747 
Q 3713 922 3314 415 
Q 2916 -91 2278 -91 
Q 1894 -91 1617 61 
Q 1341 213 1159 525 
z
M 3116 1747 
Q 3116 2381 2855 2742 
Q 2594 3103 2138 3103 
Q 1681 3103 1420 2742 
Q 1159 2381 1159 1747 
Q 1159 1113 1420 752 
Q 1681 391 2138 391 
Q 2594 391 2855 752 
Q 3116 1113 3116 1747 
z
" transform="scale(0.015625)"/>
      <path id="DejaVuSans-63" d="M 3122 3366 
L 3122 2828 
Q 2878 2963 2633 3030 
Q 2388 3097 2138 3097 
Q 1578 3097 1268 2742 
Q 959 2388 959 1747 
Q 959 1106 1268 751 
Q 1578 397 2138 397 
Q 2388 397 2633 464 
Q 2878 531 3122 666 
L 3122 134 
Q 2881 22 2623 -34 
Q 2366 -91 2075 -91 
Q 1284 -91 818 406 
Q 353 903 353 1747 
Q 353 2603 823 3093 
Q 1294 3584 2113 3584 
Q 2378 3584 2631 3529 
Q 2884 3475 3122 3366 
z
" transform="scale(0.015625)"/>
     </defs>
     <use xlink:href="#DejaVuSans-50"/>
     <use xlink:href="#DejaVuSans-72" x="58.552734"/>
     <use xlink:href="#DejaVuSans-6f" x="97.416016"/>
     <use xlink:href="#DejaVuSans-62" x="158.597656"/>
     <use xlink:href="#DejaVuSans-61" x="222.074219"/>
     <use xlink:href="#DejaVuSans-62" x="283.353516"/>
     <use xlink:href="#DejaVuSans-69" x="346.830078"/>
     <use xlink:href="#DejaVuSans-6c" x="374.613281"/>
     <use xlink:href="#DejaVuSans-69" x="402.396484"/>
     <use xlink:href="#DejaVuSans-74" x="430.179688"/>
     <use xlink:href="#DejaVuSans-79" x="469.388672"/>
     <use xlink:href="#DejaVuSans-20" x="528.568359"/>
     <use xlink:href="#DejaVuSans-64" x="560.355469"/>
     <use xlink:href="#DejaVuSans-65" x="623.832031"/>
     <use xlink:href="#DejaVuSans-6e" x="685.355469"/>
     <use xlink:href="#DejaVuSans-73" x="748.734375"/>
     <use xlink:href="#DejaVuSans-69" x="800.833984"/>
     <use xlink:href="#DejaVuSans-74" x="828.617188"/>
     <use xlink:href="#DejaVuSans-79" x="867.826172"/>
     <use xlink:href="#DejaVuSans-20" x="927.005859"/>
     <use xlink:href="#DejaVuSans-6f" x="958.792969"/>
     <use xlink:href="#DejaVuSans-66" x="1019.974609"/>
     <use xlink:href="#DejaVuSans-20" x="1055.179688"/>
     <use xlink:href="#DejaVuSans-69" x="1086.966797"/>
     <use xlink:href="#DejaVuSans-6e" x="1114.75"/>
     <use xlink:href="#DejaVuSans-74" x="1178.128906"/>
     <use xlink:href="#DejaVuSans-65" x="1217.337891"/>
     <use xlink:href="#DejaVuSans-72" x="1278.861328"/>
     <use xlink:href="#DejaVuSans-70" x="1319.974609"/>
     <use xlink:href="#DejaVuSans-61" x="1383.451172"/>
     <use xlink:href="#DejaVuSans-72" x="1444.730469"/>
     <use xlink:href="#DejaVuSans-74" x="1485.84375"/>
     <use xlink:href="#DejaVuSans-69" x="1525.052734"/>
     <use xlink:href="#DejaVuSans-63" x="1552.835938"/>
     <use xlink:href="#DejaVuSans-6c" x="1607.816406"/>
     <use xlink:href="#DejaVuSans-65" x="1635.599609"/>
     <use xlink:href="#DejaVuSans-20" x="1697.123047"/>
     <use xlink:href="#DejaVuSans-73" x="1728.910156"/>
     <use xlink:href="#DejaVuSans-65" x="1781.009766"/>
     <use xlink:href="#DejaVuSans-70" x="1842.533203"/>
     <use xlink:href="#DejaVuSans-61" x="1906.009766"/>
     <use xlink:href="#DejaVuSans-72" x="1967.289062"/>
     <use xlink:href="#DejaVuSans-61" x="2008.402344"/>
     <use xlink:href="#DejaVuSans-74" x="2069.681641"/>
     <use xlink:href="#DejaVuSans-69" x="2108.890625"/>
     <use xlink:href="#DejaVuSans-6f" x="2136.673828"/>
     <use xlink:href="#DejaVuSans-6e" x="2197.855469"/>
    </g>
   </g>
   <g id="legend_1">
    <g id="patch_7">
     <path d="M 405.57 111.044 
L 573.485 111.044 
Q 576.685 111.044 576.685 107.844 
L 576.685 38.989 
Q 576.685 35.789 573.485 35.789 
L 405.57 35.789 
Q 402.37 35.789 402.37 38.989 
L 402.37 107.844 
Q 402.37 111.044 405.57 111.044 
z
" style="fill: #ffffff; opacity: 0.8; stroke: #cccccc; stroke-linejoin: miter"/>
    </g>
    <g id="line2d_16">
     <path d="M 408.77 48.7465 
L 424.77 48.7465 
L 440.77 48.7465 
" style="fill: none; stroke-dasharray: 5.55,2.4; stroke-dashoffset: 0; stroke: #1f77b4; stroke-width: 1.5"/>
    </g>
    <g id="text_9">
     <!-- Distinguisable -->
     <g transform="translate(453.57 54.3465) scale(0.16 -0.16)">
      <defs>
       <path id="DejaVuSans-44" d="M 1259 4147 
L 1259 519 
L 2022 519 
Q 2988 519 3436 956 
Q 3884 1394 3884 2338 
Q 3884 3275 3436 3711 
Q 2988 4147 2022 4147 
L 1259 4147 
z
M 628 4666 
L 1925 4666 
Q 3281 4666 3915 4102 
Q 4550 3538 4550 2338 
Q 4550 1131 3912 565 
Q 3275 0 1925 0 
L 628 0 
L 628 4666 
z
" transform="scale(0.015625)"/>
       <path id="DejaVuSans-67" d="M 2906 1791 
Q 2906 2416 2648 2759 
Q 2391 3103 1925 3103 
Q 1463 3103 1205 2759 
Q 947 2416 947 1791 
Q 947 1169 1205 825 
Q 1463 481 1925 481 
Q 2391 481 2648 825 
Q 2906 1169 2906 1791 
z
M 3481 434 
Q 3481 -459 3084 -895 
Q 2688 -1331 1869 -1331 
Q 1566 -1331 1297 -1286 
Q 1028 -1241 775 -1147 
L 775 -588 
Q 1028 -725 1275 -790 
Q 1522 -856 1778 -856 
Q 2344 -856 2625 -561 
Q 2906 -266 2906 331 
L 2906 616 
Q 2728 306 2450 153 
Q 2172 0 1784 0 
Q 1141 0 747 490 
Q 353 981 353 1791 
Q 353 2603 747 3093 
Q 1141 3584 1784 3584 
Q 2172 3584 2450 3431 
Q 2728 3278 2906 2969 
L 2906 3500 
L 3481 3500 
L 3481 434 
z
" transform="scale(0.015625)"/>
       <path id="DejaVuSans-75" d="M 544 1381 
L 544 3500 
L 1119 3500 
L 1119 1403 
Q 1119 906 1312 657 
Q 1506 409 1894 409 
Q 2359 409 2629 706 
Q 2900 1003 2900 1516 
L 2900 3500 
L 3475 3500 
L 3475 0 
L 2900 0 
L 2900 538 
Q 2691 219 2414 64 
Q 2138 -91 1772 -91 
Q 1169 -91 856 284 
Q 544 659 544 1381 
z
M 1991 3584 
L 1991 3584 
z
" transform="scale(0.015625)"/>
      </defs>
      <use xlink:href="#DejaVuSans-44"/>
      <use xlink:href="#DejaVuSans-69" x="77.001953"/>
      <use xlink:href="#DejaVuSans-73" x="104.785156"/>
      <use xlink:href="#DejaVuSans-74" x="156.884766"/>
      <use xlink:href="#DejaVuSans-69" x="196.09375"/>
      <use xlink:href="#DejaVuSans-6e" x="223.876953"/>
      <use xlink:href="#DejaVuSans-67" x="287.255859"/>
      <use xlink:href="#DejaVuSans-75" x="350.732422"/>
      <use xlink:href="#DejaVuSans-69" x="414.111328"/>
      <use xlink:href="#DejaVuSans-73" x="441.894531"/>
      <use xlink:href="#DejaVuSans-61" x="493.994141"/>
      <use xlink:href="#DejaVuSans-62" x="555.273438"/>
      <use xlink:href="#DejaVuSans-6c" x="618.75"/>
      <use xlink:href="#DejaVuSans-65" x="646.533203"/>
     </g>
    </g>
    <g id="line2d_17">
     <path d="M 408.77 72.2315 
L 424.77 72.2315 
L 440.77 72.2315 
" style="fill: none; stroke: #ff7f0e; stroke-width: 1.5; stroke-linecap: square"/>
    </g>
    <g id="text_10">
     <!-- Symmetric -->
     <g transform="translate(453.57 77.8315) scale(0.16 -0.16)">
      <defs>
       <path id="DejaVuSans-53" d="M 3425 4513 
L 3425 3897 
Q 3066 4069 2747 4153 
Q 2428 4238 2131 4238 
Q 1616 4238 1336 4038 
Q 1056 3838 1056 3469 
Q 1056 3159 1242 3001 
Q 1428 2844 1947 2747 
L 2328 2669 
Q 3034 2534 3370 2195 
Q 3706 1856 3706 1288 
Q 3706 609 3251 259 
Q 2797 -91 1919 -91 
Q 1588 -91 1214 -16 
Q 841 59 441 206 
L 441 856 
Q 825 641 1194 531 
Q 1563 422 1919 422 
Q 2459 422 2753 634 
Q 3047 847 3047 1241 
Q 3047 1584 2836 1778 
Q 2625 1972 2144 2069 
L 1759 2144 
Q 1053 2284 737 2584 
Q 422 2884 422 3419 
Q 422 4038 858 4394 
Q 1294 4750 2059 4750 
Q 2388 4750 2728 4690 
Q 3069 4631 3425 4513 
z
" transform="scale(0.015625)"/>
       <path id="DejaVuSans-6d" d="M 3328 2828 
Q 3544 3216 3844 3400 
Q 4144 3584 4550 3584 
Q 5097 3584 5394 3201 
Q 5691 2819 5691 2113 
L 5691 0 
L 5113 0 
L 5113 2094 
Q 5113 2597 4934 2840 
Q 4756 3084 4391 3084 
Q 3944 3084 3684 2787 
Q 3425 2491 3425 1978 
L 3425 0 
L 2847 0 
L 2847 2094 
Q 2847 2600 2669 2842 
Q 2491 3084 2119 3084 
Q 1678 3084 1418 2786 
Q 1159 2488 1159 1978 
L 1159 0 
L 581 0 
L 581 3500 
L 1159 3500 
L 1159 2956 
Q 1356 3278 1631 3431 
Q 1906 3584 2284 3584 
Q 2666 3584 2933 3390 
Q 3200 3197 3328 2828 
z
" transform="scale(0.015625)"/>
      </defs>
      <use xlink:href="#DejaVuSans-53"/>
      <use xlink:href="#DejaVuSans-79" x="63.476562"/>
      <use xlink:href="#DejaVuSans-6d" x="122.65625"/>
      <use xlink:href="#DejaVuSans-6d" x="220.068359"/>
      <use xlink:href="#DejaVuSans-65" x="317.480469"/>
      <use xlink:href="#DejaVuSans-74" x="379.003906"/>
      <use xlink:href="#DejaVuSans-72" x="418.212891"/>
      <use xlink:href="#DejaVuSans-69" x="459.326172"/>
      <use xlink:href="#DejaVuSans-63" x="487.109375"/>
     </g>
    </g>
    <g id="line2d_18">
     <path d="M 408.77 95.7165 
L 424.77 95.7165 
L 440.77 95.7165 
" style="fill: none; stroke: #2ca02c; stroke-width: 1.5; stroke-linecap: square"/>
    </g>
    <g id="text_11">
     <!-- Antisymmetric -->
     <g transform="translate(453.57 101.3165) scale(0.16 -0.16)">
      <defs>
       <path id="DejaVuSans-41" d="M 2188 4044 
L 1331 1722 
L 3047 1722 
L 2188 4044 
z
M 1831 4666 
L 2547 4666 
L 4325 0 
L 3669 0 
L 3244 1197 
L 1141 1197 
L 716 0 
L 50 0 
L 1831 4666 
z
" transform="scale(0.015625)"/>
      </defs>
      <use xlink:href="#DejaVuSans-41"/>
      <use xlink:href="#DejaVuSans-6e" x="68.408203"/>
      <use xlink:href="#DejaVuSans-74" x="131.787109"/>
      <use xlink:href="#DejaVuSans-69" x="170.996094"/>
      <use xlink:href="#DejaVuSans-73" x="198.779297"/>
      <use xlink:href="#DejaVuSans-79" x="250.878906"/>
      <use xlink:href="#DejaVuSans-6d" x="310.058594"/>
      <use xlink:href="#DejaVuSans-6d" x="407.470703"/>
      <use xlink:href="#DejaVuSans-65" x="504.882812"/>
      <use xlink:href="#DejaVuSans-74" x="566.40625"/>
      <use xlink:href="#DejaVuSans-72" x="605.615234"/>
      <use xlink:href="#DejaVuSans-69" x="646.728516"/>
      <use xlink:href="#DejaVuSans-63" x="674.511719"/>
     </g>
    </g>
   </g>
  </g>
 </g>
 <defs>
  <clipPath id="pc83ac9b284">
   <rect x="26.685" y="27.789" width="558" height="443.52"/>
  </clipPath>
 </defs>
</svg>
