<?xml version="1.0" encoding="utf-8" standalone="no"?>
<!DOCTYPE svg PUBLIC "-//W3C//DTD SVG 1.1//EN"
  "http://www.w3.org/Graphics/SVG/1.1/DTD/svg11.dtd">
<svg xmlns:xlink="http://www.w3.org/1999/xlink" width="630.83pt" height="450.985pt" viewBox="0 0 630.83 450.985" xmlns="http://www.w3.org/2000/svg" version="1.1">
 <metadata>
  <rdf:RDF xmlns:dc="http://purl.org/dc/elements/1.1/" xmlns:cc="http://creativecommons.org/ns#" xmlns:rdf="http://www.w3.org/1999/02/22-rdf-syntax-ns#">
   <cc:Work>
    <dc:type rdf:resource="http://purl.org/dc/dcmitype/StillImage"/>
    <dc:date>2024-08-01T14:48:50.214428</dc:date>
    <dc:format>image/svg+xml</dc:format>
    <dc:creator>
     <cc:Agent>
      <dc:title>Matplotlib v3.7.1, https://matplotlib.org/</dc:title>
     </cc:Agent>
    </dc:creator>
   </cc:Work>
  </rdf:RDF>
 </metadata>
 <defs>
  <style type="text/css">*{stroke-linejoin: round; stroke-linecap: butt}</style>
 </defs>
 <g id="figure_1">
  <g id="patch_1">
   <path d="M 0 450.985 
L 630.83 450.985 
L 630.83 0 
L 0 0 
z
" style="fill: #ffffff"/>
  </g>
  <g id="axes_1">
   <g id="patch_2">
    <path d="M 65.63 395.28 
L 623.63 395.28 
L 623.63 7.2 
L 65.63 7.2 
z
" style="fill: #ffffff"/>
   </g>
   <g id="matplotlib.axis_1">
    <g id="xtick_1">
     <g id="line2d_1">
      <defs>
       <path id="m6be3768741" d="M 0 0 
L 0 10 
" style="stroke: #000000; stroke-width: 2.5"/>
      </defs>
      <g>
       <use xlink:href="#m6be3768741" x="90.993636" y="395.28" style="stroke: #000000; stroke-width: 2.5"/>
      </g>
     </g>
     <g id="text_1">
      <!-- −10.0 -->
      <g transform="translate(66.477386 420.9375) scale(0.16 -0.16)">
       <defs>
        <path id="DejaVuSans-2212" d="M 678 2272 
L 4684 2272 
L 4684 1741 
L 678 1741 
L 678 2272 
z
" transform="scale(0.015625)"/>
        <path id="DejaVuSans-31" d="M 794 531 
L 1825 531 
L 1825 4091 
L 703 3866 
L 703 4441 
L 1819 4666 
L 2450 4666 
L 2450 531 
L 3481 531 
L 3481 0 
L 794 0 
L 794 531 
z
" transform="scale(0.015625)"/>
        <path id="DejaVuSans-30" d="M 2034 4250 
Q 1547 4250 1301 3770 
Q 1056 3291 1056 2328 
Q 1056 1369 1301 889 
Q 1547 409 2034 409 
Q 2525 409 2770 889 
Q 3016 1369 3016 2328 
Q 3016 3291 2770 3770 
Q 2525 4250 2034 4250 
z
M 2034 4750 
Q 2819 4750 3233 4129 
Q 3647 3509 3647 2328 
Q 3647 1150 3233 529 
Q 2819 -91 2034 -91 
Q 1250 -91 836 529 
Q 422 1150 422 2328 
Q 422 3509 836 4129 
Q 1250 4750 2034 4750 
z
" transform="scale(0.015625)"/>
        <path id="DejaVuSans-2e" d="M 684 794 
L 1344 794 
L 1344 0 
L 684 0 
L 684 794 
z
" transform="scale(0.015625)"/>
       </defs>
       <use xlink:href="#DejaVuSans-2212"/>
       <use xlink:href="#DejaVuSans-31" x="83.789062"/>
       <use xlink:href="#DejaVuSans-30" x="147.412109"/>
       <use xlink:href="#DejaVuSans-2e" x="211.035156"/>
       <use xlink:href="#DejaVuSans-30" x="242.822266"/>
      </g>
     </g>
    </g>
    <g id="xtick_2">
     <g id="line2d_2">
      <g>
       <use xlink:href="#m6be3768741" x="154.402727" y="395.28" style="stroke: #000000; stroke-width: 2.5"/>
      </g>
     </g>
     <g id="text_2">
      <!-- −7.5 -->
      <g transform="translate(134.976477 420.9375) scale(0.16 -0.16)">
       <defs>
        <path id="DejaVuSans-37" d="M 525 4666 
L 3525 4666 
L 3525 4397 
L 1831 0 
L 1172 0 
L 2766 4134 
L 525 4134 
L 525 4666 
z
" transform="scale(0.015625)"/>
        <path id="DejaVuSans-35" d="M 691 4666 
L 3169 4666 
L 3169 4134 
L 1269 4134 
L 1269 2991 
Q 1406 3038 1543 3061 
Q 1681 3084 1819 3084 
Q 2600 3084 3056 2656 
Q 3513 2228 3513 1497 
Q 3513 744 3044 326 
Q 2575 -91 1722 -91 
Q 1428 -91 1123 -41 
Q 819 9 494 109 
L 494 744 
Q 775 591 1075 516 
Q 1375 441 1709 441 
Q 2250 441 2565 725 
Q 2881 1009 2881 1497 
Q 2881 1984 2565 2268 
Q 2250 2553 1709 2553 
Q 1456 2553 1204 2497 
Q 953 2441 691 2322 
L 691 4666 
z
" transform="scale(0.015625)"/>
       </defs>
       <use xlink:href="#DejaVuSans-2212"/>
       <use xlink:href="#DejaVuSans-37" x="83.789062"/>
       <use xlink:href="#DejaVuSans-2e" x="147.412109"/>
       <use xlink:href="#DejaVuSans-35" x="179.199219"/>
      </g>
     </g>
    </g>
    <g id="xtick_3">
     <g id="line2d_3">
      <g>
       <use xlink:href="#m6be3768741" x="217.811818" y="395.28" style="stroke: #000000; stroke-width: 2.5"/>
      </g>
     </g>
     <g id="text_3">
      <!-- −5.0 -->
      <g transform="translate(198.385568 420.9375) scale(0.16 -0.16)">
       <use xlink:href="#DejaVuSans-2212"/>
       <use xlink:href="#DejaVuSans-35" x="83.789062"/>
       <use xlink:href="#DejaVuSans-2e" x="147.412109"/>
       <use xlink:href="#DejaVuSans-30" x="179.199219"/>
      </g>
     </g>
    </g>
    <g id="xtick_4">
     <g id="line2d_4">
      <g>
       <use xlink:href="#m6be3768741" x="281.220909" y="395.28" style="stroke: #000000; stroke-width: 2.5"/>
      </g>
     </g>
     <g id="text_4">
      <!-- −2.5 -->
      <g transform="translate(261.794659 420.9375) scale(0.16 -0.16)">
       <defs>
        <path id="DejaVuSans-32" d="M 1228 531 
L 3431 531 
L 3431 0 
L 469 0 
L 469 531 
Q 828 903 1448 1529 
Q 2069 2156 2228 2338 
Q 2531 2678 2651 2914 
Q 2772 3150 2772 3378 
Q 2772 3750 2511 3984 
Q 2250 4219 1831 4219 
Q 1534 4219 1204 4116 
Q 875 4013 500 3803 
L 500 4441 
Q 881 4594 1212 4672 
Q 1544 4750 1819 4750 
Q 2544 4750 2975 4387 
Q 3406 4025 3406 3419 
Q 3406 3131 3298 2873 
Q 3191 2616 2906 2266 
Q 2828 2175 2409 1742 
Q 1991 1309 1228 531 
z
" transform="scale(0.015625)"/>
       </defs>
       <use xlink:href="#DejaVuSans-2212"/>
       <use xlink:href="#DejaVuSans-32" x="83.789062"/>
       <use xlink:href="#DejaVuSans-2e" x="147.412109"/>
       <use xlink:href="#DejaVuSans-35" x="179.199219"/>
      </g>
     </g>
    </g>
    <g id="xtick_5">
     <g id="line2d_5">
      <g>
       <use xlink:href="#m6be3768741" x="344.63" y="395.28" style="stroke: #000000; stroke-width: 2.5"/>
      </g>
     </g>
     <g id="text_5">
      <!-- 0.0 -->
      <g transform="translate(331.9075 420.9375) scale(0.16 -0.16)">
       <use xlink:href="#DejaVuSans-30"/>
       <use xlink:href="#DejaVuSans-2e" x="63.623047"/>
       <use xlink:href="#DejaVuSans-30" x="95.410156"/>
      </g>
     </g>
    </g>
    <g id="xtick_6">
     <g id="line2d_6">
      <g>
       <use xlink:href="#m6be3768741" x="408.039091" y="395.28" style="stroke: #000000; stroke-width: 2.5"/>
      </g>
     </g>
     <g id="text_6">
      <!-- 2.5 -->
      <g transform="translate(395.316591 420.9375) scale(0.16 -0.16)">
       <use xlink:href="#DejaVuSans-32"/>
       <use xlink:href="#DejaVuSans-2e" x="63.623047"/>
       <use xlink:href="#DejaVuSans-35" x="95.410156"/>
      </g>
     </g>
    </g>
    <g id="xtick_7">
     <g id="line2d_7">
      <g>
       <use xlink:href="#m6be3768741" x="471.448182" y="395.28" style="stroke: #000000; stroke-width: 2.5"/>
      </g>
     </g>
     <g id="text_7">
      <!-- 5.0 -->
      <g transform="translate(458.725682 420.9375) scale(0.16 -0.16)">
       <use xlink:href="#DejaVuSans-35"/>
       <use xlink:href="#DejaVuSans-2e" x="63.623047"/>
       <use xlink:href="#DejaVuSans-30" x="95.410156"/>
      </g>
     </g>
    </g>
    <g id="xtick_8">
     <g id="line2d_8">
      <g>
       <use xlink:href="#m6be3768741" x="534.857273" y="395.28" style="stroke: #000000; stroke-width: 2.5"/>
      </g>
     </g>
     <g id="text_8">
      <!-- 7.5 -->
      <g transform="translate(522.134773 420.9375) scale(0.16 -0.16)">
       <use xlink:href="#DejaVuSans-37"/>
       <use xlink:href="#DejaVuSans-2e" x="63.623047"/>
       <use xlink:href="#DejaVuSans-35" x="95.410156"/>
      </g>
     </g>
    </g>
    <g id="xtick_9">
     <g id="line2d_9">
      <g>
       <use xlink:href="#m6be3768741" x="598.266364" y="395.28" style="stroke: #000000; stroke-width: 2.5"/>
      </g>
     </g>
     <g id="text_9">
      <!-- 10.0 -->
      <g transform="translate(580.453864 420.9375) scale(0.16 -0.16)">
       <use xlink:href="#DejaVuSans-31"/>
       <use xlink:href="#DejaVuSans-30" x="63.623047"/>
       <use xlink:href="#DejaVuSans-2e" x="127.246094"/>
       <use xlink:href="#DejaVuSans-30" x="159.033203"/>
      </g>
     </g>
    </g>
    <g id="text_10">
     <!-- Detuning $\Delta$ -->
     <g transform="translate(299.83 440.425) scale(0.16 -0.16)">
      <defs>
       <path id="DejaVuSans-44" d="M 1259 4147 
L 1259 519 
L 2022 519 
Q 2988 519 3436 956 
Q 3884 1394 3884 2338 
Q 3884 3275 3436 3711 
Q 2988 4147 2022 4147 
L 1259 4147 
z
M 628 4666 
L 1925 4666 
Q 3281 4666 3915 4102 
Q 4550 3538 4550 2338 
Q 4550 1131 3912 565 
Q 3275 0 1925 0 
L 628 0 
L 628 4666 
z
" transform="scale(0.015625)"/>
       <path id="DejaVuSans-65" d="M 3597 1894 
L 3597 1613 
L 953 1613 
Q 991 1019 1311 708 
Q 1631 397 2203 397 
Q 2534 397 2845 478 
Q 3156 559 3463 722 
L 3463 178 
Q 3153 47 2828 -22 
Q 2503 -91 2169 -91 
Q 1331 -91 842 396 
Q 353 884 353 1716 
Q 353 2575 817 3079 
Q 1281 3584 2069 3584 
Q 2775 3584 3186 3129 
Q 3597 2675 3597 1894 
z
M 3022 2063 
Q 3016 2534 2758 2815 
Q 2500 3097 2075 3097 
Q 1594 3097 1305 2825 
Q 1016 2553 972 2059 
L 3022 2063 
z
" transform="scale(0.015625)"/>
       <path id="DejaVuSans-74" d="M 1172 4494 
L 1172 3500 
L 2356 3500 
L 2356 3053 
L 1172 3053 
L 1172 1153 
Q 1172 725 1289 603 
Q 1406 481 1766 481 
L 2356 481 
L 2356 0 
L 1766 0 
Q 1100 0 847 248 
Q 594 497 594 1153 
L 594 3053 
L 172 3053 
L 172 3500 
L 594 3500 
L 594 4494 
L 1172 4494 
z
" transform="scale(0.015625)"/>
       <path id="DejaVuSans-75" d="M 544 1381 
L 544 3500 
L 1119 3500 
L 1119 1403 
Q 1119 906 1312 657 
Q 1506 409 1894 409 
Q 2359 409 2629 706 
Q 2900 1003 2900 1516 
L 2900 3500 
L 3475 3500 
L 3475 0 
L 2900 0 
L 2900 538 
Q 2691 219 2414 64 
Q 2138 -91 1772 -91 
Q 1169 -91 856 284 
Q 544 659 544 1381 
z
M 1991 3584 
L 1991 3584 
z
" transform="scale(0.015625)"/>
       <path id="DejaVuSans-6e" d="M 3513 2113 
L 3513 0 
L 2938 0 
L 2938 2094 
Q 2938 2591 2744 2837 
Q 2550 3084 2163 3084 
Q 1697 3084 1428 2787 
Q 1159 2491 1159 1978 
L 1159 0 
L 581 0 
L 581 3500 
L 1159 3500 
L 1159 2956 
Q 1366 3272 1645 3428 
Q 1925 3584 2291 3584 
Q 2894 3584 3203 3211 
Q 3513 2838 3513 2113 
z
" transform="scale(0.015625)"/>
       <path id="DejaVuSans-69" d="M 603 3500 
L 1178 3500 
L 1178 0 
L 603 0 
L 603 3500 
z
M 603 4863 
L 1178 4863 
L 1178 4134 
L 603 4134 
L 603 4863 
z
" transform="scale(0.015625)"/>
       <path id="DejaVuSans-67" d="M 2906 1791 
Q 2906 2416 2648 2759 
Q 2391 3103 1925 3103 
Q 1463 3103 1205 2759 
Q 947 2416 947 1791 
Q 947 1169 1205 825 
Q 1463 481 1925 481 
Q 2391 481 2648 825 
Q 2906 1169 2906 1791 
z
M 3481 434 
Q 3481 -459 3084 -895 
Q 2688 -1331 1869 -1331 
Q 1566 -1331 1297 -1286 
Q 1028 -1241 775 -1147 
L 775 -588 
Q 1028 -725 1275 -790 
Q 1522 -856 1778 -856 
Q 2344 -856 2625 -561 
Q 2906 -266 2906 331 
L 2906 616 
Q 2728 306 2450 153 
Q 2172 0 1784 0 
Q 1141 0 747 490 
Q 353 981 353 1791 
Q 353 2603 747 3093 
Q 1141 3584 1784 3584 
Q 2172 3584 2450 3431 
Q 2728 3278 2906 2969 
L 2906 3500 
L 3481 3500 
L 3481 434 
z
" transform="scale(0.015625)"/>
       <path id="DejaVuSans-20" transform="scale(0.015625)"/>
       <path id="DejaVuSans-394" d="M 2188 4044 
L 906 525 
L 3472 525 
L 2188 4044 
z
M 50 0 
L 1831 4666 
L 2547 4666 
L 4325 0 
L 50 0 
z
" transform="scale(0.015625)"/>
      </defs>
      <use xlink:href="#DejaVuSans-44" transform="translate(0 0.015625)"/>
      <use xlink:href="#DejaVuSans-65" transform="translate(77.001953 0.015625)"/>
      <use xlink:href="#DejaVuSans-74" transform="translate(138.525391 0.015625)"/>
      <use xlink:href="#DejaVuSans-75" transform="translate(177.734375 0.015625)"/>
      <use xlink:href="#DejaVuSans-6e" transform="translate(241.113281 0.015625)"/>
      <use xlink:href="#DejaVuSans-69" transform="translate(304.492188 0.015625)"/>
      <use xlink:href="#DejaVuSans-6e" transform="translate(332.275391 0.015625)"/>
      <use xlink:href="#DejaVuSans-67" transform="translate(395.654297 0.015625)"/>
      <use xlink:href="#DejaVuSans-20" transform="translate(459.130859 0.015625)"/>
      <use xlink:href="#DejaVuSans-394" transform="translate(490.917969 0.015625)"/>
     </g>
    </g>
   </g>
   <g id="matplotlib.axis_2">
    <g id="ytick_1">
     <g id="line2d_10">
      <defs>
       <path id="m71e4ed4473" d="M 0 0 
L -10 0 
" style="stroke: #000000; stroke-width: 2.5"/>
      </defs>
      <g>
       <use xlink:href="#m71e4ed4473" x="65.63" y="377.657684" style="stroke: #000000; stroke-width: 2.5"/>
      </g>
     </g>
     <g id="text_11">
      <!-- 0.0 -->
      <g transform="translate(26.685 383.736434) scale(0.16 -0.16)">
       <use xlink:href="#DejaVuSans-30"/>
       <use xlink:href="#DejaVuSans-2e" x="63.623047"/>
       <use xlink:href="#DejaVuSans-30" x="95.410156"/>
      </g>
     </g>
    </g>
    <g id="ytick_2">
     <g id="line2d_11">
      <g>
       <use xlink:href="#m71e4ed4473" x="65.63" y="306.740763" style="stroke: #000000; stroke-width: 2.5"/>
      </g>
     </g>
     <g id="text_12">
      <!-- 0.1 -->
      <g transform="translate(26.685 312.819513) scale(0.16 -0.16)">
       <use xlink:href="#DejaVuSans-30"/>
       <use xlink:href="#DejaVuSans-2e" x="63.623047"/>
       <use xlink:href="#DejaVuSans-31" x="95.410156"/>
      </g>
     </g>
    </g>
    <g id="ytick_3">
     <g id="line2d_12">
      <g>
       <use xlink:href="#m71e4ed4473" x="65.63" y="235.823842" style="stroke: #000000; stroke-width: 2.5"/>
      </g>
     </g>
     <g id="text_13">
      <!-- 0.2 -->
      <g transform="translate(26.685 241.902592) scale(0.16 -0.16)">
       <use xlink:href="#DejaVuSans-30"/>
       <use xlink:href="#DejaVuSans-2e" x="63.623047"/>
       <use xlink:href="#DejaVuSans-32" x="95.410156"/>
      </g>
     </g>
    </g>
    <g id="ytick_4">
     <g id="line2d_13">
      <g>
       <use xlink:href="#m71e4ed4473" x="65.63" y="164.90692" style="stroke: #000000; stroke-width: 2.5"/>
      </g>
     </g>
     <g id="text_14">
      <!-- 0.3 -->
      <g transform="translate(26.685 170.98567) scale(0.16 -0.16)">
       <defs>
        <path id="DejaVuSans-33" d="M 2597 2516 
Q 3050 2419 3304 2112 
Q 3559 1806 3559 1356 
Q 3559 666 3084 287 
Q 2609 -91 1734 -91 
Q 1441 -91 1130 -33 
Q 819 25 488 141 
L 488 750 
Q 750 597 1062 519 
Q 1375 441 1716 441 
Q 2309 441 2620 675 
Q 2931 909 2931 1356 
Q 2931 1769 2642 2001 
Q 2353 2234 1838 2234 
L 1294 2234 
L 1294 2753 
L 1863 2753 
Q 2328 2753 2575 2939 
Q 2822 3125 2822 3475 
Q 2822 3834 2567 4026 
Q 2313 4219 1838 4219 
Q 1578 4219 1281 4162 
Q 984 4106 628 3988 
L 628 4550 
Q 988 4650 1302 4700 
Q 1616 4750 1894 4750 
Q 2613 4750 3031 4423 
Q 3450 4097 3450 3541 
Q 3450 3153 3228 2886 
Q 3006 2619 2597 2516 
z
" transform="scale(0.015625)"/>
       </defs>
       <use xlink:href="#DejaVuSans-30"/>
       <use xlink:href="#DejaVuSans-2e" x="63.623047"/>
       <use xlink:href="#DejaVuSans-33" x="95.410156"/>
      </g>
     </g>
    </g>
    <g id="ytick_5">
     <g id="line2d_14">
      <g>
       <use xlink:href="#m71e4ed4473" x="65.63" y="93.989999" style="stroke: #000000; stroke-width: 2.5"/>
      </g>
     </g>
     <g id="text_15">
      <!-- 0.4 -->
      <g transform="translate(26.685 100.068749) scale(0.16 -0.16)">
       <defs>
        <path id="DejaVuSans-34" d="M 2419 4116 
L 825 1625 
L 2419 1625 
L 2419 4116 
z
M 2253 4666 
L 3047 4666 
L 3047 1625 
L 3713 1625 
L 3713 1100 
L 3047 1100 
L 3047 0 
L 2419 0 
L 2419 1100 
L 313 1100 
L 313 1709 
L 2253 4666 
z
" transform="scale(0.015625)"/>
       </defs>
       <use xlink:href="#DejaVuSans-30"/>
       <use xlink:href="#DejaVuSans-2e" x="63.623047"/>
       <use xlink:href="#DejaVuSans-34" x="95.410156"/>
      </g>
     </g>
    </g>
    <g id="ytick_6">
     <g id="line2d_15">
      <g>
       <use xlink:href="#m71e4ed4473" x="65.63" y="23.073078" style="stroke: #000000; stroke-width: 2.5"/>
      </g>
     </g>
     <g id="text_16">
      <!-- 0.5 -->
      <g transform="translate(26.685 29.151828) scale(0.16 -0.16)">
       <use xlink:href="#DejaVuSans-30"/>
       <use xlink:href="#DejaVuSans-2e" x="63.623047"/>
       <use xlink:href="#DejaVuSans-35" x="95.410156"/>
      </g>
     </g>
    </g>
    <g id="text_17">
     <!-- Excited state fraction -->
     <g transform="translate(19.3575 286.72875) rotate(-90) scale(0.16 -0.16)">
      <defs>
       <path id="DejaVuSans-45" d="M 628 4666 
L 3578 4666 
L 3578 4134 
L 1259 4134 
L 1259 2753 
L 3481 2753 
L 3481 2222 
L 1259 2222 
L 1259 531 
L 3634 531 
L 3634 0 
L 628 0 
L 628 4666 
z
" transform="scale(0.015625)"/>
       <path id="DejaVuSans-78" d="M 3513 3500 
L 2247 1797 
L 3578 0 
L 2900 0 
L 1881 1375 
L 863 0 
L 184 0 
L 1544 1831 
L 300 3500 
L 978 3500 
L 1906 2253 
L 2834 3500 
L 3513 3500 
z
" transform="scale(0.015625)"/>
       <path id="DejaVuSans-63" d="M 3122 3366 
L 3122 2828 
Q 2878 2963 2633 3030 
Q 2388 3097 2138 3097 
Q 1578 3097 1268 2742 
Q 959 2388 959 1747 
Q 959 1106 1268 751 
Q 1578 397 2138 397 
Q 2388 397 2633 464 
Q 2878 531 3122 666 
L 3122 134 
Q 2881 22 2623 -34 
Q 2366 -91 2075 -91 
Q 1284 -91 818 406 
Q 353 903 353 1747 
Q 353 2603 823 3093 
Q 1294 3584 2113 3584 
Q 2378 3584 2631 3529 
Q 2884 3475 3122 3366 
z
" transform="scale(0.015625)"/>
       <path id="DejaVuSans-64" d="M 2906 2969 
L 2906 4863 
L 3481 4863 
L 3481 0 
L 2906 0 
L 2906 525 
Q 2725 213 2448 61 
Q 2172 -91 1784 -91 
Q 1150 -91 751 415 
Q 353 922 353 1747 
Q 353 2572 751 3078 
Q 1150 3584 1784 3584 
Q 2172 3584 2448 3432 
Q 2725 3281 2906 2969 
z
M 947 1747 
Q 947 1113 1208 752 
Q 1469 391 1925 391 
Q 2381 391 2643 752 
Q 2906 1113 2906 1747 
Q 2906 2381 2643 2742 
Q 2381 3103 1925 3103 
Q 1469 3103 1208 2742 
Q 947 2381 947 1747 
z
" transform="scale(0.015625)"/>
       <path id="DejaVuSans-73" d="M 2834 3397 
L 2834 2853 
Q 2591 2978 2328 3040 
Q 2066 3103 1784 3103 
Q 1356 3103 1142 2972 
Q 928 2841 928 2578 
Q 928 2378 1081 2264 
Q 1234 2150 1697 2047 
L 1894 2003 
Q 2506 1872 2764 1633 
Q 3022 1394 3022 966 
Q 3022 478 2636 193 
Q 2250 -91 1575 -91 
Q 1294 -91 989 -36 
Q 684 19 347 128 
L 347 722 
Q 666 556 975 473 
Q 1284 391 1588 391 
Q 1994 391 2212 530 
Q 2431 669 2431 922 
Q 2431 1156 2273 1281 
Q 2116 1406 1581 1522 
L 1381 1569 
Q 847 1681 609 1914 
Q 372 2147 372 2553 
Q 372 3047 722 3315 
Q 1072 3584 1716 3584 
Q 2034 3584 2315 3537 
Q 2597 3491 2834 3397 
z
" transform="scale(0.015625)"/>
       <path id="DejaVuSans-61" d="M 2194 1759 
Q 1497 1759 1228 1600 
Q 959 1441 959 1056 
Q 959 750 1161 570 
Q 1363 391 1709 391 
Q 2188 391 2477 730 
Q 2766 1069 2766 1631 
L 2766 1759 
L 2194 1759 
z
M 3341 1997 
L 3341 0 
L 2766 0 
L 2766 531 
Q 2569 213 2275 61 
Q 1981 -91 1556 -91 
Q 1019 -91 701 211 
Q 384 513 384 1019 
Q 384 1609 779 1909 
Q 1175 2209 1959 2209 
L 2766 2209 
L 2766 2266 
Q 2766 2663 2505 2880 
Q 2244 3097 1772 3097 
Q 1472 3097 1187 3025 
Q 903 2953 641 2809 
L 641 3341 
Q 956 3463 1253 3523 
Q 1550 3584 1831 3584 
Q 2591 3584 2966 3190 
Q 3341 2797 3341 1997 
z
" transform="scale(0.015625)"/>
       <path id="DejaVuSans-66" d="M 2375 4863 
L 2375 4384 
L 1825 4384 
Q 1516 4384 1395 4259 
Q 1275 4134 1275 3809 
L 1275 3500 
L 2222 3500 
L 2222 3053 
L 1275 3053 
L 1275 0 
L 697 0 
L 697 3053 
L 147 3053 
L 147 3500 
L 697 3500 
L 697 3744 
Q 697 4328 969 4595 
Q 1241 4863 1831 4863 
L 2375 4863 
z
" transform="scale(0.015625)"/>
       <path id="DejaVuSans-72" d="M 2631 2963 
Q 2534 3019 2420 3045 
Q 2306 3072 2169 3072 
Q 1681 3072 1420 2755 
Q 1159 2438 1159 1844 
L 1159 0 
L 581 0 
L 581 3500 
L 1159 3500 
L 1159 2956 
Q 1341 3275 1631 3429 
Q 1922 3584 2338 3584 
Q 2397 3584 2469 3576 
Q 2541 3569 2628 3553 
L 2631 2963 
z
" transform="scale(0.015625)"/>
       <path id="DejaVuSans-6f" d="M 1959 3097 
Q 1497 3097 1228 2736 
Q 959 2375 959 1747 
Q 959 1119 1226 758 
Q 1494 397 1959 397 
Q 2419 397 2687 759 
Q 2956 1122 2956 1747 
Q 2956 2369 2687 2733 
Q 2419 3097 1959 3097 
z
M 1959 3584 
Q 2709 3584 3137 3096 
Q 3566 2609 3566 1747 
Q 3566 888 3137 398 
Q 2709 -91 1959 -91 
Q 1206 -91 779 398 
Q 353 888 353 1747 
Q 353 2609 779 3096 
Q 1206 3584 1959 3584 
z
" transform="scale(0.015625)"/>
      </defs>
      <use xlink:href="#DejaVuSans-45"/>
      <use xlink:href="#DejaVuSans-78" x="63.183594"/>
      <use xlink:href="#DejaVuSans-63" x="120.613281"/>
      <use xlink:href="#DejaVuSans-69" x="175.59375"/>
      <use xlink:href="#DejaVuSans-74" x="203.376953"/>
      <use xlink:href="#DejaVuSans-65" x="242.585938"/>
      <use xlink:href="#DejaVuSans-64" x="304.109375"/>
      <use xlink:href="#DejaVuSans-20" x="367.585938"/>
      <use xlink:href="#DejaVuSans-73" x="399.373047"/>
      <use xlink:href="#DejaVuSans-74" x="451.472656"/>
      <use xlink:href="#DejaVuSans-61" x="490.681641"/>
      <use xlink:href="#DejaVuSans-74" x="551.960938"/>
      <use xlink:href="#DejaVuSans-65" x="591.169922"/>
      <use xlink:href="#DejaVuSans-20" x="652.693359"/>
      <use xlink:href="#DejaVuSans-66" x="684.480469"/>
      <use xlink:href="#DejaVuSans-72" x="719.685547"/>
      <use xlink:href="#DejaVuSans-61" x="760.798828"/>
      <use xlink:href="#DejaVuSans-63" x="822.078125"/>
      <use xlink:href="#DejaVuSans-74" x="877.058594"/>
      <use xlink:href="#DejaVuSans-69" x="916.267578"/>
      <use xlink:href="#DejaVuSans-6f" x="944.050781"/>
      <use xlink:href="#DejaVuSans-6e" x="1005.232422"/>
     </g>
    </g>
   </g>
   <g id="line2d_16">
    <path d="M 90.993636 377.64 
L 258.729107 377.506478 
L 290.243044 377.292357 
L 305.491723 376.985133 
L 314.640931 376.585127 
L 320.740403 376.105409 
L 324.806717 375.610053 
L 328.873032 374.891564 
L 331.922767 374.153905 
L 334.972503 373.225148 
L 341.071975 371.203149 
L 343.105132 370.802216 
L 345.138289 370.715977 
L 347.171447 370.968421 
L 349.204604 371.491639 
L 359.37039 374.666669 
L 363.436704 375.45474 
L 367.503019 375.998032 
L 372.585912 376.451495 
L 379.701962 376.839553 
L 389.867748 377.141716 
L 406.133006 377.368694 
L 435.613786 377.522582 
L 505.75771 377.614029 
L 598.266364 377.64 
L 598.266364 377.64 
" clip-path="url(#p70989f4cb7)" style="fill: none; stroke: #1f77b4; stroke-width: 1.5; stroke-linecap: square"/>
   </g>
   <g id="line2d_17">
    <path d="M 90.993636 377.49859 
L 181.469133 377.274826 
L 223.148856 376.97095 
L 247.546743 376.590083 
L 263.812 376.130468 
L 274.994365 375.620549 
L 284.143573 374.990354 
L 291.259623 374.279038 
L 296.342516 373.586661 
L 301.425409 372.666026 
L 305.491723 371.695195 
L 308.541459 370.778453 
L 311.591195 369.646606 
L 314.640931 368.232737 
L 316.674088 367.089575 
L 318.707245 365.746206 
L 320.740403 364.159926 
L 322.77356 362.279108 
L 324.806717 360.042773 
L 326.839874 357.381955 
L 328.873032 354.224995 
L 330.906189 350.510484 
L 332.939346 346.213521 
L 334.972503 341.391646 
L 339.038818 331.218285 
L 340.055396 328.940596 
L 341.071975 326.951009 
L 342.088553 325.348803 
L 343.105132 324.223205 
L 344.121711 323.642042 
L 345.138289 323.642042 
L 346.154868 324.223205 
L 347.171447 325.348803 
L 348.188025 326.951009 
L 349.204604 328.940596 
L 351.237761 333.685314 
L 355.304075 343.859662 
L 357.337233 348.433839 
L 359.37039 352.440274 
L 361.403547 355.869798 
L 363.436704 358.769942 
L 365.469862 361.209539 
L 367.503019 363.25993 
L 369.536176 364.986438 
L 371.569333 366.445388 
L 373.60249 367.683833 
L 376.652226 369.210588 
L 379.701962 370.427954 
L 382.751698 371.410175 
L 386.818012 372.446024 
L 390.884327 373.250704 
L 395.96722 374.024455 
L 402.066692 374.715394 
L 409.182742 375.301635 
L 418.331949 375.831757 
L 430.530893 376.301459 
L 446.79615 376.69182 
L 470.177459 377.014194 
L 506.774289 377.270044 
L 569.802163 377.455985 
L 598.266364 377.49859 
L 598.266364 377.49859 
" clip-path="url(#p70989f4cb7)" style="fill: none; stroke: #ff7f0e; stroke-width: 1.5; stroke-linecap: square"/>
   </g>
   <g id="line2d_18">
    <path d="M 90.993636 375.897959 
L 124.540731 375.326317 
L 149.955196 374.686023 
L 170.286768 373.963972 
L 186.552026 373.179884 
L 200.784126 372.271173 
L 211.966491 371.350083 
L 222.132277 370.293704 
L 230.264906 369.247729 
L 237.380956 368.141111 
L 244.497007 366.804746 
L 250.596478 365.426348 
L 255.679371 364.071179 
L 260.762265 362.483344 
L 264.828579 361.009202 
L 268.894893 359.31589 
L 272.961208 357.359298 
L 276.010944 355.686329 
L 279.06068 353.805971 
L 282.110415 351.684136 
L 285.160151 349.279875 
L 288.209887 346.543798 
L 291.259623 343.416121 
L 294.309359 339.824259 
L 296.342516 337.128944 
L 298.375673 334.15773 
L 300.40883 330.875587 
L 302.441988 327.242652 
L 304.475145 323.213681 
L 306.508302 318.737542 
L 308.541459 313.756819 
L 310.574617 308.207659 
L 312.607774 302.020052 
L 314.640931 295.118844 
L 316.674088 287.425915 
L 318.707245 278.864159 
L 320.740403 269.3641 
L 322.77356 258.874227 
L 324.806717 247.376253 
L 326.839874 234.906338 
L 329.88961 214.667695 
L 335.989082 172.94724 
L 338.022239 160.884798 
L 339.038818 155.652181 
L 340.055396 151.094734 
L 341.071975 147.311803 
L 342.088553 144.390652 
L 343.105132 142.401706 
L 344.121711 141.394459 
L 345.138289 141.394459 
L 346.154868 142.401706 
L 347.171447 144.390652 
L 348.188025 147.311803 
L 349.204604 151.094734 
L 350.221182 155.652181 
L 352.25434 166.686107 
L 354.287497 179.561152 
L 358.353811 207.637144 
L 361.403547 228.339745 
L 364.453283 247.376253 
L 366.48644 258.874227 
L 368.519597 269.3641 
L 370.552755 278.864159 
L 372.585912 287.425915 
L 374.619069 295.118844 
L 376.652226 302.020052 
L 378.685383 308.207659 
L 380.718541 313.756819 
L 382.751698 318.737542 
L 384.784855 323.213681 
L 386.818012 327.242652 
L 388.85117 330.875587 
L 390.884327 334.15773 
L 392.917484 337.128944 
L 394.950641 339.824259 
L 398.000377 343.416121 
L 401.050113 346.543798 
L 404.099849 349.279875 
L 407.149585 351.684136 
L 410.19932 353.805971 
L 413.249056 355.686329 
L 417.315371 357.875933 
L 421.381685 359.762009 
L 425.448 361.396768 
L 429.514314 362.821951 
L 434.597207 364.359309 
L 439.6801 365.673388 
L 445.779572 367.012025 
L 452.895622 368.311955 
L 460.011672 369.39011 
L 468.144301 370.410722 
L 478.310087 371.443139 
L 489.492452 372.344815 
L 502.707974 373.179884 
L 517.956653 373.921204 
L 537.271647 374.623775 
L 560.652955 375.238628 
L 590.133735 375.780383 
L 598.266364 375.897959 
L 598.266364 375.897959 
" clip-path="url(#p70989f4cb7)" style="fill: none; stroke: #2ca02c; stroke-width: 1.5; stroke-linecap: square"/>
   </g>
   <g id="line2d_19">
    <path d="M 90.993636 362.424933 
L 104.209158 360.790666 
L 115.391523 359.197603 
L 126.573888 357.372975 
L 136.739674 355.474843 
L 145.888881 353.53546 
L 154.02151 351.596221 
L 162.154139 349.421045 
L 169.270189 347.294221 
L 176.38624 344.926948 
L 182.485711 342.679365 
L 188.585183 340.202313 
L 194.684655 337.465129 
L 199.767548 334.959912 
L 204.850441 332.225772 
L 209.933334 329.23583 
L 215.016227 325.959509 
L 219.082541 323.109019 
L 223.148856 320.033026 
L 227.21517 316.709303 
L 231.281485 313.113186 
L 235.347799 309.217338 
L 239.414114 304.991493 
L 243.480428 300.402217 
L 247.546743 295.412685 
L 251.613057 289.982504 
L 255.679371 284.067624 
L 258.729107 279.284835 
L 261.778843 274.181285 
L 264.828579 268.734643 
L 267.878315 262.921816 
L 270.928051 256.719225 
L 273.977786 250.103214 
L 277.027522 243.050597 
L 280.077258 235.539403 
L 283.126994 227.549845 
L 286.17673 219.06557 
L 290.243044 206.964996 
L 294.309359 193.958965 
L 298.375673 180.073226 
L 302.441988 165.378338 
L 307.524881 146.076332 
L 322.77356 87.150415 
L 325.823296 76.58375 
L 328.873032 66.978424 
L 330.906189 61.238185 
L 332.939346 56.116698 
L 334.972503 51.68476 
L 337.00566 48.006507 
L 338.022239 46.467692 
L 339.038818 45.137227 
L 340.055396 44.020314 
L 341.071975 43.121366 
L 342.088553 42.44397 
L 343.105132 41.990846 
L 344.121711 41.763825 
L 345.138289 41.763825 
L 346.154868 41.990846 
L 347.171447 42.44397 
L 348.188025 43.121366 
L 349.204604 44.020314 
L 350.221182 45.137227 
L 351.237761 46.467692 
L 352.25434 48.006507 
L 354.287497 51.68476 
L 356.320654 56.116698 
L 358.353811 61.238185 
L 360.386968 66.978424 
L 362.420126 73.262203 
L 365.469862 83.537501 
L 368.519597 94.601151 
L 373.60249 114.126762 
L 384.784855 157.765273 
L 389.867748 176.471421 
L 393.934063 190.568117 
L 398.000377 203.79801 
L 402.066692 216.125401 
L 406.133006 227.549845 
L 409.182742 235.539403 
L 412.232478 243.050597 
L 415.282214 250.103214 
L 418.331949 256.719225 
L 421.381685 262.921816 
L 424.431421 268.734643 
L 427.481157 274.181285 
L 430.530893 279.284835 
L 434.597207 285.594331 
L 438.663522 291.383706 
L 442.729836 296.699738 
L 446.79615 301.585561 
L 450.862465 306.080663 
L 454.928779 310.221002 
L 458.995094 314.039199 
L 463.061408 317.564763 
L 467.127723 320.824341 
L 471.194037 323.841964 
L 476.27693 327.30653 
L 481.359823 330.464371 
L 486.442716 333.348541 
L 491.525609 335.988077 
L 496.608502 338.408514 
L 502.707974 341.055292 
L 508.807446 343.452669 
L 514.906917 345.629833 
L 522.022968 347.924992 
L 529.139018 349.988938 
L 537.271647 352.101798 
L 545.404276 353.987287 
L 554.553483 355.874725 
L 564.719269 357.723883 
L 574.885056 359.351383 
L 586.06742 360.925345 
L 598.266364 362.424933 
L 598.266364 362.424933 
" clip-path="url(#p70989f4cb7)" style="fill: none; stroke: #d62728; stroke-width: 1.5; stroke-linecap: square"/>
   </g>
   <g id="line2d_20">
    <path d="M 90.993636 259.659479 
L 99.126265 254.486695 
L 107.258894 249.031761 
L 115.391523 243.281016 
L 123.524152 237.221097 
L 130.640202 231.654984 
L 137.756253 225.834398 
L 144.872303 219.75217 
L 151.988353 213.402202 
L 159.104403 206.779797 
L 166.220454 199.882035 
L 173.336504 192.708208 
L 181.469133 184.174224 
L 189.601762 175.290666 
L 197.734391 166.072591 
L 206.883598 155.331582 
L 216.032806 144.244194 
L 227.21517 130.31921 
L 244.497007 108.363342 
L 258.729107 90.406181 
L 267.878315 79.220919 
L 274.994365 70.858418 
L 281.093837 64.005199 
L 287.193308 57.508872 
L 292.276201 52.414116 
L 297.359095 47.648714 
L 301.425409 44.097978 
L 305.491723 40.799338 
L 309.558038 37.770093 
L 313.624352 35.026596 
L 317.690667 32.584052 
L 321.756981 30.456313 
L 324.806717 29.07457 
L 327.856453 27.881435 
L 330.906189 26.880899 
L 333.955925 26.07634 
L 337.00566 25.470494 
L 340.055396 25.065435 
L 343.105132 24.862557 
L 346.154868 24.862557 
L 349.204604 25.065435 
L 352.25434 25.470494 
L 355.304075 26.07634 
L 358.353811 26.880899 
L 361.403547 27.881435 
L 364.453283 29.07457 
L 367.503019 30.456313 
L 371.569333 32.584052 
L 375.635648 35.026596 
L 379.701962 37.770093 
L 383.768277 40.799338 
L 387.834591 44.097978 
L 391.900905 47.648714 
L 396.983799 52.414116 
L 402.066692 57.508872 
L 407.149585 62.895969 
L 413.249056 69.694127 
L 420.365107 78.005489 
L 428.497735 87.887158 
L 438.663522 100.616491 
L 473.227194 144.244194 
L 483.392981 156.543144 
L 492.542188 167.242438 
L 500.674817 176.419786 
L 508.807446 185.260319 
L 516.940075 193.749899 
L 525.072704 201.881009 
L 532.188754 208.69992 
L 539.304804 215.244103 
L 546.420854 221.517027 
L 553.536905 227.523825 
L 560.652955 233.270933 
L 567.769005 238.765773 
L 575.901634 244.747173 
L 584.034263 250.422696 
L 592.166892 255.805806 
L 598.266364 259.659479 
L 598.266364 259.659479 
" clip-path="url(#p70989f4cb7)" style="fill: none; stroke: #9467bd; stroke-width: 1.5; stroke-linecap: square"/>
   </g>
   <g id="patch_3">
    <path d="M 65.63 395.28 
L 65.63 7.2 
" style="fill: none; stroke: #000000; stroke-width: 2.5; stroke-linejoin: miter; stroke-linecap: square"/>
   </g>
   <g id="patch_4">
    <path d="M 623.63 395.28 
L 623.63 7.2 
" style="fill: none; stroke: #000000; stroke-width: 2.5; stroke-linejoin: miter; stroke-linecap: square"/>
   </g>
   <g id="patch_5">
    <path d="M 65.63 395.28 
L 623.63 395.28 
" style="fill: none; stroke: #000000; stroke-width: 2.5; stroke-linejoin: miter; stroke-linecap: square"/>
   </g>
   <g id="patch_6">
    <path d="M 65.63 7.2 
L 623.63 7.2 
" style="fill: none; stroke: #000000; stroke-width: 2.5; stroke-linejoin: miter; stroke-linecap: square"/>
   </g>
   <g id="legend_1">
    <g id="patch_7">
     <path d="M 503.79 137.425 
L 612.43 137.425 
Q 615.63 137.425 615.63 134.225 
L 615.63 18.4 
Q 615.63 15.2 612.43 15.2 
L 503.79 15.2 
Q 500.59 15.2 500.59 18.4 
L 500.59 134.225 
Q 500.59 137.425 503.79 137.425 
z
" style="fill: #ffffff; opacity: 0.8; stroke: #cccccc; stroke-linejoin: miter"/>
    </g>
    <g id="line2d_21">
     <path d="M 506.99 28.1575 
L 522.99 28.1575 
L 538.99 28.1575 
" style="fill: none; stroke: #1f77b4; stroke-width: 1.5; stroke-linecap: square"/>
    </g>
    <g id="text_18">
     <!-- $\Omega = 0.1$ -->
     <g transform="translate(551.79 33.7575) scale(0.16 -0.16)">
      <defs>
       <path id="DejaVuSans-3a9" d="M 4647 556 
L 4647 0 
L 2772 0 
L 2772 556 
Q 3325 859 3634 1378 
Q 3944 1897 3944 2528 
Q 3944 3278 3531 3731 
Q 3119 4184 2444 4184 
Q 1769 4184 1355 3729 
Q 941 3275 941 2528 
Q 941 1897 1250 1378 
Q 1563 859 2119 556 
L 2119 0 
L 244 0 
L 244 556 
L 1241 556 
Q 747 991 519 1456 
Q 294 1922 294 2497 
Q 294 3491 894 4106 
Q 1491 4722 2444 4722 
Q 3391 4722 3994 4106 
Q 4594 3494 4594 2528 
Q 4594 1922 4372 1459 
Q 4150 997 3647 556 
L 4647 556 
z
" transform="scale(0.015625)"/>
       <path id="DejaVuSans-3d" d="M 678 2906 
L 4684 2906 
L 4684 2381 
L 678 2381 
L 678 2906 
z
M 678 1631 
L 4684 1631 
L 4684 1100 
L 678 1100 
L 678 1631 
z
" transform="scale(0.015625)"/>
      </defs>
      <use xlink:href="#DejaVuSans-3a9" transform="translate(0 0.78125)"/>
      <use xlink:href="#DejaVuSans-3d" transform="translate(95.898438 0.78125)"/>
      <use xlink:href="#DejaVuSans-30" transform="translate(199.169922 0.78125)"/>
      <use xlink:href="#DejaVuSans-2e" transform="translate(262.792969 0.78125)"/>
      <use xlink:href="#DejaVuSans-31" transform="translate(294.580078 0.78125)"/>
     </g>
    </g>
    <g id="line2d_22">
     <path d="M 506.99 51.6425 
L 522.99 51.6425 
L 538.99 51.6425 
" style="fill: none; stroke: #ff7f0e; stroke-width: 1.5; stroke-linecap: square"/>
    </g>
    <g id="text_19">
     <!-- $\Omega = 0.3$ -->
     <g transform="translate(551.79 57.2425) scale(0.16 -0.16)">
      <use xlink:href="#DejaVuSans-3a9" transform="translate(0 0.78125)"/>
      <use xlink:href="#DejaVuSans-3d" transform="translate(95.898438 0.78125)"/>
      <use xlink:href="#DejaVuSans-30" transform="translate(199.169922 0.78125)"/>
      <use xlink:href="#DejaVuSans-2e" transform="translate(262.792969 0.78125)"/>
      <use xlink:href="#DejaVuSans-33" transform="translate(294.580078 0.78125)"/>
     </g>
    </g>
    <g id="line2d_23">
     <path d="M 506.99 75.1275 
L 522.99 75.1275 
L 538.99 75.1275 
" style="fill: none; stroke: #2ca02c; stroke-width: 1.5; stroke-linecap: square"/>
    </g>
    <g id="text_20">
     <!-- $\Omega = 1$ -->
     <g transform="translate(551.79 80.7275) scale(0.16 -0.16)">
      <use xlink:href="#DejaVuSans-3a9" transform="translate(0 0.21875)"/>
      <use xlink:href="#DejaVuSans-3d" transform="translate(95.898438 0.21875)"/>
      <use xlink:href="#DejaVuSans-31" transform="translate(199.169922 0.21875)"/>
     </g>
    </g>
    <g id="line2d_24">
     <path d="M 506.99 98.6125 
L 522.99 98.6125 
L 538.99 98.6125 
" style="fill: none; stroke: #d62728; stroke-width: 1.5; stroke-linecap: square"/>
    </g>
    <g id="text_21">
     <!-- $\Omega = 3$ -->
     <g transform="translate(551.79 104.2125) scale(0.16 -0.16)">
      <use xlink:href="#DejaVuSans-3a9" transform="translate(0 0.78125)"/>
      <use xlink:href="#DejaVuSans-3d" transform="translate(95.898438 0.78125)"/>
      <use xlink:href="#DejaVuSans-33" transform="translate(199.169922 0.78125)"/>
     </g>
    </g>
    <g id="line2d_25">
     <path d="M 506.99 122.0975 
L 522.99 122.0975 
L 538.99 122.0975 
" style="fill: none; stroke: #9467bd; stroke-width: 1.5; stroke-linecap: square"/>
    </g>
    <g id="text_22">
     <!-- $\Omega = 10$ -->
     <g transform="translate(551.79 127.6975) scale(0.16 -0.16)">
      <use xlink:href="#DejaVuSans-3a9" transform="translate(0 0.78125)"/>
      <use xlink:href="#DejaVuSans-3d" transform="translate(95.898438 0.78125)"/>
      <use xlink:href="#DejaVuSans-31" transform="translate(199.169922 0.78125)"/>
      <use xlink:href="#DejaVuSans-30" transform="translate(262.792969 0.78125)"/>
     </g>
    </g>
   </g>
  </g>
 </g>
 <defs>
  <clipPath id="p70989f4cb7">
   <rect x="65.63" y="7.2" width="558" height="388.08"/>
  </clipPath>
 </defs>
</svg>
