<?xml version="1.0" encoding="utf-8" standalone="no"?>
<!DOCTYPE svg PUBLIC "-//W3C//DTD SVG 1.1//EN"
  "http://www.w3.org/Graphics/SVG/1.1/DTD/svg11.dtd">
<svg xmlns:xlink="http://www.w3.org/1999/xlink" width="658.67pt" height="450.95pt" viewBox="0 0 658.67 450.95" xmlns="http://www.w3.org/2000/svg" version="1.1">
 <metadata>
  <rdf:RDF xmlns:dc="http://purl.org/dc/elements/1.1/" xmlns:cc="http://creativecommons.org/ns#" xmlns:rdf="http://www.w3.org/1999/02/22-rdf-syntax-ns#">
   <cc:Work>
    <dc:type rdf:resource="http://purl.org/dc/dcmitype/StillImage"/>
    <dc:date>2024-08-06T19:49:50.020270</dc:date>
    <dc:format>image/svg+xml</dc:format>
    <dc:creator>
     <cc:Agent>
      <dc:title>Matplotlib v3.7.1, https://matplotlib.org/</dc:title>
     </cc:Agent>
    </dc:creator>
   </cc:Work>
  </rdf:RDF>
 </metadata>
 <defs>
  <style type="text/css">*{stroke-linejoin: round; stroke-linecap: butt}</style>
 </defs>
 <g id="figure_1">
  <g id="patch_1">
   <path d="M 0 450.95 
L 658.67 450.95 
L 658.67 0 
L 0 0 
z
" style="fill: #ffffff"/>
  </g>
  <g id="axes_1">
   <g id="patch_2">
    <path d="M 65.63 395.28 
L 515.63 395.28 
L 515.63 7.2 
L 65.63 7.2 
z
" style="fill: #ffffff"/>
   </g>
   <g id="matplotlib.axis_1">
    <g id="xtick_1">
     <g id="line2d_1">
      <defs>
       <path id="m04db336161" d="M 0 0 
L 0 10 
" style="stroke: #000000; stroke-width: 2.5"/>
      </defs>
      <g>
       <use xlink:href="#m04db336161" x="65.63" y="395.28" style="stroke: #000000; stroke-width: 2.5"/>
      </g>
     </g>
     <g id="text_1">
      <!-- 0.0 -->
      <g transform="translate(52.9075 420.9375) scale(0.16 -0.16)">
       <defs>
        <path id="DejaVuSans-30" d="M 2034 4250 
Q 1547 4250 1301 3770 
Q 1056 3291 1056 2328 
Q 1056 1369 1301 889 
Q 1547 409 2034 409 
Q 2525 409 2770 889 
Q 3016 1369 3016 2328 
Q 3016 3291 2770 3770 
Q 2525 4250 2034 4250 
z
M 2034 4750 
Q 2819 4750 3233 4129 
Q 3647 3509 3647 2328 
Q 3647 1150 3233 529 
Q 2819 -91 2034 -91 
Q 1250 -91 836 529 
Q 422 1150 422 2328 
Q 422 3509 836 4129 
Q 1250 4750 2034 4750 
z
" transform="scale(0.015625)"/>
        <path id="DejaVuSans-2e" d="M 684 794 
L 1344 794 
L 1344 0 
L 684 0 
L 684 794 
z
" transform="scale(0.015625)"/>
       </defs>
       <use xlink:href="#DejaVuSans-30"/>
       <use xlink:href="#DejaVuSans-2e" x="63.623047"/>
       <use xlink:href="#DejaVuSans-30" x="95.410156"/>
      </g>
     </g>
    </g>
    <g id="xtick_2">
     <g id="line2d_2">
      <g>
       <use xlink:href="#m04db336161" x="122.92578" y="395.28" style="stroke: #000000; stroke-width: 2.5"/>
      </g>
     </g>
     <g id="text_2">
      <!-- 0.1 -->
      <g transform="translate(110.20328 420.9375) scale(0.16 -0.16)">
       <defs>
        <path id="DejaVuSans-31" d="M 794 531 
L 1825 531 
L 1825 4091 
L 703 3866 
L 703 4441 
L 1819 4666 
L 2450 4666 
L 2450 531 
L 3481 531 
L 3481 0 
L 794 0 
L 794 531 
z
" transform="scale(0.015625)"/>
       </defs>
       <use xlink:href="#DejaVuSans-30"/>
       <use xlink:href="#DejaVuSans-2e" x="63.623047"/>
       <use xlink:href="#DejaVuSans-31" x="95.410156"/>
      </g>
     </g>
    </g>
    <g id="xtick_3">
     <g id="line2d_3">
      <g>
       <use xlink:href="#m04db336161" x="180.221559" y="395.28" style="stroke: #000000; stroke-width: 2.5"/>
      </g>
     </g>
     <g id="text_3">
      <!-- 0.2 -->
      <g transform="translate(167.499059 420.9375) scale(0.16 -0.16)">
       <defs>
        <path id="DejaVuSans-32" d="M 1228 531 
L 3431 531 
L 3431 0 
L 469 0 
L 469 531 
Q 828 903 1448 1529 
Q 2069 2156 2228 2338 
Q 2531 2678 2651 2914 
Q 2772 3150 2772 3378 
Q 2772 3750 2511 3984 
Q 2250 4219 1831 4219 
Q 1534 4219 1204 4116 
Q 875 4013 500 3803 
L 500 4441 
Q 881 4594 1212 4672 
Q 1544 4750 1819 4750 
Q 2544 4750 2975 4387 
Q 3406 4025 3406 3419 
Q 3406 3131 3298 2873 
Q 3191 2616 2906 2266 
Q 2828 2175 2409 1742 
Q 1991 1309 1228 531 
z
" transform="scale(0.015625)"/>
       </defs>
       <use xlink:href="#DejaVuSans-30"/>
       <use xlink:href="#DejaVuSans-2e" x="63.623047"/>
       <use xlink:href="#DejaVuSans-32" x="95.410156"/>
      </g>
     </g>
    </g>
    <g id="xtick_4">
     <g id="line2d_4">
      <g>
       <use xlink:href="#m04db336161" x="237.517339" y="395.28" style="stroke: #000000; stroke-width: 2.5"/>
      </g>
     </g>
     <g id="text_4">
      <!-- 0.3 -->
      <g transform="translate(224.794839 420.9375) scale(0.16 -0.16)">
       <defs>
        <path id="DejaVuSans-33" d="M 2597 2516 
Q 3050 2419 3304 2112 
Q 3559 1806 3559 1356 
Q 3559 666 3084 287 
Q 2609 -91 1734 -91 
Q 1441 -91 1130 -33 
Q 819 25 488 141 
L 488 750 
Q 750 597 1062 519 
Q 1375 441 1716 441 
Q 2309 441 2620 675 
Q 2931 909 2931 1356 
Q 2931 1769 2642 2001 
Q 2353 2234 1838 2234 
L 1294 2234 
L 1294 2753 
L 1863 2753 
Q 2328 2753 2575 2939 
Q 2822 3125 2822 3475 
Q 2822 3834 2567 4026 
Q 2313 4219 1838 4219 
Q 1578 4219 1281 4162 
Q 984 4106 628 3988 
L 628 4550 
Q 988 4650 1302 4700 
Q 1616 4750 1894 4750 
Q 2613 4750 3031 4423 
Q 3450 4097 3450 3541 
Q 3450 3153 3228 2886 
Q 3006 2619 2597 2516 
z
" transform="scale(0.015625)"/>
       </defs>
       <use xlink:href="#DejaVuSans-30"/>
       <use xlink:href="#DejaVuSans-2e" x="63.623047"/>
       <use xlink:href="#DejaVuSans-33" x="95.410156"/>
      </g>
     </g>
    </g>
    <g id="xtick_5">
     <g id="line2d_5">
      <g>
       <use xlink:href="#m04db336161" x="294.813118" y="395.28" style="stroke: #000000; stroke-width: 2.5"/>
      </g>
     </g>
     <g id="text_5">
      <!-- 0.4 -->
      <g transform="translate(282.090618 420.9375) scale(0.16 -0.16)">
       <defs>
        <path id="DejaVuSans-34" d="M 2419 4116 
L 825 1625 
L 2419 1625 
L 2419 4116 
z
M 2253 4666 
L 3047 4666 
L 3047 1625 
L 3713 1625 
L 3713 1100 
L 3047 1100 
L 3047 0 
L 2419 0 
L 2419 1100 
L 313 1100 
L 313 1709 
L 2253 4666 
z
" transform="scale(0.015625)"/>
       </defs>
       <use xlink:href="#DejaVuSans-30"/>
       <use xlink:href="#DejaVuSans-2e" x="63.623047"/>
       <use xlink:href="#DejaVuSans-34" x="95.410156"/>
      </g>
     </g>
    </g>
    <g id="xtick_6">
     <g id="line2d_6">
      <g>
       <use xlink:href="#m04db336161" x="352.108898" y="395.28" style="stroke: #000000; stroke-width: 2.5"/>
      </g>
     </g>
     <g id="text_6">
      <!-- 0.5 -->
      <g transform="translate(339.386398 420.9375) scale(0.16 -0.16)">
       <defs>
        <path id="DejaVuSans-35" d="M 691 4666 
L 3169 4666 
L 3169 4134 
L 1269 4134 
L 1269 2991 
Q 1406 3038 1543 3061 
Q 1681 3084 1819 3084 
Q 2600 3084 3056 2656 
Q 3513 2228 3513 1497 
Q 3513 744 3044 326 
Q 2575 -91 1722 -91 
Q 1428 -91 1123 -41 
Q 819 9 494 109 
L 494 744 
Q 775 591 1075 516 
Q 1375 441 1709 441 
Q 2250 441 2565 725 
Q 2881 1009 2881 1497 
Q 2881 1984 2565 2268 
Q 2250 2553 1709 2553 
Q 1456 2553 1204 2497 
Q 953 2441 691 2322 
L 691 4666 
z
" transform="scale(0.015625)"/>
       </defs>
       <use xlink:href="#DejaVuSans-30"/>
       <use xlink:href="#DejaVuSans-2e" x="63.623047"/>
       <use xlink:href="#DejaVuSans-35" x="95.410156"/>
      </g>
     </g>
    </g>
    <g id="xtick_7">
     <g id="line2d_7">
      <g>
       <use xlink:href="#m04db336161" x="409.404677" y="395.28" style="stroke: #000000; stroke-width: 2.5"/>
      </g>
     </g>
     <g id="text_7">
      <!-- 0.6 -->
      <g transform="translate(396.682177 420.9375) scale(0.16 -0.16)">
       <defs>
        <path id="DejaVuSans-36" d="M 2113 2584 
Q 1688 2584 1439 2293 
Q 1191 2003 1191 1497 
Q 1191 994 1439 701 
Q 1688 409 2113 409 
Q 2538 409 2786 701 
Q 3034 994 3034 1497 
Q 3034 2003 2786 2293 
Q 2538 2584 2113 2584 
z
M 3366 4563 
L 3366 3988 
Q 3128 4100 2886 4159 
Q 2644 4219 2406 4219 
Q 1781 4219 1451 3797 
Q 1122 3375 1075 2522 
Q 1259 2794 1537 2939 
Q 1816 3084 2150 3084 
Q 2853 3084 3261 2657 
Q 3669 2231 3669 1497 
Q 3669 778 3244 343 
Q 2819 -91 2113 -91 
Q 1303 -91 875 529 
Q 447 1150 447 2328 
Q 447 3434 972 4092 
Q 1497 4750 2381 4750 
Q 2619 4750 2861 4703 
Q 3103 4656 3366 4563 
z
" transform="scale(0.015625)"/>
       </defs>
       <use xlink:href="#DejaVuSans-30"/>
       <use xlink:href="#DejaVuSans-2e" x="63.623047"/>
       <use xlink:href="#DejaVuSans-36" x="95.410156"/>
      </g>
     </g>
    </g>
    <g id="xtick_8">
     <g id="line2d_8">
      <g>
       <use xlink:href="#m04db336161" x="466.700457" y="395.28" style="stroke: #000000; stroke-width: 2.5"/>
      </g>
     </g>
     <g id="text_8">
      <!-- 0.7 -->
      <g transform="translate(453.977957 420.9375) scale(0.16 -0.16)">
       <defs>
        <path id="DejaVuSans-37" d="M 525 4666 
L 3525 4666 
L 3525 4397 
L 1831 0 
L 1172 0 
L 2766 4134 
L 525 4134 
L 525 4666 
z
" transform="scale(0.015625)"/>
       </defs>
       <use xlink:href="#DejaVuSans-30"/>
       <use xlink:href="#DejaVuSans-2e" x="63.623047"/>
       <use xlink:href="#DejaVuSans-37" x="95.410156"/>
      </g>
     </g>
    </g>
    <g id="text_9">
     <!-- Time [$2\pi/\Omega$] -->
     <g transform="translate(243.27 440.4225) scale(0.16 -0.16)">
      <defs>
       <path id="DejaVuSans-54" d="M -19 4666 
L 3928 4666 
L 3928 4134 
L 2272 4134 
L 2272 0 
L 1638 0 
L 1638 4134 
L -19 4134 
L -19 4666 
z
" transform="scale(0.015625)"/>
       <path id="DejaVuSans-69" d="M 603 3500 
L 1178 3500 
L 1178 0 
L 603 0 
L 603 3500 
z
M 603 4863 
L 1178 4863 
L 1178 4134 
L 603 4134 
L 603 4863 
z
" transform="scale(0.015625)"/>
       <path id="DejaVuSans-6d" d="M 3328 2828 
Q 3544 3216 3844 3400 
Q 4144 3584 4550 3584 
Q 5097 3584 5394 3201 
Q 5691 2819 5691 2113 
L 5691 0 
L 5113 0 
L 5113 2094 
Q 5113 2597 4934 2840 
Q 4756 3084 4391 3084 
Q 3944 3084 3684 2787 
Q 3425 2491 3425 1978 
L 3425 0 
L 2847 0 
L 2847 2094 
Q 2847 2600 2669 2842 
Q 2491 3084 2119 3084 
Q 1678 3084 1418 2786 
Q 1159 2488 1159 1978 
L 1159 0 
L 581 0 
L 581 3500 
L 1159 3500 
L 1159 2956 
Q 1356 3278 1631 3431 
Q 1906 3584 2284 3584 
Q 2666 3584 2933 3390 
Q 3200 3197 3328 2828 
z
" transform="scale(0.015625)"/>
       <path id="DejaVuSans-65" d="M 3597 1894 
L 3597 1613 
L 953 1613 
Q 991 1019 1311 708 
Q 1631 397 2203 397 
Q 2534 397 2845 478 
Q 3156 559 3463 722 
L 3463 178 
Q 3153 47 2828 -22 
Q 2503 -91 2169 -91 
Q 1331 -91 842 396 
Q 353 884 353 1716 
Q 353 2575 817 3079 
Q 1281 3584 2069 3584 
Q 2775 3584 3186 3129 
Q 3597 2675 3597 1894 
z
M 3022 2063 
Q 3016 2534 2758 2815 
Q 2500 3097 2075 3097 
Q 1594 3097 1305 2825 
Q 1016 2553 972 2059 
L 3022 2063 
z
" transform="scale(0.015625)"/>
       <path id="DejaVuSans-20" transform="scale(0.015625)"/>
       <path id="DejaVuSans-5b" d="M 550 4863 
L 1875 4863 
L 1875 4416 
L 1125 4416 
L 1125 -397 
L 1875 -397 
L 1875 -844 
L 550 -844 
L 550 4863 
z
" transform="scale(0.015625)"/>
       <path id="DejaVuSans-Oblique-3c0" d="M 584 3500 
L 3938 3500 
L 3825 2925 
L 3384 2925 
L 2966 775 
Q 2922 550 2981 450 
Q 3038 353 3209 353 
Q 3256 353 3325 363 
Q 3397 369 3419 372 
L 3338 -44 
Q 3222 -84 3103 -103 
Q 2981 -122 2866 -122 
Q 2491 -122 2388 81 
Q 2284 288 2391 838 
L 2797 2925 
L 1506 2925 
L 938 0 
L 350 0 
L 919 2925 
L 472 2925 
L 584 3500 
z
" transform="scale(0.015625)"/>
       <path id="DejaVuSans-2f" d="M 1625 4666 
L 2156 4666 
L 531 -594 
L 0 -594 
L 1625 4666 
z
" transform="scale(0.015625)"/>
       <path id="DejaVuSans-3a9" d="M 4647 556 
L 4647 0 
L 2772 0 
L 2772 556 
Q 3325 859 3634 1378 
Q 3944 1897 3944 2528 
Q 3944 3278 3531 3731 
Q 3119 4184 2444 4184 
Q 1769 4184 1355 3729 
Q 941 3275 941 2528 
Q 941 1897 1250 1378 
Q 1563 859 2119 556 
L 2119 0 
L 244 0 
L 244 556 
L 1241 556 
Q 747 991 519 1456 
Q 294 1922 294 2497 
Q 294 3491 894 4106 
Q 1491 4722 2444 4722 
Q 3391 4722 3994 4106 
Q 4594 3494 4594 2528 
Q 4594 1922 4372 1459 
Q 4150 997 3647 556 
L 4647 556 
z
" transform="scale(0.015625)"/>
       <path id="DejaVuSans-5d" d="M 1947 4863 
L 1947 -844 
L 622 -844 
L 622 -397 
L 1369 -397 
L 1369 4416 
L 622 4416 
L 622 4863 
L 1947 4863 
z
" transform="scale(0.015625)"/>
      </defs>
      <use xlink:href="#DejaVuSans-54" transform="translate(0 0.015625)"/>
      <use xlink:href="#DejaVuSans-69" transform="translate(61.083984 0.015625)"/>
      <use xlink:href="#DejaVuSans-6d" transform="translate(88.867188 0.015625)"/>
      <use xlink:href="#DejaVuSans-65" transform="translate(186.279297 0.015625)"/>
      <use xlink:href="#DejaVuSans-20" transform="translate(247.802734 0.015625)"/>
      <use xlink:href="#DejaVuSans-5b" transform="translate(279.589844 0.015625)"/>
      <use xlink:href="#DejaVuSans-32" transform="translate(318.603516 0.015625)"/>
      <use xlink:href="#DejaVuSans-Oblique-3c0" transform="translate(382.226562 0.015625)"/>
      <use xlink:href="#DejaVuSans-2f" transform="translate(442.431641 0.015625)"/>
      <use xlink:href="#DejaVuSans-3a9" transform="translate(476.123047 0.015625)"/>
      <use xlink:href="#DejaVuSans-5d" transform="translate(552.539062 0.015625)"/>
     </g>
    </g>
   </g>
   <g id="matplotlib.axis_2">
    <g id="ytick_1">
     <g id="line2d_9">
      <defs>
       <path id="md8dba3dfdf" d="M 0 0 
L -10 0 
" style="stroke: #000000; stroke-width: 2.5"/>
      </defs>
      <g>
       <use xlink:href="#md8dba3dfdf" x="65.63" y="377.64" style="stroke: #000000; stroke-width: 2.5"/>
      </g>
     </g>
     <g id="text_10">
      <!-- 0.0 -->
      <g transform="translate(26.685 383.71875) scale(0.16 -0.16)">
       <use xlink:href="#DejaVuSans-30"/>
       <use xlink:href="#DejaVuSans-2e" x="63.623047"/>
       <use xlink:href="#DejaVuSans-30" x="95.410156"/>
      </g>
     </g>
    </g>
    <g id="ytick_2">
     <g id="line2d_10">
      <g>
       <use xlink:href="#md8dba3dfdf" x="65.63" y="307.079301" style="stroke: #000000; stroke-width: 2.5"/>
      </g>
     </g>
     <g id="text_11">
      <!-- 0.2 -->
      <g transform="translate(26.685 313.158051) scale(0.16 -0.16)">
       <use xlink:href="#DejaVuSans-30"/>
       <use xlink:href="#DejaVuSans-2e" x="63.623047"/>
       <use xlink:href="#DejaVuSans-32" x="95.410156"/>
      </g>
     </g>
    </g>
    <g id="ytick_3">
     <g id="line2d_11">
      <g>
       <use xlink:href="#md8dba3dfdf" x="65.63" y="236.518602" style="stroke: #000000; stroke-width: 2.5"/>
      </g>
     </g>
     <g id="text_12">
      <!-- 0.4 -->
      <g transform="translate(26.685 242.597352) scale(0.16 -0.16)">
       <use xlink:href="#DejaVuSans-30"/>
       <use xlink:href="#DejaVuSans-2e" x="63.623047"/>
       <use xlink:href="#DejaVuSans-34" x="95.410156"/>
      </g>
     </g>
    </g>
    <g id="ytick_4">
     <g id="line2d_12">
      <g>
       <use xlink:href="#md8dba3dfdf" x="65.63" y="165.957902" style="stroke: #000000; stroke-width: 2.5"/>
      </g>
     </g>
     <g id="text_13">
      <!-- 0.6 -->
      <g transform="translate(26.685 172.036652) scale(0.16 -0.16)">
       <use xlink:href="#DejaVuSans-30"/>
       <use xlink:href="#DejaVuSans-2e" x="63.623047"/>
       <use xlink:href="#DejaVuSans-36" x="95.410156"/>
      </g>
     </g>
    </g>
    <g id="ytick_5">
     <g id="line2d_13">
      <g>
       <use xlink:href="#md8dba3dfdf" x="65.63" y="95.397203" style="stroke: #000000; stroke-width: 2.5"/>
      </g>
     </g>
     <g id="text_14">
      <!-- 0.8 -->
      <g transform="translate(26.685 101.475953) scale(0.16 -0.16)">
       <defs>
        <path id="DejaVuSans-38" d="M 2034 2216 
Q 1584 2216 1326 1975 
Q 1069 1734 1069 1313 
Q 1069 891 1326 650 
Q 1584 409 2034 409 
Q 2484 409 2743 651 
Q 3003 894 3003 1313 
Q 3003 1734 2745 1975 
Q 2488 2216 2034 2216 
z
M 1403 2484 
Q 997 2584 770 2862 
Q 544 3141 544 3541 
Q 544 4100 942 4425 
Q 1341 4750 2034 4750 
Q 2731 4750 3128 4425 
Q 3525 4100 3525 3541 
Q 3525 3141 3298 2862 
Q 3072 2584 2669 2484 
Q 3125 2378 3379 2068 
Q 3634 1759 3634 1313 
Q 3634 634 3220 271 
Q 2806 -91 2034 -91 
Q 1263 -91 848 271 
Q 434 634 434 1313 
Q 434 1759 690 2068 
Q 947 2378 1403 2484 
z
M 1172 3481 
Q 1172 3119 1398 2916 
Q 1625 2713 2034 2713 
Q 2441 2713 2670 2916 
Q 2900 3119 2900 3481 
Q 2900 3844 2670 4047 
Q 2441 4250 2034 4250 
Q 1625 4250 1398 4047 
Q 1172 3844 1172 3481 
z
" transform="scale(0.015625)"/>
       </defs>
       <use xlink:href="#DejaVuSans-30"/>
       <use xlink:href="#DejaVuSans-2e" x="63.623047"/>
       <use xlink:href="#DejaVuSans-38" x="95.410156"/>
      </g>
     </g>
    </g>
    <g id="ytick_6">
     <g id="line2d_14">
      <g>
       <use xlink:href="#md8dba3dfdf" x="65.63" y="24.836504" style="stroke: #000000; stroke-width: 2.5"/>
      </g>
     </g>
     <g id="text_15">
      <!-- 1.0 -->
      <g transform="translate(26.685 30.915254) scale(0.16 -0.16)">
       <use xlink:href="#DejaVuSans-31"/>
       <use xlink:href="#DejaVuSans-2e" x="63.623047"/>
       <use xlink:href="#DejaVuSans-30" x="95.410156"/>
      </g>
     </g>
    </g>
    <g id="text_16">
     <!-- Excited state population -->
     <g transform="translate(19.3575 298.57) rotate(-90) scale(0.16 -0.16)">
      <defs>
       <path id="DejaVuSans-45" d="M 628 4666 
L 3578 4666 
L 3578 4134 
L 1259 4134 
L 1259 2753 
L 3481 2753 
L 3481 2222 
L 1259 2222 
L 1259 531 
L 3634 531 
L 3634 0 
L 628 0 
L 628 4666 
z
" transform="scale(0.015625)"/>
       <path id="DejaVuSans-78" d="M 3513 3500 
L 2247 1797 
L 3578 0 
L 2900 0 
L 1881 1375 
L 863 0 
L 184 0 
L 1544 1831 
L 300 3500 
L 978 3500 
L 1906 2253 
L 2834 3500 
L 3513 3500 
z
" transform="scale(0.015625)"/>
       <path id="DejaVuSans-63" d="M 3122 3366 
L 3122 2828 
Q 2878 2963 2633 3030 
Q 2388 3097 2138 3097 
Q 1578 3097 1268 2742 
Q 959 2388 959 1747 
Q 959 1106 1268 751 
Q 1578 397 2138 397 
Q 2388 397 2633 464 
Q 2878 531 3122 666 
L 3122 134 
Q 2881 22 2623 -34 
Q 2366 -91 2075 -91 
Q 1284 -91 818 406 
Q 353 903 353 1747 
Q 353 2603 823 3093 
Q 1294 3584 2113 3584 
Q 2378 3584 2631 3529 
Q 2884 3475 3122 3366 
z
" transform="scale(0.015625)"/>
       <path id="DejaVuSans-74" d="M 1172 4494 
L 1172 3500 
L 2356 3500 
L 2356 3053 
L 1172 3053 
L 1172 1153 
Q 1172 725 1289 603 
Q 1406 481 1766 481 
L 2356 481 
L 2356 0 
L 1766 0 
Q 1100 0 847 248 
Q 594 497 594 1153 
L 594 3053 
L 172 3053 
L 172 3500 
L 594 3500 
L 594 4494 
L 1172 4494 
z
" transform="scale(0.015625)"/>
       <path id="DejaVuSans-64" d="M 2906 2969 
L 2906 4863 
L 3481 4863 
L 3481 0 
L 2906 0 
L 2906 525 
Q 2725 213 2448 61 
Q 2172 -91 1784 -91 
Q 1150 -91 751 415 
Q 353 922 353 1747 
Q 353 2572 751 3078 
Q 1150 3584 1784 3584 
Q 2172 3584 2448 3432 
Q 2725 3281 2906 2969 
z
M 947 1747 
Q 947 1113 1208 752 
Q 1469 391 1925 391 
Q 2381 391 2643 752 
Q 2906 1113 2906 1747 
Q 2906 2381 2643 2742 
Q 2381 3103 1925 3103 
Q 1469 3103 1208 2742 
Q 947 2381 947 1747 
z
" transform="scale(0.015625)"/>
       <path id="DejaVuSans-73" d="M 2834 3397 
L 2834 2853 
Q 2591 2978 2328 3040 
Q 2066 3103 1784 3103 
Q 1356 3103 1142 2972 
Q 928 2841 928 2578 
Q 928 2378 1081 2264 
Q 1234 2150 1697 2047 
L 1894 2003 
Q 2506 1872 2764 1633 
Q 3022 1394 3022 966 
Q 3022 478 2636 193 
Q 2250 -91 1575 -91 
Q 1294 -91 989 -36 
Q 684 19 347 128 
L 347 722 
Q 666 556 975 473 
Q 1284 391 1588 391 
Q 1994 391 2212 530 
Q 2431 669 2431 922 
Q 2431 1156 2273 1281 
Q 2116 1406 1581 1522 
L 1381 1569 
Q 847 1681 609 1914 
Q 372 2147 372 2553 
Q 372 3047 722 3315 
Q 1072 3584 1716 3584 
Q 2034 3584 2315 3537 
Q 2597 3491 2834 3397 
z
" transform="scale(0.015625)"/>
       <path id="DejaVuSans-61" d="M 2194 1759 
Q 1497 1759 1228 1600 
Q 959 1441 959 1056 
Q 959 750 1161 570 
Q 1363 391 1709 391 
Q 2188 391 2477 730 
Q 2766 1069 2766 1631 
L 2766 1759 
L 2194 1759 
z
M 3341 1997 
L 3341 0 
L 2766 0 
L 2766 531 
Q 2569 213 2275 61 
Q 1981 -91 1556 -91 
Q 1019 -91 701 211 
Q 384 513 384 1019 
Q 384 1609 779 1909 
Q 1175 2209 1959 2209 
L 2766 2209 
L 2766 2266 
Q 2766 2663 2505 2880 
Q 2244 3097 1772 3097 
Q 1472 3097 1187 3025 
Q 903 2953 641 2809 
L 641 3341 
Q 956 3463 1253 3523 
Q 1550 3584 1831 3584 
Q 2591 3584 2966 3190 
Q 3341 2797 3341 1997 
z
" transform="scale(0.015625)"/>
       <path id="DejaVuSans-70" d="M 1159 525 
L 1159 -1331 
L 581 -1331 
L 581 3500 
L 1159 3500 
L 1159 2969 
Q 1341 3281 1617 3432 
Q 1894 3584 2278 3584 
Q 2916 3584 3314 3078 
Q 3713 2572 3713 1747 
Q 3713 922 3314 415 
Q 2916 -91 2278 -91 
Q 1894 -91 1617 61 
Q 1341 213 1159 525 
z
M 3116 1747 
Q 3116 2381 2855 2742 
Q 2594 3103 2138 3103 
Q 1681 3103 1420 2742 
Q 1159 2381 1159 1747 
Q 1159 1113 1420 752 
Q 1681 391 2138 391 
Q 2594 391 2855 752 
Q 3116 1113 3116 1747 
z
" transform="scale(0.015625)"/>
       <path id="DejaVuSans-6f" d="M 1959 3097 
Q 1497 3097 1228 2736 
Q 959 2375 959 1747 
Q 959 1119 1226 758 
Q 1494 397 1959 397 
Q 2419 397 2687 759 
Q 2956 1122 2956 1747 
Q 2956 2369 2687 2733 
Q 2419 3097 1959 3097 
z
M 1959 3584 
Q 2709 3584 3137 3096 
Q 3566 2609 3566 1747 
Q 3566 888 3137 398 
Q 2709 -91 1959 -91 
Q 1206 -91 779 398 
Q 353 888 353 1747 
Q 353 2609 779 3096 
Q 1206 3584 1959 3584 
z
" transform="scale(0.015625)"/>
       <path id="DejaVuSans-75" d="M 544 1381 
L 544 3500 
L 1119 3500 
L 1119 1403 
Q 1119 906 1312 657 
Q 1506 409 1894 409 
Q 2359 409 2629 706 
Q 2900 1003 2900 1516 
L 2900 3500 
L 3475 3500 
L 3475 0 
L 2900 0 
L 2900 538 
Q 2691 219 2414 64 
Q 2138 -91 1772 -91 
Q 1169 -91 856 284 
Q 544 659 544 1381 
z
M 1991 3584 
L 1991 3584 
z
" transform="scale(0.015625)"/>
       <path id="DejaVuSans-6c" d="M 603 4863 
L 1178 4863 
L 1178 0 
L 603 0 
L 603 4863 
z
" transform="scale(0.015625)"/>
       <path id="DejaVuSans-6e" d="M 3513 2113 
L 3513 0 
L 2938 0 
L 2938 2094 
Q 2938 2591 2744 2837 
Q 2550 3084 2163 3084 
Q 1697 3084 1428 2787 
Q 1159 2491 1159 1978 
L 1159 0 
L 581 0 
L 581 3500 
L 1159 3500 
L 1159 2956 
Q 1366 3272 1645 3428 
Q 1925 3584 2291 3584 
Q 2894 3584 3203 3211 
Q 3513 2838 3513 2113 
z
" transform="scale(0.015625)"/>
      </defs>
      <use xlink:href="#DejaVuSans-45"/>
      <use xlink:href="#DejaVuSans-78" x="63.183594"/>
      <use xlink:href="#DejaVuSans-63" x="120.613281"/>
      <use xlink:href="#DejaVuSans-69" x="175.59375"/>
      <use xlink:href="#DejaVuSans-74" x="203.376953"/>
      <use xlink:href="#DejaVuSans-65" x="242.585938"/>
      <use xlink:href="#DejaVuSans-64" x="304.109375"/>
      <use xlink:href="#DejaVuSans-20" x="367.585938"/>
      <use xlink:href="#DejaVuSans-73" x="399.373047"/>
      <use xlink:href="#DejaVuSans-74" x="451.472656"/>
      <use xlink:href="#DejaVuSans-61" x="490.681641"/>
      <use xlink:href="#DejaVuSans-74" x="551.960938"/>
      <use xlink:href="#DejaVuSans-65" x="591.169922"/>
      <use xlink:href="#DejaVuSans-20" x="652.693359"/>
      <use xlink:href="#DejaVuSans-70" x="684.480469"/>
      <use xlink:href="#DejaVuSans-6f" x="747.957031"/>
      <use xlink:href="#DejaVuSans-70" x="809.138672"/>
      <use xlink:href="#DejaVuSans-75" x="872.615234"/>
      <use xlink:href="#DejaVuSans-6c" x="935.994141"/>
      <use xlink:href="#DejaVuSans-61" x="963.777344"/>
      <use xlink:href="#DejaVuSans-74" x="1025.056641"/>
      <use xlink:href="#DejaVuSans-69" x="1064.265625"/>
      <use xlink:href="#DejaVuSans-6f" x="1092.048828"/>
      <use xlink:href="#DejaVuSans-6e" x="1153.230469"/>
     </g>
    </g>
   </g>
   <g id="line2d_15">
    <path d="M 65.63 377.64 
L 67.433607 377.552607 
L 69.237214 377.290515 
L 71.040822 376.853984 
L 72.844429 376.243446 
L 74.648036 375.459506 
L 76.451643 374.502942 
L 79.157054 372.746542 
L 81.862465 370.607824 
L 84.567876 368.091554 
L 87.273287 365.203342 
L 89.978697 361.949627 
L 92.684108 358.337661 
L 95.389519 354.375496 
L 98.09493 350.071964 
L 100.800341 345.436658 
L 104.407555 338.758121 
L 108.01477 331.534679 
L 111.621984 323.794955 
L 115.229198 315.569615 
L 119.738216 304.654868 
L 124.247234 293.099967 
L 128.756253 280.976437 
L 134.167074 265.783494 
L 140.479699 247.341203 
L 148.595932 222.84032 
L 172.042826 151.394846 
L 178.355451 133.09147 
L 183.766273 118.052437 
L 188.275291 106.080702 
L 192.784309 94.697996 
L 197.293327 83.974781 
L 200.900541 75.915795 
L 204.507756 68.353383 
L 208.11497 61.317511 
L 211.722184 54.836056 
L 214.427595 50.354337 
L 217.133006 46.208961 
L 219.838417 42.40917 
L 222.543828 38.963434 
L 225.249238 35.879434 
L 227.954649 33.164044 
L 230.66006 30.823318 
L 233.365471 28.862473 
L 236.070882 27.285881 
L 237.874489 26.450065 
L 239.678096 25.787435 
L 241.481703 25.298648 
L 243.285311 24.984189 
L 245.088918 24.84437 
L 246.892525 24.879328 
L 248.696132 25.08903 
L 250.499739 25.473267 
L 252.303347 26.031658 
L 254.106954 26.763651 
L 255.910561 27.66852 
L 257.714168 28.745369 
L 260.419579 30.680723 
L 263.12499 32.996277 
L 265.830401 35.686868 
L 268.535812 38.7465 
L 271.241222 42.16835 
L 273.946633 45.944793 
L 276.652044 50.067408 
L 279.357455 54.527007 
L 282.964669 60.980048 
L 286.571884 67.988844 
L 290.179098 75.525624 
L 293.786313 83.560524 
L 297.393527 92.061706 
L 301.902545 103.292413 
L 306.411563 115.12941 
L 311.822385 130.030705 
L 317.233206 145.566577 
L 324.447635 167.028236 
L 334.367475 197.351515 
L 348.796333 241.418822 
L 356.010762 262.671451 
L 361.421583 277.990447 
L 366.832405 292.625455 
L 371.341423 304.204499 
L 375.850441 315.146177 
L 379.457655 323.394958 
L 383.06487 331.159708 
L 386.672084 338.409661 
L 390.279299 345.11609 
L 393.886513 351.252422 
L 396.591924 355.46583 
L 399.297335 359.33544 
L 402.002745 362.852627 
L 404.708156 366.009551 
L 407.413567 368.799173 
L 410.118978 371.215277 
L 412.824389 373.252474 
L 415.5298 374.906226 
L 417.333407 375.793845 
L 419.137014 376.508507 
L 420.940621 377.049506 
L 422.744228 377.416303 
L 424.547836 377.608537 
L 426.351443 377.626016 
L 428.15505 377.468724 
L 429.958657 377.136815 
L 431.762265 376.63062 
L 433.565872 375.950639 
L 435.369479 375.097546 
L 437.173086 374.072187 
L 439.878497 372.213418 
L 442.583908 369.973518 
L 445.289319 367.357481 
L 447.994729 364.371138 
L 450.70014 361.021147 
L 453.405551 357.314974 
L 456.110962 353.260883 
L 458.816373 348.867909 
L 462.423587 342.500492 
L 466.030802 335.573341 
L 469.638016 328.113905 
L 473.24523 320.15174 
L 476.852445 311.718396 
L 481.361463 300.565195 
L 485.870481 288.797154 
L 491.281303 273.966724 
L 496.692124 258.488163 
L 503.906553 237.080971 
L 513.826393 206.790265 
L 515.63 201.238252 
L 515.63 201.238252 
" clip-path="url(#p9e248b90a6)" style="fill: none; stroke: #0d0887; stroke-width: 1.5; stroke-linecap: square"/>
   </g>
   <g id="line2d_16">
    <path d="M 65.63 377.64 
L 67.433607 377.552607 
L 69.237214 377.290519 
L 71.040822 376.854 
L 72.844429 376.243498 
L 74.648036 375.459632 
L 76.451643 374.503201 
L 79.157054 372.747174 
L 81.862465 370.609132 
L 84.567876 368.093973 
L 87.273287 365.20746 
L 89.978697 361.956205 
L 92.684108 358.347658 
L 95.389519 354.390086 
L 98.09493 350.092556 
L 101.702144 343.85082 
L 105.309359 337.047724 
L 108.916573 329.710973 
L 112.523788 321.870445 
L 116.131002 313.558071 
L 120.64002 302.55581 
L 125.149038 290.939307 
L 130.55986 276.293007 
L 135.970681 261.002947 
L 143.18511 239.857531 
L 153.10495 209.955018 
L 167.533808 166.493949 
L 174.748236 145.552258 
L 180.159058 130.473499 
L 185.56988 116.086541 
L 190.078898 104.721153 
L 194.587916 94.00013 
L 198.19513 85.933238 
L 201.802345 78.355329 
L 205.409559 71.297264 
L 209.016774 64.787786 
L 212.623988 58.853405 
L 215.329399 54.794656 
L 218.03481 51.082341 
L 220.74022 47.724966 
L 223.445631 44.730222 
L 226.151042 42.104972 
L 228.856453 39.85523 
L 231.561864 37.986149 
L 234.267275 36.502013 
L 236.070882 35.728162 
L 237.874489 35.127715 
L 239.678096 34.701284 
L 241.481703 34.449302 
L 243.285311 34.372026 
L 245.088918 34.469536 
L 246.892525 34.741731 
L 248.696132 35.188334 
L 250.499739 35.808891 
L 252.303347 36.60277 
L 254.106954 37.569161 
L 256.812365 39.340011 
L 259.517776 41.492703 
L 262.223186 44.022305 
L 264.928597 46.923022 
L 267.634008 50.188208 
L 270.339419 53.810383 
L 273.04483 57.781247 
L 275.75024 62.091704 
L 279.357455 68.350057 
L 282.964669 75.168998 
L 286.571884 82.52076 
L 290.179098 90.375403 
L 293.786313 98.700939 
L 298.295331 109.71823 
L 302.804349 121.348094 
L 308.21517 136.008106 
L 313.625992 151.309228 
L 320.840421 172.465097 
L 330.760261 202.373704 
L 344.287315 243.15735 
L 351.501743 264.187098 
L 356.912565 279.35627 
L 362.323387 293.853624 
L 366.832405 305.32555 
L 371.341423 316.165613 
L 374.948637 324.336233 
L 378.555852 332.024963 
L 382.163066 339.200494 
L 385.770281 345.833603 
L 389.377495 351.897277 
L 392.082906 356.056397 
L 394.788317 359.871741 
L 397.493727 363.334568 
L 400.199138 366.436945 
L 402.904549 369.171764 
L 405.60996 371.532759 
L 408.315371 373.514521 
L 411.020782 375.11251 
L 412.824389 375.962784 
L 414.627996 376.639981 
L 416.431603 377.143411 
L 418.23521 377.472561 
L 420.038818 377.627097 
L 421.842425 377.606861 
L 423.646032 377.411873 
L 425.449639 377.042333 
L 427.253246 376.498616 
L 429.056854 375.781276 
L 430.860461 374.891043 
L 432.664068 373.828825 
L 435.369479 371.915439 
L 438.07489 369.621942 
L 440.780301 366.953591 
L 443.485711 363.916497 
L 446.191122 360.517621 
L 448.896533 356.764747 
L 451.601944 352.666476 
L 454.307355 348.232195 
L 457.914569 341.814807 
L 461.521784 334.844351 
L 465.128998 327.349213 
L 468.736212 319.359916 
L 473.24523 308.728131 
L 477.754248 297.442837 
L 482.263267 285.575828 
L 487.674088 270.674088 
L 493.986713 252.550024 
L 501.201142 231.140031 
L 515.63 187.44808 
L 515.63 187.44808 
" clip-path="url(#p9e248b90a6)" style="fill: none; stroke: #370499; stroke-width: 1.5; stroke-linecap: square"/>
   </g>
   <g id="line2d_17">
    <path d="M 65.63 377.64 
L 67.433607 377.552608 
L 69.237214 377.290528 
L 71.040822 376.854049 
L 72.844429 376.243651 
L 74.648036 375.460007 
L 76.451643 374.503978 
L 79.157054 372.749069 
L 81.862465 370.613055 
L 84.567876 368.101227 
L 87.273287 365.219805 
L 89.978697 361.975926 
L 92.684108 358.377625 
L 95.389519 354.433814 
L 98.09493 350.15426 
L 101.702144 343.944361 
L 105.309359 337.183861 
L 108.916573 329.902526 
L 112.523788 322.132409 
L 116.131002 313.90772 
L 120.64002 303.042955 
L 125.149038 291.599353 
L 130.55986 277.214028 
L 136.872485 259.711481 
L 144.988717 236.433774 
L 166.632004 173.879477 
L 172.944629 156.540541 
L 178.355451 142.338472 
L 182.864469 131.076557 
L 187.373487 120.418494 
L 190.980701 112.376228 
L 194.587916 104.802835 
L 198.19513 97.731657 
L 201.802345 91.193824 
L 205.409559 85.21812 
L 208.11497 81.12116 
L 210.820381 77.365396 
L 213.525792 73.96013 
L 216.231202 70.913796 
L 218.936613 68.233939 
L 221.642024 65.927196 
L 224.347435 63.999282 
L 227.052846 62.454971 
L 228.856453 61.640471 
L 230.66006 60.999077 
L 232.463667 60.531497 
L 234.267275 60.238244 
L 236.070882 60.119641 
L 237.874489 60.17582 
L 239.678096 60.406717 
L 241.481703 60.812079 
L 243.285311 61.39146 
L 245.088918 62.144222 
L 246.892525 63.069535 
L 249.597936 64.778761 
L 252.303347 66.869659 
L 255.008758 69.337051 
L 257.714168 72.174825 
L 260.419579 75.375952 
L 263.12499 78.932506 
L 265.830401 82.835675 
L 268.535812 87.075794 
L 272.143026 93.235161 
L 275.75024 99.947669 
L 279.357455 107.183766 
L 282.964669 114.911596 
L 286.571884 123.097138 
L 291.080902 133.917642 
L 295.58992 145.32246 
L 301.000741 159.668845 
L 307.313367 177.136921 
L 315.429599 200.388339 
L 337.072886 262.97435 
L 343.385511 280.34996 
L 348.796333 294.592775 
L 353.305351 305.894909 
L 357.814369 316.598593 
L 361.421583 324.681035 
L 365.028798 332.297684 
L 368.636012 339.415008 
L 372.243226 346.001672 
L 375.850441 352.02868 
L 378.555852 356.165604 
L 381.261263 359.962496 
L 383.966673 363.409952 
L 386.672084 366.499435 
L 389.377495 369.223291 
L 392.082906 371.574775 
L 394.788317 373.548063 
L 397.493727 375.138266 
L 399.297335 375.983593 
L 401.100942 376.655959 
L 402.904549 377.154624 
L 404.708156 377.47904 
L 406.511764 377.628849 
L 408.315371 377.603887 
L 410.118978 377.40418 
L 411.922585 377.029949 
L 413.726192 376.481605 
L 415.5298 375.759753 
L 417.333407 374.865186 
L 419.137014 373.798891 
L 421.842425 371.880075 
L 424.547836 369.582306 
L 427.253246 366.911275 
L 429.958657 363.873598 
L 432.664068 360.476799 
L 435.369479 356.729291 
L 438.07489 352.640355 
L 440.780301 348.220118 
L 444.387515 341.830152 
L 447.994729 334.898894 
L 451.601944 327.456858 
L 455.209158 319.53681 
L 459.718176 309.017849 
L 464.227194 297.878959 
L 469.638016 283.802117 
L 475.048838 269.082464 
L 481.361463 251.291814 
L 491.281303 222.547153 
L 504.808357 183.341344 
L 512.022786 163.176935 
L 515.63 153.440596 
L 515.63 153.440596 
" clip-path="url(#p9e248b90a6)" style="fill: none; stroke: #5801a4; stroke-width: 1.5; stroke-linecap: square"/>
   </g>
   <g id="line2d_18">
    <path d="M 65.63 377.64 
L 67.433607 377.552609 
L 69.237214 377.290544 
L 71.040822 376.85413 
L 72.844429 376.243908 
L 74.648036 375.460632 
L 76.451643 374.505274 
L 79.157054 372.752227 
L 81.862465 370.619591 
L 84.567876 368.113306 
L 87.273287 365.240358 
L 89.978697 362.00875 
L 92.684108 358.427487 
L 95.389519 354.506547 
L 98.09493 350.256855 
L 101.702144 344.099802 
L 105.309359 337.409947 
L 108.916573 330.220422 
L 112.523788 322.566834 
L 117.032806 312.405208 
L 121.541824 301.656481 
L 126.952645 288.100402 
L 133.265271 271.569855 
L 141.381503 249.571836 
L 159.417575 200.332363 
L 165.7302 183.846792 
L 171.141022 170.342444 
L 175.65004 159.645688 
L 180.159058 149.543664 
L 183.766273 141.942943 
L 187.373487 134.810613 
L 190.980701 128.181998 
L 194.587916 122.089925 
L 197.293327 117.891231 
L 199.998737 114.023071 
L 202.704148 110.496222 
L 205.409559 107.32051 
L 208.11497 104.504786 
L 210.820381 102.056894 
L 213.525792 99.983654 
L 216.231202 98.290844 
L 218.03481 97.376027 
L 219.838417 96.633541 
L 221.642024 96.064306 
L 223.445631 95.669027 
L 225.249238 95.448193 
L 227.052846 95.402078 
L 228.856453 95.530739 
L 230.66006 95.834016 
L 232.463667 96.311535 
L 234.267275 96.962703 
L 236.070882 97.786714 
L 237.874489 98.782548 
L 240.5799 100.59571 
L 243.285311 102.787596 
L 245.990721 105.352099 
L 248.696132 108.282073 
L 251.401543 111.569355 
L 254.106954 115.204785 
L 256.812365 119.178233 
L 259.517776 123.478629 
L 263.12499 129.700237 
L 266.732204 136.450869 
L 270.339419 143.697093 
L 273.946633 151.40302 
L 278.455651 161.623545 
L 282.964669 172.4235 
L 288.375491 186.030374 
L 294.688116 202.604755 
L 302.804349 224.633741 
L 320.840421 273.837325 
L 327.153046 290.276781 
L 332.563868 303.728465 
L 337.072886 314.372512 
L 341.581904 324.414236 
L 345.189118 331.961565 
L 348.796333 339.036207 
L 352.403547 345.603125 
L 356.010762 351.629796 
L 358.716172 355.777202 
L 361.421583 359.592316 
L 364.126994 363.064507 
L 366.832405 366.184102 
L 369.537816 368.942408 
L 372.243226 371.331739 
L 374.948637 373.345438 
L 377.654048 374.977895 
L 379.457655 375.852107 
L 381.261263 376.553752 
L 383.06487 377.08196 
L 384.868477 377.436078 
L 386.672084 377.615666 
L 388.475691 377.620502 
L 390.279299 377.45058 
L 392.082906 377.106111 
L 393.886513 376.587521 
L 395.69012 375.895452 
L 397.493727 375.030762 
L 399.297335 373.994522 
L 402.002745 372.12137 
L 404.708156 369.870385 
L 407.413567 367.247841 
L 410.118978 364.261043 
L 412.824389 360.918315 
L 415.5298 357.22897 
L 418.23521 353.203287 
L 420.940621 348.852485 
L 424.547836 342.566751 
L 428.15505 335.755807 
L 431.762265 328.453386 
L 435.369479 320.695653 
L 439.878497 310.416935 
L 444.387515 299.566497 
L 449.798337 285.909769 
L 456.110962 269.292699 
L 464.227194 247.234266 
L 481.361463 200.465201 
L 487.674088 183.974302 
L 493.08491 170.463846 
L 497.593928 159.760962 
L 502.102946 149.65192 
L 505.71016 142.044978 
L 509.317375 134.905922 
L 512.924589 128.270108 
L 515.63 123.643369 
L 515.63 123.643369 
" clip-path="url(#p9e248b90a6)" style="fill: none; stroke: #7701a8; stroke-width: 1.5; stroke-linecap: square"/>
   </g>
   <g id="line2d_19">
    <path d="M 65.63 377.64 
L 67.433607 377.55261 
L 69.237214 377.290567 
L 71.040822 376.854244 
L 72.844429 376.244266 
L 74.648036 375.461507 
L 76.451643 374.507087 
L 79.157054 372.756645 
L 81.862465 370.628732 
L 84.567876 368.130197 
L 87.273287 365.269087 
L 89.978697 362.054611 
L 92.684108 358.49712 
L 95.389519 354.608067 
L 98.09493 350.399974 
L 101.702144 344.316458 
L 105.309359 337.724771 
L 108.916573 330.662637 
L 112.523788 323.170468 
L 117.032806 313.266052 
L 121.541824 302.845397 
L 126.952645 289.79061 
L 134.167074 271.728039 
L 155.810361 217.001067 
L 161.221182 204.123496 
L 165.7302 193.890573 
L 170.239218 184.208526 
L 173.846433 176.917865 
L 177.453647 170.076987 
L 181.060862 163.725039 
L 184.668076 157.898372 
L 187.373487 153.893263 
L 190.078898 150.21534 
L 192.784309 146.876445 
L 195.489719 143.887329 
L 198.19513 141.257613 
L 200.900541 138.995766 
L 203.605952 137.10907 
L 206.311363 135.603599 
L 208.11497 134.814188 
L 209.918577 134.19752 
L 211.722184 133.754478 
L 213.525792 133.485695 
L 215.329399 133.391556 
L 217.133006 133.472197 
L 218.936613 133.727501 
L 220.74022 134.157103 
L 222.543828 134.760389 
L 224.347435 135.536494 
L 226.151042 136.484309 
L 228.856453 138.224953 
L 231.561864 140.343228 
L 234.267275 142.832316 
L 236.972685 145.684203 
L 239.678096 148.889706 
L 242.383507 152.438504 
L 245.088918 156.319173 
L 247.794329 160.519218 
L 251.401543 166.592569 
L 255.008758 173.174791 
L 258.615972 180.228215 
L 262.223186 187.712479 
L 266.732204 197.608213 
L 271.241222 208.021591 
L 276.652044 221.06959 
L 283.866473 239.126549 
L 305.50976 293.86099 
L 310.920581 306.746009 
L 315.429599 316.986736 
L 319.938617 326.677966 
L 323.545832 333.976909 
L 327.153046 340.826851 
L 330.760261 347.188594 
L 334.367475 353.02573 
L 337.072886 357.039097 
L 339.778297 360.725596 
L 342.483707 364.073359 
L 345.189118 367.071607 
L 347.894529 369.710687 
L 350.59994 371.982102 
L 353.305351 373.878538 
L 356.010762 375.39389 
L 357.814369 376.189952 
L 359.617976 376.813309 
L 361.421583 377.26307 
L 363.22519 377.538591 
L 365.028798 377.639479 
L 366.832405 377.565587 
L 368.636012 377.317024 
L 370.439619 376.894143 
L 372.243226 376.29755 
L 374.046834 375.5281 
L 375.850441 374.586893 
L 378.555852 372.856051 
L 381.261263 370.747418 
L 383.966673 368.267781 
L 386.672084 365.425125 
L 389.377495 362.228602 
L 392.082906 358.688503 
L 394.788317 354.816227 
L 397.493727 350.624239 
L 401.100942 344.561066 
L 404.708156 337.988323 
L 408.315371 330.943623 
L 411.922585 323.467281 
L 416.431603 313.58025 
L 420.940621 303.174172 
L 426.351443 290.132988 
L 433.565872 272.081679 
L 455.209158 217.339887 
L 460.61998 204.447446 
L 465.128998 194.198937 
L 469.638016 184.498547 
L 473.24523 177.191336 
L 476.852445 170.332344 
L 480.459659 163.960821 
L 484.066874 158.113228 
L 486.772285 154.091612 
L 489.477695 150.396543 
L 492.183106 147.039919 
L 494.888517 144.032546 
L 497.593928 141.384108 
L 500.299339 139.10313 
L 503.004749 137.196958 
L 505.71016 135.671728 
L 507.513768 134.869018 
L 509.317375 134.238973 
L 511.120982 133.782494 
L 512.924589 133.500235 
L 514.728196 133.392599 
L 515.63 133.404323 
L 515.63 133.404323 
" clip-path="url(#p9e248b90a6)" style="fill: none; stroke: #920fa3; stroke-width: 1.5; stroke-linecap: square"/>
   </g>
   <g id="line2d_20">
    <path d="M 65.63 377.64 
L 67.433607 377.552612 
L 69.237214 377.290596 
L 71.040822 376.85439 
L 72.844429 376.244727 
L 74.648036 375.462632 
L 76.451643 374.509416 
L 79.157054 372.762321 
L 81.862465 370.640471 
L 84.567876 368.151879 
L 87.273287 365.305945 
L 89.978697 362.113417 
L 92.684108 358.586351 
L 95.389519 354.738069 
L 98.996733 349.132645 
L 102.603948 343.019766 
L 106.211162 336.440466 
L 109.818377 329.438908 
L 114.327395 320.165003 
L 118.836413 310.402175 
L 124.247234 298.185828 
L 132.363467 279.22293 
L 145.890521 247.510602 
L 151.301343 235.346811 
L 155.810361 225.643031 
L 160.319379 216.441386 
L 163.926593 209.506644 
L 167.533808 203.001684 
L 171.141022 196.970171 
L 174.748236 191.452591 
L 177.453647 187.674092 
L 180.159058 184.21986 
L 182.864469 181.10294 
L 185.56988 178.335104 
L 188.275291 175.926806 
L 190.980701 173.88714 
L 193.686112 172.223809 
L 195.489719 171.32716 
L 197.293327 170.602097 
L 199.096934 170.049839 
L 200.900541 169.671313 
L 202.704148 169.467155 
L 204.507756 169.437706 
L 206.311363 169.583017 
L 208.11497 169.902843 
L 209.918577 170.396648 
L 211.722184 171.063603 
L 213.525792 171.902587 
L 215.329399 172.912193 
L 218.03481 174.742731 
L 220.74022 176.946374 
L 223.445631 179.514799 
L 226.151042 182.438306 
L 228.856453 185.705853 
L 231.561864 189.305101 
L 234.267275 193.222456 
L 237.874489 198.914691 
L 241.481703 205.107808 
L 245.088918 211.760234 
L 248.696132 218.827315 
L 253.20515 228.171769 
L 258.615972 240.003948 
L 264.928597 254.434763 
L 275.75024 279.917236 
L 284.768277 300.924368 
L 290.179098 313.033357 
L 294.688116 322.676299 
L 299.197134 331.803986 
L 302.804349 338.670633 
L 306.411563 345.100053 
L 310.018778 351.049087 
L 313.625992 356.477802 
L 316.331403 360.185821 
L 319.036814 363.566583 
L 321.742224 366.60732 
L 324.447635 369.296547 
L 327.153046 371.624108 
L 329.858457 373.581214 
L 332.563868 375.160471 
L 334.367475 376.00039 
L 336.171082 376.668285 
L 337.974689 377.163037 
L 339.778297 377.483813 
L 341.581904 377.630076 
L 343.385511 377.60158 
L 345.189118 377.398373 
L 346.992725 377.020796 
L 348.796333 376.469483 
L 350.59994 375.74536 
L 352.403547 374.849642 
L 355.108958 373.187691 
L 357.814369 371.14938 
L 360.51978 368.742405 
L 363.22519 365.975858 
L 365.930601 362.860186 
L 368.636012 359.407157 
L 371.341423 355.629811 
L 374.046834 351.542415 
L 377.654048 345.637094 
L 381.261263 339.247784 
L 384.868477 332.417372 
L 389.377495 323.329162 
L 393.886513 313.718853 
L 399.297335 301.63951 
L 406.511764 284.906366 
L 424.547836 242.738116 
L 429.958657 230.776388 
L 434.467675 221.293847 
L 438.976693 212.359041 
L 442.583908 205.668738 
L 446.191122 199.43398 
L 449.798337 193.696617 
L 452.503747 189.743311 
L 455.209158 186.106456 
L 457.914569 182.799789 
L 460.61998 179.835797 
L 463.325391 177.225675 
L 466.030802 174.97928 
L 468.736212 173.105097 
L 471.441623 171.610202 
L 473.24523 170.82717 
L 475.048838 170.216565 
L 476.852445 169.779411 
L 478.656052 169.516444 
L 480.459659 169.428103 
L 482.263267 169.514539 
L 484.066874 169.775604 
L 485.870481 170.210862 
L 487.674088 170.819581 
L 489.477695 171.60074 
L 491.281303 172.553027 
L 493.986713 174.298748 
L 496.692124 176.41925 
L 499.397535 178.906525 
L 502.102946 181.751179 
L 504.808357 184.942469 
L 507.513768 188.468342 
L 510.219178 192.315482 
L 513.826393 197.919471 
L 515.63 200.914288 
L 515.63 200.914288 
" clip-path="url(#p9e248b90a6)" style="fill: none; stroke: #ac2694; stroke-width: 1.5; stroke-linecap: square"/>
   </g>
   <g id="line2d_21">
    <path d="M 65.63 377.64 
L 67.433607 377.552614 
L 69.237214 377.290631 
L 71.040822 376.854568 
L 72.844429 376.245291 
L 74.648036 375.464006 
L 76.451643 374.512262 
L 79.157054 372.769251 
L 81.862465 370.654797 
L 84.567876 368.178326 
L 87.273287 365.350876 
L 89.978697 362.18505 
L 92.684108 358.694961 
L 95.389519 354.896165 
L 98.996733 349.380349 
L 102.603948 343.389671 
L 106.211162 336.97159 
L 110.72018 328.425703 
L 115.229198 319.397406 
L 120.64002 308.084302 
L 129.658056 288.593479 
L 139.577896 267.238989 
L 144.988717 256.070236 
L 149.497735 247.208775 
L 154.006754 238.869861 
L 157.613968 232.644553 
L 161.221182 226.869179 
L 164.828397 221.589491 
L 167.533808 217.980339 
L 170.239218 214.689713 
L 172.944629 211.732281 
L 175.65004 209.121226 
L 178.355451 206.868187 
L 181.060862 204.983206 
L 183.766273 203.474687 
L 185.56988 202.681542 
L 187.373487 202.06031 
L 189.177094 201.612219 
L 190.980701 201.338158 
L 192.784309 201.238671 
L 194.587916 201.313954 
L 196.391523 201.563859 
L 198.19513 201.987889 
L 199.998737 202.585205 
L 201.802345 203.354623 
L 203.605952 204.294619 
L 206.311363 206.02028 
L 209.016774 208.117778 
L 211.722184 210.577766 
L 214.427595 213.389276 
L 217.133006 216.539778 
L 219.838417 220.015227 
L 222.543828 223.800132 
L 226.151042 229.298699 
L 229.758257 235.273706 
L 233.365471 241.677818 
L 237.874489 250.208805 
L 242.383507 259.225218 
L 247.794329 270.528247 
L 255.910561 288.049648 
L 266.732204 311.375976 
L 272.143026 322.556133 
L 276.652044 331.430535 
L 281.161062 339.785348 
L 284.768277 346.025372 
L 288.375491 351.817114 
L 291.982705 357.114689 
L 294.688116 360.73817 
L 297.393527 364.043837 
L 300.098938 367.016955 
L 302.804349 369.644271 
L 305.50976 371.914073 
L 308.21517 373.816245 
L 310.920581 375.342308 
L 312.724188 376.147304 
L 314.527796 376.780486 
L 316.331403 377.240601 
L 318.13501 377.526735 
L 319.938617 377.638323 
L 321.742224 377.575143 
L 323.545832 377.337321 
L 325.349439 376.925327 
L 327.153046 376.339978 
L 328.956653 375.582433 
L 330.760261 374.654195 
L 333.465671 372.945901 
L 336.171082 370.865378 
L 338.876493 368.421897 
L 341.581904 365.626353 
L 344.287315 362.491205 
L 346.992725 359.030429 
L 349.698136 355.25945 
L 353.305351 349.778185 
L 356.912565 343.818906 
L 360.51978 337.428824 
L 365.028798 328.912817 
L 369.537816 319.908374 
L 374.948637 308.615528 
L 383.06487 291.100501 
L 393.886513 267.765773 
L 399.297335 256.574317 
L 403.806353 247.687057 
L 408.315371 239.316426 
L 411.922585 233.061744 
L 415.5298 227.253691 
L 419.137014 221.938279 
L 421.842425 218.300503 
L 424.547836 214.979827 
L 427.253246 211.991051 
L 429.958657 209.347499 
L 432.664068 207.060955 
L 435.369479 205.141609 
L 438.07489 203.598019 
L 439.878497 202.781179 
L 441.682104 202.136053 
L 443.485711 201.663919 
L 445.289319 201.365713 
L 447.092926 201.242025 
L 448.896533 201.293101 
L 450.70014 201.51884 
L 452.503747 201.918793 
L 454.307355 202.49217 
L 456.110962 203.237833 
L 457.914569 204.154305 
L 460.61998 205.845216 
L 463.325391 207.908745 
L 466.030802 210.335694 
L 468.736212 213.115246 
L 471.441623 216.23501 
L 474.147034 219.681081 
L 476.852445 223.438097 
L 480.459659 228.902008 
L 484.066874 234.845503 
L 487.674088 241.221495 
L 492.183106 249.722439 
L 496.692124 258.714827 
L 502.102946 269.997383 
L 510.219178 287.50587 
L 515.63 299.264822 
L 515.63 299.264822 
" clip-path="url(#p9e248b90a6)" style="fill: none; stroke: #c23c81; stroke-width: 1.5; stroke-linecap: square"/>
   </g>
   <g id="line2d_22">
    <path d="M 65.63 377.64 
L 67.433607 377.552617 
L 69.237214 377.290672 
L 71.040822 376.854779 
L 72.844429 376.245957 
L 74.648036 375.465629 
L 76.451643 374.515622 
L 79.157054 372.77743 
L 81.862465 370.671698 
L 84.567876 368.209504 
L 87.273287 365.403806 
L 89.978697 362.269367 
L 92.684108 358.82268 
L 95.389519 355.08188 
L 98.996733 349.670873 
L 102.603948 343.82276 
L 106.211162 337.592231 
L 110.72018 329.355355 
L 116.131002 318.972633 
L 124.247234 302.836482 
L 134.167074 283.19747 
L 139.577896 272.985025 
L 144.086914 264.946718 
L 147.694128 258.910104 
L 151.301343 253.285124 
L 154.908557 248.12438 
L 157.613968 244.587686 
L 160.319379 241.357978 
L 163.02479 238.452253 
L 165.7302 235.8858 
L 168.435611 233.672124 
L 171.141022 231.822872 
L 173.846433 230.347776 
L 175.65004 229.576158 
L 177.453647 228.976127 
L 179.257255 228.549088 
L 181.060862 228.296038 
L 182.864469 228.21757 
L 184.668076 228.313868 
L 186.471683 228.584706 
L 188.275291 229.02945 
L 190.078898 229.647061 
L 191.882505 230.436094 
L 193.686112 231.394702 
L 196.391523 233.145556 
L 199.096934 235.263606 
L 201.802345 237.737707 
L 204.507756 240.554839 
L 207.213166 243.70018 
L 209.918577 247.157178 
L 212.623988 250.907643 
L 216.231202 256.330449 
L 219.838417 262.189013 
L 223.445631 268.42855 
L 227.954649 276.674528 
L 233.365471 287.064837 
L 241.481703 303.20524 
L 251.401543 322.837646 
L 256.812365 333.041149 
L 261.321383 341.069283 
L 264.928597 347.096084 
L 268.535812 352.709857 
L 272.143026 357.858107 
L 274.848437 361.384657 
L 277.553848 364.603614 
L 280.259259 367.49804 
L 282.964669 370.052705 
L 285.67008 372.254167 
L 288.375491 374.090841 
L 291.080902 375.553063 
L 292.884509 376.315967 
L 294.688116 376.907202 
L 296.491723 377.325385 
L 298.295331 377.569538 
L 300.098938 377.63909 
L 301.902545 377.533878 
L 303.706152 377.254149 
L 305.50976 376.800556 
L 307.313367 376.17416 
L 309.116974 375.376428 
L 310.920581 374.409225 
L 313.625992 372.645718 
L 316.331403 370.515364 
L 319.036814 368.029371 
L 321.742224 365.200821 
L 324.447635 362.044598 
L 327.153046 358.57731 
L 329.858457 354.817202 
L 333.465671 349.382631 
L 337.072886 343.513651 
L 340.6801 337.265144 
L 345.189118 329.010115 
L 350.59994 318.612283 
L 359.617976 300.661172 
L 368.636012 282.842045 
L 374.046834 272.647546 
L 378.555852 264.629633 
L 382.163066 258.612684 
L 385.770281 253.010151 
L 389.377495 247.874426 
L 392.082906 244.358043 
L 394.788317 241.149856 
L 397.493727 238.266746 
L 400.199138 235.723884 
L 402.904549 233.53465 
L 405.60996 231.710565 
L 408.315371 230.261226 
L 410.118978 229.507042 
L 411.922585 228.924606 
L 413.726192 228.515282 
L 415.5298 228.280026 
L 417.333407 228.21939 
L 419.137014 228.333516 
L 420.940621 228.622135 
L 422.744228 229.084574 
L 424.547836 229.71975 
L 426.351443 230.526177 
L 428.15505 231.50197 
L 430.860461 233.278118 
L 433.565872 235.420764 
L 436.271283 237.918634 
L 438.976693 240.758583 
L 441.682104 243.925669 
L 444.387515 247.403226 
L 447.092926 251.172955 
L 450.70014 256.619258 
L 454.307355 262.498618 
L 458.816373 270.372703 
L 463.325391 278.722272 
L 468.736212 289.197309 
L 480.459659 312.581438 
L 487.674088 326.646101 
L 492.183106 335.019214 
L 496.692124 342.92364 
L 500.299339 348.831873 
L 503.906553 354.310848 
L 507.513768 359.309327 
L 510.219178 362.714562 
L 512.924589 365.805206 
L 515.63 368.564996 
L 515.63 368.564996 
" clip-path="url(#p9e248b90a6)" style="fill: none; stroke: #d45270; stroke-width: 1.5; stroke-linecap: square"/>
   </g>
   <g id="line2d_23">
    <path d="M 65.63 377.64 
L 67.433607 377.55262 
L 69.237214 377.290721 
L 71.040822 376.855022 
L 72.844429 376.246724 
L 74.648036 375.467501 
L 76.451643 374.519495 
L 79.157054 372.786855 
L 81.862465 370.691158 
L 84.567876 368.245378 
L 87.273287 365.464654 
L 89.978697 362.366199 
L 92.684108 358.969192 
L 96.291323 354.01203 
L 99.898537 348.616221 
L 103.505752 342.841117 
L 108.01477 335.185977 
L 113.425591 325.534499 
L 133.265271 289.602529 
L 137.774289 282.152505 
L 141.381503 276.582232 
L 144.988717 271.425047 
L 148.595932 266.737682 
L 151.301343 263.561704 
L 154.006754 260.698781 
L 156.712164 258.166633 
L 159.417575 255.980934 
L 162.122986 254.155215 
L 164.828397 252.700776 
L 166.632004 251.941959 
L 168.435611 251.354294 
L 170.239218 250.939398 
L 172.042826 250.698412 
L 173.846433 250.632 
L 175.65004 250.740344 
L 177.453647 251.023147 
L 179.257255 251.47963 
L 181.060862 252.108537 
L 182.864469 252.908137 
L 184.668076 253.87623 
L 187.373487 255.63834 
L 190.078898 257.76255 
L 192.784309 260.235711 
L 195.489719 263.042514 
L 198.19513 266.165584 
L 200.900541 269.58559 
L 204.507756 274.570659 
L 208.11497 279.990945 
L 211.722184 285.786824 
L 216.231202 293.462386 
L 221.642024 303.129783 
L 240.5799 337.495635 
L 245.088918 345.018172 
L 248.696132 350.660133 
L 252.303347 355.900318 
L 255.910561 360.681083 
L 258.615972 363.93332 
L 261.321383 366.877305 
L 264.026794 369.494815 
L 266.732204 371.769646 
L 269.437615 373.687719 
L 272.143026 375.237159 
L 273.946633 376.060491 
L 275.75024 376.71341 
L 277.553848 377.194118 
L 279.357455 377.501294 
L 281.161062 377.634092 
L 282.964669 377.592146 
L 284.768277 377.375571 
L 286.571884 376.984965 
L 288.375491 376.421401 
L 290.179098 375.68643 
L 291.982705 374.782076 
L 294.688116 373.11352 
L 297.393527 371.079885 
L 300.098938 368.693761 
L 302.804349 365.969918 
L 305.50976 362.925215 
L 308.21517 359.578501 
L 311.822385 354.682479 
L 315.429599 349.340434 
L 319.036814 343.611128 
L 323.545832 336.001273 
L 328.956653 326.3856 
L 338.876493 308.147116 
L 346.090922 295.10802 
L 350.59994 287.347492 
L 355.108958 280.047148 
L 358.716172 274.622803 
L 362.323387 269.633102 
L 365.028798 266.209276 
L 367.734208 263.082115 
L 370.439619 260.270977 
L 373.14503 257.793262 
L 375.850441 255.664308 
L 378.555852 253.897293 
L 381.261263 252.503155 
L 383.06487 251.785242 
L 384.868477 251.238911 
L 386.672084 250.865668 
L 388.475691 250.666537 
L 390.279299 250.642068 
L 392.082906 250.792328 
L 393.886513 251.116903 
L 395.69012 251.6149 
L 397.493727 252.284949 
L 399.297335 253.125205 
L 402.002745 254.699545 
L 404.708156 256.641795 
L 407.413567 258.939934 
L 410.118978 261.579736 
L 412.824389 264.54486 
L 415.5298 267.816952 
L 418.23521 271.375757 
L 421.842425 276.528517 
L 425.449639 282.094956 
L 429.958657 289.541081 
L 435.369479 299.022339 
L 442.583908 312.203249 
L 452.503747 330.346192 
L 457.914569 339.770088 
L 462.423587 347.148683 
L 466.030802 352.648999 
L 469.638016 357.725661 
L 472.343427 361.221348 
L 475.048838 364.425569 
L 477.754248 367.318492 
L 480.459659 369.882208 
L 483.16507 372.100848 
L 485.870481 373.960678 
L 488.575892 375.450187 
L 490.379499 376.232809 
L 492.183106 376.844543 
L 493.986713 377.283707 
L 495.790321 377.549091 
L 497.593928 377.639965 
L 499.397535 377.55608 
L 501.201142 377.297665 
L 503.004749 376.865433 
L 504.808357 376.260572 
L 506.611964 375.484747 
L 508.415571 374.540093 
L 511.120982 372.812371 
L 513.826393 370.721435 
L 515.63 369.131993 
L 515.63 369.131993 
" clip-path="url(#p9e248b90a6)" style="fill: none; stroke: #e4695e; stroke-width: 1.5; stroke-linecap: square"/>
   </g>
   <g id="line2d_24">
    <path d="M 65.63 377.64 
L 67.433607 377.552623 
L 69.237214 377.290775 
L 71.040822 376.855298 
L 72.844429 376.247594 
L 74.648036 375.46962 
L 76.451643 374.523881 
L 79.157054 372.797518 
L 81.862465 370.71316 
L 84.567876 368.285902 
L 87.273287 365.533322 
L 89.978697 362.475351 
L 92.684108 359.134137 
L 96.291323 354.280676 
L 99.898537 349.029356 
L 104.407555 342.009081 
L 109.818377 333.103138 
L 127.854449 302.874721 
L 132.363467 295.973588 
L 135.970681 290.842637 
L 139.577896 286.130157 
L 142.283307 282.907122 
L 144.988717 279.977054 
L 147.694128 277.361172 
L 150.399539 275.07842 
L 153.10495 273.145328 
L 155.810361 271.575896 
L 157.613968 270.737365 
L 159.417575 270.068266 
L 161.221182 269.570756 
L 163.02479 269.246434 
L 164.828397 269.096347 
L 166.632004 269.120976 
L 168.435611 269.320243 
L 170.239218 269.693506 
L 172.042826 270.239563 
L 173.846433 270.956656 
L 175.65004 271.842477 
L 178.355451 273.481187 
L 181.060862 275.481124 
L 183.766273 277.827805 
L 186.471683 280.504236 
L 189.177094 283.491036 
L 191.882505 286.766574 
L 195.489719 291.541828 
L 199.096934 296.726557 
L 203.605952 303.681215 
L 209.016774 312.535953 
L 218.936613 329.391539 
L 225.249238 339.916723 
L 229.758257 347.05946 
L 233.365471 352.437395 
L 236.972685 357.44119 
L 240.5799 362.006457 
L 243.285311 365.107048 
L 245.990721 367.905338 
L 248.696132 370.38106 
L 251.401543 372.516287 
L 254.106954 374.295556 
L 256.812365 375.705982 
L 258.615972 376.436197 
L 260.419579 376.995534 
L 262.223186 377.382193 
L 264.026794 377.594929 
L 265.830401 377.633058 
L 267.634008 377.496455 
L 269.437615 377.185561 
L 271.241222 376.701378 
L 273.04483 376.045463 
L 274.848437 375.219929 
L 277.553848 373.669553 
L 280.259259 371.754867 
L 282.964669 369.489737 
L 285.67008 366.890567 
L 288.375491 363.976178 
L 291.080902 360.767676 
L 294.688116 356.07261 
L 298.295331 350.956627 
L 301.902545 345.485558 
L 306.411563 338.255001 
L 312.724188 327.663235 
L 324.447635 307.865063 
L 328.956653 300.665532 
L 332.563868 295.227626 
L 336.171082 290.151765 
L 339.778297 285.503264 
L 342.483707 282.333557 
L 345.189118 279.460971 
L 347.894529 276.906308 
L 350.59994 274.688069 
L 353.305351 272.822316 
L 356.010762 271.322563 
L 357.814369 270.531535 
L 359.617976 269.910603 
L 361.421583 269.461766 
L 363.22519 269.186469 
L 365.028798 269.0856 
L 366.832405 269.159481 
L 368.636012 269.407877 
L 370.439619 269.829986 
L 372.243226 270.42445 
L 374.046834 271.189354 
L 375.850441 272.122237 
L 378.555852 273.829805 
L 381.261263 275.896075 
L 383.966673 278.306085 
L 386.672084 281.042381 
L 389.377495 284.085149 
L 392.082906 287.412352 
L 395.69012 292.24916 
L 399.297335 297.486339 
L 403.806353 304.492745 
L 409.217174 313.387985 
L 428.15505 345.050209 
L 432.664068 351.867746 
L 436.271283 356.915575 
L 439.878497 361.531639 
L 442.583908 364.674377 
L 445.289319 367.517946 
L 447.994729 370.041753 
L 450.70014 372.227522 
L 453.405551 374.059424 
L 456.110962 375.524194 
L 457.914569 376.291393 
L 459.718176 376.888182 
L 461.521784 377.312638 
L 463.325391 377.563395 
L 465.128998 377.639646 
L 466.932605 377.541144 
L 468.736212 377.268208 
L 470.53982 376.821715 
L 472.343427 376.203104 
L 474.147034 375.414366 
L 476.852445 373.917974 
L 479.557856 372.055473 
L 482.263267 369.840351 
L 484.968677 367.28865 
L 487.674088 364.418847 
L 490.379499 361.251726 
L 493.986713 356.606333 
L 497.593928 351.533154 
L 501.201142 346.097472 
L 505.71016 338.900031 
L 512.022786 328.332751 
L 515.63 322.179395 
L 515.63 322.179395 
" clip-path="url(#p9e248b90a6)" style="fill: none; stroke: #f1814d; stroke-width: 1.5; stroke-linecap: square"/>
   </g>
   <g id="line2d_25">
    <path d="M 65.63 377.64 
L 67.433607 377.552627 
L 69.237214 377.290836 
L 71.040822 376.855606 
L 72.844429 376.248566 
L 74.648036 375.471987 
L 77.353447 373.995763 
L 80.058858 372.157188 
L 82.764269 369.971737 
L 85.469679 367.457805 
L 88.17509 364.636552 
L 90.880501 361.531723 
L 94.487715 356.99632 
L 98.09493 352.071319 
L 102.603948 345.479871 
L 108.01477 337.136276 
L 121.541824 315.995335 
L 126.050842 309.429812 
L 129.658056 304.532139 
L 133.265271 300.029483 
L 135.970681 296.952479 
L 138.676092 294.161592 
L 141.381503 291.68031 
L 144.086914 289.529519 
L 146.792325 287.727323 
L 149.497735 286.288889 
L 151.301343 285.538132 
L 153.10495 284.957303 
L 154.908557 284.548575 
L 156.712164 284.313479 
L 158.515772 284.252894 
L 160.319379 284.367047 
L 162.122986 284.65551 
L 163.926593 285.117205 
L 165.7302 285.750402 
L 167.533808 286.552734 
L 170.239218 288.066619 
L 172.944629 289.94141 
L 175.65004 292.161329 
L 178.355451 294.70769 
L 181.060862 297.55906 
L 183.766273 300.691441 
L 187.373487 305.259193 
L 190.980701 310.211088 
L 195.489719 316.82788 
L 200.900541 325.189002 
L 214.427595 346.309821 
L 218.936613 352.848843 
L 222.543828 357.718757 
L 226.151042 362.188269 
L 228.856453 365.237177 
L 231.561864 367.997453 
L 234.267275 370.445866 
L 236.972685 372.561807 
L 239.678096 374.327467 
L 242.383507 375.727984 
L 244.187114 376.452854 
L 245.990721 377.007421 
L 247.794329 377.389609 
L 249.597936 377.59799 
L 251.401543 377.631782 
L 253.20515 377.490859 
L 255.008758 377.175749 
L 256.812365 376.687631 
L 258.615972 376.028331 
L 260.419579 375.200317 
L 263.12499 373.648905 
L 265.830401 371.738062 
L 268.535812 369.483871 
L 271.241222 366.905305 
L 273.946633 364.024068 
L 276.652044 360.864411 
L 280.259259 356.264712 
L 283.866473 351.286358 
L 288.375491 344.644804 
L 294.688116 334.845451 
L 306.411563 316.519692 
L 310.920581 309.921572 
L 314.527796 304.989508 
L 318.13501 300.44562 
L 320.840421 297.333572 
L 323.545832 294.504431 
L 326.251242 291.982012 
L 328.956653 289.787543 
L 331.662064 287.939497 
L 334.367475 286.453428 
L 336.171082 285.670119 
L 337.974689 285.056245 
L 339.778297 284.614102 
L 341.581904 284.345345 
L 343.385511 284.250979 
L 345.189118 284.331359 
L 346.992725 284.586183 
L 348.796333 285.014498 
L 350.59994 285.6147 
L 352.403547 286.384544 
L 355.108958 287.850914 
L 357.814369 289.680007 
L 360.51978 291.856427 
L 363.22519 294.361856 
L 365.930601 297.175205 
L 368.636012 300.272796 
L 372.243226 304.799688 
L 375.850441 309.717596 
L 380.359459 316.302332 
L 385.770281 324.64123 
L 400.199138 347.134364 
L 404.708156 353.618657 
L 408.315371 358.43177 
L 411.922585 362.833818 
L 414.627996 365.825731 
L 417.333407 368.524059 
L 420.038818 370.906091 
L 422.744228 372.951778 
L 425.449639 374.6439 
L 428.15505 375.968217 
L 429.958657 376.641123 
L 431.762265 377.143022 
L 433.565872 377.472035 
L 435.369479 377.626931 
L 437.173086 377.60713 
L 438.976693 377.412707 
L 440.780301 377.044389 
L 442.583908 376.503554 
L 444.387515 375.792227 
L 446.191122 374.913069 
L 448.896533 373.287016 
L 451.601944 371.304577 
L 454.307355 368.982439 
L 457.012766 366.340147 
L 459.718176 363.39994 
L 462.423587 360.186567 
L 466.030802 355.524193 
L 469.638016 350.494238 
L 474.147034 343.804916 
L 480.459659 333.971798 
L 491.281303 317.046068 
L 495.790321 310.416274 
L 499.397535 305.450509 
L 503.004749 300.866026 
L 505.71016 297.719368 
L 508.415571 294.852371 
L 511.120982 292.289166 
L 513.826393 290.051327 
L 515.63 288.749613 
L 515.63 288.749613 
" clip-path="url(#p9e248b90a6)" style="fill: none; stroke: #fa9b3d; stroke-width: 1.5; stroke-linecap: square"/>
   </g>
   <g id="line2d_26">
    <path d="M 65.63 377.64 
L 67.433607 377.552631 
L 69.237214 377.290903 
L 71.040822 376.855946 
L 72.844429 376.249639 
L 74.648036 375.474601 
L 77.353447 374.003193 
L 80.058858 372.174137 
L 82.764269 370.005204 
L 85.469679 367.517465 
L 88.17509 364.735091 
L 90.880501 361.685113 
L 94.487715 357.253758 
L 98.09493 352.4761 
L 102.603948 346.143128 
L 110.72018 334.254805 
L 117.032806 325.131809 
L 121.541824 318.977561 
L 125.149038 314.400013 
L 128.756253 310.215868 
L 131.461663 307.379667 
L 134.167074 304.8331 
L 136.872485 302.60091 
L 139.577896 300.704783 
L 142.283307 299.16314 
L 144.086914 298.339857 
L 145.890521 297.68441 
L 147.694128 297.19963 
L 149.497735 296.887613 
L 151.301343 296.749705 
L 153.10495 296.786503 
L 154.908557 296.997847 
L 156.712164 297.382824 
L 158.515772 297.939773 
L 160.319379 298.666285 
L 162.122986 299.559223 
L 164.828397 301.202049 
L 167.533808 303.194528 
L 170.239218 305.517303 
L 172.944629 308.147806 
L 175.65004 311.060481 
L 179.257255 315.33371 
L 182.864469 319.984225 
L 187.373487 326.205126 
L 193.686112 335.372591 
L 202.704148 348.5138 
L 207.213166 354.71437 
L 210.820381 359.34245 
L 214.427595 363.588174 
L 217.133006 366.477175 
L 219.838417 369.081647 
L 222.543828 371.376286 
L 225.249238 373.338799 
L 227.954649 374.950119 
L 230.66006 376.194591 
L 232.463667 376.814313 
L 234.267275 377.262865 
L 236.070882 377.53831 
L 237.874489 377.639456 
L 239.678096 377.565868 
L 241.481703 377.317863 
L 243.285311 376.896512 
L 245.088918 376.303636 
L 246.892525 375.541797 
L 249.597936 374.089624 
L 252.303347 372.278965 
L 255.008758 370.127409 
L 257.714168 367.65586 
L 260.419579 364.888331 
L 263.12499 361.851709 
L 266.732204 357.435626 
L 270.339419 352.670099 
L 274.848437 346.347564 
L 282.964669 334.464049 
L 289.277295 325.332189 
L 293.786313 319.165095 
L 297.393527 314.57361 
L 301.000741 310.372531 
L 303.706152 307.521837 
L 306.411563 304.959397 
L 309.116974 302.710105 
L 311.822385 300.795816 
L 314.527796 299.235127 
L 316.331403 298.398746 
L 318.13501 297.729947 
L 319.938617 297.231618 
L 321.742224 296.905914 
L 323.545832 296.75424 
L 325.349439 296.777252 
L 327.153046 296.97485 
L 328.956653 297.346181 
L 330.760261 297.889641 
L 332.563868 298.602882 
L 334.367475 299.482823 
L 337.072886 301.106788 
L 339.778297 303.081332 
L 342.483707 305.387271 
L 345.189118 308.002202 
L 347.894529 310.90072 
L 351.501743 315.157509 
L 355.108958 319.794625 
L 359.617976 326.003402 
L 365.930601 335.16307 
L 375.850441 349.584316 
L 380.359459 355.716752 
L 383.966673 360.270762 
L 387.573888 364.426393 
L 390.279299 367.238233 
L 392.984709 369.758151 
L 395.69012 371.961664 
L 398.395531 373.827363 
L 401.100942 375.337122 
L 402.904549 376.138494 
L 404.708156 376.771614 
L 406.511764 377.23375 
L 408.315371 377.522903 
L 410.118978 377.637824 
L 411.922585 377.578019 
L 413.726192 377.343743 
L 415.5298 376.936011 
L 417.333407 376.356582 
L 419.137014 375.607961 
L 421.842425 374.175064 
L 424.547836 372.382848 
L 427.253246 370.248727 
L 429.958657 367.793435 
L 432.664068 365.040826 
L 435.369479 362.017643 
L 438.976693 357.616949 
L 442.583908 352.863682 
L 447.092926 346.551753 
L 455.209158 334.673366 
L 462.423587 324.266319 
L 466.932605 318.169716 
L 470.53982 313.654053 
L 474.147034 309.544668 
L 476.852445 306.772219 
L 479.557856 304.295307 
L 482.263267 302.137995 
L 484.968677 300.321244 
L 487.674088 298.862704 
L 489.477695 298.096495 
L 491.281303 297.499174 
L 493.08491 297.07332 
L 494.888517 296.820774 
L 496.692124 296.742627 
L 498.495731 296.839215 
L 500.299339 297.110122 
L 502.102946 297.554178 
L 503.906553 298.169464 
L 505.71016 298.953322 
L 508.415571 300.437579 
L 511.120982 302.278917 
L 513.826393 304.459446 
L 515.63 306.09124 
L 515.63 306.09124 
" clip-path="url(#p9e248b90a6)" style="fill: none; stroke: #feb82c; stroke-width: 1.5; stroke-linecap: square"/>
   </g>
   <g id="line2d_27">
    <path d="M 65.63 377.64 
L 67.433607 377.552636 
L 69.237214 377.290977 
L 71.040822 376.856318 
L 72.844429 376.250813 
L 74.648036 375.47746 
L 77.353447 374.011317 
L 80.058858 372.192653 
L 82.764269 370.041725 
L 85.469679 367.582487 
L 88.17509 364.84233 
L 91.782305 360.804958 
L 95.389519 356.402633 
L 99.898537 350.519756 
L 108.01477 339.422668 
L 114.327395 330.937157 
L 118.836413 325.269856 
L 122.443627 321.108167 
L 125.149038 318.258632 
L 127.854449 315.677522 
L 130.55986 313.393585 
L 133.265271 311.432256 
L 135.970681 309.815382 
L 138.676092 308.56097 
L 140.479699 307.933133 
L 142.283307 307.475795 
L 144.086914 307.191222 
L 145.890521 307.080822 
L 147.694128 307.145142 
L 149.497735 307.383864 
L 151.301343 307.795806 
L 153.10495 308.378927 
L 154.908557 309.13034 
L 157.613968 310.564641 
L 160.319379 312.353059 
L 163.02479 314.475676 
L 165.7302 316.90885 
L 168.435611 319.625483 
L 172.042826 323.635886 
L 175.65004 328.016752 
L 180.159058 333.881189 
L 187.373487 343.730422 
L 194.587916 353.471705 
L 199.096934 359.162116 
L 202.704148 363.348727 
L 205.409559 366.220391 
L 208.11497 368.826306 
L 210.820381 371.137449 
L 213.525792 373.128079 
L 216.231202 374.776026 
L 218.936613 376.062935 
L 220.74022 376.713049 
L 222.543828 377.193027 
L 224.347435 377.50049 
L 226.151042 377.633916 
L 227.954649 377.592645 
L 229.758257 377.37688 
L 231.561864 376.987691 
L 233.365471 376.427004 
L 235.169078 375.697596 
L 237.874489 374.295261 
L 240.5799 372.537242 
L 243.285311 370.443121 
L 245.990721 368.03622 
L 248.696132 365.343347 
L 252.303347 361.360257 
L 255.910561 357.001227 
L 260.419579 351.155737 
L 267.634008 341.316281 
L 274.848437 331.558992 
L 279.357455 325.845961 
L 282.964669 321.63479 
L 285.67008 318.741244 
L 288.375491 316.110749 
L 291.080902 313.7726 
L 293.786313 311.75284 
L 296.491723 310.073963 
L 299.197134 308.754668 
L 301.000741 308.082332 
L 302.804349 307.579756 
L 304.607956 307.24943 
L 306.411563 307.092988 
L 308.21517 307.111207 
L 310.018778 307.303996 
L 311.822385 307.6704 
L 313.625992 308.208604 
L 315.429599 308.915943 
L 318.13501 310.286192 
L 320.840421 312.013659 
L 323.545832 314.079105 
L 326.251242 316.459525 
L 328.956653 319.128407 
L 332.563868 323.083839 
L 336.171082 327.420657 
L 340.6801 333.246698 
L 346.992725 341.833923 
L 355.108958 352.847982 
L 359.617976 358.583139 
L 363.22519 362.818507 
L 366.832405 366.649083 
L 369.537816 369.210433 
L 372.243226 371.472732 
L 374.948637 373.410784 
L 377.654048 375.003004 
L 380.359459 376.231659 
L 382.163066 376.841852 
L 383.966673 377.28127 
L 385.770281 377.547737 
L 387.573888 377.639933 
L 389.377495 377.557402 
L 391.181102 377.300551 
L 392.984709 376.870654 
L 394.788317 376.269839 
L 396.591924 375.501083 
L 399.297335 374.041607 
L 402.002745 372.229274 
L 404.708156 370.084268 
L 407.413567 367.630479 
L 410.118978 364.895236 
L 413.726192 360.863492 
L 417.333407 356.465636 
L 421.842425 350.586585 
L 429.958657 339.491143 
L 436.271283 331.002186 
L 440.780301 325.329997 
L 444.387515 321.163051 
L 447.092926 318.308855 
L 449.798337 315.722524 
L 452.503747 313.432864 
L 455.209158 311.465376 
L 457.914569 309.841973 
L 460.61998 308.580736 
L 462.423587 307.948222 
L 464.227194 307.486133 
L 466.030802 307.196757 
L 467.834409 307.081527 
L 469.638016 307.141013 
L 471.441623 307.374922 
L 473.24523 307.782095 
L 475.048838 308.360515 
L 476.852445 309.107318 
L 479.557856 310.534925 
L 482.263267 312.31698 
L 484.968677 314.433635 
L 487.674088 316.861316 
L 490.379499 319.572985 
L 493.986713 323.577689 
L 497.593928 327.954006 
L 502.102946 333.814511 
L 509.317375 343.661764 
L 515.63 352.220641 
L 515.63 352.220641 
" clip-path="url(#p9e248b90a6)" style="fill: none; stroke: #fad824; stroke-width: 1.5; stroke-linecap: square"/>
   </g>
   <g id="LineCollection_1">
    <path d="M 65.63 201.238252 
L 515.63 201.238252 
" clip-path="url(#p9e248b90a6)" style="fill: none; stroke-dasharray: 5.55,2.4; stroke-dashoffset: 0; stroke: #000000; stroke-width: 1.5"/>
   </g>
   <g id="patch_3">
    <path d="M 65.63 395.28 
L 65.63 7.2 
" style="fill: none; stroke: #000000; stroke-width: 2.5; stroke-linejoin: miter; stroke-linecap: square"/>
   </g>
   <g id="patch_4">
    <path d="M 515.63 395.28 
L 515.63 7.2 
" style="fill: none; stroke: #000000; stroke-width: 2.5; stroke-linejoin: miter; stroke-linecap: square"/>
   </g>
   <g id="patch_5">
    <path d="M 65.63 395.28 
L 515.63 395.28 
" style="fill: none; stroke: #000000; stroke-width: 2.5; stroke-linejoin: miter; stroke-linecap: square"/>
   </g>
   <g id="patch_6">
    <path d="M 65.63 7.2 
L 515.63 7.2 
" style="fill: none; stroke: #000000; stroke-width: 2.5; stroke-linejoin: miter; stroke-linecap: square"/>
   </g>
   <g id="legend_1">
    <g id="line2d_28">
     <path d="M 530.03 59.145 
L 546.03 59.145 
L 562.03 59.145 
" style="fill: none; stroke: #0d0887; stroke-width: 1.5; stroke-linecap: square"/>
    </g>
    <g id="text_17">
     <!-- $\Delta$ = 0.0 -->
     <g transform="translate(574.83 64.745) scale(0.16 -0.16)">
      <defs>
       <path id="DejaVuSans-394" d="M 2188 4044 
L 906 525 
L 3472 525 
L 2188 4044 
z
M 50 0 
L 1831 4666 
L 2547 4666 
L 4325 0 
L 50 0 
z
" transform="scale(0.015625)"/>
       <path id="DejaVuSans-3d" d="M 678 2906 
L 4684 2906 
L 4684 2381 
L 678 2381 
L 678 2906 
z
M 678 1631 
L 4684 1631 
L 4684 1100 
L 678 1100 
L 678 1631 
z
" transform="scale(0.015625)"/>
      </defs>
      <use xlink:href="#DejaVuSans-394" transform="translate(0 0.78125)"/>
      <use xlink:href="#DejaVuSans-20" transform="translate(68.408203 0.78125)"/>
      <use xlink:href="#DejaVuSans-3d" transform="translate(100.195312 0.78125)"/>
      <use xlink:href="#DejaVuSans-20" transform="translate(183.984375 0.78125)"/>
      <use xlink:href="#DejaVuSans-30" transform="translate(215.771484 0.78125)"/>
      <use xlink:href="#DejaVuSans-2e" transform="translate(279.394531 0.78125)"/>
      <use xlink:href="#DejaVuSans-30" transform="translate(311.181641 0.78125)"/>
     </g>
    </g>
    <g id="line2d_29">
     <path d="M 530.03 82.63 
L 546.03 82.63 
L 562.03 82.63 
" style="fill: none; stroke: #370499; stroke-width: 1.5; stroke-linecap: square"/>
    </g>
    <g id="text_18">
     <!-- $\Delta$ = 1.7 -->
     <g transform="translate(574.83 88.23) scale(0.16 -0.16)">
      <use xlink:href="#DejaVuSans-394" transform="translate(0 0.09375)"/>
      <use xlink:href="#DejaVuSans-20" transform="translate(68.408203 0.09375)"/>
      <use xlink:href="#DejaVuSans-3d" transform="translate(100.195312 0.09375)"/>
      <use xlink:href="#DejaVuSans-20" transform="translate(183.984375 0.09375)"/>
      <use xlink:href="#DejaVuSans-31" transform="translate(215.771484 0.09375)"/>
      <use xlink:href="#DejaVuSans-2e" transform="translate(279.394531 0.09375)"/>
      <use xlink:href="#DejaVuSans-37" transform="translate(303.431641 0.09375)"/>
     </g>
    </g>
    <g id="line2d_30">
     <path d="M 530.03 106.115 
L 546.03 106.115 
L 562.03 106.115 
" style="fill: none; stroke: #5801a4; stroke-width: 1.5; stroke-linecap: square"/>
    </g>
    <g id="text_19">
     <!-- $\Delta$ = 3.3 -->
     <g transform="translate(574.83 111.715) scale(0.16 -0.16)">
      <use xlink:href="#DejaVuSans-394" transform="translate(0 0.78125)"/>
      <use xlink:href="#DejaVuSans-20" transform="translate(68.408203 0.78125)"/>
      <use xlink:href="#DejaVuSans-3d" transform="translate(100.195312 0.78125)"/>
      <use xlink:href="#DejaVuSans-20" transform="translate(183.984375 0.78125)"/>
      <use xlink:href="#DejaVuSans-33" transform="translate(215.771484 0.78125)"/>
      <use xlink:href="#DejaVuSans-2e" transform="translate(279.394531 0.78125)"/>
      <use xlink:href="#DejaVuSans-33" transform="translate(311.181641 0.78125)"/>
     </g>
    </g>
    <g id="line2d_31">
     <path d="M 530.03 129.6 
L 546.03 129.6 
L 562.03 129.6 
" style="fill: none; stroke: #7701a8; stroke-width: 1.5; stroke-linecap: square"/>
    </g>
    <g id="text_20">
     <!-- $\Delta$ = 5.0 -->
     <g transform="translate(574.83 135.2) scale(0.16 -0.16)">
      <use xlink:href="#DejaVuSans-394" transform="translate(0 0.78125)"/>
      <use xlink:href="#DejaVuSans-20" transform="translate(68.408203 0.78125)"/>
      <use xlink:href="#DejaVuSans-3d" transform="translate(100.195312 0.78125)"/>
      <use xlink:href="#DejaVuSans-20" transform="translate(183.984375 0.78125)"/>
      <use xlink:href="#DejaVuSans-35" transform="translate(215.771484 0.78125)"/>
      <use xlink:href="#DejaVuSans-2e" transform="translate(279.394531 0.78125)"/>
      <use xlink:href="#DejaVuSans-30" transform="translate(311.181641 0.78125)"/>
     </g>
    </g>
    <g id="line2d_32">
     <path d="M 530.03 153.085 
L 546.03 153.085 
L 562.03 153.085 
" style="fill: none; stroke: #920fa3; stroke-width: 1.5; stroke-linecap: square"/>
    </g>
    <g id="text_21">
     <!-- $\Delta$ = 6.7 -->
     <g transform="translate(574.83 158.685) scale(0.16 -0.16)">
      <use xlink:href="#DejaVuSans-394" transform="translate(0 0.78125)"/>
      <use xlink:href="#DejaVuSans-20" transform="translate(68.408203 0.78125)"/>
      <use xlink:href="#DejaVuSans-3d" transform="translate(100.195312 0.78125)"/>
      <use xlink:href="#DejaVuSans-20" transform="translate(183.984375 0.78125)"/>
      <use xlink:href="#DejaVuSans-36" transform="translate(215.771484 0.78125)"/>
      <use xlink:href="#DejaVuSans-2e" transform="translate(279.394531 0.78125)"/>
      <use xlink:href="#DejaVuSans-37" transform="translate(303.431641 0.78125)"/>
     </g>
    </g>
    <g id="line2d_33">
     <path d="M 530.03 176.57 
L 546.03 176.57 
L 562.03 176.57 
" style="fill: none; stroke: #ac2694; stroke-width: 1.5; stroke-linecap: square"/>
    </g>
    <g id="text_22">
     <!-- $\Delta$ = 8.3 -->
     <g transform="translate(574.83 182.17) scale(0.16 -0.16)">
      <use xlink:href="#DejaVuSans-394" transform="translate(0 0.78125)"/>
      <use xlink:href="#DejaVuSans-20" transform="translate(68.408203 0.78125)"/>
      <use xlink:href="#DejaVuSans-3d" transform="translate(100.195312 0.78125)"/>
      <use xlink:href="#DejaVuSans-20" transform="translate(183.984375 0.78125)"/>
      <use xlink:href="#DejaVuSans-38" transform="translate(215.771484 0.78125)"/>
      <use xlink:href="#DejaVuSans-2e" transform="translate(279.394531 0.78125)"/>
      <use xlink:href="#DejaVuSans-33" transform="translate(311.181641 0.78125)"/>
     </g>
    </g>
    <g id="line2d_34">
     <path d="M 530.03 200.055 
L 546.03 200.055 
L 562.03 200.055 
" style="fill: none; stroke: #c23c81; stroke-width: 1.5; stroke-linecap: square"/>
    </g>
    <g id="text_23">
     <!-- $\Delta$ = 10.0 -->
     <g transform="translate(574.83 205.655) scale(0.16 -0.16)">
      <use xlink:href="#DejaVuSans-394" transform="translate(0 0.78125)"/>
      <use xlink:href="#DejaVuSans-20" transform="translate(68.408203 0.78125)"/>
      <use xlink:href="#DejaVuSans-3d" transform="translate(100.195312 0.78125)"/>
      <use xlink:href="#DejaVuSans-20" transform="translate(183.984375 0.78125)"/>
      <use xlink:href="#DejaVuSans-31" transform="translate(215.771484 0.78125)"/>
      <use xlink:href="#DejaVuSans-30" transform="translate(279.394531 0.78125)"/>
      <use xlink:href="#DejaVuSans-2e" transform="translate(343.017578 0.78125)"/>
      <use xlink:href="#DejaVuSans-30" transform="translate(374.804688 0.78125)"/>
     </g>
    </g>
    <g id="line2d_35">
     <path d="M 530.03 223.54 
L 546.03 223.54 
L 562.03 223.54 
" style="fill: none; stroke: #d45270; stroke-width: 1.5; stroke-linecap: square"/>
    </g>
    <g id="text_24">
     <!-- $\Delta$ = 11.7 -->
     <g transform="translate(574.83 229.14) scale(0.16 -0.16)">
      <use xlink:href="#DejaVuSans-394" transform="translate(0 0.09375)"/>
      <use xlink:href="#DejaVuSans-20" transform="translate(68.408203 0.09375)"/>
      <use xlink:href="#DejaVuSans-3d" transform="translate(100.195312 0.09375)"/>
      <use xlink:href="#DejaVuSans-20" transform="translate(183.984375 0.09375)"/>
      <use xlink:href="#DejaVuSans-31" transform="translate(215.771484 0.09375)"/>
      <use xlink:href="#DejaVuSans-31" transform="translate(279.394531 0.09375)"/>
      <use xlink:href="#DejaVuSans-2e" transform="translate(343.017578 0.09375)"/>
      <use xlink:href="#DejaVuSans-37" transform="translate(367.054688 0.09375)"/>
     </g>
    </g>
    <g id="line2d_36">
     <path d="M 530.03 247.025 
L 546.03 247.025 
L 562.03 247.025 
" style="fill: none; stroke: #e4695e; stroke-width: 1.5; stroke-linecap: square"/>
    </g>
    <g id="text_25">
     <!-- $\Delta$ = 13.3 -->
     <g transform="translate(574.83 252.625) scale(0.16 -0.16)">
      <use xlink:href="#DejaVuSans-394" transform="translate(0 0.78125)"/>
      <use xlink:href="#DejaVuSans-20" transform="translate(68.408203 0.78125)"/>
      <use xlink:href="#DejaVuSans-3d" transform="translate(100.195312 0.78125)"/>
      <use xlink:href="#DejaVuSans-20" transform="translate(183.984375 0.78125)"/>
      <use xlink:href="#DejaVuSans-31" transform="translate(215.771484 0.78125)"/>
      <use xlink:href="#DejaVuSans-33" transform="translate(279.394531 0.78125)"/>
      <use xlink:href="#DejaVuSans-2e" transform="translate(343.017578 0.78125)"/>
      <use xlink:href="#DejaVuSans-33" transform="translate(374.804688 0.78125)"/>
     </g>
    </g>
    <g id="line2d_37">
     <path d="M 530.03 270.51 
L 546.03 270.51 
L 562.03 270.51 
" style="fill: none; stroke: #f1814d; stroke-width: 1.5; stroke-linecap: square"/>
    </g>
    <g id="text_26">
     <!-- $\Delta$ = 15.0 -->
     <g transform="translate(574.83 276.11) scale(0.16 -0.16)">
      <use xlink:href="#DejaVuSans-394" transform="translate(0 0.78125)"/>
      <use xlink:href="#DejaVuSans-20" transform="translate(68.408203 0.78125)"/>
      <use xlink:href="#DejaVuSans-3d" transform="translate(100.195312 0.78125)"/>
      <use xlink:href="#DejaVuSans-20" transform="translate(183.984375 0.78125)"/>
      <use xlink:href="#DejaVuSans-31" transform="translate(215.771484 0.78125)"/>
      <use xlink:href="#DejaVuSans-35" transform="translate(279.394531 0.78125)"/>
      <use xlink:href="#DejaVuSans-2e" transform="translate(343.017578 0.78125)"/>
      <use xlink:href="#DejaVuSans-30" transform="translate(374.804688 0.78125)"/>
     </g>
    </g>
    <g id="line2d_38">
     <path d="M 530.03 293.995 
L 546.03 293.995 
L 562.03 293.995 
" style="fill: none; stroke: #fa9b3d; stroke-width: 1.5; stroke-linecap: square"/>
    </g>
    <g id="text_27">
     <!-- $\Delta$ = 16.7 -->
     <g transform="translate(574.83 299.595) scale(0.16 -0.16)">
      <use xlink:href="#DejaVuSans-394" transform="translate(0 0.78125)"/>
      <use xlink:href="#DejaVuSans-20" transform="translate(68.408203 0.78125)"/>
      <use xlink:href="#DejaVuSans-3d" transform="translate(100.195312 0.78125)"/>
      <use xlink:href="#DejaVuSans-20" transform="translate(183.984375 0.78125)"/>
      <use xlink:href="#DejaVuSans-31" transform="translate(215.771484 0.78125)"/>
      <use xlink:href="#DejaVuSans-36" transform="translate(279.394531 0.78125)"/>
      <use xlink:href="#DejaVuSans-2e" transform="translate(343.017578 0.78125)"/>
      <use xlink:href="#DejaVuSans-37" transform="translate(367.054688 0.78125)"/>
     </g>
    </g>
    <g id="line2d_39">
     <path d="M 530.03 317.48 
L 546.03 317.48 
L 562.03 317.48 
" style="fill: none; stroke: #feb82c; stroke-width: 1.5; stroke-linecap: square"/>
    </g>
    <g id="text_28">
     <!-- $\Delta$ = 18.3 -->
     <g transform="translate(574.83 323.08) scale(0.16 -0.16)">
      <use xlink:href="#DejaVuSans-394" transform="translate(0 0.78125)"/>
      <use xlink:href="#DejaVuSans-20" transform="translate(68.408203 0.78125)"/>
      <use xlink:href="#DejaVuSans-3d" transform="translate(100.195312 0.78125)"/>
      <use xlink:href="#DejaVuSans-20" transform="translate(183.984375 0.78125)"/>
      <use xlink:href="#DejaVuSans-31" transform="translate(215.771484 0.78125)"/>
      <use xlink:href="#DejaVuSans-38" transform="translate(279.394531 0.78125)"/>
      <use xlink:href="#DejaVuSans-2e" transform="translate(343.017578 0.78125)"/>
      <use xlink:href="#DejaVuSans-33" transform="translate(374.804688 0.78125)"/>
     </g>
    </g>
    <g id="line2d_40">
     <path d="M 530.03 340.965 
L 546.03 340.965 
L 562.03 340.965 
" style="fill: none; stroke: #fad824; stroke-width: 1.5; stroke-linecap: square"/>
    </g>
    <g id="text_29">
     <!-- $\Delta$ = 20.0 -->
     <g transform="translate(574.83 346.565) scale(0.16 -0.16)">
      <use xlink:href="#DejaVuSans-394" transform="translate(0 0.78125)"/>
      <use xlink:href="#DejaVuSans-20" transform="translate(68.408203 0.78125)"/>
      <use xlink:href="#DejaVuSans-3d" transform="translate(100.195312 0.78125)"/>
      <use xlink:href="#DejaVuSans-20" transform="translate(183.984375 0.78125)"/>
      <use xlink:href="#DejaVuSans-32" transform="translate(215.771484 0.78125)"/>
      <use xlink:href="#DejaVuSans-30" transform="translate(279.394531 0.78125)"/>
      <use xlink:href="#DejaVuSans-2e" transform="translate(343.017578 0.78125)"/>
      <use xlink:href="#DejaVuSans-30" transform="translate(374.804688 0.78125)"/>
     </g>
    </g>
   </g>
  </g>
 </g>
 <defs>
  <clipPath id="p9e248b90a6">
   <rect x="65.63" y="7.2" width="450" height="388.08"/>
  </clipPath>
 </defs>
</svg>
