<?xml version="1.0" encoding="utf-8" standalone="no"?>
<!DOCTYPE svg PUBLIC "-//W3C//DTD SVG 1.1//EN"
  "http://www.w3.org/Graphics/SVG/1.1/DTD/svg11.dtd">
<svg xmlns:xlink="http://www.w3.org/1999/xlink" width="659.95pt" height="450.95pt" viewBox="0 0 659.95 450.95" xmlns="http://www.w3.org/2000/svg" version="1.1">
 <metadata>
  <rdf:RDF xmlns:dc="http://purl.org/dc/elements/1.1/" xmlns:cc="http://creativecommons.org/ns#" xmlns:rdf="http://www.w3.org/1999/02/22-rdf-syntax-ns#">
   <cc:Work>
    <dc:type rdf:resource="http://purl.org/dc/dcmitype/StillImage"/>
    <dc:date>2024-08-06T19:49:27.995713</dc:date>
    <dc:format>image/svg+xml</dc:format>
    <dc:creator>
     <cc:Agent>
      <dc:title>Matplotlib v3.7.1, https://matplotlib.org/</dc:title>
     </cc:Agent>
    </dc:creator>
   </cc:Work>
  </rdf:RDF>
 </metadata>
 <defs>
  <style type="text/css">*{stroke-linejoin: round; stroke-linecap: butt}</style>
 </defs>
 <g id="figure_1">
  <g id="patch_1">
   <path d="M 0 450.95 
L 659.95 450.95 
L 659.95 0 
L 0 0 
z
" style="fill: #ffffff"/>
  </g>
  <g id="axes_1">
   <g id="patch_2">
    <path d="M 65.63 395.28 
L 515.63 395.28 
L 515.63 7.2 
L 65.63 7.2 
z
" style="fill: #ffffff"/>
   </g>
   <g id="matplotlib.axis_1">
    <g id="xtick_1">
     <g id="line2d_1">
      <defs>
       <path id="m602309e518" d="M 0 0 
L 0 10 
" style="stroke: #000000; stroke-width: 2.5"/>
      </defs>
      <g>
       <use xlink:href="#m602309e518" x="65.63" y="395.28" style="stroke: #000000; stroke-width: 2.5"/>
      </g>
     </g>
     <g id="text_1">
      <!-- 0 -->
      <g transform="translate(60.54 420.9375) scale(0.16 -0.16)">
       <defs>
        <path id="DejaVuSans-30" d="M 2034 4250 
Q 1547 4250 1301 3770 
Q 1056 3291 1056 2328 
Q 1056 1369 1301 889 
Q 1547 409 2034 409 
Q 2525 409 2770 889 
Q 3016 1369 3016 2328 
Q 3016 3291 2770 3770 
Q 2525 4250 2034 4250 
z
M 2034 4750 
Q 2819 4750 3233 4129 
Q 3647 3509 3647 2328 
Q 3647 1150 3233 529 
Q 2819 -91 2034 -91 
Q 1250 -91 836 529 
Q 422 1150 422 2328 
Q 422 3509 836 4129 
Q 1250 4750 2034 4750 
z
" transform="scale(0.015625)"/>
       </defs>
       <use xlink:href="#DejaVuSans-30"/>
      </g>
     </g>
    </g>
    <g id="xtick_2">
     <g id="line2d_2">
      <g>
       <use xlink:href="#m602309e518" x="122.92578" y="395.28" style="stroke: #000000; stroke-width: 2.5"/>
      </g>
     </g>
     <g id="text_2">
      <!-- 2 -->
      <g transform="translate(117.83578 420.9375) scale(0.16 -0.16)">
       <defs>
        <path id="DejaVuSans-32" d="M 1228 531 
L 3431 531 
L 3431 0 
L 469 0 
L 469 531 
Q 828 903 1448 1529 
Q 2069 2156 2228 2338 
Q 2531 2678 2651 2914 
Q 2772 3150 2772 3378 
Q 2772 3750 2511 3984 
Q 2250 4219 1831 4219 
Q 1534 4219 1204 4116 
Q 875 4013 500 3803 
L 500 4441 
Q 881 4594 1212 4672 
Q 1544 4750 1819 4750 
Q 2544 4750 2975 4387 
Q 3406 4025 3406 3419 
Q 3406 3131 3298 2873 
Q 3191 2616 2906 2266 
Q 2828 2175 2409 1742 
Q 1991 1309 1228 531 
z
" transform="scale(0.015625)"/>
       </defs>
       <use xlink:href="#DejaVuSans-32"/>
      </g>
     </g>
    </g>
    <g id="xtick_3">
     <g id="line2d_3">
      <g>
       <use xlink:href="#m602309e518" x="180.221559" y="395.28" style="stroke: #000000; stroke-width: 2.5"/>
      </g>
     </g>
     <g id="text_3">
      <!-- 4 -->
      <g transform="translate(175.131559 420.9375) scale(0.16 -0.16)">
       <defs>
        <path id="DejaVuSans-34" d="M 2419 4116 
L 825 1625 
L 2419 1625 
L 2419 4116 
z
M 2253 4666 
L 3047 4666 
L 3047 1625 
L 3713 1625 
L 3713 1100 
L 3047 1100 
L 3047 0 
L 2419 0 
L 2419 1100 
L 313 1100 
L 313 1709 
L 2253 4666 
z
" transform="scale(0.015625)"/>
       </defs>
       <use xlink:href="#DejaVuSans-34"/>
      </g>
     </g>
    </g>
    <g id="xtick_4">
     <g id="line2d_4">
      <g>
       <use xlink:href="#m602309e518" x="237.517339" y="395.28" style="stroke: #000000; stroke-width: 2.5"/>
      </g>
     </g>
     <g id="text_4">
      <!-- 6 -->
      <g transform="translate(232.427339 420.9375) scale(0.16 -0.16)">
       <defs>
        <path id="DejaVuSans-36" d="M 2113 2584 
Q 1688 2584 1439 2293 
Q 1191 2003 1191 1497 
Q 1191 994 1439 701 
Q 1688 409 2113 409 
Q 2538 409 2786 701 
Q 3034 994 3034 1497 
Q 3034 2003 2786 2293 
Q 2538 2584 2113 2584 
z
M 3366 4563 
L 3366 3988 
Q 3128 4100 2886 4159 
Q 2644 4219 2406 4219 
Q 1781 4219 1451 3797 
Q 1122 3375 1075 2522 
Q 1259 2794 1537 2939 
Q 1816 3084 2150 3084 
Q 2853 3084 3261 2657 
Q 3669 2231 3669 1497 
Q 3669 778 3244 343 
Q 2819 -91 2113 -91 
Q 1303 -91 875 529 
Q 447 1150 447 2328 
Q 447 3434 972 4092 
Q 1497 4750 2381 4750 
Q 2619 4750 2861 4703 
Q 3103 4656 3366 4563 
z
" transform="scale(0.015625)"/>
       </defs>
       <use xlink:href="#DejaVuSans-36"/>
      </g>
     </g>
    </g>
    <g id="xtick_5">
     <g id="line2d_5">
      <g>
       <use xlink:href="#m602309e518" x="294.813118" y="395.28" style="stroke: #000000; stroke-width: 2.5"/>
      </g>
     </g>
     <g id="text_5">
      <!-- 8 -->
      <g transform="translate(289.723118 420.9375) scale(0.16 -0.16)">
       <defs>
        <path id="DejaVuSans-38" d="M 2034 2216 
Q 1584 2216 1326 1975 
Q 1069 1734 1069 1313 
Q 1069 891 1326 650 
Q 1584 409 2034 409 
Q 2484 409 2743 651 
Q 3003 894 3003 1313 
Q 3003 1734 2745 1975 
Q 2488 2216 2034 2216 
z
M 1403 2484 
Q 997 2584 770 2862 
Q 544 3141 544 3541 
Q 544 4100 942 4425 
Q 1341 4750 2034 4750 
Q 2731 4750 3128 4425 
Q 3525 4100 3525 3541 
Q 3525 3141 3298 2862 
Q 3072 2584 2669 2484 
Q 3125 2378 3379 2068 
Q 3634 1759 3634 1313 
Q 3634 634 3220 271 
Q 2806 -91 2034 -91 
Q 1263 -91 848 271 
Q 434 634 434 1313 
Q 434 1759 690 2068 
Q 947 2378 1403 2484 
z
M 1172 3481 
Q 1172 3119 1398 2916 
Q 1625 2713 2034 2713 
Q 2441 2713 2670 2916 
Q 2900 3119 2900 3481 
Q 2900 3844 2670 4047 
Q 2441 4250 2034 4250 
Q 1625 4250 1398 4047 
Q 1172 3844 1172 3481 
z
" transform="scale(0.015625)"/>
       </defs>
       <use xlink:href="#DejaVuSans-38"/>
      </g>
     </g>
    </g>
    <g id="xtick_6">
     <g id="line2d_6">
      <g>
       <use xlink:href="#m602309e518" x="352.108898" y="395.28" style="stroke: #000000; stroke-width: 2.5"/>
      </g>
     </g>
     <g id="text_6">
      <!-- 10 -->
      <g transform="translate(341.928898 420.9375) scale(0.16 -0.16)">
       <defs>
        <path id="DejaVuSans-31" d="M 794 531 
L 1825 531 
L 1825 4091 
L 703 3866 
L 703 4441 
L 1819 4666 
L 2450 4666 
L 2450 531 
L 3481 531 
L 3481 0 
L 794 0 
L 794 531 
z
" transform="scale(0.015625)"/>
       </defs>
       <use xlink:href="#DejaVuSans-31"/>
       <use xlink:href="#DejaVuSans-30" x="63.623047"/>
      </g>
     </g>
    </g>
    <g id="xtick_7">
     <g id="line2d_7">
      <g>
       <use xlink:href="#m602309e518" x="409.404677" y="395.28" style="stroke: #000000; stroke-width: 2.5"/>
      </g>
     </g>
     <g id="text_7">
      <!-- 12 -->
      <g transform="translate(399.224677 420.9375) scale(0.16 -0.16)">
       <use xlink:href="#DejaVuSans-31"/>
       <use xlink:href="#DejaVuSans-32" x="63.623047"/>
      </g>
     </g>
    </g>
    <g id="xtick_8">
     <g id="line2d_8">
      <g>
       <use xlink:href="#m602309e518" x="466.700457" y="395.28" style="stroke: #000000; stroke-width: 2.5"/>
      </g>
     </g>
     <g id="text_8">
      <!-- 14 -->
      <g transform="translate(456.520457 420.9375) scale(0.16 -0.16)">
       <use xlink:href="#DejaVuSans-31"/>
       <use xlink:href="#DejaVuSans-34" x="63.623047"/>
      </g>
     </g>
    </g>
    <g id="text_9">
     <!-- Time [$2\pi/\Omega$] -->
     <g transform="translate(243.27 440.4225) scale(0.16 -0.16)">
      <defs>
       <path id="DejaVuSans-54" d="M -19 4666 
L 3928 4666 
L 3928 4134 
L 2272 4134 
L 2272 0 
L 1638 0 
L 1638 4134 
L -19 4134 
L -19 4666 
z
" transform="scale(0.015625)"/>
       <path id="DejaVuSans-69" d="M 603 3500 
L 1178 3500 
L 1178 0 
L 603 0 
L 603 3500 
z
M 603 4863 
L 1178 4863 
L 1178 4134 
L 603 4134 
L 603 4863 
z
" transform="scale(0.015625)"/>
       <path id="DejaVuSans-6d" d="M 3328 2828 
Q 3544 3216 3844 3400 
Q 4144 3584 4550 3584 
Q 5097 3584 5394 3201 
Q 5691 2819 5691 2113 
L 5691 0 
L 5113 0 
L 5113 2094 
Q 5113 2597 4934 2840 
Q 4756 3084 4391 3084 
Q 3944 3084 3684 2787 
Q 3425 2491 3425 1978 
L 3425 0 
L 2847 0 
L 2847 2094 
Q 2847 2600 2669 2842 
Q 2491 3084 2119 3084 
Q 1678 3084 1418 2786 
Q 1159 2488 1159 1978 
L 1159 0 
L 581 0 
L 581 3500 
L 1159 3500 
L 1159 2956 
Q 1356 3278 1631 3431 
Q 1906 3584 2284 3584 
Q 2666 3584 2933 3390 
Q 3200 3197 3328 2828 
z
" transform="scale(0.015625)"/>
       <path id="DejaVuSans-65" d="M 3597 1894 
L 3597 1613 
L 953 1613 
Q 991 1019 1311 708 
Q 1631 397 2203 397 
Q 2534 397 2845 478 
Q 3156 559 3463 722 
L 3463 178 
Q 3153 47 2828 -22 
Q 2503 -91 2169 -91 
Q 1331 -91 842 396 
Q 353 884 353 1716 
Q 353 2575 817 3079 
Q 1281 3584 2069 3584 
Q 2775 3584 3186 3129 
Q 3597 2675 3597 1894 
z
M 3022 2063 
Q 3016 2534 2758 2815 
Q 2500 3097 2075 3097 
Q 1594 3097 1305 2825 
Q 1016 2553 972 2059 
L 3022 2063 
z
" transform="scale(0.015625)"/>
       <path id="DejaVuSans-20" transform="scale(0.015625)"/>
       <path id="DejaVuSans-5b" d="M 550 4863 
L 1875 4863 
L 1875 4416 
L 1125 4416 
L 1125 -397 
L 1875 -397 
L 1875 -844 
L 550 -844 
L 550 4863 
z
" transform="scale(0.015625)"/>
       <path id="DejaVuSans-Oblique-3c0" d="M 584 3500 
L 3938 3500 
L 3825 2925 
L 3384 2925 
L 2966 775 
Q 2922 550 2981 450 
Q 3038 353 3209 353 
Q 3256 353 3325 363 
Q 3397 369 3419 372 
L 3338 -44 
Q 3222 -84 3103 -103 
Q 2981 -122 2866 -122 
Q 2491 -122 2388 81 
Q 2284 288 2391 838 
L 2797 2925 
L 1506 2925 
L 938 0 
L 350 0 
L 919 2925 
L 472 2925 
L 584 3500 
z
" transform="scale(0.015625)"/>
       <path id="DejaVuSans-2f" d="M 1625 4666 
L 2156 4666 
L 531 -594 
L 0 -594 
L 1625 4666 
z
" transform="scale(0.015625)"/>
       <path id="DejaVuSans-3a9" d="M 4647 556 
L 4647 0 
L 2772 0 
L 2772 556 
Q 3325 859 3634 1378 
Q 3944 1897 3944 2528 
Q 3944 3278 3531 3731 
Q 3119 4184 2444 4184 
Q 1769 4184 1355 3729 
Q 941 3275 941 2528 
Q 941 1897 1250 1378 
Q 1563 859 2119 556 
L 2119 0 
L 244 0 
L 244 556 
L 1241 556 
Q 747 991 519 1456 
Q 294 1922 294 2497 
Q 294 3491 894 4106 
Q 1491 4722 2444 4722 
Q 3391 4722 3994 4106 
Q 4594 3494 4594 2528 
Q 4594 1922 4372 1459 
Q 4150 997 3647 556 
L 4647 556 
z
" transform="scale(0.015625)"/>
       <path id="DejaVuSans-5d" d="M 1947 4863 
L 1947 -844 
L 622 -844 
L 622 -397 
L 1369 -397 
L 1369 4416 
L 622 4416 
L 622 4863 
L 1947 4863 
z
" transform="scale(0.015625)"/>
      </defs>
      <use xlink:href="#DejaVuSans-54" transform="translate(0 0.015625)"/>
      <use xlink:href="#DejaVuSans-69" transform="translate(61.083984 0.015625)"/>
      <use xlink:href="#DejaVuSans-6d" transform="translate(88.867188 0.015625)"/>
      <use xlink:href="#DejaVuSans-65" transform="translate(186.279297 0.015625)"/>
      <use xlink:href="#DejaVuSans-20" transform="translate(247.802734 0.015625)"/>
      <use xlink:href="#DejaVuSans-5b" transform="translate(279.589844 0.015625)"/>
      <use xlink:href="#DejaVuSans-32" transform="translate(318.603516 0.015625)"/>
      <use xlink:href="#DejaVuSans-Oblique-3c0" transform="translate(382.226562 0.015625)"/>
      <use xlink:href="#DejaVuSans-2f" transform="translate(442.431641 0.015625)"/>
      <use xlink:href="#DejaVuSans-3a9" transform="translate(476.123047 0.015625)"/>
      <use xlink:href="#DejaVuSans-5d" transform="translate(552.539062 0.015625)"/>
     </g>
    </g>
   </g>
   <g id="matplotlib.axis_2">
    <g id="ytick_1">
     <g id="line2d_9">
      <defs>
       <path id="m4898967c58" d="M 0 0 
L -10 0 
" style="stroke: #000000; stroke-width: 2.5"/>
      </defs>
      <g>
       <use xlink:href="#m4898967c58" x="65.63" y="377.64" style="stroke: #000000; stroke-width: 2.5"/>
      </g>
     </g>
     <g id="text_10">
      <!-- 0.0 -->
      <g transform="translate(26.685 383.71875) scale(0.16 -0.16)">
       <defs>
        <path id="DejaVuSans-2e" d="M 684 794 
L 1344 794 
L 1344 0 
L 684 0 
L 684 794 
z
" transform="scale(0.015625)"/>
       </defs>
       <use xlink:href="#DejaVuSans-30"/>
       <use xlink:href="#DejaVuSans-2e" x="63.623047"/>
       <use xlink:href="#DejaVuSans-30" x="95.410156"/>
      </g>
     </g>
    </g>
    <g id="ytick_2">
     <g id="line2d_10">
      <g>
       <use xlink:href="#m4898967c58" x="65.63" y="307.08" style="stroke: #000000; stroke-width: 2.5"/>
      </g>
     </g>
     <g id="text_11">
      <!-- 0.2 -->
      <g transform="translate(26.685 313.15875) scale(0.16 -0.16)">
       <use xlink:href="#DejaVuSans-30"/>
       <use xlink:href="#DejaVuSans-2e" x="63.623047"/>
       <use xlink:href="#DejaVuSans-32" x="95.410156"/>
      </g>
     </g>
    </g>
    <g id="ytick_3">
     <g id="line2d_11">
      <g>
       <use xlink:href="#m4898967c58" x="65.63" y="236.52" style="stroke: #000000; stroke-width: 2.5"/>
      </g>
     </g>
     <g id="text_12">
      <!-- 0.4 -->
      <g transform="translate(26.685 242.59875) scale(0.16 -0.16)">
       <use xlink:href="#DejaVuSans-30"/>
       <use xlink:href="#DejaVuSans-2e" x="63.623047"/>
       <use xlink:href="#DejaVuSans-34" x="95.410156"/>
      </g>
     </g>
    </g>
    <g id="ytick_4">
     <g id="line2d_12">
      <g>
       <use xlink:href="#m4898967c58" x="65.63" y="165.96" style="stroke: #000000; stroke-width: 2.5"/>
      </g>
     </g>
     <g id="text_13">
      <!-- 0.6 -->
      <g transform="translate(26.685 172.03875) scale(0.16 -0.16)">
       <use xlink:href="#DejaVuSans-30"/>
       <use xlink:href="#DejaVuSans-2e" x="63.623047"/>
       <use xlink:href="#DejaVuSans-36" x="95.410156"/>
      </g>
     </g>
    </g>
    <g id="ytick_5">
     <g id="line2d_13">
      <g>
       <use xlink:href="#m4898967c58" x="65.63" y="95.4" style="stroke: #000000; stroke-width: 2.5"/>
      </g>
     </g>
     <g id="text_14">
      <!-- 0.8 -->
      <g transform="translate(26.685 101.47875) scale(0.16 -0.16)">
       <use xlink:href="#DejaVuSans-30"/>
       <use xlink:href="#DejaVuSans-2e" x="63.623047"/>
       <use xlink:href="#DejaVuSans-38" x="95.410156"/>
      </g>
     </g>
    </g>
    <g id="ytick_6">
     <g id="line2d_14">
      <g>
       <use xlink:href="#m4898967c58" x="65.63" y="24.84" style="stroke: #000000; stroke-width: 2.5"/>
      </g>
     </g>
     <g id="text_15">
      <!-- 1.0 -->
      <g transform="translate(26.685 30.91875) scale(0.16 -0.16)">
       <use xlink:href="#DejaVuSans-31"/>
       <use xlink:href="#DejaVuSans-2e" x="63.623047"/>
       <use xlink:href="#DejaVuSans-30" x="95.410156"/>
      </g>
     </g>
    </g>
    <g id="text_16">
     <!-- Excited state population -->
     <g transform="translate(19.3575 298.57) rotate(-90) scale(0.16 -0.16)">
      <defs>
       <path id="DejaVuSans-45" d="M 628 4666 
L 3578 4666 
L 3578 4134 
L 1259 4134 
L 1259 2753 
L 3481 2753 
L 3481 2222 
L 1259 2222 
L 1259 531 
L 3634 531 
L 3634 0 
L 628 0 
L 628 4666 
z
" transform="scale(0.015625)"/>
       <path id="DejaVuSans-78" d="M 3513 3500 
L 2247 1797 
L 3578 0 
L 2900 0 
L 1881 1375 
L 863 0 
L 184 0 
L 1544 1831 
L 300 3500 
L 978 3500 
L 1906 2253 
L 2834 3500 
L 3513 3500 
z
" transform="scale(0.015625)"/>
       <path id="DejaVuSans-63" d="M 3122 3366 
L 3122 2828 
Q 2878 2963 2633 3030 
Q 2388 3097 2138 3097 
Q 1578 3097 1268 2742 
Q 959 2388 959 1747 
Q 959 1106 1268 751 
Q 1578 397 2138 397 
Q 2388 397 2633 464 
Q 2878 531 3122 666 
L 3122 134 
Q 2881 22 2623 -34 
Q 2366 -91 2075 -91 
Q 1284 -91 818 406 
Q 353 903 353 1747 
Q 353 2603 823 3093 
Q 1294 3584 2113 3584 
Q 2378 3584 2631 3529 
Q 2884 3475 3122 3366 
z
" transform="scale(0.015625)"/>
       <path id="DejaVuSans-74" d="M 1172 4494 
L 1172 3500 
L 2356 3500 
L 2356 3053 
L 1172 3053 
L 1172 1153 
Q 1172 725 1289 603 
Q 1406 481 1766 481 
L 2356 481 
L 2356 0 
L 1766 0 
Q 1100 0 847 248 
Q 594 497 594 1153 
L 594 3053 
L 172 3053 
L 172 3500 
L 594 3500 
L 594 4494 
L 1172 4494 
z
" transform="scale(0.015625)"/>
       <path id="DejaVuSans-64" d="M 2906 2969 
L 2906 4863 
L 3481 4863 
L 3481 0 
L 2906 0 
L 2906 525 
Q 2725 213 2448 61 
Q 2172 -91 1784 -91 
Q 1150 -91 751 415 
Q 353 922 353 1747 
Q 353 2572 751 3078 
Q 1150 3584 1784 3584 
Q 2172 3584 2448 3432 
Q 2725 3281 2906 2969 
z
M 947 1747 
Q 947 1113 1208 752 
Q 1469 391 1925 391 
Q 2381 391 2643 752 
Q 2906 1113 2906 1747 
Q 2906 2381 2643 2742 
Q 2381 3103 1925 3103 
Q 1469 3103 1208 2742 
Q 947 2381 947 1747 
z
" transform="scale(0.015625)"/>
       <path id="DejaVuSans-73" d="M 2834 3397 
L 2834 2853 
Q 2591 2978 2328 3040 
Q 2066 3103 1784 3103 
Q 1356 3103 1142 2972 
Q 928 2841 928 2578 
Q 928 2378 1081 2264 
Q 1234 2150 1697 2047 
L 1894 2003 
Q 2506 1872 2764 1633 
Q 3022 1394 3022 966 
Q 3022 478 2636 193 
Q 2250 -91 1575 -91 
Q 1294 -91 989 -36 
Q 684 19 347 128 
L 347 722 
Q 666 556 975 473 
Q 1284 391 1588 391 
Q 1994 391 2212 530 
Q 2431 669 2431 922 
Q 2431 1156 2273 1281 
Q 2116 1406 1581 1522 
L 1381 1569 
Q 847 1681 609 1914 
Q 372 2147 372 2553 
Q 372 3047 722 3315 
Q 1072 3584 1716 3584 
Q 2034 3584 2315 3537 
Q 2597 3491 2834 3397 
z
" transform="scale(0.015625)"/>
       <path id="DejaVuSans-61" d="M 2194 1759 
Q 1497 1759 1228 1600 
Q 959 1441 959 1056 
Q 959 750 1161 570 
Q 1363 391 1709 391 
Q 2188 391 2477 730 
Q 2766 1069 2766 1631 
L 2766 1759 
L 2194 1759 
z
M 3341 1997 
L 3341 0 
L 2766 0 
L 2766 531 
Q 2569 213 2275 61 
Q 1981 -91 1556 -91 
Q 1019 -91 701 211 
Q 384 513 384 1019 
Q 384 1609 779 1909 
Q 1175 2209 1959 2209 
L 2766 2209 
L 2766 2266 
Q 2766 2663 2505 2880 
Q 2244 3097 1772 3097 
Q 1472 3097 1187 3025 
Q 903 2953 641 2809 
L 641 3341 
Q 956 3463 1253 3523 
Q 1550 3584 1831 3584 
Q 2591 3584 2966 3190 
Q 3341 2797 3341 1997 
z
" transform="scale(0.015625)"/>
       <path id="DejaVuSans-70" d="M 1159 525 
L 1159 -1331 
L 581 -1331 
L 581 3500 
L 1159 3500 
L 1159 2969 
Q 1341 3281 1617 3432 
Q 1894 3584 2278 3584 
Q 2916 3584 3314 3078 
Q 3713 2572 3713 1747 
Q 3713 922 3314 415 
Q 2916 -91 2278 -91 
Q 1894 -91 1617 61 
Q 1341 213 1159 525 
z
M 3116 1747 
Q 3116 2381 2855 2742 
Q 2594 3103 2138 3103 
Q 1681 3103 1420 2742 
Q 1159 2381 1159 1747 
Q 1159 1113 1420 752 
Q 1681 391 2138 391 
Q 2594 391 2855 752 
Q 3116 1113 3116 1747 
z
" transform="scale(0.015625)"/>
       <path id="DejaVuSans-6f" d="M 1959 3097 
Q 1497 3097 1228 2736 
Q 959 2375 959 1747 
Q 959 1119 1226 758 
Q 1494 397 1959 397 
Q 2419 397 2687 759 
Q 2956 1122 2956 1747 
Q 2956 2369 2687 2733 
Q 2419 3097 1959 3097 
z
M 1959 3584 
Q 2709 3584 3137 3096 
Q 3566 2609 3566 1747 
Q 3566 888 3137 398 
Q 2709 -91 1959 -91 
Q 1206 -91 779 398 
Q 353 888 353 1747 
Q 353 2609 779 3096 
Q 1206 3584 1959 3584 
z
" transform="scale(0.015625)"/>
       <path id="DejaVuSans-75" d="M 544 1381 
L 544 3500 
L 1119 3500 
L 1119 1403 
Q 1119 906 1312 657 
Q 1506 409 1894 409 
Q 2359 409 2629 706 
Q 2900 1003 2900 1516 
L 2900 3500 
L 3475 3500 
L 3475 0 
L 2900 0 
L 2900 538 
Q 2691 219 2414 64 
Q 2138 -91 1772 -91 
Q 1169 -91 856 284 
Q 544 659 544 1381 
z
M 1991 3584 
L 1991 3584 
z
" transform="scale(0.015625)"/>
       <path id="DejaVuSans-6c" d="M 603 4863 
L 1178 4863 
L 1178 0 
L 603 0 
L 603 4863 
z
" transform="scale(0.015625)"/>
       <path id="DejaVuSans-6e" d="M 3513 2113 
L 3513 0 
L 2938 0 
L 2938 2094 
Q 2938 2591 2744 2837 
Q 2550 3084 2163 3084 
Q 1697 3084 1428 2787 
Q 1159 2491 1159 1978 
L 1159 0 
L 581 0 
L 581 3500 
L 1159 3500 
L 1159 2956 
Q 1366 3272 1645 3428 
Q 1925 3584 2291 3584 
Q 2894 3584 3203 3211 
Q 3513 2838 3513 2113 
z
" transform="scale(0.015625)"/>
      </defs>
      <use xlink:href="#DejaVuSans-45"/>
      <use xlink:href="#DejaVuSans-78" x="63.183594"/>
      <use xlink:href="#DejaVuSans-63" x="120.613281"/>
      <use xlink:href="#DejaVuSans-69" x="175.59375"/>
      <use xlink:href="#DejaVuSans-74" x="203.376953"/>
      <use xlink:href="#DejaVuSans-65" x="242.585938"/>
      <use xlink:href="#DejaVuSans-64" x="304.109375"/>
      <use xlink:href="#DejaVuSans-20" x="367.585938"/>
      <use xlink:href="#DejaVuSans-73" x="399.373047"/>
      <use xlink:href="#DejaVuSans-74" x="451.472656"/>
      <use xlink:href="#DejaVuSans-61" x="490.681641"/>
      <use xlink:href="#DejaVuSans-74" x="551.960938"/>
      <use xlink:href="#DejaVuSans-65" x="591.169922"/>
      <use xlink:href="#DejaVuSans-20" x="652.693359"/>
      <use xlink:href="#DejaVuSans-70" x="684.480469"/>
      <use xlink:href="#DejaVuSans-6f" x="747.957031"/>
      <use xlink:href="#DejaVuSans-70" x="809.138672"/>
      <use xlink:href="#DejaVuSans-75" x="872.615234"/>
      <use xlink:href="#DejaVuSans-6c" x="935.994141"/>
      <use xlink:href="#DejaVuSans-61" x="963.777344"/>
      <use xlink:href="#DejaVuSans-74" x="1025.056641"/>
      <use xlink:href="#DejaVuSans-69" x="1064.265625"/>
      <use xlink:href="#DejaVuSans-6f" x="1092.048828"/>
      <use xlink:href="#DejaVuSans-6e" x="1153.230469"/>
     </g>
    </g>
   </g>
   <g id="line2d_15">
    <path d="M 65.63 377.64 
L 66.531804 377.552608 
L 67.433607 377.290519 
L 68.335411 376.853992 
L 69.237214 376.24346 
L 70.139018 375.459528 
L 71.040822 374.502973 
L 72.844429 372.075953 
L 74.648036 368.972018 
L 76.451643 365.203466 
L 78.255251 360.78523 
L 80.058858 355.734816 
L 81.862465 350.072237 
L 83.666072 343.819929 
L 86.371483 333.390534 
L 89.076894 321.783458 
L 91.782305 309.102142 
L 94.487715 295.459594 
L 98.09493 275.985518 
L 101.702144 255.327938 
L 107.112966 222.841854 
L 119.738216 146.096061 
L 124.247234 120.513554 
L 127.854449 101.455641 
L 130.55986 88.183452 
L 133.265271 75.918785 
L 135.970681 64.770937 
L 138.676092 54.839255 
L 140.479699 48.937959 
L 142.283307 43.64014 
L 144.086914 38.96679 
L 145.890521 34.936427 
L 147.694128 31.565021 
L 149.497735 28.865929 
L 151.301343 26.849848 
L 152.203146 26.10054 
L 153.10495 25.524766 
L 154.006754 25.123098 
L 154.908557 24.895933 
L 155.810361 24.843496 
L 156.712164 24.96584 
L 157.613968 25.262843 
L 158.515772 25.734211 
L 159.417575 26.379477 
L 160.319379 27.198001 
L 161.221182 28.188973 
L 163.02479 30.684162 
L 164.828397 33.855156 
L 166.632004 37.689391 
L 168.435611 42.171674 
L 170.239218 47.284246 
L 172.042826 53.006847 
L 173.846433 59.316803 
L 176.551844 69.827722 
L 179.257255 81.509743 
L 181.962665 94.258758 
L 184.668076 107.961153 
L 188.275291 127.501904 
L 192.784309 153.531622 
L 198.19513 186.265281 
L 209.016774 252.147237 
L 213.525792 277.991435 
L 217.133006 297.329849 
L 219.838417 310.85108 
L 222.543828 323.395495 
L 225.249238 334.851303 
L 227.954649 345.116412 
L 229.758257 351.252683 
L 231.561864 356.794548 
L 233.365471 361.720048 
L 235.169078 366.009666 
L 236.972685 369.646406 
L 238.776293 372.615857 
L 240.5799 374.906253 
L 241.481703 375.793863 
L 242.383507 376.508519 
L 243.285311 377.049511 
L 244.187114 377.416305 
L 245.088918 377.608537 
L 245.990721 377.626016 
L 246.892525 377.468725 
L 247.794329 377.13682 
L 248.696132 376.63063 
L 249.597936 375.950656 
L 250.499739 375.097571 
L 251.401543 374.072222 
L 253.20515 371.508964 
L 255.008758 368.271036 
L 256.812365 364.37127 
L 258.615972 359.825116 
L 260.419579 354.65059 
L 262.223186 348.868194 
L 264.026794 342.50084 
L 266.732204 331.908813 
L 269.437615 320.15231 
L 272.143026 307.336102 
L 274.848437 293.574402 
L 278.455651 273.967751 
L 282.964669 247.878252 
L 289.277295 209.566218 
L 298.295331 154.601748 
L 302.804349 128.512249 
L 306.411563 108.905598 
L 309.116974 95.143898 
L 311.822385 82.32769 
L 314.527796 70.571187 
L 317.233206 59.97916 
L 319.036814 53.611806 
L 320.840421 47.82941 
L 322.644028 42.654884 
L 324.447635 38.10873 
L 326.251242 34.208964 
L 328.05485 30.971036 
L 329.858457 28.407778 
L 330.760261 27.382429 
L 331.662064 26.529344 
L 332.563868 25.84937 
L 333.465671 25.34318 
L 334.367475 25.011275 
L 335.269279 24.853984 
L 336.171082 24.871463 
L 337.072886 25.063695 
L 337.974689 25.430489 
L 338.876493 25.971481 
L 339.778297 26.686137 
L 340.6801 27.573747 
L 342.483707 29.864143 
L 344.287315 32.833594 
L 346.090922 36.470334 
L 347.894529 40.759952 
L 349.698136 45.685452 
L 351.501743 51.227317 
L 353.305351 57.363588 
L 356.010762 67.628697 
L 358.716172 79.084505 
L 361.421583 91.62892 
L 364.126994 105.150151 
L 367.734208 124.488565 
L 371.341423 145.042245 
L 376.752244 177.435484 
L 390.279299 259.538663 
L 393.886513 279.985183 
L 397.493727 299.184868 
L 400.199138 312.58264 
L 402.904549 324.988165 
L 405.60996 336.290889 
L 408.315371 346.390085 
L 410.118978 352.409346 
L 411.922585 357.829617 
L 413.726192 362.629423 
L 415.5298 366.789743 
L 417.333407 370.294094 
L 419.137014 373.12859 
L 420.940621 375.281999 
L 421.842425 376.100523 
L 422.744228 376.745789 
L 423.646032 377.217157 
L 424.547836 377.51416 
L 425.449639 377.636504 
L 426.351443 377.584067 
L 427.253246 377.356902 
L 428.15505 376.955234 
L 429.056854 376.37946 
L 429.958657 375.630152 
L 430.860461 374.708051 
L 432.664068 372.349296 
L 434.467675 369.312543 
L 436.271283 365.609823 
L 438.07489 361.25581 
L 439.878497 356.267754 
L 441.682104 350.665421 
L 443.485711 344.471009 
L 446.191122 334.123552 
L 448.896533 322.591882 
L 451.601944 309.978766 
L 454.307355 296.396607 
L 457.914569 276.989978 
L 461.521784 256.383939 
L 466.932605 223.943635 
L 479.557856 147.152062 
L 484.066874 121.502605 
L 487.674088 102.373427 
L 490.379499 89.038182 
L 493.08491 76.702842 
L 495.790321 65.477334 
L 498.495731 55.461696 
L 500.299339 49.501299 
L 502.102946 44.142148 
L 503.906553 39.405476 
L 505.71016 35.310053 
L 507.513768 31.872107 
L 509.317375 29.105258 
L 511.120982 27.020472 
L 512.022786 26.23654 
L 512.924589 25.626008 
L 513.826393 25.189481 
L 514.728196 24.927392 
L 515.63 24.84 
L 515.63 24.84 
" clip-path="url(#p0c4644993e)" style="fill: none; stroke: #0d0887; stroke-width: 1.5; stroke-linecap: square"/>
   </g>
   <g id="line2d_16">
    <path d="M 65.63 377.64 
L 66.531804 377.550655 
L 67.433607 377.282712 
L 68.335411 376.836441 
L 69.237214 376.212296 
L 70.139018 375.410907 
L 71.040822 374.433087 
L 72.844429 371.952293 
L 74.648036 368.779963 
L 76.451643 364.928949 
L 78.255251 360.41485 
L 80.058858 355.255952 
L 81.862465 349.473153 
L 83.666072 343.089879 
L 86.371483 332.446281 
L 89.076894 320.607309 
L 91.782305 307.680825 
L 94.487715 293.784596 
L 98.09493 273.967751 
L 102.603948 247.580666 
L 108.916573 208.826589 
L 117.934609 153.294072 
L 122.443627 126.997825 
L 126.050842 107.281351 
L 128.756253 93.475526 
L 131.461663 80.651503 
L 134.167074 68.92612 
L 136.872485 58.4062 
L 138.676092 52.110432 
L 140.479699 46.41877 
L 142.283307 41.354271 
L 144.086914 36.937451 
L 145.890521 33.186201 
L 147.694128 30.115717 
L 149.497735 27.738438 
L 150.399539 26.81287 
L 151.301343 26.063994 
L 152.203146 25.492566 
L 153.10495 25.099167 
L 154.006754 24.884194 
L 154.908557 24.847866 
L 155.810361 24.990219 
L 156.712164 25.311109 
L 157.613968 25.810211 
L 158.515772 26.48702 
L 159.417575 27.340849 
L 160.319379 28.370834 
L 162.122986 30.954922 
L 163.926593 34.228814 
L 165.7302 38.179249 
L 167.533808 42.790225 
L 169.337415 48.043062 
L 171.141022 53.916482 
L 172.944629 60.386692 
L 175.65004 71.15302 
L 178.355451 83.104524 
L 181.060862 96.132317 
L 183.766273 110.11771 
L 187.373487 130.033159 
L 191.882505 156.508729 
L 198.19513 195.318046 
L 207.213166 250.786914 
L 211.722184 276.989978 
L 215.329399 296.604322 
L 218.03481 310.318513 
L 220.74022 323.03893 
L 223.445631 334.64968 
L 226.151042 345.044982 
L 227.954649 351.252683 
L 229.758257 356.8527 
L 231.561864 361.822349 
L 233.365471 366.141496 
L 235.169078 369.792648 
L 236.972685 372.761012 
L 238.776293 375.034564 
L 239.678096 375.907796 
L 240.5799 376.604095 
L 241.481703 377.122753 
L 242.383507 377.463246 
L 243.285311 377.625229 
L 244.187114 377.608537 
L 245.088918 377.413188 
L 245.990721 377.03938 
L 246.892525 376.487491 
L 247.794329 375.75808 
L 248.696132 374.851887 
L 249.597936 373.769828 
L 251.401543 371.082678 
L 253.20515 367.707514 
L 255.008758 363.65801 
L 256.812365 358.95057 
L 258.615972 353.604262 
L 260.419579 347.640745 
L 262.223186 341.084175 
L 264.928597 330.196078 
L 267.634008 318.133108 
L 270.339419 305.005167 
L 273.04483 290.931858 
L 276.652044 270.919581 
L 281.161062 244.357887 
L 287.473687 205.496791 
L 295.58992 155.494932 
L 300.098938 129.0748 
L 303.706152 109.221228 
L 306.411563 95.291831 
L 309.116974 82.32769 
L 311.822385 70.446916 
L 314.527796 59.757751 
L 316.331403 53.342212 
L 318.13501 47.525789 
L 319.938617 42.332045 
L 321.742224 37.782018 
L 323.545832 33.89414 
L 325.349439 30.684162 
L 327.153046 28.165085 
L 328.05485 27.167934 
L 328.956653 26.347114 
L 329.858457 25.703457 
L 330.760261 25.237614 
L 331.662064 24.950058 
L 332.563868 24.841079 
L 333.465671 24.910789 
L 334.367475 25.159116 
L 335.269279 25.585809 
L 336.171082 26.190436 
L 337.072886 26.972384 
L 337.974689 27.930861 
L 339.778297 30.373341 
L 341.581904 33.507982 
L 343.385511 37.322087 
L 345.189118 41.800203 
L 346.992725 46.924192 
L 348.796333 52.673296 
L 350.59994 59.024226 
L 353.305351 69.622128 
L 356.010762 81.419152 
L 358.716172 94.307822 
L 361.421583 108.170712 
L 365.028798 127.950588 
L 369.537816 154.304303 
L 374.948637 187.433645 
L 385.770281 253.975488 
L 390.279299 279.985183 
L 393.886513 299.390029 
L 396.591924 312.917291 
L 399.297335 325.427102 
L 402.002745 336.805489 
L 404.708156 346.948787 
L 406.511764 352.978701 
L 408.315371 358.393939 
L 410.118978 363.172564 
L 411.922585 367.29522 
L 413.726192 370.745206 
L 415.5298 373.508545 
L 417.333407 375.574045 
L 418.23521 376.342379 
L 419.137014 376.933338 
L 420.038818 377.346323 
L 420.940621 377.580917 
L 421.842425 377.636882 
L 422.744228 377.51416 
L 423.646032 377.212877 
L 424.547836 376.733337 
L 425.449639 376.076027 
L 426.351443 375.241611 
L 427.253246 374.230936 
L 429.056854 371.685079 
L 430.860461 368.448769 
L 432.664068 364.535115 
L 434.467675 359.959973 
L 436.271283 354.741874 
L 438.07489 348.901956 
L 439.878497 342.463878 
L 442.583908 331.742894 
L 445.289319 319.832945 
L 447.994729 306.842538 
L 450.70014 292.890025 
L 454.307355 273.010889 
L 458.816373 246.567816 
L 465.128998 207.778555 
L 474.147034 152.285536 
L 478.656052 126.047687 
L 482.263267 106.395313 
L 484.968677 92.64704 
L 487.674088 79.888118 
L 490.379499 68.23479 
L 493.08491 57.793224 
L 494.888517 51.552841 
L 496.692124 45.918823 
L 498.495731 40.913992 
L 500.299339 36.558624 
L 502.102946 32.870361 
L 503.906553 29.864143 
L 505.71016 27.55215 
L 506.611964 26.659524 
L 507.513768 25.943745 
L 508.415571 25.405537 
L 509.317375 25.045445 
L 510.219178 24.863835 
L 511.120982 24.860889 
L 512.022786 25.036612 
L 512.924589 25.390824 
L 513.826393 25.923168 
L 514.728196 26.633104 
L 515.63 27.519912 
L 515.63 27.519912 
" clip-path="url(#p0c4644993e)" style="fill: none; stroke: #41049d; stroke-width: 1.5; stroke-linecap: square"/>
   </g>
   <g id="line2d_17">
    <path d="M 65.63 377.64 
L 66.531804 377.548681 
L 67.433607 377.274819 
L 68.335411 376.818698 
L 69.237214 376.180789 
L 70.139018 375.361753 
L 71.040822 374.362438 
L 72.844429 371.827296 
L 74.648036 368.58586 
L 76.451643 364.651549 
L 78.255251 360.040653 
L 80.058858 354.772264 
L 81.862465 348.868194 
L 83.666072 342.352888 
L 86.371483 331.493537 
L 89.076894 319.421288 
L 91.782305 306.248557 
L 94.487715 292.098005 
L 98.09493 271.938453 
L 102.603948 245.13519 
L 108.916573 205.866865 
L 117.032806 155.316194 
L 121.541824 128.624688 
L 125.149038 108.590375 
L 127.854449 94.553335 
L 130.55986 81.509743 
L 133.265271 69.581057 
L 135.970681 58.878355 
L 137.774289 52.474037 
L 139.577896 46.685666 
L 141.381503 41.537207 
L 143.18511 37.049977 
L 144.988717 33.242554 
L 146.792325 30.130704 
L 148.595932 27.72731 
L 149.497735 26.79451 
L 150.399539 26.042323 
L 151.301343 25.47153 
L 152.203146 25.08272 
L 153.10495 24.876296 
L 154.006754 24.852473 
L 154.908557 25.011275 
L 155.810361 25.352536 
L 156.712164 25.875905 
L 157.613968 26.580839 
L 158.515772 27.466609 
L 159.417575 28.532296 
L 161.221182 31.198827 
L 163.02479 34.569392 
L 164.828397 38.630035 
L 166.632004 43.363944 
L 168.435611 48.751519 
L 170.239218 54.770453 
L 172.042826 61.395825 
L 174.748236 72.41029 
L 177.453647 84.624394 
L 180.159058 97.924401 
L 182.864469 112.186465 
L 186.471683 132.468403 
L 190.980701 159.379634 
L 197.293327 198.710444 
L 205.409559 249.185928 
L 209.918577 275.761901 
L 213.525792 295.668144 
L 216.231202 309.589685 
L 218.936613 322.502294 
L 221.642024 334.28573 
L 224.347435 344.830269 
L 226.151042 351.122694 
L 227.954649 356.794548 
L 229.758257 361.822349 
L 231.561864 366.185279 
L 233.365471 369.865274 
L 235.169078 372.847097 
L 236.972685 375.118404 
L 237.874489 375.984558 
L 238.776293 376.669789 
L 239.678096 377.173386 
L 240.5799 377.494829 
L 241.481703 377.633785 
L 242.383507 377.590109 
L 243.285311 377.363848 
L 244.187114 376.955234 
L 245.088918 376.364692 
L 245.990721 375.592832 
L 246.892525 374.640455 
L 247.794329 373.508545 
L 249.597936 370.711002 
L 251.401543 367.211786 
L 253.20515 363.025384 
L 255.008758 358.169131 
L 256.812365 352.663134 
L 258.615972 346.530187 
L 260.419579 339.795686 
L 263.12499 328.627665 
L 265.830401 316.273433 
L 268.535812 302.84803 
L 272.143026 283.498596 
L 275.75024 262.788247 
L 280.259259 235.510202 
L 297.393527 129.976715 
L 301.000741 109.853703 
L 303.706152 95.73633 
L 306.411563 82.601388 
L 309.116974 70.571187 
L 311.822385 59.757751 
L 313.625992 53.274994 
L 315.429599 47.404867 
L 317.233206 42.171674 
L 319.036814 37.597084 
L 320.840421 33.700037 
L 322.644028 30.496667 
L 324.447635 28.000238 
L 325.349439 27.020472 
L 326.251242 26.221086 
L 327.153046 25.602908 
L 328.05485 25.166578 
L 328.956653 24.912547 
L 329.858457 24.841079 
L 330.760261 24.952247 
L 331.662064 25.245937 
L 332.563868 25.721845 
L 333.465671 26.379477 
L 334.367475 27.218152 
L 335.269279 28.237004 
L 337.072886 30.810827 
L 338.876493 34.090291 
L 340.6801 38.061817 
L 342.483707 42.708962 
L 344.287315 48.012484 
L 346.090922 53.950425 
L 347.894529 60.498199 
L 350.59994 71.403333 
L 353.305351 83.517481 
L 356.010762 96.727841 
L 358.716172 110.911399 
L 362.323387 131.107243 
L 366.832405 157.942656 
L 373.14503 197.229936 
L 381.261263 247.759235 
L 385.770281 274.417152 
L 389.377495 294.41409 
L 392.082906 308.417365 
L 394.788317 321.422624 
L 397.493727 333.308763 
L 400.199138 343.965103 
L 402.002745 350.336604 
L 403.806353 356.09079 
L 405.60996 361.203836 
L 407.413567 365.654572 
L 409.217174 369.424571 
L 411.020782 372.498223 
L 412.824389 374.862802 
L 413.726192 375.776014 
L 414.627996 376.508519 
L 415.5298 377.059557 
L 416.431603 377.428558 
L 417.333407 377.61514 
L 418.23521 377.619111 
L 419.137014 377.440465 
L 420.038818 377.079389 
L 420.940621 376.536255 
L 421.842425 375.811626 
L 422.744228 374.906253 
L 423.646032 373.821072 
L 425.449639 371.115968 
L 427.253246 367.707514 
L 429.056854 363.609823 
L 430.860461 358.83986 
L 432.664068 353.417375 
L 434.467675 347.36482 
L 436.271283 340.707253 
L 438.976693 329.647461 
L 441.682104 317.391963 
L 444.387515 304.054879 
L 447.092926 289.760401 
L 450.70014 269.443011 
L 455.209158 242.500749 
L 461.521784 203.15262 
L 469.638016 152.700608 
L 474.147034 126.159331 
L 477.754248 106.291293 
L 480.459659 92.404097 
L 483.16507 79.530361 
L 485.870481 67.789963 
L 488.575892 57.292228 
L 490.379499 51.032883 
L 492.183106 45.395452 
L 493.986713 40.403275 
L 495.790321 36.077022 
L 497.593928 32.434605 
L 499.397535 29.491106 
L 501.201142 27.258711 
L 502.102946 26.412182 
L 503.004749 25.746663 
L 503.906553 25.262843 
L 504.808357 24.961223 
L 505.71016 24.842115 
L 506.611964 24.905642 
L 507.513768 25.15174 
L 508.415571 25.580152 
L 509.317375 26.190436 
L 510.219178 26.981959 
L 511.120982 27.953902 
L 512.924589 30.434837 
L 514.728196 33.622969 
L 515.63 35.478222 
L 515.63 35.478222 
" clip-path="url(#p0c4644993e)" style="fill: none; stroke: #6a00a8; stroke-width: 1.5; stroke-linecap: square"/>
   </g>
   <g id="line2d_18">
    <path d="M 65.63 377.64 
L 66.531804 377.546685 
L 67.433607 377.26684 
L 68.335411 376.80076 
L 69.237214 376.148939 
L 70.139018 375.312066 
L 71.040822 374.291027 
L 72.844429 371.700964 
L 74.648036 368.389709 
L 76.451643 364.37127 
L 78.255251 359.662649 
L 80.058858 354.283768 
L 81.862465 348.257383 
L 83.666072 341.608992 
L 86.371483 330.532363 
L 89.076894 318.225494 
L 91.782305 304.805485 
L 94.487715 290.400032 
L 98.09493 269.897947 
L 102.603948 242.680688 
L 108.916573 202.905838 
L 117.032806 151.929994 
L 121.541824 125.155868 
L 125.149038 105.150151 
L 127.854449 91.19439 
L 130.55986 78.285733 
L 133.265271 66.547009 
L 135.970681 56.089915 
L 137.774289 49.880202 
L 139.577896 44.310869 
L 141.381503 39.405476 
L 143.18511 35.18478 
L 144.988717 31.666636 
L 146.792325 28.865929 
L 147.694128 27.738438 
L 148.595932 26.79451 
L 149.497735 26.035142 
L 150.399539 25.46114 
L 151.301343 25.07311 
L 152.203146 24.871463 
L 153.10495 24.856411 
L 154.006754 25.027972 
L 154.908557 25.385963 
L 155.810361 25.930006 
L 156.712164 26.659524 
L 157.613968 27.573747 
L 158.515772 28.671707 
L 160.319379 31.413999 
L 162.122986 34.874796 
L 163.926593 39.039458 
L 165.7302 43.890364 
L 167.533808 49.406991 
L 169.337415 55.565998 
L 171.141022 62.341329 
L 173.846433 73.596542 
L 176.551844 86.066306 
L 179.257255 99.63197 
L 182.864469 119.199803 
L 186.471683 140.154562 
L 190.980701 167.756949 
L 207.213166 269.044504 
L 210.820381 289.600249 
L 214.427595 308.662224 
L 217.133006 321.783458 
L 219.838417 333.757699 
L 222.543828 344.471009 
L 224.347435 350.861835 
L 226.151042 356.619634 
L 227.954649 361.720048 
L 229.758257 366.141496 
L 231.561864 369.865274 
L 233.365471 372.875625 
L 235.169078 375.159813 
L 236.070882 376.026455 
L 236.972685 376.708175 
L 237.874489 377.204252 
L 238.776293 377.51416 
L 239.678096 377.637572 
L 240.5799 377.574358 
L 241.481703 377.324583 
L 242.383507 376.888513 
L 243.285311 376.266609 
L 244.187114 375.459528 
L 245.088918 374.468125 
L 246.892525 371.936741 
L 248.696132 368.683168 
L 250.499739 364.721169 
L 252.303347 360.067508 
L 254.106954 354.741874 
L 255.910561 348.766798 
L 257.714168 342.16756 
L 260.419579 331.160169 
L 263.12499 318.916562 
L 265.830401 305.553241 
L 268.535812 291.19736 
L 272.143026 270.749499 
L 276.652044 243.579692 
L 282.964669 203.831249 
L 291.080902 152.819254 
L 295.58992 125.991879 
L 299.197134 105.927589 
L 301.902545 91.91921 
L 304.607956 78.951039 
L 307.313367 67.14647 
L 310.018778 56.617827 
L 311.822385 50.35758 
L 313.625992 44.735692 
L 315.429599 39.775949 
L 317.233206 35.499334 
L 319.036814 31.923941 
L 320.840421 29.064896 
L 321.742224 27.907905 
L 322.644028 26.934297 
L 323.545832 26.145102 
L 324.447635 25.541156 
L 325.349439 25.123098 
L 326.251242 24.891369 
L 327.153046 24.846215 
L 328.05485 24.987684 
L 328.956653 25.315626 
L 329.858457 25.829694 
L 330.760261 26.529344 
L 331.662064 27.413837 
L 332.563868 28.482235 
L 334.367475 31.166036 
L 336.171082 34.569392 
L 337.974689 38.677905 
L 339.778297 43.474191 
L 341.581904 48.937959 
L 343.385511 55.046092 
L 345.189118 61.772747 
L 347.894529 72.95952 
L 350.59994 85.366905 
L 353.305351 98.876845 
L 356.010762 113.360789 
L 359.617976 133.948458 
L 364.126994 161.240081 
L 371.341423 206.791958 
L 378.555852 251.969989 
L 383.06487 278.657385 
L 386.672084 298.568239 
L 389.377495 312.439014 
L 392.082906 325.251709 
L 394.788317 336.884409 
L 397.493727 347.226428 
L 399.297335 353.354931 
L 401.100942 358.83986 
L 402.904549 363.65801 
L 404.708156 367.788996 
L 406.511764 371.21534 
L 408.315371 373.922546 
L 409.217174 375.002773 
L 410.118978 375.899161 
L 411.020782 376.610761 
L 411.922585 377.13682 
L 412.824389 377.476783 
L 413.726192 377.630289 
L 414.627996 377.597176 
L 415.5298 377.377479 
L 416.431603 376.971431 
L 417.333407 376.37946 
L 418.23521 375.602194 
L 419.137014 374.640455 
L 420.038818 373.49526 
L 421.842425 370.659541 
L 423.646032 367.107036 
L 425.449639 362.852774 
L 427.253246 357.914755 
L 429.056854 352.31387 
L 430.860461 346.073817 
L 432.664068 339.220995 
L 435.369479 327.856923 
L 438.07489 315.288067 
L 440.780301 301.634022 
L 444.387515 281.966446 
L 447.994729 260.934153 
L 452.503747 233.268042 
L 468.736212 132.070893 
L 472.343427 111.601275 
L 475.048838 97.225518 
L 477.754248 83.839477 
L 480.459659 71.570525 
L 483.16507 60.535403 
L 484.968677 53.916482 
L 486.772285 47.920863 
L 488.575892 42.573912 
L 490.379499 37.898251 
L 492.183106 33.913663 
L 493.986713 30.637006 
L 495.790321 28.082142 
L 496.692124 27.078881 
L 497.593928 26.259881 
L 498.495731 25.626008 
L 499.397535 25.177933 
L 500.299339 24.916129 
L 501.201142 24.840874 
L 502.102946 24.952247 
L 503.004749 25.250131 
L 503.906553 25.734211 
L 504.808357 26.403973 
L 505.71016 27.258711 
L 506.611964 28.297518 
L 508.415571 30.922755 
L 510.219178 34.268576 
L 512.022786 38.320826 
L 513.826393 43.06236 
L 515.63 48.473119 
L 515.63 48.473119 
" clip-path="url(#p0c4644993e)" style="fill: none; stroke: #8f0da4; stroke-width: 1.5; stroke-linecap: square"/>
   </g>
   <g id="line2d_19">
    <path d="M 65.63 377.64 
L 66.531804 377.544668 
L 67.433607 377.258775 
L 68.335411 376.78263 
L 69.237214 376.116748 
L 70.139018 375.261848 
L 71.040822 374.218854 
L 72.844429 371.573297 
L 74.648036 368.191513 
L 76.451643 364.088117 
L 78.255251 359.280846 
L 80.058858 353.790478 
L 81.862465 347.640745 
L 83.666072 340.858227 
L 86.371483 329.562823 
L 89.076894 317.020025 
L 91.782305 303.351759 
L 94.487715 288.69089 
L 98.09493 267.846555 
L 102.603948 240.217663 
L 109.818377 194.146573 
L 116.131002 154.125906 
L 120.64002 126.941862 
L 124.247234 106.603492 
L 126.952645 92.404097 
L 129.658056 79.262668 
L 132.363467 67.306951 
L 135.068878 56.653162 
L 136.872485 50.325625 
L 138.676092 44.650383 
L 140.479699 39.651964 
L 142.283307 35.351974 
L 144.086914 31.768998 
L 145.890521 28.918523 
L 146.792325 27.771949 
L 147.694128 26.81287 
L 148.595932 26.042323 
L 149.497735 25.46114 
L 150.399539 25.06995 
L 151.301343 24.869175 
L 152.203146 24.859033 
L 153.10495 25.039535 
L 154.006754 25.410484 
L 154.908557 25.971481 
L 155.810361 26.72192 
L 156.712164 27.660988 
L 157.613968 28.787671 
L 159.417575 31.598809 
L 161.221182 35.143184 
L 163.02479 39.405476 
L 164.828397 44.367262 
L 166.632004 50.007096 
L 168.435611 56.300601 
L 170.239218 63.220574 
L 172.944629 74.709026 
L 175.65004 87.427453 
L 178.355451 101.252224 
L 181.962665 121.172568 
L 185.56988 142.475712 
L 190.078898 170.486946 
L 205.409559 267.274836 
L 209.016774 288.154526 
L 212.623988 307.533164 
L 215.329399 320.879608 
L 218.03481 333.063065 
L 220.74022 343.965103 
L 222.543828 350.46835 
L 224.347435 356.326591 
L 226.151042 361.514504 
L 227.954649 366.009666 
L 229.758257 369.792648 
L 231.561864 372.847097 
L 233.365471 375.159813 
L 234.267275 376.034771 
L 235.169078 376.720799 
L 236.070882 377.217157 
L 236.972685 377.523308 
L 237.874489 377.638921 
L 238.776293 377.563871 
L 239.678096 377.298239 
L 240.5799 376.842313 
L 241.481703 376.196585 
L 242.383507 375.361753 
L 243.285311 374.338719 
L 245.088918 371.732672 
L 246.892525 368.389709 
L 248.696132 364.324277 
L 250.499739 359.55395 
L 252.303347 354.099345 
L 254.106954 347.98404 
L 255.910561 341.234466 
L 258.615972 329.985386 
L 261.321383 317.484806 
L 264.026794 303.854238 
L 266.732204 289.226183 
L 270.339419 268.417459 
L 274.848437 240.81916 
L 282.062866 194.763102 
L 289.277295 149.152548 
L 293.786313 122.274055 
L 297.393527 102.271256 
L 300.098938 88.373006 
L 302.804349 75.571908 
L 305.50976 63.992398 
L 307.313367 57.007493 
L 309.116974 50.646001 
L 310.920581 44.935419 
L 312.724188 39.900428 
L 314.527796 35.562793 
L 316.331403 31.94126 
L 318.13501 29.051484 
L 319.036814 27.885033 
L 319.938617 26.905955 
L 320.840421 26.115308 
L 321.742224 25.513947 
L 322.644028 25.102521 
L 323.545832 24.881475 
L 324.447635 24.851049 
L 325.349439 25.011275 
L 326.251242 25.361979 
L 327.153046 25.902784 
L 328.05485 26.633104 
L 328.956653 27.55215 
L 329.858457 28.658928 
L 331.662064 31.430696 
L 333.465671 34.936427 
L 335.269279 39.160969 
L 337.072886 44.086061 
L 338.876493 49.690417 
L 340.6801 55.949813 
L 342.483707 62.837193 
L 345.189118 74.279904 
L 347.894529 86.956762 
L 350.59994 100.744539 
L 354.207154 120.623291 
L 357.814369 141.894329 
L 362.323387 169.879598 
L 377.654048 266.702309 
L 381.261263 287.617099 
L 384.868477 307.040119 
L 387.573888 320.425484 
L 390.279299 332.652278 
L 392.984709 343.601645 
L 394.788317 350.138438 
L 396.591924 356.03165 
L 398.395531 361.25581 
L 400.199138 365.788337 
L 402.002745 369.609639 
L 403.806353 372.703201 
L 405.60996 375.055651 
L 406.511764 375.950656 
L 407.413567 376.656822 
L 408.315371 377.173386 
L 409.217174 377.499791 
L 410.118978 377.635684 
L 411.020782 377.580917 
L 411.922585 377.33555 
L 412.824389 376.899848 
L 413.726192 376.274282 
L 414.627996 375.459528 
L 415.5298 374.456467 
L 416.431603 373.266182 
L 418.23521 370.329292 
L 420.038818 366.66155 
L 421.842425 362.27881 
L 423.646032 357.200015 
L 425.449639 351.447117 
L 427.253246 345.044982 
L 429.056854 338.021282 
L 431.762265 326.387408 
L 434.467675 313.537008 
L 437.173086 299.594997 
L 440.780301 279.543195 
L 444.387515 258.139064 
L 448.896533 230.047048 
L 463.325391 138.767583 
L 466.932605 117.674406 
L 470.53982 98.024444 
L 473.24523 84.439336 
L 475.950641 71.989617 
L 478.656052 60.796309 
L 480.459659 54.086377 
L 482.263267 48.012484 
L 484.066874 42.600883 
L 485.870481 37.874965 
L 487.674088 33.855156 
L 489.477695 30.558831 
L 491.281303 28.000238 
L 492.183106 27.001173 
L 493.08491 26.190436 
L 493.986713 25.568903 
L 494.888517 25.137246 
L 495.790321 24.895933 
L 496.692124 24.845222 
L 497.593928 24.985171 
L 498.495731 25.315626 
L 499.397535 25.836231 
L 500.299339 26.546424 
L 501.201142 27.445436 
L 502.102946 28.532296 
L 503.906553 31.26466 
L 505.71016 34.731704 
L 507.513768 38.918444 
L 509.317375 43.806783 
L 511.120982 49.375592 
L 512.924589 55.600802 
L 514.728196 62.455505 
L 515.63 66.10976 
L 515.63 66.10976 
" clip-path="url(#p0c4644993e)" style="fill: none; stroke: #b12a90; stroke-width: 1.5; stroke-linecap: square"/>
   </g>
   <g id="line2d_20">
    <path d="M 65.63 377.64 
L 66.531804 377.542629 
L 67.433607 377.250624 
L 68.335411 376.764306 
L 69.237214 376.084213 
L 70.139018 375.211096 
L 71.040822 374.145919 
L 72.844429 371.444297 
L 74.648036 367.991274 
L 76.451643 363.802095 
L 78.255251 358.895254 
L 80.058858 353.292412 
L 81.862465 347.018304 
L 83.666072 340.100629 
L 86.371483 328.584978 
L 89.076894 315.804982 
L 91.782305 301.887527 
L 94.487715 286.970792 
L 98.09493 265.784603 
L 102.603948 237.746624 
L 110.72018 185.281907 
L 116.131002 150.805549 
L 120.64002 123.545537 
L 124.247234 103.243824 
L 126.952645 89.133428 
L 129.658056 76.136082 
L 132.363467 64.38083 
L 134.167074 57.292228 
L 135.970681 50.839111 
L 137.774289 45.049968 
L 139.577896 39.950358 
L 141.381503 35.562793 
L 143.18511 31.906642 
L 144.988717 28.998047 
L 145.890521 27.828226 
L 146.792325 26.849848 
L 147.694128 26.063994 
L 148.595932 25.47153 
L 149.497735 25.07311 
L 150.399539 24.869175 
L 151.301343 24.85995 
L 152.203146 25.045445 
L 153.10495 25.425455 
L 154.006754 25.999561 
L 154.908557 26.767128 
L 155.810361 27.72731 
L 156.712164 28.879046 
L 158.515772 31.751886 
L 160.319379 35.372964 
L 162.122986 39.726296 
L 163.926593 44.792661 
L 165.7302 50.549695 
L 167.533808 56.97198 
L 169.337415 64.031166 
L 172.042826 75.745224 
L 174.748236 88.705257 
L 177.453647 102.782592 
L 181.060862 123.047397 
L 184.668076 144.691466 
L 189.177094 173.102738 
L 203.605952 265.267503 
L 207.213166 286.485071 
L 210.820381 306.198975 
L 213.525792 319.787263 
L 216.231202 332.198555 
L 218.936613 343.309624 
L 220.74022 349.939616 
L 222.543828 355.913144 
L 224.347435 361.203836 
L 226.151042 365.788337 
L 227.954649 369.646406 
L 229.758257 372.761012 
L 231.561864 375.118404 
L 232.463667 376.009761 
L 233.365471 376.708175 
L 234.267275 377.212877 
L 235.169078 377.523308 
L 236.070882 377.639126 
L 236.972685 377.560203 
L 237.874489 377.286626 
L 238.776293 376.818698 
L 239.678096 376.156934 
L 240.5799 375.302065 
L 241.481703 374.255036 
L 242.383507 373.017001 
L 244.187114 369.973594 
L 245.990721 366.185279 
L 247.794329 361.66878 
L 249.597936 356.444036 
L 251.401543 350.534114 
L 253.20515 343.965103 
L 255.008758 336.766003 
L 257.714168 324.856188 
L 260.419579 311.71905 
L 263.12499 297.48502 
L 266.732204 277.045693 
L 270.339419 255.269208 
L 275.75024 220.94236 
L 287.473687 145.744544 
L 291.080902 124.044447 
L 294.688116 103.706027 
L 297.393527 89.562709 
L 300.098938 76.528179 
L 302.804349 64.731852 
L 304.607956 57.613901 
L 306.411563 51.130017 
L 308.21517 45.308823 
L 310.018778 40.176018 
L 311.822385 35.754262 
L 313.625992 32.063076 
L 315.429599 29.118755 
L 316.331403 27.930861 
L 317.233206 26.934297 
L 318.13501 26.130162 
L 319.036814 25.519346 
L 319.938617 25.102521 
L 320.840421 24.880148 
L 321.742224 24.852473 
L 322.644028 25.019526 
L 323.545832 25.381123 
L 324.447635 25.936865 
L 325.349439 26.686137 
L 326.251242 27.628113 
L 327.153046 28.761753 
L 328.956653 31.598809 
L 330.760261 35.18478 
L 332.563868 39.503834 
L 334.367475 44.536904 
L 336.171082 50.261772 
L 337.974689 56.653162 
L 339.778297 63.68286 
L 342.483707 75.355609 
L 345.189118 88.278202 
L 347.894529 102.322335 
L 351.501743 122.550032 
L 355.108958 144.165765 
L 359.617976 172.5547 
L 374.046834 264.749769 
L 377.654048 285.998504 
L 381.261263 305.752159 
L 383.966673 319.375476 
L 386.672084 331.825885 
L 389.377495 342.979772 
L 391.181102 349.640156 
L 392.984709 355.645397 
L 394.788317 360.968986 
L 396.591924 365.587419 
L 398.395531 369.480308 
L 400.199138 372.630467 
L 402.002745 375.023988 
L 402.904549 375.933576 
L 403.806353 376.650306 
L 404.708156 377.173386 
L 405.60996 377.50224 
L 406.511764 377.636504 
L 407.413567 377.57603 
L 408.315371 377.320884 
L 409.217174 376.871349 
L 410.118978 376.227921 
L 411.020782 375.391309 
L 411.922585 374.362438 
L 412.824389 373.142444 
L 414.627996 370.134681 
L 416.431603 366.381299 
L 418.23521 361.898868 
L 420.038818 356.707177 
L 421.842425 350.829145 
L 423.646032 344.290722 
L 425.449639 337.120773 
L 428.15505 325.251709 
L 430.860461 312.151395 
L 433.565872 297.949896 
L 437.173086 277.546716 
L 440.780301 255.797539 
L 446.191122 221.494075 
L 457.914569 146.27191 
L 461.521784 124.544122 
L 465.128998 104.169196 
L 467.834409 89.993097 
L 470.53982 76.921513 
L 473.24523 65.084225 
L 475.048838 57.936999 
L 476.852445 51.422411 
L 478.656052 45.569223 
L 480.459659 40.403275 
L 482.263267 35.947372 
L 484.066874 32.221186 
L 485.870481 29.241168 
L 486.772285 28.035213 
L 487.674088 27.020472 
L 488.575892 26.198066 
L 489.477695 25.568903 
L 490.379499 25.133677 
L 491.281303 24.892868 
L 492.183106 24.846744 
L 493.08491 24.995353 
L 493.986713 25.338534 
L 494.888517 25.875905 
L 495.790321 26.606875 
L 496.692124 27.530637 
L 497.593928 28.64617 
L 499.397535 31.447414 
L 501.201142 34.998241 
L 503.004749 39.282975 
L 504.808357 44.2827 
L 506.611964 49.975345 
L 508.415571 56.335777 
L 510.219178 63.335918 
L 512.924589 74.967242 
L 515.63 87.852266 
L 515.63 87.852266 
" clip-path="url(#p0c4644993e)" style="fill: none; stroke: #cc4778; stroke-width: 1.5; stroke-linecap: square"/>
   </g>
   <g id="line2d_21">
    <path d="M 65.63 377.64 
L 66.531804 377.540569 
L 67.433607 377.242386 
L 68.335411 376.745789 
L 69.237214 376.051337 
L 70.139018 375.159813 
L 71.040822 374.072222 
L 71.942625 372.789791 
L 73.746232 369.646406 
L 75.54984 365.743829 
L 77.353447 361.099654 
L 79.157054 355.734816 
L 80.960661 349.673502 
L 82.764269 342.943035 
L 84.567876 335.573758 
L 87.273287 323.395495 
L 89.978697 309.978766 
L 92.684108 295.459594 
L 96.291323 274.641637 
L 99.898537 252.501566 
L 105.309359 217.689595 
L 116.131002 147.504541 
L 119.738216 125.490022 
L 123.345431 104.839915 
L 126.050842 90.472599 
L 128.756253 77.228291 
L 131.461663 65.241269 
L 133.265271 58.008991 
L 135.068878 51.422411 
L 136.872485 45.511223 
L 138.676092 40.302075 
L 140.479699 35.81845 
L 142.283307 32.080561 
L 144.086914 29.105258 
L 144.988717 27.907905 
L 145.890521 26.905955 
L 146.792325 26.10054 
L 147.694128 25.492566 
L 148.595932 25.08272 
L 149.497735 24.871463 
L 150.399539 24.859033 
L 151.301343 25.045445 
L 152.203146 25.430489 
L 153.10495 26.013729 
L 154.006754 26.79451 
L 154.908557 27.771949 
L 155.810361 28.944947 
L 157.613968 31.872107 
L 159.417575 35.562793 
L 161.221182 40.000367 
L 163.02479 45.164824 
L 164.828397 51.032883 
L 166.632004 57.57809 
L 168.435611 64.770937 
L 171.141022 76.702842 
L 173.846433 89.89736 
L 176.551844 104.220719 
L 180.159058 124.822048 
L 183.766273 146.799822 
L 189.177094 181.476328 
L 200.900541 257.437755 
L 204.507756 279.321972 
L 208.11497 299.799772 
L 210.820381 314.012134 
L 213.525792 327.081162 
L 216.231202 338.874356 
L 218.03481 345.968075 
L 219.838417 352.409346 
L 221.642024 358.169131 
L 223.445631 363.221466 
L 225.249238 367.543573 
L 227.052846 371.115968 
L 228.856453 373.922546 
L 229.758257 375.034564 
L 230.66006 375.950656 
L 231.561864 376.669789 
L 232.463667 377.191153 
L 233.365471 377.51416 
L 234.267275 377.638446 
L 235.169078 377.563871 
L 236.070882 377.290519 
L 236.972685 376.818698 
L 237.874489 376.148939 
L 238.776293 375.281999 
L 239.678096 374.218854 
L 240.5799 372.960703 
L 242.383507 369.865274 
L 244.187114 366.009666 
L 245.990721 361.411262 
L 247.794329 356.09079 
L 249.597936 350.072237 
L 251.401543 343.382734 
L 253.20515 336.052438 
L 255.910561 323.92855 
L 258.615972 310.56079 
L 261.321383 296.084687 
L 264.928597 275.31423 
L 268.535812 253.209545 
L 273.946633 218.426605 
L 284.768277 148.210208 
L 288.375491 126.159331 
L 291.982705 105.46081 
L 294.688116 91.049789 
L 297.393527 77.755924 
L 300.098938 65.713997 
L 301.902545 58.442415 
L 303.706152 51.814579 
L 305.50976 45.860366 
L 307.313367 40.606619 
L 309.116974 36.077022 
L 310.920581 32.291995 
L 312.724188 29.268602 
L 313.625992 28.046913 
L 314.527796 27.020472 
L 315.429599 26.190436 
L 316.331403 25.55774 
L 317.233206 25.123098 
L 318.13501 24.886999 
L 319.036814 24.849711 
L 319.938617 25.011275 
L 320.840421 25.371508 
L 321.742224 25.930006 
L 322.644028 26.686137 
L 323.545832 27.63905 
L 324.447635 28.787671 
L 326.251242 31.666636 
L 328.05485 35.310053 
L 329.858457 39.701499 
L 331.662064 44.821175 
L 333.465671 50.646001 
L 335.269279 57.149719 
L 337.072886 64.30301 
L 339.778297 76.179587 
L 342.483707 89.324082 
L 345.189118 103.603231 
L 348.796333 124.15542 
L 352.403547 146.096061 
L 356.912565 174.870506 
L 370.439619 262.325438 
L 374.046834 283.934911 
L 377.654048 304.054879 
L 380.359459 317.948164 
L 383.06487 330.65821 
L 385.770281 342.056156 
L 387.573888 348.868194 
L 389.377495 355.01471 
L 391.181102 360.467995 
L 392.984709 365.203466 
L 394.788317 369.199774 
L 396.591924 372.438904 
L 398.395531 374.906253 
L 399.297335 375.846896 
L 400.199138 376.590698 
L 401.100942 377.13682 
L 402.002745 377.484647 
L 402.904549 377.633785 
L 403.806353 377.584067 
L 404.708156 377.33555 
L 405.60996 376.888513 
L 406.511764 376.24346 
L 407.413567 375.401119 
L 408.315371 374.362438 
L 409.217174 373.12859 
L 411.020782 370.081171 
L 412.824389 366.272601 
L 414.627996 361.720048 
L 416.431603 356.444036 
L 418.23521 350.46835 
L 420.038818 343.819929 
L 421.842425 336.528744 
L 424.547836 324.459443 
L 427.253246 311.140888 
L 429.958657 296.708109 
L 433.565872 275.985518 
L 437.173086 253.916608 
L 442.583908 219.163313 
L 453.405551 148.916809 
L 457.012766 126.829962 
L 460.61998 106.083393 
L 463.325391 91.62892 
L 466.030802 78.285733 
L 468.736212 66.189111 
L 470.53982 58.878355 
L 472.343427 52.209378 
L 474.147034 46.212246 
L 475.950641 40.913992 
L 477.754248 36.338504 
L 479.557856 32.506406 
L 481.361463 29.434975 
L 482.263267 28.188973 
L 483.16507 27.138058 
L 484.066874 26.283415 
L 484.968677 25.626008 
L 485.870481 25.166578 
L 486.772285 24.905642 
L 487.674088 24.843496 
L 488.575892 24.980209 
L 489.477695 25.315626 
L 490.379499 25.84937 
L 491.281303 26.580839 
L 492.183106 27.509209 
L 493.08491 28.633433 
L 494.888517 31.464152 
L 496.692124 35.060237 
L 498.495731 39.405476 
L 500.299339 44.48028 
L 502.102946 50.261772 
L 503.906553 56.723887 
L 505.71016 63.837495 
L 508.415571 75.658535 
L 511.120982 88.752777 
L 513.826393 102.987463 
L 515.63 113.04 
L 515.63 113.04 
" clip-path="url(#p0c4644993e)" style="fill: none; stroke: #e16462; stroke-width: 1.5; stroke-linecap: square"/>
   </g>
   <g id="line2d_22">
    <path d="M 65.63 377.64 
L 66.531804 377.538486 
L 67.433607 377.234063 
L 68.335411 376.727079 
L 69.237214 376.018119 
L 70.139018 375.107998 
L 71.040822 373.997765 
L 71.942625 372.688696 
L 73.746232 369.480308 
L 75.54984 365.497599 
L 77.353447 360.758901 
L 79.157054 355.286022 
L 80.960661 349.104152 
L 82.764269 342.241743 
L 84.567876 334.730378 
L 87.273287 322.32294 
L 89.978697 308.662224 
L 92.684108 293.889625 
L 96.291323 272.728974 
L 99.898537 250.253736 
L 105.309359 214.984844 
L 115.229198 149.919401 
L 118.836413 127.557958 
L 122.443627 106.55143 
L 125.149038 91.91921 
L 127.854449 78.418524 
L 130.55986 66.189111 
L 132.363467 58.805524 
L 134.167074 52.077486 
L 135.970681 46.035964 
L 137.774289 40.708762 
L 139.577896 36.1204 
L 141.381503 32.291995 
L 143.18511 29.241168 
L 144.086914 28.011875 
L 144.988717 26.981959 
L 145.890521 26.152604 
L 146.792325 25.524766 
L 147.694128 25.099167 
L 148.595932 24.876296 
L 149.497735 24.856411 
L 150.399539 25.039535 
L 151.301343 25.425455 
L 152.203146 26.013729 
L 153.10495 26.803679 
L 154.006754 27.794397 
L 154.908557 28.98474 
L 156.712164 31.9586 
L 158.515772 35.711572 
L 160.319379 40.226382 
L 162.122986 45.482252 
L 163.926593 51.454991 
L 165.7302 58.117111 
L 167.533808 65.437948 
L 170.239218 77.579804 
L 172.944629 91.001615 
L 175.65004 105.564457 
L 179.257255 126.494482 
L 182.864469 148.798977 
L 188.275291 183.930589 
L 199.096934 254.857913 
L 202.704148 277.1014 
L 206.311363 297.949896 
L 209.016774 312.439014 
L 211.722184 325.777158 
L 214.427595 337.82627 
L 216.231202 345.080706 
L 218.03481 351.67312 
L 219.838417 357.573171 
L 221.642024 362.753704 
L 223.445631 367.190876 
L 225.249238 370.864265 
L 227.052846 373.756964 
L 227.954649 374.906253 
L 228.856453 375.85566 
L 229.758257 376.604095 
L 230.66006 377.150694 
L 231.561864 377.494829 
L 232.463667 377.636105 
L 233.365471 377.574358 
L 234.267275 377.309659 
L 235.169078 376.842313 
L 236.070882 376.172858 
L 236.972685 375.302065 
L 237.874489 374.230936 
L 238.776293 372.960703 
L 240.5799 369.829002 
L 242.383507 365.921376 
L 244.187114 361.25581 
L 245.990721 355.853777 
L 247.794329 349.740139 
L 249.597936 342.943035 
L 251.401543 335.493748 
L 254.106954 323.172754 
L 256.812365 309.589685 
L 259.517776 294.885134 
L 263.12499 273.799079 
L 266.732204 251.378758 
L 272.143026 216.153242 
L 282.062866 151.042091 
L 286.571884 123.213358 
L 290.179098 102.526773 
L 292.884509 88.183452 
L 295.58992 75.010332 
L 298.295331 63.143763 
L 300.098938 56.019828 
L 301.902545 49.564264 
L 303.706152 43.806783 
L 305.50976 38.773882 
L 307.313367 34.488726 
L 309.116974 30.971036 
L 310.920581 28.237004 
L 311.822385 27.167934 
L 312.724188 26.299211 
L 313.625992 25.631837 
L 314.527796 25.166578 
L 315.429599 24.90397 
L 316.331403 24.844316 
L 317.233206 24.987684 
L 318.13501 25.333909 
L 319.036814 25.882593 
L 319.938617 26.633104 
L 320.840421 27.584578 
L 321.742224 28.73592 
L 323.545832 31.632681 
L 325.349439 35.310053 
L 327.153046 39.751113 
L 328.956653 44.935419 
L 330.760261 50.839111 
L 332.563868 57.435018 
L 334.367475 64.692782 
L 337.072886 76.746546 
L 339.778297 90.088889 
L 342.483707 104.58171 
L 346.090922 125.434307 
L 349.698136 147.68087 
L 355.108958 182.764363 
L 365.930601 253.739928 
L 369.537816 276.0414 
L 373.14503 296.967372 
L 375.850441 311.526545 
L 378.555852 324.944188 
L 381.261263 337.081421 
L 383.06487 344.398947 
L 384.868477 351.057589 
L 386.672084 357.026701 
L 388.475691 362.27881 
L 390.279299 366.789743 
L 392.082906 370.53874 
L 393.886513 373.508545 
L 394.788317 374.696838 
L 395.69012 375.68549 
L 396.591924 376.473366 
L 397.493727 377.059557 
L 398.395531 377.443388 
L 399.297335 377.624419 
L 400.199138 377.602441 
L 401.100942 377.377479 
L 402.002745 376.949792 
L 402.904549 376.319872 
L 403.806353 375.488445 
L 404.708156 374.456467 
L 405.60996 373.225126 
L 407.413567 370.170251 
L 409.217174 366.33788 
L 411.020782 361.745652 
L 412.824389 356.414703 
L 414.627996 350.369568 
L 416.431603 343.638069 
L 418.23521 336.251188 
L 420.940621 324.017182 
L 423.646032 310.512361 
L 426.351443 295.876508 
L 429.958657 274.865979 
L 433.565872 252.501566 
L 438.976693 217.320981 
L 449.798337 146.447821 
L 453.405551 124.266431 
L 457.012766 103.500483 
L 459.718176 89.085798 
L 462.423587 75.831974 
L 465.128998 63.876195 
L 466.932605 56.688516 
L 468.736212 50.16613 
L 470.53982 44.339056 
L 472.343427 39.234113 
L 474.147034 34.874796 
L 475.950641 31.28117 
L 477.754248 28.469773 
L 478.656052 27.361596 
L 479.557856 26.453545 
L 480.459659 25.746663 
L 481.361463 25.241765 
L 482.263267 24.939431 
L 483.16507 24.840011 
L 484.066874 24.943617 
L 484.968677 25.250131 
L 485.870481 25.759201 
L 486.772285 26.470239 
L 487.674088 27.382429 
L 488.575892 28.494719 
L 489.477695 29.80583 
L 491.281303 33.018251 
L 493.08491 37.004906 
L 494.888517 41.747448 
L 496.692124 47.224048 
L 498.495731 53.409502 
L 500.299339 60.27534 
L 502.102946 67.789963 
L 504.808357 80.201935 
L 507.513768 93.866722 
L 510.219178 108.642884 
L 513.826393 129.807435 
L 515.63 140.907647 
L 515.63 140.907647 
" clip-path="url(#p0c4644993e)" style="fill: none; stroke: #f2844b; stroke-width: 1.5; stroke-linecap: square"/>
   </g>
   <g id="line2d_23">
    <path d="M 65.63 377.64 
L 66.531804 377.536383 
L 67.433607 377.225653 
L 68.335411 376.708175 
L 69.237214 375.984558 
L 70.139018 375.055651 
L 71.040822 373.922546 
L 71.942625 372.586574 
L 73.746232 369.312543 
L 75.54984 365.248938 
L 77.353447 360.41485 
L 79.157054 354.832988 
L 80.960661 348.529575 
L 82.764269 341.534224 
L 84.567876 333.879796 
L 87.273287 321.241853 
L 89.978697 307.336102 
L 92.684108 292.309456 
L 96.291323 270.806202 
L 100.800341 242.140736 
L 107.112966 200.19113 
L 114.327395 152.463388 
L 118.836413 124.266431 
L 122.443627 103.295132 
L 125.149038 88.752777 
L 127.854449 75.398838 
L 130.55986 63.3744 
L 132.363467 56.160073 
L 134.167074 49.627304 
L 135.970681 43.806783 
L 137.774289 38.725853 
L 139.577896 34.408385 
L 141.381503 30.874661 
L 143.18511 28.141281 
L 144.086914 27.078881 
L 144.988717 26.221086 
L 145.890521 25.568903 
L 146.792325 25.123098 
L 147.694128 24.884194 
L 148.595932 24.852473 
L 149.497735 25.027972 
L 150.399539 25.410484 
L 151.301343 25.999561 
L 152.203146 26.79451 
L 153.10495 27.794397 
L 154.006754 28.998047 
L 155.810361 32.010745 
L 157.613968 35.81845 
L 159.417575 40.403275 
L 161.221182 45.743681 
L 163.02479 51.814579 
L 164.828397 58.587449 
L 166.632004 66.030475 
L 169.337415 78.374245 
L 172.042826 92.016081 
L 174.748236 106.811856 
L 178.355451 128.062848 
L 181.962665 150.687316 
L 187.373487 186.265281 
L 197.293327 252.029078 
L 200.900541 274.641637 
L 204.507756 295.876508 
L 207.213166 310.657607 
L 209.918577 324.282719 
L 212.623988 336.607897 
L 214.427595 344.037585 
L 216.231202 350.796437 
L 218.03481 356.8527 
L 219.838417 362.177925 
L 221.642024 366.747093 
L 223.445631 370.53874 
L 225.249238 373.535053 
L 226.151042 374.730413 
L 227.052846 375.721956 
L 227.954649 376.508519 
L 228.856453 377.089176 
L 229.758257 377.463246 
L 230.66006 377.630289 
L 231.561864 377.590109 
L 232.463667 377.342754 
L 233.365471 376.888513 
L 234.267275 376.227921 
L 235.169078 375.361753 
L 236.070882 374.291027 
L 236.972685 373.017001 
L 238.776293 369.865274 
L 240.5799 365.921376 
L 242.383507 361.203836 
L 244.187114 355.734816 
L 245.990721 349.540008 
L 247.794329 342.648515 
L 249.597936 335.092711 
L 252.303347 322.591882 
L 255.008758 308.808982 
L 257.714168 293.889625 
L 261.321383 272.503285 
L 264.928597 249.779392 
L 270.339419 214.123529 
L 280.259259 148.445638 
L 283.866473 125.93608 
L 287.473687 104.839915 
L 290.179098 90.184735 
L 292.884509 76.702842 
L 295.58992 64.536673 
L 297.393527 57.220938 
L 299.197134 50.581778 
L 301.000741 44.650383 
L 302.804349 39.454616 
L 304.607956 35.018886 
L 306.411563 31.364032 
L 308.21517 28.507223 
L 309.116974 27.382429 
L 310.018778 26.461881 
L 310.920581 25.746663 
L 311.822385 25.237614 
L 312.724188 24.935332 
L 313.625992 24.840173 
L 314.527796 24.952247 
L 315.429599 25.271425 
L 316.331403 25.79733 
L 317.233206 26.529344 
L 318.13501 27.466609 
L 319.036814 28.608022 
L 319.938617 29.952243 
L 321.742224 33.242554 
L 323.545832 37.322087 
L 325.349439 42.171674 
L 327.153046 47.768536 
L 328.956653 54.086377 
L 330.760261 61.095518 
L 332.563868 68.763032 
L 335.269279 81.419152 
L 337.974689 95.341168 
L 340.6801 110.381995 
L 344.287315 131.900659 
L 348.796333 160.579373 
L 355.108958 202.535659 
L 362.323387 250.253736 
L 366.832405 278.435553 
L 370.439619 299.390029 
L 373.14503 313.917219 
L 375.850441 327.253985 
L 378.555852 339.259426 
L 380.359459 346.460172 
L 382.163066 352.978701 
L 383.966673 358.78439 
L 385.770281 363.849965 
L 387.573888 368.151628 
L 389.377495 371.669173 
L 391.181102 374.386072 
L 392.082906 375.440143 
L 392.984709 376.289564 
L 393.886513 376.933338 
L 394.788317 377.370706 
L 395.69012 377.601157 
L 396.591924 377.624419 
L 397.493727 377.440465 
L 398.395531 377.049511 
L 399.297335 376.452017 
L 400.199138 375.648683 
L 401.100942 374.640455 
L 402.002745 373.428516 
L 403.806353 370.399439 
L 405.60996 366.575683 
L 407.413567 361.97521 
L 409.217174 356.619634 
L 411.020782 350.534114 
L 412.824389 343.747237 
L 414.627996 336.290889 
L 417.333407 323.92855 
L 420.038818 310.270018 
L 422.744228 295.459594 
L 426.351443 274.192523 
L 429.958657 251.556192 
L 435.369479 215.968801 
L 445.289319 150.214628 
L 448.896533 127.614021 
L 452.503747 106.395313 
L 455.209158 91.62892 
L 457.914569 78.020557 
L 460.61998 65.713997 
L 462.423587 58.297661 
L 464.227194 51.552841 
L 466.030802 45.511223 
L 467.834409 40.20119 
L 469.638016 35.647688 
L 471.441623 31.872107 
L 473.24523 28.892184 
L 474.147034 27.705118 
L 475.048838 26.72192 
L 475.950641 25.943745 
L 476.852445 25.371508 
L 477.754248 25.005881 
L 478.656052 24.847294 
L 479.557856 24.895933 
L 480.459659 25.15174 
L 481.361463 25.614415 
L 482.263267 26.283415 
L 483.16507 27.157954 
L 484.066874 28.237004 
L 484.968677 29.519297 
L 486.772285 32.687352 
L 488.575892 36.647236 
L 490.379499 41.380346 
L 492.183106 46.864447 
L 493.986713 53.073775 
L 495.790321 59.97916 
L 497.593928 67.548162 
L 500.299339 80.067353 
L 503.004749 93.866722 
L 505.71016 108.800478 
L 509.317375 130.202543 
L 512.924589 152.937923 
L 515.63 170.608461 
L 515.63 170.608461 
" clip-path="url(#p0c4644993e)" style="fill: none; stroke: #fca636; stroke-width: 1.5; stroke-linecap: square"/>
   </g>
   <g id="line2d_24">
    <path d="M 65.63 377.64 
L 66.531804 377.534258 
L 67.433607 377.217157 
L 68.335411 376.689079 
L 69.237214 375.950656 
L 70.139018 375.002773 
L 71.040822 373.846567 
L 71.942625 372.483425 
L 73.746232 369.143112 
L 75.54984 364.997849 
L 77.353447 360.067508 
L 79.157054 354.375726 
L 80.960661 347.949791 
L 82.764269 340.820509 
L 84.567876 333.022059 
L 87.273287 320.15231 
L 89.978697 306.000518 
L 92.684108 290.719259 
L 96.291323 268.873591 
L 100.800341 239.796332 
L 108.01477 191.250172 
L 114.327395 149.270455 
L 117.934609 126.494482 
L 121.541824 105.150151 
L 124.247234 90.328605 
L 126.952645 76.702842 
L 129.658056 64.419766 
L 131.461663 57.043023 
L 133.265271 50.35758 
L 135.068878 44.395488 
L 136.872485 39.18533 
L 138.676092 34.752085 
L 140.479699 31.117005 
L 142.283307 28.297518 
L 143.18511 27.198001 
L 144.086914 26.307142 
L 144.988717 25.626008 
L 145.890521 25.155417 
L 146.792325 24.895933 
L 147.694128 24.847866 
L 148.595932 25.011275 
L 149.497735 25.385963 
L 150.399539 25.971481 
L 151.301343 26.767128 
L 152.203146 27.771949 
L 153.10495 28.98474 
L 154.908557 32.028168 
L 156.712164 35.88282 
L 158.515772 40.530217 
L 160.319379 45.948079 
L 162.122986 52.110432 
L 163.926593 58.987732 
L 165.7302 66.547009 
L 168.435611 79.084505 
L 171.141022 92.93901 
L 173.846433 107.961153 
L 177.453647 129.525476 
L 181.060862 152.463388 
L 186.471683 188.479542 
L 195.489719 248.948378 
L 199.998737 277.491084 
L 203.605952 298.722558 
L 206.311363 313.441818 
L 209.016774 326.951382 
L 211.722184 339.1056 
L 213.525792 346.390085 
L 215.329399 352.978701 
L 217.133006 358.83986 
L 218.936613 363.945464 
L 220.74022 368.271036 
L 222.543828 371.795838 
L 224.347435 374.502973 
L 225.249238 375.545703 
L 226.151042 376.37946 
L 227.052846 377.003244 
L 227.954649 377.416305 
L 228.856453 377.618151 
L 229.758257 377.608537 
L 230.66006 377.387477 
L 231.561864 376.955234 
L 232.463667 376.312328 
L 233.365471 375.459528 
L 234.267275 374.397858 
L 235.169078 373.12859 
L 236.972685 369.973594 
L 238.776293 366.009666 
L 240.5799 361.25581 
L 242.383507 355.734816 
L 244.187114 349.473153 
L 245.990721 342.50084 
L 247.794329 334.851303 
L 250.499739 322.188269 
L 253.20515 308.221242 
L 255.910561 293.100805 
L 259.517776 271.429365 
L 263.12499 248.413549 
L 268.535812 212.338415 
L 277.553848 151.929994 
L 281.161062 129.018505 
L 284.768277 107.490315 
L 287.473687 92.501234 
L 290.179098 78.684512 
L 292.884509 66.189111 
L 294.688116 58.660071 
L 296.491723 51.814579 
L 298.295331 45.685452 
L 300.098938 40.302075 
L 301.902545 35.690257 
L 303.706152 31.872107 
L 305.50976 28.865929 
L 306.411563 27.671988 
L 307.313367 26.686137 
L 308.21517 25.909557 
L 309.116974 25.34318 
L 310.018778 24.987684 
L 310.920581 24.843496 
L 311.822385 24.910789 
L 312.724188 25.189481 
L 313.625992 25.67924 
L 314.527796 26.379477 
L 315.429599 27.289353 
L 316.331403 28.407778 
L 317.233206 29.73341 
L 319.036814 32.999692 
L 320.840421 37.072542 
L 322.644028 41.932433 
L 324.447635 47.556066 
L 326.251242 53.916482 
L 328.05485 60.983186 
L 329.858457 68.722301 
L 332.563868 81.509743 
L 335.269279 95.588047 
L 337.974689 110.80543 
L 341.581904 132.582053 
L 346.090922 161.600717 
L 353.305351 210.120844 
L 359.617976 252.147237 
L 363.22519 274.978096 
L 366.832405 296.396607 
L 369.537816 311.28561 
L 372.243226 324.988165 
L 374.948637 337.356539 
L 376.752244 344.794422 
L 378.555852 351.544086 
L 380.359459 357.573171 
L 382.163066 362.852774 
L 383.966673 367.357583 
L 385.770281 371.066001 
L 387.573888 373.960251 
L 388.475691 375.097571 
L 389.377495 376.026455 
L 390.279299 376.745789 
L 391.181102 377.25471 
L 392.082906 377.552608 
L 392.984709 377.639126 
L 393.886513 377.51416 
L 394.788317 377.17786 
L 395.69012 376.63063 
L 396.591924 375.873125 
L 397.493727 374.906253 
L 398.395531 373.731174 
L 399.297335 372.349296 
L 401.100942 368.972018 
L 402.904549 364.790609 
L 404.708156 359.825116 
L 406.511764 354.099345 
L 408.315371 347.640745 
L 410.118978 340.48028 
L 412.824389 328.499558 
L 415.5298 315.146797 
L 418.23521 300.565959 
L 420.940621 284.914246 
L 424.547836 262.67259 
L 429.056854 233.268042 
L 444.387515 131.560419 
L 447.994729 109.853703 
L 450.70014 94.7008 
L 453.405551 80.696542 
L 456.110962 67.991913 
L 457.914569 60.31244 
L 459.718176 53.308594 
L 461.521784 47.013951 
L 463.325391 41.458689 
L 465.128998 36.66944 
L 466.932605 32.669165 
L 468.736212 29.477042 
L 469.638016 28.188973 
L 470.53982 27.108374 
L 471.441623 26.23654 
L 472.343427 25.574517 
L 473.24523 25.123098 
L 474.147034 24.882824 
L 475.048838 24.853984 
L 475.950641 25.036612 
L 476.852445 25.430489 
L 477.754248 26.035142 
L 478.656052 26.849848 
L 479.557856 27.873629 
L 480.459659 29.105258 
L 482.263267 32.185906 
L 484.066874 36.077022 
L 485.870481 40.759952 
L 487.674088 46.212246 
L 489.477695 52.407763 
L 491.281303 59.316803 
L 493.08491 66.906242 
L 495.790321 79.485708 
L 498.495731 93.377858 
L 501.201142 108.432916 
L 504.808357 130.033159 
L 508.415571 152.997266 
L 513.826393 189.033437 
L 515.63 201.24 
L 515.63 201.24 
" clip-path="url(#p0c4644993e)" style="fill: none; stroke: #fcce25; stroke-width: 1.5; stroke-linecap: square"/>
   </g>
   <g id="LineCollection_1">
    <path d="M 65.63 201.24 
L 515.63 201.24 
" clip-path="url(#p0c4644993e)" style="fill: none; stroke-dasharray: 5.55,2.4; stroke-dashoffset: 0; stroke: #000000; stroke-width: 1.5"/>
   </g>
   <g id="patch_3">
    <path d="M 65.63 395.28 
L 65.63 7.2 
" style="fill: none; stroke: #000000; stroke-width: 2.5; stroke-linejoin: miter; stroke-linecap: square"/>
   </g>
   <g id="patch_4">
    <path d="M 515.63 395.28 
L 515.63 7.2 
" style="fill: none; stroke: #000000; stroke-width: 2.5; stroke-linejoin: miter; stroke-linecap: square"/>
   </g>
   <g id="patch_5">
    <path d="M 65.63 395.28 
L 515.63 395.28 
" style="fill: none; stroke: #000000; stroke-width: 2.5; stroke-linejoin: miter; stroke-linecap: square"/>
   </g>
   <g id="patch_6">
    <path d="M 65.63 7.2 
L 515.63 7.2 
" style="fill: none; stroke: #000000; stroke-width: 2.5; stroke-linejoin: miter; stroke-linecap: square"/>
   </g>
   <g id="legend_1">
    <g id="line2d_25">
     <path d="M 530.03 94.3725 
L 546.03 94.3725 
L 562.03 94.3725 
" style="fill: none; stroke: #0d0887; stroke-width: 1.5; stroke-linecap: square"/>
    </g>
    <g id="text_17">
     <!-- $\Omega$ = 1.00 -->
     <g transform="translate(574.83 99.9725) scale(0.16 -0.16)">
      <defs>
       <path id="DejaVuSans-3d" d="M 678 2906 
L 4684 2906 
L 4684 2381 
L 678 2381 
L 678 2906 
z
M 678 1631 
L 4684 1631 
L 4684 1100 
L 678 1100 
L 678 1631 
z
" transform="scale(0.015625)"/>
      </defs>
      <use xlink:href="#DejaVuSans-3a9" transform="translate(0 0.78125)"/>
      <use xlink:href="#DejaVuSans-20" transform="translate(76.416016 0.78125)"/>
      <use xlink:href="#DejaVuSans-3d" transform="translate(108.203125 0.78125)"/>
      <use xlink:href="#DejaVuSans-20" transform="translate(191.992188 0.78125)"/>
      <use xlink:href="#DejaVuSans-31" transform="translate(223.779297 0.78125)"/>
      <use xlink:href="#DejaVuSans-2e" transform="translate(287.402344 0.78125)"/>
      <use xlink:href="#DejaVuSans-30" transform="translate(319.189453 0.78125)"/>
      <use xlink:href="#DejaVuSans-30" transform="translate(382.8125 0.78125)"/>
     </g>
    </g>
    <g id="line2d_26">
     <path d="M 530.03 117.8575 
L 546.03 117.8575 
L 562.03 117.8575 
" style="fill: none; stroke: #41049d; stroke-width: 1.5; stroke-linecap: square"/>
    </g>
    <g id="text_18">
     <!-- $\Omega$ = 1.01 -->
     <g transform="translate(574.83 123.4575) scale(0.16 -0.16)">
      <use xlink:href="#DejaVuSans-3a9" transform="translate(0 0.78125)"/>
      <use xlink:href="#DejaVuSans-20" transform="translate(76.416016 0.78125)"/>
      <use xlink:href="#DejaVuSans-3d" transform="translate(108.203125 0.78125)"/>
      <use xlink:href="#DejaVuSans-20" transform="translate(191.992188 0.78125)"/>
      <use xlink:href="#DejaVuSans-31" transform="translate(223.779297 0.78125)"/>
      <use xlink:href="#DejaVuSans-2e" transform="translate(287.402344 0.78125)"/>
      <use xlink:href="#DejaVuSans-30" transform="translate(319.189453 0.78125)"/>
      <use xlink:href="#DejaVuSans-31" transform="translate(382.8125 0.78125)"/>
     </g>
    </g>
    <g id="line2d_27">
     <path d="M 530.03 141.3425 
L 546.03 141.3425 
L 562.03 141.3425 
" style="fill: none; stroke: #6a00a8; stroke-width: 1.5; stroke-linecap: square"/>
    </g>
    <g id="text_19">
     <!-- $\Omega$ = 1.02 -->
     <g transform="translate(574.83 146.9425) scale(0.16 -0.16)">
      <use xlink:href="#DejaVuSans-3a9" transform="translate(0 0.78125)"/>
      <use xlink:href="#DejaVuSans-20" transform="translate(76.416016 0.78125)"/>
      <use xlink:href="#DejaVuSans-3d" transform="translate(108.203125 0.78125)"/>
      <use xlink:href="#DejaVuSans-20" transform="translate(191.992188 0.78125)"/>
      <use xlink:href="#DejaVuSans-31" transform="translate(223.779297 0.78125)"/>
      <use xlink:href="#DejaVuSans-2e" transform="translate(287.402344 0.78125)"/>
      <use xlink:href="#DejaVuSans-30" transform="translate(319.189453 0.78125)"/>
      <use xlink:href="#DejaVuSans-32" transform="translate(382.8125 0.78125)"/>
     </g>
    </g>
    <g id="line2d_28">
     <path d="M 530.03 164.8275 
L 546.03 164.8275 
L 562.03 164.8275 
" style="fill: none; stroke: #8f0da4; stroke-width: 1.5; stroke-linecap: square"/>
    </g>
    <g id="text_20">
     <!-- $\Omega$ = 1.03 -->
     <g transform="translate(574.83 170.4275) scale(0.16 -0.16)">
      <defs>
       <path id="DejaVuSans-33" d="M 2597 2516 
Q 3050 2419 3304 2112 
Q 3559 1806 3559 1356 
Q 3559 666 3084 287 
Q 2609 -91 1734 -91 
Q 1441 -91 1130 -33 
Q 819 25 488 141 
L 488 750 
Q 750 597 1062 519 
Q 1375 441 1716 441 
Q 2309 441 2620 675 
Q 2931 909 2931 1356 
Q 2931 1769 2642 2001 
Q 2353 2234 1838 2234 
L 1294 2234 
L 1294 2753 
L 1863 2753 
Q 2328 2753 2575 2939 
Q 2822 3125 2822 3475 
Q 2822 3834 2567 4026 
Q 2313 4219 1838 4219 
Q 1578 4219 1281 4162 
Q 984 4106 628 3988 
L 628 4550 
Q 988 4650 1302 4700 
Q 1616 4750 1894 4750 
Q 2613 4750 3031 4423 
Q 3450 4097 3450 3541 
Q 3450 3153 3228 2886 
Q 3006 2619 2597 2516 
z
" transform="scale(0.015625)"/>
      </defs>
      <use xlink:href="#DejaVuSans-3a9" transform="translate(0 0.78125)"/>
      <use xlink:href="#DejaVuSans-20" transform="translate(76.416016 0.78125)"/>
      <use xlink:href="#DejaVuSans-3d" transform="translate(108.203125 0.78125)"/>
      <use xlink:href="#DejaVuSans-20" transform="translate(191.992188 0.78125)"/>
      <use xlink:href="#DejaVuSans-31" transform="translate(223.779297 0.78125)"/>
      <use xlink:href="#DejaVuSans-2e" transform="translate(287.402344 0.78125)"/>
      <use xlink:href="#DejaVuSans-30" transform="translate(319.189453 0.78125)"/>
      <use xlink:href="#DejaVuSans-33" transform="translate(382.8125 0.78125)"/>
     </g>
    </g>
    <g id="line2d_29">
     <path d="M 530.03 188.3125 
L 546.03 188.3125 
L 562.03 188.3125 
" style="fill: none; stroke: #b12a90; stroke-width: 1.5; stroke-linecap: square"/>
    </g>
    <g id="text_21">
     <!-- $\Omega$ = 1.04 -->
     <g transform="translate(574.83 193.9125) scale(0.16 -0.16)">
      <use xlink:href="#DejaVuSans-3a9" transform="translate(0 0.78125)"/>
      <use xlink:href="#DejaVuSans-20" transform="translate(76.416016 0.78125)"/>
      <use xlink:href="#DejaVuSans-3d" transform="translate(108.203125 0.78125)"/>
      <use xlink:href="#DejaVuSans-20" transform="translate(191.992188 0.78125)"/>
      <use xlink:href="#DejaVuSans-31" transform="translate(223.779297 0.78125)"/>
      <use xlink:href="#DejaVuSans-2e" transform="translate(287.402344 0.78125)"/>
      <use xlink:href="#DejaVuSans-30" transform="translate(319.189453 0.78125)"/>
      <use xlink:href="#DejaVuSans-34" transform="translate(382.8125 0.78125)"/>
     </g>
    </g>
    <g id="line2d_30">
     <path d="M 530.03 211.7975 
L 546.03 211.7975 
L 562.03 211.7975 
" style="fill: none; stroke: #cc4778; stroke-width: 1.5; stroke-linecap: square"/>
    </g>
    <g id="text_22">
     <!-- $\Omega$ = 1.06 -->
     <g transform="translate(574.83 217.3975) scale(0.16 -0.16)">
      <use xlink:href="#DejaVuSans-3a9" transform="translate(0 0.78125)"/>
      <use xlink:href="#DejaVuSans-20" transform="translate(76.416016 0.78125)"/>
      <use xlink:href="#DejaVuSans-3d" transform="translate(108.203125 0.78125)"/>
      <use xlink:href="#DejaVuSans-20" transform="translate(191.992188 0.78125)"/>
      <use xlink:href="#DejaVuSans-31" transform="translate(223.779297 0.78125)"/>
      <use xlink:href="#DejaVuSans-2e" transform="translate(287.402344 0.78125)"/>
      <use xlink:href="#DejaVuSans-30" transform="translate(319.189453 0.78125)"/>
      <use xlink:href="#DejaVuSans-36" transform="translate(382.8125 0.78125)"/>
     </g>
    </g>
    <g id="line2d_31">
     <path d="M 530.03 235.2825 
L 546.03 235.2825 
L 562.03 235.2825 
" style="fill: none; stroke: #e16462; stroke-width: 1.5; stroke-linecap: square"/>
    </g>
    <g id="text_23">
     <!-- $\Omega$ = 1.07 -->
     <g transform="translate(574.83 240.8825) scale(0.16 -0.16)">
      <defs>
       <path id="DejaVuSans-37" d="M 525 4666 
L 3525 4666 
L 3525 4397 
L 1831 0 
L 1172 0 
L 2766 4134 
L 525 4134 
L 525 4666 
z
" transform="scale(0.015625)"/>
      </defs>
      <use xlink:href="#DejaVuSans-3a9" transform="translate(0 0.78125)"/>
      <use xlink:href="#DejaVuSans-20" transform="translate(76.416016 0.78125)"/>
      <use xlink:href="#DejaVuSans-3d" transform="translate(108.203125 0.78125)"/>
      <use xlink:href="#DejaVuSans-20" transform="translate(191.992188 0.78125)"/>
      <use xlink:href="#DejaVuSans-31" transform="translate(223.779297 0.78125)"/>
      <use xlink:href="#DejaVuSans-2e" transform="translate(287.402344 0.78125)"/>
      <use xlink:href="#DejaVuSans-30" transform="translate(319.189453 0.78125)"/>
      <use xlink:href="#DejaVuSans-37" transform="translate(382.8125 0.78125)"/>
     </g>
    </g>
    <g id="line2d_32">
     <path d="M 530.03 258.7675 
L 546.03 258.7675 
L 562.03 258.7675 
" style="fill: none; stroke: #f2844b; stroke-width: 1.5; stroke-linecap: square"/>
    </g>
    <g id="text_24">
     <!-- $\Omega$ = 1.08 -->
     <g transform="translate(574.83 264.3675) scale(0.16 -0.16)">
      <use xlink:href="#DejaVuSans-3a9" transform="translate(0 0.78125)"/>
      <use xlink:href="#DejaVuSans-20" transform="translate(76.416016 0.78125)"/>
      <use xlink:href="#DejaVuSans-3d" transform="translate(108.203125 0.78125)"/>
      <use xlink:href="#DejaVuSans-20" transform="translate(191.992188 0.78125)"/>
      <use xlink:href="#DejaVuSans-31" transform="translate(223.779297 0.78125)"/>
      <use xlink:href="#DejaVuSans-2e" transform="translate(287.402344 0.78125)"/>
      <use xlink:href="#DejaVuSans-30" transform="translate(319.189453 0.78125)"/>
      <use xlink:href="#DejaVuSans-38" transform="translate(382.8125 0.78125)"/>
     </g>
    </g>
    <g id="line2d_33">
     <path d="M 530.03 282.2525 
L 546.03 282.2525 
L 562.03 282.2525 
" style="fill: none; stroke: #fca636; stroke-width: 1.5; stroke-linecap: square"/>
    </g>
    <g id="text_25">
     <!-- $\Omega$ = 1.09 -->
     <g transform="translate(574.83 287.8525) scale(0.16 -0.16)">
      <defs>
       <path id="DejaVuSans-39" d="M 703 97 
L 703 672 
Q 941 559 1184 500 
Q 1428 441 1663 441 
Q 2288 441 2617 861 
Q 2947 1281 2994 2138 
Q 2813 1869 2534 1725 
Q 2256 1581 1919 1581 
Q 1219 1581 811 2004 
Q 403 2428 403 3163 
Q 403 3881 828 4315 
Q 1253 4750 1959 4750 
Q 2769 4750 3195 4129 
Q 3622 3509 3622 2328 
Q 3622 1225 3098 567 
Q 2575 -91 1691 -91 
Q 1453 -91 1209 -44 
Q 966 3 703 97 
z
M 1959 2075 
Q 2384 2075 2632 2365 
Q 2881 2656 2881 3163 
Q 2881 3666 2632 3958 
Q 2384 4250 1959 4250 
Q 1534 4250 1286 3958 
Q 1038 3666 1038 3163 
Q 1038 2656 1286 2365 
Q 1534 2075 1959 2075 
z
" transform="scale(0.015625)"/>
      </defs>
      <use xlink:href="#DejaVuSans-3a9" transform="translate(0 0.78125)"/>
      <use xlink:href="#DejaVuSans-20" transform="translate(76.416016 0.78125)"/>
      <use xlink:href="#DejaVuSans-3d" transform="translate(108.203125 0.78125)"/>
      <use xlink:href="#DejaVuSans-20" transform="translate(191.992188 0.78125)"/>
      <use xlink:href="#DejaVuSans-31" transform="translate(223.779297 0.78125)"/>
      <use xlink:href="#DejaVuSans-2e" transform="translate(287.402344 0.78125)"/>
      <use xlink:href="#DejaVuSans-30" transform="translate(319.189453 0.78125)"/>
      <use xlink:href="#DejaVuSans-39" transform="translate(382.8125 0.78125)"/>
     </g>
    </g>
    <g id="line2d_34">
     <path d="M 530.03 305.7375 
L 546.03 305.7375 
L 562.03 305.7375 
" style="fill: none; stroke: #fcce25; stroke-width: 1.5; stroke-linecap: square"/>
    </g>
    <g id="text_26">
     <!-- $\Omega$ = 1.10 -->
     <g transform="translate(574.83 311.3375) scale(0.16 -0.16)">
      <use xlink:href="#DejaVuSans-3a9" transform="translate(0 0.78125)"/>
      <use xlink:href="#DejaVuSans-20" transform="translate(76.416016 0.78125)"/>
      <use xlink:href="#DejaVuSans-3d" transform="translate(108.203125 0.78125)"/>
      <use xlink:href="#DejaVuSans-20" transform="translate(191.992188 0.78125)"/>
      <use xlink:href="#DejaVuSans-31" transform="translate(223.779297 0.78125)"/>
      <use xlink:href="#DejaVuSans-2e" transform="translate(287.402344 0.78125)"/>
      <use xlink:href="#DejaVuSans-31" transform="translate(319.189453 0.78125)"/>
      <use xlink:href="#DejaVuSans-30" transform="translate(382.8125 0.78125)"/>
     </g>
    </g>
   </g>
  </g>
 </g>
 <defs>
  <clipPath id="p0c4644993e">
   <rect x="65.63" y="7.2" width="450" height="388.08"/>
  </clipPath>
 </defs>
</svg>
