<?xml version="1.0" encoding="utf-8" standalone="no"?>
<!DOCTYPE svg PUBLIC "-//W3C//DTD SVG 1.1//EN"
  "http://www.w3.org/Graphics/SVG/1.1/DTD/svg11.dtd">
<svg xmlns:xlink="http://www.w3.org/1999/xlink" width="630.83pt" height="416.099pt" viewBox="0 0 630.83 416.099" xmlns="http://www.w3.org/2000/svg" version="1.1">
 <metadata>
  <rdf:RDF xmlns:dc="http://purl.org/dc/elements/1.1/" xmlns:cc="http://creativecommons.org/ns#" xmlns:rdf="http://www.w3.org/1999/02/22-rdf-syntax-ns#">
   <cc:Work>
    <dc:type rdf:resource="http://purl.org/dc/dcmitype/StillImage"/>
    <dc:date>2024-08-08T19:09:29.186434</dc:date>
    <dc:format>image/svg+xml</dc:format>
    <dc:creator>
     <cc:Agent>
      <dc:title>Matplotlib v3.7.1, https://matplotlib.org/</dc:title>
     </cc:Agent>
    </dc:creator>
   </cc:Work>
  </rdf:RDF>
 </metadata>
 <defs>
  <style type="text/css">*{stroke-linejoin: round; stroke-linecap: butt}</style>
 </defs>
 <g id="figure_1">
  <g id="patch_1">
   <path d="M 0 416.099 
L 630.83 416.099 
L 630.83 0 
L 0 0 
z
" style="fill: #ffffff"/>
  </g>
  <g id="axes_1">
   <g id="patch_2">
    <path d="M 65.63 360.429 
L 623.63 360.429 
L 623.63 27.789 
L 65.63 27.789 
z
" style="fill: #ffffff"/>
   </g>
   <g id="matplotlib.axis_1">
    <g id="xtick_1">
     <g id="line2d_1">
      <defs>
       <path id="mca99bbbb6d" d="M 0 0 
L 0 10 
" style="stroke: #000000; stroke-width: 2.5"/>
      </defs>
      <g>
       <use xlink:href="#mca99bbbb6d" x="65.63" y="360.429" style="stroke: #000000; stroke-width: 2.5"/>
      </g>
     </g>
     <g id="text_1">
      <!-- 0 -->
      <g transform="translate(60.54 386.0865) scale(0.16 -0.16)">
       <defs>
        <path id="DejaVuSans-30" d="M 2034 4250 
Q 1547 4250 1301 3770 
Q 1056 3291 1056 2328 
Q 1056 1369 1301 889 
Q 1547 409 2034 409 
Q 2525 409 2770 889 
Q 3016 1369 3016 2328 
Q 3016 3291 2770 3770 
Q 2525 4250 2034 4250 
z
M 2034 4750 
Q 2819 4750 3233 4129 
Q 3647 3509 3647 2328 
Q 3647 1150 3233 529 
Q 2819 -91 2034 -91 
Q 1250 -91 836 529 
Q 422 1150 422 2328 
Q 422 3509 836 4129 
Q 1250 4750 2034 4750 
z
" transform="scale(0.015625)"/>
       </defs>
       <use xlink:href="#DejaVuSans-30"/>
      </g>
     </g>
    </g>
    <g id="xtick_2">
     <g id="line2d_2">
      <g>
       <use xlink:href="#mca99bbbb6d" x="140.278829" y="360.429" style="stroke: #000000; stroke-width: 2.5"/>
      </g>
     </g>
     <g id="text_2">
      <!-- 2 -->
      <g transform="translate(135.188829 386.0865) scale(0.16 -0.16)">
       <defs>
        <path id="DejaVuSans-32" d="M 1228 531 
L 3431 531 
L 3431 0 
L 469 0 
L 469 531 
Q 828 903 1448 1529 
Q 2069 2156 2228 2338 
Q 2531 2678 2651 2914 
Q 2772 3150 2772 3378 
Q 2772 3750 2511 3984 
Q 2250 4219 1831 4219 
Q 1534 4219 1204 4116 
Q 875 4013 500 3803 
L 500 4441 
Q 881 4594 1212 4672 
Q 1544 4750 1819 4750 
Q 2544 4750 2975 4387 
Q 3406 4025 3406 3419 
Q 3406 3131 3298 2873 
Q 3191 2616 2906 2266 
Q 2828 2175 2409 1742 
Q 1991 1309 1228 531 
z
" transform="scale(0.015625)"/>
       </defs>
       <use xlink:href="#DejaVuSans-32"/>
      </g>
     </g>
    </g>
    <g id="xtick_3">
     <g id="line2d_3">
      <g>
       <use xlink:href="#mca99bbbb6d" x="214.927659" y="360.429" style="stroke: #000000; stroke-width: 2.5"/>
      </g>
     </g>
     <g id="text_3">
      <!-- 4 -->
      <g transform="translate(209.837659 386.0865) scale(0.16 -0.16)">
       <defs>
        <path id="DejaVuSans-34" d="M 2419 4116 
L 825 1625 
L 2419 1625 
L 2419 4116 
z
M 2253 4666 
L 3047 4666 
L 3047 1625 
L 3713 1625 
L 3713 1100 
L 3047 1100 
L 3047 0 
L 2419 0 
L 2419 1100 
L 313 1100 
L 313 1709 
L 2253 4666 
z
" transform="scale(0.015625)"/>
       </defs>
       <use xlink:href="#DejaVuSans-34"/>
      </g>
     </g>
    </g>
    <g id="xtick_4">
     <g id="line2d_4">
      <g>
       <use xlink:href="#mca99bbbb6d" x="289.576488" y="360.429" style="stroke: #000000; stroke-width: 2.5"/>
      </g>
     </g>
     <g id="text_4">
      <!-- 6 -->
      <g transform="translate(284.486488 386.0865) scale(0.16 -0.16)">
       <defs>
        <path id="DejaVuSans-36" d="M 2113 2584 
Q 1688 2584 1439 2293 
Q 1191 2003 1191 1497 
Q 1191 994 1439 701 
Q 1688 409 2113 409 
Q 2538 409 2786 701 
Q 3034 994 3034 1497 
Q 3034 2003 2786 2293 
Q 2538 2584 2113 2584 
z
M 3366 4563 
L 3366 3988 
Q 3128 4100 2886 4159 
Q 2644 4219 2406 4219 
Q 1781 4219 1451 3797 
Q 1122 3375 1075 2522 
Q 1259 2794 1537 2939 
Q 1816 3084 2150 3084 
Q 2853 3084 3261 2657 
Q 3669 2231 3669 1497 
Q 3669 778 3244 343 
Q 2819 -91 2113 -91 
Q 1303 -91 875 529 
Q 447 1150 447 2328 
Q 447 3434 972 4092 
Q 1497 4750 2381 4750 
Q 2619 4750 2861 4703 
Q 3103 4656 3366 4563 
z
" transform="scale(0.015625)"/>
       </defs>
       <use xlink:href="#DejaVuSans-36"/>
      </g>
     </g>
    </g>
    <g id="xtick_5">
     <g id="line2d_5">
      <g>
       <use xlink:href="#mca99bbbb6d" x="364.225318" y="360.429" style="stroke: #000000; stroke-width: 2.5"/>
      </g>
     </g>
     <g id="text_5">
      <!-- 8 -->
      <g transform="translate(359.135318 386.0865) scale(0.16 -0.16)">
       <defs>
        <path id="DejaVuSans-38" d="M 2034 2216 
Q 1584 2216 1326 1975 
Q 1069 1734 1069 1313 
Q 1069 891 1326 650 
Q 1584 409 2034 409 
Q 2484 409 2743 651 
Q 3003 894 3003 1313 
Q 3003 1734 2745 1975 
Q 2488 2216 2034 2216 
z
M 1403 2484 
Q 997 2584 770 2862 
Q 544 3141 544 3541 
Q 544 4100 942 4425 
Q 1341 4750 2034 4750 
Q 2731 4750 3128 4425 
Q 3525 4100 3525 3541 
Q 3525 3141 3298 2862 
Q 3072 2584 2669 2484 
Q 3125 2378 3379 2068 
Q 3634 1759 3634 1313 
Q 3634 634 3220 271 
Q 2806 -91 2034 -91 
Q 1263 -91 848 271 
Q 434 634 434 1313 
Q 434 1759 690 2068 
Q 947 2378 1403 2484 
z
M 1172 3481 
Q 1172 3119 1398 2916 
Q 1625 2713 2034 2713 
Q 2441 2713 2670 2916 
Q 2900 3119 2900 3481 
Q 2900 3844 2670 4047 
Q 2441 4250 2034 4250 
Q 1625 4250 1398 4047 
Q 1172 3844 1172 3481 
z
" transform="scale(0.015625)"/>
       </defs>
       <use xlink:href="#DejaVuSans-38"/>
      </g>
     </g>
    </g>
    <g id="xtick_6">
     <g id="line2d_6">
      <g>
       <use xlink:href="#mca99bbbb6d" x="438.874147" y="360.429" style="stroke: #000000; stroke-width: 2.5"/>
      </g>
     </g>
     <g id="text_6">
      <!-- 10 -->
      <g transform="translate(428.694147 386.0865) scale(0.16 -0.16)">
       <defs>
        <path id="DejaVuSans-31" d="M 794 531 
L 1825 531 
L 1825 4091 
L 703 3866 
L 703 4441 
L 1819 4666 
L 2450 4666 
L 2450 531 
L 3481 531 
L 3481 0 
L 794 0 
L 794 531 
z
" transform="scale(0.015625)"/>
       </defs>
       <use xlink:href="#DejaVuSans-31"/>
       <use xlink:href="#DejaVuSans-30" x="63.623047"/>
      </g>
     </g>
    </g>
    <g id="xtick_7">
     <g id="line2d_7">
      <g>
       <use xlink:href="#mca99bbbb6d" x="513.522977" y="360.429" style="stroke: #000000; stroke-width: 2.5"/>
      </g>
     </g>
     <g id="text_7">
      <!-- 12 -->
      <g transform="translate(503.342977 386.0865) scale(0.16 -0.16)">
       <use xlink:href="#DejaVuSans-31"/>
       <use xlink:href="#DejaVuSans-32" x="63.623047"/>
      </g>
     </g>
    </g>
    <g id="xtick_8">
     <g id="line2d_8">
      <g>
       <use xlink:href="#mca99bbbb6d" x="588.171806" y="360.429" style="stroke: #000000; stroke-width: 2.5"/>
      </g>
     </g>
     <g id="text_8">
      <!-- 14 -->
      <g transform="translate(577.991806 386.0865) scale(0.16 -0.16)">
       <use xlink:href="#DejaVuSans-31"/>
       <use xlink:href="#DejaVuSans-34" x="63.623047"/>
      </g>
     </g>
    </g>
    <g id="text_9">
     <!-- Time [s] -->
     <g transform="translate(312.10375 405.5715) scale(0.16 -0.16)">
      <defs>
       <path id="DejaVuSans-54" d="M -19 4666 
L 3928 4666 
L 3928 4134 
L 2272 4134 
L 2272 0 
L 1638 0 
L 1638 4134 
L -19 4134 
L -19 4666 
z
" transform="scale(0.015625)"/>
       <path id="DejaVuSans-69" d="M 603 3500 
L 1178 3500 
L 1178 0 
L 603 0 
L 603 3500 
z
M 603 4863 
L 1178 4863 
L 1178 4134 
L 603 4134 
L 603 4863 
z
" transform="scale(0.015625)"/>
       <path id="DejaVuSans-6d" d="M 3328 2828 
Q 3544 3216 3844 3400 
Q 4144 3584 4550 3584 
Q 5097 3584 5394 3201 
Q 5691 2819 5691 2113 
L 5691 0 
L 5113 0 
L 5113 2094 
Q 5113 2597 4934 2840 
Q 4756 3084 4391 3084 
Q 3944 3084 3684 2787 
Q 3425 2491 3425 1978 
L 3425 0 
L 2847 0 
L 2847 2094 
Q 2847 2600 2669 2842 
Q 2491 3084 2119 3084 
Q 1678 3084 1418 2786 
Q 1159 2488 1159 1978 
L 1159 0 
L 581 0 
L 581 3500 
L 1159 3500 
L 1159 2956 
Q 1356 3278 1631 3431 
Q 1906 3584 2284 3584 
Q 2666 3584 2933 3390 
Q 3200 3197 3328 2828 
z
" transform="scale(0.015625)"/>
       <path id="DejaVuSans-65" d="M 3597 1894 
L 3597 1613 
L 953 1613 
Q 991 1019 1311 708 
Q 1631 397 2203 397 
Q 2534 397 2845 478 
Q 3156 559 3463 722 
L 3463 178 
Q 3153 47 2828 -22 
Q 2503 -91 2169 -91 
Q 1331 -91 842 396 
Q 353 884 353 1716 
Q 353 2575 817 3079 
Q 1281 3584 2069 3584 
Q 2775 3584 3186 3129 
Q 3597 2675 3597 1894 
z
M 3022 2063 
Q 3016 2534 2758 2815 
Q 2500 3097 2075 3097 
Q 1594 3097 1305 2825 
Q 1016 2553 972 2059 
L 3022 2063 
z
" transform="scale(0.015625)"/>
       <path id="DejaVuSans-20" transform="scale(0.015625)"/>
       <path id="DejaVuSans-5b" d="M 550 4863 
L 1875 4863 
L 1875 4416 
L 1125 4416 
L 1125 -397 
L 1875 -397 
L 1875 -844 
L 550 -844 
L 550 4863 
z
" transform="scale(0.015625)"/>
       <path id="DejaVuSans-73" d="M 2834 3397 
L 2834 2853 
Q 2591 2978 2328 3040 
Q 2066 3103 1784 3103 
Q 1356 3103 1142 2972 
Q 928 2841 928 2578 
Q 928 2378 1081 2264 
Q 1234 2150 1697 2047 
L 1894 2003 
Q 2506 1872 2764 1633 
Q 3022 1394 3022 966 
Q 3022 478 2636 193 
Q 2250 -91 1575 -91 
Q 1294 -91 989 -36 
Q 684 19 347 128 
L 347 722 
Q 666 556 975 473 
Q 1284 391 1588 391 
Q 1994 391 2212 530 
Q 2431 669 2431 922 
Q 2431 1156 2273 1281 
Q 2116 1406 1581 1522 
L 1381 1569 
Q 847 1681 609 1914 
Q 372 2147 372 2553 
Q 372 3047 722 3315 
Q 1072 3584 1716 3584 
Q 2034 3584 2315 3537 
Q 2597 3491 2834 3397 
z
" transform="scale(0.015625)"/>
       <path id="DejaVuSans-5d" d="M 1947 4863 
L 1947 -844 
L 622 -844 
L 622 -397 
L 1369 -397 
L 1369 4416 
L 622 4416 
L 622 4863 
L 1947 4863 
z
" transform="scale(0.015625)"/>
      </defs>
      <use xlink:href="#DejaVuSans-54"/>
      <use xlink:href="#DejaVuSans-69" x="57.958984"/>
      <use xlink:href="#DejaVuSans-6d" x="85.742188"/>
      <use xlink:href="#DejaVuSans-65" x="183.154297"/>
      <use xlink:href="#DejaVuSans-20" x="244.677734"/>
      <use xlink:href="#DejaVuSans-5b" x="276.464844"/>
      <use xlink:href="#DejaVuSans-73" x="315.478516"/>
      <use xlink:href="#DejaVuSans-5d" x="367.578125"/>
     </g>
    </g>
   </g>
   <g id="matplotlib.axis_2">
    <g id="ytick_1">
     <g id="line2d_9">
      <defs>
       <path id="me9b6cf326b" d="M 0 0 
L -10 0 
" style="stroke: #000000; stroke-width: 2.5"/>
      </defs>
      <g>
       <use xlink:href="#me9b6cf326b" x="65.63" y="332.709" style="stroke: #000000; stroke-width: 2.5"/>
      </g>
     </g>
     <g id="text_10">
      <!-- 0.0 -->
      <g transform="translate(26.685 338.78775) scale(0.16 -0.16)">
       <defs>
        <path id="DejaVuSans-2e" d="M 684 794 
L 1344 794 
L 1344 0 
L 684 0 
L 684 794 
z
" transform="scale(0.015625)"/>
       </defs>
       <use xlink:href="#DejaVuSans-30"/>
       <use xlink:href="#DejaVuSans-2e" x="63.623047"/>
       <use xlink:href="#DejaVuSans-30" x="95.410156"/>
      </g>
     </g>
    </g>
    <g id="ytick_2">
     <g id="line2d_10">
      <g>
       <use xlink:href="#me9b6cf326b" x="65.63" y="277.269" style="stroke: #000000; stroke-width: 2.5"/>
      </g>
     </g>
     <g id="text_11">
      <!-- 0.2 -->
      <g transform="translate(26.685 283.34775) scale(0.16 -0.16)">
       <use xlink:href="#DejaVuSans-30"/>
       <use xlink:href="#DejaVuSans-2e" x="63.623047"/>
       <use xlink:href="#DejaVuSans-32" x="95.410156"/>
      </g>
     </g>
    </g>
    <g id="ytick_3">
     <g id="line2d_11">
      <g>
       <use xlink:href="#me9b6cf326b" x="65.63" y="221.829" style="stroke: #000000; stroke-width: 2.5"/>
      </g>
     </g>
     <g id="text_12">
      <!-- 0.4 -->
      <g transform="translate(26.685 227.90775) scale(0.16 -0.16)">
       <use xlink:href="#DejaVuSans-30"/>
       <use xlink:href="#DejaVuSans-2e" x="63.623047"/>
       <use xlink:href="#DejaVuSans-34" x="95.410156"/>
      </g>
     </g>
    </g>
    <g id="ytick_4">
     <g id="line2d_12">
      <g>
       <use xlink:href="#me9b6cf326b" x="65.63" y="166.389" style="stroke: #000000; stroke-width: 2.5"/>
      </g>
     </g>
     <g id="text_13">
      <!-- 0.6 -->
      <g transform="translate(26.685 172.46775) scale(0.16 -0.16)">
       <use xlink:href="#DejaVuSans-30"/>
       <use xlink:href="#DejaVuSans-2e" x="63.623047"/>
       <use xlink:href="#DejaVuSans-36" x="95.410156"/>
      </g>
     </g>
    </g>
    <g id="ytick_5">
     <g id="line2d_13">
      <g>
       <use xlink:href="#me9b6cf326b" x="65.63" y="110.949" style="stroke: #000000; stroke-width: 2.5"/>
      </g>
     </g>
     <g id="text_14">
      <!-- 0.8 -->
      <g transform="translate(26.685 117.02775) scale(0.16 -0.16)">
       <use xlink:href="#DejaVuSans-30"/>
       <use xlink:href="#DejaVuSans-2e" x="63.623047"/>
       <use xlink:href="#DejaVuSans-38" x="95.410156"/>
      </g>
     </g>
    </g>
    <g id="ytick_6">
     <g id="line2d_14">
      <g>
       <use xlink:href="#me9b6cf326b" x="65.63" y="55.509" style="stroke: #000000; stroke-width: 2.5"/>
      </g>
     </g>
     <g id="text_15">
      <!-- 1.0 -->
      <g transform="translate(26.685 61.58775) scale(0.16 -0.16)">
       <use xlink:href="#DejaVuSans-31"/>
       <use xlink:href="#DejaVuSans-2e" x="63.623047"/>
       <use xlink:href="#DejaVuSans-30" x="95.410156"/>
      </g>
     </g>
    </g>
    <g id="text_16">
     <!-- Excited state population -->
     <g transform="translate(19.3575 291.439) rotate(-90) scale(0.16 -0.16)">
      <defs>
       <path id="DejaVuSans-45" d="M 628 4666 
L 3578 4666 
L 3578 4134 
L 1259 4134 
L 1259 2753 
L 3481 2753 
L 3481 2222 
L 1259 2222 
L 1259 531 
L 3634 531 
L 3634 0 
L 628 0 
L 628 4666 
z
" transform="scale(0.015625)"/>
       <path id="DejaVuSans-78" d="M 3513 3500 
L 2247 1797 
L 3578 0 
L 2900 0 
L 1881 1375 
L 863 0 
L 184 0 
L 1544 1831 
L 300 3500 
L 978 3500 
L 1906 2253 
L 2834 3500 
L 3513 3500 
z
" transform="scale(0.015625)"/>
       <path id="DejaVuSans-63" d="M 3122 3366 
L 3122 2828 
Q 2878 2963 2633 3030 
Q 2388 3097 2138 3097 
Q 1578 3097 1268 2742 
Q 959 2388 959 1747 
Q 959 1106 1268 751 
Q 1578 397 2138 397 
Q 2388 397 2633 464 
Q 2878 531 3122 666 
L 3122 134 
Q 2881 22 2623 -34 
Q 2366 -91 2075 -91 
Q 1284 -91 818 406 
Q 353 903 353 1747 
Q 353 2603 823 3093 
Q 1294 3584 2113 3584 
Q 2378 3584 2631 3529 
Q 2884 3475 3122 3366 
z
" transform="scale(0.015625)"/>
       <path id="DejaVuSans-74" d="M 1172 4494 
L 1172 3500 
L 2356 3500 
L 2356 3053 
L 1172 3053 
L 1172 1153 
Q 1172 725 1289 603 
Q 1406 481 1766 481 
L 2356 481 
L 2356 0 
L 1766 0 
Q 1100 0 847 248 
Q 594 497 594 1153 
L 594 3053 
L 172 3053 
L 172 3500 
L 594 3500 
L 594 4494 
L 1172 4494 
z
" transform="scale(0.015625)"/>
       <path id="DejaVuSans-64" d="M 2906 2969 
L 2906 4863 
L 3481 4863 
L 3481 0 
L 2906 0 
L 2906 525 
Q 2725 213 2448 61 
Q 2172 -91 1784 -91 
Q 1150 -91 751 415 
Q 353 922 353 1747 
Q 353 2572 751 3078 
Q 1150 3584 1784 3584 
Q 2172 3584 2448 3432 
Q 2725 3281 2906 2969 
z
M 947 1747 
Q 947 1113 1208 752 
Q 1469 391 1925 391 
Q 2381 391 2643 752 
Q 2906 1113 2906 1747 
Q 2906 2381 2643 2742 
Q 2381 3103 1925 3103 
Q 1469 3103 1208 2742 
Q 947 2381 947 1747 
z
" transform="scale(0.015625)"/>
       <path id="DejaVuSans-61" d="M 2194 1759 
Q 1497 1759 1228 1600 
Q 959 1441 959 1056 
Q 959 750 1161 570 
Q 1363 391 1709 391 
Q 2188 391 2477 730 
Q 2766 1069 2766 1631 
L 2766 1759 
L 2194 1759 
z
M 3341 1997 
L 3341 0 
L 2766 0 
L 2766 531 
Q 2569 213 2275 61 
Q 1981 -91 1556 -91 
Q 1019 -91 701 211 
Q 384 513 384 1019 
Q 384 1609 779 1909 
Q 1175 2209 1959 2209 
L 2766 2209 
L 2766 2266 
Q 2766 2663 2505 2880 
Q 2244 3097 1772 3097 
Q 1472 3097 1187 3025 
Q 903 2953 641 2809 
L 641 3341 
Q 956 3463 1253 3523 
Q 1550 3584 1831 3584 
Q 2591 3584 2966 3190 
Q 3341 2797 3341 1997 
z
" transform="scale(0.015625)"/>
       <path id="DejaVuSans-70" d="M 1159 525 
L 1159 -1331 
L 581 -1331 
L 581 3500 
L 1159 3500 
L 1159 2969 
Q 1341 3281 1617 3432 
Q 1894 3584 2278 3584 
Q 2916 3584 3314 3078 
Q 3713 2572 3713 1747 
Q 3713 922 3314 415 
Q 2916 -91 2278 -91 
Q 1894 -91 1617 61 
Q 1341 213 1159 525 
z
M 3116 1747 
Q 3116 2381 2855 2742 
Q 2594 3103 2138 3103 
Q 1681 3103 1420 2742 
Q 1159 2381 1159 1747 
Q 1159 1113 1420 752 
Q 1681 391 2138 391 
Q 2594 391 2855 752 
Q 3116 1113 3116 1747 
z
" transform="scale(0.015625)"/>
       <path id="DejaVuSans-6f" d="M 1959 3097 
Q 1497 3097 1228 2736 
Q 959 2375 959 1747 
Q 959 1119 1226 758 
Q 1494 397 1959 397 
Q 2419 397 2687 759 
Q 2956 1122 2956 1747 
Q 2956 2369 2687 2733 
Q 2419 3097 1959 3097 
z
M 1959 3584 
Q 2709 3584 3137 3096 
Q 3566 2609 3566 1747 
Q 3566 888 3137 398 
Q 2709 -91 1959 -91 
Q 1206 -91 779 398 
Q 353 888 353 1747 
Q 353 2609 779 3096 
Q 1206 3584 1959 3584 
z
" transform="scale(0.015625)"/>
       <path id="DejaVuSans-75" d="M 544 1381 
L 544 3500 
L 1119 3500 
L 1119 1403 
Q 1119 906 1312 657 
Q 1506 409 1894 409 
Q 2359 409 2629 706 
Q 2900 1003 2900 1516 
L 2900 3500 
L 3475 3500 
L 3475 0 
L 2900 0 
L 2900 538 
Q 2691 219 2414 64 
Q 2138 -91 1772 -91 
Q 1169 -91 856 284 
Q 544 659 544 1381 
z
M 1991 3584 
L 1991 3584 
z
" transform="scale(0.015625)"/>
       <path id="DejaVuSans-6c" d="M 603 4863 
L 1178 4863 
L 1178 0 
L 603 0 
L 603 4863 
z
" transform="scale(0.015625)"/>
       <path id="DejaVuSans-6e" d="M 3513 2113 
L 3513 0 
L 2938 0 
L 2938 2094 
Q 2938 2591 2744 2837 
Q 2550 3084 2163 3084 
Q 1697 3084 1428 2787 
Q 1159 2491 1159 1978 
L 1159 0 
L 581 0 
L 581 3500 
L 1159 3500 
L 1159 2956 
Q 1366 3272 1645 3428 
Q 1925 3584 2291 3584 
Q 2894 3584 3203 3211 
Q 3513 2838 3513 2113 
z
" transform="scale(0.015625)"/>
      </defs>
      <use xlink:href="#DejaVuSans-45"/>
      <use xlink:href="#DejaVuSans-78" x="63.183594"/>
      <use xlink:href="#DejaVuSans-63" x="120.613281"/>
      <use xlink:href="#DejaVuSans-69" x="175.59375"/>
      <use xlink:href="#DejaVuSans-74" x="203.376953"/>
      <use xlink:href="#DejaVuSans-65" x="242.585938"/>
      <use xlink:href="#DejaVuSans-64" x="304.109375"/>
      <use xlink:href="#DejaVuSans-20" x="367.585938"/>
      <use xlink:href="#DejaVuSans-73" x="399.373047"/>
      <use xlink:href="#DejaVuSans-74" x="451.472656"/>
      <use xlink:href="#DejaVuSans-61" x="490.681641"/>
      <use xlink:href="#DejaVuSans-74" x="551.960938"/>
      <use xlink:href="#DejaVuSans-65" x="591.169922"/>
      <use xlink:href="#DejaVuSans-20" x="652.693359"/>
      <use xlink:href="#DejaVuSans-70" x="684.480469"/>
      <use xlink:href="#DejaVuSans-6f" x="747.957031"/>
      <use xlink:href="#DejaVuSans-70" x="809.138672"/>
      <use xlink:href="#DejaVuSans-75" x="872.615234"/>
      <use xlink:href="#DejaVuSans-6c" x="935.994141"/>
      <use xlink:href="#DejaVuSans-61" x="963.777344"/>
      <use xlink:href="#DejaVuSans-74" x="1025.056641"/>
      <use xlink:href="#DejaVuSans-69" x="1064.265625"/>
      <use xlink:href="#DejaVuSans-6f" x="1092.048828"/>
      <use xlink:href="#DejaVuSans-6e" x="1153.230469"/>
     </g>
    </g>
   </g>
   <g id="line2d_15">
    <path d="M 65.63 332.709 
L 67.496221 331.023771 
L 69.362441 326.092302 
L 71.228662 318.15476 
L 73.094883 307.51604 
L 74.961104 294.535919 
L 76.827324 279.618233 
L 78.693545 263.199373 
L 82.425987 227.69513 
L 86.158428 191.71466 
L 88.024649 174.648002 
L 89.89087 158.728178 
L 91.75709 144.302583 
L 93.623311 131.669255 
L 95.489532 121.0714 
L 97.355753 112.693462 
L 99.221973 106.658767 
L 101.088194 103.028756 
L 102.954415 101.80376 
L 104.820635 102.92524 
L 106.686856 106.279386 
L 108.553077 111.70194 
L 110.419298 118.984066 
L 112.285518 127.879109 
L 114.151739 138.110017 
L 116.01796 149.377244 
L 119.750401 173.758997 
L 123.482843 198.487774 
L 125.349064 210.224424 
L 127.215284 221.177131 
L 129.081505 231.106707 
L 130.947726 239.807804 
L 132.813946 247.112696 
L 134.680167 252.894001 
L 136.546388 257.066311 
L 138.412609 259.586736 
L 140.278829 260.454395 
L 142.14505 259.708884 
L 144.011271 257.427821 
L 145.877492 253.723547 
L 147.743712 248.739099 
L 149.609933 242.643577 
L 151.476154 235.62705 
L 153.342375 227.895129 
L 157.074816 211.151615 
L 160.807258 194.156043 
L 162.673478 186.084865 
L 164.539699 178.549547 
L 166.40592 171.714776 
L 168.27214 165.722033 
L 170.138361 160.686988 
L 172.004582 156.697613 
L 173.870803 153.813052 
L 175.737023 152.063235 
L 177.603244 151.449221 
L 179.469465 151.944232 
L 181.335686 153.495336 
L 183.201906 156.025702 
L 185.068127 159.437364 
L 186.934348 163.614391 
L 188.800569 168.42639 
L 190.666789 173.732229 
L 194.399231 185.230308 
L 198.131672 196.910937 
L 199.997893 202.46137 
L 201.864114 207.645532 
L 203.730334 212.350034 
L 205.596555 216.477396 
L 207.462776 219.947853 
L 209.328997 222.700651 
L 211.195217 224.694835 
L 213.061438 225.909523 
L 214.927659 226.343678 
L 216.79388 226.015403 
L 218.6601 224.960794 
L 220.526321 223.232392 
L 222.392542 220.897297 
L 224.258763 218.034983 
L 226.124983 214.734905 
L 229.857425 207.213729 
L 237.322308 191.353367 
L 239.188528 187.786783 
L 241.054749 184.548614 
L 242.92097 181.706019 
L 244.787191 179.314005 
L 246.653411 177.414527 
L 248.519632 176.035943 
L 250.385853 175.192819 
L 252.252074 174.88608 
L 254.118294 175.103491 
L 255.984515 175.820441 
L 257.850736 177.000997 
L 259.716957 178.599205 
L 261.583177 180.56058 
L 263.449398 182.823754 
L 267.181839 187.986217 
L 274.646722 198.886429 
L 276.512943 201.340139 
L 278.379164 203.568994 
L 280.245385 205.526725 
L 282.111605 207.175398 
L 283.977826 208.486042 
L 285.844047 209.439022 
L 287.710268 210.024181 
L 289.576488 210.240736 
L 291.442709 210.096954 
L 293.30893 209.609615 
L 295.175151 208.803292 
L 297.041371 207.709458 
L 298.907592 206.365464 
L 300.773813 204.813409 
L 304.506254 201.269972 
L 311.971137 193.778725 
L 313.837358 192.090653 
L 315.703579 190.556529 
L 317.569799 189.20823 
L 319.43602 188.071913 
L 321.302241 187.167586 
L 323.168462 186.508841 
L 325.034682 186.10276 
L 326.900903 185.949983 
L 328.767124 186.044924 
L 330.633344 186.376144 
L 332.499565 186.926839 
L 334.365786 187.675456 
L 336.232007 188.596388 
L 339.964448 190.837231 
L 345.56311 194.707348 
L 349.295552 197.241278 
L 353.027993 199.458538 
L 354.894214 200.387109 
L 356.760435 201.170282 
L 358.626656 201.794243 
L 360.492876 202.249582 
L 362.359097 202.53136 
L 364.225318 202.639071 
L 366.091538 202.576485 
L 367.957759 202.351401 
L 369.82398 201.975309 
L 371.690201 201.462971 
L 375.422642 200.102026 
L 379.155084 198.432667 
L 386.619967 194.89445 
L 390.352408 193.368719 
L 394.084849 192.189448 
L 395.95107 191.758942 
L 397.817291 191.444215 
L 399.683512 191.248708 
L 401.549732 191.172818 
L 403.415953 191.214001 
L 407.148395 191.623774 
L 410.880836 192.406782 
L 414.613278 193.461286 
L 427.676823 197.534617 
L 431.409264 198.347041 
L 435.141706 198.861595 
L 438.874147 199.050667 
L 442.606589 198.919721 
L 446.33903 198.504385 
L 450.071472 197.864867 
L 455.670134 196.656825 
L 463.135017 195.029209 
L 466.867458 194.381606 
L 470.5999 193.920292 
L 474.332341 193.675858 
L 478.064783 193.655974 
L 481.797224 193.846314 
L 487.395886 194.448898 
L 496.72699 195.859563 
L 502.325652 196.634214 
L 507.924314 197.161168 
L 511.656756 197.330337 
L 515.389197 197.345202 
L 520.98786 197.103125 
L 526.586522 196.623655 
L 541.516288 195.157011 
L 547.11495 194.865888 
L 552.713612 194.809582 
L 558.312274 194.97486 
L 565.777157 195.435115 
L 578.840702 196.311928 
L 586.305585 196.544158 
L 593.770468 196.49209 
L 603.101572 196.123765 
L 618.031338 195.463019 
L 623.63 195.360536 
L 623.63 195.360536 
" clip-path="url(#p8d76a9167e)" style="fill: none; stroke: #ff7f0e; stroke-width: 2; stroke-linecap: square"/>
   </g>
   <g id="line2d_16">
    <path d="M 65.63 332.709 
L 67.496221 331.008066 
L 69.362441 325.969535 
L 71.228662 317.746798 
L 73.094883 306.622461 
L 74.961104 292.85915 
L 76.827324 276.834199 
L 78.693545 259.007355 
L 82.425987 219.675927 
L 88.024649 159.433086 
L 89.89087 140.82927 
L 91.75709 124.129835 
L 93.623311 109.206819 
L 95.489532 96.651243 
L 97.355753 86.616283 
L 99.221973 79.708279 
L 101.088194 75.712568 
L 102.954415 74.656983 
L 104.820635 76.445926 
L 106.686856 81.705471 
L 108.553077 89.011984 
L 110.419298 99.189328 
L 112.285518 111.949593 
L 114.151739 126.477691 
L 116.01796 142.345483 
L 119.750401 176.747784 
L 125.349064 228.707144 
L 127.215284 244.398618 
L 129.081505 258.517754 
L 130.947726 270.83904 
L 132.813946 280.953364 
L 134.680167 288.897023 
L 136.546388 294.473094 
L 138.412609 297.527142 
L 140.278829 297.889288 
L 142.14505 295.8636 
L 144.011271 291.344856 
L 145.877492 284.676602 
L 147.743712 276.092694 
L 149.609933 265.763641 
L 151.476154 253.947861 
L 155.208595 227.87414 
L 160.807258 186.75202 
L 162.673478 173.857311 
L 164.539699 161.988872 
L 166.40592 151.388226 
L 168.27214 142.540334 
L 170.138361 135.278262 
L 172.004582 130.042513 
L 173.870803 126.145448 
L 175.737023 124.726887 
L 177.603244 125.575829 
L 179.469465 127.601908 
L 181.335686 131.674079 
L 183.201906 136.478154 
L 185.068127 143.104988 
L 186.934348 151.010894 
L 190.666789 168.643845 
L 198.131672 206.142619 
L 199.997893 214.550904 
L 201.864114 222.157759 
L 203.730334 228.555539 
L 205.596555 234.16836 
L 207.462776 238.484277 
L 209.328997 241.517289 
L 211.195217 243.664542 
L 213.061438 244.177259 
L 214.927659 243.578226 
L 216.79388 241.978206 
L 218.6601 239.274057 
L 220.526321 235.672346 
L 222.392542 231.074103 
L 224.258763 226.135525 
L 227.991204 214.797919 
L 231.723645 203.557638 
L 235.456087 192.604571 
L 237.322308 187.788616 
L 239.188528 183.612822 
L 241.054749 180.202431 
L 244.787191 175.322551 
L 246.653411 173.752889 
L 248.519632 172.806504 
L 250.385853 172.713591 
L 252.252074 173.672371 
L 254.118294 174.975526 
L 255.984515 176.51176 
L 259.716957 181.179095 
L 261.583177 184.174021 
L 263.449398 186.924034 
L 265.315619 189.459297 
L 270.914281 198.597462 
L 272.780502 201.107291 
L 274.646722 203.197117 
L 276.512943 204.908014 
L 278.379164 206.368972 
L 280.245385 207.489666 
L 282.111605 208.438131 
L 283.977826 208.743993 
L 285.844047 208.683796 
L 287.710268 208.284933 
L 291.442709 207.02343 
L 293.30893 206.035202 
L 308.238696 195.942422 
L 310.104916 195.158118 
L 311.971137 194.179502 
L 313.837358 193.666295 
L 315.703579 193.459493 
L 317.569799 192.943301 
L 321.302241 192.624215 
L 323.168462 192.867304 
L 325.034682 193.335617 
L 326.900903 194.433852 
L 328.767124 195.191603 
L 330.633344 195.660246 
L 332.499565 196.466369 
L 334.365786 197.116107 
L 336.232007 197.422775 
L 338.098227 197.847636 
L 341.830669 198.447545 
L 345.56311 198.555162 
L 349.295552 199.051774 
L 351.161773 198.931588 
L 354.894214 198.42379 
L 356.760435 198.623752 
L 358.626656 198.328401 
L 360.492876 198.421392 
L 362.359097 197.960312 
L 367.957759 197.672629 
L 369.82398 197.598936 
L 371.690201 197.332103 
L 373.556421 197.688358 
L 375.422642 197.476762 
L 381.021304 197.85607 
L 384.753746 197.449966 
L 386.619967 197.511268 
L 390.352408 197.251866 
L 392.218629 197.204775 
L 394.084849 197.435682 
L 395.95107 197.36977 
L 397.817291 197.152896 
L 399.683512 197.078985 
L 401.549732 196.741409 
L 405.282174 196.770725 
L 407.148395 197.09141 
L 409.014615 196.655961 
L 410.880836 196.373308 
L 414.613278 196.440135 
L 416.479498 196.26874 
L 418.345719 196.669021 
L 422.078161 197.002973 
L 423.944381 197.08963 
L 433.275485 198.824507 
L 435.141706 198.933768 
L 438.874147 199.329081 
L 442.606589 199.262897 
L 444.472809 199.206883 
L 446.33903 198.999748 
L 451.937692 199.288328 
L 453.803913 199.237715 
L 455.670134 199.625405 
L 463.135017 198.737644 
L 468.733679 198.379039 
L 470.5999 197.785253 
L 472.46612 197.322762 
L 474.332341 197.293167 
L 476.198562 197.402609 
L 479.931003 196.857415 
L 481.797224 196.789949 
L 483.663445 196.172643 
L 485.529666 195.889055 
L 494.860769 195.944536 
L 496.72699 195.733333 
L 498.593211 196.091483 
L 500.459431 196.111007 
L 502.325652 196.271906 
L 504.191873 196.111676 
L 506.058094 196.682803 
L 509.790535 197.469349 
L 511.656756 197.458308 
L 513.522977 197.278916 
L 515.389197 197.488598 
L 517.255418 197.364301 
L 519.121639 197.735976 
L 520.98786 197.76603 
L 526.586522 198.4075 
L 528.452742 198.287963 
L 530.318963 197.975626 
L 534.051405 197.643792 
L 535.917625 197.33848 
L 537.783846 197.204288 
L 539.650067 197.538848 
L 541.516288 197.642896 
L 543.382508 197.420437 
L 545.248729 197.592515 
L 547.11495 197.500229 
L 550.847391 197.880146 
L 552.713612 197.750126 
L 556.446054 197.801494 
L 558.312274 197.589437 
L 560.178495 197.858648 
L 563.910936 197.942361 
L 565.777157 198.286032 
L 567.643378 198.113049 
L 571.375819 198.170654 
L 573.24204 198.182634 
L 575.108261 198.029866 
L 576.974482 198.163667 
L 578.840702 197.95833 
L 582.573144 196.986317 
L 586.305585 196.496122 
L 588.171806 196.36737 
L 590.038027 196.472373 
L 591.904247 196.004672 
L 593.770468 195.837695 
L 601.235351 196.468362 
L 603.101572 196.493942 
L 604.967793 196.988238 
L 606.834013 197.202168 
L 614.298896 199.025889 
L 618.031338 198.966296 
L 619.897559 198.846621 
L 621.763779 198.588846 
L 623.63 198.990024 
L 623.63 198.990024 
" clip-path="url(#p8d76a9167e)" style="fill: none; stroke: #1f77b4; stroke-width: 2; stroke-linecap: square"/>
   </g>
   <g id="patch_3">
    <path d="M 65.63 360.429 
L 65.63 27.789 
" style="fill: none; stroke: #000000; stroke-width: 2.5; stroke-linejoin: miter; stroke-linecap: square"/>
   </g>
   <g id="patch_4">
    <path d="M 623.63 360.429 
L 623.63 27.789 
" style="fill: none; stroke: #000000; stroke-width: 2.5; stroke-linejoin: miter; stroke-linecap: square"/>
   </g>
   <g id="patch_5">
    <path d="M 65.63 360.429 
L 623.63 360.429 
" style="fill: none; stroke: #000000; stroke-width: 2.5; stroke-linejoin: miter; stroke-linecap: square"/>
   </g>
   <g id="patch_6">
    <path d="M 65.63 27.789 
L 623.63 27.789 
" style="fill: none; stroke: #000000; stroke-width: 2.5; stroke-linejoin: miter; stroke-linecap: square"/>
   </g>
   <g id="text_17">
    <!-- Rabi Oscillations of many systems -->
    <g transform="translate(180.257 21.789) scale(0.192 -0.192)">
     <defs>
      <path id="DejaVuSans-52" d="M 2841 2188 
Q 3044 2119 3236 1894 
Q 3428 1669 3622 1275 
L 4263 0 
L 3584 0 
L 2988 1197 
Q 2756 1666 2539 1819 
Q 2322 1972 1947 1972 
L 1259 1972 
L 1259 0 
L 628 0 
L 628 4666 
L 2053 4666 
Q 2853 4666 3247 4331 
Q 3641 3997 3641 3322 
Q 3641 2881 3436 2590 
Q 3231 2300 2841 2188 
z
M 1259 4147 
L 1259 2491 
L 2053 2491 
Q 2509 2491 2742 2702 
Q 2975 2913 2975 3322 
Q 2975 3731 2742 3939 
Q 2509 4147 2053 4147 
L 1259 4147 
z
" transform="scale(0.015625)"/>
      <path id="DejaVuSans-62" d="M 3116 1747 
Q 3116 2381 2855 2742 
Q 2594 3103 2138 3103 
Q 1681 3103 1420 2742 
Q 1159 2381 1159 1747 
Q 1159 1113 1420 752 
Q 1681 391 2138 391 
Q 2594 391 2855 752 
Q 3116 1113 3116 1747 
z
M 1159 2969 
Q 1341 3281 1617 3432 
Q 1894 3584 2278 3584 
Q 2916 3584 3314 3078 
Q 3713 2572 3713 1747 
Q 3713 922 3314 415 
Q 2916 -91 2278 -91 
Q 1894 -91 1617 61 
Q 1341 213 1159 525 
L 1159 0 
L 581 0 
L 581 4863 
L 1159 4863 
L 1159 2969 
z
" transform="scale(0.015625)"/>
      <path id="DejaVuSans-4f" d="M 2522 4238 
Q 1834 4238 1429 3725 
Q 1025 3213 1025 2328 
Q 1025 1447 1429 934 
Q 1834 422 2522 422 
Q 3209 422 3611 934 
Q 4013 1447 4013 2328 
Q 4013 3213 3611 3725 
Q 3209 4238 2522 4238 
z
M 2522 4750 
Q 3503 4750 4090 4092 
Q 4678 3434 4678 2328 
Q 4678 1225 4090 567 
Q 3503 -91 2522 -91 
Q 1538 -91 948 565 
Q 359 1222 359 2328 
Q 359 3434 948 4092 
Q 1538 4750 2522 4750 
z
" transform="scale(0.015625)"/>
      <path id="DejaVuSans-66" d="M 2375 4863 
L 2375 4384 
L 1825 4384 
Q 1516 4384 1395 4259 
Q 1275 4134 1275 3809 
L 1275 3500 
L 2222 3500 
L 2222 3053 
L 1275 3053 
L 1275 0 
L 697 0 
L 697 3053 
L 147 3053 
L 147 3500 
L 697 3500 
L 697 3744 
Q 697 4328 969 4595 
Q 1241 4863 1831 4863 
L 2375 4863 
z
" transform="scale(0.015625)"/>
      <path id="DejaVuSans-79" d="M 2059 -325 
Q 1816 -950 1584 -1140 
Q 1353 -1331 966 -1331 
L 506 -1331 
L 506 -850 
L 844 -850 
Q 1081 -850 1212 -737 
Q 1344 -625 1503 -206 
L 1606 56 
L 191 3500 
L 800 3500 
L 1894 763 
L 2988 3500 
L 3597 3500 
L 2059 -325 
z
" transform="scale(0.015625)"/>
     </defs>
     <use xlink:href="#DejaVuSans-52"/>
     <use xlink:href="#DejaVuSans-61" x="67.232422"/>
     <use xlink:href="#DejaVuSans-62" x="128.511719"/>
     <use xlink:href="#DejaVuSans-69" x="191.988281"/>
     <use xlink:href="#DejaVuSans-20" x="219.771484"/>
     <use xlink:href="#DejaVuSans-4f" x="251.558594"/>
     <use xlink:href="#DejaVuSans-73" x="330.269531"/>
     <use xlink:href="#DejaVuSans-63" x="382.369141"/>
     <use xlink:href="#DejaVuSans-69" x="437.349609"/>
     <use xlink:href="#DejaVuSans-6c" x="465.132812"/>
     <use xlink:href="#DejaVuSans-6c" x="492.916016"/>
     <use xlink:href="#DejaVuSans-61" x="520.699219"/>
     <use xlink:href="#DejaVuSans-74" x="581.978516"/>
     <use xlink:href="#DejaVuSans-69" x="621.1875"/>
     <use xlink:href="#DejaVuSans-6f" x="648.970703"/>
     <use xlink:href="#DejaVuSans-6e" x="710.152344"/>
     <use xlink:href="#DejaVuSans-73" x="773.53125"/>
     <use xlink:href="#DejaVuSans-20" x="825.630859"/>
     <use xlink:href="#DejaVuSans-6f" x="857.417969"/>
     <use xlink:href="#DejaVuSans-66" x="918.599609"/>
     <use xlink:href="#DejaVuSans-20" x="953.804688"/>
     <use xlink:href="#DejaVuSans-6d" x="985.591797"/>
     <use xlink:href="#DejaVuSans-61" x="1083.003906"/>
     <use xlink:href="#DejaVuSans-6e" x="1144.283203"/>
     <use xlink:href="#DejaVuSans-79" x="1207.662109"/>
     <use xlink:href="#DejaVuSans-20" x="1266.841797"/>
     <use xlink:href="#DejaVuSans-73" x="1298.628906"/>
     <use xlink:href="#DejaVuSans-79" x="1350.728516"/>
     <use xlink:href="#DejaVuSans-73" x="1409.908203"/>
     <use xlink:href="#DejaVuSans-74" x="1462.007812"/>
     <use xlink:href="#DejaVuSans-65" x="1501.216797"/>
     <use xlink:href="#DejaVuSans-6d" x="1562.740234"/>
     <use xlink:href="#DejaVuSans-73" x="1660.152344"/>
    </g>
   </g>
   <g id="legend_1">
    <g id="patch_7">
     <path d="M 399.015 87.559 
L 612.43 87.559 
Q 615.63 87.559 615.63 84.359 
L 615.63 38.989 
Q 615.63 35.789 612.43 35.789 
L 399.015 35.789 
Q 395.815 35.789 395.815 38.989 
L 395.815 84.359 
Q 395.815 87.559 399.015 87.559 
z
" style="fill: #ffffff; opacity: 0.8; stroke: #cccccc; stroke-linejoin: miter"/>
    </g>
    <g id="line2d_17">
     <path d="M 402.215 48.7465 
L 418.215 48.7465 
L 434.215 48.7465 
" style="fill: none; stroke: #ff7f0e; stroke-width: 2; stroke-linecap: square"/>
    </g>
    <g id="text_18">
     <!-- OBEs -->
     <g transform="translate(447.015 54.3465) scale(0.16 -0.16)">
      <defs>
       <path id="DejaVuSans-42" d="M 1259 2228 
L 1259 519 
L 2272 519 
Q 2781 519 3026 730 
Q 3272 941 3272 1375 
Q 3272 1813 3026 2020 
Q 2781 2228 2272 2228 
L 1259 2228 
z
M 1259 4147 
L 1259 2741 
L 2194 2741 
Q 2656 2741 2882 2914 
Q 3109 3088 3109 3444 
Q 3109 3797 2882 3972 
Q 2656 4147 2194 4147 
L 1259 4147 
z
M 628 4666 
L 2241 4666 
Q 2963 4666 3353 4366 
Q 3744 4066 3744 3513 
Q 3744 3084 3544 2831 
Q 3344 2578 2956 2516 
Q 3422 2416 3680 2098 
Q 3938 1781 3938 1306 
Q 3938 681 3513 340 
Q 3088 0 2303 0 
L 628 0 
L 628 4666 
z
" transform="scale(0.015625)"/>
      </defs>
      <use xlink:href="#DejaVuSans-4f"/>
      <use xlink:href="#DejaVuSans-42" x="78.710938"/>
      <use xlink:href="#DejaVuSans-45" x="147.314453"/>
      <use xlink:href="#DejaVuSans-73" x="210.498047"/>
     </g>
    </g>
    <g id="line2d_18">
     <path d="M 402.215 72.2315 
L 418.215 72.2315 
L 434.215 72.2315 
" style="fill: none; stroke: #1f77b4; stroke-width: 2; stroke-linecap: square"/>
    </g>
    <g id="text_19">
     <!-- Simulated N=10000 -->
     <g transform="translate(447.015 77.8315) scale(0.16 -0.16)">
      <defs>
       <path id="DejaVuSans-53" d="M 3425 4513 
L 3425 3897 
Q 3066 4069 2747 4153 
Q 2428 4238 2131 4238 
Q 1616 4238 1336 4038 
Q 1056 3838 1056 3469 
Q 1056 3159 1242 3001 
Q 1428 2844 1947 2747 
L 2328 2669 
Q 3034 2534 3370 2195 
Q 3706 1856 3706 1288 
Q 3706 609 3251 259 
Q 2797 -91 1919 -91 
Q 1588 -91 1214 -16 
Q 841 59 441 206 
L 441 856 
Q 825 641 1194 531 
Q 1563 422 1919 422 
Q 2459 422 2753 634 
Q 3047 847 3047 1241 
Q 3047 1584 2836 1778 
Q 2625 1972 2144 2069 
L 1759 2144 
Q 1053 2284 737 2584 
Q 422 2884 422 3419 
Q 422 4038 858 4394 
Q 1294 4750 2059 4750 
Q 2388 4750 2728 4690 
Q 3069 4631 3425 4513 
z
" transform="scale(0.015625)"/>
       <path id="DejaVuSans-4e" d="M 628 4666 
L 1478 4666 
L 3547 763 
L 3547 4666 
L 4159 4666 
L 4159 0 
L 3309 0 
L 1241 3903 
L 1241 0 
L 628 0 
L 628 4666 
z
" transform="scale(0.015625)"/>
       <path id="DejaVuSans-3d" d="M 678 2906 
L 4684 2906 
L 4684 2381 
L 678 2381 
L 678 2906 
z
M 678 1631 
L 4684 1631 
L 4684 1100 
L 678 1100 
L 678 1631 
z
" transform="scale(0.015625)"/>
      </defs>
      <use xlink:href="#DejaVuSans-53"/>
      <use xlink:href="#DejaVuSans-69" x="63.476562"/>
      <use xlink:href="#DejaVuSans-6d" x="91.259766"/>
      <use xlink:href="#DejaVuSans-75" x="188.671875"/>
      <use xlink:href="#DejaVuSans-6c" x="252.050781"/>
      <use xlink:href="#DejaVuSans-61" x="279.833984"/>
      <use xlink:href="#DejaVuSans-74" x="341.113281"/>
      <use xlink:href="#DejaVuSans-65" x="380.322266"/>
      <use xlink:href="#DejaVuSans-64" x="441.845703"/>
      <use xlink:href="#DejaVuSans-20" x="505.322266"/>
      <use xlink:href="#DejaVuSans-4e" x="537.109375"/>
      <use xlink:href="#DejaVuSans-3d" x="611.914062"/>
      <use xlink:href="#DejaVuSans-31" x="695.703125"/>
      <use xlink:href="#DejaVuSans-30" x="759.326172"/>
      <use xlink:href="#DejaVuSans-30" x="822.949219"/>
      <use xlink:href="#DejaVuSans-30" x="886.572266"/>
      <use xlink:href="#DejaVuSans-30" x="950.195312"/>
     </g>
    </g>
   </g>
  </g>
 </g>
 <defs>
  <clipPath id="p8d76a9167e">
   <rect x="65.63" y="27.789" width="558" height="332.64"/>
  </clipPath>
 </defs>
</svg>
