<?xml version="1.0" encoding="utf-8" standalone="no"?>
<!DOCTYPE svg PUBLIC "-//W3C//DTD SVG 1.1//EN"
  "http://www.w3.org/Graphics/SVG/1.1/DTD/svg11.dtd">
<svg xmlns:xlink="http://www.w3.org/1999/xlink" width="630.83pt" height="416.099pt" viewBox="0 0 630.83 416.099" xmlns="http://www.w3.org/2000/svg" version="1.1">
 <metadata>
  <rdf:RDF xmlns:dc="http://purl.org/dc/elements/1.1/" xmlns:cc="http://creativecommons.org/ns#" xmlns:rdf="http://www.w3.org/1999/02/22-rdf-syntax-ns#">
   <cc:Work>
    <dc:type rdf:resource="http://purl.org/dc/dcmitype/StillImage"/>
    <dc:date>2024-08-08T18:16:13.416549</dc:date>
    <dc:format>image/svg+xml</dc:format>
    <dc:creator>
     <cc:Agent>
      <dc:title>Matplotlib v3.7.1, https://matplotlib.org/</dc:title>
     </cc:Agent>
    </dc:creator>
   </cc:Work>
  </rdf:RDF>
 </metadata>
 <defs>
  <style type="text/css">*{stroke-linejoin: round; stroke-linecap: butt}</style>
 </defs>
 <g id="figure_1">
  <g id="patch_1">
   <path d="M 0 416.099 
L 630.83 416.099 
L 630.83 0 
L 0 0 
z
" style="fill: #ffffff"/>
  </g>
  <g id="axes_1">
   <g id="patch_2">
    <path d="M 65.63 360.429 
L 623.63 360.429 
L 623.63 27.789 
L 65.63 27.789 
z
" style="fill: #ffffff"/>
   </g>
   <g id="matplotlib.axis_1">
    <g id="xtick_1">
     <g id="line2d_1">
      <defs>
       <path id="mcbf8f46258" d="M 0 0 
L 0 10 
" style="stroke: #000000; stroke-width: 2.5"/>
      </defs>
      <g>
       <use xlink:href="#mcbf8f46258" x="65.63" y="360.429" style="stroke: #000000; stroke-width: 2.5"/>
      </g>
     </g>
     <g id="text_1">
      <!-- 0 -->
      <g transform="translate(60.54 386.0865) scale(0.16 -0.16)">
       <defs>
        <path id="DejaVuSans-30" d="M 2034 4250 
Q 1547 4250 1301 3770 
Q 1056 3291 1056 2328 
Q 1056 1369 1301 889 
Q 1547 409 2034 409 
Q 2525 409 2770 889 
Q 3016 1369 3016 2328 
Q 3016 3291 2770 3770 
Q 2525 4250 2034 4250 
z
M 2034 4750 
Q 2819 4750 3233 4129 
Q 3647 3509 3647 2328 
Q 3647 1150 3233 529 
Q 2819 -91 2034 -91 
Q 1250 -91 836 529 
Q 422 1150 422 2328 
Q 422 3509 836 4129 
Q 1250 4750 2034 4750 
z
" transform="scale(0.015625)"/>
       </defs>
       <use xlink:href="#DejaVuSans-30"/>
      </g>
     </g>
    </g>
    <g id="xtick_2">
     <g id="line2d_2">
      <g>
       <use xlink:href="#mcbf8f46258" x="140.079633" y="360.429" style="stroke: #000000; stroke-width: 2.5"/>
      </g>
     </g>
     <g id="text_2">
      <!-- 2 -->
      <g transform="translate(134.989633 386.0865) scale(0.16 -0.16)">
       <defs>
        <path id="DejaVuSans-32" d="M 1228 531 
L 3431 531 
L 3431 0 
L 469 0 
L 469 531 
Q 828 903 1448 1529 
Q 2069 2156 2228 2338 
Q 2531 2678 2651 2914 
Q 2772 3150 2772 3378 
Q 2772 3750 2511 3984 
Q 2250 4219 1831 4219 
Q 1534 4219 1204 4116 
Q 875 4013 500 3803 
L 500 4441 
Q 881 4594 1212 4672 
Q 1544 4750 1819 4750 
Q 2544 4750 2975 4387 
Q 3406 4025 3406 3419 
Q 3406 3131 3298 2873 
Q 3191 2616 2906 2266 
Q 2828 2175 2409 1742 
Q 1991 1309 1228 531 
z
" transform="scale(0.015625)"/>
       </defs>
       <use xlink:href="#DejaVuSans-32"/>
      </g>
     </g>
    </g>
    <g id="xtick_3">
     <g id="line2d_3">
      <g>
       <use xlink:href="#mcbf8f46258" x="214.529266" y="360.429" style="stroke: #000000; stroke-width: 2.5"/>
      </g>
     </g>
     <g id="text_3">
      <!-- 4 -->
      <g transform="translate(209.439266 386.0865) scale(0.16 -0.16)">
       <defs>
        <path id="DejaVuSans-34" d="M 2419 4116 
L 825 1625 
L 2419 1625 
L 2419 4116 
z
M 2253 4666 
L 3047 4666 
L 3047 1625 
L 3713 1625 
L 3713 1100 
L 3047 1100 
L 3047 0 
L 2419 0 
L 2419 1100 
L 313 1100 
L 313 1709 
L 2253 4666 
z
" transform="scale(0.015625)"/>
       </defs>
       <use xlink:href="#DejaVuSans-34"/>
      </g>
     </g>
    </g>
    <g id="xtick_4">
     <g id="line2d_4">
      <g>
       <use xlink:href="#mcbf8f46258" x="288.978899" y="360.429" style="stroke: #000000; stroke-width: 2.5"/>
      </g>
     </g>
     <g id="text_4">
      <!-- 6 -->
      <g transform="translate(283.888899 386.0865) scale(0.16 -0.16)">
       <defs>
        <path id="DejaVuSans-36" d="M 2113 2584 
Q 1688 2584 1439 2293 
Q 1191 2003 1191 1497 
Q 1191 994 1439 701 
Q 1688 409 2113 409 
Q 2538 409 2786 701 
Q 3034 994 3034 1497 
Q 3034 2003 2786 2293 
Q 2538 2584 2113 2584 
z
M 3366 4563 
L 3366 3988 
Q 3128 4100 2886 4159 
Q 2644 4219 2406 4219 
Q 1781 4219 1451 3797 
Q 1122 3375 1075 2522 
Q 1259 2794 1537 2939 
Q 1816 3084 2150 3084 
Q 2853 3084 3261 2657 
Q 3669 2231 3669 1497 
Q 3669 778 3244 343 
Q 2819 -91 2113 -91 
Q 1303 -91 875 529 
Q 447 1150 447 2328 
Q 447 3434 972 4092 
Q 1497 4750 2381 4750 
Q 2619 4750 2861 4703 
Q 3103 4656 3366 4563 
z
" transform="scale(0.015625)"/>
       </defs>
       <use xlink:href="#DejaVuSans-36"/>
      </g>
     </g>
    </g>
    <g id="xtick_5">
     <g id="line2d_5">
      <g>
       <use xlink:href="#mcbf8f46258" x="363.428532" y="360.429" style="stroke: #000000; stroke-width: 2.5"/>
      </g>
     </g>
     <g id="text_5">
      <!-- 8 -->
      <g transform="translate(358.338532 386.0865) scale(0.16 -0.16)">
       <defs>
        <path id="DejaVuSans-38" d="M 2034 2216 
Q 1584 2216 1326 1975 
Q 1069 1734 1069 1313 
Q 1069 891 1326 650 
Q 1584 409 2034 409 
Q 2484 409 2743 651 
Q 3003 894 3003 1313 
Q 3003 1734 2745 1975 
Q 2488 2216 2034 2216 
z
M 1403 2484 
Q 997 2584 770 2862 
Q 544 3141 544 3541 
Q 544 4100 942 4425 
Q 1341 4750 2034 4750 
Q 2731 4750 3128 4425 
Q 3525 4100 3525 3541 
Q 3525 3141 3298 2862 
Q 3072 2584 2669 2484 
Q 3125 2378 3379 2068 
Q 3634 1759 3634 1313 
Q 3634 634 3220 271 
Q 2806 -91 2034 -91 
Q 1263 -91 848 271 
Q 434 634 434 1313 
Q 434 1759 690 2068 
Q 947 2378 1403 2484 
z
M 1172 3481 
Q 1172 3119 1398 2916 
Q 1625 2713 2034 2713 
Q 2441 2713 2670 2916 
Q 2900 3119 2900 3481 
Q 2900 3844 2670 4047 
Q 2441 4250 2034 4250 
Q 1625 4250 1398 4047 
Q 1172 3844 1172 3481 
z
" transform="scale(0.015625)"/>
       </defs>
       <use xlink:href="#DejaVuSans-38"/>
      </g>
     </g>
    </g>
    <g id="xtick_6">
     <g id="line2d_6">
      <g>
       <use xlink:href="#mcbf8f46258" x="437.878165" y="360.429" style="stroke: #000000; stroke-width: 2.5"/>
      </g>
     </g>
     <g id="text_6">
      <!-- 10 -->
      <g transform="translate(427.698165 386.0865) scale(0.16 -0.16)">
       <defs>
        <path id="DejaVuSans-31" d="M 794 531 
L 1825 531 
L 1825 4091 
L 703 3866 
L 703 4441 
L 1819 4666 
L 2450 4666 
L 2450 531 
L 3481 531 
L 3481 0 
L 794 0 
L 794 531 
z
" transform="scale(0.015625)"/>
       </defs>
       <use xlink:href="#DejaVuSans-31"/>
       <use xlink:href="#DejaVuSans-30" x="63.623047"/>
      </g>
     </g>
    </g>
    <g id="xtick_7">
     <g id="line2d_7">
      <g>
       <use xlink:href="#mcbf8f46258" x="512.327799" y="360.429" style="stroke: #000000; stroke-width: 2.5"/>
      </g>
     </g>
     <g id="text_7">
      <!-- 12 -->
      <g transform="translate(502.147799 386.0865) scale(0.16 -0.16)">
       <use xlink:href="#DejaVuSans-31"/>
       <use xlink:href="#DejaVuSans-32" x="63.623047"/>
      </g>
     </g>
    </g>
    <g id="xtick_8">
     <g id="line2d_8">
      <g>
       <use xlink:href="#mcbf8f46258" x="586.777432" y="360.429" style="stroke: #000000; stroke-width: 2.5"/>
      </g>
     </g>
     <g id="text_8">
      <!-- 14 -->
      <g transform="translate(576.597432 386.0865) scale(0.16 -0.16)">
       <use xlink:href="#DejaVuSans-31"/>
       <use xlink:href="#DejaVuSans-34" x="63.623047"/>
      </g>
     </g>
    </g>
    <g id="text_9">
     <!-- Time [s] -->
     <g transform="translate(312.10375 405.5715) scale(0.16 -0.16)">
      <defs>
       <path id="DejaVuSans-54" d="M -19 4666 
L 3928 4666 
L 3928 4134 
L 2272 4134 
L 2272 0 
L 1638 0 
L 1638 4134 
L -19 4134 
L -19 4666 
z
" transform="scale(0.015625)"/>
       <path id="DejaVuSans-69" d="M 603 3500 
L 1178 3500 
L 1178 0 
L 603 0 
L 603 3500 
z
M 603 4863 
L 1178 4863 
L 1178 4134 
L 603 4134 
L 603 4863 
z
" transform="scale(0.015625)"/>
       <path id="DejaVuSans-6d" d="M 3328 2828 
Q 3544 3216 3844 3400 
Q 4144 3584 4550 3584 
Q 5097 3584 5394 3201 
Q 5691 2819 5691 2113 
L 5691 0 
L 5113 0 
L 5113 2094 
Q 5113 2597 4934 2840 
Q 4756 3084 4391 3084 
Q 3944 3084 3684 2787 
Q 3425 2491 3425 1978 
L 3425 0 
L 2847 0 
L 2847 2094 
Q 2847 2600 2669 2842 
Q 2491 3084 2119 3084 
Q 1678 3084 1418 2786 
Q 1159 2488 1159 1978 
L 1159 0 
L 581 0 
L 581 3500 
L 1159 3500 
L 1159 2956 
Q 1356 3278 1631 3431 
Q 1906 3584 2284 3584 
Q 2666 3584 2933 3390 
Q 3200 3197 3328 2828 
z
" transform="scale(0.015625)"/>
       <path id="DejaVuSans-65" d="M 3597 1894 
L 3597 1613 
L 953 1613 
Q 991 1019 1311 708 
Q 1631 397 2203 397 
Q 2534 397 2845 478 
Q 3156 559 3463 722 
L 3463 178 
Q 3153 47 2828 -22 
Q 2503 -91 2169 -91 
Q 1331 -91 842 396 
Q 353 884 353 1716 
Q 353 2575 817 3079 
Q 1281 3584 2069 3584 
Q 2775 3584 3186 3129 
Q 3597 2675 3597 1894 
z
M 3022 2063 
Q 3016 2534 2758 2815 
Q 2500 3097 2075 3097 
Q 1594 3097 1305 2825 
Q 1016 2553 972 2059 
L 3022 2063 
z
" transform="scale(0.015625)"/>
       <path id="DejaVuSans-20" transform="scale(0.015625)"/>
       <path id="DejaVuSans-5b" d="M 550 4863 
L 1875 4863 
L 1875 4416 
L 1125 4416 
L 1125 -397 
L 1875 -397 
L 1875 -844 
L 550 -844 
L 550 4863 
z
" transform="scale(0.015625)"/>
       <path id="DejaVuSans-73" d="M 2834 3397 
L 2834 2853 
Q 2591 2978 2328 3040 
Q 2066 3103 1784 3103 
Q 1356 3103 1142 2972 
Q 928 2841 928 2578 
Q 928 2378 1081 2264 
Q 1234 2150 1697 2047 
L 1894 2003 
Q 2506 1872 2764 1633 
Q 3022 1394 3022 966 
Q 3022 478 2636 193 
Q 2250 -91 1575 -91 
Q 1294 -91 989 -36 
Q 684 19 347 128 
L 347 722 
Q 666 556 975 473 
Q 1284 391 1588 391 
Q 1994 391 2212 530 
Q 2431 669 2431 922 
Q 2431 1156 2273 1281 
Q 2116 1406 1581 1522 
L 1381 1569 
Q 847 1681 609 1914 
Q 372 2147 372 2553 
Q 372 3047 722 3315 
Q 1072 3584 1716 3584 
Q 2034 3584 2315 3537 
Q 2597 3491 2834 3397 
z
" transform="scale(0.015625)"/>
       <path id="DejaVuSans-5d" d="M 1947 4863 
L 1947 -844 
L 622 -844 
L 622 -397 
L 1369 -397 
L 1369 4416 
L 622 4416 
L 622 4863 
L 1947 4863 
z
" transform="scale(0.015625)"/>
      </defs>
      <use xlink:href="#DejaVuSans-54"/>
      <use xlink:href="#DejaVuSans-69" x="57.958984"/>
      <use xlink:href="#DejaVuSans-6d" x="85.742188"/>
      <use xlink:href="#DejaVuSans-65" x="183.154297"/>
      <use xlink:href="#DejaVuSans-20" x="244.677734"/>
      <use xlink:href="#DejaVuSans-5b" x="276.464844"/>
      <use xlink:href="#DejaVuSans-73" x="315.478516"/>
      <use xlink:href="#DejaVuSans-5d" x="367.578125"/>
     </g>
    </g>
   </g>
   <g id="matplotlib.axis_2">
    <g id="ytick_1">
     <g id="line2d_9">
      <defs>
       <path id="m1e2130cea4" d="M 0 0 
L -10 0 
" style="stroke: #000000; stroke-width: 2.5"/>
      </defs>
      <g>
       <use xlink:href="#m1e2130cea4" x="65.63" y="332.709" style="stroke: #000000; stroke-width: 2.5"/>
      </g>
     </g>
     <g id="text_10">
      <!-- 0.0 -->
      <g transform="translate(26.685 338.78775) scale(0.16 -0.16)">
       <defs>
        <path id="DejaVuSans-2e" d="M 684 794 
L 1344 794 
L 1344 0 
L 684 0 
L 684 794 
z
" transform="scale(0.015625)"/>
       </defs>
       <use xlink:href="#DejaVuSans-30"/>
       <use xlink:href="#DejaVuSans-2e" x="63.623047"/>
       <use xlink:href="#DejaVuSans-30" x="95.410156"/>
      </g>
     </g>
    </g>
    <g id="ytick_2">
     <g id="line2d_10">
      <g>
       <use xlink:href="#m1e2130cea4" x="65.63" y="277.269" style="stroke: #000000; stroke-width: 2.5"/>
      </g>
     </g>
     <g id="text_11">
      <!-- 0.2 -->
      <g transform="translate(26.685 283.34775) scale(0.16 -0.16)">
       <use xlink:href="#DejaVuSans-30"/>
       <use xlink:href="#DejaVuSans-2e" x="63.623047"/>
       <use xlink:href="#DejaVuSans-32" x="95.410156"/>
      </g>
     </g>
    </g>
    <g id="ytick_3">
     <g id="line2d_11">
      <g>
       <use xlink:href="#m1e2130cea4" x="65.63" y="221.829" style="stroke: #000000; stroke-width: 2.5"/>
      </g>
     </g>
     <g id="text_12">
      <!-- 0.4 -->
      <g transform="translate(26.685 227.90775) scale(0.16 -0.16)">
       <use xlink:href="#DejaVuSans-30"/>
       <use xlink:href="#DejaVuSans-2e" x="63.623047"/>
       <use xlink:href="#DejaVuSans-34" x="95.410156"/>
      </g>
     </g>
    </g>
    <g id="ytick_4">
     <g id="line2d_12">
      <g>
       <use xlink:href="#m1e2130cea4" x="65.63" y="166.389" style="stroke: #000000; stroke-width: 2.5"/>
      </g>
     </g>
     <g id="text_13">
      <!-- 0.6 -->
      <g transform="translate(26.685 172.46775) scale(0.16 -0.16)">
       <use xlink:href="#DejaVuSans-30"/>
       <use xlink:href="#DejaVuSans-2e" x="63.623047"/>
       <use xlink:href="#DejaVuSans-36" x="95.410156"/>
      </g>
     </g>
    </g>
    <g id="ytick_5">
     <g id="line2d_13">
      <g>
       <use xlink:href="#m1e2130cea4" x="65.63" y="110.949" style="stroke: #000000; stroke-width: 2.5"/>
      </g>
     </g>
     <g id="text_14">
      <!-- 0.8 -->
      <g transform="translate(26.685 117.02775) scale(0.16 -0.16)">
       <use xlink:href="#DejaVuSans-30"/>
       <use xlink:href="#DejaVuSans-2e" x="63.623047"/>
       <use xlink:href="#DejaVuSans-38" x="95.410156"/>
      </g>
     </g>
    </g>
    <g id="ytick_6">
     <g id="line2d_14">
      <g>
       <use xlink:href="#m1e2130cea4" x="65.63" y="55.509" style="stroke: #000000; stroke-width: 2.5"/>
      </g>
     </g>
     <g id="text_15">
      <!-- 1.0 -->
      <g transform="translate(26.685 61.58775) scale(0.16 -0.16)">
       <use xlink:href="#DejaVuSans-31"/>
       <use xlink:href="#DejaVuSans-2e" x="63.623047"/>
       <use xlink:href="#DejaVuSans-30" x="95.410156"/>
      </g>
     </g>
    </g>
    <g id="text_16">
     <!-- Excited state population -->
     <g transform="translate(19.3575 291.439) rotate(-90) scale(0.16 -0.16)">
      <defs>
       <path id="DejaVuSans-45" d="M 628 4666 
L 3578 4666 
L 3578 4134 
L 1259 4134 
L 1259 2753 
L 3481 2753 
L 3481 2222 
L 1259 2222 
L 1259 531 
L 3634 531 
L 3634 0 
L 628 0 
L 628 4666 
z
" transform="scale(0.015625)"/>
       <path id="DejaVuSans-78" d="M 3513 3500 
L 2247 1797 
L 3578 0 
L 2900 0 
L 1881 1375 
L 863 0 
L 184 0 
L 1544 1831 
L 300 3500 
L 978 3500 
L 1906 2253 
L 2834 3500 
L 3513 3500 
z
" transform="scale(0.015625)"/>
       <path id="DejaVuSans-63" d="M 3122 3366 
L 3122 2828 
Q 2878 2963 2633 3030 
Q 2388 3097 2138 3097 
Q 1578 3097 1268 2742 
Q 959 2388 959 1747 
Q 959 1106 1268 751 
Q 1578 397 2138 397 
Q 2388 397 2633 464 
Q 2878 531 3122 666 
L 3122 134 
Q 2881 22 2623 -34 
Q 2366 -91 2075 -91 
Q 1284 -91 818 406 
Q 353 903 353 1747 
Q 353 2603 823 3093 
Q 1294 3584 2113 3584 
Q 2378 3584 2631 3529 
Q 2884 3475 3122 3366 
z
" transform="scale(0.015625)"/>
       <path id="DejaVuSans-74" d="M 1172 4494 
L 1172 3500 
L 2356 3500 
L 2356 3053 
L 1172 3053 
L 1172 1153 
Q 1172 725 1289 603 
Q 1406 481 1766 481 
L 2356 481 
L 2356 0 
L 1766 0 
Q 1100 0 847 248 
Q 594 497 594 1153 
L 594 3053 
L 172 3053 
L 172 3500 
L 594 3500 
L 594 4494 
L 1172 4494 
z
" transform="scale(0.015625)"/>
       <path id="DejaVuSans-64" d="M 2906 2969 
L 2906 4863 
L 3481 4863 
L 3481 0 
L 2906 0 
L 2906 525 
Q 2725 213 2448 61 
Q 2172 -91 1784 -91 
Q 1150 -91 751 415 
Q 353 922 353 1747 
Q 353 2572 751 3078 
Q 1150 3584 1784 3584 
Q 2172 3584 2448 3432 
Q 2725 3281 2906 2969 
z
M 947 1747 
Q 947 1113 1208 752 
Q 1469 391 1925 391 
Q 2381 391 2643 752 
Q 2906 1113 2906 1747 
Q 2906 2381 2643 2742 
Q 2381 3103 1925 3103 
Q 1469 3103 1208 2742 
Q 947 2381 947 1747 
z
" transform="scale(0.015625)"/>
       <path id="DejaVuSans-61" d="M 2194 1759 
Q 1497 1759 1228 1600 
Q 959 1441 959 1056 
Q 959 750 1161 570 
Q 1363 391 1709 391 
Q 2188 391 2477 730 
Q 2766 1069 2766 1631 
L 2766 1759 
L 2194 1759 
z
M 3341 1997 
L 3341 0 
L 2766 0 
L 2766 531 
Q 2569 213 2275 61 
Q 1981 -91 1556 -91 
Q 1019 -91 701 211 
Q 384 513 384 1019 
Q 384 1609 779 1909 
Q 1175 2209 1959 2209 
L 2766 2209 
L 2766 2266 
Q 2766 2663 2505 2880 
Q 2244 3097 1772 3097 
Q 1472 3097 1187 3025 
Q 903 2953 641 2809 
L 641 3341 
Q 956 3463 1253 3523 
Q 1550 3584 1831 3584 
Q 2591 3584 2966 3190 
Q 3341 2797 3341 1997 
z
" transform="scale(0.015625)"/>
       <path id="DejaVuSans-70" d="M 1159 525 
L 1159 -1331 
L 581 -1331 
L 581 3500 
L 1159 3500 
L 1159 2969 
Q 1341 3281 1617 3432 
Q 1894 3584 2278 3584 
Q 2916 3584 3314 3078 
Q 3713 2572 3713 1747 
Q 3713 922 3314 415 
Q 2916 -91 2278 -91 
Q 1894 -91 1617 61 
Q 1341 213 1159 525 
z
M 3116 1747 
Q 3116 2381 2855 2742 
Q 2594 3103 2138 3103 
Q 1681 3103 1420 2742 
Q 1159 2381 1159 1747 
Q 1159 1113 1420 752 
Q 1681 391 2138 391 
Q 2594 391 2855 752 
Q 3116 1113 3116 1747 
z
" transform="scale(0.015625)"/>
       <path id="DejaVuSans-6f" d="M 1959 3097 
Q 1497 3097 1228 2736 
Q 959 2375 959 1747 
Q 959 1119 1226 758 
Q 1494 397 1959 397 
Q 2419 397 2687 759 
Q 2956 1122 2956 1747 
Q 2956 2369 2687 2733 
Q 2419 3097 1959 3097 
z
M 1959 3584 
Q 2709 3584 3137 3096 
Q 3566 2609 3566 1747 
Q 3566 888 3137 398 
Q 2709 -91 1959 -91 
Q 1206 -91 779 398 
Q 353 888 353 1747 
Q 353 2609 779 3096 
Q 1206 3584 1959 3584 
z
" transform="scale(0.015625)"/>
       <path id="DejaVuSans-75" d="M 544 1381 
L 544 3500 
L 1119 3500 
L 1119 1403 
Q 1119 906 1312 657 
Q 1506 409 1894 409 
Q 2359 409 2629 706 
Q 2900 1003 2900 1516 
L 2900 3500 
L 3475 3500 
L 3475 0 
L 2900 0 
L 2900 538 
Q 2691 219 2414 64 
Q 2138 -91 1772 -91 
Q 1169 -91 856 284 
Q 544 659 544 1381 
z
M 1991 3584 
L 1991 3584 
z
" transform="scale(0.015625)"/>
       <path id="DejaVuSans-6c" d="M 603 4863 
L 1178 4863 
L 1178 0 
L 603 0 
L 603 4863 
z
" transform="scale(0.015625)"/>
       <path id="DejaVuSans-6e" d="M 3513 2113 
L 3513 0 
L 2938 0 
L 2938 2094 
Q 2938 2591 2744 2837 
Q 2550 3084 2163 3084 
Q 1697 3084 1428 2787 
Q 1159 2491 1159 1978 
L 1159 0 
L 581 0 
L 581 3500 
L 1159 3500 
L 1159 2956 
Q 1366 3272 1645 3428 
Q 1925 3584 2291 3584 
Q 2894 3584 3203 3211 
Q 3513 2838 3513 2113 
z
" transform="scale(0.015625)"/>
      </defs>
      <use xlink:href="#DejaVuSans-45"/>
      <use xlink:href="#DejaVuSans-78" x="63.183594"/>
      <use xlink:href="#DejaVuSans-63" x="120.613281"/>
      <use xlink:href="#DejaVuSans-69" x="175.59375"/>
      <use xlink:href="#DejaVuSans-74" x="203.376953"/>
      <use xlink:href="#DejaVuSans-65" x="242.585938"/>
      <use xlink:href="#DejaVuSans-64" x="304.109375"/>
      <use xlink:href="#DejaVuSans-20" x="367.585938"/>
      <use xlink:href="#DejaVuSans-73" x="399.373047"/>
      <use xlink:href="#DejaVuSans-74" x="451.472656"/>
      <use xlink:href="#DejaVuSans-61" x="490.681641"/>
      <use xlink:href="#DejaVuSans-74" x="551.960938"/>
      <use xlink:href="#DejaVuSans-65" x="591.169922"/>
      <use xlink:href="#DejaVuSans-20" x="652.693359"/>
      <use xlink:href="#DejaVuSans-70" x="684.480469"/>
      <use xlink:href="#DejaVuSans-6f" x="747.957031"/>
      <use xlink:href="#DejaVuSans-70" x="809.138672"/>
      <use xlink:href="#DejaVuSans-75" x="872.615234"/>
      <use xlink:href="#DejaVuSans-6c" x="935.994141"/>
      <use xlink:href="#DejaVuSans-61" x="963.777344"/>
      <use xlink:href="#DejaVuSans-74" x="1025.056641"/>
      <use xlink:href="#DejaVuSans-69" x="1064.265625"/>
      <use xlink:href="#DejaVuSans-6f" x="1092.048828"/>
      <use xlink:href="#DejaVuSans-6e" x="1153.230469"/>
     </g>
    </g>
   </g>
   <g id="line2d_15">
    <path d="M 65.63 332.709 
L 66.002248 332.640609 
L 66.374496 332.435505 
L 67.118993 331.616098 
L 67.863489 330.254013 
L 68.607985 328.354626 
L 69.352482 325.925433 
L 70.469226 321.309791 
L 71.585971 315.565106 
L 72.702715 308.742368 
L 74.191708 298.074394 
L 75.6807 285.766825 
L 77.541941 268.374594 
L 79.77543 245.131063 
L 82.753416 211.480186 
L 89.081634 139.064302 
L 91.315123 116.204244 
L 93.176364 99.230771 
L 94.665357 87.315865 
L 96.15435 77.08515 
L 97.271094 70.615496 
L 98.387839 65.241979 
L 99.504583 61.012295 
L 100.249079 58.846937 
L 100.993576 57.215396 
L 101.738072 56.124112 
L 102.482568 55.577391 
L 102.854817 55.509 
L 103.227065 55.577391 
L 103.599313 55.782495 
L 104.343809 56.601902 
L 105.088306 57.963987 
L 105.832802 59.863374 
L 106.577298 62.292567 
L 107.694043 66.908209 
L 108.810787 72.652894 
L 109.927532 79.475632 
L 111.416524 90.143606 
L 112.905517 102.451175 
L 114.766758 119.843406 
L 117.000247 143.086937 
L 119.978232 176.737814 
L 126.306451 249.153698 
L 128.53994 272.013756 
L 130.401181 288.987229 
L 131.890173 300.902135 
L 133.379166 311.13285 
L 134.495911 317.602504 
L 135.612655 322.976021 
L 136.7294 327.205705 
L 137.473896 329.371063 
L 138.218392 331.002604 
L 138.962889 332.093888 
L 139.707385 332.640609 
L 140.079633 332.709 
L 140.451881 332.640609 
L 140.824129 332.435505 
L 141.568626 331.616098 
L 142.313122 330.254013 
L 143.057618 328.354626 
L 143.802115 325.925433 
L 144.174363 324.515075 
L 144.546611 332.709 
L 145.291107 332.640609 
L 145.663356 332.435505 
L 146.407852 331.616098 
L 147.152348 330.254013 
L 147.896845 328.354626 
L 148.641341 325.925433 
L 149.758085 321.309791 
L 150.87483 315.565106 
L 151.991574 308.742368 
L 153.480567 298.074394 
L 154.96956 285.766825 
L 156.830801 268.374594 
L 159.06429 245.131063 
L 162.042275 211.480186 
L 168.370494 139.064302 
L 170.603983 116.204244 
L 172.465223 99.230771 
L 173.954216 87.315865 
L 175.443209 77.08515 
L 176.559953 70.615496 
L 177.676698 65.241979 
L 178.793442 61.012295 
L 179.537939 58.846937 
L 180.282435 57.215396 
L 181.026931 56.124112 
L 181.771428 55.577391 
L 182.143676 55.509 
L 182.515924 55.577391 
L 182.888172 55.782495 
L 183.632668 56.601902 
L 184.377165 57.963987 
L 185.121661 59.863374 
L 185.866157 62.292567 
L 186.982902 66.908209 
L 188.099646 72.652894 
L 189.216391 79.475632 
L 190.705384 90.143606 
L 191.822128 99.230771 
L 192.194376 332.709 
L 192.938873 332.640609 
L 193.311121 332.435505 
L 194.055617 331.616098 
L 194.800113 330.254013 
L 195.54461 328.354626 
L 196.289106 325.925433 
L 197.405851 321.309791 
L 198.522595 315.565106 
L 199.63934 308.742368 
L 201.128332 298.074394 
L 202.617325 285.766825 
L 204.478566 268.374594 
L 206.712055 245.131063 
L 209.69004 211.480186 
L 216.018259 139.064302 
L 218.251748 116.204244 
L 220.112989 99.230771 
L 221.601981 87.315865 
L 223.090974 77.08515 
L 224.207718 70.615496 
L 225.324463 65.241979 
L 226.441207 61.012295 
L 227.185704 58.846937 
L 227.9302 57.215396 
L 228.674696 56.124112 
L 229.419193 55.577391 
L 229.791441 55.509 
L 230.163689 55.577391 
L 230.535937 55.782495 
L 231.280434 56.601902 
L 232.02493 57.963987 
L 232.769426 59.863374 
L 233.513923 62.292567 
L 234.630667 66.908209 
L 235.747412 72.652894 
L 236.864156 79.475632 
L 238.353149 90.143606 
L 239.842141 102.451175 
L 241.703382 119.843406 
L 243.936871 143.086937 
L 246.914857 176.737814 
L 253.243075 249.153698 
L 255.476564 272.013756 
L 257.337805 288.987229 
L 258.826798 300.902135 
L 260.315791 311.13285 
L 261.432535 317.602504 
L 262.54928 322.976021 
L 262.921528 324.515075 
L 263.293776 332.709 
L 264.038272 332.640609 
L 264.41052 332.435505 
L 265.155017 331.616098 
L 265.899513 330.254013 
L 266.644009 328.354626 
L 267.388506 325.925433 
L 268.50525 321.309791 
L 269.621995 315.565106 
L 270.738739 308.742368 
L 272.227732 298.074394 
L 273.716724 285.766825 
L 275.577965 268.374594 
L 277.811454 245.131063 
L 280.78944 211.480186 
L 287.117658 139.064302 
L 289.351147 116.204244 
L 291.212388 99.230771 
L 292.701381 87.315865 
L 294.190374 77.08515 
L 295.307118 70.615496 
L 296.423863 65.241979 
L 297.540607 61.012295 
L 298.285103 58.846937 
L 299.0296 57.215396 
L 299.774096 56.124112 
L 300.518592 55.577391 
L 300.890841 332.709 
L 301.635337 332.640609 
L 302.007585 332.435505 
L 302.752081 331.616098 
L 303.496578 330.254013 
L 304.241074 328.354626 
L 304.98557 325.925433 
L 306.102315 321.309791 
L 307.219059 315.565106 
L 308.335804 308.742368 
L 309.824797 298.074394 
L 311.313789 285.766825 
L 313.17503 268.374594 
L 315.408519 245.131063 
L 318.386504 211.480186 
L 324.714723 139.064302 
L 326.948212 116.204244 
L 328.809453 99.230771 
L 330.298446 87.315865 
L 331.787438 77.08515 
L 332.904183 70.615496 
L 334.020927 65.241979 
L 335.137672 61.012295 
L 335.882168 58.846937 
L 336.626664 57.215396 
L 337.371161 56.124112 
L 338.115657 55.577391 
L 338.487905 55.509 
L 338.860153 55.577391 
L 339.232402 55.782495 
L 339.976898 56.601902 
L 340.721394 57.963987 
L 341.465891 59.863374 
L 342.210387 62.292567 
L 343.327131 66.908209 
L 344.443876 72.652894 
L 345.56062 79.475632 
L 347.049613 90.143606 
L 348.538606 102.451175 
L 350.399847 119.843406 
L 352.633336 143.086937 
L 355.611321 176.737814 
L 361.93954 249.153698 
L 364.173029 272.013756 
L 366.03427 288.987229 
L 367.523262 300.902135 
L 369.012255 311.13285 
L 370.128999 317.602504 
L 371.245744 322.976021 
L 372.362488 327.205705 
L 373.106985 329.371063 
L 373.851481 331.002604 
L 374.595977 332.093888 
L 375.340474 332.640609 
L 375.712722 332.709 
L 376.08497 332.640609 
L 376.457218 332.435505 
L 377.201714 331.616098 
L 377.946211 330.254013 
L 378.690707 328.354626 
L 379.435203 325.925433 
L 380.551948 321.309791 
L 381.668692 315.565106 
L 382.785437 308.742368 
L 384.27443 298.074394 
L 385.763422 285.766825 
L 387.624663 268.374594 
L 389.858152 245.131063 
L 392.836137 211.480186 
L 399.164356 139.064302 
L 401.397845 116.204244 
L 403.259086 99.230771 
L 404.748079 87.315865 
L 406.237071 77.08515 
L 407.353816 70.615496 
L 408.47056 65.241979 
L 409.587305 61.012295 
L 410.331801 58.846937 
L 411.076298 57.215396 
L 411.820794 56.124112 
L 412.56529 55.577391 
L 412.937538 55.509 
L 413.309787 55.577391 
L 413.682035 55.782495 
L 414.426531 56.601902 
L 415.171027 57.963987 
L 415.915524 59.863374 
L 416.66002 62.292567 
L 417.776765 66.908209 
L 418.893509 72.652894 
L 420.010254 79.475632 
L 420.382502 81.979245 
L 420.75475 332.709 
L 421.499246 332.640609 
L 421.871494 332.435505 
L 422.615991 331.616098 
L 423.360487 330.254013 
L 424.104983 328.354626 
L 424.84948 325.925433 
L 425.966224 321.309791 
L 427.082969 315.565106 
L 428.199713 308.742368 
L 429.688706 298.074394 
L 431.177698 285.766825 
L 433.038939 268.374594 
L 435.272428 245.131063 
L 438.250414 211.480186 
L 444.578632 139.064302 
L 446.812121 116.204244 
L 448.673362 99.230771 
L 450.162355 87.315865 
L 451.651348 77.08515 
L 452.768092 70.615496 
L 453.884837 65.241979 
L 455.001581 61.012295 
L 455.746077 58.846937 
L 456.490574 57.215396 
L 457.23507 56.124112 
L 457.979566 55.577391 
L 458.351815 55.509 
L 458.724063 55.577391 
L 459.096311 55.782495 
L 459.840807 56.601902 
L 460.585304 57.963987 
L 461.3298 59.863374 
L 462.074296 62.292567 
L 463.191041 66.908209 
L 464.307785 72.652894 
L 465.42453 79.475632 
L 466.913522 90.143606 
L 468.402515 102.451175 
L 470.263756 119.843406 
L 472.497245 143.086937 
L 475.47523 176.737814 
L 481.803449 249.153698 
L 484.036938 272.013756 
L 485.898179 288.987229 
L 487.387171 300.902135 
L 488.876164 311.13285 
L 489.992909 317.602504 
L 491.109653 322.976021 
L 492.226398 327.205705 
L 492.970894 329.371063 
L 493.71539 331.002604 
L 494.459887 332.093888 
L 495.204383 332.640609 
L 495.576631 332.709 
L 495.948879 332.640609 
L 496.321127 332.435505 
L 497.065624 331.616098 
L 497.81012 330.254013 
L 498.554616 328.354626 
L 499.299113 325.925433 
L 500.415857 321.309791 
L 501.532602 315.565106 
L 502.649346 308.742368 
L 504.138339 298.074394 
L 505.627332 285.766825 
L 507.488572 268.374594 
L 509.722061 245.131063 
L 512.700047 211.480186 
L 519.028266 139.064302 
L 521.261755 116.204244 
L 523.122995 99.230771 
L 524.611988 87.315865 
L 526.100981 77.08515 
L 527.217725 70.615496 
L 528.33447 65.241979 
L 529.451214 61.012295 
L 530.19571 58.846937 
L 530.940207 57.215396 
L 531.684703 56.124112 
L 532.429199 55.577391 
L 532.801448 55.509 
L 533.173696 55.577391 
L 533.545944 55.782495 
L 534.29044 56.601902 
L 535.034937 57.963987 
L 535.779433 59.863374 
L 536.523929 62.292567 
L 537.640674 66.908209 
L 538.757418 72.652894 
L 539.874163 79.475632 
L 541.363155 90.143606 
L 542.852148 102.451175 
L 544.713389 119.843406 
L 546.946878 143.086937 
L 549.924863 176.737814 
L 556.253082 249.153698 
L 558.486571 272.013756 
L 560.347812 288.987229 
L 561.836805 300.902135 
L 563.325797 311.13285 
L 564.442542 317.602504 
L 565.559286 322.976021 
L 566.676031 327.205705 
L 567.420527 329.371063 
L 568.165023 331.002604 
L 568.90952 332.093888 
L 569.654016 332.640609 
L 570.026264 332.709 
L 570.398512 332.640609 
L 570.770761 332.435505 
L 571.515257 331.616098 
L 572.259753 330.254013 
L 573.004249 328.354626 
L 573.748746 325.925433 
L 574.86549 321.309791 
L 575.982235 315.565106 
L 577.098979 308.742368 
L 578.587972 298.074394 
L 580.076965 285.766825 
L 581.938205 268.374594 
L 584.171694 245.131063 
L 587.14968 211.480186 
L 593.477899 139.064302 
L 595.711388 116.204244 
L 597.572628 99.230771 
L 599.061621 87.315865 
L 600.550614 77.08515 
L 601.667358 70.615496 
L 602.784103 65.241979 
L 603.156351 63.702925 
L 603.528599 332.709 
L 604.273095 332.640609 
L 604.645344 332.435505 
L 605.38984 331.616098 
L 606.134336 330.254013 
L 606.878833 328.354626 
L 607.623329 325.925433 
L 608.740073 321.309791 
L 609.856818 315.565106 
L 610.973562 308.742368 
L 612.462555 298.074394 
L 613.951548 285.766825 
L 615.812789 268.374594 
L 618.046278 245.131063 
L 621.024263 211.480186 
L 623.63 181.065588 
L 623.63 181.065588 
" clip-path="url(#pa844fd0507)" style="fill: none; stroke: #1f77b4; stroke-width: 1.5; stroke-linecap: square"/>
   </g>
   <g id="line2d_16">
    <path d="M 144.430633 360.429 
L 144.430633 27.789 
" clip-path="url(#pa844fd0507)" style="fill: none; stroke-dasharray: 5.55,2.4; stroke-dashoffset: 0; stroke: #ff0000; stroke-width: 1.5"/>
   </g>
   <g id="line2d_17">
    <path d="M 192.126995 360.429 
L 192.126995 27.789 
" clip-path="url(#pa844fd0507)" style="fill: none; stroke-dasharray: 5.55,2.4; stroke-dashoffset: 0; stroke: #ff0000; stroke-width: 1.5"/>
   </g>
   <g id="line2d_18">
    <path d="M 263.25897 360.429 
L 263.25897 27.789 
" clip-path="url(#pa844fd0507)" style="fill: none; stroke-dasharray: 5.55,2.4; stroke-dashoffset: 0; stroke: #ff0000; stroke-width: 1.5"/>
   </g>
   <g id="line2d_19">
    <path d="M 300.661631 360.429 
L 300.661631 27.789 
" clip-path="url(#pa844fd0507)" style="fill: none; stroke-dasharray: 5.55,2.4; stroke-dashoffset: 0; stroke: #ff0000; stroke-width: 1.5"/>
   </g>
   <g id="line2d_20">
    <path d="M 420.512591 360.429 
L 420.512591 27.789 
" clip-path="url(#pa844fd0507)" style="fill: none; stroke-dasharray: 5.55,2.4; stroke-dashoffset: 0; stroke: #ff0000; stroke-width: 1.5"/>
   </g>
   <g id="line2d_21">
    <path d="M 603.286126 360.429 
L 603.286126 27.789 
" clip-path="url(#pa844fd0507)" style="fill: none; stroke-dasharray: 5.55,2.4; stroke-dashoffset: 0; stroke: #ff0000; stroke-width: 1.5"/>
   </g>
   <g id="patch_3">
    <path d="M 65.63 360.429 
L 65.63 27.789 
" style="fill: none; stroke: #000000; stroke-width: 2.5; stroke-linejoin: miter; stroke-linecap: square"/>
   </g>
   <g id="patch_4">
    <path d="M 623.63 360.429 
L 623.63 27.789 
" style="fill: none; stroke: #000000; stroke-width: 2.5; stroke-linejoin: miter; stroke-linecap: square"/>
   </g>
   <g id="patch_5">
    <path d="M 65.63 360.429 
L 623.63 360.429 
" style="fill: none; stroke: #000000; stroke-width: 2.5; stroke-linejoin: miter; stroke-linecap: square"/>
   </g>
   <g id="patch_6">
    <path d="M 65.63 27.789 
L 623.63 27.789 
" style="fill: none; stroke: #000000; stroke-width: 2.5; stroke-linejoin: miter; stroke-linecap: square"/>
   </g>
   <g id="text_17">
    <!-- Rabi Oscillations with Decay -->
    <g transform="translate(208.76 21.789) scale(0.192 -0.192)">
     <defs>
      <path id="DejaVuSans-52" d="M 2841 2188 
Q 3044 2119 3236 1894 
Q 3428 1669 3622 1275 
L 4263 0 
L 3584 0 
L 2988 1197 
Q 2756 1666 2539 1819 
Q 2322 1972 1947 1972 
L 1259 1972 
L 1259 0 
L 628 0 
L 628 4666 
L 2053 4666 
Q 2853 4666 3247 4331 
Q 3641 3997 3641 3322 
Q 3641 2881 3436 2590 
Q 3231 2300 2841 2188 
z
M 1259 4147 
L 1259 2491 
L 2053 2491 
Q 2509 2491 2742 2702 
Q 2975 2913 2975 3322 
Q 2975 3731 2742 3939 
Q 2509 4147 2053 4147 
L 1259 4147 
z
" transform="scale(0.015625)"/>
      <path id="DejaVuSans-62" d="M 3116 1747 
Q 3116 2381 2855 2742 
Q 2594 3103 2138 3103 
Q 1681 3103 1420 2742 
Q 1159 2381 1159 1747 
Q 1159 1113 1420 752 
Q 1681 391 2138 391 
Q 2594 391 2855 752 
Q 3116 1113 3116 1747 
z
M 1159 2969 
Q 1341 3281 1617 3432 
Q 1894 3584 2278 3584 
Q 2916 3584 3314 3078 
Q 3713 2572 3713 1747 
Q 3713 922 3314 415 
Q 2916 -91 2278 -91 
Q 1894 -91 1617 61 
Q 1341 213 1159 525 
L 1159 0 
L 581 0 
L 581 4863 
L 1159 4863 
L 1159 2969 
z
" transform="scale(0.015625)"/>
      <path id="DejaVuSans-4f" d="M 2522 4238 
Q 1834 4238 1429 3725 
Q 1025 3213 1025 2328 
Q 1025 1447 1429 934 
Q 1834 422 2522 422 
Q 3209 422 3611 934 
Q 4013 1447 4013 2328 
Q 4013 3213 3611 3725 
Q 3209 4238 2522 4238 
z
M 2522 4750 
Q 3503 4750 4090 4092 
Q 4678 3434 4678 2328 
Q 4678 1225 4090 567 
Q 3503 -91 2522 -91 
Q 1538 -91 948 565 
Q 359 1222 359 2328 
Q 359 3434 948 4092 
Q 1538 4750 2522 4750 
z
" transform="scale(0.015625)"/>
      <path id="DejaVuSans-77" d="M 269 3500 
L 844 3500 
L 1563 769 
L 2278 3500 
L 2956 3500 
L 3675 769 
L 4391 3500 
L 4966 3500 
L 4050 0 
L 3372 0 
L 2619 2869 
L 1863 0 
L 1184 0 
L 269 3500 
z
" transform="scale(0.015625)"/>
      <path id="DejaVuSans-68" d="M 3513 2113 
L 3513 0 
L 2938 0 
L 2938 2094 
Q 2938 2591 2744 2837 
Q 2550 3084 2163 3084 
Q 1697 3084 1428 2787 
Q 1159 2491 1159 1978 
L 1159 0 
L 581 0 
L 581 4863 
L 1159 4863 
L 1159 2956 
Q 1366 3272 1645 3428 
Q 1925 3584 2291 3584 
Q 2894 3584 3203 3211 
Q 3513 2838 3513 2113 
z
" transform="scale(0.015625)"/>
      <path id="DejaVuSans-44" d="M 1259 4147 
L 1259 519 
L 2022 519 
Q 2988 519 3436 956 
Q 3884 1394 3884 2338 
Q 3884 3275 3436 3711 
Q 2988 4147 2022 4147 
L 1259 4147 
z
M 628 4666 
L 1925 4666 
Q 3281 4666 3915 4102 
Q 4550 3538 4550 2338 
Q 4550 1131 3912 565 
Q 3275 0 1925 0 
L 628 0 
L 628 4666 
z
" transform="scale(0.015625)"/>
      <path id="DejaVuSans-79" d="M 2059 -325 
Q 1816 -950 1584 -1140 
Q 1353 -1331 966 -1331 
L 506 -1331 
L 506 -850 
L 844 -850 
Q 1081 -850 1212 -737 
Q 1344 -625 1503 -206 
L 1606 56 
L 191 3500 
L 800 3500 
L 1894 763 
L 2988 3500 
L 3597 3500 
L 2059 -325 
z
" transform="scale(0.015625)"/>
     </defs>
     <use xlink:href="#DejaVuSans-52"/>
     <use xlink:href="#DejaVuSans-61" x="67.232422"/>
     <use xlink:href="#DejaVuSans-62" x="128.511719"/>
     <use xlink:href="#DejaVuSans-69" x="191.988281"/>
     <use xlink:href="#DejaVuSans-20" x="219.771484"/>
     <use xlink:href="#DejaVuSans-4f" x="251.558594"/>
     <use xlink:href="#DejaVuSans-73" x="330.269531"/>
     <use xlink:href="#DejaVuSans-63" x="382.369141"/>
     <use xlink:href="#DejaVuSans-69" x="437.349609"/>
     <use xlink:href="#DejaVuSans-6c" x="465.132812"/>
     <use xlink:href="#DejaVuSans-6c" x="492.916016"/>
     <use xlink:href="#DejaVuSans-61" x="520.699219"/>
     <use xlink:href="#DejaVuSans-74" x="581.978516"/>
     <use xlink:href="#DejaVuSans-69" x="621.1875"/>
     <use xlink:href="#DejaVuSans-6f" x="648.970703"/>
     <use xlink:href="#DejaVuSans-6e" x="710.152344"/>
     <use xlink:href="#DejaVuSans-73" x="773.53125"/>
     <use xlink:href="#DejaVuSans-20" x="825.630859"/>
     <use xlink:href="#DejaVuSans-77" x="857.417969"/>
     <use xlink:href="#DejaVuSans-69" x="939.205078"/>
     <use xlink:href="#DejaVuSans-74" x="966.988281"/>
     <use xlink:href="#DejaVuSans-68" x="1006.197266"/>
     <use xlink:href="#DejaVuSans-20" x="1069.576172"/>
     <use xlink:href="#DejaVuSans-44" x="1101.363281"/>
     <use xlink:href="#DejaVuSans-65" x="1178.365234"/>
     <use xlink:href="#DejaVuSans-63" x="1239.888672"/>
     <use xlink:href="#DejaVuSans-61" x="1294.869141"/>
     <use xlink:href="#DejaVuSans-79" x="1356.148438"/>
    </g>
   </g>
  </g>
 </g>
 <defs>
  <clipPath id="pa844fd0507">
   <rect x="65.63" y="27.789" width="558" height="332.64"/>
  </clipPath>
 </defs>
</svg>
