<?xml version="1.0" encoding="utf-8" standalone="no"?>
<!DOCTYPE svg PUBLIC "-//W3C//DTD SVG 1.1//EN"
  "http://www.w3.org/Graphics/SVG/1.1/DTD/svg11.dtd">
<svg xmlns:xlink="http://www.w3.org/1999/xlink" width="584.39952pt" height="512.39952pt" viewBox="0 0 584.39952 512.39952" xmlns="http://www.w3.org/2000/svg" version="1.1">
 <metadata>
  <rdf:RDF xmlns:dc="http://purl.org/dc/elements/1.1/" xmlns:cc="http://creativecommons.org/ns#" xmlns:rdf="http://www.w3.org/1999/02/22-rdf-syntax-ns#">
   <cc:Work>
    <dc:type rdf:resource="http://purl.org/dc/dcmitype/StillImage"/>
    <dc:date>2024-08-06T22:30:11.572671</dc:date>
    <dc:format>image/svg+xml</dc:format>
    <dc:creator>
     <cc:Agent>
      <dc:title>Matplotlib v3.7.1, https://matplotlib.org/</dc:title>
     </cc:Agent>
    </dc:creator>
   </cc:Work>
  </rdf:RDF>
 </metadata>
 <defs>
  <style type="text/css">*{stroke-linejoin: round; stroke-linecap: butt}</style>
 </defs>
 <g id="figure_1">
  <g id="patch_1">
   <path d="M 0 512.39952 
L 584.39952 512.39952 
L 584.39952 0 
L 0 0 
z
" style="fill: #ffffff"/>
  </g>
  <g id="axes_1">
   <g id="patch_2">
    <path d="M 75.845 236.46876 
L 577.19952 236.46876 
L 577.19952 32.20848 
L 75.845 32.20848 
z
" style="fill: #ffffff"/>
   </g>
   <g id="PolyCollection_1">
    <path d="M 75.845 219.44707 
L 75.845 49.23017 
L 77.858472 49.23017 
L 79.871944 49.23017 
L 81.885416 49.23017 
L 83.898888 49.23017 
L 85.91236 49.23017 
L 87.925832 49.23017 
L 89.939304 49.23017 
L 91.952776 49.23017 
L 93.966248 49.23017 
L 95.97972 49.23017 
L 97.993192 49.23017 
L 100.006664 49.23017 
L 102.020136 49.23017 
L 104.033608 49.23017 
L 106.04708 49.23017 
L 108.060551 49.23017 
L 110.074023 49.23017 
L 112.087495 49.23017 
L 114.100967 49.23017 
L 116.114439 49.23017 
L 118.127911 49.23017 
L 120.141383 49.23017 
L 122.154855 49.23017 
L 124.168327 49.23017 
L 126.181799 49.23017 
L 128.195271 49.23017 
L 130.208743 49.23017 
L 132.222215 49.23017 
L 134.235687 49.23017 
L 136.249159 49.23017 
L 138.262631 49.23017 
L 140.276103 49.23017 
L 142.289575 49.23017 
L 144.303047 49.23017 
L 146.316519 49.23017 
L 148.329991 49.23017 
L 150.343463 49.23017 
L 152.356935 49.23017 
L 154.370407 49.23017 
L 156.383879 49.23017 
L 158.397351 49.23017 
L 160.410823 49.23017 
L 162.424295 49.23017 
L 164.437767 49.23017 
L 166.451239 49.23017 
L 168.464711 49.23017 
L 170.478182 49.23017 
L 172.491654 49.23017 
L 174.505126 49.23017 
L 176.518598 49.23017 
L 178.53207 49.23017 
L 180.545542 49.23017 
L 182.559014 49.23017 
L 184.572486 49.23017 
L 186.585958 49.23017 
L 188.59943 49.23017 
L 190.612902 49.23017 
L 192.626374 49.23017 
L 194.639846 49.23017 
L 196.653318 49.23017 
L 198.66679 49.23017 
L 200.680262 49.23017 
L 202.693734 49.23017 
L 204.707206 49.23017 
L 206.720678 219.44707 
L 208.73415 219.44707 
L 210.747622 219.44707 
L 212.761094 219.44707 
L 214.774566 219.44707 
L 216.788038 219.44707 
L 218.80151 219.44707 
L 220.814982 219.44707 
L 222.828454 219.44707 
L 224.841926 219.44707 
L 226.855398 219.44707 
L 228.86887 219.44707 
L 230.882342 219.44707 
L 232.895813 219.44707 
L 234.909285 219.44707 
L 236.922757 219.44707 
L 238.936229 219.44707 
L 240.949701 219.44707 
L 242.963173 219.44707 
L 244.976645 219.44707 
L 246.990117 219.44707 
L 249.003589 219.44707 
L 251.017061 219.44707 
L 253.030533 219.44707 
L 255.044005 219.44707 
L 257.057477 219.44707 
L 259.070949 219.44707 
L 261.084421 219.44707 
L 263.097893 219.44707 
L 265.111365 219.44707 
L 267.124837 219.44707 
L 269.138309 219.44707 
L 271.151781 219.44707 
L 273.165253 219.44707 
L 275.178725 219.44707 
L 277.192197 219.44707 
L 279.205669 219.44707 
L 281.219141 219.44707 
L 283.232613 219.44707 
L 285.246085 219.44707 
L 287.259557 219.44707 
L 289.273029 219.44707 
L 291.286501 219.44707 
L 293.299973 219.44707 
L 295.313444 219.44707 
L 297.326916 219.44707 
L 299.340388 219.44707 
L 301.35386 219.44707 
L 303.367332 219.44707 
L 305.380804 219.44707 
L 307.394276 219.44707 
L 309.407748 219.44707 
L 311.42122 219.44707 
L 313.434692 219.44707 
L 315.448164 219.44707 
L 317.461636 219.44707 
L 319.475108 219.44707 
L 321.48858 219.44707 
L 323.502052 219.44707 
L 325.515524 219.44707 
L 327.528996 219.44707 
L 329.542468 219.44707 
L 331.55594 219.44707 
L 333.569412 219.44707 
L 335.582884 219.44707 
L 337.596356 219.44707 
L 339.609828 219.44707 
L 341.6233 219.44707 
L 343.636772 219.44707 
L 345.650244 219.44707 
L 347.663716 219.44707 
L 349.677188 219.44707 
L 351.69066 219.44707 
L 353.704132 219.44707 
L 355.717604 219.44707 
L 357.731076 219.44707 
L 359.744547 219.44707 
L 361.758019 219.44707 
L 363.771491 219.44707 
L 365.784963 219.44707 
L 367.798435 219.44707 
L 369.811907 219.44707 
L 371.825379 219.44707 
L 373.838851 219.44707 
L 375.852323 219.44707 
L 377.865795 219.44707 
L 379.879267 219.44707 
L 381.892739 219.44707 
L 383.906211 219.44707 
L 385.919683 219.44707 
L 387.933155 219.44707 
L 389.946627 219.44707 
L 391.960099 219.44707 
L 393.973571 219.44707 
L 395.987043 219.44707 
L 398.000515 219.44707 
L 400.013987 219.44707 
L 402.027459 219.44707 
L 404.040931 219.44707 
L 406.054403 219.44707 
L 408.067875 219.44707 
L 410.081347 219.44707 
L 412.094819 219.44707 
L 414.108291 219.44707 
L 416.121763 219.44707 
L 418.135235 219.44707 
L 420.148707 219.44707 
L 422.162178 219.44707 
L 424.17565 219.44707 
L 426.189122 219.44707 
L 428.202594 219.44707 
L 430.216066 219.44707 
L 432.229538 219.44707 
L 434.24301 219.44707 
L 436.256482 219.44707 
L 438.269954 219.44707 
L 440.283426 219.44707 
L 442.296898 219.44707 
L 444.31037 219.44707 
L 446.323842 219.44707 
L 448.337314 219.44707 
L 450.350786 219.44707 
L 452.364258 219.44707 
L 454.37773 219.44707 
L 456.391202 219.44707 
L 458.404674 219.44707 
L 460.418146 219.44707 
L 462.431618 219.44707 
L 464.44509 219.44707 
L 466.458562 219.44707 
L 468.472034 219.44707 
L 470.485506 219.44707 
L 472.498978 219.44707 
L 474.51245 219.44707 
L 476.525922 219.44707 
L 478.539394 219.44707 
L 480.552866 219.44707 
L 482.566338 219.44707 
L 484.579809 219.44707 
L 486.593281 219.44707 
L 488.606753 219.44707 
L 490.620225 219.44707 
L 492.633697 219.44707 
L 494.647169 219.44707 
L 496.660641 219.44707 
L 498.674113 219.44707 
L 500.687585 219.44707 
L 502.701057 219.44707 
L 504.714529 219.44707 
L 506.728001 219.44707 
L 508.741473 219.44707 
L 510.754945 219.44707 
L 512.768417 219.44707 
L 514.781889 219.44707 
L 516.795361 219.44707 
L 518.808833 219.44707 
L 520.822305 219.44707 
L 522.835777 219.44707 
L 524.849249 219.44707 
L 526.862721 219.44707 
L 528.876193 219.44707 
L 530.889665 219.44707 
L 532.903137 219.44707 
L 534.916609 219.44707 
L 536.930081 219.44707 
L 538.943553 219.44707 
L 540.957025 219.44707 
L 542.970497 219.44707 
L 544.983969 219.44707 
L 546.99744 219.44707 
L 549.010912 219.44707 
L 551.024384 219.44707 
L 553.037856 219.44707 
L 555.051328 219.44707 
L 557.0648 219.44707 
L 559.078272 219.44707 
L 561.091744 219.44707 
L 563.105216 219.44707 
L 565.118688 219.44707 
L 567.13216 219.44707 
L 569.145632 219.44707 
L 571.159104 219.44707 
L 573.172576 219.44707 
L 575.186048 219.44707 
L 577.19952 219.44707 
L 577.19952 219.44707 
L 577.19952 219.44707 
L 575.186048 219.44707 
L 573.172576 219.44707 
L 571.159104 219.44707 
L 569.145632 219.44707 
L 567.13216 219.44707 
L 565.118688 219.44707 
L 563.105216 219.44707 
L 561.091744 219.44707 
L 559.078272 219.44707 
L 557.0648 219.44707 
L 555.051328 219.44707 
L 553.037856 219.44707 
L 551.024384 219.44707 
L 549.010912 219.44707 
L 546.99744 219.44707 
L 544.983969 219.44707 
L 542.970497 219.44707 
L 540.957025 219.44707 
L 538.943553 219.44707 
L 536.930081 219.44707 
L 534.916609 219.44707 
L 532.903137 219.44707 
L 530.889665 219.44707 
L 528.876193 219.44707 
L 526.862721 219.44707 
L 524.849249 219.44707 
L 522.835777 219.44707 
L 520.822305 219.44707 
L 518.808833 219.44707 
L 516.795361 219.44707 
L 514.781889 219.44707 
L 512.768417 219.44707 
L 510.754945 219.44707 
L 508.741473 219.44707 
L 506.728001 219.44707 
L 504.714529 219.44707 
L 502.701057 219.44707 
L 500.687585 219.44707 
L 498.674113 219.44707 
L 496.660641 219.44707 
L 494.647169 219.44707 
L 492.633697 219.44707 
L 490.620225 219.44707 
L 488.606753 219.44707 
L 486.593281 219.44707 
L 484.579809 219.44707 
L 482.566338 219.44707 
L 480.552866 219.44707 
L 478.539394 219.44707 
L 476.525922 219.44707 
L 474.51245 219.44707 
L 472.498978 219.44707 
L 470.485506 219.44707 
L 468.472034 219.44707 
L 466.458562 219.44707 
L 464.44509 219.44707 
L 462.431618 219.44707 
L 460.418146 219.44707 
L 458.404674 219.44707 
L 456.391202 219.44707 
L 454.37773 219.44707 
L 452.364258 219.44707 
L 450.350786 219.44707 
L 448.337314 219.44707 
L 446.323842 219.44707 
L 444.31037 219.44707 
L 442.296898 219.44707 
L 440.283426 219.44707 
L 438.269954 219.44707 
L 436.256482 219.44707 
L 434.24301 219.44707 
L 432.229538 219.44707 
L 430.216066 219.44707 
L 428.202594 219.44707 
L 426.189122 219.44707 
L 424.17565 219.44707 
L 422.162178 219.44707 
L 420.148707 219.44707 
L 418.135235 219.44707 
L 416.121763 219.44707 
L 414.108291 219.44707 
L 412.094819 219.44707 
L 410.081347 219.44707 
L 408.067875 219.44707 
L 406.054403 219.44707 
L 404.040931 219.44707 
L 402.027459 219.44707 
L 400.013987 219.44707 
L 398.000515 219.44707 
L 395.987043 219.44707 
L 393.973571 219.44707 
L 391.960099 219.44707 
L 389.946627 219.44707 
L 387.933155 219.44707 
L 385.919683 219.44707 
L 383.906211 219.44707 
L 381.892739 219.44707 
L 379.879267 219.44707 
L 377.865795 219.44707 
L 375.852323 219.44707 
L 373.838851 219.44707 
L 371.825379 219.44707 
L 369.811907 219.44707 
L 367.798435 219.44707 
L 365.784963 219.44707 
L 363.771491 219.44707 
L 361.758019 219.44707 
L 359.744547 219.44707 
L 357.731076 219.44707 
L 355.717604 219.44707 
L 353.704132 219.44707 
L 351.69066 219.44707 
L 349.677188 219.44707 
L 347.663716 219.44707 
L 345.650244 219.44707 
L 343.636772 219.44707 
L 341.6233 219.44707 
L 339.609828 219.44707 
L 337.596356 219.44707 
L 335.582884 219.44707 
L 333.569412 219.44707 
L 331.55594 219.44707 
L 329.542468 219.44707 
L 327.528996 219.44707 
L 325.515524 219.44707 
L 323.502052 219.44707 
L 321.48858 219.44707 
L 319.475108 219.44707 
L 317.461636 219.44707 
L 315.448164 219.44707 
L 313.434692 219.44707 
L 311.42122 219.44707 
L 309.407748 219.44707 
L 307.394276 219.44707 
L 305.380804 219.44707 
L 303.367332 219.44707 
L 301.35386 219.44707 
L 299.340388 219.44707 
L 297.326916 219.44707 
L 295.313444 219.44707 
L 293.299973 219.44707 
L 291.286501 219.44707 
L 289.273029 219.44707 
L 287.259557 219.44707 
L 285.246085 219.44707 
L 283.232613 219.44707 
L 281.219141 219.44707 
L 279.205669 219.44707 
L 277.192197 219.44707 
L 275.178725 219.44707 
L 273.165253 219.44707 
L 271.151781 219.44707 
L 269.138309 219.44707 
L 267.124837 219.44707 
L 265.111365 219.44707 
L 263.097893 219.44707 
L 261.084421 219.44707 
L 259.070949 219.44707 
L 257.057477 219.44707 
L 255.044005 219.44707 
L 253.030533 219.44707 
L 251.017061 219.44707 
L 249.003589 219.44707 
L 246.990117 219.44707 
L 244.976645 219.44707 
L 242.963173 219.44707 
L 240.949701 219.44707 
L 238.936229 219.44707 
L 236.922757 219.44707 
L 234.909285 219.44707 
L 232.895813 219.44707 
L 230.882342 219.44707 
L 228.86887 219.44707 
L 226.855398 219.44707 
L 224.841926 219.44707 
L 222.828454 219.44707 
L 220.814982 219.44707 
L 218.80151 219.44707 
L 216.788038 219.44707 
L 214.774566 219.44707 
L 212.761094 219.44707 
L 210.747622 219.44707 
L 208.73415 219.44707 
L 206.720678 219.44707 
L 204.707206 219.44707 
L 202.693734 219.44707 
L 200.680262 219.44707 
L 198.66679 219.44707 
L 196.653318 219.44707 
L 194.639846 219.44707 
L 192.626374 219.44707 
L 190.612902 219.44707 
L 188.59943 219.44707 
L 186.585958 219.44707 
L 184.572486 219.44707 
L 182.559014 219.44707 
L 180.545542 219.44707 
L 178.53207 219.44707 
L 176.518598 219.44707 
L 174.505126 219.44707 
L 172.491654 219.44707 
L 170.478182 219.44707 
L 168.464711 219.44707 
L 166.451239 219.44707 
L 164.437767 219.44707 
L 162.424295 219.44707 
L 160.410823 219.44707 
L 158.397351 219.44707 
L 156.383879 219.44707 
L 154.370407 219.44707 
L 152.356935 219.44707 
L 150.343463 219.44707 
L 148.329991 219.44707 
L 146.316519 219.44707 
L 144.303047 219.44707 
L 142.289575 219.44707 
L 140.276103 219.44707 
L 138.262631 219.44707 
L 136.249159 219.44707 
L 134.235687 219.44707 
L 132.222215 219.44707 
L 130.208743 219.44707 
L 128.195271 219.44707 
L 126.181799 219.44707 
L 124.168327 219.44707 
L 122.154855 219.44707 
L 120.141383 219.44707 
L 118.127911 219.44707 
L 116.114439 219.44707 
L 114.100967 219.44707 
L 112.087495 219.44707 
L 110.074023 219.44707 
L 108.060551 219.44707 
L 106.04708 219.44707 
L 104.033608 219.44707 
L 102.020136 219.44707 
L 100.006664 219.44707 
L 97.993192 219.44707 
L 95.97972 219.44707 
L 93.966248 219.44707 
L 91.952776 219.44707 
L 89.939304 219.44707 
L 87.925832 219.44707 
L 85.91236 219.44707 
L 83.898888 219.44707 
L 81.885416 219.44707 
L 79.871944 219.44707 
L 77.858472 219.44707 
L 75.845 219.44707 
z
" clip-path="url(#p32d648f47c)" style="fill: #1f77b4; fill-opacity: 0.25"/>
   </g>
   <g id="matplotlib.axis_1">
    <g id="xtick_1">
     <g id="line2d_1">
      <path d="M 75.845 236.46876 
L 75.845 32.20848 
" clip-path="url(#p32d648f47c)" style="fill: none; stroke: #b0b0b0; stroke-width: 0.8; stroke-linecap: square"/>
     </g>
     <g id="line2d_2">
      <defs>
       <path id="m3462566dc5" d="M 0 0 
L 0 10 
" style="stroke: #000000; stroke-width: 2.5"/>
      </defs>
      <g>
       <use xlink:href="#m3462566dc5" x="75.845" y="236.46876" style="stroke: #000000; stroke-width: 2.5"/>
      </g>
     </g>
    </g>
    <g id="xtick_2">
     <g id="line2d_3">
      <path d="M 142.339208 236.46876 
L 142.339208 32.20848 
" clip-path="url(#p32d648f47c)" style="fill: none; stroke: #b0b0b0; stroke-width: 0.8; stroke-linecap: square"/>
     </g>
     <g id="line2d_4">
      <g>
       <use xlink:href="#m3462566dc5" x="142.339208" y="236.46876" style="stroke: #000000; stroke-width: 2.5"/>
      </g>
     </g>
    </g>
    <g id="xtick_3">
     <g id="line2d_5">
      <path d="M 208.833417 236.46876 
L 208.833417 32.20848 
" clip-path="url(#p32d648f47c)" style="fill: none; stroke: #b0b0b0; stroke-width: 0.8; stroke-linecap: square"/>
     </g>
     <g id="line2d_6">
      <g>
       <use xlink:href="#m3462566dc5" x="208.833417" y="236.46876" style="stroke: #000000; stroke-width: 2.5"/>
      </g>
     </g>
    </g>
    <g id="xtick_4">
     <g id="line2d_7">
      <path d="M 275.327625 236.46876 
L 275.327625 32.20848 
" clip-path="url(#p32d648f47c)" style="fill: none; stroke: #b0b0b0; stroke-width: 0.8; stroke-linecap: square"/>
     </g>
     <g id="line2d_8">
      <g>
       <use xlink:href="#m3462566dc5" x="275.327625" y="236.46876" style="stroke: #000000; stroke-width: 2.5"/>
      </g>
     </g>
    </g>
    <g id="xtick_5">
     <g id="line2d_9">
      <path d="M 341.821834 236.46876 
L 341.821834 32.20848 
" clip-path="url(#p32d648f47c)" style="fill: none; stroke: #b0b0b0; stroke-width: 0.8; stroke-linecap: square"/>
     </g>
     <g id="line2d_10">
      <g>
       <use xlink:href="#m3462566dc5" x="341.821834" y="236.46876" style="stroke: #000000; stroke-width: 2.5"/>
      </g>
     </g>
    </g>
    <g id="xtick_6">
     <g id="line2d_11">
      <path d="M 408.316042 236.46876 
L 408.316042 32.20848 
" clip-path="url(#p32d648f47c)" style="fill: none; stroke: #b0b0b0; stroke-width: 0.8; stroke-linecap: square"/>
     </g>
     <g id="line2d_12">
      <g>
       <use xlink:href="#m3462566dc5" x="408.316042" y="236.46876" style="stroke: #000000; stroke-width: 2.5"/>
      </g>
     </g>
    </g>
    <g id="xtick_7">
     <g id="line2d_13">
      <path d="M 474.81025 236.46876 
L 474.81025 32.20848 
" clip-path="url(#p32d648f47c)" style="fill: none; stroke: #b0b0b0; stroke-width: 0.8; stroke-linecap: square"/>
     </g>
     <g id="line2d_14">
      <g>
       <use xlink:href="#m3462566dc5" x="474.81025" y="236.46876" style="stroke: #000000; stroke-width: 2.5"/>
      </g>
     </g>
    </g>
    <g id="xtick_8">
     <g id="line2d_15">
      <path d="M 541.304459 236.46876 
L 541.304459 32.20848 
" clip-path="url(#p32d648f47c)" style="fill: none; stroke: #b0b0b0; stroke-width: 0.8; stroke-linecap: square"/>
     </g>
     <g id="line2d_16">
      <g>
       <use xlink:href="#m3462566dc5" x="541.304459" y="236.46876" style="stroke: #000000; stroke-width: 2.5"/>
      </g>
     </g>
    </g>
   </g>
   <g id="matplotlib.axis_2">
    <g id="ytick_1">
     <g id="line2d_17">
      <path d="M 75.845 219.44707 
L 577.19952 219.44707 
" clip-path="url(#p32d648f47c)" style="fill: none; stroke: #b0b0b0; stroke-width: 0.8; stroke-linecap: square"/>
     </g>
     <g id="line2d_18">
      <defs>
       <path id="mfc14a65c82" d="M 0 0 
L -10 0 
" style="stroke: #000000; stroke-width: 2.5"/>
      </defs>
      <g>
       <use xlink:href="#mfc14a65c82" x="75.845" y="219.44707" style="stroke: #000000; stroke-width: 2.5"/>
      </g>
     </g>
     <g id="text_1">
      <!-- 0.00 -->
      <g transform="translate(26.72 225.52582) scale(0.16 -0.16)">
       <defs>
        <path id="DejaVuSans-30" d="M 2034 4250 
Q 1547 4250 1301 3770 
Q 1056 3291 1056 2328 
Q 1056 1369 1301 889 
Q 1547 409 2034 409 
Q 2525 409 2770 889 
Q 3016 1369 3016 2328 
Q 3016 3291 2770 3770 
Q 2525 4250 2034 4250 
z
M 2034 4750 
Q 2819 4750 3233 4129 
Q 3647 3509 3647 2328 
Q 3647 1150 3233 529 
Q 2819 -91 2034 -91 
Q 1250 -91 836 529 
Q 422 1150 422 2328 
Q 422 3509 836 4129 
Q 1250 4750 2034 4750 
z
" transform="scale(0.015625)"/>
        <path id="DejaVuSans-2e" d="M 684 794 
L 1344 794 
L 1344 0 
L 684 0 
L 684 794 
z
" transform="scale(0.015625)"/>
       </defs>
       <use xlink:href="#DejaVuSans-30"/>
       <use xlink:href="#DejaVuSans-2e" x="63.623047"/>
       <use xlink:href="#DejaVuSans-30" x="95.410156"/>
       <use xlink:href="#DejaVuSans-30" x="159.033203"/>
      </g>
     </g>
    </g>
    <g id="ytick_2">
     <g id="line2d_19">
      <path d="M 75.845 176.892845 
L 577.19952 176.892845 
" clip-path="url(#p32d648f47c)" style="fill: none; stroke: #b0b0b0; stroke-width: 0.8; stroke-linecap: square"/>
     </g>
     <g id="line2d_20">
      <g>
       <use xlink:href="#mfc14a65c82" x="75.845" y="176.892845" style="stroke: #000000; stroke-width: 2.5"/>
      </g>
     </g>
     <g id="text_2">
      <!-- 0.25 -->
      <g transform="translate(26.72 182.971595) scale(0.16 -0.16)">
       <defs>
        <path id="DejaVuSans-32" d="M 1228 531 
L 3431 531 
L 3431 0 
L 469 0 
L 469 531 
Q 828 903 1448 1529 
Q 2069 2156 2228 2338 
Q 2531 2678 2651 2914 
Q 2772 3150 2772 3378 
Q 2772 3750 2511 3984 
Q 2250 4219 1831 4219 
Q 1534 4219 1204 4116 
Q 875 4013 500 3803 
L 500 4441 
Q 881 4594 1212 4672 
Q 1544 4750 1819 4750 
Q 2544 4750 2975 4387 
Q 3406 4025 3406 3419 
Q 3406 3131 3298 2873 
Q 3191 2616 2906 2266 
Q 2828 2175 2409 1742 
Q 1991 1309 1228 531 
z
" transform="scale(0.015625)"/>
        <path id="DejaVuSans-35" d="M 691 4666 
L 3169 4666 
L 3169 4134 
L 1269 4134 
L 1269 2991 
Q 1406 3038 1543 3061 
Q 1681 3084 1819 3084 
Q 2600 3084 3056 2656 
Q 3513 2228 3513 1497 
Q 3513 744 3044 326 
Q 2575 -91 1722 -91 
Q 1428 -91 1123 -41 
Q 819 9 494 109 
L 494 744 
Q 775 591 1075 516 
Q 1375 441 1709 441 
Q 2250 441 2565 725 
Q 2881 1009 2881 1497 
Q 2881 1984 2565 2268 
Q 2250 2553 1709 2553 
Q 1456 2553 1204 2497 
Q 953 2441 691 2322 
L 691 4666 
z
" transform="scale(0.015625)"/>
       </defs>
       <use xlink:href="#DejaVuSans-30"/>
       <use xlink:href="#DejaVuSans-2e" x="63.623047"/>
       <use xlink:href="#DejaVuSans-32" x="95.410156"/>
       <use xlink:href="#DejaVuSans-35" x="159.033203"/>
      </g>
     </g>
    </g>
    <g id="ytick_3">
     <g id="line2d_21">
      <path d="M 75.845 134.33862 
L 577.19952 134.33862 
" clip-path="url(#p32d648f47c)" style="fill: none; stroke: #b0b0b0; stroke-width: 0.8; stroke-linecap: square"/>
     </g>
     <g id="line2d_22">
      <g>
       <use xlink:href="#mfc14a65c82" x="75.845" y="134.33862" style="stroke: #000000; stroke-width: 2.5"/>
      </g>
     </g>
     <g id="text_3">
      <!-- 0.50 -->
      <g transform="translate(26.72 140.41737) scale(0.16 -0.16)">
       <use xlink:href="#DejaVuSans-30"/>
       <use xlink:href="#DejaVuSans-2e" x="63.623047"/>
       <use xlink:href="#DejaVuSans-35" x="95.410156"/>
       <use xlink:href="#DejaVuSans-30" x="159.033203"/>
      </g>
     </g>
    </g>
    <g id="ytick_4">
     <g id="line2d_23">
      <path d="M 75.845 91.784395 
L 577.19952 91.784395 
" clip-path="url(#p32d648f47c)" style="fill: none; stroke: #b0b0b0; stroke-width: 0.8; stroke-linecap: square"/>
     </g>
     <g id="line2d_24">
      <g>
       <use xlink:href="#mfc14a65c82" x="75.845" y="91.784395" style="stroke: #000000; stroke-width: 2.5"/>
      </g>
     </g>
     <g id="text_4">
      <!-- 0.75 -->
      <g transform="translate(26.72 97.863145) scale(0.16 -0.16)">
       <defs>
        <path id="DejaVuSans-37" d="M 525 4666 
L 3525 4666 
L 3525 4397 
L 1831 0 
L 1172 0 
L 2766 4134 
L 525 4134 
L 525 4666 
z
" transform="scale(0.015625)"/>
       </defs>
       <use xlink:href="#DejaVuSans-30"/>
       <use xlink:href="#DejaVuSans-2e" x="63.623047"/>
       <use xlink:href="#DejaVuSans-37" x="95.410156"/>
       <use xlink:href="#DejaVuSans-35" x="159.033203"/>
      </g>
     </g>
    </g>
    <g id="ytick_5">
     <g id="line2d_25">
      <path d="M 75.845 49.23017 
L 577.19952 49.23017 
" clip-path="url(#p32d648f47c)" style="fill: none; stroke: #b0b0b0; stroke-width: 0.8; stroke-linecap: square"/>
     </g>
     <g id="line2d_26">
      <g>
       <use xlink:href="#mfc14a65c82" x="75.845" y="49.23017" style="stroke: #000000; stroke-width: 2.5"/>
      </g>
     </g>
     <g id="text_5">
      <!-- 1.00 -->
      <g transform="translate(26.72 55.30892) scale(0.16 -0.16)">
       <defs>
        <path id="DejaVuSans-31" d="M 794 531 
L 1825 531 
L 1825 4091 
L 703 3866 
L 703 4441 
L 1819 4666 
L 2450 4666 
L 2450 531 
L 3481 531 
L 3481 0 
L 794 0 
L 794 531 
z
" transform="scale(0.015625)"/>
       </defs>
       <use xlink:href="#DejaVuSans-31"/>
       <use xlink:href="#DejaVuSans-2e" x="63.623047"/>
       <use xlink:href="#DejaVuSans-30" x="95.410156"/>
       <use xlink:href="#DejaVuSans-30" x="159.033203"/>
      </g>
     </g>
    </g>
    <g id="text_6">
     <!-- Coupling [$\Omega$] -->
     <g transform="translate(19.36 184.49862) rotate(-90) scale(0.16 -0.16)">
      <defs>
       <path id="DejaVuSans-43" d="M 4122 4306 
L 4122 3641 
Q 3803 3938 3442 4084 
Q 3081 4231 2675 4231 
Q 1875 4231 1450 3742 
Q 1025 3253 1025 2328 
Q 1025 1406 1450 917 
Q 1875 428 2675 428 
Q 3081 428 3442 575 
Q 3803 722 4122 1019 
L 4122 359 
Q 3791 134 3420 21 
Q 3050 -91 2638 -91 
Q 1578 -91 968 557 
Q 359 1206 359 2328 
Q 359 3453 968 4101 
Q 1578 4750 2638 4750 
Q 3056 4750 3426 4639 
Q 3797 4528 4122 4306 
z
" transform="scale(0.015625)"/>
       <path id="DejaVuSans-6f" d="M 1959 3097 
Q 1497 3097 1228 2736 
Q 959 2375 959 1747 
Q 959 1119 1226 758 
Q 1494 397 1959 397 
Q 2419 397 2687 759 
Q 2956 1122 2956 1747 
Q 2956 2369 2687 2733 
Q 2419 3097 1959 3097 
z
M 1959 3584 
Q 2709 3584 3137 3096 
Q 3566 2609 3566 1747 
Q 3566 888 3137 398 
Q 2709 -91 1959 -91 
Q 1206 -91 779 398 
Q 353 888 353 1747 
Q 353 2609 779 3096 
Q 1206 3584 1959 3584 
z
" transform="scale(0.015625)"/>
       <path id="DejaVuSans-75" d="M 544 1381 
L 544 3500 
L 1119 3500 
L 1119 1403 
Q 1119 906 1312 657 
Q 1506 409 1894 409 
Q 2359 409 2629 706 
Q 2900 1003 2900 1516 
L 2900 3500 
L 3475 3500 
L 3475 0 
L 2900 0 
L 2900 538 
Q 2691 219 2414 64 
Q 2138 -91 1772 -91 
Q 1169 -91 856 284 
Q 544 659 544 1381 
z
M 1991 3584 
L 1991 3584 
z
" transform="scale(0.015625)"/>
       <path id="DejaVuSans-70" d="M 1159 525 
L 1159 -1331 
L 581 -1331 
L 581 3500 
L 1159 3500 
L 1159 2969 
Q 1341 3281 1617 3432 
Q 1894 3584 2278 3584 
Q 2916 3584 3314 3078 
Q 3713 2572 3713 1747 
Q 3713 922 3314 415 
Q 2916 -91 2278 -91 
Q 1894 -91 1617 61 
Q 1341 213 1159 525 
z
M 3116 1747 
Q 3116 2381 2855 2742 
Q 2594 3103 2138 3103 
Q 1681 3103 1420 2742 
Q 1159 2381 1159 1747 
Q 1159 1113 1420 752 
Q 1681 391 2138 391 
Q 2594 391 2855 752 
Q 3116 1113 3116 1747 
z
" transform="scale(0.015625)"/>
       <path id="DejaVuSans-6c" d="M 603 4863 
L 1178 4863 
L 1178 0 
L 603 0 
L 603 4863 
z
" transform="scale(0.015625)"/>
       <path id="DejaVuSans-69" d="M 603 3500 
L 1178 3500 
L 1178 0 
L 603 0 
L 603 3500 
z
M 603 4863 
L 1178 4863 
L 1178 4134 
L 603 4134 
L 603 4863 
z
" transform="scale(0.015625)"/>
       <path id="DejaVuSans-6e" d="M 3513 2113 
L 3513 0 
L 2938 0 
L 2938 2094 
Q 2938 2591 2744 2837 
Q 2550 3084 2163 3084 
Q 1697 3084 1428 2787 
Q 1159 2491 1159 1978 
L 1159 0 
L 581 0 
L 581 3500 
L 1159 3500 
L 1159 2956 
Q 1366 3272 1645 3428 
Q 1925 3584 2291 3584 
Q 2894 3584 3203 3211 
Q 3513 2838 3513 2113 
z
" transform="scale(0.015625)"/>
       <path id="DejaVuSans-67" d="M 2906 1791 
Q 2906 2416 2648 2759 
Q 2391 3103 1925 3103 
Q 1463 3103 1205 2759 
Q 947 2416 947 1791 
Q 947 1169 1205 825 
Q 1463 481 1925 481 
Q 2391 481 2648 825 
Q 2906 1169 2906 1791 
z
M 3481 434 
Q 3481 -459 3084 -895 
Q 2688 -1331 1869 -1331 
Q 1566 -1331 1297 -1286 
Q 1028 -1241 775 -1147 
L 775 -588 
Q 1028 -725 1275 -790 
Q 1522 -856 1778 -856 
Q 2344 -856 2625 -561 
Q 2906 -266 2906 331 
L 2906 616 
Q 2728 306 2450 153 
Q 2172 0 1784 0 
Q 1141 0 747 490 
Q 353 981 353 1791 
Q 353 2603 747 3093 
Q 1141 3584 1784 3584 
Q 2172 3584 2450 3431 
Q 2728 3278 2906 2969 
L 2906 3500 
L 3481 3500 
L 3481 434 
z
" transform="scale(0.015625)"/>
       <path id="DejaVuSans-20" transform="scale(0.015625)"/>
       <path id="DejaVuSans-5b" d="M 550 4863 
L 1875 4863 
L 1875 4416 
L 1125 4416 
L 1125 -397 
L 1875 -397 
L 1875 -844 
L 550 -844 
L 550 4863 
z
" transform="scale(0.015625)"/>
       <path id="DejaVuSans-3a9" d="M 4647 556 
L 4647 0 
L 2772 0 
L 2772 556 
Q 3325 859 3634 1378 
Q 3944 1897 3944 2528 
Q 3944 3278 3531 3731 
Q 3119 4184 2444 4184 
Q 1769 4184 1355 3729 
Q 941 3275 941 2528 
Q 941 1897 1250 1378 
Q 1563 859 2119 556 
L 2119 0 
L 244 0 
L 244 556 
L 1241 556 
Q 747 991 519 1456 
Q 294 1922 294 2497 
Q 294 3491 894 4106 
Q 1491 4722 2444 4722 
Q 3391 4722 3994 4106 
Q 4594 3494 4594 2528 
Q 4594 1922 4372 1459 
Q 4150 997 3647 556 
L 4647 556 
z
" transform="scale(0.015625)"/>
       <path id="DejaVuSans-5d" d="M 1947 4863 
L 1947 -844 
L 622 -844 
L 622 -397 
L 1369 -397 
L 1369 4416 
L 622 4416 
L 622 4863 
L 1947 4863 
z
" transform="scale(0.015625)"/>
      </defs>
      <use xlink:href="#DejaVuSans-43" transform="translate(0 0.015625)"/>
      <use xlink:href="#DejaVuSans-6f" transform="translate(69.824219 0.015625)"/>
      <use xlink:href="#DejaVuSans-75" transform="translate(131.005859 0.015625)"/>
      <use xlink:href="#DejaVuSans-70" transform="translate(194.384766 0.015625)"/>
      <use xlink:href="#DejaVuSans-6c" transform="translate(257.861328 0.015625)"/>
      <use xlink:href="#DejaVuSans-69" transform="translate(285.644531 0.015625)"/>
      <use xlink:href="#DejaVuSans-6e" transform="translate(313.427734 0.015625)"/>
      <use xlink:href="#DejaVuSans-67" transform="translate(376.806641 0.015625)"/>
      <use xlink:href="#DejaVuSans-20" transform="translate(440.283203 0.015625)"/>
      <use xlink:href="#DejaVuSans-5b" transform="translate(472.070312 0.015625)"/>
      <use xlink:href="#DejaVuSans-3a9" transform="translate(511.083984 0.015625)"/>
      <use xlink:href="#DejaVuSans-5d" transform="translate(587.5 0.015625)"/>
     </g>
    </g>
   </g>
   <g id="line2d_27">
    <path d="M 75.845 49.23017 
L 204.707206 49.23017 
L 206.720678 219.44707 
L 577.19952 219.44707 
L 577.19952 219.44707 
" clip-path="url(#p32d648f47c)" style="fill: none; stroke: #1f77b4; stroke-width: 2.5; stroke-linecap: square"/>
   </g>
   <g id="patch_3">
    <path d="M 75.845 236.46876 
L 75.845 32.20848 
" style="fill: none; stroke: #000000; stroke-width: 2.5; stroke-linejoin: miter; stroke-linecap: square"/>
   </g>
   <g id="patch_4">
    <path d="M 577.19952 236.46876 
L 577.19952 32.20848 
" style="fill: none; stroke: #000000; stroke-width: 2.5; stroke-linejoin: miter; stroke-linecap: square"/>
   </g>
   <g id="patch_5">
    <path d="M 75.845 236.46876 
L 577.19952 236.46876 
" style="fill: none; stroke: #000000; stroke-width: 2.5; stroke-linejoin: miter; stroke-linecap: square"/>
   </g>
   <g id="patch_6">
    <path d="M 75.845 32.20848 
L 577.19952 32.20848 
" style="fill: none; stroke: #000000; stroke-width: 2.5; stroke-linejoin: miter; stroke-linecap: square"/>
   </g>
  </g>
  <g id="axes_2">
   <g id="patch_7">
    <path d="M 75.845 456.72952 
L 577.19952 456.72952 
L 577.19952 252.46924 
L 75.845 252.46924 
z
" style="fill: #ffffff"/>
   </g>
   <g id="matplotlib.axis_3">
    <g id="xtick_9">
     <g id="line2d_28">
      <path d="M 75.845 456.72952 
L 75.845 252.46924 
" clip-path="url(#p06de70b183)" style="fill: none; stroke: #b0b0b0; stroke-width: 0.8; stroke-linecap: square"/>
     </g>
     <g id="line2d_29">
      <g>
       <use xlink:href="#m3462566dc5" x="75.845" y="456.72952" style="stroke: #000000; stroke-width: 2.5"/>
      </g>
     </g>
     <g id="text_7">
      <!-- 0.0 -->
      <g transform="translate(63.1225 482.38702) scale(0.16 -0.16)">
       <use xlink:href="#DejaVuSans-30"/>
       <use xlink:href="#DejaVuSans-2e" x="63.623047"/>
       <use xlink:href="#DejaVuSans-30" x="95.410156"/>
      </g>
     </g>
    </g>
    <g id="xtick_10">
     <g id="line2d_30">
      <path d="M 142.339208 456.72952 
L 142.339208 252.46924 
" clip-path="url(#p06de70b183)" style="fill: none; stroke: #b0b0b0; stroke-width: 0.8; stroke-linecap: square"/>
     </g>
     <g id="line2d_31">
      <g>
       <use xlink:href="#m3462566dc5" x="142.339208" y="456.72952" style="stroke: #000000; stroke-width: 2.5"/>
      </g>
     </g>
     <g id="text_8">
      <!-- 2.5 -->
      <g transform="translate(129.616708 482.38702) scale(0.16 -0.16)">
       <use xlink:href="#DejaVuSans-32"/>
       <use xlink:href="#DejaVuSans-2e" x="63.623047"/>
       <use xlink:href="#DejaVuSans-35" x="95.410156"/>
      </g>
     </g>
    </g>
    <g id="xtick_11">
     <g id="line2d_32">
      <path d="M 208.833417 456.72952 
L 208.833417 252.46924 
" clip-path="url(#p06de70b183)" style="fill: none; stroke: #b0b0b0; stroke-width: 0.8; stroke-linecap: square"/>
     </g>
     <g id="line2d_33">
      <g>
       <use xlink:href="#m3462566dc5" x="208.833417" y="456.72952" style="stroke: #000000; stroke-width: 2.5"/>
      </g>
     </g>
     <g id="text_9">
      <!-- 5.0 -->
      <g transform="translate(196.110917 482.38702) scale(0.16 -0.16)">
       <use xlink:href="#DejaVuSans-35"/>
       <use xlink:href="#DejaVuSans-2e" x="63.623047"/>
       <use xlink:href="#DejaVuSans-30" x="95.410156"/>
      </g>
     </g>
    </g>
    <g id="xtick_12">
     <g id="line2d_34">
      <path d="M 275.327625 456.72952 
L 275.327625 252.46924 
" clip-path="url(#p06de70b183)" style="fill: none; stroke: #b0b0b0; stroke-width: 0.8; stroke-linecap: square"/>
     </g>
     <g id="line2d_35">
      <g>
       <use xlink:href="#m3462566dc5" x="275.327625" y="456.72952" style="stroke: #000000; stroke-width: 2.5"/>
      </g>
     </g>
     <g id="text_10">
      <!-- 7.5 -->
      <g transform="translate(262.605125 482.38702) scale(0.16 -0.16)">
       <use xlink:href="#DejaVuSans-37"/>
       <use xlink:href="#DejaVuSans-2e" x="63.623047"/>
       <use xlink:href="#DejaVuSans-35" x="95.410156"/>
      </g>
     </g>
    </g>
    <g id="xtick_13">
     <g id="line2d_36">
      <path d="M 341.821834 456.72952 
L 341.821834 252.46924 
" clip-path="url(#p06de70b183)" style="fill: none; stroke: #b0b0b0; stroke-width: 0.8; stroke-linecap: square"/>
     </g>
     <g id="line2d_37">
      <g>
       <use xlink:href="#m3462566dc5" x="341.821834" y="456.72952" style="stroke: #000000; stroke-width: 2.5"/>
      </g>
     </g>
     <g id="text_11">
      <!-- 10.0 -->
      <g transform="translate(324.009334 482.38702) scale(0.16 -0.16)">
       <use xlink:href="#DejaVuSans-31"/>
       <use xlink:href="#DejaVuSans-30" x="63.623047"/>
       <use xlink:href="#DejaVuSans-2e" x="127.246094"/>
       <use xlink:href="#DejaVuSans-30" x="159.033203"/>
      </g>
     </g>
    </g>
    <g id="xtick_14">
     <g id="line2d_38">
      <path d="M 408.316042 456.72952 
L 408.316042 252.46924 
" clip-path="url(#p06de70b183)" style="fill: none; stroke: #b0b0b0; stroke-width: 0.8; stroke-linecap: square"/>
     </g>
     <g id="line2d_39">
      <g>
       <use xlink:href="#m3462566dc5" x="408.316042" y="456.72952" style="stroke: #000000; stroke-width: 2.5"/>
      </g>
     </g>
     <g id="text_12">
      <!-- 12.5 -->
      <g transform="translate(390.503542 482.38702) scale(0.16 -0.16)">
       <use xlink:href="#DejaVuSans-31"/>
       <use xlink:href="#DejaVuSans-32" x="63.623047"/>
       <use xlink:href="#DejaVuSans-2e" x="127.246094"/>
       <use xlink:href="#DejaVuSans-35" x="159.033203"/>
      </g>
     </g>
    </g>
    <g id="xtick_15">
     <g id="line2d_40">
      <path d="M 474.81025 456.72952 
L 474.81025 252.46924 
" clip-path="url(#p06de70b183)" style="fill: none; stroke: #b0b0b0; stroke-width: 0.8; stroke-linecap: square"/>
     </g>
     <g id="line2d_41">
      <g>
       <use xlink:href="#m3462566dc5" x="474.81025" y="456.72952" style="stroke: #000000; stroke-width: 2.5"/>
      </g>
     </g>
     <g id="text_13">
      <!-- 15.0 -->
      <g transform="translate(456.99775 482.38702) scale(0.16 -0.16)">
       <use xlink:href="#DejaVuSans-31"/>
       <use xlink:href="#DejaVuSans-35" x="63.623047"/>
       <use xlink:href="#DejaVuSans-2e" x="127.246094"/>
       <use xlink:href="#DejaVuSans-30" x="159.033203"/>
      </g>
     </g>
    </g>
    <g id="xtick_16">
     <g id="line2d_42">
      <path d="M 541.304459 456.72952 
L 541.304459 252.46924 
" clip-path="url(#p06de70b183)" style="fill: none; stroke: #b0b0b0; stroke-width: 0.8; stroke-linecap: square"/>
     </g>
     <g id="line2d_43">
      <g>
       <use xlink:href="#m3462566dc5" x="541.304459" y="456.72952" style="stroke: #000000; stroke-width: 2.5"/>
      </g>
     </g>
     <g id="text_14">
      <!-- 17.5 -->
      <g transform="translate(523.491959 482.38702) scale(0.16 -0.16)">
       <use xlink:href="#DejaVuSans-31"/>
       <use xlink:href="#DejaVuSans-37" x="63.623047"/>
       <use xlink:href="#DejaVuSans-2e" x="127.246094"/>
       <use xlink:href="#DejaVuSans-35" x="159.033203"/>
      </g>
     </g>
    </g>
    <g id="text_15">
     <!-- Time [$2\pi/\Omega$] -->
     <g transform="translate(279.16226 501.87202) scale(0.16 -0.16)">
      <defs>
       <path id="DejaVuSans-54" d="M -19 4666 
L 3928 4666 
L 3928 4134 
L 2272 4134 
L 2272 0 
L 1638 0 
L 1638 4134 
L -19 4134 
L -19 4666 
z
" transform="scale(0.015625)"/>
       <path id="DejaVuSans-6d" d="M 3328 2828 
Q 3544 3216 3844 3400 
Q 4144 3584 4550 3584 
Q 5097 3584 5394 3201 
Q 5691 2819 5691 2113 
L 5691 0 
L 5113 0 
L 5113 2094 
Q 5113 2597 4934 2840 
Q 4756 3084 4391 3084 
Q 3944 3084 3684 2787 
Q 3425 2491 3425 1978 
L 3425 0 
L 2847 0 
L 2847 2094 
Q 2847 2600 2669 2842 
Q 2491 3084 2119 3084 
Q 1678 3084 1418 2786 
Q 1159 2488 1159 1978 
L 1159 0 
L 581 0 
L 581 3500 
L 1159 3500 
L 1159 2956 
Q 1356 3278 1631 3431 
Q 1906 3584 2284 3584 
Q 2666 3584 2933 3390 
Q 3200 3197 3328 2828 
z
" transform="scale(0.015625)"/>
       <path id="DejaVuSans-65" d="M 3597 1894 
L 3597 1613 
L 953 1613 
Q 991 1019 1311 708 
Q 1631 397 2203 397 
Q 2534 397 2845 478 
Q 3156 559 3463 722 
L 3463 178 
Q 3153 47 2828 -22 
Q 2503 -91 2169 -91 
Q 1331 -91 842 396 
Q 353 884 353 1716 
Q 353 2575 817 3079 
Q 1281 3584 2069 3584 
Q 2775 3584 3186 3129 
Q 3597 2675 3597 1894 
z
M 3022 2063 
Q 3016 2534 2758 2815 
Q 2500 3097 2075 3097 
Q 1594 3097 1305 2825 
Q 1016 2553 972 2059 
L 3022 2063 
z
" transform="scale(0.015625)"/>
       <path id="DejaVuSans-Oblique-3c0" d="M 584 3500 
L 3938 3500 
L 3825 2925 
L 3384 2925 
L 2966 775 
Q 2922 550 2981 450 
Q 3038 353 3209 353 
Q 3256 353 3325 363 
Q 3397 369 3419 372 
L 3338 -44 
Q 3222 -84 3103 -103 
Q 2981 -122 2866 -122 
Q 2491 -122 2388 81 
Q 2284 288 2391 838 
L 2797 2925 
L 1506 2925 
L 938 0 
L 350 0 
L 919 2925 
L 472 2925 
L 584 3500 
z
" transform="scale(0.015625)"/>
       <path id="DejaVuSans-2f" d="M 1625 4666 
L 2156 4666 
L 531 -594 
L 0 -594 
L 1625 4666 
z
" transform="scale(0.015625)"/>
      </defs>
      <use xlink:href="#DejaVuSans-54" transform="translate(0 0.015625)"/>
      <use xlink:href="#DejaVuSans-69" transform="translate(61.083984 0.015625)"/>
      <use xlink:href="#DejaVuSans-6d" transform="translate(88.867188 0.015625)"/>
      <use xlink:href="#DejaVuSans-65" transform="translate(186.279297 0.015625)"/>
      <use xlink:href="#DejaVuSans-20" transform="translate(247.802734 0.015625)"/>
      <use xlink:href="#DejaVuSans-5b" transform="translate(279.589844 0.015625)"/>
      <use xlink:href="#DejaVuSans-32" transform="translate(318.603516 0.015625)"/>
      <use xlink:href="#DejaVuSans-Oblique-3c0" transform="translate(382.226562 0.015625)"/>
      <use xlink:href="#DejaVuSans-2f" transform="translate(442.431641 0.015625)"/>
      <use xlink:href="#DejaVuSans-3a9" transform="translate(476.123047 0.015625)"/>
      <use xlink:href="#DejaVuSans-5d" transform="translate(552.539062 0.015625)"/>
     </g>
    </g>
   </g>
   <g id="matplotlib.axis_4">
    <g id="ytick_6">
     <g id="line2d_44">
      <path d="M 75.845 439.70783 
L 577.19952 439.70783 
" clip-path="url(#p06de70b183)" style="fill: none; stroke: #b0b0b0; stroke-width: 0.8; stroke-linecap: square"/>
     </g>
     <g id="line2d_45">
      <g>
       <use xlink:href="#mfc14a65c82" x="75.845" y="439.70783" style="stroke: #000000; stroke-width: 2.5"/>
      </g>
     </g>
     <g id="text_16">
      <!-- 0.00 -->
      <g transform="translate(26.72 445.78658) scale(0.16 -0.16)">
       <use xlink:href="#DejaVuSans-30"/>
       <use xlink:href="#DejaVuSans-2e" x="63.623047"/>
       <use xlink:href="#DejaVuSans-30" x="95.410156"/>
       <use xlink:href="#DejaVuSans-30" x="159.033203"/>
      </g>
     </g>
    </g>
    <g id="ytick_7">
     <g id="line2d_46">
      <path d="M 75.845 397.153605 
L 577.19952 397.153605 
" clip-path="url(#p06de70b183)" style="fill: none; stroke: #b0b0b0; stroke-width: 0.8; stroke-linecap: square"/>
     </g>
     <g id="line2d_47">
      <g>
       <use xlink:href="#mfc14a65c82" x="75.845" y="397.153605" style="stroke: #000000; stroke-width: 2.5"/>
      </g>
     </g>
     <g id="text_17">
      <!-- 0.25 -->
      <g transform="translate(26.72 403.232355) scale(0.16 -0.16)">
       <use xlink:href="#DejaVuSans-30"/>
       <use xlink:href="#DejaVuSans-2e" x="63.623047"/>
       <use xlink:href="#DejaVuSans-32" x="95.410156"/>
       <use xlink:href="#DejaVuSans-35" x="159.033203"/>
      </g>
     </g>
    </g>
    <g id="ytick_8">
     <g id="line2d_48">
      <path d="M 75.845 354.59938 
L 577.19952 354.59938 
" clip-path="url(#p06de70b183)" style="fill: none; stroke: #b0b0b0; stroke-width: 0.8; stroke-linecap: square"/>
     </g>
     <g id="line2d_49">
      <g>
       <use xlink:href="#mfc14a65c82" x="75.845" y="354.59938" style="stroke: #000000; stroke-width: 2.5"/>
      </g>
     </g>
     <g id="text_18">
      <!-- 0.50 -->
      <g transform="translate(26.72 360.67813) scale(0.16 -0.16)">
       <use xlink:href="#DejaVuSans-30"/>
       <use xlink:href="#DejaVuSans-2e" x="63.623047"/>
       <use xlink:href="#DejaVuSans-35" x="95.410156"/>
       <use xlink:href="#DejaVuSans-30" x="159.033203"/>
      </g>
     </g>
    </g>
    <g id="ytick_9">
     <g id="line2d_50">
      <path d="M 75.845 312.045155 
L 577.19952 312.045155 
" clip-path="url(#p06de70b183)" style="fill: none; stroke: #b0b0b0; stroke-width: 0.8; stroke-linecap: square"/>
     </g>
     <g id="line2d_51">
      <g>
       <use xlink:href="#mfc14a65c82" x="75.845" y="312.045155" style="stroke: #000000; stroke-width: 2.5"/>
      </g>
     </g>
     <g id="text_19">
      <!-- 0.75 -->
      <g transform="translate(26.72 318.123905) scale(0.16 -0.16)">
       <use xlink:href="#DejaVuSans-30"/>
       <use xlink:href="#DejaVuSans-2e" x="63.623047"/>
       <use xlink:href="#DejaVuSans-37" x="95.410156"/>
       <use xlink:href="#DejaVuSans-35" x="159.033203"/>
      </g>
     </g>
    </g>
    <g id="ytick_10">
     <g id="line2d_52">
      <path d="M 75.845 269.49093 
L 577.19952 269.49093 
" clip-path="url(#p06de70b183)" style="fill: none; stroke: #b0b0b0; stroke-width: 0.8; stroke-linecap: square"/>
     </g>
     <g id="line2d_53">
      <g>
       <use xlink:href="#mfc14a65c82" x="75.845" y="269.49093" style="stroke: #000000; stroke-width: 2.5"/>
      </g>
     </g>
     <g id="text_20">
      <!-- 1.00 -->
      <g transform="translate(26.72 275.56968) scale(0.16 -0.16)">
       <use xlink:href="#DejaVuSans-31"/>
       <use xlink:href="#DejaVuSans-2e" x="63.623047"/>
       <use xlink:href="#DejaVuSans-30" x="95.410156"/>
       <use xlink:href="#DejaVuSans-30" x="159.033203"/>
      </g>
     </g>
    </g>
    <g id="text_21">
     <!-- $\rho_{ee}$ -->
     <g transform="translate(19.36 366.83938) rotate(-90) scale(0.16 -0.16)">
      <defs>
       <path id="DejaVuSans-Oblique-3c1" d="M 1203 2875 
Q 1453 3194 1981 3475 
Q 2188 3584 2756 3584 
Q 3394 3584 3694 3078 
Q 3994 2572 3834 1747 
Q 3672 922 3175 415 
Q 2678 -91 2041 -91 
Q 1656 -91 1409 63 
Q 1163 213 1044 525 
L 681 -1331 
L 103 -1331 
L 697 1716 
Q 838 2438 1203 2875 
z
M 3238 1747 
Q 3359 2381 3169 2744 
Q 2978 3103 2522 3103 
Q 2066 3103 1734 2744 
Q 1403 2381 1281 1747 
Q 1156 1113 1347 750 
Q 1538 391 1994 391 
Q 2450 391 2781 750 
Q 3113 1113 3238 1747 
z
" transform="scale(0.015625)"/>
       <path id="DejaVuSans-Oblique-65" d="M 3078 2063 
Q 3088 2113 3092 2166 
Q 3097 2219 3097 2272 
Q 3097 2653 2873 2875 
Q 2650 3097 2266 3097 
Q 1838 3097 1509 2826 
Q 1181 2556 1013 2059 
L 3078 2063 
z
M 3578 1613 
L 903 1613 
Q 884 1494 878 1425 
Q 872 1356 872 1306 
Q 872 872 1139 634 
Q 1406 397 1894 397 
Q 2269 397 2603 481 
Q 2938 566 3225 728 
L 3116 159 
Q 2806 34 2476 -28 
Q 2147 -91 1806 -91 
Q 1078 -91 686 257 
Q 294 606 294 1247 
Q 294 1794 489 2264 
Q 684 2734 1063 3103 
Q 1306 3334 1642 3459 
Q 1978 3584 2356 3584 
Q 2950 3584 3301 3228 
Q 3653 2872 3653 2272 
Q 3653 2128 3634 1964 
Q 3616 1800 3578 1613 
z
" transform="scale(0.015625)"/>
      </defs>
      <use xlink:href="#DejaVuSans-Oblique-3c1"/>
      <use xlink:href="#DejaVuSans-Oblique-65" transform="translate(63.476562 -16.40625) scale(0.7)"/>
      <use xlink:href="#DejaVuSans-Oblique-65" transform="translate(106.542969 -16.40625) scale(0.7)"/>
     </g>
    </g>
   </g>
   <g id="line2d_54">
    <path d="M 75.845 439.70783 
L 77.858472 439.607963 
L 79.871944 439.308597 
L 81.885416 438.810434 
L 83.898888 438.114644 
L 85.91236 437.222859 
L 87.925832 436.137172 
L 89.939304 434.860131 
L 91.952776 433.394732 
L 93.966248 431.744416 
L 95.97972 429.913055 
L 97.993192 427.904947 
L 100.006664 425.724805 
L 104.033608 420.869273 
L 108.060551 415.392014 
L 112.087495 409.344415 
L 116.114439 402.783211 
L 120.141383 395.769959 
L 124.168327 388.370454 
L 130.208743 376.699664 
L 138.262631 360.457689 
L 152.356935 331.877556 
L 158.397351 320.237891 
L 162.424295 312.866106 
L 166.451239 305.885852 
L 170.478182 299.362616 
L 174.505126 293.357597 
L 178.53207 287.927133 
L 182.559014 283.122171 
L 184.572486 280.968581 
L 186.585958 278.987789 
L 188.59943 277.184444 
L 190.612902 275.562777 
L 192.626374 274.126594 
L 194.639846 272.879266 
L 196.653318 271.82372 
L 198.66679 270.962432 
L 200.680262 270.297425 
L 202.693734 269.830259 
L 204.707206 269.562031 
L 577.19952 269.562031 
L 577.19952 269.562031 
" clip-path="url(#p06de70b183)" style="fill: none; stroke: #1f77b4; stroke-width: 2.5; stroke-linecap: square"/>
   </g>
   <g id="LineCollection_1">
    <path d="M 75.845 354.59938 
L 577.19952 354.59938 
" clip-path="url(#p06de70b183)" style="fill: none; stroke-dasharray: 5.55,2.4; stroke-dashoffset: 0; stroke: #000000; stroke-width: 1.5"/>
   </g>
   <g id="patch_8">
    <path d="M 75.845 456.72952 
L 75.845 252.46924 
" style="fill: none; stroke: #000000; stroke-width: 2.5; stroke-linejoin: miter; stroke-linecap: square"/>
   </g>
   <g id="patch_9">
    <path d="M 577.19952 456.72952 
L 577.19952 252.46924 
" style="fill: none; stroke: #000000; stroke-width: 2.5; stroke-linejoin: miter; stroke-linecap: square"/>
   </g>
   <g id="patch_10">
    <path d="M 75.845 456.72952 
L 577.19952 456.72952 
" style="fill: none; stroke: #000000; stroke-width: 2.5; stroke-linejoin: miter; stroke-linecap: square"/>
   </g>
   <g id="patch_11">
    <path d="M 75.845 252.46924 
L 577.19952 252.46924 
" style="fill: none; stroke: #000000; stroke-width: 2.5; stroke-linejoin: miter; stroke-linecap: square"/>
   </g>
  </g>
  <g id="text_22">
   <!-- Population evolution with $\tau=1.00 \times \pi/\Omega^\prime$  -->
   <g transform="translate(94.91976 22.176) scale(0.192 -0.192)">
    <defs>
     <path id="DejaVuSans-50" d="M 1259 4147 
L 1259 2394 
L 2053 2394 
Q 2494 2394 2734 2622 
Q 2975 2850 2975 3272 
Q 2975 3691 2734 3919 
Q 2494 4147 2053 4147 
L 1259 4147 
z
M 628 4666 
L 2053 4666 
Q 2838 4666 3239 4311 
Q 3641 3956 3641 3272 
Q 3641 2581 3239 2228 
Q 2838 1875 2053 1875 
L 1259 1875 
L 1259 0 
L 628 0 
L 628 4666 
z
" transform="scale(0.015625)"/>
     <path id="DejaVuSans-61" d="M 2194 1759 
Q 1497 1759 1228 1600 
Q 959 1441 959 1056 
Q 959 750 1161 570 
Q 1363 391 1709 391 
Q 2188 391 2477 730 
Q 2766 1069 2766 1631 
L 2766 1759 
L 2194 1759 
z
M 3341 1997 
L 3341 0 
L 2766 0 
L 2766 531 
Q 2569 213 2275 61 
Q 1981 -91 1556 -91 
Q 1019 -91 701 211 
Q 384 513 384 1019 
Q 384 1609 779 1909 
Q 1175 2209 1959 2209 
L 2766 2209 
L 2766 2266 
Q 2766 2663 2505 2880 
Q 2244 3097 1772 3097 
Q 1472 3097 1187 3025 
Q 903 2953 641 2809 
L 641 3341 
Q 956 3463 1253 3523 
Q 1550 3584 1831 3584 
Q 2591 3584 2966 3190 
Q 3341 2797 3341 1997 
z
" transform="scale(0.015625)"/>
     <path id="DejaVuSans-74" d="M 1172 4494 
L 1172 3500 
L 2356 3500 
L 2356 3053 
L 1172 3053 
L 1172 1153 
Q 1172 725 1289 603 
Q 1406 481 1766 481 
L 2356 481 
L 2356 0 
L 1766 0 
Q 1100 0 847 248 
Q 594 497 594 1153 
L 594 3053 
L 172 3053 
L 172 3500 
L 594 3500 
L 594 4494 
L 1172 4494 
z
" transform="scale(0.015625)"/>
     <path id="DejaVuSans-76" d="M 191 3500 
L 800 3500 
L 1894 563 
L 2988 3500 
L 3597 3500 
L 2284 0 
L 1503 0 
L 191 3500 
z
" transform="scale(0.015625)"/>
     <path id="DejaVuSans-77" d="M 269 3500 
L 844 3500 
L 1563 769 
L 2278 3500 
L 2956 3500 
L 3675 769 
L 4391 3500 
L 4966 3500 
L 4050 0 
L 3372 0 
L 2619 2869 
L 1863 0 
L 1184 0 
L 269 3500 
z
" transform="scale(0.015625)"/>
     <path id="DejaVuSans-68" d="M 3513 2113 
L 3513 0 
L 2938 0 
L 2938 2094 
Q 2938 2591 2744 2837 
Q 2550 3084 2163 3084 
Q 1697 3084 1428 2787 
Q 1159 2491 1159 1978 
L 1159 0 
L 581 0 
L 581 4863 
L 1159 4863 
L 1159 2956 
Q 1366 3272 1645 3428 
Q 1925 3584 2291 3584 
Q 2894 3584 3203 3211 
Q 3513 2838 3513 2113 
z
" transform="scale(0.015625)"/>
     <path id="DejaVuSans-Oblique-3c4" d="M 2103 638 
Q 2188 488 2525 488 
L 2800 488 
L 2706 0 
L 2363 0 
Q 1800 0 1600 300 
Q 1403 606 1534 1269 
L 1856 2925 
L 541 2925 
L 653 3500 
L 3881 3500 
L 3769 2925 
L 2444 2925 
L 2113 1234 
Q 2025 781 2103 638 
z
" transform="scale(0.015625)"/>
     <path id="DejaVuSans-3d" d="M 678 2906 
L 4684 2906 
L 4684 2381 
L 678 2381 
L 678 2906 
z
M 678 1631 
L 4684 1631 
L 4684 1100 
L 678 1100 
L 678 1631 
z
" transform="scale(0.015625)"/>
     <path id="DejaVuSans-d7" d="M 4488 3438 
L 3059 2003 
L 4488 575 
L 4116 197 
L 2681 1631 
L 1247 197 
L 878 575 
L 2303 2003 
L 878 3438 
L 1247 3816 
L 2681 2381 
L 4116 3816 
L 4488 3438 
z
" transform="scale(0.015625)"/>
     <path id="Cmsy10-30" d="M 225 347 
Q 184 359 184 409 
L 966 3316 
Q 1003 3434 1093 3506 
Q 1184 3578 1300 3578 
Q 1450 3578 1564 3479 
Q 1678 3381 1678 3231 
Q 1678 3166 1644 3084 
L 488 319 
Q 466 275 428 275 
Q 394 275 320 306 
Q 247 338 225 347 
z
" transform="scale(0.015625)"/>
    </defs>
    <use xlink:href="#DejaVuSans-50" transform="translate(0 0.584375)"/>
    <use xlink:href="#DejaVuSans-6f" transform="translate(60.302734 0.584375)"/>
    <use xlink:href="#DejaVuSans-70" transform="translate(121.484375 0.584375)"/>
    <use xlink:href="#DejaVuSans-75" transform="translate(184.960938 0.584375)"/>
    <use xlink:href="#DejaVuSans-6c" transform="translate(248.339844 0.584375)"/>
    <use xlink:href="#DejaVuSans-61" transform="translate(276.123047 0.584375)"/>
    <use xlink:href="#DejaVuSans-74" transform="translate(337.402344 0.584375)"/>
    <use xlink:href="#DejaVuSans-69" transform="translate(376.611328 0.584375)"/>
    <use xlink:href="#DejaVuSans-6f" transform="translate(404.394531 0.584375)"/>
    <use xlink:href="#DejaVuSans-6e" transform="translate(465.576172 0.584375)"/>
    <use xlink:href="#DejaVuSans-20" transform="translate(528.955078 0.584375)"/>
    <use xlink:href="#DejaVuSans-65" transform="translate(560.742188 0.584375)"/>
    <use xlink:href="#DejaVuSans-76" transform="translate(622.265625 0.584375)"/>
    <use xlink:href="#DejaVuSans-6f" transform="translate(681.445312 0.584375)"/>
    <use xlink:href="#DejaVuSans-6c" transform="translate(742.626953 0.584375)"/>
    <use xlink:href="#DejaVuSans-75" transform="translate(770.410156 0.584375)"/>
    <use xlink:href="#DejaVuSans-74" transform="translate(833.789062 0.584375)"/>
    <use xlink:href="#DejaVuSans-69" transform="translate(872.998047 0.584375)"/>
    <use xlink:href="#DejaVuSans-6f" transform="translate(900.78125 0.584375)"/>
    <use xlink:href="#DejaVuSans-6e" transform="translate(961.962891 0.584375)"/>
    <use xlink:href="#DejaVuSans-20" transform="translate(1025.341797 0.584375)"/>
    <use xlink:href="#DejaVuSans-77" transform="translate(1057.128906 0.584375)"/>
    <use xlink:href="#DejaVuSans-69" transform="translate(1138.916016 0.584375)"/>
    <use xlink:href="#DejaVuSans-74" transform="translate(1166.699219 0.584375)"/>
    <use xlink:href="#DejaVuSans-68" transform="translate(1205.908203 0.584375)"/>
    <use xlink:href="#DejaVuSans-20" transform="translate(1269.287109 0.584375)"/>
    <use xlink:href="#DejaVuSans-Oblique-3c4" transform="translate(1301.074219 0.584375)"/>
    <use xlink:href="#DejaVuSans-3d" transform="translate(1380.761719 0.584375)"/>
    <use xlink:href="#DejaVuSans-31" transform="translate(1484.033203 0.584375)"/>
    <use xlink:href="#DejaVuSans-2e" transform="translate(1547.65625 0.584375)"/>
    <use xlink:href="#DejaVuSans-30" transform="translate(1579.443359 0.584375)"/>
    <use xlink:href="#DejaVuSans-30" transform="translate(1643.066406 0.584375)"/>
    <use xlink:href="#DejaVuSans-d7" transform="translate(1726.171875 0.584375)"/>
    <use xlink:href="#DejaVuSans-Oblique-3c0" transform="translate(1829.443359 0.584375)"/>
    <use xlink:href="#DejaVuSans-2f" transform="translate(1889.648438 0.584375)"/>
    <use xlink:href="#DejaVuSans-3a9" transform="translate(1923.339844 0.584375)"/>
    <use xlink:href="#Cmsy10-30" transform="translate(2000.712891 38.865625) scale(0.7)"/>
    <use xlink:href="#DejaVuSans-20" transform="translate(2022.69043 0.584375)"/>
   </g>
  </g>
 </g>
 <defs>
  <clipPath id="p32d648f47c">
   <rect x="75.845" y="32.20848" width="501.35452" height="204.26028"/>
  </clipPath>
  <clipPath id="p06de70b183">
   <rect x="75.845" y="252.46924" width="501.35452" height="204.26028"/>
  </clipPath>
 </defs>
</svg>
