<?xml version="1.0" encoding="utf-8" standalone="no"?>
<!DOCTYPE svg PUBLIC "-//W3C//DTD SVG 1.1//EN"
  "http://www.w3.org/Graphics/SVG/1.1/DTD/svg11.dtd">
<svg xmlns:xlink="http://www.w3.org/1999/xlink" width="584.39952pt" height="512.39952pt" viewBox="0 0 584.39952 512.39952" xmlns="http://www.w3.org/2000/svg" version="1.1">
 <metadata>
  <rdf:RDF xmlns:dc="http://purl.org/dc/elements/1.1/" xmlns:cc="http://creativecommons.org/ns#" xmlns:rdf="http://www.w3.org/1999/02/22-rdf-syntax-ns#">
   <cc:Work>
    <dc:type rdf:resource="http://purl.org/dc/dcmitype/StillImage"/>
    <dc:date>2024-08-08T18:16:14.339817</dc:date>
    <dc:format>image/svg+xml</dc:format>
    <dc:creator>
     <cc:Agent>
      <dc:title>Matplotlib v3.7.1, https://matplotlib.org/</dc:title>
     </cc:Agent>
    </dc:creator>
   </cc:Work>
  </rdf:RDF>
 </metadata>
 <defs>
  <style type="text/css">*{stroke-linejoin: round; stroke-linecap: butt}</style>
 </defs>
 <g id="figure_1">
  <g id="patch_1">
   <path d="M 0 512.39952 
L 584.39952 512.39952 
L 584.39952 0 
L 0 0 
z
" style="fill: #ffffff"/>
  </g>
  <g id="axes_1">
   <g id="patch_2">
    <path d="M 65.63 162.764507 
L 577.19952 162.764507 
L 577.19952 31.78248 
L 65.63 31.78248 
z
" style="fill: #ffffff"/>
   </g>
   <g id="matplotlib.axis_1">
    <g id="xtick_1">
     <g id="line2d_1">
      <path d="M 65.63 162.764507 
L 65.63 31.78248 
" clip-path="url(#pd7d323e8f1)" style="fill: none; stroke: #b0b0b0; stroke-width: 0.8; stroke-linecap: square"/>
     </g>
     <g id="line2d_2">
      <defs>
       <path id="m9e5a9cbbde" d="M 0 0 
L 0 10 
" style="stroke: #000000; stroke-width: 2.5"/>
      </defs>
      <g>
       <use xlink:href="#m9e5a9cbbde" x="65.63" y="162.764507" style="stroke: #000000; stroke-width: 2.5"/>
      </g>
     </g>
    </g>
    <g id="xtick_2">
     <g id="line2d_3">
      <path d="M 133.884773 162.764507 
L 133.884773 31.78248 
" clip-path="url(#pd7d323e8f1)" style="fill: none; stroke: #b0b0b0; stroke-width: 0.8; stroke-linecap: square"/>
     </g>
     <g id="line2d_4">
      <g>
       <use xlink:href="#m9e5a9cbbde" x="133.884773" y="162.764507" style="stroke: #000000; stroke-width: 2.5"/>
      </g>
     </g>
    </g>
    <g id="xtick_3">
     <g id="line2d_5">
      <path d="M 202.139545 162.764507 
L 202.139545 31.78248 
" clip-path="url(#pd7d323e8f1)" style="fill: none; stroke: #b0b0b0; stroke-width: 0.8; stroke-linecap: square"/>
     </g>
     <g id="line2d_6">
      <g>
       <use xlink:href="#m9e5a9cbbde" x="202.139545" y="162.764507" style="stroke: #000000; stroke-width: 2.5"/>
      </g>
     </g>
    </g>
    <g id="xtick_4">
     <g id="line2d_7">
      <path d="M 270.394318 162.764507 
L 270.394318 31.78248 
" clip-path="url(#pd7d323e8f1)" style="fill: none; stroke: #b0b0b0; stroke-width: 0.8; stroke-linecap: square"/>
     </g>
     <g id="line2d_8">
      <g>
       <use xlink:href="#m9e5a9cbbde" x="270.394318" y="162.764507" style="stroke: #000000; stroke-width: 2.5"/>
      </g>
     </g>
    </g>
    <g id="xtick_5">
     <g id="line2d_9">
      <path d="M 338.64909 162.764507 
L 338.64909 31.78248 
" clip-path="url(#pd7d323e8f1)" style="fill: none; stroke: #b0b0b0; stroke-width: 0.8; stroke-linecap: square"/>
     </g>
     <g id="line2d_10">
      <g>
       <use xlink:href="#m9e5a9cbbde" x="338.64909" y="162.764507" style="stroke: #000000; stroke-width: 2.5"/>
      </g>
     </g>
    </g>
    <g id="xtick_6">
     <g id="line2d_11">
      <path d="M 406.903863 162.764507 
L 406.903863 31.78248 
" clip-path="url(#pd7d323e8f1)" style="fill: none; stroke: #b0b0b0; stroke-width: 0.8; stroke-linecap: square"/>
     </g>
     <g id="line2d_12">
      <g>
       <use xlink:href="#m9e5a9cbbde" x="406.903863" y="162.764507" style="stroke: #000000; stroke-width: 2.5"/>
      </g>
     </g>
    </g>
    <g id="xtick_7">
     <g id="line2d_13">
      <path d="M 475.158635 162.764507 
L 475.158635 31.78248 
" clip-path="url(#pd7d323e8f1)" style="fill: none; stroke: #b0b0b0; stroke-width: 0.8; stroke-linecap: square"/>
     </g>
     <g id="line2d_14">
      <g>
       <use xlink:href="#m9e5a9cbbde" x="475.158635" y="162.764507" style="stroke: #000000; stroke-width: 2.5"/>
      </g>
     </g>
    </g>
    <g id="xtick_8">
     <g id="line2d_15">
      <path d="M 543.413408 162.764507 
L 543.413408 31.78248 
" clip-path="url(#pd7d323e8f1)" style="fill: none; stroke: #b0b0b0; stroke-width: 0.8; stroke-linecap: square"/>
     </g>
     <g id="line2d_16">
      <g>
       <use xlink:href="#m9e5a9cbbde" x="543.413408" y="162.764507" style="stroke: #000000; stroke-width: 2.5"/>
      </g>
     </g>
    </g>
   </g>
   <g id="matplotlib.axis_2">
    <g id="ytick_1">
     <g id="line2d_17">
      <path d="M 65.63 151.849338 
L 577.19952 151.849338 
" clip-path="url(#pd7d323e8f1)" style="fill: none; stroke: #b0b0b0; stroke-width: 0.8; stroke-linecap: square"/>
     </g>
     <g id="line2d_18">
      <defs>
       <path id="ma31bb7e1d8" d="M 0 0 
L -10 0 
" style="stroke: #000000; stroke-width: 2.5"/>
      </defs>
      <g>
       <use xlink:href="#ma31bb7e1d8" x="65.63" y="151.849338" style="stroke: #000000; stroke-width: 2.5"/>
      </g>
     </g>
     <g id="text_1">
      <!-- 0.0 -->
      <g transform="translate(26.685 157.928088) scale(0.16 -0.16)">
       <defs>
        <path id="DejaVuSans-30" d="M 2034 4250 
Q 1547 4250 1301 3770 
Q 1056 3291 1056 2328 
Q 1056 1369 1301 889 
Q 1547 409 2034 409 
Q 2525 409 2770 889 
Q 3016 1369 3016 2328 
Q 3016 3291 2770 3770 
Q 2525 4250 2034 4250 
z
M 2034 4750 
Q 2819 4750 3233 4129 
Q 3647 3509 3647 2328 
Q 3647 1150 3233 529 
Q 2819 -91 2034 -91 
Q 1250 -91 836 529 
Q 422 1150 422 2328 
Q 422 3509 836 4129 
Q 1250 4750 2034 4750 
z
" transform="scale(0.015625)"/>
        <path id="DejaVuSans-2e" d="M 684 794 
L 1344 794 
L 1344 0 
L 684 0 
L 684 794 
z
" transform="scale(0.015625)"/>
       </defs>
       <use xlink:href="#DejaVuSans-30"/>
       <use xlink:href="#DejaVuSans-2e" x="63.623047"/>
       <use xlink:href="#DejaVuSans-30" x="95.410156"/>
      </g>
     </g>
    </g>
    <g id="ytick_2">
     <g id="line2d_19">
      <path d="M 65.63 97.273493 
L 577.19952 97.273493 
" clip-path="url(#pd7d323e8f1)" style="fill: none; stroke: #b0b0b0; stroke-width: 0.8; stroke-linecap: square"/>
     </g>
     <g id="line2d_20">
      <g>
       <use xlink:href="#ma31bb7e1d8" x="65.63" y="97.273493" style="stroke: #000000; stroke-width: 2.5"/>
      </g>
     </g>
     <g id="text_2">
      <!-- 0.5 -->
      <g transform="translate(26.685 103.352243) scale(0.16 -0.16)">
       <defs>
        <path id="DejaVuSans-35" d="M 691 4666 
L 3169 4666 
L 3169 4134 
L 1269 4134 
L 1269 2991 
Q 1406 3038 1543 3061 
Q 1681 3084 1819 3084 
Q 2600 3084 3056 2656 
Q 3513 2228 3513 1497 
Q 3513 744 3044 326 
Q 2575 -91 1722 -91 
Q 1428 -91 1123 -41 
Q 819 9 494 109 
L 494 744 
Q 775 591 1075 516 
Q 1375 441 1709 441 
Q 2250 441 2565 725 
Q 2881 1009 2881 1497 
Q 2881 1984 2565 2268 
Q 2250 2553 1709 2553 
Q 1456 2553 1204 2497 
Q 953 2441 691 2322 
L 691 4666 
z
" transform="scale(0.015625)"/>
       </defs>
       <use xlink:href="#DejaVuSans-30"/>
       <use xlink:href="#DejaVuSans-2e" x="63.623047"/>
       <use xlink:href="#DejaVuSans-35" x="95.410156"/>
      </g>
     </g>
    </g>
    <g id="ytick_3">
     <g id="line2d_21">
      <path d="M 65.63 42.697649 
L 577.19952 42.697649 
" clip-path="url(#pd7d323e8f1)" style="fill: none; stroke: #b0b0b0; stroke-width: 0.8; stroke-linecap: square"/>
     </g>
     <g id="line2d_22">
      <g>
       <use xlink:href="#ma31bb7e1d8" x="65.63" y="42.697649" style="stroke: #000000; stroke-width: 2.5"/>
      </g>
     </g>
     <g id="text_3">
      <!-- 1.0 -->
      <g transform="translate(26.685 48.776399) scale(0.16 -0.16)">
       <defs>
        <path id="DejaVuSans-31" d="M 794 531 
L 1825 531 
L 1825 4091 
L 703 3866 
L 703 4441 
L 1819 4666 
L 2450 4666 
L 2450 531 
L 3481 531 
L 3481 0 
L 794 0 
L 794 531 
z
" transform="scale(0.015625)"/>
       </defs>
       <use xlink:href="#DejaVuSans-31"/>
       <use xlink:href="#DejaVuSans-2e" x="63.623047"/>
       <use xlink:href="#DejaVuSans-30" x="95.410156"/>
      </g>
     </g>
    </g>
    <g id="text_4">
     <!-- $\rho_{ee}$ -->
     <g transform="translate(19.325 109.513493) rotate(-90) scale(0.16 -0.16)">
      <defs>
       <path id="DejaVuSans-Oblique-3c1" d="M 1203 2875 
Q 1453 3194 1981 3475 
Q 2188 3584 2756 3584 
Q 3394 3584 3694 3078 
Q 3994 2572 3834 1747 
Q 3672 922 3175 415 
Q 2678 -91 2041 -91 
Q 1656 -91 1409 63 
Q 1163 213 1044 525 
L 681 -1331 
L 103 -1331 
L 697 1716 
Q 838 2438 1203 2875 
z
M 3238 1747 
Q 3359 2381 3169 2744 
Q 2978 3103 2522 3103 
Q 2066 3103 1734 2744 
Q 1403 2381 1281 1747 
Q 1156 1113 1347 750 
Q 1538 391 1994 391 
Q 2450 391 2781 750 
Q 3113 1113 3238 1747 
z
" transform="scale(0.015625)"/>
       <path id="DejaVuSans-Oblique-65" d="M 3078 2063 
Q 3088 2113 3092 2166 
Q 3097 2219 3097 2272 
Q 3097 2653 2873 2875 
Q 2650 3097 2266 3097 
Q 1838 3097 1509 2826 
Q 1181 2556 1013 2059 
L 3078 2063 
z
M 3578 1613 
L 903 1613 
Q 884 1494 878 1425 
Q 872 1356 872 1306 
Q 872 872 1139 634 
Q 1406 397 1894 397 
Q 2269 397 2603 481 
Q 2938 566 3225 728 
L 3116 159 
Q 2806 34 2476 -28 
Q 2147 -91 1806 -91 
Q 1078 -91 686 257 
Q 294 606 294 1247 
Q 294 1794 489 2264 
Q 684 2734 1063 3103 
Q 1306 3334 1642 3459 
Q 1978 3584 2356 3584 
Q 2950 3584 3301 3228 
Q 3653 2872 3653 2272 
Q 3653 2128 3634 1964 
Q 3616 1800 3578 1613 
z
" transform="scale(0.015625)"/>
      </defs>
      <use xlink:href="#DejaVuSans-Oblique-3c1"/>
      <use xlink:href="#DejaVuSans-Oblique-65" transform="translate(63.476562 -16.40625) scale(0.7)"/>
      <use xlink:href="#DejaVuSans-Oblique-65" transform="translate(106.542969 -16.40625) scale(0.7)"/>
     </g>
    </g>
   </g>
   <g id="line2d_23">
    <path d="M 65.63 151.849338 
L 66.312548 151.741645 
L 66.995095 151.418991 
L 67.677643 150.88265 
L 68.701465 149.682332 
L 69.725286 148.01683 
L 70.749108 145.900927 
L 72.114203 142.412114 
L 73.479299 138.211438 
L 75.185668 132.061446 
L 76.892037 125.054858 
L 79.280955 114.138357 
L 82.693693 97.273493 
L 86.788979 77.182785 
L 89.177897 66.597318 
L 90.884266 59.913757 
L 92.590635 54.150116 
L 93.955731 50.29777 
L 95.320826 47.18626 
L 96.344648 45.368781 
L 97.368469 44.012012 
L 98.051017 43.369568 
L 98.733565 42.939858 
L 99.416112 42.724579 
L 100.09866 42.724579 
L 100.781208 42.939858 
L 101.463756 43.369568 
L 102.146303 44.012012 
L 103.170125 45.368781 
L 104.193946 47.18626 
L 105.217768 49.448316 
L 106.582864 53.120708 
L 107.947959 57.489415 
L 109.654328 63.823573 
L 111.701971 72.496578 
L 114.090888 83.701033 
L 122.964009 126.516693 
L 124.670378 133.365147 
L 126.376748 139.324904 
L 127.741843 143.353403 
L 129.106938 146.655194 
L 130.13076 148.622856 
L 131.154582 150.134737 
L 132.178403 151.177419 
L 132.860951 151.607128 
L 133.543499 151.822408 
L 134.226046 151.822408 
L 134.908594 151.607128 
L 135.591142 151.177419 
L 136.27369 150.534975 
L 137.297511 149.178206 
L 137.638785 148.622856 
L 137.980059 151.849338 
L 139.00388 151.741645 
L 139.686428 151.418991 
L 140.368976 150.88265 
L 141.392797 149.682332 
L 142.416619 148.01683 
L 143.440441 145.900927 
L 144.805536 142.412114 
L 146.170632 138.211438 
L 147.877001 132.061446 
L 149.58337 125.054858 
L 151.972287 114.138357 
L 155.385026 97.273493 
L 159.480312 77.182785 
L 161.869229 66.597318 
L 163.575599 59.913757 
L 165.281968 54.150116 
L 166.647063 50.29777 
L 168.012159 47.18626 
L 169.03598 45.368781 
L 170.059802 44.012012 
L 170.74235 43.369568 
L 171.424897 42.939858 
L 172.107445 42.724579 
L 172.789993 42.724579 
L 173.472541 42.939858 
L 174.155088 43.369568 
L 174.837636 44.012012 
L 175.861458 45.368781 
L 176.885279 47.18626 
L 177.909101 49.448316 
L 179.274196 53.120708 
L 180.639292 57.489415 
L 181.321839 59.913757 
L 181.663113 151.849338 
L 182.686935 151.741645 
L 183.369483 151.418991 
L 184.05203 150.88265 
L 185.075852 149.682332 
L 186.099673 148.01683 
L 187.123495 145.900927 
L 188.488591 142.412114 
L 189.853686 138.211438 
L 191.560055 132.061446 
L 193.266425 125.054858 
L 195.655342 114.138357 
L 199.06808 97.273493 
L 203.163367 77.182785 
L 205.552284 66.597318 
L 207.258653 59.913757 
L 208.965022 54.150116 
L 210.330118 50.29777 
L 211.695213 47.18626 
L 212.719035 45.368781 
L 213.742856 44.012012 
L 214.425404 43.369568 
L 215.107952 42.939858 
L 215.7905 42.724579 
L 216.473047 42.724579 
L 217.155595 42.939858 
L 217.838143 43.369568 
L 218.52069 44.012012 
L 219.544512 45.368781 
L 220.568334 47.18626 
L 221.592155 49.448316 
L 222.957251 53.120708 
L 224.322346 57.489415 
L 226.028715 63.823573 
L 228.076359 72.496578 
L 230.465276 83.701033 
L 239.338396 126.516693 
L 241.044765 133.365147 
L 242.751135 139.324904 
L 244.11623 143.353403 
L 245.481326 146.655194 
L 246.505147 148.622856 
L 246.846421 151.849338 
L 247.870243 151.741645 
L 248.55279 151.418991 
L 249.235338 150.88265 
L 250.25916 149.682332 
L 251.282981 148.01683 
L 252.306803 145.900927 
L 253.671898 142.412114 
L 255.036994 138.211438 
L 256.743363 132.061446 
L 258.449732 125.054858 
L 260.838649 114.138357 
L 264.251388 97.273493 
L 268.346674 77.182785 
L 270.735591 66.597318 
L 272.441961 59.913757 
L 274.14833 54.150116 
L 275.513425 50.29777 
L 276.878521 47.18626 
L 277.902343 45.368781 
L 278.926164 44.012012 
L 279.608712 43.369568 
L 280.29126 42.939858 
L 280.973807 42.724579 
L 281.315081 151.849338 
L 282.338903 151.741645 
L 283.02145 151.418991 
L 283.703998 150.88265 
L 284.72782 149.682332 
L 285.751641 148.01683 
L 286.775463 145.900927 
L 288.140558 142.412114 
L 289.505654 138.211438 
L 291.212023 132.061446 
L 292.918392 125.054858 
L 295.30731 114.138357 
L 298.720048 97.273493 
L 302.815334 77.182785 
L 305.204252 66.597318 
L 306.910621 59.913757 
L 308.61699 54.150116 
L 309.982086 50.29777 
L 311.347181 47.18626 
L 312.371003 45.368781 
L 313.394824 44.012012 
L 314.077372 43.369568 
L 314.75992 42.939858 
L 315.442467 42.724579 
L 316.125015 42.724579 
L 316.807563 42.939858 
L 317.490111 43.369568 
L 318.172658 44.012012 
L 319.19648 45.368781 
L 320.220301 47.18626 
L 321.244123 49.448316 
L 322.609219 53.120708 
L 323.974314 57.489415 
L 325.680683 63.823573 
L 327.728326 72.496578 
L 330.117243 83.701033 
L 338.990364 126.516693 
L 340.696733 133.365147 
L 342.403103 139.324904 
L 343.768198 143.353403 
L 345.133293 146.655194 
L 346.157115 148.622856 
L 347.180937 150.134737 
L 348.204758 151.177419 
L 348.887306 151.607128 
L 349.569854 151.822408 
L 350.252401 151.822408 
L 350.934949 151.607128 
L 351.617497 151.177419 
L 352.300045 150.534975 
L 353.323866 149.178206 
L 354.347688 147.360727 
L 355.371509 145.09867 
L 356.736605 141.426279 
L 358.1017 137.057572 
L 359.80807 130.723413 
L 361.855713 122.050408 
L 364.24463 110.845954 
L 373.11775 68.030294 
L 374.824119 61.18184 
L 376.530489 55.222082 
L 377.895584 51.193584 
L 379.26068 47.891793 
L 380.284501 45.924131 
L 381.308323 44.412249 
L 382.332144 43.369568 
L 383.014692 42.939858 
L 383.69724 42.724579 
L 384.379788 42.724579 
L 385.062335 42.939858 
L 385.744883 43.369568 
L 386.427431 44.012012 
L 387.451252 45.368781 
L 388.475074 47.18626 
L 389.498896 49.448316 
L 390.863991 53.120708 
L 391.205265 151.849338 
L 392.229086 151.741645 
L 392.911634 151.418991 
L 393.594182 150.88265 
L 394.618004 149.682332 
L 395.641825 148.01683 
L 396.665647 145.900927 
L 398.030742 142.412114 
L 399.395838 138.211438 
L 401.102207 132.061446 
L 402.808576 125.054858 
L 405.197493 114.138357 
L 408.610232 97.273493 
L 412.705518 77.182785 
L 415.094435 66.597318 
L 416.800805 59.913757 
L 418.507174 54.150116 
L 419.872269 50.29777 
L 421.237365 47.18626 
L 422.261186 45.368781 
L 423.285008 44.012012 
L 423.967556 43.369568 
L 424.650103 42.939858 
L 425.332651 42.724579 
L 426.015199 42.724579 
L 426.697747 42.939858 
L 427.380294 43.369568 
L 428.062842 44.012012 
L 429.086664 45.368781 
L 430.110485 47.18626 
L 431.134307 49.448316 
L 432.499402 53.120708 
L 433.864498 57.489415 
L 435.570867 63.823573 
L 437.61851 72.496578 
L 440.007427 83.701033 
L 448.880548 126.516693 
L 450.586917 133.365147 
L 452.293286 139.324904 
L 453.658382 143.353403 
L 455.023477 146.655194 
L 456.047299 148.622856 
L 457.07112 150.134737 
L 458.094942 151.177419 
L 458.77749 151.607128 
L 459.460037 151.822408 
L 460.142585 151.822408 
L 460.825133 151.607128 
L 461.507681 151.177419 
L 462.190228 150.534975 
L 463.21405 149.178206 
L 464.237871 147.360727 
L 465.261693 145.09867 
L 466.626789 141.426279 
L 467.991884 137.057572 
L 469.698253 130.723413 
L 471.745896 122.050408 
L 474.134814 110.845954 
L 483.007934 68.030294 
L 484.714303 61.18184 
L 486.420673 55.222082 
L 487.785768 51.193584 
L 489.150863 47.891793 
L 490.174685 45.924131 
L 491.198507 44.412249 
L 492.222328 43.369568 
L 492.904876 42.939858 
L 493.587424 42.724579 
L 494.269971 42.724579 
L 494.952519 42.939858 
L 495.635067 43.369568 
L 496.317615 44.012012 
L 497.341436 45.368781 
L 498.365258 47.18626 
L 499.389079 49.448316 
L 500.754175 53.120708 
L 502.11927 57.489415 
L 503.82564 63.823573 
L 505.873283 72.496578 
L 508.2622 83.701033 
L 517.13532 126.516693 
L 518.841689 133.365147 
L 520.548059 139.324904 
L 521.913154 143.353403 
L 523.27825 146.655194 
L 524.302071 148.622856 
L 525.325893 150.134737 
L 526.349714 151.177419 
L 527.032262 151.607128 
L 527.71481 151.822408 
L 528.397358 151.822408 
L 529.079905 151.607128 
L 529.762453 151.177419 
L 530.445001 150.534975 
L 531.468822 149.178206 
L 532.492644 147.360727 
L 533.516466 145.09867 
L 534.881561 141.426279 
L 536.246656 137.057572 
L 537.953026 130.723413 
L 540.000669 122.050408 
L 542.389586 110.845954 
L 551.262706 68.030294 
L 552.969076 61.18184 
L 554.675445 55.222082 
L 556.040541 51.193584 
L 557.405636 47.891793 
L 558.429458 45.924131 
L 558.770731 151.849338 
L 559.794553 151.741645 
L 560.477101 151.418991 
L 561.159648 150.88265 
L 562.18347 149.682332 
L 563.207292 148.01683 
L 564.231113 145.900927 
L 565.596209 142.412114 
L 566.961304 138.211438 
L 568.667673 132.061446 
L 570.374043 125.054858 
L 572.76296 114.138357 
L 576.175698 97.273493 
L 577.19952 92.137453 
L 577.19952 92.137453 
" clip-path="url(#pd7d323e8f1)" style="fill: none; stroke: #1f77b4; stroke-width: 1.5; stroke-linecap: square"/>
   </g>
   <g id="line2d_24">
    <path d="M 137.873731 162.764507 
L 137.873731 31.78248 
" clip-path="url(#pd7d323e8f1)" style="fill: none; stroke-dasharray: 5.55,2.4; stroke-dashoffset: 0; stroke: #ff0000; stroke-width: 1.5"/>
   </g>
   <g id="line2d_25">
    <path d="M 181.601339 162.764507 
L 181.601339 31.78248 
" clip-path="url(#pd7d323e8f1)" style="fill: none; stroke-dasharray: 5.55,2.4; stroke-dashoffset: 0; stroke: #ff0000; stroke-width: 1.5"/>
   </g>
   <g id="line2d_26">
    <path d="M 246.814511 162.764507 
L 246.814511 31.78248 
" clip-path="url(#pd7d323e8f1)" style="fill: none; stroke-dasharray: 5.55,2.4; stroke-dashoffset: 0; stroke: #ff0000; stroke-width: 1.5"/>
   </g>
   <g id="line2d_27">
    <path d="M 281.104943 162.764507 
L 281.104943 31.78248 
" clip-path="url(#pd7d323e8f1)" style="fill: none; stroke-dasharray: 5.55,2.4; stroke-dashoffset: 0; stroke: #ff0000; stroke-width: 1.5"/>
   </g>
   <g id="line2d_28">
    <path d="M 390.983256 162.764507 
L 390.983256 31.78248 
" clip-path="url(#pd7d323e8f1)" style="fill: none; stroke-dasharray: 5.55,2.4; stroke-dashoffset: 0; stroke: #ff0000; stroke-width: 1.5"/>
   </g>
   <g id="line2d_29">
    <path d="M 558.548434 162.764507 
L 558.548434 31.78248 
" clip-path="url(#pd7d323e8f1)" style="fill: none; stroke-dasharray: 5.55,2.4; stroke-dashoffset: 0; stroke: #ff0000; stroke-width: 1.5"/>
   </g>
   <g id="patch_3">
    <path d="M 65.63 162.764507 
L 65.63 31.78248 
" style="fill: none; stroke: #000000; stroke-width: 2.5; stroke-linejoin: miter; stroke-linecap: square"/>
   </g>
   <g id="patch_4">
    <path d="M 577.19952 162.764507 
L 577.19952 31.78248 
" style="fill: none; stroke: #000000; stroke-width: 2.5; stroke-linejoin: miter; stroke-linecap: square"/>
   </g>
   <g id="patch_5">
    <path d="M 65.63 162.764507 
L 577.19952 162.764507 
" style="fill: none; stroke: #000000; stroke-width: 2.5; stroke-linejoin: miter; stroke-linecap: square"/>
   </g>
   <g id="patch_6">
    <path d="M 65.63 31.78248 
L 577.19952 31.78248 
" style="fill: none; stroke: #000000; stroke-width: 2.5; stroke-linejoin: miter; stroke-linecap: square"/>
   </g>
  </g>
  <g id="axes_2">
   <g id="patch_7">
    <path d="M 65.63 309.747013 
L 577.19952 309.747013 
L 577.19952 178.764987 
L 65.63 178.764987 
z
" style="fill: #ffffff"/>
   </g>
   <g id="matplotlib.axis_3">
    <g id="xtick_9">
     <g id="line2d_30">
      <path d="M 65.63 309.747013 
L 65.63 178.764987 
" clip-path="url(#p9a045de409)" style="fill: none; stroke: #b0b0b0; stroke-width: 0.8; stroke-linecap: square"/>
     </g>
     <g id="line2d_31">
      <g>
       <use xlink:href="#m9e5a9cbbde" x="65.63" y="309.747013" style="stroke: #000000; stroke-width: 2.5"/>
      </g>
     </g>
    </g>
    <g id="xtick_10">
     <g id="line2d_32">
      <path d="M 133.884773 309.747013 
L 133.884773 178.764987 
" clip-path="url(#p9a045de409)" style="fill: none; stroke: #b0b0b0; stroke-width: 0.8; stroke-linecap: square"/>
     </g>
     <g id="line2d_33">
      <g>
       <use xlink:href="#m9e5a9cbbde" x="133.884773" y="309.747013" style="stroke: #000000; stroke-width: 2.5"/>
      </g>
     </g>
    </g>
    <g id="xtick_11">
     <g id="line2d_34">
      <path d="M 202.139545 309.747013 
L 202.139545 178.764987 
" clip-path="url(#p9a045de409)" style="fill: none; stroke: #b0b0b0; stroke-width: 0.8; stroke-linecap: square"/>
     </g>
     <g id="line2d_35">
      <g>
       <use xlink:href="#m9e5a9cbbde" x="202.139545" y="309.747013" style="stroke: #000000; stroke-width: 2.5"/>
      </g>
     </g>
    </g>
    <g id="xtick_12">
     <g id="line2d_36">
      <path d="M 270.394318 309.747013 
L 270.394318 178.764987 
" clip-path="url(#p9a045de409)" style="fill: none; stroke: #b0b0b0; stroke-width: 0.8; stroke-linecap: square"/>
     </g>
     <g id="line2d_37">
      <g>
       <use xlink:href="#m9e5a9cbbde" x="270.394318" y="309.747013" style="stroke: #000000; stroke-width: 2.5"/>
      </g>
     </g>
    </g>
    <g id="xtick_13">
     <g id="line2d_38">
      <path d="M 338.64909 309.747013 
L 338.64909 178.764987 
" clip-path="url(#p9a045de409)" style="fill: none; stroke: #b0b0b0; stroke-width: 0.8; stroke-linecap: square"/>
     </g>
     <g id="line2d_39">
      <g>
       <use xlink:href="#m9e5a9cbbde" x="338.64909" y="309.747013" style="stroke: #000000; stroke-width: 2.5"/>
      </g>
     </g>
    </g>
    <g id="xtick_14">
     <g id="line2d_40">
      <path d="M 406.903863 309.747013 
L 406.903863 178.764987 
" clip-path="url(#p9a045de409)" style="fill: none; stroke: #b0b0b0; stroke-width: 0.8; stroke-linecap: square"/>
     </g>
     <g id="line2d_41">
      <g>
       <use xlink:href="#m9e5a9cbbde" x="406.903863" y="309.747013" style="stroke: #000000; stroke-width: 2.5"/>
      </g>
     </g>
    </g>
    <g id="xtick_15">
     <g id="line2d_42">
      <path d="M 475.158635 309.747013 
L 475.158635 178.764987 
" clip-path="url(#p9a045de409)" style="fill: none; stroke: #b0b0b0; stroke-width: 0.8; stroke-linecap: square"/>
     </g>
     <g id="line2d_43">
      <g>
       <use xlink:href="#m9e5a9cbbde" x="475.158635" y="309.747013" style="stroke: #000000; stroke-width: 2.5"/>
      </g>
     </g>
    </g>
    <g id="xtick_16">
     <g id="line2d_44">
      <path d="M 543.413408 309.747013 
L 543.413408 178.764987 
" clip-path="url(#p9a045de409)" style="fill: none; stroke: #b0b0b0; stroke-width: 0.8; stroke-linecap: square"/>
     </g>
     <g id="line2d_45">
      <g>
       <use xlink:href="#m9e5a9cbbde" x="543.413408" y="309.747013" style="stroke: #000000; stroke-width: 2.5"/>
      </g>
     </g>
    </g>
   </g>
   <g id="matplotlib.axis_4">
    <g id="ytick_4">
     <g id="line2d_46">
      <path d="M 65.63 298.831844 
L 577.19952 298.831844 
" clip-path="url(#p9a045de409)" style="fill: none; stroke: #b0b0b0; stroke-width: 0.8; stroke-linecap: square"/>
     </g>
     <g id="line2d_47">
      <g>
       <use xlink:href="#ma31bb7e1d8" x="65.63" y="298.831844" style="stroke: #000000; stroke-width: 2.5"/>
      </g>
     </g>
     <g id="text_5">
      <!-- 0.0 -->
      <g transform="translate(26.685 304.910594) scale(0.16 -0.16)">
       <use xlink:href="#DejaVuSans-30"/>
       <use xlink:href="#DejaVuSans-2e" x="63.623047"/>
       <use xlink:href="#DejaVuSans-30" x="95.410156"/>
      </g>
     </g>
    </g>
    <g id="ytick_5">
     <g id="line2d_48">
      <path d="M 65.63 244.256 
L 577.19952 244.256 
" clip-path="url(#p9a045de409)" style="fill: none; stroke: #b0b0b0; stroke-width: 0.8; stroke-linecap: square"/>
     </g>
     <g id="line2d_49">
      <g>
       <use xlink:href="#ma31bb7e1d8" x="65.63" y="244.256" style="stroke: #000000; stroke-width: 2.5"/>
      </g>
     </g>
     <g id="text_6">
      <!-- 0.5 -->
      <g transform="translate(26.685 250.33475) scale(0.16 -0.16)">
       <use xlink:href="#DejaVuSans-30"/>
       <use xlink:href="#DejaVuSans-2e" x="63.623047"/>
       <use xlink:href="#DejaVuSans-35" x="95.410156"/>
      </g>
     </g>
    </g>
    <g id="ytick_6">
     <g id="line2d_50">
      <path d="M 65.63 189.680156 
L 577.19952 189.680156 
" clip-path="url(#p9a045de409)" style="fill: none; stroke: #b0b0b0; stroke-width: 0.8; stroke-linecap: square"/>
     </g>
     <g id="line2d_51">
      <g>
       <use xlink:href="#ma31bb7e1d8" x="65.63" y="189.680156" style="stroke: #000000; stroke-width: 2.5"/>
      </g>
     </g>
     <g id="text_7">
      <!-- 1.0 -->
      <g transform="translate(26.685 195.758906) scale(0.16 -0.16)">
       <use xlink:href="#DejaVuSans-31"/>
       <use xlink:href="#DejaVuSans-2e" x="63.623047"/>
       <use xlink:href="#DejaVuSans-30" x="95.410156"/>
      </g>
     </g>
    </g>
    <g id="text_8">
     <!-- $\rho_{ee}$ -->
     <g transform="translate(19.325 256.496) rotate(-90) scale(0.16 -0.16)">
      <use xlink:href="#DejaVuSans-Oblique-3c1"/>
      <use xlink:href="#DejaVuSans-Oblique-65" transform="translate(63.476562 -16.40625) scale(0.7)"/>
      <use xlink:href="#DejaVuSans-Oblique-65" transform="translate(106.542969 -16.40625) scale(0.7)"/>
     </g>
    </g>
   </g>
   <g id="line2d_52">
    <path d="M 65.63 298.831844 
L 66.312548 298.724151 
L 66.995095 298.401498 
L 67.677643 297.865156 
L 68.701465 296.664839 
L 69.725286 294.999337 
L 70.749108 292.883433 
L 72.114203 289.394621 
L 73.479299 285.193945 
L 75.185668 279.043953 
L 76.892037 272.037365 
L 79.280955 261.120863 
L 82.693693 244.256 
L 86.788979 224.165292 
L 89.177897 213.579825 
L 90.884266 206.896264 
L 92.590635 201.132623 
L 93.955731 197.280277 
L 95.320826 194.168766 
L 96.344648 192.351288 
L 97.368469 190.994519 
L 98.051017 190.352075 
L 98.733565 189.922365 
L 99.416112 189.707085 
L 100.09866 189.707085 
L 100.781208 189.922365 
L 101.463756 190.352075 
L 102.146303 190.994519 
L 103.170125 192.351288 
L 104.193946 194.168766 
L 105.217768 196.430823 
L 106.582864 200.103214 
L 107.947959 204.471922 
L 109.654328 210.80608 
L 111.701971 219.479085 
L 114.090888 230.683539 
L 122.964009 273.4992 
L 124.670378 280.347653 
L 126.376748 286.307411 
L 127.741843 290.33591 
L 129.106938 293.6377 
L 130.13076 295.605362 
L 131.154582 297.117244 
L 132.178403 298.159925 
L 132.860951 298.589635 
L 133.543499 298.804915 
L 134.226046 298.804915 
L 134.908594 298.589635 
L 135.591142 298.159925 
L 136.27369 297.517481 
L 137.297511 296.160712 
L 138.321333 294.343234 
L 139.345154 292.081177 
L 140.71025 288.408786 
L 142.075345 284.040078 
L 143.781715 277.70592 
L 145.829358 269.032915 
L 148.218275 257.828461 
L 157.091395 215.0128 
L 158.797764 208.164347 
L 160.504134 202.204589 
L 161.869229 198.17609 
L 163.234325 194.8743 
L 164.258146 192.906638 
L 165.281968 191.394756 
L 166.305789 190.352075 
L 166.988337 189.922365 
L 167.670885 189.707085 
L 168.353433 189.707085 
L 169.03598 189.922365 
L 169.718528 190.352075 
L 170.401076 190.994519 
L 171.424897 192.351288 
L 172.448719 194.168766 
L 173.472541 196.430823 
L 174.837636 200.103214 
L 176.202731 204.471922 
L 177.909101 210.80608 
L 179.956744 219.479085 
L 182.345661 230.683539 
L 191.218781 273.4992 
L 192.925151 280.347653 
L 194.63152 286.307411 
L 195.996616 290.33591 
L 197.361711 293.6377 
L 198.385533 295.605362 
L 199.409354 297.117244 
L 200.433176 298.159925 
L 201.115723 298.589635 
L 201.798271 298.804915 
L 202.480819 298.804915 
L 203.163367 298.589635 
L 203.845914 298.159925 
L 204.528462 297.517481 
L 205.552284 296.160712 
L 206.576105 294.343234 
L 207.599927 292.081177 
L 208.965022 288.408786 
L 210.330118 284.040078 
L 212.036487 277.70592 
L 214.08413 269.032915 
L 216.473047 257.828461 
L 225.346168 215.0128 
L 227.052537 208.164347 
L 228.758906 202.204589 
L 230.124002 198.17609 
L 231.489097 194.8743 
L 232.512919 192.906638 
L 233.53674 191.394756 
L 234.560562 190.352075 
L 235.24311 189.922365 
L 235.925657 189.707085 
L 236.608205 189.707085 
L 237.290753 189.922365 
L 237.973301 190.352075 
L 238.655848 190.994519 
L 239.67967 192.351288 
L 240.703492 194.168766 
L 241.727313 196.430823 
L 243.092409 200.103214 
L 244.457504 204.471922 
L 246.163873 210.80608 
L 248.211516 219.479085 
L 250.600434 230.683539 
L 259.473554 273.4992 
L 261.179923 280.347653 
L 262.886293 286.307411 
L 264.251388 290.33591 
L 265.616483 293.6377 
L 266.640305 295.605362 
L 267.664127 297.117244 
L 268.687948 298.159925 
L 269.370496 298.589635 
L 270.053044 298.804915 
L 270.735591 298.804915 
L 271.418139 298.589635 
L 272.100687 298.159925 
L 272.783235 297.517481 
L 273.807056 296.160712 
L 274.830878 294.343234 
L 275.854699 292.081177 
L 277.219795 288.408786 
L 278.58489 284.040078 
L 280.29126 277.70592 
L 282.338903 269.032915 
L 284.72782 257.828461 
L 293.60094 215.0128 
L 295.30731 208.164347 
L 297.013679 202.204589 
L 298.378774 198.17609 
L 299.74387 194.8743 
L 300.767691 192.906638 
L 301.791513 191.394756 
L 302.815334 190.352075 
L 303.497882 189.922365 
L 304.18043 189.707085 
L 304.862978 189.707085 
L 305.545525 189.922365 
L 306.228073 190.352075 
L 306.910621 190.994519 
L 307.934442 192.351288 
L 308.958264 194.168766 
L 309.982086 196.430823 
L 311.347181 200.103214 
L 312.712277 204.471922 
L 314.418646 210.80608 
L 316.466289 219.479085 
L 318.855206 230.683539 
L 327.728326 273.4992 
L 329.434696 280.347653 
L 331.141065 286.307411 
L 332.506161 290.33591 
L 333.871256 293.6377 
L 334.895078 295.605362 
L 335.918899 297.117244 
L 336.942721 298.159925 
L 337.625268 298.589635 
L 338.307816 298.804915 
L 338.990364 298.804915 
L 339.672912 298.589635 
L 340.355459 298.159925 
L 341.038007 297.517481 
L 342.061829 296.160712 
L 343.08565 294.343234 
L 344.109472 292.081177 
L 345.474567 288.408786 
L 346.839663 284.040078 
L 348.546032 277.70592 
L 350.593675 269.032915 
L 352.982592 257.828461 
L 361.855713 215.0128 
L 363.562082 208.164347 
L 365.268451 202.204589 
L 366.633547 198.17609 
L 367.998642 194.8743 
L 369.022464 192.906638 
L 370.046285 191.394756 
L 371.070107 190.352075 
L 371.752655 189.922365 
L 372.435202 189.707085 
L 373.11775 189.707085 
L 373.800298 189.922365 
L 374.482846 190.352075 
L 375.165393 190.994519 
L 376.189215 192.351288 
L 377.213037 194.168766 
L 378.236858 196.430823 
L 379.601954 200.103214 
L 380.967049 204.471922 
L 382.673418 210.80608 
L 384.721062 219.479085 
L 387.109979 230.683539 
L 395.983099 273.4992 
L 397.689468 280.347653 
L 399.395838 286.307411 
L 400.760933 290.33591 
L 402.126028 293.6377 
L 403.14985 295.605362 
L 404.173672 297.117244 
L 405.197493 298.159925 
L 405.880041 298.589635 
L 406.562589 298.804915 
L 407.245136 298.804915 
L 407.927684 298.589635 
L 408.610232 298.159925 
L 409.29278 297.517481 
L 410.316601 296.160712 
L 411.340423 294.343234 
L 412.364244 292.081177 
L 413.72934 288.408786 
L 415.094435 284.040078 
L 416.800805 277.70592 
L 418.848448 269.032915 
L 421.237365 257.828461 
L 430.110485 215.0128 
L 431.816855 208.164347 
L 433.523224 202.204589 
L 434.888319 198.17609 
L 436.253415 194.8743 
L 437.277236 192.906638 
L 438.301058 191.394756 
L 439.32488 190.352075 
L 440.007427 189.922365 
L 440.689975 189.707085 
L 441.372523 189.707085 
L 442.05507 189.922365 
L 442.737618 190.352075 
L 443.420166 190.994519 
L 444.443987 192.351288 
L 445.467809 194.168766 
L 446.491631 196.430823 
L 447.856726 200.103214 
L 449.221822 204.471922 
L 450.928191 210.80608 
L 452.975834 219.479085 
L 455.364751 230.683539 
L 464.237871 273.4992 
L 465.944241 280.347653 
L 467.65061 286.307411 
L 469.015706 290.33591 
L 470.380801 293.6377 
L 471.404623 295.605362 
L 472.428444 297.117244 
L 473.452266 298.159925 
L 474.134814 298.589635 
L 474.817361 298.804915 
L 475.499909 298.804915 
L 476.182457 298.589635 
L 476.865004 298.159925 
L 477.547552 297.517481 
L 478.571374 296.160712 
L 479.595195 294.343234 
L 480.619017 292.081177 
L 481.984112 288.408786 
L 483.349208 284.040078 
L 485.055577 277.70592 
L 487.10322 269.032915 
L 489.492137 257.828461 
L 498.365258 215.0128 
L 500.071627 208.164347 
L 501.777996 202.204589 
L 503.143092 198.17609 
L 504.508187 194.8743 
L 505.532009 192.906638 
L 506.55583 191.394756 
L 507.579652 190.352075 
L 508.2622 189.922365 
L 508.944747 189.707085 
L 509.627295 189.707085 
L 510.309843 189.922365 
L 510.992391 190.352075 
L 511.674938 190.994519 
L 512.69876 192.351288 
L 513.722582 194.168766 
L 514.746403 196.430823 
L 516.111499 200.103214 
L 517.476594 204.471922 
L 519.182963 210.80608 
L 521.230607 219.479085 
L 523.619524 230.683539 
L 532.492644 273.4992 
L 534.199013 280.347653 
L 535.905383 286.307411 
L 537.270478 290.33591 
L 538.635574 293.6377 
L 539.659395 295.605362 
L 540.683217 297.117244 
L 541.707038 298.159925 
L 542.389586 298.589635 
L 543.072134 298.804915 
L 543.754681 298.804915 
L 544.437229 298.589635 
L 545.119777 298.159925 
L 545.802325 297.517481 
L 546.826146 296.160712 
L 547.849968 294.343234 
L 548.873789 292.081177 
L 550.238885 288.408786 
L 551.60398 284.040078 
L 553.31035 277.70592 
L 555.357993 269.032915 
L 557.74691 257.828461 
L 566.62003 215.0128 
L 568.3264 208.164347 
L 570.032769 202.204589 
L 571.397864 198.17609 
L 572.76296 194.8743 
L 573.786781 192.906638 
L 574.810603 191.394756 
L 575.834425 190.352075 
L 576.516972 189.922365 
L 577.19952 189.707085 
L 577.19952 189.707085 
" clip-path="url(#p9a045de409)" style="fill: none; stroke: #1f77b4; stroke-width: 1.5; stroke-linecap: square"/>
   </g>
   <g id="patch_8">
    <path d="M 65.63 309.747013 
L 65.63 178.764987 
" style="fill: none; stroke: #000000; stroke-width: 2.5; stroke-linejoin: miter; stroke-linecap: square"/>
   </g>
   <g id="patch_9">
    <path d="M 577.19952 309.747013 
L 577.19952 178.764987 
" style="fill: none; stroke: #000000; stroke-width: 2.5; stroke-linejoin: miter; stroke-linecap: square"/>
   </g>
   <g id="patch_10">
    <path d="M 65.63 309.747013 
L 577.19952 309.747013 
" style="fill: none; stroke: #000000; stroke-width: 2.5; stroke-linejoin: miter; stroke-linecap: square"/>
   </g>
   <g id="patch_11">
    <path d="M 65.63 178.764987 
L 577.19952 178.764987 
" style="fill: none; stroke: #000000; stroke-width: 2.5; stroke-linejoin: miter; stroke-linecap: square"/>
   </g>
  </g>
  <g id="axes_3">
   <g id="patch_12">
    <path d="M 65.63 456.72952 
L 577.19952 456.72952 
L 577.19952 325.747493 
L 65.63 325.747493 
z
" style="fill: #ffffff"/>
   </g>
   <g id="matplotlib.axis_5">
    <g id="xtick_17">
     <g id="line2d_53">
      <path d="M 65.63 456.72952 
L 65.63 325.747493 
" clip-path="url(#p1db280d7bb)" style="fill: none; stroke: #b0b0b0; stroke-width: 0.8; stroke-linecap: square"/>
     </g>
     <g id="line2d_54">
      <g>
       <use xlink:href="#m9e5a9cbbde" x="65.63" y="456.72952" style="stroke: #000000; stroke-width: 2.5"/>
      </g>
     </g>
     <g id="text_9">
      <!-- 0 -->
      <g transform="translate(60.54 482.38702) scale(0.16 -0.16)">
       <use xlink:href="#DejaVuSans-30"/>
      </g>
     </g>
    </g>
    <g id="xtick_18">
     <g id="line2d_55">
      <path d="M 133.884773 456.72952 
L 133.884773 325.747493 
" clip-path="url(#p1db280d7bb)" style="fill: none; stroke: #b0b0b0; stroke-width: 0.8; stroke-linecap: square"/>
     </g>
     <g id="line2d_56">
      <g>
       <use xlink:href="#m9e5a9cbbde" x="133.884773" y="456.72952" style="stroke: #000000; stroke-width: 2.5"/>
      </g>
     </g>
     <g id="text_10">
      <!-- 2 -->
      <g transform="translate(128.794773 482.38702) scale(0.16 -0.16)">
       <defs>
        <path id="DejaVuSans-32" d="M 1228 531 
L 3431 531 
L 3431 0 
L 469 0 
L 469 531 
Q 828 903 1448 1529 
Q 2069 2156 2228 2338 
Q 2531 2678 2651 2914 
Q 2772 3150 2772 3378 
Q 2772 3750 2511 3984 
Q 2250 4219 1831 4219 
Q 1534 4219 1204 4116 
Q 875 4013 500 3803 
L 500 4441 
Q 881 4594 1212 4672 
Q 1544 4750 1819 4750 
Q 2544 4750 2975 4387 
Q 3406 4025 3406 3419 
Q 3406 3131 3298 2873 
Q 3191 2616 2906 2266 
Q 2828 2175 2409 1742 
Q 1991 1309 1228 531 
z
" transform="scale(0.015625)"/>
       </defs>
       <use xlink:href="#DejaVuSans-32"/>
      </g>
     </g>
    </g>
    <g id="xtick_19">
     <g id="line2d_57">
      <path d="M 202.139545 456.72952 
L 202.139545 325.747493 
" clip-path="url(#p1db280d7bb)" style="fill: none; stroke: #b0b0b0; stroke-width: 0.8; stroke-linecap: square"/>
     </g>
     <g id="line2d_58">
      <g>
       <use xlink:href="#m9e5a9cbbde" x="202.139545" y="456.72952" style="stroke: #000000; stroke-width: 2.5"/>
      </g>
     </g>
     <g id="text_11">
      <!-- 4 -->
      <g transform="translate(197.049545 482.38702) scale(0.16 -0.16)">
       <defs>
        <path id="DejaVuSans-34" d="M 2419 4116 
L 825 1625 
L 2419 1625 
L 2419 4116 
z
M 2253 4666 
L 3047 4666 
L 3047 1625 
L 3713 1625 
L 3713 1100 
L 3047 1100 
L 3047 0 
L 2419 0 
L 2419 1100 
L 313 1100 
L 313 1709 
L 2253 4666 
z
" transform="scale(0.015625)"/>
       </defs>
       <use xlink:href="#DejaVuSans-34"/>
      </g>
     </g>
    </g>
    <g id="xtick_20">
     <g id="line2d_59">
      <path d="M 270.394318 456.72952 
L 270.394318 325.747493 
" clip-path="url(#p1db280d7bb)" style="fill: none; stroke: #b0b0b0; stroke-width: 0.8; stroke-linecap: square"/>
     </g>
     <g id="line2d_60">
      <g>
       <use xlink:href="#m9e5a9cbbde" x="270.394318" y="456.72952" style="stroke: #000000; stroke-width: 2.5"/>
      </g>
     </g>
     <g id="text_12">
      <!-- 6 -->
      <g transform="translate(265.304318 482.38702) scale(0.16 -0.16)">
       <defs>
        <path id="DejaVuSans-36" d="M 2113 2584 
Q 1688 2584 1439 2293 
Q 1191 2003 1191 1497 
Q 1191 994 1439 701 
Q 1688 409 2113 409 
Q 2538 409 2786 701 
Q 3034 994 3034 1497 
Q 3034 2003 2786 2293 
Q 2538 2584 2113 2584 
z
M 3366 4563 
L 3366 3988 
Q 3128 4100 2886 4159 
Q 2644 4219 2406 4219 
Q 1781 4219 1451 3797 
Q 1122 3375 1075 2522 
Q 1259 2794 1537 2939 
Q 1816 3084 2150 3084 
Q 2853 3084 3261 2657 
Q 3669 2231 3669 1497 
Q 3669 778 3244 343 
Q 2819 -91 2113 -91 
Q 1303 -91 875 529 
Q 447 1150 447 2328 
Q 447 3434 972 4092 
Q 1497 4750 2381 4750 
Q 2619 4750 2861 4703 
Q 3103 4656 3366 4563 
z
" transform="scale(0.015625)"/>
       </defs>
       <use xlink:href="#DejaVuSans-36"/>
      </g>
     </g>
    </g>
    <g id="xtick_21">
     <g id="line2d_61">
      <path d="M 338.64909 456.72952 
L 338.64909 325.747493 
" clip-path="url(#p1db280d7bb)" style="fill: none; stroke: #b0b0b0; stroke-width: 0.8; stroke-linecap: square"/>
     </g>
     <g id="line2d_62">
      <g>
       <use xlink:href="#m9e5a9cbbde" x="338.64909" y="456.72952" style="stroke: #000000; stroke-width: 2.5"/>
      </g>
     </g>
     <g id="text_13">
      <!-- 8 -->
      <g transform="translate(333.55909 482.38702) scale(0.16 -0.16)">
       <defs>
        <path id="DejaVuSans-38" d="M 2034 2216 
Q 1584 2216 1326 1975 
Q 1069 1734 1069 1313 
Q 1069 891 1326 650 
Q 1584 409 2034 409 
Q 2484 409 2743 651 
Q 3003 894 3003 1313 
Q 3003 1734 2745 1975 
Q 2488 2216 2034 2216 
z
M 1403 2484 
Q 997 2584 770 2862 
Q 544 3141 544 3541 
Q 544 4100 942 4425 
Q 1341 4750 2034 4750 
Q 2731 4750 3128 4425 
Q 3525 4100 3525 3541 
Q 3525 3141 3298 2862 
Q 3072 2584 2669 2484 
Q 3125 2378 3379 2068 
Q 3634 1759 3634 1313 
Q 3634 634 3220 271 
Q 2806 -91 2034 -91 
Q 1263 -91 848 271 
Q 434 634 434 1313 
Q 434 1759 690 2068 
Q 947 2378 1403 2484 
z
M 1172 3481 
Q 1172 3119 1398 2916 
Q 1625 2713 2034 2713 
Q 2441 2713 2670 2916 
Q 2900 3119 2900 3481 
Q 2900 3844 2670 4047 
Q 2441 4250 2034 4250 
Q 1625 4250 1398 4047 
Q 1172 3844 1172 3481 
z
" transform="scale(0.015625)"/>
       </defs>
       <use xlink:href="#DejaVuSans-38"/>
      </g>
     </g>
    </g>
    <g id="xtick_22">
     <g id="line2d_63">
      <path d="M 406.903863 456.72952 
L 406.903863 325.747493 
" clip-path="url(#p1db280d7bb)" style="fill: none; stroke: #b0b0b0; stroke-width: 0.8; stroke-linecap: square"/>
     </g>
     <g id="line2d_64">
      <g>
       <use xlink:href="#m9e5a9cbbde" x="406.903863" y="456.72952" style="stroke: #000000; stroke-width: 2.5"/>
      </g>
     </g>
     <g id="text_14">
      <!-- 10 -->
      <g transform="translate(396.723863 482.38702) scale(0.16 -0.16)">
       <use xlink:href="#DejaVuSans-31"/>
       <use xlink:href="#DejaVuSans-30" x="63.623047"/>
      </g>
     </g>
    </g>
    <g id="xtick_23">
     <g id="line2d_65">
      <path d="M 475.158635 456.72952 
L 475.158635 325.747493 
" clip-path="url(#p1db280d7bb)" style="fill: none; stroke: #b0b0b0; stroke-width: 0.8; stroke-linecap: square"/>
     </g>
     <g id="line2d_66">
      <g>
       <use xlink:href="#m9e5a9cbbde" x="475.158635" y="456.72952" style="stroke: #000000; stroke-width: 2.5"/>
      </g>
     </g>
     <g id="text_15">
      <!-- 12 -->
      <g transform="translate(464.978635 482.38702) scale(0.16 -0.16)">
       <use xlink:href="#DejaVuSans-31"/>
       <use xlink:href="#DejaVuSans-32" x="63.623047"/>
      </g>
     </g>
    </g>
    <g id="xtick_24">
     <g id="line2d_67">
      <path d="M 543.413408 456.72952 
L 543.413408 325.747493 
" clip-path="url(#p1db280d7bb)" style="fill: none; stroke: #b0b0b0; stroke-width: 0.8; stroke-linecap: square"/>
     </g>
     <g id="line2d_68">
      <g>
       <use xlink:href="#m9e5a9cbbde" x="543.413408" y="456.72952" style="stroke: #000000; stroke-width: 2.5"/>
      </g>
     </g>
     <g id="text_16">
      <!-- 14 -->
      <g transform="translate(533.233408 482.38702) scale(0.16 -0.16)">
       <use xlink:href="#DejaVuSans-31"/>
       <use xlink:href="#DejaVuSans-34" x="63.623047"/>
      </g>
     </g>
    </g>
    <g id="text_17">
     <!-- Time [s] -->
     <g transform="translate(288.88851 501.87202) scale(0.16 -0.16)">
      <defs>
       <path id="DejaVuSans-54" d="M -19 4666 
L 3928 4666 
L 3928 4134 
L 2272 4134 
L 2272 0 
L 1638 0 
L 1638 4134 
L -19 4134 
L -19 4666 
z
" transform="scale(0.015625)"/>
       <path id="DejaVuSans-69" d="M 603 3500 
L 1178 3500 
L 1178 0 
L 603 0 
L 603 3500 
z
M 603 4863 
L 1178 4863 
L 1178 4134 
L 603 4134 
L 603 4863 
z
" transform="scale(0.015625)"/>
       <path id="DejaVuSans-6d" d="M 3328 2828 
Q 3544 3216 3844 3400 
Q 4144 3584 4550 3584 
Q 5097 3584 5394 3201 
Q 5691 2819 5691 2113 
L 5691 0 
L 5113 0 
L 5113 2094 
Q 5113 2597 4934 2840 
Q 4756 3084 4391 3084 
Q 3944 3084 3684 2787 
Q 3425 2491 3425 1978 
L 3425 0 
L 2847 0 
L 2847 2094 
Q 2847 2600 2669 2842 
Q 2491 3084 2119 3084 
Q 1678 3084 1418 2786 
Q 1159 2488 1159 1978 
L 1159 0 
L 581 0 
L 581 3500 
L 1159 3500 
L 1159 2956 
Q 1356 3278 1631 3431 
Q 1906 3584 2284 3584 
Q 2666 3584 2933 3390 
Q 3200 3197 3328 2828 
z
" transform="scale(0.015625)"/>
       <path id="DejaVuSans-65" d="M 3597 1894 
L 3597 1613 
L 953 1613 
Q 991 1019 1311 708 
Q 1631 397 2203 397 
Q 2534 397 2845 478 
Q 3156 559 3463 722 
L 3463 178 
Q 3153 47 2828 -22 
Q 2503 -91 2169 -91 
Q 1331 -91 842 396 
Q 353 884 353 1716 
Q 353 2575 817 3079 
Q 1281 3584 2069 3584 
Q 2775 3584 3186 3129 
Q 3597 2675 3597 1894 
z
M 3022 2063 
Q 3016 2534 2758 2815 
Q 2500 3097 2075 3097 
Q 1594 3097 1305 2825 
Q 1016 2553 972 2059 
L 3022 2063 
z
" transform="scale(0.015625)"/>
       <path id="DejaVuSans-20" transform="scale(0.015625)"/>
       <path id="DejaVuSans-5b" d="M 550 4863 
L 1875 4863 
L 1875 4416 
L 1125 4416 
L 1125 -397 
L 1875 -397 
L 1875 -844 
L 550 -844 
L 550 4863 
z
" transform="scale(0.015625)"/>
       <path id="DejaVuSans-73" d="M 2834 3397 
L 2834 2853 
Q 2591 2978 2328 3040 
Q 2066 3103 1784 3103 
Q 1356 3103 1142 2972 
Q 928 2841 928 2578 
Q 928 2378 1081 2264 
Q 1234 2150 1697 2047 
L 1894 2003 
Q 2506 1872 2764 1633 
Q 3022 1394 3022 966 
Q 3022 478 2636 193 
Q 2250 -91 1575 -91 
Q 1294 -91 989 -36 
Q 684 19 347 128 
L 347 722 
Q 666 556 975 473 
Q 1284 391 1588 391 
Q 1994 391 2212 530 
Q 2431 669 2431 922 
Q 2431 1156 2273 1281 
Q 2116 1406 1581 1522 
L 1381 1569 
Q 847 1681 609 1914 
Q 372 2147 372 2553 
Q 372 3047 722 3315 
Q 1072 3584 1716 3584 
Q 2034 3584 2315 3537 
Q 2597 3491 2834 3397 
z
" transform="scale(0.015625)"/>
       <path id="DejaVuSans-5d" d="M 1947 4863 
L 1947 -844 
L 622 -844 
L 622 -397 
L 1369 -397 
L 1369 4416 
L 622 4416 
L 622 4863 
L 1947 4863 
z
" transform="scale(0.015625)"/>
      </defs>
      <use xlink:href="#DejaVuSans-54"/>
      <use xlink:href="#DejaVuSans-69" x="57.958984"/>
      <use xlink:href="#DejaVuSans-6d" x="85.742188"/>
      <use xlink:href="#DejaVuSans-65" x="183.154297"/>
      <use xlink:href="#DejaVuSans-20" x="244.677734"/>
      <use xlink:href="#DejaVuSans-5b" x="276.464844"/>
      <use xlink:href="#DejaVuSans-73" x="315.478516"/>
      <use xlink:href="#DejaVuSans-5d" x="367.578125"/>
     </g>
    </g>
   </g>
   <g id="matplotlib.axis_6">
    <g id="ytick_7">
     <g id="line2d_69">
      <path d="M 65.63 429.141119 
L 577.19952 429.141119 
" clip-path="url(#p1db280d7bb)" style="fill: none; stroke: #b0b0b0; stroke-width: 0.8; stroke-linecap: square"/>
     </g>
     <g id="line2d_70">
      <g>
       <use xlink:href="#ma31bb7e1d8" x="65.63" y="429.141119" style="stroke: #000000; stroke-width: 2.5"/>
      </g>
     </g>
     <g id="text_18">
      <!-- −2 -->
      <g transform="translate(28.5425 435.219869) scale(0.16 -0.16)">
       <defs>
        <path id="DejaVuSans-2212" d="M 678 2272 
L 4684 2272 
L 4684 1741 
L 678 1741 
L 678 2272 
z
" transform="scale(0.015625)"/>
       </defs>
       <use xlink:href="#DejaVuSans-2212"/>
       <use xlink:href="#DejaVuSans-32" x="83.789062"/>
      </g>
     </g>
    </g>
    <g id="ytick_8">
     <g id="line2d_71">
      <path d="M 65.63 391.238507 
L 577.19952 391.238507 
" clip-path="url(#p1db280d7bb)" style="fill: none; stroke: #b0b0b0; stroke-width: 0.8; stroke-linecap: square"/>
     </g>
     <g id="line2d_72">
      <g>
       <use xlink:href="#ma31bb7e1d8" x="65.63" y="391.238507" style="stroke: #000000; stroke-width: 2.5"/>
      </g>
     </g>
     <g id="text_19">
      <!-- 0 -->
      <g transform="translate(41.95 397.317257) scale(0.16 -0.16)">
       <use xlink:href="#DejaVuSans-30"/>
      </g>
     </g>
    </g>
    <g id="ytick_9">
     <g id="line2d_73">
      <path d="M 65.63 353.335894 
L 577.19952 353.335894 
" clip-path="url(#p1db280d7bb)" style="fill: none; stroke: #b0b0b0; stroke-width: 0.8; stroke-linecap: square"/>
     </g>
     <g id="line2d_74">
      <g>
       <use xlink:href="#ma31bb7e1d8" x="65.63" y="353.335894" style="stroke: #000000; stroke-width: 2.5"/>
      </g>
     </g>
     <g id="text_20">
      <!-- 2 -->
      <g transform="translate(41.95 359.414644) scale(0.16 -0.16)">
       <use xlink:href="#DejaVuSans-32"/>
      </g>
     </g>
    </g>
    <g id="text_21">
     <!-- Phase -->
     <g transform="translate(21.215 415.124757) rotate(-90) scale(0.16 -0.16)">
      <defs>
       <path id="DejaVuSans-50" d="M 1259 4147 
L 1259 2394 
L 2053 2394 
Q 2494 2394 2734 2622 
Q 2975 2850 2975 3272 
Q 2975 3691 2734 3919 
Q 2494 4147 2053 4147 
L 1259 4147 
z
M 628 4666 
L 2053 4666 
Q 2838 4666 3239 4311 
Q 3641 3956 3641 3272 
Q 3641 2581 3239 2228 
Q 2838 1875 2053 1875 
L 1259 1875 
L 1259 0 
L 628 0 
L 628 4666 
z
" transform="scale(0.015625)"/>
       <path id="DejaVuSans-68" d="M 3513 2113 
L 3513 0 
L 2938 0 
L 2938 2094 
Q 2938 2591 2744 2837 
Q 2550 3084 2163 3084 
Q 1697 3084 1428 2787 
Q 1159 2491 1159 1978 
L 1159 0 
L 581 0 
L 581 4863 
L 1159 4863 
L 1159 2956 
Q 1366 3272 1645 3428 
Q 1925 3584 2291 3584 
Q 2894 3584 3203 3211 
Q 3513 2838 3513 2113 
z
" transform="scale(0.015625)"/>
       <path id="DejaVuSans-61" d="M 2194 1759 
Q 1497 1759 1228 1600 
Q 959 1441 959 1056 
Q 959 750 1161 570 
Q 1363 391 1709 391 
Q 2188 391 2477 730 
Q 2766 1069 2766 1631 
L 2766 1759 
L 2194 1759 
z
M 3341 1997 
L 3341 0 
L 2766 0 
L 2766 531 
Q 2569 213 2275 61 
Q 1981 -91 1556 -91 
Q 1019 -91 701 211 
Q 384 513 384 1019 
Q 384 1609 779 1909 
Q 1175 2209 1959 2209 
L 2766 2209 
L 2766 2266 
Q 2766 2663 2505 2880 
Q 2244 3097 1772 3097 
Q 1472 3097 1187 3025 
Q 903 2953 641 2809 
L 641 3341 
Q 956 3463 1253 3523 
Q 1550 3584 1831 3584 
Q 2591 3584 2966 3190 
Q 3341 2797 3341 1997 
z
" transform="scale(0.015625)"/>
      </defs>
      <use xlink:href="#DejaVuSans-50"/>
      <use xlink:href="#DejaVuSans-68" x="60.302734"/>
      <use xlink:href="#DejaVuSans-61" x="123.681641"/>
      <use xlink:href="#DejaVuSans-73" x="184.960938"/>
      <use xlink:href="#DejaVuSans-65" x="237.060547"/>
     </g>
    </g>
   </g>
   <g id="line2d_75">
    <path d="M 65.63 391.238507 
L 137.297511 391.238507 
L 137.638785 395.109049 
L 180.980566 395.109049 
L 181.321839 373.685239 
L 246.163873 373.685239 
L 246.505147 370.996508 
L 280.632533 370.996508 
L 280.973807 401.070067 
L 390.522717 401.070067 
L 390.863991 377.846957 
L 558.088184 377.846957 
L 558.429458 404.975665 
L 577.19952 404.975665 
L 577.19952 404.975665 
" clip-path="url(#p1db280d7bb)" style="fill: none; stroke: #1f77b4; stroke-width: 1.5; stroke-linecap: square"/>
   </g>
   <g id="patch_13">
    <path d="M 65.63 456.72952 
L 65.63 325.747493 
" style="fill: none; stroke: #000000; stroke-width: 2.5; stroke-linejoin: miter; stroke-linecap: square"/>
   </g>
   <g id="patch_14">
    <path d="M 577.19952 456.72952 
L 577.19952 325.747493 
" style="fill: none; stroke: #000000; stroke-width: 2.5; stroke-linejoin: miter; stroke-linecap: square"/>
   </g>
   <g id="patch_15">
    <path d="M 65.63 456.72952 
L 577.19952 456.72952 
" style="fill: none; stroke: #000000; stroke-width: 2.5; stroke-linejoin: miter; stroke-linecap: square"/>
   </g>
   <g id="patch_16">
    <path d="M 65.63 325.747493 
L 577.19952 325.747493 
" style="fill: none; stroke: #000000; stroke-width: 2.5; stroke-linejoin: miter; stroke-linecap: square"/>
   </g>
  </g>
  <g id="text_22">
   <!-- Population evolution with decay -->
   <g transform="translate(138.80226 21.789) scale(0.192 -0.192)">
    <defs>
     <path id="DejaVuSans-6f" d="M 1959 3097 
Q 1497 3097 1228 2736 
Q 959 2375 959 1747 
Q 959 1119 1226 758 
Q 1494 397 1959 397 
Q 2419 397 2687 759 
Q 2956 1122 2956 1747 
Q 2956 2369 2687 2733 
Q 2419 3097 1959 3097 
z
M 1959 3584 
Q 2709 3584 3137 3096 
Q 3566 2609 3566 1747 
Q 3566 888 3137 398 
Q 2709 -91 1959 -91 
Q 1206 -91 779 398 
Q 353 888 353 1747 
Q 353 2609 779 3096 
Q 1206 3584 1959 3584 
z
" transform="scale(0.015625)"/>
     <path id="DejaVuSans-70" d="M 1159 525 
L 1159 -1331 
L 581 -1331 
L 581 3500 
L 1159 3500 
L 1159 2969 
Q 1341 3281 1617 3432 
Q 1894 3584 2278 3584 
Q 2916 3584 3314 3078 
Q 3713 2572 3713 1747 
Q 3713 922 3314 415 
Q 2916 -91 2278 -91 
Q 1894 -91 1617 61 
Q 1341 213 1159 525 
z
M 3116 1747 
Q 3116 2381 2855 2742 
Q 2594 3103 2138 3103 
Q 1681 3103 1420 2742 
Q 1159 2381 1159 1747 
Q 1159 1113 1420 752 
Q 1681 391 2138 391 
Q 2594 391 2855 752 
Q 3116 1113 3116 1747 
z
" transform="scale(0.015625)"/>
     <path id="DejaVuSans-75" d="M 544 1381 
L 544 3500 
L 1119 3500 
L 1119 1403 
Q 1119 906 1312 657 
Q 1506 409 1894 409 
Q 2359 409 2629 706 
Q 2900 1003 2900 1516 
L 2900 3500 
L 3475 3500 
L 3475 0 
L 2900 0 
L 2900 538 
Q 2691 219 2414 64 
Q 2138 -91 1772 -91 
Q 1169 -91 856 284 
Q 544 659 544 1381 
z
M 1991 3584 
L 1991 3584 
z
" transform="scale(0.015625)"/>
     <path id="DejaVuSans-6c" d="M 603 4863 
L 1178 4863 
L 1178 0 
L 603 0 
L 603 4863 
z
" transform="scale(0.015625)"/>
     <path id="DejaVuSans-74" d="M 1172 4494 
L 1172 3500 
L 2356 3500 
L 2356 3053 
L 1172 3053 
L 1172 1153 
Q 1172 725 1289 603 
Q 1406 481 1766 481 
L 2356 481 
L 2356 0 
L 1766 0 
Q 1100 0 847 248 
Q 594 497 594 1153 
L 594 3053 
L 172 3053 
L 172 3500 
L 594 3500 
L 594 4494 
L 1172 4494 
z
" transform="scale(0.015625)"/>
     <path id="DejaVuSans-6e" d="M 3513 2113 
L 3513 0 
L 2938 0 
L 2938 2094 
Q 2938 2591 2744 2837 
Q 2550 3084 2163 3084 
Q 1697 3084 1428 2787 
Q 1159 2491 1159 1978 
L 1159 0 
L 581 0 
L 581 3500 
L 1159 3500 
L 1159 2956 
Q 1366 3272 1645 3428 
Q 1925 3584 2291 3584 
Q 2894 3584 3203 3211 
Q 3513 2838 3513 2113 
z
" transform="scale(0.015625)"/>
     <path id="DejaVuSans-76" d="M 191 3500 
L 800 3500 
L 1894 563 
L 2988 3500 
L 3597 3500 
L 2284 0 
L 1503 0 
L 191 3500 
z
" transform="scale(0.015625)"/>
     <path id="DejaVuSans-77" d="M 269 3500 
L 844 3500 
L 1563 769 
L 2278 3500 
L 2956 3500 
L 3675 769 
L 4391 3500 
L 4966 3500 
L 4050 0 
L 3372 0 
L 2619 2869 
L 1863 0 
L 1184 0 
L 269 3500 
z
" transform="scale(0.015625)"/>
     <path id="DejaVuSans-64" d="M 2906 2969 
L 2906 4863 
L 3481 4863 
L 3481 0 
L 2906 0 
L 2906 525 
Q 2725 213 2448 61 
Q 2172 -91 1784 -91 
Q 1150 -91 751 415 
Q 353 922 353 1747 
Q 353 2572 751 3078 
Q 1150 3584 1784 3584 
Q 2172 3584 2448 3432 
Q 2725 3281 2906 2969 
z
M 947 1747 
Q 947 1113 1208 752 
Q 1469 391 1925 391 
Q 2381 391 2643 752 
Q 2906 1113 2906 1747 
Q 2906 2381 2643 2742 
Q 2381 3103 1925 3103 
Q 1469 3103 1208 2742 
Q 947 2381 947 1747 
z
" transform="scale(0.015625)"/>
     <path id="DejaVuSans-63" d="M 3122 3366 
L 3122 2828 
Q 2878 2963 2633 3030 
Q 2388 3097 2138 3097 
Q 1578 3097 1268 2742 
Q 959 2388 959 1747 
Q 959 1106 1268 751 
Q 1578 397 2138 397 
Q 2388 397 2633 464 
Q 2878 531 3122 666 
L 3122 134 
Q 2881 22 2623 -34 
Q 2366 -91 2075 -91 
Q 1284 -91 818 406 
Q 353 903 353 1747 
Q 353 2603 823 3093 
Q 1294 3584 2113 3584 
Q 2378 3584 2631 3529 
Q 2884 3475 3122 3366 
z
" transform="scale(0.015625)"/>
     <path id="DejaVuSans-79" d="M 2059 -325 
Q 1816 -950 1584 -1140 
Q 1353 -1331 966 -1331 
L 506 -1331 
L 506 -850 
L 844 -850 
Q 1081 -850 1212 -737 
Q 1344 -625 1503 -206 
L 1606 56 
L 191 3500 
L 800 3500 
L 1894 763 
L 2988 3500 
L 3597 3500 
L 2059 -325 
z
" transform="scale(0.015625)"/>
    </defs>
    <use xlink:href="#DejaVuSans-50"/>
    <use xlink:href="#DejaVuSans-6f" x="56.677734"/>
    <use xlink:href="#DejaVuSans-70" x="117.859375"/>
    <use xlink:href="#DejaVuSans-75" x="181.335938"/>
    <use xlink:href="#DejaVuSans-6c" x="244.714844"/>
    <use xlink:href="#DejaVuSans-61" x="272.498047"/>
    <use xlink:href="#DejaVuSans-74" x="333.777344"/>
    <use xlink:href="#DejaVuSans-69" x="372.986328"/>
    <use xlink:href="#DejaVuSans-6f" x="400.769531"/>
    <use xlink:href="#DejaVuSans-6e" x="461.951172"/>
    <use xlink:href="#DejaVuSans-20" x="525.330078"/>
    <use xlink:href="#DejaVuSans-65" x="557.117188"/>
    <use xlink:href="#DejaVuSans-76" x="618.640625"/>
    <use xlink:href="#DejaVuSans-6f" x="677.820312"/>
    <use xlink:href="#DejaVuSans-6c" x="739.001953"/>
    <use xlink:href="#DejaVuSans-75" x="766.785156"/>
    <use xlink:href="#DejaVuSans-74" x="830.164062"/>
    <use xlink:href="#DejaVuSans-69" x="869.373047"/>
    <use xlink:href="#DejaVuSans-6f" x="897.15625"/>
    <use xlink:href="#DejaVuSans-6e" x="958.337891"/>
    <use xlink:href="#DejaVuSans-20" x="1021.716797"/>
    <use xlink:href="#DejaVuSans-77" x="1053.503906"/>
    <use xlink:href="#DejaVuSans-69" x="1135.291016"/>
    <use xlink:href="#DejaVuSans-74" x="1163.074219"/>
    <use xlink:href="#DejaVuSans-68" x="1202.283203"/>
    <use xlink:href="#DejaVuSans-20" x="1265.662109"/>
    <use xlink:href="#DejaVuSans-64" x="1297.449219"/>
    <use xlink:href="#DejaVuSans-65" x="1360.925781"/>
    <use xlink:href="#DejaVuSans-63" x="1422.449219"/>
    <use xlink:href="#DejaVuSans-61" x="1477.429688"/>
    <use xlink:href="#DejaVuSans-79" x="1538.708984"/>
   </g>
  </g>
 </g>
 <defs>
  <clipPath id="pd7d323e8f1">
   <rect x="65.63" y="31.78248" width="511.56952" height="130.982027"/>
  </clipPath>
  <clipPath id="p9a045de409">
   <rect x="65.63" y="178.764987" width="511.56952" height="130.982027"/>
  </clipPath>
  <clipPath id="p1db280d7bb">
   <rect x="65.63" y="325.747493" width="511.56952" height="130.982027"/>
  </clipPath>
 </defs>
</svg>
