<?xml version="1.0" encoding="utf-8" standalone="no"?>
<!DOCTYPE svg PUBLIC "-//W3C//DTD SVG 1.1//EN"
  "http://www.w3.org/Graphics/SVG/1.1/DTD/svg11.dtd">
<svg xmlns:xlink="http://www.w3.org/1999/xlink" width="630.83pt" height="416.134pt" viewBox="0 0 630.83 416.134" xmlns="http://www.w3.org/2000/svg" version="1.1">
 <metadata>
  <rdf:RDF xmlns:dc="http://purl.org/dc/elements/1.1/" xmlns:cc="http://creativecommons.org/ns#" xmlns:rdf="http://www.w3.org/1999/02/22-rdf-syntax-ns#">
   <cc:Work>
    <dc:type rdf:resource="http://purl.org/dc/dcmitype/StillImage"/>
    <dc:date>2024-08-10T22:32:41.661289</dc:date>
    <dc:format>image/svg+xml</dc:format>
    <dc:creator>
     <cc:Agent>
      <dc:title>Matplotlib v3.7.1, https://matplotlib.org/</dc:title>
     </cc:Agent>
    </dc:creator>
   </cc:Work>
  </rdf:RDF>
 </metadata>
 <defs>
  <style type="text/css">*{stroke-linejoin: round; stroke-linecap: butt}</style>
 </defs>
 <g id="figure_1">
  <g id="patch_1">
   <path d="M 0 416.134 
L 630.83 416.134 
L 630.83 0 
L 0 0 
z
" style="fill: #ffffff"/>
  </g>
  <g id="axes_1">
   <g id="patch_2">
    <path d="M 65.63 360.429 
L 623.63 360.429 
L 623.63 27.789 
L 65.63 27.789 
z
" style="fill: #ffffff"/>
   </g>
   <g id="matplotlib.axis_1">
    <g id="xtick_1">
     <g id="line2d_1">
      <path d="M 90.993636 360.429 
L 90.993636 27.789 
" clip-path="url(#pf95e39c892)" style="fill: none; stroke: #b0b0b0; stroke-width: 0.8; stroke-linecap: square"/>
     </g>
     <g id="line2d_2">
      <defs>
       <path id="m3f2c642a63" d="M 0 0 
L 0 10 
" style="stroke: #000000; stroke-width: 2.5"/>
      </defs>
      <g>
       <use xlink:href="#m3f2c642a63" x="90.993636" y="360.429" style="stroke: #000000; stroke-width: 2.5"/>
      </g>
     </g>
     <g id="text_1">
      <!-- −6 -->
      <g transform="translate(79.199886 386.0865) scale(0.16 -0.16)">
       <defs>
        <path id="DejaVuSans-2212" d="M 678 2272 
L 4684 2272 
L 4684 1741 
L 678 1741 
L 678 2272 
z
" transform="scale(0.015625)"/>
        <path id="DejaVuSans-36" d="M 2113 2584 
Q 1688 2584 1439 2293 
Q 1191 2003 1191 1497 
Q 1191 994 1439 701 
Q 1688 409 2113 409 
Q 2538 409 2786 701 
Q 3034 994 3034 1497 
Q 3034 2003 2786 2293 
Q 2538 2584 2113 2584 
z
M 3366 4563 
L 3366 3988 
Q 3128 4100 2886 4159 
Q 2644 4219 2406 4219 
Q 1781 4219 1451 3797 
Q 1122 3375 1075 2522 
Q 1259 2794 1537 2939 
Q 1816 3084 2150 3084 
Q 2853 3084 3261 2657 
Q 3669 2231 3669 1497 
Q 3669 778 3244 343 
Q 2819 -91 2113 -91 
Q 1303 -91 875 529 
Q 447 1150 447 2328 
Q 447 3434 972 4092 
Q 1497 4750 2381 4750 
Q 2619 4750 2861 4703 
Q 3103 4656 3366 4563 
z
" transform="scale(0.015625)"/>
       </defs>
       <use xlink:href="#DejaVuSans-2212"/>
       <use xlink:href="#DejaVuSans-36" x="83.789062"/>
      </g>
     </g>
    </g>
    <g id="xtick_2">
     <g id="line2d_3">
      <path d="M 175.539091 360.429 
L 175.539091 27.789 
" clip-path="url(#pf95e39c892)" style="fill: none; stroke: #b0b0b0; stroke-width: 0.8; stroke-linecap: square"/>
     </g>
     <g id="line2d_4">
      <g>
       <use xlink:href="#m3f2c642a63" x="175.539091" y="360.429" style="stroke: #000000; stroke-width: 2.5"/>
      </g>
     </g>
     <g id="text_2">
      <!-- −4 -->
      <g transform="translate(163.745341 386.0865) scale(0.16 -0.16)">
       <defs>
        <path id="DejaVuSans-34" d="M 2419 4116 
L 825 1625 
L 2419 1625 
L 2419 4116 
z
M 2253 4666 
L 3047 4666 
L 3047 1625 
L 3713 1625 
L 3713 1100 
L 3047 1100 
L 3047 0 
L 2419 0 
L 2419 1100 
L 313 1100 
L 313 1709 
L 2253 4666 
z
" transform="scale(0.015625)"/>
       </defs>
       <use xlink:href="#DejaVuSans-2212"/>
       <use xlink:href="#DejaVuSans-34" x="83.789062"/>
      </g>
     </g>
    </g>
    <g id="xtick_3">
     <g id="line2d_5">
      <path d="M 260.084545 360.429 
L 260.084545 27.789 
" clip-path="url(#pf95e39c892)" style="fill: none; stroke: #b0b0b0; stroke-width: 0.8; stroke-linecap: square"/>
     </g>
     <g id="line2d_6">
      <g>
       <use xlink:href="#m3f2c642a63" x="260.084545" y="360.429" style="stroke: #000000; stroke-width: 2.5"/>
      </g>
     </g>
     <g id="text_3">
      <!-- −2 -->
      <g transform="translate(248.290795 386.0865) scale(0.16 -0.16)">
       <defs>
        <path id="DejaVuSans-32" d="M 1228 531 
L 3431 531 
L 3431 0 
L 469 0 
L 469 531 
Q 828 903 1448 1529 
Q 2069 2156 2228 2338 
Q 2531 2678 2651 2914 
Q 2772 3150 2772 3378 
Q 2772 3750 2511 3984 
Q 2250 4219 1831 4219 
Q 1534 4219 1204 4116 
Q 875 4013 500 3803 
L 500 4441 
Q 881 4594 1212 4672 
Q 1544 4750 1819 4750 
Q 2544 4750 2975 4387 
Q 3406 4025 3406 3419 
Q 3406 3131 3298 2873 
Q 3191 2616 2906 2266 
Q 2828 2175 2409 1742 
Q 1991 1309 1228 531 
z
" transform="scale(0.015625)"/>
       </defs>
       <use xlink:href="#DejaVuSans-2212"/>
       <use xlink:href="#DejaVuSans-32" x="83.789062"/>
      </g>
     </g>
    </g>
    <g id="xtick_4">
     <g id="line2d_7">
      <path d="M 344.63 360.429 
L 344.63 27.789 
" clip-path="url(#pf95e39c892)" style="fill: none; stroke: #b0b0b0; stroke-width: 0.8; stroke-linecap: square"/>
     </g>
     <g id="line2d_8">
      <g>
       <use xlink:href="#m3f2c642a63" x="344.63" y="360.429" style="stroke: #000000; stroke-width: 2.5"/>
      </g>
     </g>
     <g id="text_4">
      <!-- 0 -->
      <g transform="translate(339.54 386.0865) scale(0.16 -0.16)">
       <defs>
        <path id="DejaVuSans-30" d="M 2034 4250 
Q 1547 4250 1301 3770 
Q 1056 3291 1056 2328 
Q 1056 1369 1301 889 
Q 1547 409 2034 409 
Q 2525 409 2770 889 
Q 3016 1369 3016 2328 
Q 3016 3291 2770 3770 
Q 2525 4250 2034 4250 
z
M 2034 4750 
Q 2819 4750 3233 4129 
Q 3647 3509 3647 2328 
Q 3647 1150 3233 529 
Q 2819 -91 2034 -91 
Q 1250 -91 836 529 
Q 422 1150 422 2328 
Q 422 3509 836 4129 
Q 1250 4750 2034 4750 
z
" transform="scale(0.015625)"/>
       </defs>
       <use xlink:href="#DejaVuSans-30"/>
      </g>
     </g>
    </g>
    <g id="xtick_5">
     <g id="line2d_9">
      <path d="M 429.175455 360.429 
L 429.175455 27.789 
" clip-path="url(#pf95e39c892)" style="fill: none; stroke: #b0b0b0; stroke-width: 0.8; stroke-linecap: square"/>
     </g>
     <g id="line2d_10">
      <g>
       <use xlink:href="#m3f2c642a63" x="429.175455" y="360.429" style="stroke: #000000; stroke-width: 2.5"/>
      </g>
     </g>
     <g id="text_5">
      <!-- 2 -->
      <g transform="translate(424.085455 386.0865) scale(0.16 -0.16)">
       <use xlink:href="#DejaVuSans-32"/>
      </g>
     </g>
    </g>
    <g id="xtick_6">
     <g id="line2d_11">
      <path d="M 513.720909 360.429 
L 513.720909 27.789 
" clip-path="url(#pf95e39c892)" style="fill: none; stroke: #b0b0b0; stroke-width: 0.8; stroke-linecap: square"/>
     </g>
     <g id="line2d_12">
      <g>
       <use xlink:href="#m3f2c642a63" x="513.720909" y="360.429" style="stroke: #000000; stroke-width: 2.5"/>
      </g>
     </g>
     <g id="text_6">
      <!-- 4 -->
      <g transform="translate(508.630909 386.0865) scale(0.16 -0.16)">
       <use xlink:href="#DejaVuSans-34"/>
      </g>
     </g>
    </g>
    <g id="xtick_7">
     <g id="line2d_13">
      <path d="M 598.266364 360.429 
L 598.266364 27.789 
" clip-path="url(#pf95e39c892)" style="fill: none; stroke: #b0b0b0; stroke-width: 0.8; stroke-linecap: square"/>
     </g>
     <g id="line2d_14">
      <g>
       <use xlink:href="#m3f2c642a63" x="598.266364" y="360.429" style="stroke: #000000; stroke-width: 2.5"/>
      </g>
     </g>
     <g id="text_7">
      <!-- 6 -->
      <g transform="translate(593.176364 386.0865) scale(0.16 -0.16)">
       <use xlink:href="#DejaVuSans-36"/>
      </g>
     </g>
    </g>
    <g id="text_8">
     <!-- Detuning [$\Delta/\Omega$] -->
     <g transform="translate(284.79 405.574) scale(0.16 -0.16)">
      <defs>
       <path id="DejaVuSans-44" d="M 1259 4147 
L 1259 519 
L 2022 519 
Q 2988 519 3436 956 
Q 3884 1394 3884 2338 
Q 3884 3275 3436 3711 
Q 2988 4147 2022 4147 
L 1259 4147 
z
M 628 4666 
L 1925 4666 
Q 3281 4666 3915 4102 
Q 4550 3538 4550 2338 
Q 4550 1131 3912 565 
Q 3275 0 1925 0 
L 628 0 
L 628 4666 
z
" transform="scale(0.015625)"/>
       <path id="DejaVuSans-65" d="M 3597 1894 
L 3597 1613 
L 953 1613 
Q 991 1019 1311 708 
Q 1631 397 2203 397 
Q 2534 397 2845 478 
Q 3156 559 3463 722 
L 3463 178 
Q 3153 47 2828 -22 
Q 2503 -91 2169 -91 
Q 1331 -91 842 396 
Q 353 884 353 1716 
Q 353 2575 817 3079 
Q 1281 3584 2069 3584 
Q 2775 3584 3186 3129 
Q 3597 2675 3597 1894 
z
M 3022 2063 
Q 3016 2534 2758 2815 
Q 2500 3097 2075 3097 
Q 1594 3097 1305 2825 
Q 1016 2553 972 2059 
L 3022 2063 
z
" transform="scale(0.015625)"/>
       <path id="DejaVuSans-74" d="M 1172 4494 
L 1172 3500 
L 2356 3500 
L 2356 3053 
L 1172 3053 
L 1172 1153 
Q 1172 725 1289 603 
Q 1406 481 1766 481 
L 2356 481 
L 2356 0 
L 1766 0 
Q 1100 0 847 248 
Q 594 497 594 1153 
L 594 3053 
L 172 3053 
L 172 3500 
L 594 3500 
L 594 4494 
L 1172 4494 
z
" transform="scale(0.015625)"/>
       <path id="DejaVuSans-75" d="M 544 1381 
L 544 3500 
L 1119 3500 
L 1119 1403 
Q 1119 906 1312 657 
Q 1506 409 1894 409 
Q 2359 409 2629 706 
Q 2900 1003 2900 1516 
L 2900 3500 
L 3475 3500 
L 3475 0 
L 2900 0 
L 2900 538 
Q 2691 219 2414 64 
Q 2138 -91 1772 -91 
Q 1169 -91 856 284 
Q 544 659 544 1381 
z
M 1991 3584 
L 1991 3584 
z
" transform="scale(0.015625)"/>
       <path id="DejaVuSans-6e" d="M 3513 2113 
L 3513 0 
L 2938 0 
L 2938 2094 
Q 2938 2591 2744 2837 
Q 2550 3084 2163 3084 
Q 1697 3084 1428 2787 
Q 1159 2491 1159 1978 
L 1159 0 
L 581 0 
L 581 3500 
L 1159 3500 
L 1159 2956 
Q 1366 3272 1645 3428 
Q 1925 3584 2291 3584 
Q 2894 3584 3203 3211 
Q 3513 2838 3513 2113 
z
" transform="scale(0.015625)"/>
       <path id="DejaVuSans-69" d="M 603 3500 
L 1178 3500 
L 1178 0 
L 603 0 
L 603 3500 
z
M 603 4863 
L 1178 4863 
L 1178 4134 
L 603 4134 
L 603 4863 
z
" transform="scale(0.015625)"/>
       <path id="DejaVuSans-67" d="M 2906 1791 
Q 2906 2416 2648 2759 
Q 2391 3103 1925 3103 
Q 1463 3103 1205 2759 
Q 947 2416 947 1791 
Q 947 1169 1205 825 
Q 1463 481 1925 481 
Q 2391 481 2648 825 
Q 2906 1169 2906 1791 
z
M 3481 434 
Q 3481 -459 3084 -895 
Q 2688 -1331 1869 -1331 
Q 1566 -1331 1297 -1286 
Q 1028 -1241 775 -1147 
L 775 -588 
Q 1028 -725 1275 -790 
Q 1522 -856 1778 -856 
Q 2344 -856 2625 -561 
Q 2906 -266 2906 331 
L 2906 616 
Q 2728 306 2450 153 
Q 2172 0 1784 0 
Q 1141 0 747 490 
Q 353 981 353 1791 
Q 353 2603 747 3093 
Q 1141 3584 1784 3584 
Q 2172 3584 2450 3431 
Q 2728 3278 2906 2969 
L 2906 3500 
L 3481 3500 
L 3481 434 
z
" transform="scale(0.015625)"/>
       <path id="DejaVuSans-20" transform="scale(0.015625)"/>
       <path id="DejaVuSans-5b" d="M 550 4863 
L 1875 4863 
L 1875 4416 
L 1125 4416 
L 1125 -397 
L 1875 -397 
L 1875 -844 
L 550 -844 
L 550 4863 
z
" transform="scale(0.015625)"/>
       <path id="DejaVuSans-394" d="M 2188 4044 
L 906 525 
L 3472 525 
L 2188 4044 
z
M 50 0 
L 1831 4666 
L 2547 4666 
L 4325 0 
L 50 0 
z
" transform="scale(0.015625)"/>
       <path id="DejaVuSans-2f" d="M 1625 4666 
L 2156 4666 
L 531 -594 
L 0 -594 
L 1625 4666 
z
" transform="scale(0.015625)"/>
       <path id="DejaVuSans-3a9" d="M 4647 556 
L 4647 0 
L 2772 0 
L 2772 556 
Q 3325 859 3634 1378 
Q 3944 1897 3944 2528 
Q 3944 3278 3531 3731 
Q 3119 4184 2444 4184 
Q 1769 4184 1355 3729 
Q 941 3275 941 2528 
Q 941 1897 1250 1378 
Q 1563 859 2119 556 
L 2119 0 
L 244 0 
L 244 556 
L 1241 556 
Q 747 991 519 1456 
Q 294 1922 294 2497 
Q 294 3491 894 4106 
Q 1491 4722 2444 4722 
Q 3391 4722 3994 4106 
Q 4594 3494 4594 2528 
Q 4594 1922 4372 1459 
Q 4150 997 3647 556 
L 4647 556 
z
" transform="scale(0.015625)"/>
       <path id="DejaVuSans-5d" d="M 1947 4863 
L 1947 -844 
L 622 -844 
L 622 -397 
L 1369 -397 
L 1369 4416 
L 622 4416 
L 622 4863 
L 1947 4863 
z
" transform="scale(0.015625)"/>
      </defs>
      <use xlink:href="#DejaVuSans-44" transform="translate(0 0.015625)"/>
      <use xlink:href="#DejaVuSans-65" transform="translate(77.001953 0.015625)"/>
      <use xlink:href="#DejaVuSans-74" transform="translate(138.525391 0.015625)"/>
      <use xlink:href="#DejaVuSans-75" transform="translate(177.734375 0.015625)"/>
      <use xlink:href="#DejaVuSans-6e" transform="translate(241.113281 0.015625)"/>
      <use xlink:href="#DejaVuSans-69" transform="translate(304.492188 0.015625)"/>
      <use xlink:href="#DejaVuSans-6e" transform="translate(332.275391 0.015625)"/>
      <use xlink:href="#DejaVuSans-67" transform="translate(395.654297 0.015625)"/>
      <use xlink:href="#DejaVuSans-20" transform="translate(459.130859 0.015625)"/>
      <use xlink:href="#DejaVuSans-5b" transform="translate(490.917969 0.015625)"/>
      <use xlink:href="#DejaVuSans-394" transform="translate(529.931641 0.015625)"/>
      <use xlink:href="#DejaVuSans-2f" transform="translate(598.339844 0.015625)"/>
      <use xlink:href="#DejaVuSans-3a9" transform="translate(632.03125 0.015625)"/>
      <use xlink:href="#DejaVuSans-5d" transform="translate(708.447266 0.015625)"/>
     </g>
    </g>
   </g>
   <g id="matplotlib.axis_2">
    <g id="ytick_1">
     <g id="line2d_15">
      <path d="M 65.63 357.471062 
L 623.63 357.471062 
" clip-path="url(#pf95e39c892)" style="fill: none; stroke: #b0b0b0; stroke-width: 0.8; stroke-linecap: square"/>
     </g>
     <g id="line2d_16">
      <defs>
       <path id="m81b9ab6e24" d="M 0 0 
L -10 0 
" style="stroke: #000000; stroke-width: 2.5"/>
      </defs>
      <g>
       <use xlink:href="#m81b9ab6e24" x="65.63" y="357.471062" style="stroke: #000000; stroke-width: 2.5"/>
      </g>
     </g>
     <g id="text_9">
      <!-- 0.0 -->
      <g transform="translate(26.685 363.549812) scale(0.16 -0.16)">
       <defs>
        <path id="DejaVuSans-2e" d="M 684 794 
L 1344 794 
L 1344 0 
L 684 0 
L 684 794 
z
" transform="scale(0.015625)"/>
       </defs>
       <use xlink:href="#DejaVuSans-30"/>
       <use xlink:href="#DejaVuSans-2e" x="63.623047"/>
       <use xlink:href="#DejaVuSans-30" x="95.410156"/>
      </g>
     </g>
    </g>
    <g id="ytick_2">
     <g id="line2d_17">
      <path d="M 65.63 311.727296 
L 623.63 311.727296 
" clip-path="url(#pf95e39c892)" style="fill: none; stroke: #b0b0b0; stroke-width: 0.8; stroke-linecap: square"/>
     </g>
     <g id="line2d_18">
      <g>
       <use xlink:href="#m81b9ab6e24" x="65.63" y="311.727296" style="stroke: #000000; stroke-width: 2.5"/>
      </g>
     </g>
     <g id="text_10">
      <!-- 0.1 -->
      <g transform="translate(26.685 317.806046) scale(0.16 -0.16)">
       <defs>
        <path id="DejaVuSans-31" d="M 794 531 
L 1825 531 
L 1825 4091 
L 703 3866 
L 703 4441 
L 1819 4666 
L 2450 4666 
L 2450 531 
L 3481 531 
L 3481 0 
L 794 0 
L 794 531 
z
" transform="scale(0.015625)"/>
       </defs>
       <use xlink:href="#DejaVuSans-30"/>
       <use xlink:href="#DejaVuSans-2e" x="63.623047"/>
       <use xlink:href="#DejaVuSans-31" x="95.410156"/>
      </g>
     </g>
    </g>
    <g id="ytick_3">
     <g id="line2d_19">
      <path d="M 65.63 265.98353 
L 623.63 265.98353 
" clip-path="url(#pf95e39c892)" style="fill: none; stroke: #b0b0b0; stroke-width: 0.8; stroke-linecap: square"/>
     </g>
     <g id="line2d_20">
      <g>
       <use xlink:href="#m81b9ab6e24" x="65.63" y="265.98353" style="stroke: #000000; stroke-width: 2.5"/>
      </g>
     </g>
     <g id="text_11">
      <!-- 0.2 -->
      <g transform="translate(26.685 272.06228) scale(0.16 -0.16)">
       <use xlink:href="#DejaVuSans-30"/>
       <use xlink:href="#DejaVuSans-2e" x="63.623047"/>
       <use xlink:href="#DejaVuSans-32" x="95.410156"/>
      </g>
     </g>
    </g>
    <g id="ytick_4">
     <g id="line2d_21">
      <path d="M 65.63 220.239764 
L 623.63 220.239764 
" clip-path="url(#pf95e39c892)" style="fill: none; stroke: #b0b0b0; stroke-width: 0.8; stroke-linecap: square"/>
     </g>
     <g id="line2d_22">
      <g>
       <use xlink:href="#m81b9ab6e24" x="65.63" y="220.239764" style="stroke: #000000; stroke-width: 2.5"/>
      </g>
     </g>
     <g id="text_12">
      <!-- 0.3 -->
      <g transform="translate(26.685 226.318514) scale(0.16 -0.16)">
       <defs>
        <path id="DejaVuSans-33" d="M 2597 2516 
Q 3050 2419 3304 2112 
Q 3559 1806 3559 1356 
Q 3559 666 3084 287 
Q 2609 -91 1734 -91 
Q 1441 -91 1130 -33 
Q 819 25 488 141 
L 488 750 
Q 750 597 1062 519 
Q 1375 441 1716 441 
Q 2309 441 2620 675 
Q 2931 909 2931 1356 
Q 2931 1769 2642 2001 
Q 2353 2234 1838 2234 
L 1294 2234 
L 1294 2753 
L 1863 2753 
Q 2328 2753 2575 2939 
Q 2822 3125 2822 3475 
Q 2822 3834 2567 4026 
Q 2313 4219 1838 4219 
Q 1578 4219 1281 4162 
Q 984 4106 628 3988 
L 628 4550 
Q 988 4650 1302 4700 
Q 1616 4750 1894 4750 
Q 2613 4750 3031 4423 
Q 3450 4097 3450 3541 
Q 3450 3153 3228 2886 
Q 3006 2619 2597 2516 
z
" transform="scale(0.015625)"/>
       </defs>
       <use xlink:href="#DejaVuSans-30"/>
       <use xlink:href="#DejaVuSans-2e" x="63.623047"/>
       <use xlink:href="#DejaVuSans-33" x="95.410156"/>
      </g>
     </g>
    </g>
    <g id="ytick_5">
     <g id="line2d_23">
      <path d="M 65.63 174.495998 
L 623.63 174.495998 
" clip-path="url(#pf95e39c892)" style="fill: none; stroke: #b0b0b0; stroke-width: 0.8; stroke-linecap: square"/>
     </g>
     <g id="line2d_24">
      <g>
       <use xlink:href="#m81b9ab6e24" x="65.63" y="174.495998" style="stroke: #000000; stroke-width: 2.5"/>
      </g>
     </g>
     <g id="text_13">
      <!-- 0.4 -->
      <g transform="translate(26.685 180.574748) scale(0.16 -0.16)">
       <use xlink:href="#DejaVuSans-30"/>
       <use xlink:href="#DejaVuSans-2e" x="63.623047"/>
       <use xlink:href="#DejaVuSans-34" x="95.410156"/>
      </g>
     </g>
    </g>
    <g id="ytick_6">
     <g id="line2d_25">
      <path d="M 65.63 128.752232 
L 623.63 128.752232 
" clip-path="url(#pf95e39c892)" style="fill: none; stroke: #b0b0b0; stroke-width: 0.8; stroke-linecap: square"/>
     </g>
     <g id="line2d_26">
      <g>
       <use xlink:href="#m81b9ab6e24" x="65.63" y="128.752232" style="stroke: #000000; stroke-width: 2.5"/>
      </g>
     </g>
     <g id="text_14">
      <!-- 0.5 -->
      <g transform="translate(26.685 134.830982) scale(0.16 -0.16)">
       <defs>
        <path id="DejaVuSans-35" d="M 691 4666 
L 3169 4666 
L 3169 4134 
L 1269 4134 
L 1269 2991 
Q 1406 3038 1543 3061 
Q 1681 3084 1819 3084 
Q 2600 3084 3056 2656 
Q 3513 2228 3513 1497 
Q 3513 744 3044 326 
Q 2575 -91 1722 -91 
Q 1428 -91 1123 -41 
Q 819 9 494 109 
L 494 744 
Q 775 591 1075 516 
Q 1375 441 1709 441 
Q 2250 441 2565 725 
Q 2881 1009 2881 1497 
Q 2881 1984 2565 2268 
Q 2250 2553 1709 2553 
Q 1456 2553 1204 2497 
Q 953 2441 691 2322 
L 691 4666 
z
" transform="scale(0.015625)"/>
       </defs>
       <use xlink:href="#DejaVuSans-30"/>
       <use xlink:href="#DejaVuSans-2e" x="63.623047"/>
       <use xlink:href="#DejaVuSans-35" x="95.410156"/>
      </g>
     </g>
    </g>
    <g id="ytick_7">
     <g id="line2d_27">
      <path d="M 65.63 83.008466 
L 623.63 83.008466 
" clip-path="url(#pf95e39c892)" style="fill: none; stroke: #b0b0b0; stroke-width: 0.8; stroke-linecap: square"/>
     </g>
     <g id="line2d_28">
      <g>
       <use xlink:href="#m81b9ab6e24" x="65.63" y="83.008466" style="stroke: #000000; stroke-width: 2.5"/>
      </g>
     </g>
     <g id="text_15">
      <!-- 0.6 -->
      <g transform="translate(26.685 89.087216) scale(0.16 -0.16)">
       <use xlink:href="#DejaVuSans-30"/>
       <use xlink:href="#DejaVuSans-2e" x="63.623047"/>
       <use xlink:href="#DejaVuSans-36" x="95.410156"/>
      </g>
     </g>
    </g>
    <g id="ytick_8">
     <g id="line2d_29">
      <path d="M 65.63 37.2647 
L 623.63 37.2647 
" clip-path="url(#pf95e39c892)" style="fill: none; stroke: #b0b0b0; stroke-width: 0.8; stroke-linecap: square"/>
     </g>
     <g id="line2d_30">
      <g>
       <use xlink:href="#m81b9ab6e24" x="65.63" y="37.2647" style="stroke: #000000; stroke-width: 2.5"/>
      </g>
     </g>
     <g id="text_16">
      <!-- 0.7 -->
      <g transform="translate(26.685 43.34345) scale(0.16 -0.16)">
       <defs>
        <path id="DejaVuSans-37" d="M 525 4666 
L 3525 4666 
L 3525 4397 
L 1831 0 
L 1172 0 
L 2766 4134 
L 525 4134 
L 525 4666 
z
" transform="scale(0.015625)"/>
       </defs>
       <use xlink:href="#DejaVuSans-30"/>
       <use xlink:href="#DejaVuSans-2e" x="63.623047"/>
       <use xlink:href="#DejaVuSans-37" x="95.410156"/>
      </g>
     </g>
    </g>
    <g id="text_17">
     <!-- Excited state population -->
     <g transform="translate(19.3575 291.439) rotate(-90) scale(0.16 -0.16)">
      <defs>
       <path id="DejaVuSans-45" d="M 628 4666 
L 3578 4666 
L 3578 4134 
L 1259 4134 
L 1259 2753 
L 3481 2753 
L 3481 2222 
L 1259 2222 
L 1259 531 
L 3634 531 
L 3634 0 
L 628 0 
L 628 4666 
z
" transform="scale(0.015625)"/>
       <path id="DejaVuSans-78" d="M 3513 3500 
L 2247 1797 
L 3578 0 
L 2900 0 
L 1881 1375 
L 863 0 
L 184 0 
L 1544 1831 
L 300 3500 
L 978 3500 
L 1906 2253 
L 2834 3500 
L 3513 3500 
z
" transform="scale(0.015625)"/>
       <path id="DejaVuSans-63" d="M 3122 3366 
L 3122 2828 
Q 2878 2963 2633 3030 
Q 2388 3097 2138 3097 
Q 1578 3097 1268 2742 
Q 959 2388 959 1747 
Q 959 1106 1268 751 
Q 1578 397 2138 397 
Q 2388 397 2633 464 
Q 2878 531 3122 666 
L 3122 134 
Q 2881 22 2623 -34 
Q 2366 -91 2075 -91 
Q 1284 -91 818 406 
Q 353 903 353 1747 
Q 353 2603 823 3093 
Q 1294 3584 2113 3584 
Q 2378 3584 2631 3529 
Q 2884 3475 3122 3366 
z
" transform="scale(0.015625)"/>
       <path id="DejaVuSans-64" d="M 2906 2969 
L 2906 4863 
L 3481 4863 
L 3481 0 
L 2906 0 
L 2906 525 
Q 2725 213 2448 61 
Q 2172 -91 1784 -91 
Q 1150 -91 751 415 
Q 353 922 353 1747 
Q 353 2572 751 3078 
Q 1150 3584 1784 3584 
Q 2172 3584 2448 3432 
Q 2725 3281 2906 2969 
z
M 947 1747 
Q 947 1113 1208 752 
Q 1469 391 1925 391 
Q 2381 391 2643 752 
Q 2906 1113 2906 1747 
Q 2906 2381 2643 2742 
Q 2381 3103 1925 3103 
Q 1469 3103 1208 2742 
Q 947 2381 947 1747 
z
" transform="scale(0.015625)"/>
       <path id="DejaVuSans-73" d="M 2834 3397 
L 2834 2853 
Q 2591 2978 2328 3040 
Q 2066 3103 1784 3103 
Q 1356 3103 1142 2972 
Q 928 2841 928 2578 
Q 928 2378 1081 2264 
Q 1234 2150 1697 2047 
L 1894 2003 
Q 2506 1872 2764 1633 
Q 3022 1394 3022 966 
Q 3022 478 2636 193 
Q 2250 -91 1575 -91 
Q 1294 -91 989 -36 
Q 684 19 347 128 
L 347 722 
Q 666 556 975 473 
Q 1284 391 1588 391 
Q 1994 391 2212 530 
Q 2431 669 2431 922 
Q 2431 1156 2273 1281 
Q 2116 1406 1581 1522 
L 1381 1569 
Q 847 1681 609 1914 
Q 372 2147 372 2553 
Q 372 3047 722 3315 
Q 1072 3584 1716 3584 
Q 2034 3584 2315 3537 
Q 2597 3491 2834 3397 
z
" transform="scale(0.015625)"/>
       <path id="DejaVuSans-61" d="M 2194 1759 
Q 1497 1759 1228 1600 
Q 959 1441 959 1056 
Q 959 750 1161 570 
Q 1363 391 1709 391 
Q 2188 391 2477 730 
Q 2766 1069 2766 1631 
L 2766 1759 
L 2194 1759 
z
M 3341 1997 
L 3341 0 
L 2766 0 
L 2766 531 
Q 2569 213 2275 61 
Q 1981 -91 1556 -91 
Q 1019 -91 701 211 
Q 384 513 384 1019 
Q 384 1609 779 1909 
Q 1175 2209 1959 2209 
L 2766 2209 
L 2766 2266 
Q 2766 2663 2505 2880 
Q 2244 3097 1772 3097 
Q 1472 3097 1187 3025 
Q 903 2953 641 2809 
L 641 3341 
Q 956 3463 1253 3523 
Q 1550 3584 1831 3584 
Q 2591 3584 2966 3190 
Q 3341 2797 3341 1997 
z
" transform="scale(0.015625)"/>
       <path id="DejaVuSans-70" d="M 1159 525 
L 1159 -1331 
L 581 -1331 
L 581 3500 
L 1159 3500 
L 1159 2969 
Q 1341 3281 1617 3432 
Q 1894 3584 2278 3584 
Q 2916 3584 3314 3078 
Q 3713 2572 3713 1747 
Q 3713 922 3314 415 
Q 2916 -91 2278 -91 
Q 1894 -91 1617 61 
Q 1341 213 1159 525 
z
M 3116 1747 
Q 3116 2381 2855 2742 
Q 2594 3103 2138 3103 
Q 1681 3103 1420 2742 
Q 1159 2381 1159 1747 
Q 1159 1113 1420 752 
Q 1681 391 2138 391 
Q 2594 391 2855 752 
Q 3116 1113 3116 1747 
z
" transform="scale(0.015625)"/>
       <path id="DejaVuSans-6f" d="M 1959 3097 
Q 1497 3097 1228 2736 
Q 959 2375 959 1747 
Q 959 1119 1226 758 
Q 1494 397 1959 397 
Q 2419 397 2687 759 
Q 2956 1122 2956 1747 
Q 2956 2369 2687 2733 
Q 2419 3097 1959 3097 
z
M 1959 3584 
Q 2709 3584 3137 3096 
Q 3566 2609 3566 1747 
Q 3566 888 3137 398 
Q 2709 -91 1959 -91 
Q 1206 -91 779 398 
Q 353 888 353 1747 
Q 353 2609 779 3096 
Q 1206 3584 1959 3584 
z
" transform="scale(0.015625)"/>
       <path id="DejaVuSans-6c" d="M 603 4863 
L 1178 4863 
L 1178 0 
L 603 0 
L 603 4863 
z
" transform="scale(0.015625)"/>
      </defs>
      <use xlink:href="#DejaVuSans-45"/>
      <use xlink:href="#DejaVuSans-78" x="63.183594"/>
      <use xlink:href="#DejaVuSans-63" x="120.613281"/>
      <use xlink:href="#DejaVuSans-69" x="175.59375"/>
      <use xlink:href="#DejaVuSans-74" x="203.376953"/>
      <use xlink:href="#DejaVuSans-65" x="242.585938"/>
      <use xlink:href="#DejaVuSans-64" x="304.109375"/>
      <use xlink:href="#DejaVuSans-20" x="367.585938"/>
      <use xlink:href="#DejaVuSans-73" x="399.373047"/>
      <use xlink:href="#DejaVuSans-74" x="451.472656"/>
      <use xlink:href="#DejaVuSans-61" x="490.681641"/>
      <use xlink:href="#DejaVuSans-74" x="551.960938"/>
      <use xlink:href="#DejaVuSans-65" x="591.169922"/>
      <use xlink:href="#DejaVuSans-20" x="652.693359"/>
      <use xlink:href="#DejaVuSans-70" x="684.480469"/>
      <use xlink:href="#DejaVuSans-6f" x="747.957031"/>
      <use xlink:href="#DejaVuSans-70" x="809.138672"/>
      <use xlink:href="#DejaVuSans-75" x="872.615234"/>
      <use xlink:href="#DejaVuSans-6c" x="935.994141"/>
      <use xlink:href="#DejaVuSans-61" x="963.777344"/>
      <use xlink:href="#DejaVuSans-74" x="1025.056641"/>
      <use xlink:href="#DejaVuSans-69" x="1064.265625"/>
      <use xlink:href="#DejaVuSans-6f" x="1092.048828"/>
      <use xlink:href="#DejaVuSans-6e" x="1153.230469"/>
     </g>
    </g>
   </g>
   <g id="line2d_31">
    <path d="M 90.993636 345.309 
L 91.754926 345.084506 
L 92.769979 345.046547 
L 93.277506 345.210325 
L 94.800085 344.962642 
L 95.815138 344.783961 
L 96.830191 344.717723 
L 97.591481 344.444766 
L 98.099007 344.410476 
L 98.860297 344.643256 
L 100.129113 344.499622 
L 100.63664 344.197307 
L 100.890403 344.189797 
L 101.397929 344.393856 
L 101.905456 344.229525 
L 102.412982 344.000812 
L 103.428035 343.778742 
L 103.681799 343.717256 
L 104.189325 343.952252 
L 104.443088 344.067075 
L 104.950615 343.951624 
L 105.458141 343.836875 
L 107.488247 343.754428 
L 108.249537 343.328795 
L 109.518353 343.394398 
L 110.02588 343.40227 
L 110.787169 343.082581 
L 111.548459 343.197404 
L 113.578565 342.831645 
L 114.339855 342.960812 
L 115.101145 342.672333 
L 116.116198 342.656121 
L 117.638777 342.212651 
L 118.907593 342.254952 
L 119.922646 342.133299 
L 120.683936 342.130466 
L 121.698989 341.806332 
L 122.460279 341.8643 
L 124.236621 341.508855 
L 124.744148 341.691485 
L 125.251674 341.59631 
L 126.012964 341.279147 
L 127.535544 341.230414 
L 128.296833 340.814847 
L 129.311886 340.739111 
L 129.819413 340.918077 
L 130.834466 340.628804 
L 131.341992 340.771724 
L 131.849519 340.633526 
L 132.357045 340.717309 
L 133.118335 340.108311 
L 133.879625 340.364272 
L 134.640915 339.934486 
L 135.148441 339.852735 
L 135.402204 339.753015 
L 135.655968 339.789897 
L 136.163494 340.146978 
L 136.417257 340.096165 
L 136.924784 339.656225 
L 137.178547 339.590622 
L 138.1936 339.885473 
L 138.701126 339.74607 
L 139.462416 339.192719 
L 139.969943 339.231647 
L 140.477469 339.228099 
L 141.238759 338.700511 
L 141.746285 338.753864 
L 142.507575 338.975366 
L 143.268865 338.80372 
L 143.776391 338.798793 
L 144.283918 338.957208 
L 144.791444 338.643787 
L 145.298971 338.36772 
L 145.806497 338.350423 
L 146.314024 338.329293 
L 147.329077 337.925094 
L 147.836603 337.891894 
L 148.34413 337.946096 
L 148.851656 337.614778 
L 149.10542 337.451732 
L 149.612946 337.566482 
L 150.374236 337.59177 
L 150.881762 337.537747 
L 151.389289 337.33548 
L 151.896815 337.594979 
L 152.150578 337.558737 
L 152.911868 336.90198 
L 153.419395 336.815001 
L 154.180684 336.878738 
L 154.688211 336.473006 
L 154.941974 336.475583 
L 155.449501 336.680402 
L 156.718317 336.188162 
L 156.97208 336.175101 
L 157.479607 336.343668 
L 158.240896 335.912785 
L 158.748423 336.177951 
L 160.778529 335.309075 
L 161.539819 335.143125 
L 162.047345 335.300307 
L 162.301108 335.206434 
L 162.808635 334.809867 
L 163.062398 334.854186 
L 163.569925 335.057939 
L 164.077451 334.578386 
L 164.584977 334.23953 
L 164.838741 334.286629 
L 165.60003 334.71585 
L 166.36132 334.060537 
L 167.12261 334.553723 
L 167.376373 334.454057 
L 168.391426 333.464654 
L 169.152716 333.399676 
L 169.914006 332.871735 
L 171.182822 332.973602 
L 171.690348 333.008377 
L 172.451638 332.540746 
L 173.212928 332.574316 
L 173.720454 332.332262 
L 174.227981 331.961211 
L 174.481744 332.002637 
L 174.989271 332.256857 
L 175.243034 332.140725 
L 175.75056 331.642285 
L 176.258087 331.560959 
L 177.526903 331.41213 
L 178.541956 330.798466 
L 179.303246 330.714578 
L 179.810772 330.272991 
L 180.064535 329.987627 
L 180.318299 329.874394 
L 181.079588 330.464902 
L 181.587115 330.160665 
L 182.094641 329.675698 
L 182.348405 329.59382 
L 182.855931 330.024206 
L 183.109694 329.936686 
L 183.617221 329.060348 
L 183.870984 328.875888 
L 184.124747 328.959062 
L 184.632274 329.384327 
L 184.886037 329.29216 
L 185.393564 328.529368 
L 185.647327 328.395487 
L 186.408617 328.521365 
L 187.677433 327.865301 
L 188.184959 327.560534 
L 188.692486 327.555638 
L 189.453776 326.918505 
L 189.707539 326.96861 
L 190.468829 327.435524 
L 191.991408 326.572698 
L 192.752698 325.610389 
L 193.260224 325.384954 
L 193.767751 325.523779 
L 194.52904 325.06569 
L 195.29033 325.353048 
L 196.05162 324.428539 
L 196.305383 324.568293 
L 196.559146 324.84522 
L 196.81291 324.810136 
L 197.574199 323.546665 
L 197.827963 323.580252 
L 198.335489 323.861062 
L 199.096779 323.128218 
L 199.858069 323.614257 
L 200.111832 323.338116 
L 200.619358 322.524537 
L 200.873122 322.431127 
L 201.126885 322.488042 
L 201.380648 322.395117 
L 202.141938 321.559867 
L 202.649464 321.667147 
L 202.903228 321.506165 
L 203.410754 320.938612 
L 204.172044 320.790083 
L 204.67957 320.398272 
L 205.187097 320.379973 
L 205.44086 320.376742 
L 206.455913 319.798901 
L 206.709676 319.810088 
L 207.217203 319.349857 
L 207.724729 318.899284 
L 208.486019 318.620975 
L 208.993545 318.134086 
L 209.501072 317.870694 
L 210.769888 316.550184 
L 211.023651 316.462829 
L 211.277415 316.547123 
L 211.784941 316.937404 
L 212.038704 316.880341 
L 212.546231 316.514186 
L 212.799994 316.442498 
L 213.053757 316.194454 
L 213.815047 314.543043 
L 214.06881 314.510161 
L 214.322574 314.615894 
L 214.576337 314.57726 
L 215.083863 314.315837 
L 215.59139 314.543637 
L 215.845153 314.33625 
L 216.606443 312.939477 
L 217.113969 312.452643 
L 217.621496 312.270991 
L 218.129022 312.33263 
L 218.382785 312.211024 
L 219.651602 310.873571 
L 220.159128 310.306289 
L 221.427944 309.427651 
L 221.935471 309.153464 
L 222.696761 308.84404 
L 222.950524 308.537648 
L 223.711814 306.855288 
L 224.473103 306.668855 
L 224.726867 306.474531 
L 224.98063 306.61756 
L 225.234393 307.038877 
L 225.488156 307.189732 
L 225.74192 306.717277 
L 226.249446 305.31408 
L 226.756973 304.593959 
L 227.264499 303.6883 
L 227.772026 303.537835 
L 228.533315 302.677671 
L 229.040842 302.948749 
L 229.802132 302.11245 
L 230.055895 302.175295 
L 230.309658 301.937628 
L 231.070948 299.898593 
L 231.578474 299.868129 
L 232.339764 298.812947 
L 232.84729 299.023333 
L 233.101054 298.647771 
L 233.60858 297.401112 
L 234.116107 297.21071 
L 234.877396 295.229698 
L 235.384923 295.593438 
L 235.638686 295.37209 
L 235.892449 294.914935 
L 236.146213 294.693379 
L 236.399976 294.739344 
L 236.653739 294.646115 
L 236.907502 294.131077 
L 237.415029 292.704781 
L 237.922555 292.169233 
L 239.445135 290.465057 
L 240.206425 288.829035 
L 240.460188 288.688663 
L 240.967714 288.778698 
L 241.475241 288.364278 
L 241.729004 287.981603 
L 242.236531 286.414987 
L 242.744057 284.640594 
L 242.99782 284.100666 
L 243.251584 284.000012 
L 243.505347 284.18192 
L 243.75911 284.181372 
L 244.266637 283.7598 
L 244.5204 283.943944 
L 244.774163 283.844246 
L 246.042979 280.093807 
L 246.296742 279.415728 
L 246.550506 279.204108 
L 247.058032 279.62238 
L 247.311795 279.492666 
L 247.565559 278.93574 
L 248.326848 276.003355 
L 248.580612 275.936492 
L 249.088138 276.40862 
L 249.341901 276.50157 
L 249.595665 276.322864 
L 249.849428 275.501474 
L 250.610718 271.653019 
L 250.864481 271.237173 
L 251.118244 271.128296 
L 251.625771 271.058227 
L 252.38706 270.160108 
L 252.894587 269.933263 
L 253.14835 269.611216 
L 253.402113 268.988024 
L 254.417166 265.02061 
L 254.67093 264.801328 
L 255.178456 264.864471 
L 255.432219 264.595917 
L 255.939746 263.267564 
L 256.447272 261.835253 
L 256.701036 261.397531 
L 257.208562 261.07334 
L 257.716088 259.894053 
L 259.238668 256.325589 
L 260.253721 254.650185 
L 260.761247 253.656971 
L 262.283827 249.938688 
L 262.791353 248.370819 
L 263.29888 246.915574 
L 264.06017 245.826545 
L 264.567696 245.875929 
L 264.821459 245.663995 
L 265.328986 244.587978 
L 265.836512 242.226385 
L 266.344039 239.673108 
L 266.597802 239.000385 
L 266.851565 238.672416 
L 267.105329 238.738927 
L 267.359092 239.083353 
L 267.612855 239.199269 
L 267.866618 238.617011 
L 268.881671 233.933528 
L 269.135435 233.990903 
L 269.642961 235.030221 
L 269.896724 234.531685 
L 270.911777 228.706182 
L 271.16554 228.405972 
L 271.673067 228.819968 
L 271.92683 228.528233 
L 273.195646 224.630907 
L 273.703173 224.171718 
L 274.210699 223.076452 
L 274.718226 221.582813 
L 275.479516 218.796352 
L 275.733279 218.537121 
L 276.240805 218.280756 
L 276.494569 217.730604 
L 277.255858 214.703704 
L 278.017148 213.562552 
L 279.032201 209.794436 
L 279.285964 209.670396 
L 279.793491 209.974128 
L 280.047254 209.571024 
L 281.062307 206.497712 
L 281.569834 205.431516 
L 282.584887 202.407008 
L 283.092413 200.969092 
L 283.59994 199.29928 
L 283.853703 198.980283 
L 284.107466 199.029312 
L 284.614992 199.364255 
L 284.868756 199.062434 
L 285.376282 197.367114 
L 286.137572 193.938879 
L 286.391335 193.295824 
L 286.645098 193.009113 
L 287.152625 192.696414 
L 287.406388 192.172178 
L 287.913915 190.604812 
L 288.167678 190.297111 
L 288.421441 190.426523 
L 288.675204 190.713502 
L 288.928968 190.826538 
L 289.182731 190.441649 
L 289.436494 189.337019 
L 290.197784 184.40179 
L 290.451547 184.002925 
L 290.70531 184.559071 
L 291.212837 186.103197 
L 291.4666 185.763438 
L 291.974127 182.709035 
L 292.22789 181.207552 
L 292.481653 180.679499 
L 292.735416 181.207244 
L 292.98918 182.049159 
L 293.242943 182.229575 
L 293.496706 181.426709 
L 294.004233 179.461129 
L 294.257996 179.436003 
L 294.511759 179.738608 
L 294.765522 179.839838 
L 295.019286 179.586036 
L 295.273049 179.046452 
L 295.780575 176.968425 
L 296.288102 175.001356 
L 296.795628 174.458169 
L 297.049392 174.354028 
L 297.303155 174.846104 
L 297.810681 176.945145 
L 298.064444 176.477255 
L 298.825734 171.159907 
L 299.079497 171.403741 
L 299.333261 172.217834 
L 299.587024 172.595801 
L 299.840787 172.182426 
L 300.348314 170.958307 
L 300.602077 171.212311 
L 301.109603 172.538845 
L 301.363367 172.470898 
L 301.61713 171.559517 
L 302.124656 168.676398 
L 302.37842 167.960428 
L 302.632183 168.266172 
L 303.139709 170.201218 
L 303.393473 170.062599 
L 303.900999 167.442491 
L 304.154762 167.000255 
L 304.408526 167.70053 
L 304.662289 168.786542 
L 304.916052 169.356863 
L 305.169815 169.108061 
L 305.423579 168.478258 
L 305.677342 168.222243 
L 306.184868 168.851363 
L 306.438632 167.950818 
L 306.946158 165.10119 
L 307.199921 166.098755 
L 307.453685 168.224293 
L 307.707448 169.411519 
L 307.961211 168.756667 
L 308.468738 165.84401 
L 308.722501 165.422432 
L 308.976264 165.799978 
L 310.24508 170.024679 
L 310.498844 169.39912 
L 311.00637 165.13111 
L 311.260133 164.920733 
L 311.76766 168.600579 
L 312.021423 168.577663 
L 312.528949 166.220616 
L 312.782713 166.849459 
L 313.036476 168.197006 
L 313.290239 168.887961 
L 313.544002 168.69489 
L 313.797766 168.700722 
L 314.559055 171.764182 
L 315.066582 167.486465 
L 315.320345 166.936966 
L 315.827872 168.900063 
L 316.081635 168.737351 
L 316.335398 169.231166 
L 316.842925 173.052026 
L 317.096688 172.85328 
L 317.350451 171.415099 
L 317.604214 170.790446 
L 318.365504 172.539708 
L 318.619267 172.211511 
L 319.380557 170.114132 
L 319.63432 171.126852 
L 320.39561 177.009206 
L 320.649373 176.880614 
L 321.410663 173.544314 
L 321.664426 173.577638 
L 321.91819 173.764488 
L 322.171953 174.23932 
L 322.425716 175.874666 
L 322.933243 179.778781 
L 323.187006 179.228979 
L 323.694532 176.822614 
L 323.948296 176.274809 
L 324.202059 176.25454 
L 324.455822 177.380446 
L 324.963348 180.643122 
L 325.217112 180.843475 
L 325.978401 180.446605 
L 326.232165 179.843203 
L 326.485928 179.726561 
L 326.739691 180.360543 
L 327.500981 183.241043 
L 327.754744 183.58269 
L 328.262271 183.189313 
L 328.516034 183.794768 
L 329.02356 185.405731 
L 329.277324 185.389502 
L 329.78485 184.84913 
L 330.038613 184.839155 
L 330.292377 185.033306 
L 330.54614 185.509052 
L 331.30743 188.44178 
L 331.561193 188.532502 
L 332.322483 186.298159 
L 332.576246 186.563279 
L 333.591299 190.712064 
L 334.098825 190.856797 
L 334.606352 192.434908 
L 334.860115 192.472076 
L 335.621405 189.057377 
L 335.875168 189.855941 
L 336.382695 193.499665 
L 336.636458 194.373343 
L 336.890221 193.852049 
L 337.143984 192.692137 
L 337.397748 192.121843 
L 337.651511 192.52606 
L 337.905274 193.243347 
L 338.159037 193.579047 
L 338.4128 193.560825 
L 338.666564 193.659338 
L 339.17409 194.490008 
L 339.427853 194.583181 
L 339.93538 194.454182 
L 340.189143 194.563274 
L 340.442906 194.806154 
L 340.950433 195.770878 
L 341.204196 194.729954 
L 341.457959 190.90942 
L 342.219249 171.507609 
L 342.473012 178.437829 
L 342.726776 204.165872 
L 343.234302 285.913212 
L 343.488065 299.431281 
L 343.741829 267.935159 
L 344.503118 42.909 
L 344.756882 42.909 
L 345.010645 104.137646 
L 345.518171 267.935159 
L 345.771935 299.431281 
L 346.025698 285.913212 
L 346.786988 178.437829 
L 347.040751 171.507609 
L 347.294514 176.174573 
L 347.802041 190.90942 
L 348.055804 194.729954 
L 348.309567 195.770878 
L 349.070857 194.563274 
L 349.32462 194.454182 
L 350.08591 194.490008 
L 350.593436 193.659338 
L 351.100963 193.579047 
L 351.354726 193.243347 
L 351.862252 192.121843 
L 352.116016 192.692137 
L 352.369779 193.852049 
L 352.623542 194.373343 
L 352.877305 193.499665 
L 353.384832 189.855941 
L 353.638595 189.057377 
L 353.892358 189.6807 
L 354.399885 192.472076 
L 354.653648 192.434908 
L 355.161175 190.856797 
L 355.668701 190.712064 
L 355.922464 190.168544 
L 356.683754 186.563279 
L 356.937517 186.298159 
L 357.191281 186.869079 
L 357.698807 188.532502 
L 357.95257 188.44178 
L 358.967623 185.033306 
L 359.221387 184.839155 
L 359.47515 184.84913 
L 360.23644 185.405731 
L 360.490203 184.790806 
L 360.997729 183.189313 
L 361.251493 183.322889 
L 361.505256 183.58269 
L 361.759019 183.241043 
L 362.774072 179.726561 
L 363.027835 179.843203 
L 363.535362 180.766336 
L 363.789125 180.746475 
L 364.042888 180.843475 
L 364.296652 180.643122 
L 364.550415 179.316716 
L 365.057941 176.25454 
L 365.311704 176.274809 
L 365.565468 176.822614 
L 366.326757 179.778781 
L 366.580521 178.341801 
L 367.088047 174.23932 
L 367.34181 173.764488 
L 367.595574 173.577638 
L 367.849337 173.544314 
L 368.1031 174.268908 
L 368.610627 176.880614 
L 368.86439 177.009206 
L 369.118153 175.745728 
L 369.62568 171.126852 
L 369.879443 170.114132 
L 370.133206 170.542628 
L 370.640733 172.211511 
L 370.894496 172.539708 
L 371.148259 172.327819 
L 371.655786 170.790446 
L 371.909549 171.415099 
L 372.163312 172.85328 
L 372.417075 173.052026 
L 372.924602 169.231166 
L 373.178365 168.737351 
L 373.432128 168.900063 
L 373.939655 166.936966 
L 374.193418 167.486465 
L 374.700945 171.764182 
L 374.954708 171.502655 
L 375.462234 168.700722 
L 375.715998 168.69489 
L 375.969761 168.887961 
L 376.223524 168.197006 
L 376.477287 166.849459 
L 376.731051 166.220616 
L 376.984814 167.139635 
L 377.238577 168.577663 
L 377.49234 168.600579 
L 377.999867 164.920733 
L 378.25363 165.13111 
L 378.761156 169.39912 
L 379.01492 170.024679 
L 379.268683 169.419953 
L 380.283736 165.799978 
L 380.537499 165.422432 
L 380.791262 165.84401 
L 381.552552 169.411519 
L 381.806315 168.224293 
L 382.060079 166.098755 
L 382.313842 165.10119 
L 382.567605 166.132411 
L 382.821368 167.950818 
L 383.075132 168.851363 
L 383.582658 168.222243 
L 383.836421 168.478258 
L 384.090185 169.108061 
L 384.343948 169.356863 
L 384.597711 168.786542 
L 385.105238 167.000255 
L 385.359001 167.442491 
L 385.866527 170.062599 
L 386.120291 170.201218 
L 386.627817 168.266172 
L 386.88158 167.960428 
L 387.135344 168.676398 
L 387.896633 172.470898 
L 388.150397 172.538845 
L 388.911686 170.958307 
L 389.16545 171.402481 
L 389.419213 172.182426 
L 389.672976 172.595801 
L 389.926739 172.217834 
L 390.180503 171.403741 
L 390.434266 171.159907 
L 390.688029 172.297676 
L 391.195556 176.477255 
L 391.449319 176.945145 
L 392.210608 174.354028 
L 392.718135 174.679731 
L 392.971898 175.001356 
L 393.225661 175.762852 
L 393.986951 179.046452 
L 394.240714 179.586036 
L 394.494478 179.839838 
L 394.748241 179.738608 
L 395.002004 179.436003 
L 395.255767 179.461129 
L 395.509531 180.221839 
L 396.017057 182.229575 
L 396.27082 182.049159 
L 396.778347 180.679499 
L 397.03211 181.207552 
L 397.7934 185.763438 
L 398.047163 186.103197 
L 398.300926 185.522726 
L 398.808453 184.002925 
L 399.062216 184.40179 
L 399.569743 187.6152 
L 400.077269 190.441649 
L 400.331032 190.826538 
L 400.584796 190.713502 
L 401.092322 190.297111 
L 401.346085 190.604812 
L 402.107375 192.696414 
L 402.868665 193.295824 
L 403.122428 193.938879 
L 404.391244 199.062434 
L 404.645008 199.364255 
L 404.898771 199.264467 
L 405.152534 199.029312 
L 405.406297 198.980283 
L 405.66006 199.29928 
L 406.167587 200.969092 
L 406.675113 202.407008 
L 407.18264 203.662329 
L 407.94393 206.041123 
L 408.451456 207.004397 
L 409.466509 209.974128 
L 409.720272 209.882506 
L 409.974036 209.670396 
L 410.227799 209.794436 
L 410.481562 210.452816 
L 411.242852 213.562552 
L 411.496615 214.059338 
L 411.750378 214.302395 
L 412.004142 214.703704 
L 412.511668 216.728483 
L 413.019195 218.280756 
L 413.780484 218.796352 
L 414.034248 219.461042 
L 414.795537 222.424398 
L 415.556827 224.171718 
L 416.318117 225.027904 
L 416.825643 226.671908 
L 417.33317 228.528233 
L 417.586933 228.819968 
L 418.09446 228.405972 
L 418.348223 228.706182 
L 418.601986 229.700255 
L 419.363276 234.531685 
L 419.617039 235.030221 
L 420.378329 233.933528 
L 420.632092 234.653107 
L 421.647145 239.199269 
L 421.900908 239.083353 
L 422.154671 238.738927 
L 422.408435 238.672416 
L 422.662198 239.000385 
L 422.915961 239.673108 
L 423.423488 242.226385 
L 423.931014 244.587978 
L 424.438541 245.663995 
L 424.692304 245.875929 
L 425.19983 245.826545 
L 425.707357 246.53654 
L 426.214883 247.485924 
L 426.976173 249.938688 
L 429.260042 254.971065 
L 429.767569 255.855912 
L 430.782622 257.788148 
L 431.797675 260.57447 
L 432.051438 261.07334 
L 432.558964 261.397531 
L 432.812728 261.835253 
L 433.827781 264.595917 
L 434.081544 264.864471 
L 434.58907 264.801328 
L 434.842834 265.02061 
L 435.096597 265.651615 
L 436.11165 269.611216 
L 436.619176 270.078019 
L 436.87294 270.160108 
L 437.126703 270.367351 
L 437.634229 271.058227 
L 438.395519 271.237173 
L 438.649282 271.653019 
L 438.903046 272.594892 
L 439.410572 275.501474 
L 439.664335 276.322864 
L 439.918099 276.50157 
L 440.425625 276.199075 
L 440.679388 275.936492 
L 440.933152 276.003355 
L 441.186915 276.751135 
L 441.694441 278.93574 
L 441.948205 279.492666 
L 442.201968 279.62238 
L 442.709494 279.204108 
L 442.963258 279.415728 
L 444.232074 283.020129 
L 444.485837 283.844246 
L 444.7396 283.943944 
L 444.993363 283.7598 
L 445.247127 283.890563 
L 445.50089 284.181372 
L 445.754653 284.18192 
L 446.008416 284.000012 
L 446.26218 284.100666 
L 446.515943 284.640594 
L 447.530996 287.981603 
L 448.038522 288.620647 
L 448.292286 288.778698 
L 449.053575 288.829035 
L 449.561102 289.892748 
L 450.068628 290.870807 
L 451.083681 291.897547 
L 451.844971 292.704781 
L 452.606261 294.646115 
L 452.860024 294.739344 
L 453.113787 294.693379 
L 453.367551 294.914935 
L 453.621314 295.37209 
L 453.875077 295.593438 
L 454.382604 295.229698 
L 454.636367 295.699153 
L 455.143893 297.21071 
L 455.65142 297.401112 
L 456.41271 299.023333 
L 456.920236 298.812947 
L 457.173999 299.048719 
L 457.681526 299.868129 
L 458.189052 299.898593 
L 458.442815 300.352242 
L 458.950342 301.937628 
L 459.204105 302.175295 
L 459.457868 302.11245 
L 459.711632 302.233968 
L 460.219158 302.948749 
L 460.980448 302.801181 
L 461.487974 303.537835 
L 461.995501 303.6883 
L 463.010554 305.31408 
L 463.771844 307.189732 
L 464.025607 307.038877 
L 464.27937 306.61756 
L 464.533133 306.474531 
L 465.04066 306.831048 
L 465.548186 306.855288 
L 465.80195 307.284216 
L 466.309476 308.537648 
L 466.817003 308.983849 
L 467.832056 309.427651 
L 468.339582 309.941812 
L 469.354635 310.557455 
L 470.623451 311.964459 
L 471.130978 312.33263 
L 471.892267 312.310928 
L 472.399794 312.663396 
L 472.90732 313.330834 
L 473.414847 314.33625 
L 473.66861 314.543637 
L 474.176137 314.315837 
L 474.937426 314.615894 
L 475.19119 314.510161 
L 475.444953 314.543043 
L 475.698716 314.949573 
L 476.206243 316.194454 
L 476.460006 316.442498 
L 476.967532 316.665466 
L 477.221296 316.880341 
L 477.475059 316.937404 
L 478.236349 316.462829 
L 478.743875 316.734066 
L 479.251402 317.236184 
L 479.758928 317.870694 
L 480.520218 318.353922 
L 481.027744 318.769405 
L 481.535271 318.899284 
L 482.042797 319.349857 
L 482.550324 319.810088 
L 483.05785 319.76204 
L 483.565377 320.202777 
L 483.81914 320.376742 
L 484.58043 320.398272 
L 485.341719 320.925087 
L 485.849246 320.938612 
L 486.610536 321.667147 
L 487.118062 321.559867 
L 487.371825 321.708597 
L 487.879352 322.395117 
L 488.133115 322.488042 
L 488.386878 322.431127 
L 488.640642 322.524537 
L 489.401931 323.614257 
L 489.655695 323.585188 
L 490.163221 323.128218 
L 490.416984 323.265233 
L 490.924511 323.861062 
L 491.685801 323.546665 
L 491.939564 323.830056 
L 492.44709 324.810136 
L 492.700854 324.84522 
L 493.20838 324.428539 
L 493.462143 324.660398 
L 493.96967 325.353048 
L 494.223433 325.375451 
L 494.73096 325.06569 
L 494.984723 325.162372 
L 495.492249 325.523779 
L 496.253539 325.438021 
L 496.761066 325.886617 
L 497.522355 326.783059 
L 498.283645 327.105664 
L 498.791171 327.435524 
L 499.044935 327.371508 
L 499.552461 326.96861 
L 499.806224 326.918505 
L 500.059988 327.056991 
L 500.567514 327.555638 
L 501.328804 327.659816 
L 501.83633 328.011231 
L 502.343857 328.232555 
L 502.851383 328.521365 
L 503.35891 328.454186 
L 503.612673 328.395487 
L 503.866436 328.529368 
L 504.373963 329.29216 
L 504.627726 329.384327 
L 505.389016 328.875888 
L 505.642779 329.060348 
L 506.150306 329.936686 
L 506.404069 330.024206 
L 506.911595 329.59382 
L 507.165359 329.675698 
L 507.926648 330.370015 
L 508.180412 330.464902 
L 508.434175 330.326356 
L 508.941701 329.874394 
L 509.195465 329.987627 
L 509.956754 330.714578 
L 511.225571 331.074863 
L 511.98686 331.51545 
L 513.50944 331.642285 
L 514.270729 332.256857 
L 515.032019 331.961211 
L 516.300835 332.583618 
L 517.062125 332.617076 
L 517.569652 333.008377 
L 518.077178 332.973602 
L 519.345994 332.871735 
L 520.361047 333.46228 
L 520.868574 333.464654 
L 521.122337 333.611039 
L 521.883627 334.454057 
L 522.13739 334.553723 
L 522.391153 334.451815 
L 522.89868 334.060537 
L 523.152443 334.179402 
L 523.65997 334.71585 
L 523.913733 334.675132 
L 524.421259 334.286629 
L 524.675023 334.23953 
L 524.928786 334.339768 
L 525.690075 335.057939 
L 525.943839 335.014743 
L 526.451365 334.809867 
L 527.212655 335.300307 
L 527.973945 335.159162 
L 530.257814 336.060698 
L 530.511577 336.177951 
L 531.272867 335.963221 
L 531.780393 336.343668 
L 532.541683 336.188162 
L 533.810499 336.680402 
L 534.571789 336.473006 
L 535.079316 336.878738 
L 535.586842 336.847144 
L 536.094369 336.838478 
L 536.601895 337.058946 
L 537.109422 337.558737 
L 537.363185 337.594979 
L 537.870711 337.33548 
L 539.393291 337.611777 
L 540.15458 337.451732 
L 540.91587 337.946096 
L 542.184686 337.999489 
L 543.453503 338.350423 
L 543.961029 338.36772 
L 544.468556 338.643787 
L 544.976082 338.957208 
L 545.991135 338.80372 
L 546.752425 338.975366 
L 548.021241 338.700511 
L 549.036294 339.275038 
L 549.797584 339.192719 
L 550.30511 339.555444 
L 550.812637 339.843544 
L 551.320163 339.89013 
L 552.335216 339.656225 
L 552.842743 340.096165 
L 553.096506 340.146978 
L 553.857796 339.753015 
L 554.619085 339.934486 
L 554.872849 339.998735 
L 555.380375 340.364272 
L 555.634138 340.373638 
L 556.141665 340.108311 
L 556.395428 340.230717 
L 556.902955 340.717309 
L 558.933061 340.64017 
L 559.440587 340.918077 
L 560.45564 340.734251 
L 561.21693 340.894278 
L 561.97822 341.328297 
L 563.754562 341.45557 
L 564.262089 341.687519 
L 564.769615 341.615661 
L 565.277142 341.439145 
L 565.784668 341.51619 
L 567.053484 341.871906 
L 567.814774 341.83337 
L 569.08359 342.162454 
L 569.84488 342.16757 
L 571.113696 342.290869 
L 571.621223 342.212651 
L 573.905092 342.677951 
L 574.412619 342.739649 
L 575.173908 342.976836 
L 575.681435 342.831645 
L 578.219067 343.137222 
L 578.726594 343.114541 
L 579.487883 343.439667 
L 580.7567 343.324293 
L 581.264226 343.419897 
L 582.025516 343.855207 
L 582.533042 343.76316 
L 583.040569 343.721489 
L 584.816912 344.067075 
L 585.578201 343.717256 
L 587.354544 344.229525 
L 587.862071 344.393856 
L 588.62336 344.197307 
L 589.38465 344.566324 
L 590.90723 344.516538 
L 591.414756 344.375425 
L 593.191099 344.783101 
L 593.952388 344.841191 
L 595.982494 345.210325 
L 596.997547 345.00941 
L 598.266364 345.309 
L 598.266364 345.309 
" clip-path="url(#pf95e39c892)" style="fill: none; stroke: #1f77b4; stroke-width: 1.5; stroke-linecap: square"/>
   </g>
   <g id="patch_3">
    <path d="M 65.63 360.429 
L 65.63 27.789 
" style="fill: none; stroke: #000000; stroke-width: 2.5; stroke-linejoin: miter; stroke-linecap: square"/>
   </g>
   <g id="patch_4">
    <path d="M 623.63 360.429 
L 623.63 27.789 
" style="fill: none; stroke: #000000; stroke-width: 2.5; stroke-linejoin: miter; stroke-linecap: square"/>
   </g>
   <g id="patch_5">
    <path d="M 65.63 360.429 
L 623.63 360.429 
" style="fill: none; stroke: #000000; stroke-width: 2.5; stroke-linejoin: miter; stroke-linecap: square"/>
   </g>
   <g id="patch_6">
    <path d="M 65.63 27.789 
L 623.63 27.789 
" style="fill: none; stroke: #000000; stroke-width: 2.5; stroke-linejoin: miter; stroke-linecap: square"/>
   </g>
   <g id="text_18">
    <!-- Ramsey Fringes for an Atomic Ensemble -->
    <g transform="translate(150.9935 21.789) scale(0.192 -0.192)">
     <defs>
      <path id="DejaVuSans-52" d="M 2841 2188 
Q 3044 2119 3236 1894 
Q 3428 1669 3622 1275 
L 4263 0 
L 3584 0 
L 2988 1197 
Q 2756 1666 2539 1819 
Q 2322 1972 1947 1972 
L 1259 1972 
L 1259 0 
L 628 0 
L 628 4666 
L 2053 4666 
Q 2853 4666 3247 4331 
Q 3641 3997 3641 3322 
Q 3641 2881 3436 2590 
Q 3231 2300 2841 2188 
z
M 1259 4147 
L 1259 2491 
L 2053 2491 
Q 2509 2491 2742 2702 
Q 2975 2913 2975 3322 
Q 2975 3731 2742 3939 
Q 2509 4147 2053 4147 
L 1259 4147 
z
" transform="scale(0.015625)"/>
      <path id="DejaVuSans-6d" d="M 3328 2828 
Q 3544 3216 3844 3400 
Q 4144 3584 4550 3584 
Q 5097 3584 5394 3201 
Q 5691 2819 5691 2113 
L 5691 0 
L 5113 0 
L 5113 2094 
Q 5113 2597 4934 2840 
Q 4756 3084 4391 3084 
Q 3944 3084 3684 2787 
Q 3425 2491 3425 1978 
L 3425 0 
L 2847 0 
L 2847 2094 
Q 2847 2600 2669 2842 
Q 2491 3084 2119 3084 
Q 1678 3084 1418 2786 
Q 1159 2488 1159 1978 
L 1159 0 
L 581 0 
L 581 3500 
L 1159 3500 
L 1159 2956 
Q 1356 3278 1631 3431 
Q 1906 3584 2284 3584 
Q 2666 3584 2933 3390 
Q 3200 3197 3328 2828 
z
" transform="scale(0.015625)"/>
      <path id="DejaVuSans-79" d="M 2059 -325 
Q 1816 -950 1584 -1140 
Q 1353 -1331 966 -1331 
L 506 -1331 
L 506 -850 
L 844 -850 
Q 1081 -850 1212 -737 
Q 1344 -625 1503 -206 
L 1606 56 
L 191 3500 
L 800 3500 
L 1894 763 
L 2988 3500 
L 3597 3500 
L 2059 -325 
z
" transform="scale(0.015625)"/>
      <path id="DejaVuSans-46" d="M 628 4666 
L 3309 4666 
L 3309 4134 
L 1259 4134 
L 1259 2759 
L 3109 2759 
L 3109 2228 
L 1259 2228 
L 1259 0 
L 628 0 
L 628 4666 
z
" transform="scale(0.015625)"/>
      <path id="DejaVuSans-72" d="M 2631 2963 
Q 2534 3019 2420 3045 
Q 2306 3072 2169 3072 
Q 1681 3072 1420 2755 
Q 1159 2438 1159 1844 
L 1159 0 
L 581 0 
L 581 3500 
L 1159 3500 
L 1159 2956 
Q 1341 3275 1631 3429 
Q 1922 3584 2338 3584 
Q 2397 3584 2469 3576 
Q 2541 3569 2628 3553 
L 2631 2963 
z
" transform="scale(0.015625)"/>
      <path id="DejaVuSans-66" d="M 2375 4863 
L 2375 4384 
L 1825 4384 
Q 1516 4384 1395 4259 
Q 1275 4134 1275 3809 
L 1275 3500 
L 2222 3500 
L 2222 3053 
L 1275 3053 
L 1275 0 
L 697 0 
L 697 3053 
L 147 3053 
L 147 3500 
L 697 3500 
L 697 3744 
Q 697 4328 969 4595 
Q 1241 4863 1831 4863 
L 2375 4863 
z
" transform="scale(0.015625)"/>
      <path id="DejaVuSans-41" d="M 2188 4044 
L 1331 1722 
L 3047 1722 
L 2188 4044 
z
M 1831 4666 
L 2547 4666 
L 4325 0 
L 3669 0 
L 3244 1197 
L 1141 1197 
L 716 0 
L 50 0 
L 1831 4666 
z
" transform="scale(0.015625)"/>
      <path id="DejaVuSans-62" d="M 3116 1747 
Q 3116 2381 2855 2742 
Q 2594 3103 2138 3103 
Q 1681 3103 1420 2742 
Q 1159 2381 1159 1747 
Q 1159 1113 1420 752 
Q 1681 391 2138 391 
Q 2594 391 2855 752 
Q 3116 1113 3116 1747 
z
M 1159 2969 
Q 1341 3281 1617 3432 
Q 1894 3584 2278 3584 
Q 2916 3584 3314 3078 
Q 3713 2572 3713 1747 
Q 3713 922 3314 415 
Q 2916 -91 2278 -91 
Q 1894 -91 1617 61 
Q 1341 213 1159 525 
L 1159 0 
L 581 0 
L 581 4863 
L 1159 4863 
L 1159 2969 
z
" transform="scale(0.015625)"/>
     </defs>
     <use xlink:href="#DejaVuSans-52"/>
     <use xlink:href="#DejaVuSans-61" x="67.232422"/>
     <use xlink:href="#DejaVuSans-6d" x="128.511719"/>
     <use xlink:href="#DejaVuSans-73" x="225.923828"/>
     <use xlink:href="#DejaVuSans-65" x="278.023438"/>
     <use xlink:href="#DejaVuSans-79" x="339.546875"/>
     <use xlink:href="#DejaVuSans-20" x="398.726562"/>
     <use xlink:href="#DejaVuSans-46" x="430.513672"/>
     <use xlink:href="#DejaVuSans-72" x="480.783203"/>
     <use xlink:href="#DejaVuSans-69" x="521.896484"/>
     <use xlink:href="#DejaVuSans-6e" x="549.679688"/>
     <use xlink:href="#DejaVuSans-67" x="613.058594"/>
     <use xlink:href="#DejaVuSans-65" x="676.535156"/>
     <use xlink:href="#DejaVuSans-73" x="738.058594"/>
     <use xlink:href="#DejaVuSans-20" x="790.158203"/>
     <use xlink:href="#DejaVuSans-66" x="821.945312"/>
     <use xlink:href="#DejaVuSans-6f" x="857.150391"/>
     <use xlink:href="#DejaVuSans-72" x="918.332031"/>
     <use xlink:href="#DejaVuSans-20" x="959.445312"/>
     <use xlink:href="#DejaVuSans-61" x="991.232422"/>
     <use xlink:href="#DejaVuSans-6e" x="1052.511719"/>
     <use xlink:href="#DejaVuSans-20" x="1115.890625"/>
     <use xlink:href="#DejaVuSans-41" x="1147.677734"/>
     <use xlink:href="#DejaVuSans-74" x="1214.335938"/>
     <use xlink:href="#DejaVuSans-6f" x="1253.544922"/>
     <use xlink:href="#DejaVuSans-6d" x="1314.726562"/>
     <use xlink:href="#DejaVuSans-69" x="1412.138672"/>
     <use xlink:href="#DejaVuSans-63" x="1439.921875"/>
     <use xlink:href="#DejaVuSans-20" x="1494.902344"/>
     <use xlink:href="#DejaVuSans-45" x="1526.689453"/>
     <use xlink:href="#DejaVuSans-6e" x="1589.873047"/>
     <use xlink:href="#DejaVuSans-73" x="1653.251953"/>
     <use xlink:href="#DejaVuSans-65" x="1705.351562"/>
     <use xlink:href="#DejaVuSans-6d" x="1766.875"/>
     <use xlink:href="#DejaVuSans-62" x="1864.287109"/>
     <use xlink:href="#DejaVuSans-6c" x="1927.763672"/>
     <use xlink:href="#DejaVuSans-65" x="1955.546875"/>
    </g>
   </g>
  </g>
 </g>
 <defs>
  <clipPath id="pf95e39c892">
   <rect x="65.63" y="27.789" width="558" height="332.64"/>
  </clipPath>
 </defs>
</svg>
