<?xml version="1.0" encoding="utf-8" standalone="no"?>
<!DOCTYPE svg PUBLIC "-//W3C//DTD SVG 1.1//EN"
  "http://www.w3.org/Graphics/SVG/1.1/DTD/svg11.dtd">
<svg xmlns:xlink="http://www.w3.org/1999/xlink" width="628.894375pt" height="411.731875pt" viewBox="0 0 628.894375 411.731875" xmlns="http://www.w3.org/2000/svg" version="1.1">
 <metadata>
  <rdf:RDF xmlns:dc="http://purl.org/dc/elements/1.1/" xmlns:cc="http://creativecommons.org/ns#" xmlns:rdf="http://www.w3.org/1999/02/22-rdf-syntax-ns#">
   <cc:Work>
    <dc:type rdf:resource="http://purl.org/dc/dcmitype/StillImage"/>
    <dc:date>2024-08-11T20:05:28.497448</dc:date>
    <dc:format>image/svg+xml</dc:format>
    <dc:creator>
     <cc:Agent>
      <dc:title>Matplotlib v3.7.1, https://matplotlib.org/</dc:title>
     </cc:Agent>
    </dc:creator>
   </cc:Work>
  </rdf:RDF>
 </metadata>
 <defs>
  <style type="text/css">*{stroke-linejoin: round; stroke-linecap: butt}</style>
 </defs>
 <g id="figure_1">
  <g id="patch_1">
   <path d="M -0 411.731875 
L 628.894375 411.731875 
L 628.894375 0 
L -0 0 
z
" style="fill: #ffffff"/>
  </g>
  <g id="axes_1">
   <g id="patch_2">
    <path d="M 63.694375 357.9975 
L 621.694375 357.9975 
L 621.694375 25.3575 
L 63.694375 25.3575 
z
" style="fill: #ffffff"/>
   </g>
   <g id="matplotlib.axis_1">
    <g id="xtick_1">
     <g id="line2d_1">
      <defs>
       <path id="m3e0fdbfd78" d="M 0 0 
L 0 10 
" style="stroke: #000000; stroke-width: 2.5"/>
      </defs>
      <g>
       <use xlink:href="#m3e0fdbfd78" x="89.058011" y="357.9975" style="stroke: #000000; stroke-width: 2.5"/>
      </g>
     </g>
     <g id="text_1">
      <!-- 0 -->
      <g transform="translate(83.968011 383.655) scale(0.16 -0.16)">
       <defs>
        <path id="DejaVuSans-30" d="M 2034 4250 
Q 1547 4250 1301 3770 
Q 1056 3291 1056 2328 
Q 1056 1369 1301 889 
Q 1547 409 2034 409 
Q 2525 409 2770 889 
Q 3016 1369 3016 2328 
Q 3016 3291 2770 3770 
Q 2525 4250 2034 4250 
z
M 2034 4750 
Q 2819 4750 3233 4129 
Q 3647 3509 3647 2328 
Q 3647 1150 3233 529 
Q 2819 -91 2034 -91 
Q 1250 -91 836 529 
Q 422 1150 422 2328 
Q 422 3509 836 4129 
Q 1250 4750 2034 4750 
z
" transform="scale(0.015625)"/>
       </defs>
       <use xlink:href="#DejaVuSans-30"/>
      </g>
     </g>
    </g>
    <g id="xtick_2">
     <g id="line2d_2">
      <g>
       <use xlink:href="#m3e0fdbfd78" x="190.532852" y="357.9975" style="stroke: #000000; stroke-width: 2.5"/>
      </g>
     </g>
     <g id="text_2">
      <!-- 100 -->
      <g transform="translate(175.262852 383.655) scale(0.16 -0.16)">
       <defs>
        <path id="DejaVuSans-31" d="M 794 531 
L 1825 531 
L 1825 4091 
L 703 3866 
L 703 4441 
L 1819 4666 
L 2450 4666 
L 2450 531 
L 3481 531 
L 3481 0 
L 794 0 
L 794 531 
z
" transform="scale(0.015625)"/>
       </defs>
       <use xlink:href="#DejaVuSans-31"/>
       <use xlink:href="#DejaVuSans-30" x="63.623047"/>
       <use xlink:href="#DejaVuSans-30" x="127.246094"/>
      </g>
     </g>
    </g>
    <g id="xtick_3">
     <g id="line2d_3">
      <g>
       <use xlink:href="#m3e0fdbfd78" x="292.007692" y="357.9975" style="stroke: #000000; stroke-width: 2.5"/>
      </g>
     </g>
     <g id="text_3">
      <!-- 200 -->
      <g transform="translate(276.737692 383.655) scale(0.16 -0.16)">
       <defs>
        <path id="DejaVuSans-32" d="M 1228 531 
L 3431 531 
L 3431 0 
L 469 0 
L 469 531 
Q 828 903 1448 1529 
Q 2069 2156 2228 2338 
Q 2531 2678 2651 2914 
Q 2772 3150 2772 3378 
Q 2772 3750 2511 3984 
Q 2250 4219 1831 4219 
Q 1534 4219 1204 4116 
Q 875 4013 500 3803 
L 500 4441 
Q 881 4594 1212 4672 
Q 1544 4750 1819 4750 
Q 2544 4750 2975 4387 
Q 3406 4025 3406 3419 
Q 3406 3131 3298 2873 
Q 3191 2616 2906 2266 
Q 2828 2175 2409 1742 
Q 1991 1309 1228 531 
z
" transform="scale(0.015625)"/>
       </defs>
       <use xlink:href="#DejaVuSans-32"/>
       <use xlink:href="#DejaVuSans-30" x="63.623047"/>
       <use xlink:href="#DejaVuSans-30" x="127.246094"/>
      </g>
     </g>
    </g>
    <g id="xtick_4">
     <g id="line2d_4">
      <g>
       <use xlink:href="#m3e0fdbfd78" x="393.482533" y="357.9975" style="stroke: #000000; stroke-width: 2.5"/>
      </g>
     </g>
     <g id="text_4">
      <!-- 300 -->
      <g transform="translate(378.212533 383.655) scale(0.16 -0.16)">
       <defs>
        <path id="DejaVuSans-33" d="M 2597 2516 
Q 3050 2419 3304 2112 
Q 3559 1806 3559 1356 
Q 3559 666 3084 287 
Q 2609 -91 1734 -91 
Q 1441 -91 1130 -33 
Q 819 25 488 141 
L 488 750 
Q 750 597 1062 519 
Q 1375 441 1716 441 
Q 2309 441 2620 675 
Q 2931 909 2931 1356 
Q 2931 1769 2642 2001 
Q 2353 2234 1838 2234 
L 1294 2234 
L 1294 2753 
L 1863 2753 
Q 2328 2753 2575 2939 
Q 2822 3125 2822 3475 
Q 2822 3834 2567 4026 
Q 2313 4219 1838 4219 
Q 1578 4219 1281 4162 
Q 984 4106 628 3988 
L 628 4550 
Q 988 4650 1302 4700 
Q 1616 4750 1894 4750 
Q 2613 4750 3031 4423 
Q 3450 4097 3450 3541 
Q 3450 3153 3228 2886 
Q 3006 2619 2597 2516 
z
" transform="scale(0.015625)"/>
       </defs>
       <use xlink:href="#DejaVuSans-33"/>
       <use xlink:href="#DejaVuSans-30" x="63.623047"/>
       <use xlink:href="#DejaVuSans-30" x="127.246094"/>
      </g>
     </g>
    </g>
    <g id="xtick_5">
     <g id="line2d_5">
      <g>
       <use xlink:href="#m3e0fdbfd78" x="494.957373" y="357.9975" style="stroke: #000000; stroke-width: 2.5"/>
      </g>
     </g>
     <g id="text_5">
      <!-- 400 -->
      <g transform="translate(479.687373 383.655) scale(0.16 -0.16)">
       <defs>
        <path id="DejaVuSans-34" d="M 2419 4116 
L 825 1625 
L 2419 1625 
L 2419 4116 
z
M 2253 4666 
L 3047 4666 
L 3047 1625 
L 3713 1625 
L 3713 1100 
L 3047 1100 
L 3047 0 
L 2419 0 
L 2419 1100 
L 313 1100 
L 313 1709 
L 2253 4666 
z
" transform="scale(0.015625)"/>
       </defs>
       <use xlink:href="#DejaVuSans-34"/>
       <use xlink:href="#DejaVuSans-30" x="63.623047"/>
       <use xlink:href="#DejaVuSans-30" x="127.246094"/>
      </g>
     </g>
    </g>
    <g id="xtick_6">
     <g id="line2d_6">
      <g>
       <use xlink:href="#m3e0fdbfd78" x="596.432213" y="357.9975" style="stroke: #000000; stroke-width: 2.5"/>
      </g>
     </g>
     <g id="text_6">
      <!-- 500 -->
      <g transform="translate(581.162213 383.655) scale(0.16 -0.16)">
       <defs>
        <path id="DejaVuSans-35" d="M 691 4666 
L 3169 4666 
L 3169 4134 
L 1269 4134 
L 1269 2991 
Q 1406 3038 1543 3061 
Q 1681 3084 1819 3084 
Q 2600 3084 3056 2656 
Q 3513 2228 3513 1497 
Q 3513 744 3044 326 
Q 2575 -91 1722 -91 
Q 1428 -91 1123 -41 
Q 819 9 494 109 
L 494 744 
Q 775 591 1075 516 
Q 1375 441 1709 441 
Q 2250 441 2565 725 
Q 2881 1009 2881 1497 
Q 2881 1984 2565 2268 
Q 2250 2553 1709 2553 
Q 1456 2553 1204 2497 
Q 953 2441 691 2322 
L 691 4666 
z
" transform="scale(0.015625)"/>
       </defs>
       <use xlink:href="#DejaVuSans-35"/>
       <use xlink:href="#DejaVuSans-30" x="63.623047"/>
       <use xlink:href="#DejaVuSans-30" x="127.246094"/>
      </g>
     </g>
    </g>
    <g id="text_7">
     <!-- Time [ms] -->
     <g transform="translate(307.415469 401.620313) scale(0.14 -0.14)">
      <defs>
       <path id="DejaVuSans-54" d="M -19 4666 
L 3928 4666 
L 3928 4134 
L 2272 4134 
L 2272 0 
L 1638 0 
L 1638 4134 
L -19 4134 
L -19 4666 
z
" transform="scale(0.015625)"/>
       <path id="DejaVuSans-69" d="M 603 3500 
L 1178 3500 
L 1178 0 
L 603 0 
L 603 3500 
z
M 603 4863 
L 1178 4863 
L 1178 4134 
L 603 4134 
L 603 4863 
z
" transform="scale(0.015625)"/>
       <path id="DejaVuSans-6d" d="M 3328 2828 
Q 3544 3216 3844 3400 
Q 4144 3584 4550 3584 
Q 5097 3584 5394 3201 
Q 5691 2819 5691 2113 
L 5691 0 
L 5113 0 
L 5113 2094 
Q 5113 2597 4934 2840 
Q 4756 3084 4391 3084 
Q 3944 3084 3684 2787 
Q 3425 2491 3425 1978 
L 3425 0 
L 2847 0 
L 2847 2094 
Q 2847 2600 2669 2842 
Q 2491 3084 2119 3084 
Q 1678 3084 1418 2786 
Q 1159 2488 1159 1978 
L 1159 0 
L 581 0 
L 581 3500 
L 1159 3500 
L 1159 2956 
Q 1356 3278 1631 3431 
Q 1906 3584 2284 3584 
Q 2666 3584 2933 3390 
Q 3200 3197 3328 2828 
z
" transform="scale(0.015625)"/>
       <path id="DejaVuSans-65" d="M 3597 1894 
L 3597 1613 
L 953 1613 
Q 991 1019 1311 708 
Q 1631 397 2203 397 
Q 2534 397 2845 478 
Q 3156 559 3463 722 
L 3463 178 
Q 3153 47 2828 -22 
Q 2503 -91 2169 -91 
Q 1331 -91 842 396 
Q 353 884 353 1716 
Q 353 2575 817 3079 
Q 1281 3584 2069 3584 
Q 2775 3584 3186 3129 
Q 3597 2675 3597 1894 
z
M 3022 2063 
Q 3016 2534 2758 2815 
Q 2500 3097 2075 3097 
Q 1594 3097 1305 2825 
Q 1016 2553 972 2059 
L 3022 2063 
z
" transform="scale(0.015625)"/>
       <path id="DejaVuSans-20" transform="scale(0.015625)"/>
       <path id="DejaVuSans-5b" d="M 550 4863 
L 1875 4863 
L 1875 4416 
L 1125 4416 
L 1125 -397 
L 1875 -397 
L 1875 -844 
L 550 -844 
L 550 4863 
z
" transform="scale(0.015625)"/>
       <path id="DejaVuSans-73" d="M 2834 3397 
L 2834 2853 
Q 2591 2978 2328 3040 
Q 2066 3103 1784 3103 
Q 1356 3103 1142 2972 
Q 928 2841 928 2578 
Q 928 2378 1081 2264 
Q 1234 2150 1697 2047 
L 1894 2003 
Q 2506 1872 2764 1633 
Q 3022 1394 3022 966 
Q 3022 478 2636 193 
Q 2250 -91 1575 -91 
Q 1294 -91 989 -36 
Q 684 19 347 128 
L 347 722 
Q 666 556 975 473 
Q 1284 391 1588 391 
Q 1994 391 2212 530 
Q 2431 669 2431 922 
Q 2431 1156 2273 1281 
Q 2116 1406 1581 1522 
L 1381 1569 
Q 847 1681 609 1914 
Q 372 2147 372 2553 
Q 372 3047 722 3315 
Q 1072 3584 1716 3584 
Q 2034 3584 2315 3537 
Q 2597 3491 2834 3397 
z
" transform="scale(0.015625)"/>
       <path id="DejaVuSans-5d" d="M 1947 4863 
L 1947 -844 
L 622 -844 
L 622 -397 
L 1369 -397 
L 1369 4416 
L 622 4416 
L 622 4863 
L 1947 4863 
z
" transform="scale(0.015625)"/>
      </defs>
      <use xlink:href="#DejaVuSans-54"/>
      <use xlink:href="#DejaVuSans-69" x="57.958984"/>
      <use xlink:href="#DejaVuSans-6d" x="85.742188"/>
      <use xlink:href="#DejaVuSans-65" x="183.154297"/>
      <use xlink:href="#DejaVuSans-20" x="244.677734"/>
      <use xlink:href="#DejaVuSans-5b" x="276.464844"/>
      <use xlink:href="#DejaVuSans-6d" x="315.478516"/>
      <use xlink:href="#DejaVuSans-73" x="412.890625"/>
      <use xlink:href="#DejaVuSans-5d" x="464.990234"/>
     </g>
    </g>
   </g>
   <g id="matplotlib.axis_2">
    <g id="ytick_1">
     <g id="line2d_7">
      <defs>
       <path id="mcaabc2226a" d="M 0 0 
L -10 0 
" style="stroke: #000000; stroke-width: 2.5"/>
      </defs>
      <g>
       <use xlink:href="#mcaabc2226a" x="63.694375" y="357.9975" style="stroke: #000000; stroke-width: 2.5"/>
      </g>
     </g>
     <g id="text_8">
      <!-- 0.0 -->
      <g transform="translate(24.749375 364.07625) scale(0.16 -0.16)">
       <defs>
        <path id="DejaVuSans-2e" d="M 684 794 
L 1344 794 
L 1344 0 
L 684 0 
L 684 794 
z
" transform="scale(0.015625)"/>
       </defs>
       <use xlink:href="#DejaVuSans-30"/>
       <use xlink:href="#DejaVuSans-2e" x="63.623047"/>
       <use xlink:href="#DejaVuSans-30" x="95.410156"/>
      </g>
     </g>
    </g>
    <g id="ytick_2">
     <g id="line2d_8">
      <g>
       <use xlink:href="#mcaabc2226a" x="63.694375" y="297.5175" style="stroke: #000000; stroke-width: 2.5"/>
      </g>
     </g>
     <g id="text_9">
      <!-- 0.2 -->
      <g transform="translate(24.749375 303.59625) scale(0.16 -0.16)">
       <use xlink:href="#DejaVuSans-30"/>
       <use xlink:href="#DejaVuSans-2e" x="63.623047"/>
       <use xlink:href="#DejaVuSans-32" x="95.410156"/>
      </g>
     </g>
    </g>
    <g id="ytick_3">
     <g id="line2d_9">
      <g>
       <use xlink:href="#mcaabc2226a" x="63.694375" y="237.0375" style="stroke: #000000; stroke-width: 2.5"/>
      </g>
     </g>
     <g id="text_10">
      <!-- 0.4 -->
      <g transform="translate(24.749375 243.11625) scale(0.16 -0.16)">
       <use xlink:href="#DejaVuSans-30"/>
       <use xlink:href="#DejaVuSans-2e" x="63.623047"/>
       <use xlink:href="#DejaVuSans-34" x="95.410156"/>
      </g>
     </g>
    </g>
    <g id="ytick_4">
     <g id="line2d_10">
      <g>
       <use xlink:href="#mcaabc2226a" x="63.694375" y="176.5575" style="stroke: #000000; stroke-width: 2.5"/>
      </g>
     </g>
     <g id="text_11">
      <!-- 0.6 -->
      <g transform="translate(24.749375 182.63625) scale(0.16 -0.16)">
       <defs>
        <path id="DejaVuSans-36" d="M 2113 2584 
Q 1688 2584 1439 2293 
Q 1191 2003 1191 1497 
Q 1191 994 1439 701 
Q 1688 409 2113 409 
Q 2538 409 2786 701 
Q 3034 994 3034 1497 
Q 3034 2003 2786 2293 
Q 2538 2584 2113 2584 
z
M 3366 4563 
L 3366 3988 
Q 3128 4100 2886 4159 
Q 2644 4219 2406 4219 
Q 1781 4219 1451 3797 
Q 1122 3375 1075 2522 
Q 1259 2794 1537 2939 
Q 1816 3084 2150 3084 
Q 2853 3084 3261 2657 
Q 3669 2231 3669 1497 
Q 3669 778 3244 343 
Q 2819 -91 2113 -91 
Q 1303 -91 875 529 
Q 447 1150 447 2328 
Q 447 3434 972 4092 
Q 1497 4750 2381 4750 
Q 2619 4750 2861 4703 
Q 3103 4656 3366 4563 
z
" transform="scale(0.015625)"/>
       </defs>
       <use xlink:href="#DejaVuSans-30"/>
       <use xlink:href="#DejaVuSans-2e" x="63.623047"/>
       <use xlink:href="#DejaVuSans-36" x="95.410156"/>
      </g>
     </g>
    </g>
    <g id="ytick_5">
     <g id="line2d_11">
      <g>
       <use xlink:href="#mcaabc2226a" x="63.694375" y="116.0775" style="stroke: #000000; stroke-width: 2.5"/>
      </g>
     </g>
     <g id="text_12">
      <!-- 0.8 -->
      <g transform="translate(24.749375 122.15625) scale(0.16 -0.16)">
       <defs>
        <path id="DejaVuSans-38" d="M 2034 2216 
Q 1584 2216 1326 1975 
Q 1069 1734 1069 1313 
Q 1069 891 1326 650 
Q 1584 409 2034 409 
Q 2484 409 2743 651 
Q 3003 894 3003 1313 
Q 3003 1734 2745 1975 
Q 2488 2216 2034 2216 
z
M 1403 2484 
Q 997 2584 770 2862 
Q 544 3141 544 3541 
Q 544 4100 942 4425 
Q 1341 4750 2034 4750 
Q 2731 4750 3128 4425 
Q 3525 4100 3525 3541 
Q 3525 3141 3298 2862 
Q 3072 2584 2669 2484 
Q 3125 2378 3379 2068 
Q 3634 1759 3634 1313 
Q 3634 634 3220 271 
Q 2806 -91 2034 -91 
Q 1263 -91 848 271 
Q 434 634 434 1313 
Q 434 1759 690 2068 
Q 947 2378 1403 2484 
z
M 1172 3481 
Q 1172 3119 1398 2916 
Q 1625 2713 2034 2713 
Q 2441 2713 2670 2916 
Q 2900 3119 2900 3481 
Q 2900 3844 2670 4047 
Q 2441 4250 2034 4250 
Q 1625 4250 1398 4047 
Q 1172 3844 1172 3481 
z
" transform="scale(0.015625)"/>
       </defs>
       <use xlink:href="#DejaVuSans-30"/>
       <use xlink:href="#DejaVuSans-2e" x="63.623047"/>
       <use xlink:href="#DejaVuSans-38" x="95.410156"/>
      </g>
     </g>
    </g>
    <g id="ytick_6">
     <g id="line2d_12">
      <g>
       <use xlink:href="#mcaabc2226a" x="63.694375" y="55.5975" style="stroke: #000000; stroke-width: 2.5"/>
      </g>
     </g>
     <g id="text_13">
      <!-- 1.0 -->
      <g transform="translate(24.749375 61.67625) scale(0.16 -0.16)">
       <use xlink:href="#DejaVuSans-31"/>
       <use xlink:href="#DejaVuSans-2e" x="63.623047"/>
       <use xlink:href="#DejaVuSans-30" x="95.410156"/>
      </g>
     </g>
    </g>
    <g id="text_14">
     <!-- Excited state probability -->
     <g transform="translate(17.837813 276.9375) rotate(-90) scale(0.14 -0.14)">
      <defs>
       <path id="DejaVuSans-45" d="M 628 4666 
L 3578 4666 
L 3578 4134 
L 1259 4134 
L 1259 2753 
L 3481 2753 
L 3481 2222 
L 1259 2222 
L 1259 531 
L 3634 531 
L 3634 0 
L 628 0 
L 628 4666 
z
" transform="scale(0.015625)"/>
       <path id="DejaVuSans-78" d="M 3513 3500 
L 2247 1797 
L 3578 0 
L 2900 0 
L 1881 1375 
L 863 0 
L 184 0 
L 1544 1831 
L 300 3500 
L 978 3500 
L 1906 2253 
L 2834 3500 
L 3513 3500 
z
" transform="scale(0.015625)"/>
       <path id="DejaVuSans-63" d="M 3122 3366 
L 3122 2828 
Q 2878 2963 2633 3030 
Q 2388 3097 2138 3097 
Q 1578 3097 1268 2742 
Q 959 2388 959 1747 
Q 959 1106 1268 751 
Q 1578 397 2138 397 
Q 2388 397 2633 464 
Q 2878 531 3122 666 
L 3122 134 
Q 2881 22 2623 -34 
Q 2366 -91 2075 -91 
Q 1284 -91 818 406 
Q 353 903 353 1747 
Q 353 2603 823 3093 
Q 1294 3584 2113 3584 
Q 2378 3584 2631 3529 
Q 2884 3475 3122 3366 
z
" transform="scale(0.015625)"/>
       <path id="DejaVuSans-74" d="M 1172 4494 
L 1172 3500 
L 2356 3500 
L 2356 3053 
L 1172 3053 
L 1172 1153 
Q 1172 725 1289 603 
Q 1406 481 1766 481 
L 2356 481 
L 2356 0 
L 1766 0 
Q 1100 0 847 248 
Q 594 497 594 1153 
L 594 3053 
L 172 3053 
L 172 3500 
L 594 3500 
L 594 4494 
L 1172 4494 
z
" transform="scale(0.015625)"/>
       <path id="DejaVuSans-64" d="M 2906 2969 
L 2906 4863 
L 3481 4863 
L 3481 0 
L 2906 0 
L 2906 525 
Q 2725 213 2448 61 
Q 2172 -91 1784 -91 
Q 1150 -91 751 415 
Q 353 922 353 1747 
Q 353 2572 751 3078 
Q 1150 3584 1784 3584 
Q 2172 3584 2448 3432 
Q 2725 3281 2906 2969 
z
M 947 1747 
Q 947 1113 1208 752 
Q 1469 391 1925 391 
Q 2381 391 2643 752 
Q 2906 1113 2906 1747 
Q 2906 2381 2643 2742 
Q 2381 3103 1925 3103 
Q 1469 3103 1208 2742 
Q 947 2381 947 1747 
z
" transform="scale(0.015625)"/>
       <path id="DejaVuSans-61" d="M 2194 1759 
Q 1497 1759 1228 1600 
Q 959 1441 959 1056 
Q 959 750 1161 570 
Q 1363 391 1709 391 
Q 2188 391 2477 730 
Q 2766 1069 2766 1631 
L 2766 1759 
L 2194 1759 
z
M 3341 1997 
L 3341 0 
L 2766 0 
L 2766 531 
Q 2569 213 2275 61 
Q 1981 -91 1556 -91 
Q 1019 -91 701 211 
Q 384 513 384 1019 
Q 384 1609 779 1909 
Q 1175 2209 1959 2209 
L 2766 2209 
L 2766 2266 
Q 2766 2663 2505 2880 
Q 2244 3097 1772 3097 
Q 1472 3097 1187 3025 
Q 903 2953 641 2809 
L 641 3341 
Q 956 3463 1253 3523 
Q 1550 3584 1831 3584 
Q 2591 3584 2966 3190 
Q 3341 2797 3341 1997 
z
" transform="scale(0.015625)"/>
       <path id="DejaVuSans-70" d="M 1159 525 
L 1159 -1331 
L 581 -1331 
L 581 3500 
L 1159 3500 
L 1159 2969 
Q 1341 3281 1617 3432 
Q 1894 3584 2278 3584 
Q 2916 3584 3314 3078 
Q 3713 2572 3713 1747 
Q 3713 922 3314 415 
Q 2916 -91 2278 -91 
Q 1894 -91 1617 61 
Q 1341 213 1159 525 
z
M 3116 1747 
Q 3116 2381 2855 2742 
Q 2594 3103 2138 3103 
Q 1681 3103 1420 2742 
Q 1159 2381 1159 1747 
Q 1159 1113 1420 752 
Q 1681 391 2138 391 
Q 2594 391 2855 752 
Q 3116 1113 3116 1747 
z
" transform="scale(0.015625)"/>
       <path id="DejaVuSans-72" d="M 2631 2963 
Q 2534 3019 2420 3045 
Q 2306 3072 2169 3072 
Q 1681 3072 1420 2755 
Q 1159 2438 1159 1844 
L 1159 0 
L 581 0 
L 581 3500 
L 1159 3500 
L 1159 2956 
Q 1341 3275 1631 3429 
Q 1922 3584 2338 3584 
Q 2397 3584 2469 3576 
Q 2541 3569 2628 3553 
L 2631 2963 
z
" transform="scale(0.015625)"/>
       <path id="DejaVuSans-6f" d="M 1959 3097 
Q 1497 3097 1228 2736 
Q 959 2375 959 1747 
Q 959 1119 1226 758 
Q 1494 397 1959 397 
Q 2419 397 2687 759 
Q 2956 1122 2956 1747 
Q 2956 2369 2687 2733 
Q 2419 3097 1959 3097 
z
M 1959 3584 
Q 2709 3584 3137 3096 
Q 3566 2609 3566 1747 
Q 3566 888 3137 398 
Q 2709 -91 1959 -91 
Q 1206 -91 779 398 
Q 353 888 353 1747 
Q 353 2609 779 3096 
Q 1206 3584 1959 3584 
z
" transform="scale(0.015625)"/>
       <path id="DejaVuSans-62" d="M 3116 1747 
Q 3116 2381 2855 2742 
Q 2594 3103 2138 3103 
Q 1681 3103 1420 2742 
Q 1159 2381 1159 1747 
Q 1159 1113 1420 752 
Q 1681 391 2138 391 
Q 2594 391 2855 752 
Q 3116 1113 3116 1747 
z
M 1159 2969 
Q 1341 3281 1617 3432 
Q 1894 3584 2278 3584 
Q 2916 3584 3314 3078 
Q 3713 2572 3713 1747 
Q 3713 922 3314 415 
Q 2916 -91 2278 -91 
Q 1894 -91 1617 61 
Q 1341 213 1159 525 
L 1159 0 
L 581 0 
L 581 4863 
L 1159 4863 
L 1159 2969 
z
" transform="scale(0.015625)"/>
       <path id="DejaVuSans-6c" d="M 603 4863 
L 1178 4863 
L 1178 0 
L 603 0 
L 603 4863 
z
" transform="scale(0.015625)"/>
       <path id="DejaVuSans-79" d="M 2059 -325 
Q 1816 -950 1584 -1140 
Q 1353 -1331 966 -1331 
L 506 -1331 
L 506 -850 
L 844 -850 
Q 1081 -850 1212 -737 
Q 1344 -625 1503 -206 
L 1606 56 
L 191 3500 
L 800 3500 
L 1894 763 
L 2988 3500 
L 3597 3500 
L 2059 -325 
z
" transform="scale(0.015625)"/>
      </defs>
      <use xlink:href="#DejaVuSans-45"/>
      <use xlink:href="#DejaVuSans-78" x="63.183594"/>
      <use xlink:href="#DejaVuSans-63" x="120.613281"/>
      <use xlink:href="#DejaVuSans-69" x="175.59375"/>
      <use xlink:href="#DejaVuSans-74" x="203.376953"/>
      <use xlink:href="#DejaVuSans-65" x="242.585938"/>
      <use xlink:href="#DejaVuSans-64" x="304.109375"/>
      <use xlink:href="#DejaVuSans-20" x="367.585938"/>
      <use xlink:href="#DejaVuSans-73" x="399.373047"/>
      <use xlink:href="#DejaVuSans-74" x="451.472656"/>
      <use xlink:href="#DejaVuSans-61" x="490.681641"/>
      <use xlink:href="#DejaVuSans-74" x="551.960938"/>
      <use xlink:href="#DejaVuSans-65" x="591.169922"/>
      <use xlink:href="#DejaVuSans-20" x="652.693359"/>
      <use xlink:href="#DejaVuSans-70" x="684.480469"/>
      <use xlink:href="#DejaVuSans-72" x="747.957031"/>
      <use xlink:href="#DejaVuSans-6f" x="786.820312"/>
      <use xlink:href="#DejaVuSans-62" x="848.001953"/>
      <use xlink:href="#DejaVuSans-61" x="911.478516"/>
      <use xlink:href="#DejaVuSans-62" x="972.757812"/>
      <use xlink:href="#DejaVuSans-69" x="1036.234375"/>
      <use xlink:href="#DejaVuSans-6c" x="1064.017578"/>
      <use xlink:href="#DejaVuSans-69" x="1091.800781"/>
      <use xlink:href="#DejaVuSans-74" x="1119.583984"/>
      <use xlink:href="#DejaVuSans-79" x="1158.792969"/>
     </g>
    </g>
   </g>
   <g id="line2d_13">
    <path d="M 89.058011 55.5975 
L 89.260961 57.849819 
L 89.565386 63.915029 
L 89.971285 76.640735 
L 90.580134 104.159979 
L 91.493408 158.204466 
L 93.319955 268.671609 
L 94.030279 297.950461 
L 94.537653 311.1482 
L 94.943552 316.649232 
L 95.146502 317.688257 
L 95.247977 317.783379 
L 95.349451 317.59877 
L 95.552401 316.404011 
L 95.856826 312.616237 
L 96.262725 304.095469 
L 96.770099 288.583439 
L 97.581898 255.502696 
L 99.915819 154.08377 
L 100.524668 137.520424 
L 101.032043 129.061558 
L 101.336467 126.465685 
L 101.539417 125.776534 
L 101.640892 125.741557 
L 101.843841 126.281003 
L 102.148266 128.569716 
L 102.554165 134.212245 
L 103.061539 144.934294 
L 103.771863 165.208484 
L 106.511684 250.223439 
L 107.120533 260.533367 
L 107.526432 264.477412 
L 107.830857 265.839638 
L 108.033807 265.9906 
L 108.236756 265.547159 
L 108.541181 263.804432 
L 108.94708 259.596435 
L 109.454454 251.673832 
L 110.164778 236.777816 
L 112.904599 174.818556 
L 113.513448 167.392178 
L 113.919347 164.585672 
L 114.223772 163.646761 
L 114.426721 163.573352 
L 114.629671 163.933261 
L 114.934096 165.257867 
L 115.339995 168.394384 
L 115.847369 174.247156 
L 116.557693 185.190414 
L 119.196039 229.194441 
L 119.804888 234.99192 
L 120.210787 237.309428 
L 120.515212 238.197924 
L 120.718162 238.385082 
L 120.921111 238.252934 
L 121.225536 237.473548 
L 121.631435 235.412512 
L 122.138809 231.380125 
L 122.849133 223.621672 
L 125.690429 189.463502 
L 126.299278 185.613171 
L 126.705177 184.195259 
L 127.009602 183.754131 
L 127.212551 183.7542 
L 127.415501 183.984498 
L 127.719926 184.746045 
L 128.125825 186.486013 
L 128.633199 189.678056 
L 129.444998 196.521491 
L 131.778919 217.646108 
L 132.387768 221.125562 
L 132.895142 222.917661 
L 133.301042 223.578079 
L 133.503991 223.649067 
L 133.706941 223.550281 
L 134.011366 223.09372 
L 134.417265 221.944235 
L 134.924639 219.74011 
L 135.634963 215.549476 
L 138.374784 197.841075 
L 138.983633 195.669904 
L 139.389532 194.830027 
L 139.693957 194.531729 
L 139.998381 194.516328 
L 140.302806 194.775806 
L 140.708705 195.524514 
L 141.216079 197.037793 
L 141.926403 200.003628 
L 143.448526 207.795952 
L 144.463274 212.336702 
L 145.173598 214.523189 
L 145.680972 215.441284 
L 146.086872 215.762514 
L 146.391296 215.762314 
L 146.695721 215.5618 
L 147.10162 215.001399 
L 147.608994 213.881623 
L 148.319318 211.700986 
L 151.262089 201.713353 
L 151.870938 200.681618 
L 152.276837 200.323331 
L 152.682736 200.234625 
L 153.088636 200.408431 
L 153.494535 200.827595 
L 154.103384 201.857025 
L 154.915183 203.784764 
L 157.350579 210.015024 
L 158.060903 211.079418 
L 158.568277 211.488073 
L 158.974176 211.593643 
L 159.380076 211.505772 
L 159.88745 211.141403 
L 160.496299 210.380586 
L 161.308098 208.965016 
L 163.743494 204.424205 
L 164.453818 203.656334 
L 165.062667 203.334107 
L 165.570041 203.312029 
L 166.077415 203.504512 
L 166.686264 203.986599 
L 167.498063 204.956091 
L 170.440833 208.820908 
L 171.151157 209.245457 
L 171.760006 209.356161 
L 172.368855 209.236381 
L 173.079179 208.838197 
L 173.992453 208.023002 
L 176.630799 205.436991 
L 177.442597 205.034355 
L 178.152921 204.928856 
L 178.863245 205.051487 
L 179.675044 205.431557 
L 180.791267 206.228164 
L 182.820764 207.695399 
L 183.734037 208.064744 
L 184.545836 208.162113 
L 185.357635 208.042903 
L 186.372383 207.645066 
L 190.126952 205.868724 
L 191.040226 205.803995 
L 192.054974 205.961124 
L 193.374147 206.423237 
L 195.911018 207.365613 
L 197.027242 207.52148 
L 198.143465 207.456926 
L 199.564113 207.126341 
L 202.608358 206.333305 
L 203.927531 206.271637 
L 205.348178 206.438718 
L 209.914546 207.185688 
L 211.538144 207.083453 
L 216.814835 206.520404 
L 218.945807 206.699055 
L 222.395952 207.001577 
L 224.628398 206.926123 
L 229.600665 206.650236 
L 232.949335 206.824281 
L 236.095055 206.903405 
L 246.648439 206.837891 
L 250.808907 206.818363 
L 256.897397 206.777189 
L 264.406536 206.797334 
L 272.017149 206.8081 
L 287.948699 206.804369 
L 321.536871 206.821317 
L 327.625361 206.76896 
L 332.597628 206.803099 
L 337.87432 206.824982 
L 344.064285 206.752958 
L 350.152776 206.871755 
L 356.545691 206.696848 
L 362.532706 206.963676 
L 365.374002 206.663627 
L 367.606448 206.513775 
L 369.432995 206.624474 
L 374.709687 207.162954 
L 376.333285 206.939531 
L 380.189329 206.268305 
L 381.508501 206.347468 
L 382.929149 206.664064 
L 386.176344 207.49509 
L 387.292567 207.501096 
L 388.408791 207.286291 
L 389.829438 206.766635 
L 392.061885 205.935869 
L 393.076633 205.801036 
L 393.989907 205.888668 
L 395.004655 206.218558 
L 396.323828 206.908294 
L 398.25185 207.911891 
L 399.165124 208.141573 
L 399.976922 208.127538 
L 400.788721 207.891566 
L 401.701995 207.387964 
L 403.224117 206.228164 
L 404.54329 205.316112 
L 405.355089 204.994459 
L 406.065413 204.935047 
L 406.775737 205.107565 
L 407.486061 205.506948 
L 408.399334 206.295565 
L 411.342105 209.096831 
L 412.052428 209.341049 
L 412.661277 209.308648 
L 413.270127 209.04077 
L 413.98045 208.445638 
L 414.893724 207.321588 
L 417.53207 203.798406 
L 418.140919 203.402932 
L 418.648293 203.294276 
L 419.155667 203.40562 
L 419.663041 203.741077 
L 420.271891 204.424205 
L 421.083689 205.732306 
L 424.127934 211.141403 
L 424.635309 211.505772 
L 425.142683 211.585657 
L 425.548582 211.430866 
L 426.055956 210.961402 
L 426.664805 210.015024 
L 427.375129 208.465333 
L 428.694302 204.88934 
L 429.810526 202.068482 
L 430.520849 200.827595 
L 431.028224 200.341144 
L 431.434123 200.231736 
L 431.840022 200.387587 
L 432.245922 200.813119 
L 432.753296 201.713353 
L 433.362145 203.281586 
L 434.275418 206.380509 
L 436.304915 213.608847 
L 436.913764 215.001399 
L 437.421139 215.650338 
L 437.827038 215.785173 
L 438.131462 215.648162 
L 438.537362 215.142119 
L 439.044736 214.000578 
L 439.653585 211.947715 
L 440.465384 208.302871 
L 442.90078 196.688803 
L 443.509629 195.094857 
L 443.915528 194.572849 
L 444.219953 194.495432 
L 444.524377 194.698922 
L 444.828802 195.187186 
L 445.234701 196.275799 
L 445.742075 198.302057 
L 446.452399 202.202645 
L 447.568623 209.876721 
L 448.887796 218.655408 
L 449.598119 221.944235 
L 450.105494 223.28607 
L 450.409918 223.620662 
L 450.612868 223.635004 
L 450.815817 223.478009 
L 451.120242 222.917661 
L 451.526141 221.568069 
L 452.033516 218.956249 
L 452.743839 213.797803 
L 453.758588 204.413319 
L 455.28071 190.432523 
L 455.991034 185.977828 
L 456.498409 184.183924 
L 456.802833 183.7542 
L 457.005783 183.754131 
L 457.208732 183.988945 
L 457.513157 184.786065 
L 457.919056 186.67292 
L 458.426431 190.294078 
L 459.136754 197.407722 
L 460.151503 210.291442 
L 461.673625 229.379906 
L 462.282474 234.727572 
L 462.789849 237.473548 
L 463.094273 238.252934 
L 463.297223 238.385082 
L 463.500173 238.197924 
L 463.804597 237.309428 
L 464.210496 234.99192 
L 464.717871 230.343307 
L 465.32672 222.475426 
L 466.239993 207.26885 
L 468.168015 174.247156 
L 468.776864 167.471535 
L 469.182764 164.714311 
L 469.487188 163.699807 
L 469.690138 163.555292 
L 469.893087 163.848628 
L 470.197512 165.121213 
L 470.603411 168.367914 
L 471.110786 174.818556 
L 471.719635 185.677395 
L 472.632908 206.574754 
L 474.459455 249.783319 
L 475.068304 259.596435 
L 475.575679 264.525516 
L 475.880103 265.842299 
L 476.083053 265.990211 
L 476.286002 265.537754 
L 476.590427 263.718584 
L 476.996326 259.172633 
L 477.503701 250.223439 
L 478.11255 235.238457 
L 479.025823 206.522906 
L 480.85237 147.501311 
L 481.461219 134.212245 
L 481.968593 127.614229 
L 482.273018 125.910531 
L 482.475968 125.776534 
L 482.678917 126.465685 
L 482.983342 129.061558 
L 483.389241 135.423341 
L 483.896615 147.836116 
L 484.505464 168.512617 
L 485.418738 207.968233 
L 487.245285 288.583439 
L 487.854134 306.575873 
L 488.361508 315.402326 
L 488.665933 317.59877 
L 488.767408 317.783379 
L 488.868883 317.688257 
L 489.071832 316.649232 
L 489.376257 312.951137 
L 489.782156 304.052693 
L 490.28953 286.839558 
L 490.999854 252.85266 
L 492.014603 191.036778 
L 493.536725 98.97162 
L 494.145574 72.993714 
L 494.652949 59.521111 
L 494.957373 55.5975 
L 495.160323 57.849819 
L 495.464747 63.915029 
L 495.870647 76.640735 
L 496.479496 104.159979 
L 497.392769 158.204466 
L 499.219316 268.671609 
L 499.92964 297.950461 
L 500.437014 311.1482 
L 500.842914 316.649232 
L 501.045863 317.688257 
L 501.147338 317.783379 
L 501.248813 317.59877 
L 501.451763 316.404011 
L 501.756187 312.616237 
L 502.162087 304.095469 
L 502.669461 288.583439 
L 503.48126 255.502696 
L 505.815181 154.08377 
L 506.42403 137.520424 
L 506.931404 129.061558 
L 507.235829 126.465685 
L 507.438778 125.776534 
L 507.540253 125.741557 
L 507.743203 126.281003 
L 508.047627 128.569716 
L 508.453527 134.212245 
L 508.960901 144.934294 
L 509.671225 165.208484 
L 512.411046 250.223439 
L 513.019895 260.533367 
L 513.425794 264.477412 
L 513.730219 265.839638 
L 513.933168 265.9906 
L 514.136118 265.547159 
L 514.440542 263.804432 
L 514.846442 259.596435 
L 515.353816 251.673832 
L 516.06414 236.777816 
L 518.803961 174.818556 
L 519.41281 167.392178 
L 519.818709 164.585672 
L 520.123133 163.646761 
L 520.326083 163.573352 
L 520.529033 163.933261 
L 520.833457 165.257867 
L 521.239357 168.394384 
L 521.746731 174.247156 
L 522.457055 185.190414 
L 525.095401 229.194441 
L 525.70425 234.99192 
L 526.110149 237.309428 
L 526.414574 238.197924 
L 526.617523 238.385082 
L 526.820473 238.252934 
L 527.124897 237.473548 
L 527.530797 235.412512 
L 528.038171 231.380125 
L 528.748495 223.621672 
L 531.58979 189.463502 
L 532.198639 185.613171 
L 532.604539 184.195259 
L 532.908963 183.754131 
L 533.111913 183.7542 
L 533.314863 183.984498 
L 533.619287 184.746045 
L 534.025187 186.486013 
L 534.532561 189.678056 
L 535.34436 196.521491 
L 537.678281 217.646108 
L 538.28713 221.125562 
L 538.794504 222.917661 
L 539.200403 223.578079 
L 539.403353 223.649067 
L 539.606303 223.550281 
L 539.910727 223.09372 
L 540.316627 221.944235 
L 540.824001 219.74011 
L 541.534325 215.549476 
L 544.274145 197.841075 
L 544.882995 195.669904 
L 545.288894 194.830027 
L 545.593318 194.531729 
L 545.897743 194.516328 
L 546.202167 194.775806 
L 546.608067 195.524514 
L 547.115441 197.037793 
L 547.825765 200.003628 
L 549.347888 207.795952 
L 550.362636 212.336702 
L 551.07296 214.523189 
L 551.580334 215.441284 
L 551.986233 215.762514 
L 552.290658 215.762314 
L 552.595082 215.5618 
L 553.000982 215.001399 
L 553.508356 213.881623 
L 554.21868 211.700986 
L 557.16145 201.713353 
L 557.770299 200.681618 
L 558.176199 200.323331 
L 558.582098 200.234625 
L 558.987997 200.408431 
L 559.393897 200.827595 
L 560.002746 201.857025 
L 560.814544 203.784764 
L 563.249941 210.015024 
L 563.960265 211.079418 
L 564.467639 211.488073 
L 564.873538 211.593643 
L 565.279437 211.505772 
L 565.786812 211.141403 
L 566.395661 210.380586 
L 567.207459 208.965016 
L 569.642856 204.424205 
L 570.353179 203.656334 
L 570.962029 203.334107 
L 571.469403 203.312029 
L 571.976777 203.504512 
L 572.585626 203.986599 
L 573.397425 204.956091 
L 576.340195 208.820908 
L 577.050519 209.245457 
L 577.659368 209.356161 
L 578.268217 209.236381 
L 578.978541 208.838197 
L 579.891814 208.023002 
L 582.53016 205.436991 
L 583.341959 205.034355 
L 584.052283 204.928856 
L 584.762607 205.051487 
L 585.574406 205.431557 
L 586.690629 206.228164 
L 588.720126 207.695399 
L 589.633399 208.064744 
L 590.445198 208.162113 
L 591.256997 208.042903 
L 592.271745 207.645066 
L 596.026314 205.868724 
L 596.330739 205.824148 
L 596.330739 205.824148 
" clip-path="url(#p0665e5a8e2)" style="fill: none; stroke: #1f77b4; stroke-width: 1.5; stroke-linecap: square"/>
   </g>
   <g id="line2d_14">
    <path d="M 292.007692 357.9975 
L 292.007692 25.3575 
" clip-path="url(#p0665e5a8e2)" style="fill: none; stroke-dasharray: 5.55,2.4; stroke-dashoffset: 0; stroke: #ff7f0e; stroke-width: 1.5"/>
   </g>
   <g id="patch_3">
    <path d="M 63.694375 357.9975 
L 63.694375 25.3575 
" style="fill: none; stroke: #000000; stroke-width: 2.5; stroke-linejoin: miter; stroke-linecap: square"/>
   </g>
   <g id="patch_4">
    <path d="M 621.694375 357.9975 
L 621.694375 25.3575 
" style="fill: none; stroke: #000000; stroke-width: 2.5; stroke-linejoin: miter; stroke-linecap: square"/>
   </g>
   <g id="patch_5">
    <path d="M 63.694375 357.9975 
L 621.694375 357.9975 
" style="fill: none; stroke: #000000; stroke-width: 2.5; stroke-linejoin: miter; stroke-linecap: square"/>
   </g>
   <g id="patch_6">
    <path d="M 63.694375 25.3575 
L 621.694375 25.3575 
" style="fill: none; stroke: #000000; stroke-width: 2.5; stroke-linejoin: miter; stroke-linecap: square"/>
   </g>
   <g id="text_15">
    <!-- $\pi$-pulse -->
    <g transform="translate(302.155176 342.8775) scale(0.16 -0.16)">
     <defs>
      <path id="DejaVuSans-Oblique-3c0" d="M 584 3500 
L 3938 3500 
L 3825 2925 
L 3384 2925 
L 2966 775 
Q 2922 550 2981 450 
Q 3038 353 3209 353 
Q 3256 353 3325 363 
Q 3397 369 3419 372 
L 3338 -44 
Q 3222 -84 3103 -103 
Q 2981 -122 2866 -122 
Q 2491 -122 2388 81 
Q 2284 288 2391 838 
L 2797 2925 
L 1506 2925 
L 938 0 
L 350 0 
L 919 2925 
L 472 2925 
L 584 3500 
z
" transform="scale(0.015625)"/>
      <path id="DejaVuSans-2d" d="M 313 2009 
L 1997 2009 
L 1997 1497 
L 313 1497 
L 313 2009 
z
" transform="scale(0.015625)"/>
      <path id="DejaVuSans-75" d="M 544 1381 
L 544 3500 
L 1119 3500 
L 1119 1403 
Q 1119 906 1312 657 
Q 1506 409 1894 409 
Q 2359 409 2629 706 
Q 2900 1003 2900 1516 
L 2900 3500 
L 3475 3500 
L 3475 0 
L 2900 0 
L 2900 538 
Q 2691 219 2414 64 
Q 2138 -91 1772 -91 
Q 1169 -91 856 284 
Q 544 659 544 1381 
z
M 1991 3584 
L 1991 3584 
z
" transform="scale(0.015625)"/>
     </defs>
     <use xlink:href="#DejaVuSans-Oblique-3c0" transform="translate(0 0.015625)"/>
     <use xlink:href="#DejaVuSans-2d" transform="translate(60.205078 0.015625)"/>
     <use xlink:href="#DejaVuSans-70" transform="translate(96.289062 0.015625)"/>
     <use xlink:href="#DejaVuSans-75" transform="translate(159.765625 0.015625)"/>
     <use xlink:href="#DejaVuSans-6c" transform="translate(223.144531 0.015625)"/>
     <use xlink:href="#DejaVuSans-73" transform="translate(250.927734 0.015625)"/>
     <use xlink:href="#DejaVuSans-65" transform="translate(303.027344 0.015625)"/>
    </g>
   </g>
   <g id="text_16">
    <!-- Hahn echo -->
    <g transform="translate(299.806875 19.3575) scale(0.16 -0.16)">
     <defs>
      <path id="DejaVuSans-48" d="M 628 4666 
L 1259 4666 
L 1259 2753 
L 3553 2753 
L 3553 4666 
L 4184 4666 
L 4184 0 
L 3553 0 
L 3553 2222 
L 1259 2222 
L 1259 0 
L 628 0 
L 628 4666 
z
" transform="scale(0.015625)"/>
      <path id="DejaVuSans-68" d="M 3513 2113 
L 3513 0 
L 2938 0 
L 2938 2094 
Q 2938 2591 2744 2837 
Q 2550 3084 2163 3084 
Q 1697 3084 1428 2787 
Q 1159 2491 1159 1978 
L 1159 0 
L 581 0 
L 581 4863 
L 1159 4863 
L 1159 2956 
Q 1366 3272 1645 3428 
Q 1925 3584 2291 3584 
Q 2894 3584 3203 3211 
Q 3513 2838 3513 2113 
z
" transform="scale(0.015625)"/>
      <path id="DejaVuSans-6e" d="M 3513 2113 
L 3513 0 
L 2938 0 
L 2938 2094 
Q 2938 2591 2744 2837 
Q 2550 3084 2163 3084 
Q 1697 3084 1428 2787 
Q 1159 2491 1159 1978 
L 1159 0 
L 581 0 
L 581 3500 
L 1159 3500 
L 1159 2956 
Q 1366 3272 1645 3428 
Q 1925 3584 2291 3584 
Q 2894 3584 3203 3211 
Q 3513 2838 3513 2113 
z
" transform="scale(0.015625)"/>
     </defs>
     <use xlink:href="#DejaVuSans-48"/>
     <use xlink:href="#DejaVuSans-61" x="75.195312"/>
     <use xlink:href="#DejaVuSans-68" x="136.474609"/>
     <use xlink:href="#DejaVuSans-6e" x="199.853516"/>
     <use xlink:href="#DejaVuSans-20" x="263.232422"/>
     <use xlink:href="#DejaVuSans-65" x="295.019531"/>
     <use xlink:href="#DejaVuSans-63" x="356.542969"/>
     <use xlink:href="#DejaVuSans-68" x="411.523438"/>
     <use xlink:href="#DejaVuSans-6f" x="474.902344"/>
    </g>
   </g>
  </g>
 </g>
 <defs>
  <clipPath id="p0665e5a8e2">
   <rect x="63.694375" y="25.3575" width="558" height="332.64"/>
  </clipPath>
 </defs>
</svg>
