<?xml version="1.0" encoding="utf-8" standalone="no"?>
<!DOCTYPE svg PUBLIC "-//W3C//DTD SVG 1.1//EN"
  "http://www.w3.org/Graphics/SVG/1.1/DTD/svg11.dtd">
<svg xmlns:xlink="http://www.w3.org/1999/xlink" width="628.894375pt" height="411.734375pt" viewBox="0 0 628.894375 411.734375" xmlns="http://www.w3.org/2000/svg" version="1.1">
 <metadata>
  <rdf:RDF xmlns:dc="http://purl.org/dc/elements/1.1/" xmlns:cc="http://creativecommons.org/ns#" xmlns:rdf="http://www.w3.org/1999/02/22-rdf-syntax-ns#">
   <cc:Work>
    <dc:type rdf:resource="http://purl.org/dc/dcmitype/StillImage"/>
    <dc:date>2024-08-11T21:18:19.904380</dc:date>
    <dc:format>image/svg+xml</dc:format>
    <dc:creator>
     <cc:Agent>
      <dc:title>Matplotlib v3.7.1, https://matplotlib.org/</dc:title>
     </cc:Agent>
    </dc:creator>
   </cc:Work>
  </rdf:RDF>
 </metadata>
 <defs>
  <style type="text/css">*{stroke-linejoin: round; stroke-linecap: butt}</style>
 </defs>
 <g id="figure_1">
  <g id="patch_1">
   <path d="M -0 411.734375 
L 628.894375 411.734375 
L 628.894375 0 
L -0 0 
z
" style="fill: #ffffff"/>
  </g>
  <g id="axes_1">
   <g id="patch_2">
    <path d="M 63.694375 358 
L 621.694375 358 
L 621.694375 25.36 
L 63.694375 25.36 
z
" style="fill: #ffffff"/>
   </g>
   <g id="matplotlib.axis_1">
    <g id="xtick_1">
     <g id="line2d_1">
      <defs>
       <path id="mc14608d67a" d="M 0 0 
L 0 10 
" style="stroke: #000000; stroke-width: 2.5"/>
      </defs>
      <g>
       <use xlink:href="#mc14608d67a" x="89.058011" y="358" style="stroke: #000000; stroke-width: 2.5"/>
      </g>
     </g>
     <g id="text_1">
      <!-- 0 -->
      <g transform="translate(83.968011 383.6575) scale(0.16 -0.16)">
       <defs>
        <path id="DejaVuSans-30" d="M 2034 4250 
Q 1547 4250 1301 3770 
Q 1056 3291 1056 2328 
Q 1056 1369 1301 889 
Q 1547 409 2034 409 
Q 2525 409 2770 889 
Q 3016 1369 3016 2328 
Q 3016 3291 2770 3770 
Q 2525 4250 2034 4250 
z
M 2034 4750 
Q 2819 4750 3233 4129 
Q 3647 3509 3647 2328 
Q 3647 1150 3233 529 
Q 2819 -91 2034 -91 
Q 1250 -91 836 529 
Q 422 1150 422 2328 
Q 422 3509 836 4129 
Q 1250 4750 2034 4750 
z
" transform="scale(0.015625)"/>
       </defs>
       <use xlink:href="#DejaVuSans-30"/>
      </g>
     </g>
    </g>
    <g id="xtick_2">
     <g id="line2d_2">
      <g>
       <use xlink:href="#mc14608d67a" x="152.470273" y="358" style="stroke: #000000; stroke-width: 2.5"/>
      </g>
     </g>
     <g id="text_2">
      <!-- 250 -->
      <g transform="translate(137.200273 383.6575) scale(0.16 -0.16)">
       <defs>
        <path id="DejaVuSans-32" d="M 1228 531 
L 3431 531 
L 3431 0 
L 469 0 
L 469 531 
Q 828 903 1448 1529 
Q 2069 2156 2228 2338 
Q 2531 2678 2651 2914 
Q 2772 3150 2772 3378 
Q 2772 3750 2511 3984 
Q 2250 4219 1831 4219 
Q 1534 4219 1204 4116 
Q 875 4013 500 3803 
L 500 4441 
Q 881 4594 1212 4672 
Q 1544 4750 1819 4750 
Q 2544 4750 2975 4387 
Q 3406 4025 3406 3419 
Q 3406 3131 3298 2873 
Q 3191 2616 2906 2266 
Q 2828 2175 2409 1742 
Q 1991 1309 1228 531 
z
" transform="scale(0.015625)"/>
        <path id="DejaVuSans-35" d="M 691 4666 
L 3169 4666 
L 3169 4134 
L 1269 4134 
L 1269 2991 
Q 1406 3038 1543 3061 
Q 1681 3084 1819 3084 
Q 2600 3084 3056 2656 
Q 3513 2228 3513 1497 
Q 3513 744 3044 326 
Q 2575 -91 1722 -91 
Q 1428 -91 1123 -41 
Q 819 9 494 109 
L 494 744 
Q 775 591 1075 516 
Q 1375 441 1709 441 
Q 2250 441 2565 725 
Q 2881 1009 2881 1497 
Q 2881 1984 2565 2268 
Q 2250 2553 1709 2553 
Q 1456 2553 1204 2497 
Q 953 2441 691 2322 
L 691 4666 
z
" transform="scale(0.015625)"/>
       </defs>
       <use xlink:href="#DejaVuSans-32"/>
       <use xlink:href="#DejaVuSans-35" x="63.623047"/>
       <use xlink:href="#DejaVuSans-30" x="127.246094"/>
      </g>
     </g>
    </g>
    <g id="xtick_3">
     <g id="line2d_3">
      <g>
       <use xlink:href="#mc14608d67a" x="215.882534" y="358" style="stroke: #000000; stroke-width: 2.5"/>
      </g>
     </g>
     <g id="text_3">
      <!-- 500 -->
      <g transform="translate(200.612534 383.6575) scale(0.16 -0.16)">
       <use xlink:href="#DejaVuSans-35"/>
       <use xlink:href="#DejaVuSans-30" x="63.623047"/>
       <use xlink:href="#DejaVuSans-30" x="127.246094"/>
      </g>
     </g>
    </g>
    <g id="xtick_4">
     <g id="line2d_4">
      <g>
       <use xlink:href="#mc14608d67a" x="279.294796" y="358" style="stroke: #000000; stroke-width: 2.5"/>
      </g>
     </g>
     <g id="text_4">
      <!-- 750 -->
      <g transform="translate(264.024796 383.6575) scale(0.16 -0.16)">
       <defs>
        <path id="DejaVuSans-37" d="M 525 4666 
L 3525 4666 
L 3525 4397 
L 1831 0 
L 1172 0 
L 2766 4134 
L 525 4134 
L 525 4666 
z
" transform="scale(0.015625)"/>
       </defs>
       <use xlink:href="#DejaVuSans-37"/>
       <use xlink:href="#DejaVuSans-35" x="63.623047"/>
       <use xlink:href="#DejaVuSans-30" x="127.246094"/>
      </g>
     </g>
    </g>
    <g id="xtick_5">
     <g id="line2d_5">
      <g>
       <use xlink:href="#mc14608d67a" x="342.707057" y="358" style="stroke: #000000; stroke-width: 2.5"/>
      </g>
     </g>
     <g id="text_5">
      <!-- 1000 -->
      <g transform="translate(322.347057 383.6575) scale(0.16 -0.16)">
       <defs>
        <path id="DejaVuSans-31" d="M 794 531 
L 1825 531 
L 1825 4091 
L 703 3866 
L 703 4441 
L 1819 4666 
L 2450 4666 
L 2450 531 
L 3481 531 
L 3481 0 
L 794 0 
L 794 531 
z
" transform="scale(0.015625)"/>
       </defs>
       <use xlink:href="#DejaVuSans-31"/>
       <use xlink:href="#DejaVuSans-30" x="63.623047"/>
       <use xlink:href="#DejaVuSans-30" x="127.246094"/>
       <use xlink:href="#DejaVuSans-30" x="190.869141"/>
      </g>
     </g>
    </g>
    <g id="xtick_6">
     <g id="line2d_6">
      <g>
       <use xlink:href="#mc14608d67a" x="406.119319" y="358" style="stroke: #000000; stroke-width: 2.5"/>
      </g>
     </g>
     <g id="text_6">
      <!-- 1250 -->
      <g transform="translate(385.759319 383.6575) scale(0.16 -0.16)">
       <use xlink:href="#DejaVuSans-31"/>
       <use xlink:href="#DejaVuSans-32" x="63.623047"/>
       <use xlink:href="#DejaVuSans-35" x="127.246094"/>
       <use xlink:href="#DejaVuSans-30" x="190.869141"/>
      </g>
     </g>
    </g>
    <g id="xtick_7">
     <g id="line2d_7">
      <g>
       <use xlink:href="#mc14608d67a" x="469.53158" y="358" style="stroke: #000000; stroke-width: 2.5"/>
      </g>
     </g>
     <g id="text_7">
      <!-- 1500 -->
      <g transform="translate(449.17158 383.6575) scale(0.16 -0.16)">
       <use xlink:href="#DejaVuSans-31"/>
       <use xlink:href="#DejaVuSans-35" x="63.623047"/>
       <use xlink:href="#DejaVuSans-30" x="127.246094"/>
       <use xlink:href="#DejaVuSans-30" x="190.869141"/>
      </g>
     </g>
    </g>
    <g id="xtick_8">
     <g id="line2d_8">
      <g>
       <use xlink:href="#mc14608d67a" x="532.943842" y="358" style="stroke: #000000; stroke-width: 2.5"/>
      </g>
     </g>
     <g id="text_8">
      <!-- 1750 -->
      <g transform="translate(512.583842 383.6575) scale(0.16 -0.16)">
       <use xlink:href="#DejaVuSans-31"/>
       <use xlink:href="#DejaVuSans-37" x="63.623047"/>
       <use xlink:href="#DejaVuSans-35" x="127.246094"/>
       <use xlink:href="#DejaVuSans-30" x="190.869141"/>
      </g>
     </g>
    </g>
    <g id="xtick_9">
     <g id="line2d_9">
      <g>
       <use xlink:href="#mc14608d67a" x="596.356104" y="358" style="stroke: #000000; stroke-width: 2.5"/>
      </g>
     </g>
     <g id="text_9">
      <!-- 2000 -->
      <g transform="translate(575.996104 383.6575) scale(0.16 -0.16)">
       <use xlink:href="#DejaVuSans-32"/>
       <use xlink:href="#DejaVuSans-30" x="63.623047"/>
       <use xlink:href="#DejaVuSans-30" x="127.246094"/>
       <use xlink:href="#DejaVuSans-30" x="190.869141"/>
      </g>
     </g>
    </g>
    <g id="text_10">
     <!-- Time [ms] -->
     <g transform="translate(307.415469 401.622813) scale(0.14 -0.14)">
      <defs>
       <path id="DejaVuSans-54" d="M -19 4666 
L 3928 4666 
L 3928 4134 
L 2272 4134 
L 2272 0 
L 1638 0 
L 1638 4134 
L -19 4134 
L -19 4666 
z
" transform="scale(0.015625)"/>
       <path id="DejaVuSans-69" d="M 603 3500 
L 1178 3500 
L 1178 0 
L 603 0 
L 603 3500 
z
M 603 4863 
L 1178 4863 
L 1178 4134 
L 603 4134 
L 603 4863 
z
" transform="scale(0.015625)"/>
       <path id="DejaVuSans-6d" d="M 3328 2828 
Q 3544 3216 3844 3400 
Q 4144 3584 4550 3584 
Q 5097 3584 5394 3201 
Q 5691 2819 5691 2113 
L 5691 0 
L 5113 0 
L 5113 2094 
Q 5113 2597 4934 2840 
Q 4756 3084 4391 3084 
Q 3944 3084 3684 2787 
Q 3425 2491 3425 1978 
L 3425 0 
L 2847 0 
L 2847 2094 
Q 2847 2600 2669 2842 
Q 2491 3084 2119 3084 
Q 1678 3084 1418 2786 
Q 1159 2488 1159 1978 
L 1159 0 
L 581 0 
L 581 3500 
L 1159 3500 
L 1159 2956 
Q 1356 3278 1631 3431 
Q 1906 3584 2284 3584 
Q 2666 3584 2933 3390 
Q 3200 3197 3328 2828 
z
" transform="scale(0.015625)"/>
       <path id="DejaVuSans-65" d="M 3597 1894 
L 3597 1613 
L 953 1613 
Q 991 1019 1311 708 
Q 1631 397 2203 397 
Q 2534 397 2845 478 
Q 3156 559 3463 722 
L 3463 178 
Q 3153 47 2828 -22 
Q 2503 -91 2169 -91 
Q 1331 -91 842 396 
Q 353 884 353 1716 
Q 353 2575 817 3079 
Q 1281 3584 2069 3584 
Q 2775 3584 3186 3129 
Q 3597 2675 3597 1894 
z
M 3022 2063 
Q 3016 2534 2758 2815 
Q 2500 3097 2075 3097 
Q 1594 3097 1305 2825 
Q 1016 2553 972 2059 
L 3022 2063 
z
" transform="scale(0.015625)"/>
       <path id="DejaVuSans-20" transform="scale(0.015625)"/>
       <path id="DejaVuSans-5b" d="M 550 4863 
L 1875 4863 
L 1875 4416 
L 1125 4416 
L 1125 -397 
L 1875 -397 
L 1875 -844 
L 550 -844 
L 550 4863 
z
" transform="scale(0.015625)"/>
       <path id="DejaVuSans-73" d="M 2834 3397 
L 2834 2853 
Q 2591 2978 2328 3040 
Q 2066 3103 1784 3103 
Q 1356 3103 1142 2972 
Q 928 2841 928 2578 
Q 928 2378 1081 2264 
Q 1234 2150 1697 2047 
L 1894 2003 
Q 2506 1872 2764 1633 
Q 3022 1394 3022 966 
Q 3022 478 2636 193 
Q 2250 -91 1575 -91 
Q 1294 -91 989 -36 
Q 684 19 347 128 
L 347 722 
Q 666 556 975 473 
Q 1284 391 1588 391 
Q 1994 391 2212 530 
Q 2431 669 2431 922 
Q 2431 1156 2273 1281 
Q 2116 1406 1581 1522 
L 1381 1569 
Q 847 1681 609 1914 
Q 372 2147 372 2553 
Q 372 3047 722 3315 
Q 1072 3584 1716 3584 
Q 2034 3584 2315 3537 
Q 2597 3491 2834 3397 
z
" transform="scale(0.015625)"/>
       <path id="DejaVuSans-5d" d="M 1947 4863 
L 1947 -844 
L 622 -844 
L 622 -397 
L 1369 -397 
L 1369 4416 
L 622 4416 
L 622 4863 
L 1947 4863 
z
" transform="scale(0.015625)"/>
      </defs>
      <use xlink:href="#DejaVuSans-54"/>
      <use xlink:href="#DejaVuSans-69" x="57.958984"/>
      <use xlink:href="#DejaVuSans-6d" x="85.742188"/>
      <use xlink:href="#DejaVuSans-65" x="183.154297"/>
      <use xlink:href="#DejaVuSans-20" x="244.677734"/>
      <use xlink:href="#DejaVuSans-5b" x="276.464844"/>
      <use xlink:href="#DejaVuSans-6d" x="315.478516"/>
      <use xlink:href="#DejaVuSans-73" x="412.890625"/>
      <use xlink:href="#DejaVuSans-5d" x="464.990234"/>
     </g>
    </g>
   </g>
   <g id="matplotlib.axis_2">
    <g id="ytick_1">
     <g id="line2d_10">
      <defs>
       <path id="m169a98b55d" d="M 0 0 
L -10 0 
" style="stroke: #000000; stroke-width: 2.5"/>
      </defs>
      <g>
       <use xlink:href="#m169a98b55d" x="63.694375" y="358" style="stroke: #000000; stroke-width: 2.5"/>
      </g>
     </g>
     <g id="text_11">
      <!-- 0.0 -->
      <g transform="translate(24.749375 364.07875) scale(0.16 -0.16)">
       <defs>
        <path id="DejaVuSans-2e" d="M 684 794 
L 1344 794 
L 1344 0 
L 684 0 
L 684 794 
z
" transform="scale(0.015625)"/>
       </defs>
       <use xlink:href="#DejaVuSans-30"/>
       <use xlink:href="#DejaVuSans-2e" x="63.623047"/>
       <use xlink:href="#DejaVuSans-30" x="95.410156"/>
      </g>
     </g>
    </g>
    <g id="ytick_2">
     <g id="line2d_11">
      <g>
       <use xlink:href="#m169a98b55d" x="63.694375" y="297.52" style="stroke: #000000; stroke-width: 2.5"/>
      </g>
     </g>
     <g id="text_12">
      <!-- 0.2 -->
      <g transform="translate(24.749375 303.59875) scale(0.16 -0.16)">
       <use xlink:href="#DejaVuSans-30"/>
       <use xlink:href="#DejaVuSans-2e" x="63.623047"/>
       <use xlink:href="#DejaVuSans-32" x="95.410156"/>
      </g>
     </g>
    </g>
    <g id="ytick_3">
     <g id="line2d_12">
      <g>
       <use xlink:href="#m169a98b55d" x="63.694375" y="237.04" style="stroke: #000000; stroke-width: 2.5"/>
      </g>
     </g>
     <g id="text_13">
      <!-- 0.4 -->
      <g transform="translate(24.749375 243.11875) scale(0.16 -0.16)">
       <defs>
        <path id="DejaVuSans-34" d="M 2419 4116 
L 825 1625 
L 2419 1625 
L 2419 4116 
z
M 2253 4666 
L 3047 4666 
L 3047 1625 
L 3713 1625 
L 3713 1100 
L 3047 1100 
L 3047 0 
L 2419 0 
L 2419 1100 
L 313 1100 
L 313 1709 
L 2253 4666 
z
" transform="scale(0.015625)"/>
       </defs>
       <use xlink:href="#DejaVuSans-30"/>
       <use xlink:href="#DejaVuSans-2e" x="63.623047"/>
       <use xlink:href="#DejaVuSans-34" x="95.410156"/>
      </g>
     </g>
    </g>
    <g id="ytick_4">
     <g id="line2d_13">
      <g>
       <use xlink:href="#m169a98b55d" x="63.694375" y="176.56" style="stroke: #000000; stroke-width: 2.5"/>
      </g>
     </g>
     <g id="text_14">
      <!-- 0.6 -->
      <g transform="translate(24.749375 182.63875) scale(0.16 -0.16)">
       <defs>
        <path id="DejaVuSans-36" d="M 2113 2584 
Q 1688 2584 1439 2293 
Q 1191 2003 1191 1497 
Q 1191 994 1439 701 
Q 1688 409 2113 409 
Q 2538 409 2786 701 
Q 3034 994 3034 1497 
Q 3034 2003 2786 2293 
Q 2538 2584 2113 2584 
z
M 3366 4563 
L 3366 3988 
Q 3128 4100 2886 4159 
Q 2644 4219 2406 4219 
Q 1781 4219 1451 3797 
Q 1122 3375 1075 2522 
Q 1259 2794 1537 2939 
Q 1816 3084 2150 3084 
Q 2853 3084 3261 2657 
Q 3669 2231 3669 1497 
Q 3669 778 3244 343 
Q 2819 -91 2113 -91 
Q 1303 -91 875 529 
Q 447 1150 447 2328 
Q 447 3434 972 4092 
Q 1497 4750 2381 4750 
Q 2619 4750 2861 4703 
Q 3103 4656 3366 4563 
z
" transform="scale(0.015625)"/>
       </defs>
       <use xlink:href="#DejaVuSans-30"/>
       <use xlink:href="#DejaVuSans-2e" x="63.623047"/>
       <use xlink:href="#DejaVuSans-36" x="95.410156"/>
      </g>
     </g>
    </g>
    <g id="ytick_5">
     <g id="line2d_14">
      <g>
       <use xlink:href="#m169a98b55d" x="63.694375" y="116.08" style="stroke: #000000; stroke-width: 2.5"/>
      </g>
     </g>
     <g id="text_15">
      <!-- 0.8 -->
      <g transform="translate(24.749375 122.15875) scale(0.16 -0.16)">
       <defs>
        <path id="DejaVuSans-38" d="M 2034 2216 
Q 1584 2216 1326 1975 
Q 1069 1734 1069 1313 
Q 1069 891 1326 650 
Q 1584 409 2034 409 
Q 2484 409 2743 651 
Q 3003 894 3003 1313 
Q 3003 1734 2745 1975 
Q 2488 2216 2034 2216 
z
M 1403 2484 
Q 997 2584 770 2862 
Q 544 3141 544 3541 
Q 544 4100 942 4425 
Q 1341 4750 2034 4750 
Q 2731 4750 3128 4425 
Q 3525 4100 3525 3541 
Q 3525 3141 3298 2862 
Q 3072 2584 2669 2484 
Q 3125 2378 3379 2068 
Q 3634 1759 3634 1313 
Q 3634 634 3220 271 
Q 2806 -91 2034 -91 
Q 1263 -91 848 271 
Q 434 634 434 1313 
Q 434 1759 690 2068 
Q 947 2378 1403 2484 
z
M 1172 3481 
Q 1172 3119 1398 2916 
Q 1625 2713 2034 2713 
Q 2441 2713 2670 2916 
Q 2900 3119 2900 3481 
Q 2900 3844 2670 4047 
Q 2441 4250 2034 4250 
Q 1625 4250 1398 4047 
Q 1172 3844 1172 3481 
z
" transform="scale(0.015625)"/>
       </defs>
       <use xlink:href="#DejaVuSans-30"/>
       <use xlink:href="#DejaVuSans-2e" x="63.623047"/>
       <use xlink:href="#DejaVuSans-38" x="95.410156"/>
      </g>
     </g>
    </g>
    <g id="ytick_6">
     <g id="line2d_15">
      <g>
       <use xlink:href="#m169a98b55d" x="63.694375" y="55.6" style="stroke: #000000; stroke-width: 2.5"/>
      </g>
     </g>
     <g id="text_16">
      <!-- 1.0 -->
      <g transform="translate(24.749375 61.67875) scale(0.16 -0.16)">
       <use xlink:href="#DejaVuSans-31"/>
       <use xlink:href="#DejaVuSans-2e" x="63.623047"/>
       <use xlink:href="#DejaVuSans-30" x="95.410156"/>
      </g>
     </g>
    </g>
    <g id="text_17">
     <!-- Excited state probability -->
     <g transform="translate(17.837813 276.94) rotate(-90) scale(0.14 -0.14)">
      <defs>
       <path id="DejaVuSans-45" d="M 628 4666 
L 3578 4666 
L 3578 4134 
L 1259 4134 
L 1259 2753 
L 3481 2753 
L 3481 2222 
L 1259 2222 
L 1259 531 
L 3634 531 
L 3634 0 
L 628 0 
L 628 4666 
z
" transform="scale(0.015625)"/>
       <path id="DejaVuSans-78" d="M 3513 3500 
L 2247 1797 
L 3578 0 
L 2900 0 
L 1881 1375 
L 863 0 
L 184 0 
L 1544 1831 
L 300 3500 
L 978 3500 
L 1906 2253 
L 2834 3500 
L 3513 3500 
z
" transform="scale(0.015625)"/>
       <path id="DejaVuSans-63" d="M 3122 3366 
L 3122 2828 
Q 2878 2963 2633 3030 
Q 2388 3097 2138 3097 
Q 1578 3097 1268 2742 
Q 959 2388 959 1747 
Q 959 1106 1268 751 
Q 1578 397 2138 397 
Q 2388 397 2633 464 
Q 2878 531 3122 666 
L 3122 134 
Q 2881 22 2623 -34 
Q 2366 -91 2075 -91 
Q 1284 -91 818 406 
Q 353 903 353 1747 
Q 353 2603 823 3093 
Q 1294 3584 2113 3584 
Q 2378 3584 2631 3529 
Q 2884 3475 3122 3366 
z
" transform="scale(0.015625)"/>
       <path id="DejaVuSans-74" d="M 1172 4494 
L 1172 3500 
L 2356 3500 
L 2356 3053 
L 1172 3053 
L 1172 1153 
Q 1172 725 1289 603 
Q 1406 481 1766 481 
L 2356 481 
L 2356 0 
L 1766 0 
Q 1100 0 847 248 
Q 594 497 594 1153 
L 594 3053 
L 172 3053 
L 172 3500 
L 594 3500 
L 594 4494 
L 1172 4494 
z
" transform="scale(0.015625)"/>
       <path id="DejaVuSans-64" d="M 2906 2969 
L 2906 4863 
L 3481 4863 
L 3481 0 
L 2906 0 
L 2906 525 
Q 2725 213 2448 61 
Q 2172 -91 1784 -91 
Q 1150 -91 751 415 
Q 353 922 353 1747 
Q 353 2572 751 3078 
Q 1150 3584 1784 3584 
Q 2172 3584 2448 3432 
Q 2725 3281 2906 2969 
z
M 947 1747 
Q 947 1113 1208 752 
Q 1469 391 1925 391 
Q 2381 391 2643 752 
Q 2906 1113 2906 1747 
Q 2906 2381 2643 2742 
Q 2381 3103 1925 3103 
Q 1469 3103 1208 2742 
Q 947 2381 947 1747 
z
" transform="scale(0.015625)"/>
       <path id="DejaVuSans-61" d="M 2194 1759 
Q 1497 1759 1228 1600 
Q 959 1441 959 1056 
Q 959 750 1161 570 
Q 1363 391 1709 391 
Q 2188 391 2477 730 
Q 2766 1069 2766 1631 
L 2766 1759 
L 2194 1759 
z
M 3341 1997 
L 3341 0 
L 2766 0 
L 2766 531 
Q 2569 213 2275 61 
Q 1981 -91 1556 -91 
Q 1019 -91 701 211 
Q 384 513 384 1019 
Q 384 1609 779 1909 
Q 1175 2209 1959 2209 
L 2766 2209 
L 2766 2266 
Q 2766 2663 2505 2880 
Q 2244 3097 1772 3097 
Q 1472 3097 1187 3025 
Q 903 2953 641 2809 
L 641 3341 
Q 956 3463 1253 3523 
Q 1550 3584 1831 3584 
Q 2591 3584 2966 3190 
Q 3341 2797 3341 1997 
z
" transform="scale(0.015625)"/>
       <path id="DejaVuSans-70" d="M 1159 525 
L 1159 -1331 
L 581 -1331 
L 581 3500 
L 1159 3500 
L 1159 2969 
Q 1341 3281 1617 3432 
Q 1894 3584 2278 3584 
Q 2916 3584 3314 3078 
Q 3713 2572 3713 1747 
Q 3713 922 3314 415 
Q 2916 -91 2278 -91 
Q 1894 -91 1617 61 
Q 1341 213 1159 525 
z
M 3116 1747 
Q 3116 2381 2855 2742 
Q 2594 3103 2138 3103 
Q 1681 3103 1420 2742 
Q 1159 2381 1159 1747 
Q 1159 1113 1420 752 
Q 1681 391 2138 391 
Q 2594 391 2855 752 
Q 3116 1113 3116 1747 
z
" transform="scale(0.015625)"/>
       <path id="DejaVuSans-72" d="M 2631 2963 
Q 2534 3019 2420 3045 
Q 2306 3072 2169 3072 
Q 1681 3072 1420 2755 
Q 1159 2438 1159 1844 
L 1159 0 
L 581 0 
L 581 3500 
L 1159 3500 
L 1159 2956 
Q 1341 3275 1631 3429 
Q 1922 3584 2338 3584 
Q 2397 3584 2469 3576 
Q 2541 3569 2628 3553 
L 2631 2963 
z
" transform="scale(0.015625)"/>
       <path id="DejaVuSans-6f" d="M 1959 3097 
Q 1497 3097 1228 2736 
Q 959 2375 959 1747 
Q 959 1119 1226 758 
Q 1494 397 1959 397 
Q 2419 397 2687 759 
Q 2956 1122 2956 1747 
Q 2956 2369 2687 2733 
Q 2419 3097 1959 3097 
z
M 1959 3584 
Q 2709 3584 3137 3096 
Q 3566 2609 3566 1747 
Q 3566 888 3137 398 
Q 2709 -91 1959 -91 
Q 1206 -91 779 398 
Q 353 888 353 1747 
Q 353 2609 779 3096 
Q 1206 3584 1959 3584 
z
" transform="scale(0.015625)"/>
       <path id="DejaVuSans-62" d="M 3116 1747 
Q 3116 2381 2855 2742 
Q 2594 3103 2138 3103 
Q 1681 3103 1420 2742 
Q 1159 2381 1159 1747 
Q 1159 1113 1420 752 
Q 1681 391 2138 391 
Q 2594 391 2855 752 
Q 3116 1113 3116 1747 
z
M 1159 2969 
Q 1341 3281 1617 3432 
Q 1894 3584 2278 3584 
Q 2916 3584 3314 3078 
Q 3713 2572 3713 1747 
Q 3713 922 3314 415 
Q 2916 -91 2278 -91 
Q 1894 -91 1617 61 
Q 1341 213 1159 525 
L 1159 0 
L 581 0 
L 581 4863 
L 1159 4863 
L 1159 2969 
z
" transform="scale(0.015625)"/>
       <path id="DejaVuSans-6c" d="M 603 4863 
L 1178 4863 
L 1178 0 
L 603 0 
L 603 4863 
z
" transform="scale(0.015625)"/>
       <path id="DejaVuSans-79" d="M 2059 -325 
Q 1816 -950 1584 -1140 
Q 1353 -1331 966 -1331 
L 506 -1331 
L 506 -850 
L 844 -850 
Q 1081 -850 1212 -737 
Q 1344 -625 1503 -206 
L 1606 56 
L 191 3500 
L 800 3500 
L 1894 763 
L 2988 3500 
L 3597 3500 
L 2059 -325 
z
" transform="scale(0.015625)"/>
      </defs>
      <use xlink:href="#DejaVuSans-45"/>
      <use xlink:href="#DejaVuSans-78" x="63.183594"/>
      <use xlink:href="#DejaVuSans-63" x="120.613281"/>
      <use xlink:href="#DejaVuSans-69" x="175.59375"/>
      <use xlink:href="#DejaVuSans-74" x="203.376953"/>
      <use xlink:href="#DejaVuSans-65" x="242.585938"/>
      <use xlink:href="#DejaVuSans-64" x="304.109375"/>
      <use xlink:href="#DejaVuSans-20" x="367.585938"/>
      <use xlink:href="#DejaVuSans-73" x="399.373047"/>
      <use xlink:href="#DejaVuSans-74" x="451.472656"/>
      <use xlink:href="#DejaVuSans-61" x="490.681641"/>
      <use xlink:href="#DejaVuSans-74" x="551.960938"/>
      <use xlink:href="#DejaVuSans-65" x="591.169922"/>
      <use xlink:href="#DejaVuSans-20" x="652.693359"/>
      <use xlink:href="#DejaVuSans-70" x="684.480469"/>
      <use xlink:href="#DejaVuSans-72" x="747.957031"/>
      <use xlink:href="#DejaVuSans-6f" x="786.820312"/>
      <use xlink:href="#DejaVuSans-62" x="848.001953"/>
      <use xlink:href="#DejaVuSans-61" x="911.478516"/>
      <use xlink:href="#DejaVuSans-62" x="972.757812"/>
      <use xlink:href="#DejaVuSans-69" x="1036.234375"/>
      <use xlink:href="#DejaVuSans-6c" x="1064.017578"/>
      <use xlink:href="#DejaVuSans-69" x="1091.800781"/>
      <use xlink:href="#DejaVuSans-74" x="1119.583984"/>
      <use xlink:href="#DejaVuSans-79" x="1158.792969"/>
     </g>
    </g>
   </g>
   <g id="line2d_16">
    <path d="M 89.058011 55.6 
L 89.184836 63.988952 
L 89.41312 99.12497 
L 89.971148 235.390889 
L 90.376986 306.180537 
L 90.605271 317.110926 
L 90.681365 315.70727 
L 90.833555 305.882363 
L 91.112569 268.320738 
L 92.025705 131.235348 
L 92.20326 126.742945 
L 92.279354 127.86145 
L 92.431544 135.173738 
L 92.710558 162.667313 
L 93.598329 260.773263 
L 93.775884 264.901903 
L 93.801249 264.896475 
L 93.877343 264.012455 
L 94.029533 258.574152 
L 94.308547 238.453101 
L 95.196318 167.490526 
L 95.373873 164.621228 
L 95.399238 164.64306 
L 95.475332 165.336959 
L 95.627522 169.378755 
L 95.906536 184.102013 
L 96.794307 235.427097 
L 96.971862 237.417265 
L 96.997227 237.388455 
L 97.098686 236.518868 
L 97.27624 232.331897 
L 97.605984 218.070802 
L 98.316202 187.396723 
L 98.544486 184.602536 
L 98.569851 184.576738 
L 98.595215 184.607041 
L 98.696675 185.274381 
L 98.874229 188.368217 
L 99.229338 199.72026 
L 99.888826 220.529132 
L 100.142475 222.91755 
L 100.193204 222.900601 
L 100.218569 222.83164 
L 100.345394 221.907941 
L 100.573678 218.131596 
L 101.207801 201.82776 
L 101.562909 195.963115 
L 101.765829 195.094293 
L 101.841923 195.258608 
L 101.994113 196.329193 
L 102.273127 200.351026 
L 103.160898 214.693321 
L 103.363818 215.294664 
L 103.465277 215.080361 
L 103.642832 213.95944 
L 103.972575 210.045179 
L 104.682793 201.466782 
L 104.911077 200.644943 
L 105.012536 200.688802 
L 105.164726 201.197399 
L 105.418375 203.013643 
L 106.407606 211.12704 
L 106.559796 211.272504 
L 106.58516 211.256997 
L 106.73735 210.939218 
L 106.990999 209.684054 
L 108.03096 203.615211 
L 108.183149 203.567671 
L 108.335339 203.805921 
L 108.588988 204.726377 
L 109.628949 209.115533 
L 109.806503 209.128081 
L 109.984058 208.864511 
L 110.288437 207.927103 
L 111.100113 205.250721 
L 111.328398 205.088426 
L 111.505952 205.201869 
L 111.784966 205.728501 
L 112.799562 208.011195 
L 113.027846 208.010617 
L 113.281495 207.739666 
L 113.788793 206.742106 
L 114.270727 205.997488 
L 114.54974 205.901489 
L 114.828754 206.068912 
L 115.285323 206.6947 
L 115.868716 207.385071 
L 116.173094 207.447771 
L 116.502838 207.266841 
L 117.720354 206.325542 
L 118.100827 206.463819 
L 119.343707 207.142719 
L 119.800276 206.991966 
L 120.865602 206.549805 
L 121.3729 206.652714 
L 122.539685 206.980189 
L 123.199173 206.838176 
L 124.11231 206.668626 
L 124.923986 206.801581 
L 125.837123 206.890148 
L 128.398978 206.830457 
L 129.515034 206.815645 
L 131.113023 206.788908 
L 132.990026 206.795486 
L 135.222138 206.813995 
L 156.731577 206.909414 
L 157.416429 206.906879 
L 159.115878 206.684006 
L 160.510948 207.028397 
L 161.068976 206.763426 
L 161.804558 206.445234 
L 162.210396 206.531879 
L 162.768424 206.938151 
L 163.351817 207.279208 
L 163.706926 207.22395 
L 164.112764 206.89114 
L 164.949806 206.142869 
L 165.254185 206.190731 
L 165.583929 206.505337 
L 166.62389 207.714819 
L 166.877539 207.60986 
L 167.181918 207.19584 
L 168.196514 205.549952 
L 168.399433 205.618011 
L 168.653082 205.984396 
L 169.084285 207.112769 
L 169.642313 208.407536 
L 169.870597 208.508145 
L 170.048152 208.344639 
L 170.301801 207.757642 
L 170.834464 205.754875 
L 171.265667 204.555712 
L 171.468586 204.46328 
L 171.646141 204.694203 
L 171.89979 205.506653 
L 172.432453 208.253075 
L 172.838291 209.831363 
L 173.041211 210.009919 
L 173.1934 209.804684 
L 173.421684 208.956986 
L 173.802158 206.472932 
L 174.410915 202.713046 
L 174.613835 202.398397 
L 174.740659 202.557288 
L 174.943578 203.391654 
L 175.273322 206.021563 
L 176.034269 212.514586 
L 176.211824 212.82522 
L 176.313283 212.671783 
L 176.490838 211.811227 
L 176.769852 209.101672 
L 177.733718 198.604752 
L 177.809813 198.552853 
L 177.835177 198.577186 
L 177.962002 199.016595 
L 178.164921 200.795728 
L 178.52003 206.435875 
L 179.204882 217.38905 
L 179.382437 218.097073 
L 179.407802 218.087645 
L 179.509261 217.761041 
L 179.686816 216.081345 
L 179.965829 210.919763 
L 180.904331 191.506458 
L 180.980426 191.332523 
L 181.031155 191.410913 
L 181.15798 192.301372 
L 181.360899 195.736319 
L 181.716008 206.418339 
L 182.375495 226.398253 
L 182.578415 227.975907 
L 182.654509 227.706398 
L 182.806699 225.701175 
L 183.060348 218.292272 
L 183.593011 193.487619 
L 183.998849 179.383085 
L 184.176404 177.810982 
L 184.252498 178.217371 
L 184.404688 181.037302 
L 184.658337 191.288284 
L 185.216365 226.898416 
L 185.596838 244.442119 
L 185.774393 246.482029 
L 185.850487 245.874386 
L 186.002677 241.911613 
L 186.256326 227.730633 
L 186.839719 176.784896 
L 187.220192 154.357104 
L 187.347017 152.461143 
L 187.397747 152.646081 
L 187.499206 154.686829 
L 187.67676 163.562562 
L 187.981139 192.256334 
L 188.818181 278.759553 
L 188.945006 281.2035 
L 188.970371 281.139731 
L 189.046465 279.808352 
L 189.198655 271.998625 
L 189.452304 244.872944 
L 190.492265 105.437473 
L 190.542995 106.099281 
L 190.695184 114.995574 
L 190.974198 149.427734 
L 191.887335 275.996989 
L 192.064889 280.293942 
L 192.140984 279.337001 
L 192.293173 272.753599 
L 192.572187 247.7059 
L 193.485324 156.73668 
L 193.662878 153.797474 
L 193.738973 154.553667 
L 193.891162 159.421819 
L 194.170176 177.639918 
L 195.057948 242.337511 
L 195.235502 245.029154 
L 195.260867 245.02176 
L 195.336962 244.428871 
L 195.489151 240.831652 
L 195.768165 227.583016 
L 196.655937 181.080086 
L 196.833491 179.222036 
L 196.858856 179.239067 
L 196.934951 179.700848 
L 197.08714 182.357129 
L 197.366154 191.990391 
L 198.253926 225.412878 
L 198.43148 226.692924 
L 198.456845 226.672218 
L 198.558305 226.099557 
L 198.735859 223.368918 
L 199.065603 214.104682 
L 199.750455 194.640751 
L 200.004104 192.466807 
L 200.054834 192.472582 
L 200.080199 192.529373 
L 200.207023 193.329408 
L 200.435308 196.65538 
L 201.0187 210.049532 
L 201.424539 216.352511 
L 201.627458 217.148522 
L 201.703553 217.013095 
L 201.855742 216.084859 
L 202.134756 212.556356 
L 203.047893 199.749533 
L 203.225447 199.336858 
L 203.326907 199.515762 
L 203.504461 200.485693 
L 203.834205 203.903783 
L 204.544422 211.436459 
L 204.772706 212.170547 
L 204.874166 212.139191 
L 205.026355 211.704776 
L 205.280004 210.132408 
L 206.269236 203.053198 
L 206.44679 202.931462 
L 206.598979 203.200122 
L 206.852628 204.279259 
L 207.892589 209.541636 
L 208.070144 209.571257 
L 208.247698 209.271241 
L 208.552077 208.17354 
L 209.363754 204.985166 
L 209.592038 204.779624 
L 209.769592 204.903528 
L 210.023241 205.441236 
L 211.113932 208.243326 
L 211.316852 208.207566 
L 211.570501 207.869742 
L 212.128529 206.573812 
L 212.559732 205.847924 
L 212.813381 205.751583 
L 213.06703 205.911132 
L 213.447504 206.481485 
L 214.132356 207.472204 
L 214.436735 207.551761 
L 214.741114 207.372507 
L 215.375236 206.613513 
L 215.80644 206.280409 
L 216.136183 206.283744 
L 216.542022 206.550451 
L 217.404429 207.175819 
L 217.784902 207.156513 
L 218.317565 206.860051 
L 219.002418 206.528193 
L 219.458986 206.564468 
L 221.08234 206.963166 
L 222.680329 206.683038 
L 224.379777 206.869864 
L 225.927037 206.744768 
L 227.75331 206.820331 
L 229.325934 206.78394 
L 231.202937 206.797841 
L 233.232129 206.812955 
L 240.029924 206.803871 
L 258.140465 206.867536 
L 258.977507 206.857456 
L 260.550131 206.716943 
L 262.072026 206.93229 
L 263.720745 206.637984 
L 265.166544 207.084182 
L 265.648477 206.805221 
L 266.409424 206.359512 
L 266.764533 206.412884 
L 267.170372 206.72055 
L 268.007413 207.403991 
L 268.311792 207.356936 
L 268.666901 207.034539 
L 269.656132 205.962068 
L 269.909781 206.040588 
L 270.21416 206.402654 
L 271.279486 207.949796 
L 271.50777 207.835402 
L 271.786784 207.389318 
L 272.90284 205.227692 
L 273.105759 205.388442 
L 273.384773 206.005547 
L 274.475464 208.955262 
L 274.627653 208.850866 
L 274.855938 208.328884 
L 275.236411 206.707531 
L 275.870534 204.060433 
L 276.073453 203.849517 
L 276.225642 204.000081 
L 276.428562 204.617109 
L 276.78367 206.612615 
L 277.468523 210.562999 
L 277.671442 210.838826 
L 277.798267 210.684291 
L 278.001186 209.905183 
L 278.33093 207.476474 
L 279.091877 201.541138 
L 279.269431 201.271772 
L 279.370891 201.42213 
L 279.548445 202.228221 
L 279.827459 204.735192 
L 280.76596 214.27804 
L 280.86742 214.366335 
L 280.892785 214.340754 
L 281.019609 213.921135 
L 281.222529 212.263825 
L 281.577637 207.060589 
L 282.26249 197.052519 
L 282.440044 196.43184 
L 282.465409 196.444912 
L 282.566869 196.762556 
L 282.744423 198.334563 
L 283.048802 203.652333 
L 283.936573 220.735814 
L 284.038033 220.994635 
L 284.063398 220.97068 
L 284.164858 220.511264 
L 284.342412 218.317365 
L 284.646791 210.982575 
L 285.509198 187.888913 
L 285.636022 187.36808 
L 285.661387 187.409184 
L 285.762847 188.071765 
L 285.940401 191.132355 
L 286.24478 201.248074 
L 287.107187 232.741464 
L 287.234011 233.399659 
L 287.259376 233.331996 
L 287.360836 232.37885 
L 287.53839 228.110828 
L 287.842769 214.161373 
L 288.705176 171.217105 
L 288.806635 170.375575 
L 288.857365 170.499542 
L 288.958825 171.867497 
L 289.136379 177.817079 
L 289.440758 197.051089 
L 290.2778 255.035931 
L 290.404624 256.674157 
L 290.429989 256.631412 
L 290.506084 255.738962 
L 290.658273 250.503945 
L 290.911922 232.321058 
L 291.951883 138.854666 
L 292.002613 139.298289 
L 292.154803 145.261653 
L 292.433817 168.34222 
L 293.346953 253.184129 
L 293.524507 256.064462 
L 293.600602 255.423006 
L 293.752792 251.01002 
L 294.031806 234.220045 
L 294.944942 173.241553 
L 295.122496 171.271344 
L 295.198591 171.778236 
L 295.350781 175.041456 
L 295.629794 187.253412 
L 296.517566 230.621506 
L 296.69512 232.425768 
L 296.720485 232.420812 
L 296.79658 232.023387 
L 296.94877 229.612098 
L 297.227783 220.731272 
L 298.115555 189.559426 
L 298.293109 188.313938 
L 298.318474 188.325354 
L 298.419934 188.8274 
L 298.597488 191.31937 
L 298.927232 199.880764 
L 299.637449 218.396967 
L 299.865734 220.114784 
L 299.916463 220.120746 
L 299.941828 220.073529 
L 300.068653 219.356294 
L 300.296937 216.302654 
L 300.854965 204.38445 
L 301.260803 198.162421 
L 301.489087 197.181969 
L 301.565182 197.29583 
L 301.717372 198.136678 
L 301.996386 201.388095 
L 302.909522 213.332353 
L 303.087076 213.736821 
L 303.112441 213.723744 
L 303.239266 213.405044 
L 303.46755 211.894501 
L 303.949483 206.577929 
L 304.406051 202.513632 
L 304.659701 201.798353 
L 304.76116 201.869009 
L 304.938714 202.44336 
L 305.243093 204.446324 
L 306.029405 209.99926 
L 306.25769 210.408362 
L 306.384514 210.315165 
L 306.587433 209.739872 
L 306.942542 207.869122 
L 307.576665 204.617997 
L 307.830314 204.201917 
L 307.982503 204.269572 
L 308.185422 204.691785 
L 308.565896 206.159288 
L 309.174654 208.382794 
L 309.428303 208.674882 
L 309.605857 208.596721 
L 309.834141 208.198534 
L 310.316074 206.765687 
L 310.798007 205.616063 
L 311.051657 205.445701 
L 311.254576 205.55313 
L 311.558955 206.038419 
L 312.497456 207.73562 
L 312.751105 207.754869 
L 313.030119 207.51707 
L 313.689607 206.499811 
L 314.095445 206.123434 
L 314.399824 206.131075 
L 314.754933 206.412934 
L 315.693434 207.289199 
L 316.023178 207.272551 
L 316.454381 206.993407 
L 317.266058 206.451708 
L 317.671897 206.475289 
L 318.255289 206.788727 
L 318.889412 207.0557 
L 319.371345 207.005038 
L 320.867875 206.632536 
L 322.770242 206.865536 
L 323.987758 206.707467 
L 326.448154 206.777127 
L 327.564209 206.776465 
L 329.263658 206.810464 
L 331.115296 206.804007 
L 333.322043 206.786073 
L 359.777638 206.856949 
L 360.76687 206.796155 
L 361.933655 206.734737 
L 363.759928 206.842783 
L 365.002809 206.656301 
L 365.738391 206.880788 
L 366.423243 207.01808 
L 366.955906 206.876382 
L 368.021232 206.501712 
L 368.452436 206.639072 
L 369.669951 207.20064 
L 370.050425 207.017154 
L 371.242575 206.246605 
L 371.572319 206.433525 
L 372.104982 207.07318 
L 372.61228 207.545248 
L 372.891294 207.537384 
L 373.195673 207.264129 
L 373.728336 206.374117 
L 374.184904 205.791576 
L 374.438553 205.766154 
L 374.692202 206.006874 
L 375.072676 206.773418 
L 375.757528 208.162079 
L 375.985812 208.236221 
L 376.188732 208.054268 
L 376.467745 207.448195 
L 377.507707 204.823102 
L 377.685261 204.923158 
L 377.913545 205.409396 
L 378.294019 206.904367 
L 378.928141 209.322414 
L 379.13106 209.507306 
L 379.28325 209.362119 
L 379.511534 208.686588 
L 379.892008 206.630372 
L 380.52613 203.335541 
L 380.729049 203.094318 
L 380.855874 203.244141 
L 381.058793 203.971406 
L 381.388537 206.214083 
L 382.149484 211.639123 
L 382.327038 211.871866 
L 382.453863 211.655785 
L 382.656782 210.643357 
L 382.986526 207.554248 
L 383.747473 200.157565 
L 383.899663 199.850015 
L 383.925027 199.858777 
L 384.026487 200.0717 
L 384.204041 201.125448 
L 384.50842 204.690056 
L 385.396192 216.141456 
L 385.497652 216.314948 
L 385.548381 216.258572 
L 385.675206 215.690237 
L 385.878125 213.546504 
L 386.233234 206.941982 
L 386.892721 194.703339 
L 387.095641 193.774395 
L 387.171735 193.956997 
L 387.323925 195.224074 
L 387.577574 199.830137 
L 388.135602 215.830801 
L 388.516075 223.713694 
L 388.69363 224.630285 
L 388.769724 224.357253 
L 388.921914 222.576665 
L 389.175563 216.20474 
L 389.758956 193.313344 
L 390.139429 183.235888 
L 390.266254 182.383978 
L 390.316983 182.467076 
L 390.418443 183.384043 
L 390.595997 187.372167 
L 390.900376 200.26511 
L 391.737418 239.133511 
L 391.864243 240.231647 
L 391.889607 240.202994 
L 391.965702 239.604767 
L 392.117892 236.095631 
L 392.371541 223.907276 
L 393.411502 161.254881 
L 393.462232 161.55225 
L 393.614421 165.549612 
L 393.893435 181.020979 
L 394.806572 237.892211 
L 394.984126 239.822957 
L 395.060221 239.392975 
L 395.21241 236.434863 
L 395.491424 225.180206 
L 396.404561 184.3051 
L 396.582115 182.98443 
L 396.65821 183.324209 
L 396.810399 185.511611 
L 397.089413 193.697531 
L 397.977185 222.768033 
L 398.154739 223.977466 
L 398.180104 223.974144 
L 398.256199 223.707742 
L 398.408388 222.091407 
L 398.687402 216.138411 
L 399.575174 195.243298 
L 399.752728 194.408422 
L 399.778093 194.416074 
L 399.879552 194.752606 
L 400.057107 196.423023 
L 400.386851 202.161897 
L 401.097068 214.57368 
L 401.325352 215.725167 
L 401.401447 215.697513 
L 401.528271 215.216735 
L 401.756555 213.169819 
L 402.314583 205.180809 
L 402.720422 201.010058 
L 402.948706 200.352841 
L 403.050166 200.48612 
L 403.22772 201.29132 
L 403.557464 204.208123 
L 404.293046 210.883835 
L 404.52133 211.446939 
L 404.62279 211.389039 
L 404.774979 210.971956 
L 405.053993 209.386498 
L 405.96713 203.632021 
L 406.170049 203.454329 
L 406.322238 203.670553 
L 406.575887 204.582802 
L 407.641213 209.183315 
L 407.818768 209.180565 
L 408.021687 208.835887 
L 408.376795 207.619636 
L 409.061648 205.28963 
L 409.315297 205.05515 
L 409.492851 205.152343 
L 409.7465 205.606123 
L 410.862556 208.051716 
L 411.09084 207.984964 
L 411.369854 207.609367 
L 412.43518 205.901969 
L 412.688829 205.94786 
L 413.018573 206.289497 
L 413.957074 207.427165 
L 414.261453 207.423342 
L 414.616562 207.163977 
L 415.580428 206.340334 
L 415.935537 206.378097 
L 416.41747 206.697438 
L 417.102323 207.116714 
L 417.508161 207.110261 
L 418.066189 206.842118 
L 418.776406 206.559926 
L 419.283704 206.623678 
L 420.678774 206.963699 
L 421.617276 206.723629 
L 422.302128 206.684908 
L 424.43278 206.8127 
L 425.574201 206.745552 
L 427.730218 206.797755 
L 429.176017 206.793002 
L 431.05302 206.793538 
L 433.7417 206.807208 
L 439.474169 206.803399 
L 465.75221 206.735323 
L 466.563887 206.715623 
L 468.364795 206.866036 
L 469.607675 206.612465 
L 470.191068 206.810517 
L 471.002745 207.075538 
L 471.459313 206.969925 
L 472.803653 206.450905 
L 473.234857 206.698651 
L 474.147993 207.313585 
L 474.477737 207.239398 
L 474.883575 206.877024 
L 475.695252 206.106771 
L 475.974266 206.136835 
L 476.278645 206.410451 
L 477.445431 207.762727 
L 477.69908 207.586027 
L 478.054188 206.980315 
L 478.8405 205.526632 
L 479.068785 205.492757 
L 479.297069 205.730721 
L 479.626813 206.492316 
L 480.463854 208.569659 
L 480.666774 208.587097 
L 480.869693 208.309353 
L 481.174072 207.399402 
L 482.087208 204.349138 
L 482.264763 204.357095 
L 482.442317 204.675493 
L 482.721331 205.746761 
L 483.710562 210.182666 
L 483.837387 210.168073 
L 483.989576 209.863394 
L 484.243225 208.698304 
L 484.750523 204.918099 
L 485.181727 202.420174 
L 485.384646 202.147159 
L 485.51147 202.355524 
L 485.71439 203.299976 
L 486.044133 206.151911 
L 486.779716 212.814192 
L 486.95727 213.178061 
L 486.982635 213.167297 
L 487.084094 212.960868 
L 487.261649 211.975086 
L 487.566028 208.679352 
L 488.428434 198.302701 
L 488.555259 198.068676 
L 488.580624 198.087145 
L 488.682083 198.384861 
L 488.859638 199.760074 
L 489.164017 204.305359 
L 490.026423 218.456251 
L 490.153248 218.751997 
L 490.178613 218.721594 
L 490.280072 218.293318 
L 490.457627 216.375572 
L 490.762006 210.107678 
L 491.624412 190.811575 
L 491.725872 190.433451 
L 491.776602 190.489153 
L 491.878061 191.103814 
L 492.055616 193.777134 
L 492.359995 202.419532 
L 493.197036 228.473801 
L 493.323861 229.209903 
L 493.349226 229.190697 
L 493.450686 228.540774 
L 493.62824 225.205306 
L 493.907254 214.96206 
L 494.845755 176.460426 
L 494.896485 176.273246 
L 494.92185 176.469526 
L 495.074039 179.149038 
L 495.353053 189.519805 
L 496.26619 227.641732 
L 496.443744 228.93595 
L 496.519839 228.647725 
L 496.672028 226.664842 
L 496.951042 219.12062 
L 497.864179 191.721218 
L 498.041733 190.835946 
L 498.117828 191.063707 
L 498.270017 192.529966 
L 498.549031 198.017152 
L 499.436803 217.503693 
L 499.639722 218.312173 
L 499.741182 218.018258 
L 499.918736 216.494517 
L 500.24848 211.191632 
L 500.958697 199.611803 
L 501.186981 198.509589 
L 501.263076 198.524747 
L 501.288441 198.571219 
L 501.44063 199.259526 
L 501.69428 201.707373 
L 502.683511 212.59339 
L 502.8357 212.785397 
L 502.861065 212.764181 
L 502.98789 212.441906 
L 503.216174 211.069818 
L 503.774202 205.714624 
L 504.18004 202.918886 
L 504.408324 202.47834 
L 504.535149 202.6161 
L 504.738068 203.340314 
L 505.118542 205.797234 
L 505.727299 209.455997 
L 505.980948 209.914936 
L 506.107773 209.847335 
L 506.310692 209.368013 
L 506.665801 207.768129 
L 507.325288 204.874011 
L 507.578937 204.552615 
L 507.731127 204.632986 
L 507.959411 205.0898 
L 508.415979 206.697802 
L 508.923277 208.196475 
L 509.176926 208.421342 
L 509.379846 208.308199 
L 509.65886 207.803702 
L 510.673456 205.657241 
L 510.90174 205.663005 
L 511.155389 205.922553 
L 511.688052 206.910377 
L 512.14462 207.554576 
L 512.423634 207.639772 
L 512.702648 207.479241 
L 513.184581 206.856212 
L 513.742609 206.253382 
L 514.072353 206.204107 
L 514.427462 206.412369 
L 515.518153 207.237232 
L 515.898626 207.149131 
L 517.369791 206.510597 
L 517.953183 206.772182 
L 518.638036 207.022686 
L 519.145334 206.965127 
L 520.565769 206.650554 
L 522.620326 206.833436 
L 523.736382 206.721126 
L 526.196777 206.778803 
L 527.414293 206.788418 
L 529.088377 206.803963 
L 531.016109 206.809133 
L 534.770115 206.808586 
L 565.487015 206.820833 
L 566.70453 206.816482 
L 568.175695 206.760323 
L 569.748319 206.857958 
L 571.270213 206.705082 
L 572.868202 206.928774 
L 574.390096 206.598606 
L 575.024219 206.922748 
L 575.632976 207.14572 
L 576.038815 207.049985 
L 576.622208 206.62857 
L 577.180236 206.331206 
L 577.535344 206.398951 
L 577.941183 206.733801 
L 578.75286 207.437259 
L 579.057239 207.393911 
L 579.386982 207.091253 
L 580.452308 205.911332 
L 580.705957 206.032292 
L 581.035701 206.498717 
L 581.974203 208.007285 
L 582.202487 207.951234 
L 582.456136 207.599966 
L 582.887339 206.507741 
L 583.445367 205.243318 
L 583.673651 205.139842 
L 583.851206 205.293893 
L 584.104855 205.858062 
L 584.612153 207.705355 
L 585.043356 208.937892 
L 585.246275 209.078936 
L 585.398465 208.944845 
L 585.626749 208.359421 
L 586.007222 206.612009 
L 586.61598 203.919758 
L 586.844264 203.681107 
L 586.996454 203.872778 
L 587.224738 204.685496 
L 587.605211 207.08832 
L 588.213969 210.756819 
L 588.416888 211.075342 
L 588.543713 210.929753 
L 588.721267 210.268964 
L 589.025646 208.059767 
L 589.888053 201.10409 
L 590.014877 200.947218 
L 590.040242 200.959598 
L 590.167067 201.246689 
L 590.369986 202.471688 
L 590.69973 206.096997 
L 591.435312 214.399813 
L 591.612866 214.811663 
L 591.714326 214.606908 
L 591.89188 213.461374 
L 592.170894 209.856911 
L 593.134761 195.902187 
L 593.210855 195.833908 
L 593.23622 195.866512 
L 593.363045 196.452048 
L 593.565964 198.819646 
L 593.921073 206.321448 
L 594.605925 220.882571 
L 594.783479 221.821807 
L 594.808844 221.808933 
L 594.910304 221.373276 
L 595.087858 219.137445 
L 595.366872 212.271192 
L 596.305374 186.462775 
L 596.330739 186.335259 
L 596.330739 186.335259 
" clip-path="url(#pb0105108e2)" style="fill: none; stroke: #1f77b4; stroke-width: 1.5; stroke-linecap: square"/>
   </g>
   <g id="line2d_17">
    <path d="M 89.058011 55.6 
L 99.635177 61.775388 
L 110.364531 67.781994 
L 121.27144 73.633069 
L 132.355904 79.327142 
L 143.643286 84.875322 
L 155.133588 90.275277 
L 166.852174 95.536255 
L 178.799044 100.655278 
L 190.974198 105.629879 
L 203.403001 110.46772 
L 216.110819 115.175064 
L 229.09765 119.74819 
L 242.38886 124.192253 
L 256.009813 128.511285 
L 269.960511 132.700894 
L 284.266317 136.764415 
L 298.952597 140.704315 
L 314.044715 144.522297 
L 329.568037 148.219407 
L 345.573292 151.801635 
L 362.06048 155.262821 
L 379.080331 158.607497 
L 396.65821 161.834143 
L 414.844846 164.945326 
L 433.69097 167.942408 
L 453.221947 170.82215 
L 473.513871 173.588259 
L 494.642836 176.242704 
L 516.659573 178.783224 
L 539.665542 181.212512 
L 563.736836 183.529104 
L 589.000281 185.735199 
L 596.330739 186.335259 
L 596.330739 186.335259 
" clip-path="url(#pb0105108e2)" style="fill: none; stroke-dasharray: 5.55,2.4; stroke-dashoffset: 0; stroke: #1f77b4; stroke-opacity: 0.5; stroke-width: 1.5"/>
   </g>
   <g id="line2d_18">
    <path d="M 139.787821 358 
L 139.787821 25.36 
" clip-path="url(#pb0105108e2)" style="fill: none; stroke: #ff7f0e; stroke-opacity: 0.25; stroke-width: 1.5; stroke-linecap: square"/>
   </g>
   <g id="line2d_19">
    <path d="M 241.247439 358 
L 241.247439 25.36 
" clip-path="url(#pb0105108e2)" style="fill: none; stroke: #ff7f0e; stroke-opacity: 0.25; stroke-width: 1.5; stroke-linecap: square"/>
   </g>
   <g id="line2d_20">
    <path d="M 342.707057 358 
L 342.707057 25.36 
" clip-path="url(#pb0105108e2)" style="fill: none; stroke: #ff7f0e; stroke-opacity: 0.25; stroke-width: 1.5; stroke-linecap: square"/>
   </g>
   <g id="line2d_21">
    <path d="M 444.166676 358 
L 444.166676 25.36 
" clip-path="url(#pb0105108e2)" style="fill: none; stroke: #ff7f0e; stroke-opacity: 0.25; stroke-width: 1.5; stroke-linecap: square"/>
   </g>
   <g id="line2d_22">
    <path d="M 545.626294 358 
L 545.626294 25.36 
" clip-path="url(#pb0105108e2)" style="fill: none; stroke: #ff7f0e; stroke-opacity: 0.25; stroke-width: 1.5; stroke-linecap: square"/>
   </g>
   <g id="patch_3">
    <path d="M 63.694375 358 
L 63.694375 25.36 
" style="fill: none; stroke: #000000; stroke-width: 2.5; stroke-linejoin: miter; stroke-linecap: square"/>
   </g>
   <g id="patch_4">
    <path d="M 621.694375 358 
L 621.694375 25.36 
" style="fill: none; stroke: #000000; stroke-width: 2.5; stroke-linejoin: miter; stroke-linecap: square"/>
   </g>
   <g id="patch_5">
    <path d="M 63.694375 358 
L 621.694375 358 
" style="fill: none; stroke: #000000; stroke-width: 2.5; stroke-linejoin: miter; stroke-linecap: square"/>
   </g>
   <g id="patch_6">
    <path d="M 63.694375 25.36 
L 621.694375 25.36 
" style="fill: none; stroke: #000000; stroke-width: 2.5; stroke-linejoin: miter; stroke-linecap: square"/>
   </g>
   <g id="text_18">
    <!-- Hahn echo with multiple $\pi$ Pulses -->
    <g transform="translate(209.734375 19.36) scale(0.16 -0.16)">
     <defs>
      <path id="DejaVuSans-48" d="M 628 4666 
L 1259 4666 
L 1259 2753 
L 3553 2753 
L 3553 4666 
L 4184 4666 
L 4184 0 
L 3553 0 
L 3553 2222 
L 1259 2222 
L 1259 0 
L 628 0 
L 628 4666 
z
" transform="scale(0.015625)"/>
      <path id="DejaVuSans-68" d="M 3513 2113 
L 3513 0 
L 2938 0 
L 2938 2094 
Q 2938 2591 2744 2837 
Q 2550 3084 2163 3084 
Q 1697 3084 1428 2787 
Q 1159 2491 1159 1978 
L 1159 0 
L 581 0 
L 581 4863 
L 1159 4863 
L 1159 2956 
Q 1366 3272 1645 3428 
Q 1925 3584 2291 3584 
Q 2894 3584 3203 3211 
Q 3513 2838 3513 2113 
z
" transform="scale(0.015625)"/>
      <path id="DejaVuSans-6e" d="M 3513 2113 
L 3513 0 
L 2938 0 
L 2938 2094 
Q 2938 2591 2744 2837 
Q 2550 3084 2163 3084 
Q 1697 3084 1428 2787 
Q 1159 2491 1159 1978 
L 1159 0 
L 581 0 
L 581 3500 
L 1159 3500 
L 1159 2956 
Q 1366 3272 1645 3428 
Q 1925 3584 2291 3584 
Q 2894 3584 3203 3211 
Q 3513 2838 3513 2113 
z
" transform="scale(0.015625)"/>
      <path id="DejaVuSans-77" d="M 269 3500 
L 844 3500 
L 1563 769 
L 2278 3500 
L 2956 3500 
L 3675 769 
L 4391 3500 
L 4966 3500 
L 4050 0 
L 3372 0 
L 2619 2869 
L 1863 0 
L 1184 0 
L 269 3500 
z
" transform="scale(0.015625)"/>
      <path id="DejaVuSans-75" d="M 544 1381 
L 544 3500 
L 1119 3500 
L 1119 1403 
Q 1119 906 1312 657 
Q 1506 409 1894 409 
Q 2359 409 2629 706 
Q 2900 1003 2900 1516 
L 2900 3500 
L 3475 3500 
L 3475 0 
L 2900 0 
L 2900 538 
Q 2691 219 2414 64 
Q 2138 -91 1772 -91 
Q 1169 -91 856 284 
Q 544 659 544 1381 
z
M 1991 3584 
L 1991 3584 
z
" transform="scale(0.015625)"/>
      <path id="DejaVuSans-Oblique-3c0" d="M 584 3500 
L 3938 3500 
L 3825 2925 
L 3384 2925 
L 2966 775 
Q 2922 550 2981 450 
Q 3038 353 3209 353 
Q 3256 353 3325 363 
Q 3397 369 3419 372 
L 3338 -44 
Q 3222 -84 3103 -103 
Q 2981 -122 2866 -122 
Q 2491 -122 2388 81 
Q 2284 288 2391 838 
L 2797 2925 
L 1506 2925 
L 938 0 
L 350 0 
L 919 2925 
L 472 2925 
L 584 3500 
z
" transform="scale(0.015625)"/>
      <path id="DejaVuSans-50" d="M 1259 4147 
L 1259 2394 
L 2053 2394 
Q 2494 2394 2734 2622 
Q 2975 2850 2975 3272 
Q 2975 3691 2734 3919 
Q 2494 4147 2053 4147 
L 1259 4147 
z
M 628 4666 
L 2053 4666 
Q 2838 4666 3239 4311 
Q 3641 3956 3641 3272 
Q 3641 2581 3239 2228 
Q 2838 1875 2053 1875 
L 1259 1875 
L 1259 0 
L 628 0 
L 628 4666 
z
" transform="scale(0.015625)"/>
     </defs>
     <use xlink:href="#DejaVuSans-48" transform="translate(0 0.015625)"/>
     <use xlink:href="#DejaVuSans-61" transform="translate(75.195312 0.015625)"/>
     <use xlink:href="#DejaVuSans-68" transform="translate(136.474609 0.015625)"/>
     <use xlink:href="#DejaVuSans-6e" transform="translate(199.853516 0.015625)"/>
     <use xlink:href="#DejaVuSans-20" transform="translate(263.232422 0.015625)"/>
     <use xlink:href="#DejaVuSans-65" transform="translate(295.019531 0.015625)"/>
     <use xlink:href="#DejaVuSans-63" transform="translate(356.542969 0.015625)"/>
     <use xlink:href="#DejaVuSans-68" transform="translate(411.523438 0.015625)"/>
     <use xlink:href="#DejaVuSans-6f" transform="translate(474.902344 0.015625)"/>
     <use xlink:href="#DejaVuSans-20" transform="translate(536.083984 0.015625)"/>
     <use xlink:href="#DejaVuSans-77" transform="translate(567.871094 0.015625)"/>
     <use xlink:href="#DejaVuSans-69" transform="translate(649.658203 0.015625)"/>
     <use xlink:href="#DejaVuSans-74" transform="translate(677.441406 0.015625)"/>
     <use xlink:href="#DejaVuSans-68" transform="translate(716.650391 0.015625)"/>
     <use xlink:href="#DejaVuSans-20" transform="translate(780.029297 0.015625)"/>
     <use xlink:href="#DejaVuSans-6d" transform="translate(811.816406 0.015625)"/>
     <use xlink:href="#DejaVuSans-75" transform="translate(909.228516 0.015625)"/>
     <use xlink:href="#DejaVuSans-6c" transform="translate(972.607422 0.015625)"/>
     <use xlink:href="#DejaVuSans-74" transform="translate(1000.390625 0.015625)"/>
     <use xlink:href="#DejaVuSans-69" transform="translate(1039.599609 0.015625)"/>
     <use xlink:href="#DejaVuSans-70" transform="translate(1067.382812 0.015625)"/>
     <use xlink:href="#DejaVuSans-6c" transform="translate(1130.859375 0.015625)"/>
     <use xlink:href="#DejaVuSans-65" transform="translate(1158.642578 0.015625)"/>
     <use xlink:href="#DejaVuSans-20" transform="translate(1220.166016 0.015625)"/>
     <use xlink:href="#DejaVuSans-Oblique-3c0" transform="translate(1251.953125 0.015625)"/>
     <use xlink:href="#DejaVuSans-20" transform="translate(1312.158203 0.015625)"/>
     <use xlink:href="#DejaVuSans-50" transform="translate(1343.945312 0.015625)"/>
     <use xlink:href="#DejaVuSans-75" transform="translate(1404.248047 0.015625)"/>
     <use xlink:href="#DejaVuSans-6c" transform="translate(1467.626953 0.015625)"/>
     <use xlink:href="#DejaVuSans-73" transform="translate(1495.410156 0.015625)"/>
     <use xlink:href="#DejaVuSans-65" transform="translate(1547.509766 0.015625)"/>
     <use xlink:href="#DejaVuSans-73" transform="translate(1609.033203 0.015625)"/>
    </g>
   </g>
  </g>
 </g>
 <defs>
  <clipPath id="pb0105108e2">
   <rect x="63.694375" y="25.36" width="558" height="332.64"/>
  </clipPath>
 </defs>
</svg>
