<?xml version="1.0" encoding="utf-8" standalone="no"?>
<!DOCTYPE svg PUBLIC "-//W3C//DTD SVG 1.1//EN"
  "http://www.w3.org/Graphics/SVG/1.1/DTD/svg11.dtd">
<svg xmlns:xlink="http://www.w3.org/1999/xlink" width="864pt" height="720pt" viewBox="0 0 864 720" xmlns="http://www.w3.org/2000/svg" version="1.1">
 <metadata>
  <rdf:RDF xmlns:dc="http://purl.org/dc/elements/1.1/" xmlns:cc="http://creativecommons.org/ns#" xmlns:rdf="http://www.w3.org/1999/02/22-rdf-syntax-ns#">
   <cc:Work>
    <dc:type rdf:resource="http://purl.org/dc/dcmitype/StillImage"/>
    <dc:date>2024-03-20T16:28:38.511994</dc:date>
    <dc:format>image/svg+xml</dc:format>
    <dc:creator>
     <cc:Agent>
      <dc:title>Matplotlib v3.7.1, https://matplotlib.org/</dc:title>
     </cc:Agent>
    </dc:creator>
   </cc:Work>
  </rdf:RDF>
 </metadata>
 <defs>
  <style type="text/css">*{stroke-linejoin: round; stroke-linecap: butt}</style>
 </defs>
 <g id="figure_1">
  <g id="patch_1">
   <path d="M 0 720 
L 864 720 
L 864 0 
L 0 0 
z
" style="fill: #ffffff"/>
  </g>
  <g id="axes_1">
   <g id="patch_2">
    <path d="M 17.28 656.128 
L 846.72 656.128 
L 846.72 17.28 
L 17.28 17.28 
z
" style="fill: #ffffff"/>
   </g>
   <g id="PolyCollection_1">
    <path d="M 54.981818 549.626504 
L 54.981818 549.653333 
L 62.598347 549.653333 
L 70.214876 549.653333 
L 77.831405 549.653333 
L 85.447934 549.653333 
L 93.064463 549.653333 
L 100.680992 549.653333 
L 108.297521 549.653333 
L 115.91405 549.653333 
L 123.530579 549.653333 
L 131.147107 549.653333 
L 138.763636 549.653333 
L 146.380165 549.653333 
L 153.996694 549.653333 
L 161.613223 549.653333 
L 169.229752 549.653333 
L 176.846281 549.653333 
L 184.46281 549.653333 
L 192.079339 549.653333 
L 199.695868 549.653333 
L 207.312397 549.653333 
L 214.928926 549.653333 
L 222.545455 549.653333 
L 230.161983 549.653333 
L 237.778512 549.653333 
L 245.395041 549.653333 
L 253.01157 549.653333 
L 260.628099 549.653333 
L 268.244628 549.653333 
L 275.861157 549.653333 
L 283.477686 549.653333 
L 291.094215 549.653333 
L 298.710744 549.653333 
L 306.327273 549.653333 
L 313.943802 549.653333 
L 321.560331 549.653333 
L 329.17686 549.653333 
L 336.793388 549.653333 
L 344.409917 549.653333 
L 352.026446 549.653333 
L 359.642975 549.653333 
L 367.259504 549.653333 
L 374.876033 549.653333 
L 382.492562 549.653333 
L 390.109091 549.653333 
L 397.72562 549.653333 
L 405.342149 549.653333 
L 412.958678 549.653333 
L 420.575207 549.653333 
L 428.191736 549.653333 
L 435.808264 549.653333 
L 443.424793 549.653333 
L 451.041322 549.653333 
L 458.657851 549.653333 
L 466.27438 549.653333 
L 473.890909 549.653333 
L 481.507438 549.653333 
L 489.123967 549.653333 
L 496.740496 549.653333 
L 504.357025 549.653333 
L 511.973554 549.653333 
L 519.590083 549.653333 
L 527.206612 549.653333 
L 534.82314 549.653333 
L 542.439669 549.653333 
L 550.056198 549.653333 
L 557.672727 549.653333 
L 565.289256 549.653333 
L 572.905785 549.653333 
L 580.522314 549.653333 
L 588.138843 549.653333 
L 595.755372 549.653333 
L 603.371901 549.653333 
L 610.98843 549.653333 
L 618.604959 549.653333 
L 626.221488 549.653333 
L 633.838017 549.653333 
L 641.454545 549.653333 
L 649.071074 549.653333 
L 656.687603 549.653333 
L 664.304132 549.653333 
L 671.920661 549.653333 
L 679.53719 549.653333 
L 687.153719 549.653333 
L 694.770248 549.653333 
L 702.386777 549.653333 
L 710.003306 549.653333 
L 717.619835 549.653333 
L 725.236364 549.653333 
L 732.852893 549.653333 
L 740.469421 549.653333 
L 748.08595 549.653333 
L 755.702479 549.653333 
L 763.319008 549.653333 
L 770.935537 549.653333 
L 778.552066 549.653333 
L 786.168595 549.653333 
L 793.785124 549.653333 
L 801.401653 549.653333 
L 809.018182 549.653333 
L 809.018182 549.626504 
L 809.018182 549.626504 
L 801.401653 549.616388 
L 793.785124 549.602787 
L 786.168595 549.58463 
L 778.552066 549.560559 
L 770.935537 549.528869 
L 763.319008 549.487442 
L 755.702479 549.433664 
L 748.08595 549.364347 
L 740.469421 549.27563 
L 732.852893 549.162892 
L 725.236364 549.020648 
L 717.619835 548.84246 
L 710.003306 548.620853 
L 702.386777 548.347237 
L 694.770248 548.011866 
L 687.153719 547.603807 
L 679.53719 547.110963 
L 671.920661 546.520132 
L 664.304132 545.817129 
L 656.687603 544.986961 
L 649.071074 544.014088 
L 641.454545 542.882739 
L 633.838017 541.577328 
L 626.221488 540.082924 
L 618.604959 538.385809 
L 610.98843 536.474088 
L 603.371901 534.338344 
L 595.755372 531.972329 
L 588.138843 529.373647 
L 580.522314 526.544414 
L 572.905785 523.491866 
L 565.289256 520.228863 
L 557.672727 516.774282 
L 550.056198 513.153238 
L 542.439669 509.397133 
L 534.82314 505.543475 
L 527.206612 501.635494 
L 519.590083 497.721501 
L 511.973554 493.854032 
L 504.357025 490.088771 
L 496.740496 486.483282 
L 489.123967 483.09559 
L 481.507438 479.982658 
L 473.890909 477.198804 
L 466.27438 474.794141 
L 458.657851 472.813075 
L 451.041322 471.292946 
L 443.424793 470.262856 
L 435.808264 469.742744 
L 428.191736 469.742744 
L 420.575207 470.262856 
L 412.958678 471.292946 
L 405.342149 472.813075 
L 397.72562 474.794141 
L 390.109091 477.198804 
L 382.492562 479.982658 
L 374.876033 483.09559 
L 367.259504 486.483282 
L 359.642975 490.088771 
L 352.026446 493.854032 
L 344.409917 497.721501 
L 336.793388 501.635494 
L 329.17686 505.543475 
L 321.560331 509.397133 
L 313.943802 513.153238 
L 306.327273 516.774282 
L 298.710744 520.228863 
L 291.094215 523.491866 
L 283.477686 526.544414 
L 275.861157 529.373647 
L 268.244628 531.972329 
L 260.628099 534.338344 
L 253.01157 536.474088 
L 245.395041 538.385809 
L 237.778512 540.082924 
L 230.161983 541.577328 
L 222.545455 542.882739 
L 214.928926 544.014088 
L 207.312397 544.986961 
L 199.695868 545.817129 
L 192.079339 546.520132 
L 184.46281 547.110963 
L 176.846281 547.603807 
L 169.229752 548.011866 
L 161.613223 548.347237 
L 153.996694 548.620853 
L 146.380165 548.84246 
L 138.763636 549.020648 
L 131.147107 549.162892 
L 123.530579 549.27563 
L 115.91405 549.364347 
L 108.297521 549.433664 
L 100.680992 549.487442 
L 93.064463 549.528869 
L 85.447934 549.560559 
L 77.831405 549.58463 
L 70.214876 549.602787 
L 62.598347 549.616388 
L 54.981818 549.626504 
z
" clip-path="url(#p0e383b0bfd)" style="fill: #1f77b4; fill-opacity: 0.5"/>
   </g>
   <g id="PolyCollection_2">
    <path d="M 54.981818 336.855767 
L 54.981818 336.704 
L 62.598347 336.704 
L 70.214876 336.704 
L 77.831405 336.704 
L 85.447934 336.704 
L 93.064463 336.704 
L 100.680992 336.704 
L 108.297521 336.704 
L 115.91405 336.704 
L 123.530579 336.704 
L 131.147107 336.704 
L 138.763636 336.704 
L 146.380165 336.704 
L 153.996694 336.704 
L 161.613223 336.704 
L 169.229752 336.704 
L 176.846281 336.704 
L 184.46281 336.704 
L 192.079339 336.704 
L 199.695868 336.704 
L 207.312397 336.704 
L 214.928926 336.704 
L 222.545455 336.704 
L 230.161983 336.704 
L 237.778512 336.704 
L 245.395041 336.704 
L 253.01157 336.704 
L 260.628099 336.704 
L 268.244628 336.704 
L 275.861157 336.704 
L 283.477686 336.704 
L 291.094215 336.704 
L 298.710744 336.704 
L 306.327273 336.704 
L 313.943802 336.704 
L 321.560331 336.704 
L 329.17686 336.704 
L 336.793388 336.704 
L 344.409917 336.704 
L 352.026446 336.704 
L 359.642975 336.704 
L 367.259504 336.704 
L 374.876033 336.704 
L 382.492562 336.704 
L 390.109091 336.704 
L 397.72562 336.704 
L 405.342149 336.704 
L 412.958678 336.704 
L 420.575207 336.704 
L 428.191736 336.704 
L 435.808264 336.704 
L 443.424793 336.704 
L 451.041322 336.704 
L 458.657851 336.704 
L 466.27438 336.704 
L 473.890909 336.704 
L 481.507438 336.704 
L 489.123967 336.704 
L 496.740496 336.704 
L 504.357025 336.704 
L 511.973554 336.704 
L 519.590083 336.704 
L 527.206612 336.704 
L 534.82314 336.704 
L 542.439669 336.704 
L 550.056198 336.704 
L 557.672727 336.704 
L 565.289256 336.704 
L 572.905785 336.704 
L 580.522314 336.704 
L 588.138843 336.704 
L 595.755372 336.704 
L 603.371901 336.704 
L 610.98843 336.704 
L 618.604959 336.704 
L 626.221488 336.704 
L 633.838017 336.704 
L 641.454545 336.704 
L 649.071074 336.704 
L 656.687603 336.704 
L 664.304132 336.704 
L 671.920661 336.704 
L 679.53719 336.704 
L 687.153719 336.704 
L 694.770248 336.704 
L 702.386777 336.704 
L 710.003306 336.704 
L 717.619835 336.704 
L 725.236364 336.704 
L 732.852893 336.704 
L 740.469421 336.704 
L 748.08595 336.704 
L 755.702479 336.704 
L 763.319008 336.704 
L 770.935537 336.704 
L 778.552066 336.704 
L 786.168595 336.704 
L 793.785124 336.704 
L 801.401653 336.704 
L 809.018182 336.704 
L 809.018182 336.552233 
L 809.018182 336.552233 
L 801.401653 336.499226 
L 793.785124 336.429621 
L 786.168595 336.338912 
L 778.552066 336.221598 
L 770.935537 336.071044 
L 763.319008 335.879324 
L 755.702479 335.63709 
L 748.08595 335.333448 
L 740.469421 334.955864 
L 732.852893 334.49012 
L 725.236364 333.920325 
L 717.619835 333.229007 
L 710.003306 332.3973 
L 702.386777 331.405253 
L 694.770248 330.232259 
L 687.153719 328.857642 
L 679.53719 327.261391 
L 671.920661 325.425052 
L 664.304132 323.332769 
L 656.687603 320.972463 
L 649.071074 318.337108 
L 641.454545 315.426076 
L 633.838017 312.246489 
L 626.221488 308.814517 
L 618.604959 305.156543 
L 610.98843 301.310117 
L 603.371901 297.324608 
L 595.755372 293.261463 
L 588.138843 289.194015 
L 580.522314 285.206751 
L 572.905785 281.394005 
L 565.289256 277.858062 
L 557.672727 274.706666 
L 550.056198 272.049988 
L 542.439669 269.997128 
L 534.82314 268.652263 
L 527.206612 268.110587 
L 519.590083 268.454217 
L 511.973554 269.748255 
L 504.357025 272.037203 
L 496.740496 275.341938 
L 489.123967 279.657417 
L 481.507438 284.951281 
L 473.890909 291.163477 
L 466.27438 298.206951 
L 458.657851 305.969465 
L 451.041322 314.31646 
L 443.424793 323.094898 
L 435.808264 332.137914 
L 428.191736 341.270086 
L 420.575207 350.313102 
L 412.958678 359.09154 
L 405.342149 367.438535 
L 397.72562 375.201049 
L 390.109091 382.244523 
L 382.492562 388.456719 
L 374.876033 393.750583 
L 367.259504 398.066062 
L 359.642975 401.370797 
L 352.026446 403.659745 
L 344.409917 404.953783 
L 336.793388 405.297413 
L 329.17686 404.755737 
L 321.560331 403.410872 
L 313.943802 401.358012 
L 306.327273 398.701334 
L 298.710744 395.549938 
L 291.094215 392.013995 
L 283.477686 388.201249 
L 275.861157 384.213985 
L 268.244628 380.146537 
L 260.628099 376.083392 
L 253.01157 372.097883 
L 245.395041 368.251457 
L 237.778512 364.593483 
L 230.161983 361.161511 
L 222.545455 357.981924 
L 214.928926 355.070892 
L 207.312397 352.435537 
L 199.695868 350.075231 
L 192.079339 347.982948 
L 184.46281 346.146609 
L 176.846281 344.550358 
L 169.229752 343.175741 
L 161.613223 342.002747 
L 153.996694 341.0107 
L 146.380165 340.178993 
L 138.763636 339.487675 
L 131.147107 338.91788 
L 123.530579 338.452136 
L 115.91405 338.074552 
L 108.297521 337.77091 
L 100.680992 337.528676 
L 93.064463 337.336956 
L 85.447934 337.186402 
L 77.831405 337.069088 
L 70.214876 336.978379 
L 62.598347 336.908774 
L 54.981818 336.855767 
z
" clip-path="url(#p0e383b0bfd)" style="fill: #ff7f0e; fill-opacity: 0.5"/>
   </g>
   <g id="PolyCollection_3">
    <path d="M 54.981818 123.166569 
L 54.981818 123.754667 
L 62.598347 123.754667 
L 70.214876 123.754667 
L 77.831405 123.754667 
L 85.447934 123.754667 
L 93.064463 123.754667 
L 100.680992 123.754667 
L 108.297521 123.754667 
L 115.91405 123.754667 
L 123.530579 123.754667 
L 131.147107 123.754667 
L 138.763636 123.754667 
L 146.380165 123.754667 
L 153.996694 123.754667 
L 161.613223 123.754667 
L 169.229752 123.754667 
L 176.846281 123.754667 
L 184.46281 123.754667 
L 192.079339 123.754667 
L 199.695868 123.754667 
L 207.312397 123.754667 
L 214.928926 123.754667 
L 222.545455 123.754667 
L 230.161983 123.754667 
L 237.778512 123.754667 
L 245.395041 123.754667 
L 253.01157 123.754667 
L 260.628099 123.754667 
L 268.244628 123.754667 
L 275.861157 123.754667 
L 283.477686 123.754667 
L 291.094215 123.754667 
L 298.710744 123.754667 
L 306.327273 123.754667 
L 313.943802 123.754667 
L 321.560331 123.754667 
L 329.17686 123.754667 
L 336.793388 123.754667 
L 344.409917 123.754667 
L 352.026446 123.754667 
L 359.642975 123.754667 
L 367.259504 123.754667 
L 374.876033 123.754667 
L 382.492562 123.754667 
L 390.109091 123.754667 
L 397.72562 123.754667 
L 405.342149 123.754667 
L 412.958678 123.754667 
L 420.575207 123.754667 
L 428.191736 123.754667 
L 435.808264 123.754667 
L 443.424793 123.754667 
L 451.041322 123.754667 
L 458.657851 123.754667 
L 466.27438 123.754667 
L 473.890909 123.754667 
L 481.507438 123.754667 
L 489.123967 123.754667 
L 496.740496 123.754667 
L 504.357025 123.754667 
L 511.973554 123.754667 
L 519.590083 123.754667 
L 527.206612 123.754667 
L 534.82314 123.754667 
L 542.439669 123.754667 
L 550.056198 123.754667 
L 557.672727 123.754667 
L 565.289256 123.754667 
L 572.905785 123.754667 
L 580.522314 123.754667 
L 588.138843 123.754667 
L 595.755372 123.754667 
L 603.371901 123.754667 
L 610.98843 123.754667 
L 618.604959 123.754667 
L 626.221488 123.754667 
L 633.838017 123.754667 
L 641.454545 123.754667 
L 649.071074 123.754667 
L 656.687603 123.754667 
L 664.304132 123.754667 
L 671.920661 123.754667 
L 679.53719 123.754667 
L 687.153719 123.754667 
L 694.770248 123.754667 
L 702.386777 123.754667 
L 710.003306 123.754667 
L 717.619835 123.754667 
L 725.236364 123.754667 
L 732.852893 123.754667 
L 740.469421 123.754667 
L 748.08595 123.754667 
L 755.702479 123.754667 
L 763.319008 123.754667 
L 770.935537 123.754667 
L 778.552066 123.754667 
L 786.168595 123.754667 
L 793.785124 123.754667 
L 801.401653 123.754667 
L 809.018182 123.754667 
L 809.018182 123.166569 
L 809.018182 123.166569 
L 801.401653 122.978243 
L 793.785124 122.737237 
L 786.168595 122.431399 
L 778.552066 122.046589 
L 770.935537 121.56659 
L 763.319008 120.973107 
L 755.702479 120.245861 
L 748.08595 119.362816 
L 740.469421 118.300571 
L 732.852893 117.034936 
L 725.236364 115.541721 
L 717.619835 113.797757 
L 710.003306 111.782151 
L 702.386777 109.477769 
L 694.770248 106.87293 
L 687.153719 103.963256 
L 679.53719 100.753624 
L 671.920661 97.260124 
L 664.304132 93.511915 
L 656.687603 89.552848 
L 649.071074 85.442707 
L 641.454545 81.257924 
L 633.838017 77.091605 
L 626.221488 73.052729 
L 618.604959 69.264417 
L 610.98843 65.861175 
L 603.371901 62.985104 
L 595.755372 60.781102 
L 588.138843 59.391162 
L 580.522314 58.947959 
L 572.905785 59.567969 
L 565.289256 61.344431 
L 557.672727 64.340555 
L 550.056198 68.583348 
L 542.439669 74.058512 
L 534.82314 80.706787 
L 527.206612 88.42213 
L 519.590083 97.051976 
L 511.973554 106.399795 
L 504.357025 116.229975 
L 496.740496 126.274959 
L 489.123967 136.244411 
L 481.507438 145.836028 
L 473.890909 154.747523 
L 466.27438 162.689182 
L 458.657851 169.396338 
L 451.041322 174.641092 
L 443.424793 178.242623 
L 435.808264 180.075498 
L 428.191736 180.075498 
L 420.575207 178.242623 
L 412.958678 174.641092 
L 405.342149 169.396338 
L 397.72562 162.689182 
L 390.109091 154.747523 
L 382.492562 145.836028 
L 374.876033 136.244411 
L 367.259504 126.274959 
L 359.642975 116.229975 
L 352.026446 106.399795 
L 344.409917 97.051976 
L 336.793388 88.42213 
L 329.17686 80.706787 
L 321.560331 74.058512 
L 313.943802 68.583348 
L 306.327273 64.340555 
L 298.710744 61.344431 
L 291.094215 59.567969 
L 283.477686 58.947959 
L 275.861157 59.391162 
L 268.244628 60.781102 
L 260.628099 62.985104 
L 253.01157 65.861175 
L 245.395041 69.264417 
L 237.778512 73.052729 
L 230.161983 77.091605 
L 222.545455 81.257924 
L 214.928926 85.442707 
L 207.312397 89.552848 
L 199.695868 93.511915 
L 192.079339 97.260124 
L 184.46281 100.753624 
L 176.846281 103.963256 
L 169.229752 106.87293 
L 161.613223 109.477769 
L 153.996694 111.782151 
L 146.380165 113.797757 
L 138.763636 115.541721 
L 131.147107 117.034936 
L 123.530579 118.300571 
L 115.91405 119.362816 
L 108.297521 120.245861 
L 100.680992 120.973107 
L 93.064463 121.56659 
L 85.447934 122.046589 
L 77.831405 122.431399 
L 70.214876 122.737237 
L 62.598347 122.978243 
L 54.981818 123.166569 
z
" clip-path="url(#p0e383b0bfd)" style="fill: #2ca02c; fill-opacity: 0.5"/>
   </g>
   <g id="matplotlib.axis_1">
    <g id="xtick_1">
     <g id="line2d_1">
      <defs>
       <path id="m06d918eedc" d="M 0 0 
L 0 10 
" style="stroke: #000000; stroke-width: 2.5"/>
      </defs>
      <g>
       <use xlink:href="#m06d918eedc" x="54.981818" y="656.128" style="stroke: #000000; stroke-width: 2.5"/>
      </g>
     </g>
    </g>
    <g id="xtick_2">
     <g id="line2d_2">
      <g>
       <use xlink:href="#m06d918eedc" x="149.236364" y="656.128" style="stroke: #000000; stroke-width: 2.5"/>
      </g>
     </g>
    </g>
    <g id="xtick_3">
     <g id="line2d_3">
      <g>
       <use xlink:href="#m06d918eedc" x="243.490909" y="656.128" style="stroke: #000000; stroke-width: 2.5"/>
      </g>
     </g>
    </g>
    <g id="xtick_4">
     <g id="line2d_4">
      <g>
       <use xlink:href="#m06d918eedc" x="337.745455" y="656.128" style="stroke: #000000; stroke-width: 2.5"/>
      </g>
     </g>
    </g>
    <g id="xtick_5">
     <g id="line2d_5">
      <g>
       <use xlink:href="#m06d918eedc" x="432" y="656.128" style="stroke: #000000; stroke-width: 2.5"/>
      </g>
     </g>
    </g>
    <g id="xtick_6">
     <g id="line2d_6">
      <g>
       <use xlink:href="#m06d918eedc" x="526.254545" y="656.128" style="stroke: #000000; stroke-width: 2.5"/>
      </g>
     </g>
    </g>
    <g id="xtick_7">
     <g id="line2d_7">
      <g>
       <use xlink:href="#m06d918eedc" x="620.509091" y="656.128" style="stroke: #000000; stroke-width: 2.5"/>
      </g>
     </g>
    </g>
    <g id="xtick_8">
     <g id="line2d_8">
      <g>
       <use xlink:href="#m06d918eedc" x="714.763636" y="656.128" style="stroke: #000000; stroke-width: 2.5"/>
      </g>
     </g>
    </g>
    <g id="xtick_9">
     <g id="line2d_9">
      <g>
       <use xlink:href="#m06d918eedc" x="809.018182" y="656.128" style="stroke: #000000; stroke-width: 2.5"/>
      </g>
     </g>
    </g>
    <g id="text_1">
     <!-- X ($\sqrt{\hbar/m\omega_0}$) -->
     <g transform="translate(371.3 695.868625) scale(0.2 -0.2)">
      <defs>
       <path id="DejaVuSans-58" d="M 403 4666 
L 1081 4666 
L 2241 2931 
L 3406 4666 
L 4084 4666 
L 2584 2425 
L 4184 0 
L 3506 0 
L 2194 1984 
L 872 0 
L 191 0 
L 1856 2491 
L 403 4666 
z
" transform="scale(0.015625)"/>
       <path id="DejaVuSans-20" transform="scale(0.015625)"/>
       <path id="DejaVuSans-28" d="M 1984 4856 
Q 1566 4138 1362 3434 
Q 1159 2731 1159 2009 
Q 1159 1288 1364 580 
Q 1569 -128 1984 -844 
L 1484 -844 
Q 1016 -109 783 600 
Q 550 1309 550 2009 
Q 550 2706 781 3412 
Q 1013 4119 1484 4856 
L 1984 4856 
z
" transform="scale(0.015625)"/>
       <path id="STIXSizeOneSym-Regular-221a" d="M 6970 9933 
L 3373 -1888 
L 3104 -1888 
L 1626 2918 
Q 1555 3149 1465 3251 
Q 1376 3354 1229 3354 
Q 1011 3354 794 3181 
L 717 3309 
L 1766 4115 
L 1926 4115 
L 3379 -602 
L 3405 -602 
L 6605 9933 
L 6970 9933 
z
" transform="scale(0.015625)"/>
       <path id="DejaVuSans-Oblique-127" d="M 3634 2113 
L 3225 0 
L 2650 0 
L 3056 2094 
Q 3094 2291 3094 2450 
Q 3094 2688 3006 2838 
Q 2863 3084 2475 3084 
Q 2009 3084 1681 2788 
Q 1356 2491 1256 1978 
L 872 0 
L 294 0 
L 1066 3969 
L 675 3969 
L 775 4481 
L 1166 4481 
L 1238 4863 
L 1816 4863 
L 1744 4481 
L 2844 4481 
L 2744 3969 
L 1644 3969 
L 1447 2956 
Q 1713 3272 2025 3428 
Q 2331 3584 2700 3584 
Q 3300 3584 3538 3213 
Q 3688 2975 3688 2606 
Q 3688 2381 3634 2113 
z
" transform="scale(0.015625)"/>
       <path id="DejaVuSans-2f" d="M 1625 4666 
L 2156 4666 
L 531 -594 
L 0 -594 
L 1625 4666 
z
" transform="scale(0.015625)"/>
       <path id="DejaVuSans-Oblique-6d" d="M 5747 2113 
L 5338 0 
L 4763 0 
L 5166 2094 
Q 5191 2228 5203 2325 
Q 5216 2422 5216 2491 
Q 5216 2772 5059 2928 
Q 4903 3084 4622 3084 
Q 4203 3084 3875 2770 
Q 3547 2456 3450 1953 
L 3066 0 
L 2491 0 
L 2900 2094 
Q 2925 2209 2937 2307 
Q 2950 2406 2950 2484 
Q 2950 2769 2794 2926 
Q 2638 3084 2363 3084 
Q 1938 3084 1609 2770 
Q 1281 2456 1184 1953 
L 800 0 
L 225 0 
L 909 3500 
L 1484 3500 
L 1375 2956 
Q 1609 3263 1923 3423 
Q 2238 3584 2597 3584 
Q 2978 3584 3223 3384 
Q 3469 3184 3519 2828 
Q 3781 3197 4126 3390 
Q 4472 3584 4856 3584 
Q 5306 3584 5551 3325 
Q 5797 3066 5797 2591 
Q 5797 2488 5784 2364 
Q 5772 2241 5747 2113 
z
" transform="scale(0.015625)"/>
       <path id="DejaVuSans-Oblique-3c9" d="M 1369 -91 
Q 72 -91 434 1766 
Q 575 2500 1256 3500 
L 1875 3500 
Q 1231 2500 1088 1750 
Q 819 397 1519 397 
Q 2166 397 2478 2078 
L 3009 2078 
Q 2669 388 3316 397 
Q 4013 403 4275 1750 
Q 4419 2500 4169 3500 
L 4788 3500 
Q 5075 2500 4934 1766 
Q 4578 -94 3278 -91 
Q 2428 -88 2503 844 
Q 2194 -91 1369 -91 
z
" transform="scale(0.015625)"/>
       <path id="DejaVuSans-30" d="M 2034 4250 
Q 1547 4250 1301 3770 
Q 1056 3291 1056 2328 
Q 1056 1369 1301 889 
Q 1547 409 2034 409 
Q 2525 409 2770 889 
Q 3016 1369 3016 2328 
Q 3016 3291 2770 3770 
Q 2525 4250 2034 4250 
z
M 2034 4750 
Q 2819 4750 3233 4129 
Q 3647 3509 3647 2328 
Q 3647 1150 3233 529 
Q 2819 -91 2034 -91 
Q 1250 -91 836 529 
Q 422 1150 422 2328 
Q 422 3509 836 4129 
Q 1250 4750 2034 4750 
z
" transform="scale(0.015625)"/>
       <path id="DejaVuSans-29" d="M 513 4856 
L 1013 4856 
Q 1481 4119 1714 3412 
Q 1947 2706 1947 2009 
Q 1947 1309 1714 600 
Q 1481 -109 1013 -844 
L 513 -844 
Q 928 -128 1133 580 
Q 1338 1288 1338 2009 
Q 1338 2731 1133 3434 
Q 928 4138 513 4856 
z
" transform="scale(0.015625)"/>
      </defs>
      <use xlink:href="#DejaVuSans-58" transform="translate(0 0.776562)"/>
      <use xlink:href="#DejaVuSans-20" transform="translate(68.505859 0.776562)"/>
      <use xlink:href="#DejaVuSans-28" transform="translate(100.292969 0.776562)"/>
      <use xlink:href="#STIXSizeOneSym-Regular-221a" transform="translate(139.306641 3.28125) scale(0.674791)"/>
      <use xlink:href="#DejaVuSans-Oblique-127" transform="translate(223.121109 0.765625)"/>
      <use xlink:href="#DejaVuSans-2f" transform="translate(292.603531 0.765625)"/>
      <use xlink:href="#DejaVuSans-Oblique-6d" transform="translate(326.294937 0.765625)"/>
      <use xlink:href="#DejaVuSans-Oblique-3c9" transform="translate(423.707047 0.765625)"/>
      <use xlink:href="#DejaVuSans-30" transform="translate(507.447281 -15.640625) scale(0.7)"/>
      <use xlink:href="#DejaVuSans-29" transform="translate(567.217789 0.776562)"/>
      <path d="M 210.621109 101.5 
L 210.621109 107.75 
L 567.217789 107.75 
L 567.217789 101.5 
L 210.621109 101.5 
z
"/>
     </g>
    </g>
   </g>
   <g id="matplotlib.axis_2">
    <g id="ytick_1">
     <g id="line2d_10">
      <defs>
       <path id="m78c3189445" d="M 0 0 
L -10 0 
" style="stroke: #000000; stroke-width: 2.5"/>
      </defs>
      <g>
       <use xlink:href="#m78c3189445" x="432" y="656.128" style="stroke: #000000; stroke-width: 2.5"/>
      </g>
     </g>
    </g>
    <g id="ytick_2">
     <g id="line2d_11">
      <g>
       <use xlink:href="#m78c3189445" x="432" y="549.653333" style="stroke: #000000; stroke-width: 2.5"/>
      </g>
     </g>
    </g>
    <g id="ytick_3">
     <g id="line2d_12">
      <g>
       <use xlink:href="#m78c3189445" x="432" y="443.178667" style="stroke: #000000; stroke-width: 2.5"/>
      </g>
     </g>
    </g>
    <g id="ytick_4">
     <g id="line2d_13">
      <g>
       <use xlink:href="#m78c3189445" x="432" y="336.704" style="stroke: #000000; stroke-width: 2.5"/>
      </g>
     </g>
    </g>
    <g id="ytick_5">
     <g id="line2d_14">
      <g>
       <use xlink:href="#m78c3189445" x="432" y="230.229333" style="stroke: #000000; stroke-width: 2.5"/>
      </g>
     </g>
    </g>
    <g id="ytick_6">
     <g id="line2d_15">
      <g>
       <use xlink:href="#m78c3189445" x="432" y="123.754667" style="stroke: #000000; stroke-width: 2.5"/>
      </g>
     </g>
    </g>
    <g id="ytick_7">
     <g id="line2d_16">
      <g>
       <use xlink:href="#m78c3189445" x="432" y="17.28" style="stroke: #000000; stroke-width: 2.5"/>
      </g>
     </g>
    </g>
    <g id="text_2">
     <!-- $E/\hbar\omega_0$ -->
     <g transform="translate(407.104625 79.0224) rotate(-90) scale(0.2 -0.2)">
      <defs>
       <path id="DejaVuSans-Oblique-45" d="M 1081 4666 
L 4031 4666 
L 3928 4134 
L 1606 4134 
L 1338 2753 
L 3566 2753 
L 3463 2222 
L 1234 2222 
L 909 531 
L 3284 531 
L 3181 0 
L 172 0 
L 1081 4666 
z
" transform="scale(0.015625)"/>
      </defs>
      <use xlink:href="#DejaVuSans-Oblique-45" transform="translate(0 0.015625)"/>
      <use xlink:href="#DejaVuSans-2f" transform="translate(63.183594 0.015625)"/>
      <use xlink:href="#DejaVuSans-Oblique-127" transform="translate(96.875 0.015625)"/>
      <use xlink:href="#DejaVuSans-Oblique-3c9" transform="translate(166.357422 0.015625)"/>
      <use xlink:href="#DejaVuSans-30" transform="translate(250.097656 -16.390625) scale(0.7)"/>
     </g>
    </g>
   </g>
   <g id="LineCollection_1">
    <path d="M 54.981818 549.653333 
L 809.018182 549.653333 
" clip-path="url(#p0e383b0bfd)" style="fill: none; stroke-dasharray: 1.5,2.475; stroke-dashoffset: 0; stroke: #000000; stroke-width: 1.5"/>
   </g>
   <g id="line2d_17">
    <path d="M 54.981818 549.626504 
L 62.598347 549.616388 
L 70.214876 549.602787 
L 77.831405 549.58463 
L 85.447934 549.560559 
L 93.064463 549.528869 
L 100.680992 549.487442 
L 108.297521 549.433664 
L 115.91405 549.364347 
L 123.530579 549.27563 
L 131.147107 549.162892 
L 138.763636 549.020648 
L 146.380165 548.84246 
L 153.996694 548.620853 
L 161.613223 548.347237 
L 169.229752 548.011866 
L 176.846281 547.603807 
L 184.46281 547.110963 
L 192.079339 546.520132 
L 199.695868 545.817129 
L 207.312397 544.986961 
L 214.928926 544.014088 
L 222.545455 542.882739 
L 230.161983 541.577328 
L 237.778512 540.082924 
L 245.395041 538.385809 
L 253.01157 536.474088 
L 260.628099 534.338344 
L 268.244628 531.972329 
L 275.861157 529.373647 
L 283.477686 526.544414 
L 291.094215 523.491866 
L 298.710744 520.228863 
L 306.327273 516.774282 
L 313.943802 513.153238 
L 321.560331 509.397133 
L 329.17686 505.543475 
L 336.793388 501.635494 
L 344.409917 497.721501 
L 352.026446 493.854032 
L 359.642975 490.088771 
L 367.259504 486.483282 
L 374.876033 483.09559 
L 382.492562 479.982658 
L 390.109091 477.198804 
L 397.72562 474.794141 
L 405.342149 472.813075 
L 412.958678 471.292946 
L 420.575207 470.262856 
L 428.191736 469.742744 
L 435.808264 469.742744 
L 443.424793 470.262856 
L 451.041322 471.292946 
L 458.657851 472.813075 
L 466.27438 474.794141 
L 473.890909 477.198804 
L 481.507438 479.982658 
L 489.123967 483.09559 
L 496.740496 486.483282 
L 504.357025 490.088771 
L 511.973554 493.854032 
L 519.590083 497.721501 
L 527.206612 501.635494 
L 534.82314 505.543475 
L 542.439669 509.397133 
L 550.056198 513.153238 
L 557.672727 516.774282 
L 565.289256 520.228863 
L 572.905785 523.491866 
L 580.522314 526.544414 
L 588.138843 529.373647 
L 595.755372 531.972329 
L 603.371901 534.338344 
L 610.98843 536.474088 
L 618.604959 538.385809 
L 626.221488 540.082924 
L 633.838017 541.577328 
L 641.454545 542.882739 
L 649.071074 544.014088 
L 656.687603 544.986961 
L 664.304132 545.817129 
L 671.920661 546.520132 
L 679.53719 547.110963 
L 687.153719 547.603807 
L 694.770248 548.011866 
L 702.386777 548.347237 
L 710.003306 548.620853 
L 717.619835 548.84246 
L 725.236364 549.020648 
L 732.852893 549.162892 
L 740.469421 549.27563 
L 748.08595 549.364347 
L 755.702479 549.433664 
L 763.319008 549.487442 
L 770.935537 549.528869 
L 778.552066 549.560559 
L 786.168595 549.58463 
L 793.785124 549.602787 
L 801.401653 549.616388 
L 809.018182 549.626504 
" clip-path="url(#p0e383b0bfd)" style="fill: none; stroke: #1f77b4; stroke-width: 1.5; stroke-linecap: square"/>
   </g>
   <g id="LineCollection_2">
    <path d="M 54.981818 336.704 
L 809.018182 336.704 
" clip-path="url(#p0e383b0bfd)" style="fill: none; stroke-dasharray: 1.5,2.475; stroke-dashoffset: 0; stroke: #000000; stroke-width: 1.5"/>
   </g>
   <g id="line2d_18">
    <path d="M 54.981818 336.855767 
L 62.598347 336.908774 
L 70.214876 336.978379 
L 77.831405 337.069088 
L 85.447934 337.186402 
L 93.064463 337.336956 
L 100.680992 337.528676 
L 108.297521 337.77091 
L 115.91405 338.074552 
L 123.530579 338.452136 
L 131.147107 338.91788 
L 138.763636 339.487675 
L 146.380165 340.178993 
L 153.996694 341.0107 
L 161.613223 342.002747 
L 169.229752 343.175741 
L 176.846281 344.550358 
L 184.46281 346.146609 
L 192.079339 347.982948 
L 199.695868 350.075231 
L 207.312397 352.435537 
L 214.928926 355.070892 
L 222.545455 357.981924 
L 230.161983 361.161511 
L 237.778512 364.593483 
L 245.395041 368.251457 
L 253.01157 372.097883 
L 260.628099 376.083392 
L 268.244628 380.146537 
L 275.861157 384.213985 
L 283.477686 388.201249 
L 291.094215 392.013995 
L 298.710744 395.549938 
L 306.327273 398.701334 
L 313.943802 401.358012 
L 321.560331 403.410872 
L 329.17686 404.755737 
L 336.793388 405.297413 
L 344.409917 404.953783 
L 352.026446 403.659745 
L 359.642975 401.370797 
L 367.259504 398.066062 
L 374.876033 393.750583 
L 382.492562 388.456719 
L 390.109091 382.244523 
L 397.72562 375.201049 
L 405.342149 367.438535 
L 412.958678 359.09154 
L 420.575207 350.313102 
L 428.191736 341.270086 
L 435.808264 332.137914 
L 443.424793 323.094898 
L 451.041322 314.31646 
L 458.657851 305.969465 
L 466.27438 298.206951 
L 473.890909 291.163477 
L 481.507438 284.951281 
L 489.123967 279.657417 
L 496.740496 275.341938 
L 504.357025 272.037203 
L 511.973554 269.748255 
L 519.590083 268.454217 
L 527.206612 268.110587 
L 534.82314 268.652263 
L 542.439669 269.997128 
L 550.056198 272.049988 
L 557.672727 274.706666 
L 565.289256 277.858062 
L 572.905785 281.394005 
L 580.522314 285.206751 
L 588.138843 289.194015 
L 595.755372 293.261463 
L 603.371901 297.324608 
L 610.98843 301.310117 
L 618.604959 305.156543 
L 626.221488 308.814517 
L 633.838017 312.246489 
L 641.454545 315.426076 
L 649.071074 318.337108 
L 656.687603 320.972463 
L 664.304132 323.332769 
L 671.920661 325.425052 
L 679.53719 327.261391 
L 687.153719 328.857642 
L 694.770248 330.232259 
L 702.386777 331.405253 
L 710.003306 332.3973 
L 717.619835 333.229007 
L 725.236364 333.920325 
L 732.852893 334.49012 
L 740.469421 334.955864 
L 748.08595 335.333448 
L 755.702479 335.63709 
L 763.319008 335.879324 
L 770.935537 336.071044 
L 778.552066 336.221598 
L 786.168595 336.338912 
L 793.785124 336.429621 
L 801.401653 336.499226 
L 809.018182 336.552233 
" clip-path="url(#p0e383b0bfd)" style="fill: none; stroke: #ff7f0e; stroke-width: 1.5; stroke-linecap: square"/>
   </g>
   <g id="LineCollection_3">
    <path d="M 54.981818 123.754667 
L 809.018182 123.754667 
" clip-path="url(#p0e383b0bfd)" style="fill: none; stroke-dasharray: 1.5,2.475; stroke-dashoffset: 0; stroke: #000000; stroke-width: 1.5"/>
   </g>
   <g id="line2d_19">
    <path d="M 54.981818 123.166569 
L 62.598347 122.978243 
L 70.214876 122.737237 
L 77.831405 122.431399 
L 85.447934 122.046589 
L 93.064463 121.56659 
L 100.680992 120.973107 
L 108.297521 120.245861 
L 115.91405 119.362816 
L 123.530579 118.300571 
L 131.147107 117.034936 
L 138.763636 115.541721 
L 146.380165 113.797757 
L 153.996694 111.782151 
L 161.613223 109.477769 
L 169.229752 106.87293 
L 176.846281 103.963256 
L 184.46281 100.753624 
L 192.079339 97.260124 
L 199.695868 93.511915 
L 207.312397 89.552848 
L 214.928926 85.442707 
L 222.545455 81.257924 
L 230.161983 77.091605 
L 237.778512 73.052729 
L 245.395041 69.264417 
L 253.01157 65.861175 
L 260.628099 62.985104 
L 268.244628 60.781102 
L 275.861157 59.391162 
L 283.477686 58.947959 
L 291.094215 59.567969 
L 298.710744 61.344431 
L 306.327273 64.340555 
L 313.943802 68.583348 
L 321.560331 74.058512 
L 329.17686 80.706787 
L 336.793388 88.42213 
L 344.409917 97.051976 
L 352.026446 106.399795 
L 359.642975 116.229975 
L 367.259504 126.274959 
L 374.876033 136.244411 
L 382.492562 145.836028 
L 390.109091 154.747523 
L 397.72562 162.689182 
L 405.342149 169.396338 
L 412.958678 174.641092 
L 420.575207 178.242623 
L 428.191736 180.075498 
L 435.808264 180.075498 
L 443.424793 178.242623 
L 451.041322 174.641092 
L 458.657851 169.396338 
L 466.27438 162.689182 
L 473.890909 154.747523 
L 481.507438 145.836028 
L 489.123967 136.244411 
L 496.740496 126.274959 
L 504.357025 116.229975 
L 511.973554 106.399795 
L 519.590083 97.051976 
L 527.206612 88.42213 
L 534.82314 80.706787 
L 542.439669 74.058512 
L 550.056198 68.583348 
L 557.672727 64.340555 
L 565.289256 61.344431 
L 572.905785 59.567969 
L 580.522314 58.947959 
L 588.138843 59.391162 
L 595.755372 60.781102 
L 603.371901 62.985104 
L 610.98843 65.861175 
L 618.604959 69.264417 
L 626.221488 73.052729 
L 633.838017 77.091605 
L 641.454545 81.257924 
L 649.071074 85.442707 
L 656.687603 89.552848 
L 664.304132 93.511915 
L 671.920661 97.260124 
L 679.53719 100.753624 
L 687.153719 103.963256 
L 694.770248 106.87293 
L 702.386777 109.477769 
L 710.003306 111.782151 
L 717.619835 113.797757 
L 725.236364 115.541721 
L 732.852893 117.034936 
L 740.469421 118.300571 
L 748.08595 119.362816 
L 755.702479 120.245861 
L 763.319008 120.973107 
L 770.935537 121.56659 
L 778.552066 122.046589 
L 786.168595 122.431399 
L 793.785124 122.737237 
L 801.401653 122.978243 
L 809.018182 123.166569 
" clip-path="url(#p0e383b0bfd)" style="fill: none; stroke: #2ca02c; stroke-width: 1.5; stroke-linecap: square"/>
   </g>
   <g id="line2d_20">
    <path d="M 197.867219 -1 
L 199.695868 9.349533 
L 207.312397 51.065962 
L 214.928926 91.391843 
L 222.545455 130.327177 
L 230.161983 167.871963 
L 237.778512 204.026201 
L 245.395041 238.789892 
L 253.01157 272.163035 
L 260.628099 304.145631 
L 268.244628 334.737679 
L 275.861157 363.939179 
L 283.477686 391.750132 
L 291.094215 418.170537 
L 298.710744 443.200394 
L 306.327273 466.839704 
L 313.943802 489.088466 
L 321.560331 509.94668 
L 329.17686 529.414347 
L 336.793388 547.491466 
L 344.409917 564.178038 
L 352.026446 579.474062 
L 359.642975 593.379538 
L 367.259504 605.894467 
L 374.876033 617.018848 
L 382.492562 626.752681 
L 390.109091 635.095967 
L 397.72562 642.048705 
L 405.342149 647.610896 
L 412.958678 651.782539 
L 420.575207 654.563634 
L 428.191736 655.954182 
L 435.808264 655.954182 
L 443.424793 654.563634 
L 451.041322 651.782539 
L 458.657851 647.610896 
L 466.27438 642.048705 
L 473.890909 635.095967 
L 481.507438 626.752681 
L 489.123967 617.018848 
L 496.740496 605.894467 
L 504.357025 593.379538 
L 511.973554 579.474062 
L 519.590083 564.178038 
L 527.206612 547.491466 
L 534.82314 529.414347 
L 542.439669 509.94668 
L 550.056198 489.088466 
L 557.672727 466.839704 
L 565.289256 443.200394 
L 572.905785 418.170537 
L 580.522314 391.750132 
L 588.138843 363.939179 
L 595.755372 334.737679 
L 603.371901 304.145631 
L 610.98843 272.163035 
L 618.604959 238.789892 
L 626.221488 204.026201 
L 633.838017 167.871963 
L 641.454545 130.327177 
L 649.071074 91.391843 
L 656.687603 51.065962 
L 664.304132 9.349533 
L 666.132781 -1 
" clip-path="url(#p0e383b0bfd)" style="fill: none; stroke: #000000; stroke-width: 5; stroke-linecap: square"/>
   </g>
   <g id="patch_3">
    <path d="M 432 656.128 
L 432 17.28 
" style="fill: none; stroke: #000000; stroke-width: 2.5; stroke-linejoin: miter; stroke-linecap: square"/>
   </g>
   <g id="patch_4">
    <path d="M 846.72 656.128 
L 846.72 17.28 
" style="fill: none"/>
   </g>
   <g id="patch_5">
    <path d="M 17.28 656.128 
L 846.72 656.128 
" style="fill: none; stroke: #000000; stroke-width: 2.5; stroke-linejoin: miter; stroke-linecap: square"/>
   </g>
   <g id="patch_6">
    <path d="M 17.28 17.28 
L 846.72 17.28 
" style="fill: none"/>
   </g>
   <g id="text_3">
    <!-- $\psi_0 (x)$ -->
    <g transform="translate(788.938182 528.3584) scale(0.16 -0.16)">
     <defs>
      <path id="DejaVuSans-Oblique-3c8" d="M 1591 -78 
Q 891 38 616 341 
Q 278 713 425 1472 
L 819 3500 
L 1400 3500 
L 1009 1494 
Q 900 922 1119 684 
Q 1313 478 1691 434 
L 2284 3500 
L 2856 3500 
L 2263 438 
Q 2681 481 2928 688 
Q 3247 950 3353 1497 
L 3741 3500 
L 4322 3500 
L 3928 1475 
Q 3775 688 3300 344 
Q 2872 34 2163 -75 
L 1919 -1331 
L 1347 -1331 
L 1591 -78 
z
" transform="scale(0.015625)"/>
      <path id="DejaVuSans-Oblique-78" d="M 3841 3500 
L 2234 1784 
L 3219 0 
L 2559 0 
L 1819 1388 
L 531 0 
L -166 0 
L 1556 1844 
L 641 3500 
L 1300 3500 
L 1972 2234 
L 3144 3500 
L 3841 3500 
z
" transform="scale(0.015625)"/>
     </defs>
     <use xlink:href="#DejaVuSans-Oblique-3c8" transform="translate(0 0.125)"/>
     <use xlink:href="#DejaVuSans-30" transform="translate(65.966797 -16.28125) scale(0.7)"/>
     <use xlink:href="#DejaVuSans-28" transform="translate(113.237305 0.125)"/>
     <use xlink:href="#DejaVuSans-Oblique-78" transform="translate(152.250977 0.125)"/>
     <use xlink:href="#DejaVuSans-29" transform="translate(211.430664 0.125)"/>
    </g>
   </g>
   <g id="text_4">
    <!-- $E_0$ -->
    <g transform="translate(446.683636 539.005867) scale(0.16 -0.16)">
     <use xlink:href="#DejaVuSans-Oblique-45" transform="translate(0 0.09375)"/>
     <use xlink:href="#DejaVuSans-30" transform="translate(63.183594 -16.3125) scale(0.7)"/>
    </g>
   </g>
   <g id="text_5">
    <!-- $\frac{\hbar\omega_0}{2}$ -->
    <g transform="translate(61.592727 613.538133) scale(0.16 -0.16)">
     <defs>
      <path id="DejaVuSans-32" d="M 1228 531 
L 3431 531 
L 3431 0 
L 469 0 
L 469 531 
Q 828 903 1448 1529 
Q 2069 2156 2228 2338 
Q 2531 2678 2651 2914 
Q 2772 3150 2772 3378 
Q 2772 3750 2511 3984 
Q 2250 4219 1831 4219 
Q 1534 4219 1204 4116 
Q 875 4013 500 3803 
L 500 4441 
Q 881 4594 1212 4672 
Q 1544 4750 1819 4750 
Q 2544 4750 2975 4387 
Q 3406 4025 3406 3419 
Q 3406 3131 3298 2873 
Q 3191 2616 2906 2266 
Q 2828 2175 2409 1742 
Q 1991 1309 1228 531 
z
" transform="scale(0.015625)"/>
     </defs>
     <use xlink:href="#DejaVuSans-Oblique-127" transform="translate(0 56.810938) scale(0.7)"/>
     <use xlink:href="#DejaVuSans-Oblique-3c9" transform="translate(48.637695 56.810938) scale(0.7)"/>
     <use xlink:href="#DejaVuSans-30" transform="translate(107.255859 45.326562) scale(0.49)"/>
     <use xlink:href="#DejaVuSans-32" transform="translate(48 -38.573281) scale(0.7)"/>
     <path d="M 0 19.629844 
L 0 25.879844 
L 140.345215 25.879844 
L 140.345215 19.629844 
L 0 19.629844 
z
"/>
    </g>
   </g>
   <g id="patch_7">
    <path d="M 102.109091 552.769717 
Q 102.109091 602.890289 102.109091 653.010862 
" style="fill: none; stroke: #000000; stroke-linecap: round"/>
    <path d="M 98.909091 559.169717 
L 102.109091 552.769717 
L 105.309091 559.169717 
" style="fill: none; stroke: #000000; stroke-linecap: round"/>
    <path d="M 105.309091 646.610862 
L 102.109091 653.010862 
L 98.909091 646.610862 
" style="fill: none; stroke: #000000; stroke-linecap: round"/>
   </g>
   <g id="text_6">
    <!-- $\psi_1 (x)$ -->
    <g transform="translate(788.938182 315.409067) scale(0.16 -0.16)">
     <defs>
      <path id="DejaVuSans-31" d="M 794 531 
L 1825 531 
L 1825 4091 
L 703 3866 
L 703 4441 
L 1819 4666 
L 2450 4666 
L 2450 531 
L 3481 531 
L 3481 0 
L 794 0 
L 794 531 
z
" transform="scale(0.015625)"/>
     </defs>
     <use xlink:href="#DejaVuSans-Oblique-3c8" transform="translate(0 0.125)"/>
     <use xlink:href="#DejaVuSans-31" transform="translate(65.966797 -16.28125) scale(0.7)"/>
     <use xlink:href="#DejaVuSans-28" transform="translate(113.237305 0.125)"/>
     <use xlink:href="#DejaVuSans-Oblique-78" transform="translate(152.250977 0.125)"/>
     <use xlink:href="#DejaVuSans-29" transform="translate(211.430664 0.125)"/>
    </g>
   </g>
   <g id="text_7">
    <!-- $E_1$ -->
    <g transform="translate(446.683636 326.056533) scale(0.16 -0.16)">
     <use xlink:href="#DejaVuSans-Oblique-45" transform="translate(0 0.09375)"/>
     <use xlink:href="#DejaVuSans-31" transform="translate(63.183594 -16.3125) scale(0.7)"/>
    </g>
   </g>
   <g id="text_8">
    <!-- $\hbar\omega_0$ -->
    <g transform="translate(57.752727 464.4736) scale(0.16 -0.16)">
     <use xlink:href="#DejaVuSans-Oblique-127" transform="translate(0 0.015625)"/>
     <use xlink:href="#DejaVuSans-Oblique-3c9" transform="translate(69.482422 0.015625)"/>
     <use xlink:href="#DejaVuSans-30" transform="translate(153.222656 -16.390625) scale(0.7)"/>
    </g>
   </g>
   <g id="patch_8">
    <path d="M 102.109091 546.53695 
Q 102.109091 443.178947 102.109091 339.820944 
" style="fill: none; stroke: #000000; stroke-linecap: round"/>
    <path d="M 105.309091 540.13695 
L 102.109091 546.53695 
L 98.909091 540.13695 
" style="fill: none; stroke: #000000; stroke-linecap: round"/>
    <path d="M 98.909091 346.220944 
L 102.109091 339.820944 
L 105.309091 346.220944 
" style="fill: none; stroke: #000000; stroke-linecap: round"/>
   </g>
   <g id="text_9">
    <!-- $\psi_2 (x)$ -->
    <g transform="translate(788.938182 102.459733) scale(0.16 -0.16)">
     <use xlink:href="#DejaVuSans-Oblique-3c8" transform="translate(0 0.125)"/>
     <use xlink:href="#DejaVuSans-32" transform="translate(65.966797 -16.28125) scale(0.7)"/>
     <use xlink:href="#DejaVuSans-28" transform="translate(113.237305 0.125)"/>
     <use xlink:href="#DejaVuSans-Oblique-78" transform="translate(152.250977 0.125)"/>
     <use xlink:href="#DejaVuSans-29" transform="translate(211.430664 0.125)"/>
    </g>
   </g>
   <g id="text_10">
    <!-- $E_2$ -->
    <g transform="translate(446.683636 113.1072) scale(0.16 -0.16)">
     <use xlink:href="#DejaVuSans-Oblique-45" transform="translate(0 0.09375)"/>
     <use xlink:href="#DejaVuSans-32" transform="translate(63.183594 -16.3125) scale(0.7)"/>
    </g>
   </g>
  </g>
 </g>
 <defs>
  <clipPath id="p0e383b0bfd">
   <rect x="17.28" y="17.28" width="829.44" height="638.848"/>
  </clipPath>
 </defs>
</svg>
