<?xml version="1.0" encoding="utf-8" standalone="no"?>
<!DOCTYPE svg PUBLIC "-//W3C//DTD SVG 1.1//EN"
  "http://www.w3.org/Graphics/SVG/1.1/DTD/svg11.dtd">
<svg xmlns:xlink="http://www.w3.org/1999/xlink" width="630.83pt" height="471.539pt" viewBox="0 0 630.83 471.539" xmlns="http://www.w3.org/2000/svg" version="1.1">
 <metadata>
  <rdf:RDF xmlns:dc="http://purl.org/dc/elements/1.1/" xmlns:cc="http://creativecommons.org/ns#" xmlns:rdf="http://www.w3.org/1999/02/22-rdf-syntax-ns#">
   <cc:Work>
    <dc:type rdf:resource="http://purl.org/dc/dcmitype/StillImage"/>
    <dc:date>2024-08-08T14:13:21.429636</dc:date>
    <dc:format>image/svg+xml</dc:format>
    <dc:creator>
     <cc:Agent>
      <dc:title>Matplotlib v3.7.1, https://matplotlib.org/</dc:title>
     </cc:Agent>
    </dc:creator>
   </cc:Work>
  </rdf:RDF>
 </metadata>
 <defs>
  <style type="text/css">*{stroke-linejoin: round; stroke-linecap: butt}</style>
 </defs>
 <g id="figure_1">
  <g id="patch_1">
   <path d="M -0 471.539 
L 630.83 471.539 
L 630.83 0 
L -0 0 
z
" style="fill: #ffffff"/>
  </g>
  <g id="axes_1">
   <g id="patch_2">
    <path d="M 65.63 415.869 
L 623.63 415.869 
L 623.63 27.789 
L 65.63 27.789 
z
" style="fill: #ffffff"/>
   </g>
   <g id="matplotlib.axis_1">
    <g id="xtick_1">
     <g id="line2d_1">
      <defs>
       <path id="m4fa1ca9f68" d="M 0 0 
L 0 10 
" style="stroke: #000000; stroke-width: 2.5"/>
      </defs>
      <g>
       <use xlink:href="#m4fa1ca9f68" x="90.993636" y="415.869" style="stroke: #000000; stroke-width: 2.5"/>
      </g>
     </g>
     <g id="text_1">
      <!-- 0.0 -->
      <g transform="translate(78.271136 441.5265) scale(0.16 -0.16)">
       <defs>
        <path id="DejaVuSans-30" d="M 2034 4250 
Q 1547 4250 1301 3770 
Q 1056 3291 1056 2328 
Q 1056 1369 1301 889 
Q 1547 409 2034 409 
Q 2525 409 2770 889 
Q 3016 1369 3016 2328 
Q 3016 3291 2770 3770 
Q 2525 4250 2034 4250 
z
M 2034 4750 
Q 2819 4750 3233 4129 
Q 3647 3509 3647 2328 
Q 3647 1150 3233 529 
Q 2819 -91 2034 -91 
Q 1250 -91 836 529 
Q 422 1150 422 2328 
Q 422 3509 836 4129 
Q 1250 4750 2034 4750 
z
" transform="scale(0.015625)"/>
        <path id="DejaVuSans-2e" d="M 684 794 
L 1344 794 
L 1344 0 
L 684 0 
L 684 794 
z
" transform="scale(0.015625)"/>
       </defs>
       <use xlink:href="#DejaVuSans-30"/>
       <use xlink:href="#DejaVuSans-2e" x="63.623047"/>
       <use xlink:href="#DejaVuSans-30" x="95.410156"/>
      </g>
     </g>
    </g>
    <g id="xtick_2">
     <g id="line2d_2">
      <g>
       <use xlink:href="#m4fa1ca9f68" x="154.402727" y="415.869" style="stroke: #000000; stroke-width: 2.5"/>
      </g>
     </g>
     <g id="text_2">
      <!-- 0.5 -->
      <g transform="translate(141.680227 441.5265) scale(0.16 -0.16)">
       <defs>
        <path id="DejaVuSans-35" d="M 691 4666 
L 3169 4666 
L 3169 4134 
L 1269 4134 
L 1269 2991 
Q 1406 3038 1543 3061 
Q 1681 3084 1819 3084 
Q 2600 3084 3056 2656 
Q 3513 2228 3513 1497 
Q 3513 744 3044 326 
Q 2575 -91 1722 -91 
Q 1428 -91 1123 -41 
Q 819 9 494 109 
L 494 744 
Q 775 591 1075 516 
Q 1375 441 1709 441 
Q 2250 441 2565 725 
Q 2881 1009 2881 1497 
Q 2881 1984 2565 2268 
Q 2250 2553 1709 2553 
Q 1456 2553 1204 2497 
Q 953 2441 691 2322 
L 691 4666 
z
" transform="scale(0.015625)"/>
       </defs>
       <use xlink:href="#DejaVuSans-30"/>
       <use xlink:href="#DejaVuSans-2e" x="63.623047"/>
       <use xlink:href="#DejaVuSans-35" x="95.410156"/>
      </g>
     </g>
    </g>
    <g id="xtick_3">
     <g id="line2d_3">
      <g>
       <use xlink:href="#m4fa1ca9f68" x="217.811818" y="415.869" style="stroke: #000000; stroke-width: 2.5"/>
      </g>
     </g>
     <g id="text_3">
      <!-- 1.0 -->
      <g transform="translate(205.089318 441.5265) scale(0.16 -0.16)">
       <defs>
        <path id="DejaVuSans-31" d="M 794 531 
L 1825 531 
L 1825 4091 
L 703 3866 
L 703 4441 
L 1819 4666 
L 2450 4666 
L 2450 531 
L 3481 531 
L 3481 0 
L 794 0 
L 794 531 
z
" transform="scale(0.015625)"/>
       </defs>
       <use xlink:href="#DejaVuSans-31"/>
       <use xlink:href="#DejaVuSans-2e" x="63.623047"/>
       <use xlink:href="#DejaVuSans-30" x="95.410156"/>
      </g>
     </g>
    </g>
    <g id="xtick_4">
     <g id="line2d_4">
      <g>
       <use xlink:href="#m4fa1ca9f68" x="281.220909" y="415.869" style="stroke: #000000; stroke-width: 2.5"/>
      </g>
     </g>
     <g id="text_4">
      <!-- 1.5 -->
      <g transform="translate(268.498409 441.5265) scale(0.16 -0.16)">
       <use xlink:href="#DejaVuSans-31"/>
       <use xlink:href="#DejaVuSans-2e" x="63.623047"/>
       <use xlink:href="#DejaVuSans-35" x="95.410156"/>
      </g>
     </g>
    </g>
    <g id="xtick_5">
     <g id="line2d_5">
      <g>
       <use xlink:href="#m4fa1ca9f68" x="344.63" y="415.869" style="stroke: #000000; stroke-width: 2.5"/>
      </g>
     </g>
     <g id="text_5">
      <!-- 2.0 -->
      <g transform="translate(331.9075 441.5265) scale(0.16 -0.16)">
       <defs>
        <path id="DejaVuSans-32" d="M 1228 531 
L 3431 531 
L 3431 0 
L 469 0 
L 469 531 
Q 828 903 1448 1529 
Q 2069 2156 2228 2338 
Q 2531 2678 2651 2914 
Q 2772 3150 2772 3378 
Q 2772 3750 2511 3984 
Q 2250 4219 1831 4219 
Q 1534 4219 1204 4116 
Q 875 4013 500 3803 
L 500 4441 
Q 881 4594 1212 4672 
Q 1544 4750 1819 4750 
Q 2544 4750 2975 4387 
Q 3406 4025 3406 3419 
Q 3406 3131 3298 2873 
Q 3191 2616 2906 2266 
Q 2828 2175 2409 1742 
Q 1991 1309 1228 531 
z
" transform="scale(0.015625)"/>
       </defs>
       <use xlink:href="#DejaVuSans-32"/>
       <use xlink:href="#DejaVuSans-2e" x="63.623047"/>
       <use xlink:href="#DejaVuSans-30" x="95.410156"/>
      </g>
     </g>
    </g>
    <g id="xtick_6">
     <g id="line2d_6">
      <g>
       <use xlink:href="#m4fa1ca9f68" x="408.039091" y="415.869" style="stroke: #000000; stroke-width: 2.5"/>
      </g>
     </g>
     <g id="text_6">
      <!-- 2.5 -->
      <g transform="translate(395.316591 441.5265) scale(0.16 -0.16)">
       <use xlink:href="#DejaVuSans-32"/>
       <use xlink:href="#DejaVuSans-2e" x="63.623047"/>
       <use xlink:href="#DejaVuSans-35" x="95.410156"/>
      </g>
     </g>
    </g>
    <g id="xtick_7">
     <g id="line2d_7">
      <g>
       <use xlink:href="#m4fa1ca9f68" x="471.448182" y="415.869" style="stroke: #000000; stroke-width: 2.5"/>
      </g>
     </g>
     <g id="text_7">
      <!-- 3.0 -->
      <g transform="translate(458.725682 441.5265) scale(0.16 -0.16)">
       <defs>
        <path id="DejaVuSans-33" d="M 2597 2516 
Q 3050 2419 3304 2112 
Q 3559 1806 3559 1356 
Q 3559 666 3084 287 
Q 2609 -91 1734 -91 
Q 1441 -91 1130 -33 
Q 819 25 488 141 
L 488 750 
Q 750 597 1062 519 
Q 1375 441 1716 441 
Q 2309 441 2620 675 
Q 2931 909 2931 1356 
Q 2931 1769 2642 2001 
Q 2353 2234 1838 2234 
L 1294 2234 
L 1294 2753 
L 1863 2753 
Q 2328 2753 2575 2939 
Q 2822 3125 2822 3475 
Q 2822 3834 2567 4026 
Q 2313 4219 1838 4219 
Q 1578 4219 1281 4162 
Q 984 4106 628 3988 
L 628 4550 
Q 988 4650 1302 4700 
Q 1616 4750 1894 4750 
Q 2613 4750 3031 4423 
Q 3450 4097 3450 3541 
Q 3450 3153 3228 2886 
Q 3006 2619 2597 2516 
z
" transform="scale(0.015625)"/>
       </defs>
       <use xlink:href="#DejaVuSans-33"/>
       <use xlink:href="#DejaVuSans-2e" x="63.623047"/>
       <use xlink:href="#DejaVuSans-30" x="95.410156"/>
      </g>
     </g>
    </g>
    <g id="xtick_8">
     <g id="line2d_8">
      <g>
       <use xlink:href="#m4fa1ca9f68" x="534.857273" y="415.869" style="stroke: #000000; stroke-width: 2.5"/>
      </g>
     </g>
     <g id="text_8">
      <!-- 3.5 -->
      <g transform="translate(522.134773 441.5265) scale(0.16 -0.16)">
       <use xlink:href="#DejaVuSans-33"/>
       <use xlink:href="#DejaVuSans-2e" x="63.623047"/>
       <use xlink:href="#DejaVuSans-35" x="95.410156"/>
      </g>
     </g>
    </g>
    <g id="xtick_9">
     <g id="line2d_9">
      <g>
       <use xlink:href="#m4fa1ca9f68" x="598.266364" y="415.869" style="stroke: #000000; stroke-width: 2.5"/>
      </g>
     </g>
     <g id="text_9">
      <!-- 4.0 -->
      <g transform="translate(585.543864 441.5265) scale(0.16 -0.16)">
       <defs>
        <path id="DejaVuSans-34" d="M 2419 4116 
L 825 1625 
L 2419 1625 
L 2419 4116 
z
M 2253 4666 
L 3047 4666 
L 3047 1625 
L 3713 1625 
L 3713 1100 
L 3047 1100 
L 3047 0 
L 2419 0 
L 2419 1100 
L 313 1100 
L 313 1709 
L 2253 4666 
z
" transform="scale(0.015625)"/>
       </defs>
       <use xlink:href="#DejaVuSans-34"/>
       <use xlink:href="#DejaVuSans-2e" x="63.623047"/>
       <use xlink:href="#DejaVuSans-30" x="95.410156"/>
      </g>
     </g>
    </g>
    <g id="text_10">
     <!-- Time [$2\pi/\Omega$] -->
     <g transform="translate(297.27 461.0115) scale(0.16 -0.16)">
      <defs>
       <path id="DejaVuSans-54" d="M -19 4666 
L 3928 4666 
L 3928 4134 
L 2272 4134 
L 2272 0 
L 1638 0 
L 1638 4134 
L -19 4134 
L -19 4666 
z
" transform="scale(0.015625)"/>
       <path id="DejaVuSans-69" d="M 603 3500 
L 1178 3500 
L 1178 0 
L 603 0 
L 603 3500 
z
M 603 4863 
L 1178 4863 
L 1178 4134 
L 603 4134 
L 603 4863 
z
" transform="scale(0.015625)"/>
       <path id="DejaVuSans-6d" d="M 3328 2828 
Q 3544 3216 3844 3400 
Q 4144 3584 4550 3584 
Q 5097 3584 5394 3201 
Q 5691 2819 5691 2113 
L 5691 0 
L 5113 0 
L 5113 2094 
Q 5113 2597 4934 2840 
Q 4756 3084 4391 3084 
Q 3944 3084 3684 2787 
Q 3425 2491 3425 1978 
L 3425 0 
L 2847 0 
L 2847 2094 
Q 2847 2600 2669 2842 
Q 2491 3084 2119 3084 
Q 1678 3084 1418 2786 
Q 1159 2488 1159 1978 
L 1159 0 
L 581 0 
L 581 3500 
L 1159 3500 
L 1159 2956 
Q 1356 3278 1631 3431 
Q 1906 3584 2284 3584 
Q 2666 3584 2933 3390 
Q 3200 3197 3328 2828 
z
" transform="scale(0.015625)"/>
       <path id="DejaVuSans-65" d="M 3597 1894 
L 3597 1613 
L 953 1613 
Q 991 1019 1311 708 
Q 1631 397 2203 397 
Q 2534 397 2845 478 
Q 3156 559 3463 722 
L 3463 178 
Q 3153 47 2828 -22 
Q 2503 -91 2169 -91 
Q 1331 -91 842 396 
Q 353 884 353 1716 
Q 353 2575 817 3079 
Q 1281 3584 2069 3584 
Q 2775 3584 3186 3129 
Q 3597 2675 3597 1894 
z
M 3022 2063 
Q 3016 2534 2758 2815 
Q 2500 3097 2075 3097 
Q 1594 3097 1305 2825 
Q 1016 2553 972 2059 
L 3022 2063 
z
" transform="scale(0.015625)"/>
       <path id="DejaVuSans-20" transform="scale(0.015625)"/>
       <path id="DejaVuSans-5b" d="M 550 4863 
L 1875 4863 
L 1875 4416 
L 1125 4416 
L 1125 -397 
L 1875 -397 
L 1875 -844 
L 550 -844 
L 550 4863 
z
" transform="scale(0.015625)"/>
       <path id="DejaVuSans-Oblique-3c0" d="M 584 3500 
L 3938 3500 
L 3825 2925 
L 3384 2925 
L 2966 775 
Q 2922 550 2981 450 
Q 3038 353 3209 353 
Q 3256 353 3325 363 
Q 3397 369 3419 372 
L 3338 -44 
Q 3222 -84 3103 -103 
Q 2981 -122 2866 -122 
Q 2491 -122 2388 81 
Q 2284 288 2391 838 
L 2797 2925 
L 1506 2925 
L 938 0 
L 350 0 
L 919 2925 
L 472 2925 
L 584 3500 
z
" transform="scale(0.015625)"/>
       <path id="DejaVuSans-2f" d="M 1625 4666 
L 2156 4666 
L 531 -594 
L 0 -594 
L 1625 4666 
z
" transform="scale(0.015625)"/>
       <path id="DejaVuSans-3a9" d="M 4647 556 
L 4647 0 
L 2772 0 
L 2772 556 
Q 3325 859 3634 1378 
Q 3944 1897 3944 2528 
Q 3944 3278 3531 3731 
Q 3119 4184 2444 4184 
Q 1769 4184 1355 3729 
Q 941 3275 941 2528 
Q 941 1897 1250 1378 
Q 1563 859 2119 556 
L 2119 0 
L 244 0 
L 244 556 
L 1241 556 
Q 747 991 519 1456 
Q 294 1922 294 2497 
Q 294 3491 894 4106 
Q 1491 4722 2444 4722 
Q 3391 4722 3994 4106 
Q 4594 3494 4594 2528 
Q 4594 1922 4372 1459 
Q 4150 997 3647 556 
L 4647 556 
z
" transform="scale(0.015625)"/>
       <path id="DejaVuSans-5d" d="M 1947 4863 
L 1947 -844 
L 622 -844 
L 622 -397 
L 1369 -397 
L 1369 4416 
L 622 4416 
L 622 4863 
L 1947 4863 
z
" transform="scale(0.015625)"/>
      </defs>
      <use xlink:href="#DejaVuSans-54" transform="translate(0 0.015625)"/>
      <use xlink:href="#DejaVuSans-69" transform="translate(61.083984 0.015625)"/>
      <use xlink:href="#DejaVuSans-6d" transform="translate(88.867188 0.015625)"/>
      <use xlink:href="#DejaVuSans-65" transform="translate(186.279297 0.015625)"/>
      <use xlink:href="#DejaVuSans-20" transform="translate(247.802734 0.015625)"/>
      <use xlink:href="#DejaVuSans-5b" transform="translate(279.589844 0.015625)"/>
      <use xlink:href="#DejaVuSans-32" transform="translate(318.603516 0.015625)"/>
      <use xlink:href="#DejaVuSans-Oblique-3c0" transform="translate(382.226562 0.015625)"/>
      <use xlink:href="#DejaVuSans-2f" transform="translate(442.431641 0.015625)"/>
      <use xlink:href="#DejaVuSans-3a9" transform="translate(476.123047 0.015625)"/>
      <use xlink:href="#DejaVuSans-5d" transform="translate(552.539062 0.015625)"/>
     </g>
    </g>
   </g>
   <g id="matplotlib.axis_2">
    <g id="ytick_1">
     <g id="line2d_10">
      <defs>
       <path id="m3cf3995e69" d="M 0 0 
L -10 0 
" style="stroke: #000000; stroke-width: 2.5"/>
      </defs>
      <g>
       <use xlink:href="#m3cf3995e69" x="65.63" y="398.229" style="stroke: #000000; stroke-width: 2.5"/>
      </g>
     </g>
     <g id="text_11">
      <!-- 0.0 -->
      <g transform="translate(26.685 404.30775) scale(0.16 -0.16)">
       <use xlink:href="#DejaVuSans-30"/>
       <use xlink:href="#DejaVuSans-2e" x="63.623047"/>
       <use xlink:href="#DejaVuSans-30" x="95.410156"/>
      </g>
     </g>
    </g>
    <g id="ytick_2">
     <g id="line2d_11">
      <g>
       <use xlink:href="#m3cf3995e69" x="65.63" y="327.669" style="stroke: #000000; stroke-width: 2.5"/>
      </g>
     </g>
     <g id="text_12">
      <!-- 0.2 -->
      <g transform="translate(26.685 333.74775) scale(0.16 -0.16)">
       <use xlink:href="#DejaVuSans-30"/>
       <use xlink:href="#DejaVuSans-2e" x="63.623047"/>
       <use xlink:href="#DejaVuSans-32" x="95.410156"/>
      </g>
     </g>
    </g>
    <g id="ytick_3">
     <g id="line2d_12">
      <g>
       <use xlink:href="#m3cf3995e69" x="65.63" y="257.109" style="stroke: #000000; stroke-width: 2.5"/>
      </g>
     </g>
     <g id="text_13">
      <!-- 0.4 -->
      <g transform="translate(26.685 263.18775) scale(0.16 -0.16)">
       <use xlink:href="#DejaVuSans-30"/>
       <use xlink:href="#DejaVuSans-2e" x="63.623047"/>
       <use xlink:href="#DejaVuSans-34" x="95.410156"/>
      </g>
     </g>
    </g>
    <g id="ytick_4">
     <g id="line2d_13">
      <g>
       <use xlink:href="#m3cf3995e69" x="65.63" y="186.549" style="stroke: #000000; stroke-width: 2.5"/>
      </g>
     </g>
     <g id="text_14">
      <!-- 0.6 -->
      <g transform="translate(26.685 192.62775) scale(0.16 -0.16)">
       <defs>
        <path id="DejaVuSans-36" d="M 2113 2584 
Q 1688 2584 1439 2293 
Q 1191 2003 1191 1497 
Q 1191 994 1439 701 
Q 1688 409 2113 409 
Q 2538 409 2786 701 
Q 3034 994 3034 1497 
Q 3034 2003 2786 2293 
Q 2538 2584 2113 2584 
z
M 3366 4563 
L 3366 3988 
Q 3128 4100 2886 4159 
Q 2644 4219 2406 4219 
Q 1781 4219 1451 3797 
Q 1122 3375 1075 2522 
Q 1259 2794 1537 2939 
Q 1816 3084 2150 3084 
Q 2853 3084 3261 2657 
Q 3669 2231 3669 1497 
Q 3669 778 3244 343 
Q 2819 -91 2113 -91 
Q 1303 -91 875 529 
Q 447 1150 447 2328 
Q 447 3434 972 4092 
Q 1497 4750 2381 4750 
Q 2619 4750 2861 4703 
Q 3103 4656 3366 4563 
z
" transform="scale(0.015625)"/>
       </defs>
       <use xlink:href="#DejaVuSans-30"/>
       <use xlink:href="#DejaVuSans-2e" x="63.623047"/>
       <use xlink:href="#DejaVuSans-36" x="95.410156"/>
      </g>
     </g>
    </g>
    <g id="ytick_5">
     <g id="line2d_14">
      <g>
       <use xlink:href="#m3cf3995e69" x="65.63" y="115.989" style="stroke: #000000; stroke-width: 2.5"/>
      </g>
     </g>
     <g id="text_15">
      <!-- 0.8 -->
      <g transform="translate(26.685 122.06775) scale(0.16 -0.16)">
       <defs>
        <path id="DejaVuSans-38" d="M 2034 2216 
Q 1584 2216 1326 1975 
Q 1069 1734 1069 1313 
Q 1069 891 1326 650 
Q 1584 409 2034 409 
Q 2484 409 2743 651 
Q 3003 894 3003 1313 
Q 3003 1734 2745 1975 
Q 2488 2216 2034 2216 
z
M 1403 2484 
Q 997 2584 770 2862 
Q 544 3141 544 3541 
Q 544 4100 942 4425 
Q 1341 4750 2034 4750 
Q 2731 4750 3128 4425 
Q 3525 4100 3525 3541 
Q 3525 3141 3298 2862 
Q 3072 2584 2669 2484 
Q 3125 2378 3379 2068 
Q 3634 1759 3634 1313 
Q 3634 634 3220 271 
Q 2806 -91 2034 -91 
Q 1263 -91 848 271 
Q 434 634 434 1313 
Q 434 1759 690 2068 
Q 947 2378 1403 2484 
z
M 1172 3481 
Q 1172 3119 1398 2916 
Q 1625 2713 2034 2713 
Q 2441 2713 2670 2916 
Q 2900 3119 2900 3481 
Q 2900 3844 2670 4047 
Q 2441 4250 2034 4250 
Q 1625 4250 1398 4047 
Q 1172 3844 1172 3481 
z
" transform="scale(0.015625)"/>
       </defs>
       <use xlink:href="#DejaVuSans-30"/>
       <use xlink:href="#DejaVuSans-2e" x="63.623047"/>
       <use xlink:href="#DejaVuSans-38" x="95.410156"/>
      </g>
     </g>
    </g>
    <g id="ytick_6">
     <g id="line2d_15">
      <g>
       <use xlink:href="#m3cf3995e69" x="65.63" y="45.429" style="stroke: #000000; stroke-width: 2.5"/>
      </g>
     </g>
     <g id="text_16">
      <!-- 1.0 -->
      <g transform="translate(26.685 51.50775) scale(0.16 -0.16)">
       <use xlink:href="#DejaVuSans-31"/>
       <use xlink:href="#DejaVuSans-2e" x="63.623047"/>
       <use xlink:href="#DejaVuSans-30" x="95.410156"/>
      </g>
     </g>
    </g>
    <g id="text_17">
     <!-- Population -->
     <g transform="translate(19.3575 263.85525) rotate(-90) scale(0.16 -0.16)">
      <defs>
       <path id="DejaVuSans-50" d="M 1259 4147 
L 1259 2394 
L 2053 2394 
Q 2494 2394 2734 2622 
Q 2975 2850 2975 3272 
Q 2975 3691 2734 3919 
Q 2494 4147 2053 4147 
L 1259 4147 
z
M 628 4666 
L 2053 4666 
Q 2838 4666 3239 4311 
Q 3641 3956 3641 3272 
Q 3641 2581 3239 2228 
Q 2838 1875 2053 1875 
L 1259 1875 
L 1259 0 
L 628 0 
L 628 4666 
z
" transform="scale(0.015625)"/>
       <path id="DejaVuSans-6f" d="M 1959 3097 
Q 1497 3097 1228 2736 
Q 959 2375 959 1747 
Q 959 1119 1226 758 
Q 1494 397 1959 397 
Q 2419 397 2687 759 
Q 2956 1122 2956 1747 
Q 2956 2369 2687 2733 
Q 2419 3097 1959 3097 
z
M 1959 3584 
Q 2709 3584 3137 3096 
Q 3566 2609 3566 1747 
Q 3566 888 3137 398 
Q 2709 -91 1959 -91 
Q 1206 -91 779 398 
Q 353 888 353 1747 
Q 353 2609 779 3096 
Q 1206 3584 1959 3584 
z
" transform="scale(0.015625)"/>
       <path id="DejaVuSans-70" d="M 1159 525 
L 1159 -1331 
L 581 -1331 
L 581 3500 
L 1159 3500 
L 1159 2969 
Q 1341 3281 1617 3432 
Q 1894 3584 2278 3584 
Q 2916 3584 3314 3078 
Q 3713 2572 3713 1747 
Q 3713 922 3314 415 
Q 2916 -91 2278 -91 
Q 1894 -91 1617 61 
Q 1341 213 1159 525 
z
M 3116 1747 
Q 3116 2381 2855 2742 
Q 2594 3103 2138 3103 
Q 1681 3103 1420 2742 
Q 1159 2381 1159 1747 
Q 1159 1113 1420 752 
Q 1681 391 2138 391 
Q 2594 391 2855 752 
Q 3116 1113 3116 1747 
z
" transform="scale(0.015625)"/>
       <path id="DejaVuSans-75" d="M 544 1381 
L 544 3500 
L 1119 3500 
L 1119 1403 
Q 1119 906 1312 657 
Q 1506 409 1894 409 
Q 2359 409 2629 706 
Q 2900 1003 2900 1516 
L 2900 3500 
L 3475 3500 
L 3475 0 
L 2900 0 
L 2900 538 
Q 2691 219 2414 64 
Q 2138 -91 1772 -91 
Q 1169 -91 856 284 
Q 544 659 544 1381 
z
M 1991 3584 
L 1991 3584 
z
" transform="scale(0.015625)"/>
       <path id="DejaVuSans-6c" d="M 603 4863 
L 1178 4863 
L 1178 0 
L 603 0 
L 603 4863 
z
" transform="scale(0.015625)"/>
       <path id="DejaVuSans-61" d="M 2194 1759 
Q 1497 1759 1228 1600 
Q 959 1441 959 1056 
Q 959 750 1161 570 
Q 1363 391 1709 391 
Q 2188 391 2477 730 
Q 2766 1069 2766 1631 
L 2766 1759 
L 2194 1759 
z
M 3341 1997 
L 3341 0 
L 2766 0 
L 2766 531 
Q 2569 213 2275 61 
Q 1981 -91 1556 -91 
Q 1019 -91 701 211 
Q 384 513 384 1019 
Q 384 1609 779 1909 
Q 1175 2209 1959 2209 
L 2766 2209 
L 2766 2266 
Q 2766 2663 2505 2880 
Q 2244 3097 1772 3097 
Q 1472 3097 1187 3025 
Q 903 2953 641 2809 
L 641 3341 
Q 956 3463 1253 3523 
Q 1550 3584 1831 3584 
Q 2591 3584 2966 3190 
Q 3341 2797 3341 1997 
z
" transform="scale(0.015625)"/>
       <path id="DejaVuSans-74" d="M 1172 4494 
L 1172 3500 
L 2356 3500 
L 2356 3053 
L 1172 3053 
L 1172 1153 
Q 1172 725 1289 603 
Q 1406 481 1766 481 
L 2356 481 
L 2356 0 
L 1766 0 
Q 1100 0 847 248 
Q 594 497 594 1153 
L 594 3053 
L 172 3053 
L 172 3500 
L 594 3500 
L 594 4494 
L 1172 4494 
z
" transform="scale(0.015625)"/>
       <path id="DejaVuSans-6e" d="M 3513 2113 
L 3513 0 
L 2938 0 
L 2938 2094 
Q 2938 2591 2744 2837 
Q 2550 3084 2163 3084 
Q 1697 3084 1428 2787 
Q 1159 2491 1159 1978 
L 1159 0 
L 581 0 
L 581 3500 
L 1159 3500 
L 1159 2956 
Q 1366 3272 1645 3428 
Q 1925 3584 2291 3584 
Q 2894 3584 3203 3211 
Q 3513 2838 3513 2113 
z
" transform="scale(0.015625)"/>
      </defs>
      <use xlink:href="#DejaVuSans-50"/>
      <use xlink:href="#DejaVuSans-6f" x="56.677734"/>
      <use xlink:href="#DejaVuSans-70" x="117.859375"/>
      <use xlink:href="#DejaVuSans-75" x="181.335938"/>
      <use xlink:href="#DejaVuSans-6c" x="244.714844"/>
      <use xlink:href="#DejaVuSans-61" x="272.498047"/>
      <use xlink:href="#DejaVuSans-74" x="333.777344"/>
      <use xlink:href="#DejaVuSans-69" x="372.986328"/>
      <use xlink:href="#DejaVuSans-6f" x="400.769531"/>
      <use xlink:href="#DejaVuSans-6e" x="461.951172"/>
     </g>
    </g>
   </g>
   <g id="line2d_16">
    <path d="M 90.993636 45.429 
L 92.010215 45.652695 
L 93.026794 46.323211 
L 94.043372 47.438848 
L 95.059951 48.996778 
L 96.076529 50.993047 
L 97.093108 53.422594 
L 98.109687 56.279257 
L 99.126265 59.55579 
L 101.159422 67.334184 
L 103.19258 76.678915 
L 105.225737 87.495242 
L 107.258894 99.673505 
L 109.292051 113.090234 
L 112.341787 135.236803 
L 115.391523 159.356583 
L 119.457837 193.630831 
L 129.623624 281.174671 
L 132.673359 305.503246 
L 135.723095 327.925102 
L 137.756253 341.559257 
L 139.78941 353.979534 
L 141.822567 365.060009 
L 143.855724 374.688345 
L 145.888881 382.766925 
L 146.90546 386.198823 
L 147.922039 389.213844 
L 148.938617 391.80434 
L 149.955196 393.963742 
L 150.971774 395.686571 
L 151.988353 396.96846 
L 153.004932 397.806157 
L 154.02151 398.197537 
L 155.038089 398.141608 
L 156.054668 397.638511 
L 157.071246 396.689523 
L 158.087825 395.297051 
L 159.104403 393.464625 
L 160.120982 391.196893 
L 161.137561 388.499608 
L 162.154139 385.379609 
L 163.170718 381.84481 
L 165.203875 373.567701 
L 167.237032 363.752197 
L 169.270189 352.497813 
L 171.303347 339.91865 
L 173.336504 326.142241 
L 176.38624 303.541298 
L 179.435976 279.078343 
L 183.50229 244.532635 
L 192.651498 165.631245 
L 195.701233 141.102554 
L 198.750969 118.413408 
L 200.784126 104.566691 
L 202.817284 91.908831 
L 204.850441 80.56816 
L 206.883598 70.659654 
L 208.916755 62.28377 
L 209.933334 58.69773 
L 210.949913 55.525427 
L 211.966491 52.774906 
L 212.98307 50.453143 
L 213.999648 48.566027 
L 215.016227 47.118344 
L 216.032806 46.113766 
L 217.049384 45.55484 
L 218.065963 45.442984 
L 219.082541 45.778481 
L 220.09912 46.560481 
L 221.115699 47.787001 
L 222.132277 49.454929 
L 223.148856 51.560036 
L 224.165435 54.096982 
L 225.182013 57.059334 
L 226.198592 60.439577 
L 228.231749 68.41841 
L 230.264906 77.952588 
L 232.298063 88.945448 
L 234.331221 101.285542 
L 236.364378 114.847758 
L 239.414114 137.178736 
L 242.46385 161.438673 
L 246.530164 195.825596 
L 256.69595 283.26159 
L 259.745686 307.451927 
L 262.795422 329.691142 
L 264.828579 343.180882 
L 266.861736 355.440303 
L 268.894893 366.345113 
L 270.928051 375.784754 
L 272.961208 383.663524 
L 273.977786 386.991978 
L 274.994365 389.901543 
L 276.010944 392.384838 
L 277.027522 394.435567 
L 278.044101 396.048528 
L 279.06068 397.21963 
L 280.077258 397.945902 
L 281.093837 398.225504 
L 282.110415 398.057725 
L 283.126994 397.442992 
L 284.143573 396.382863 
L 285.160151 394.880027 
L 286.17673 392.938296 
L 287.193308 390.562594 
L 288.209887 387.758947 
L 289.226466 384.534464 
L 291.259623 376.856754 
L 293.29278 367.607304 
L 295.325937 356.879889 
L 297.359095 344.783267 
L 299.392252 331.44008 
L 302.441988 309.387034 
L 305.491723 285.338769 
L 309.558038 251.122897 
L 320.740403 155.222445 
L 323.790138 131.39443 
L 326.839874 109.627182 
L 328.873032 96.507785 
L 330.906189 84.65895 
L 332.939346 74.200806 
L 334.972503 65.239383 
L 337.00566 57.865534 
L 338.022239 54.797964 
L 339.038818 52.154021 
L 340.055396 49.94041 
L 341.071975 48.162747 
L 342.088553 46.82554 
L 343.105132 45.93218 
L 344.121711 45.484933 
L 345.138289 45.484933 
L 346.154868 45.93218 
L 347.171447 46.82554 
L 348.188025 48.162747 
L 349.204604 49.94041 
L 350.221182 52.154021 
L 351.237761 54.797964 
L 352.25434 57.865534 
L 353.270918 61.348952 
L 355.304075 69.526959 
L 357.337233 79.249071 
L 359.37039 90.416722 
L 361.403547 102.91669 
L 363.436704 116.622243 
L 366.48644 139.134089 
L 369.536176 163.530337 
L 373.60249 198.024484 
L 382.751698 276.972939 
L 385.801434 301.566395 
L 388.85117 324.342843 
L 390.884327 338.25932 
L 392.917484 350.995375 
L 394.950641 362.421884 
L 396.983799 372.422999 
L 399.016956 380.897326 
L 401.050113 387.758947 
L 402.066692 390.562594 
L 403.08327 392.938296 
L 404.099849 394.880027 
L 405.116427 396.382863 
L 406.133006 397.442992 
L 407.149585 398.057725 
L 408.166163 398.225504 
L 409.182742 397.945902 
L 410.19932 397.21963 
L 411.215899 396.048528 
L 412.232478 394.435567 
L 413.249056 392.384838 
L 414.265635 389.901543 
L 415.282214 386.991978 
L 416.298792 383.663524 
L 418.331949 375.784754 
L 420.365107 366.345113 
L 422.398264 355.440303 
L 424.431421 343.180882 
L 426.464578 329.691142 
L 429.514314 307.451927 
L 432.56405 283.26159 
L 436.630364 248.930324 
L 446.79615 161.438673 
L 449.845886 137.178736 
L 452.895622 114.847758 
L 454.928779 101.285542 
L 456.961937 88.945448 
L 458.995094 77.952588 
L 461.028251 68.41841 
L 463.061408 60.439577 
L 464.077987 57.059334 
L 465.094565 54.096982 
L 466.111144 51.560036 
L 467.127723 49.454929 
L 468.144301 47.787001 
L 469.16088 46.560481 
L 470.177459 45.778481 
L 471.194037 45.442984 
L 472.210616 45.55484 
L 473.227194 46.113766 
L 474.243773 47.118344 
L 475.260352 48.566027 
L 476.27693 50.453143 
L 477.293509 52.774906 
L 478.310087 55.525427 
L 479.326666 58.69773 
L 481.359823 66.274452 
L 483.392981 75.428255 
L 485.426138 86.066334 
L 487.459295 98.080835 
L 489.492452 111.34995 
L 492.542188 133.308599 
L 495.591924 157.284397 
L 499.658238 191.440536 
L 510.840603 287.405878 
L 513.890339 311.308259 
L 516.940075 333.17164 
L 518.973232 346.366158 
L 521.006389 358.298063 
L 523.039546 368.846383 
L 525.072704 377.904176 
L 527.105861 385.379609 
L 528.122439 388.499608 
L 529.139018 391.196893 
L 530.155597 393.464625 
L 531.172175 395.297051 
L 532.188754 396.689523 
L 533.205332 397.638511 
L 534.221911 398.141608 
L 535.23849 398.197537 
L 536.255068 397.806157 
L 537.271647 396.96846 
L 538.288226 395.686571 
L 539.304804 393.963742 
L 540.321383 391.80434 
L 541.337961 389.213844 
L 542.35454 386.198823 
L 543.371119 382.766925 
L 545.404276 374.688345 
L 547.437433 365.060009 
L 549.47059 353.979534 
L 551.503747 341.559257 
L 553.536905 327.925102 
L 556.586641 305.503246 
L 559.636376 281.174671 
L 563.702691 246.733454 
L 573.868477 159.356583 
L 576.918213 135.236803 
L 579.967949 113.090234 
L 582.001106 99.673505 
L 584.034263 87.495242 
L 586.06742 76.678915 
L 588.100578 67.334184 
L 590.133735 59.55579 
L 591.150313 56.279257 
L 592.166892 53.422594 
L 593.183471 50.993047 
L 594.200049 48.996778 
L 595.216628 47.438848 
L 596.233206 46.323211 
L 597.249785 45.652695 
L 598.266364 45.429 
L 598.266364 45.429 
" clip-path="url(#pa0ff1efe2e)" style="fill: none; stroke: #1f77b4; stroke-width: 1.5; stroke-linecap: square"/>
   </g>
   <g id="line2d_17">
    <path d="M 90.993636 398.229 
L 92.010215 398.005305 
L 93.026794 397.334789 
L 94.043372 396.219152 
L 95.059951 394.661222 
L 96.076529 392.664953 
L 97.093108 390.235406 
L 98.109687 387.378743 
L 99.126265 384.10221 
L 101.159422 376.323816 
L 103.19258 366.979085 
L 105.225737 356.162758 
L 107.258894 343.984495 
L 109.292051 330.567766 
L 112.341787 308.421197 
L 115.391523 284.301417 
L 119.457837 250.027169 
L 129.623624 162.483329 
L 132.673359 138.154754 
L 135.723095 115.732898 
L 137.756253 102.098743 
L 139.78941 89.678466 
L 141.822567 78.597991 
L 143.855724 68.969655 
L 145.888881 60.891075 
L 146.90546 57.459177 
L 147.922039 54.444156 
L 148.938617 51.85366 
L 149.955196 49.694258 
L 150.971774 47.971429 
L 151.988353 46.68954 
L 153.004932 45.851843 
L 154.02151 45.460463 
L 155.038089 45.516392 
L 156.054668 46.019489 
L 157.071246 46.968477 
L 158.087825 48.360949 
L 159.104403 50.193375 
L 160.120982 52.461107 
L 161.137561 55.158392 
L 162.154139 58.278391 
L 163.170718 61.81319 
L 165.203875 70.090299 
L 167.237032 79.905803 
L 169.270189 91.160187 
L 171.303347 103.73935 
L 173.336504 117.515759 
L 176.38624 140.116702 
L 179.435976 164.579657 
L 183.50229 199.125365 
L 192.651498 278.026755 
L 195.701233 302.555446 
L 198.750969 325.244592 
L 200.784126 339.091309 
L 202.817284 351.749169 
L 204.850441 363.08984 
L 206.883598 372.998346 
L 208.916755 381.37423 
L 209.933334 384.96027 
L 210.949913 388.132573 
L 211.966491 390.883094 
L 212.98307 393.204857 
L 213.999648 395.091973 
L 215.016227 396.539656 
L 216.032806 397.544234 
L 217.049384 398.10316 
L 218.065963 398.215016 
L 219.082541 397.879519 
L 220.09912 397.097519 
L 221.115699 395.870999 
L 222.132277 394.203071 
L 223.148856 392.097964 
L 224.165435 389.561018 
L 225.182013 386.598666 
L 226.198592 383.218423 
L 228.231749 375.23959 
L 230.264906 365.705412 
L 232.298063 354.712552 
L 234.331221 342.372458 
L 236.364378 328.810242 
L 239.414114 306.479264 
L 242.46385 282.219327 
L 246.530164 247.832404 
L 256.69595 160.39641 
L 259.745686 136.206073 
L 262.795422 113.966858 
L 264.828579 100.477118 
L 266.861736 88.217697 
L 268.894893 77.312887 
L 270.928051 67.873246 
L 272.961208 59.994476 
L 273.977786 56.666022 
L 274.994365 53.756457 
L 276.010944 51.273162 
L 277.027522 49.222433 
L 278.044101 47.609472 
L 279.06068 46.43837 
L 280.077258 45.712098 
L 281.093837 45.432496 
L 282.110415 45.600275 
L 283.126994 46.215008 
L 284.143573 47.275137 
L 285.160151 48.777973 
L 286.17673 50.719704 
L 287.193308 53.095406 
L 288.209887 55.899053 
L 289.226466 59.123536 
L 291.259623 66.801246 
L 293.29278 76.050696 
L 295.325937 86.778111 
L 297.359095 98.874733 
L 299.392252 112.21792 
L 302.441988 134.270966 
L 305.491723 158.319231 
L 309.558038 192.535103 
L 320.740403 288.435555 
L 323.790138 312.26357 
L 326.839874 334.030818 
L 328.873032 347.150215 
L 330.906189 358.99905 
L 332.939346 369.457194 
L 334.972503 378.418617 
L 337.00566 385.792466 
L 338.022239 388.860036 
L 339.038818 391.503979 
L 340.055396 393.71759 
L 341.071975 395.495253 
L 342.088553 396.83246 
L 343.105132 397.72582 
L 344.121711 398.173067 
L 345.138289 398.173067 
L 346.154868 397.72582 
L 347.171447 396.83246 
L 348.188025 395.495253 
L 349.204604 393.71759 
L 350.221182 391.503979 
L 351.237761 388.860036 
L 352.25434 385.792466 
L 353.270918 382.309048 
L 355.304075 374.131041 
L 357.337233 364.408929 
L 359.37039 353.241278 
L 361.403547 340.74131 
L 363.436704 327.035757 
L 366.48644 304.523911 
L 369.536176 280.127663 
L 373.60249 245.633516 
L 382.751698 166.685061 
L 385.801434 142.091605 
L 388.85117 119.315157 
L 390.884327 105.39868 
L 392.917484 92.662625 
L 394.950641 81.236116 
L 396.983799 71.235001 
L 399.016956 62.760674 
L 401.050113 55.899053 
L 402.066692 53.095406 
L 403.08327 50.719704 
L 404.099849 48.777973 
L 405.116427 47.275137 
L 406.133006 46.215008 
L 407.149585 45.600275 
L 408.166163 45.432496 
L 409.182742 45.712098 
L 410.19932 46.43837 
L 411.215899 47.609472 
L 412.232478 49.222433 
L 413.249056 51.273162 
L 414.265635 53.756457 
L 415.282214 56.666022 
L 416.298792 59.994476 
L 418.331949 67.873246 
L 420.365107 77.312887 
L 422.398264 88.217697 
L 424.431421 100.477118 
L 426.464578 113.966858 
L 429.514314 136.206073 
L 432.56405 160.39641 
L 436.630364 194.727676 
L 446.79615 282.219327 
L 449.845886 306.479264 
L 452.895622 328.810242 
L 454.928779 342.372458 
L 456.961937 354.712552 
L 458.995094 365.705412 
L 461.028251 375.23959 
L 463.061408 383.218423 
L 464.077987 386.598666 
L 465.094565 389.561018 
L 466.111144 392.097964 
L 467.127723 394.203071 
L 468.144301 395.870999 
L 469.16088 397.097519 
L 470.177459 397.879519 
L 471.194037 398.215016 
L 472.210616 398.10316 
L 473.227194 397.544234 
L 474.243773 396.539656 
L 475.260352 395.091973 
L 476.27693 393.204857 
L 477.293509 390.883094 
L 478.310087 388.132573 
L 479.326666 384.96027 
L 481.359823 377.383548 
L 483.392981 368.229745 
L 485.426138 357.591666 
L 487.459295 345.577165 
L 489.492452 332.30805 
L 492.542188 310.349401 
L 495.591924 286.373603 
L 499.658238 252.217464 
L 510.840603 156.252122 
L 513.890339 132.349741 
L 516.940075 110.48636 
L 518.973232 97.291842 
L 521.006389 85.359937 
L 523.039546 74.811617 
L 525.072704 65.753824 
L 527.105861 58.278391 
L 528.122439 55.158392 
L 529.139018 52.461107 
L 530.155597 50.193375 
L 531.172175 48.360949 
L 532.188754 46.968477 
L 533.205332 46.019489 
L 534.221911 45.516392 
L 535.23849 45.460463 
L 536.255068 45.851843 
L 537.271647 46.68954 
L 538.288226 47.971429 
L 539.304804 49.694258 
L 540.321383 51.85366 
L 541.337961 54.444156 
L 542.35454 57.459177 
L 543.371119 60.891075 
L 545.404276 68.969655 
L 547.437433 78.597991 
L 549.47059 89.678466 
L 551.503747 102.098743 
L 553.536905 115.732898 
L 556.586641 138.154754 
L 559.636376 162.483329 
L 563.702691 196.924546 
L 573.868477 284.301417 
L 576.918213 308.421197 
L 579.967949 330.567766 
L 582.001106 343.984495 
L 584.034263 356.162758 
L 586.06742 366.979085 
L 588.100578 376.323816 
L 590.133735 384.10221 
L 591.150313 387.378743 
L 592.166892 390.235406 
L 593.183471 392.664953 
L 594.200049 394.661222 
L 595.216628 396.219152 
L 596.233206 397.334789 
L 597.249785 398.005305 
L 598.266364 398.229 
L 598.266364 398.229 
" clip-path="url(#pa0ff1efe2e)" style="fill: none; stroke: #ff7f0e; stroke-width: 1.5; stroke-linecap: square"/>
   </g>
   <g id="patch_3">
    <path d="M 65.63 415.869 
L 65.63 27.789 
" style="fill: none; stroke: #000000; stroke-width: 2.5; stroke-linejoin: miter; stroke-linecap: square"/>
   </g>
   <g id="patch_4">
    <path d="M 623.63 415.869 
L 623.63 27.789 
" style="fill: none; stroke: #000000; stroke-width: 2.5; stroke-linejoin: miter; stroke-linecap: square"/>
   </g>
   <g id="patch_5">
    <path d="M 65.63 415.869 
L 623.63 415.869 
" style="fill: none; stroke: #000000; stroke-width: 2.5; stroke-linejoin: miter; stroke-linecap: square"/>
   </g>
   <g id="patch_6">
    <path d="M 65.63 27.789 
L 623.63 27.789 
" style="fill: none; stroke: #000000; stroke-width: 2.5; stroke-linejoin: miter; stroke-linecap: square"/>
   </g>
   <g id="text_18">
    <!-- State populations -->
    <g transform="translate(260.081 21.789) scale(0.192 -0.192)">
     <defs>
      <path id="DejaVuSans-53" d="M 3425 4513 
L 3425 3897 
Q 3066 4069 2747 4153 
Q 2428 4238 2131 4238 
Q 1616 4238 1336 4038 
Q 1056 3838 1056 3469 
Q 1056 3159 1242 3001 
Q 1428 2844 1947 2747 
L 2328 2669 
Q 3034 2534 3370 2195 
Q 3706 1856 3706 1288 
Q 3706 609 3251 259 
Q 2797 -91 1919 -91 
Q 1588 -91 1214 -16 
Q 841 59 441 206 
L 441 856 
Q 825 641 1194 531 
Q 1563 422 1919 422 
Q 2459 422 2753 634 
Q 3047 847 3047 1241 
Q 3047 1584 2836 1778 
Q 2625 1972 2144 2069 
L 1759 2144 
Q 1053 2284 737 2584 
Q 422 2884 422 3419 
Q 422 4038 858 4394 
Q 1294 4750 2059 4750 
Q 2388 4750 2728 4690 
Q 3069 4631 3425 4513 
z
" transform="scale(0.015625)"/>
      <path id="DejaVuSans-73" d="M 2834 3397 
L 2834 2853 
Q 2591 2978 2328 3040 
Q 2066 3103 1784 3103 
Q 1356 3103 1142 2972 
Q 928 2841 928 2578 
Q 928 2378 1081 2264 
Q 1234 2150 1697 2047 
L 1894 2003 
Q 2506 1872 2764 1633 
Q 3022 1394 3022 966 
Q 3022 478 2636 193 
Q 2250 -91 1575 -91 
Q 1294 -91 989 -36 
Q 684 19 347 128 
L 347 722 
Q 666 556 975 473 
Q 1284 391 1588 391 
Q 1994 391 2212 530 
Q 2431 669 2431 922 
Q 2431 1156 2273 1281 
Q 2116 1406 1581 1522 
L 1381 1569 
Q 847 1681 609 1914 
Q 372 2147 372 2553 
Q 372 3047 722 3315 
Q 1072 3584 1716 3584 
Q 2034 3584 2315 3537 
Q 2597 3491 2834 3397 
z
" transform="scale(0.015625)"/>
     </defs>
     <use xlink:href="#DejaVuSans-53"/>
     <use xlink:href="#DejaVuSans-74" x="63.476562"/>
     <use xlink:href="#DejaVuSans-61" x="102.685547"/>
     <use xlink:href="#DejaVuSans-74" x="163.964844"/>
     <use xlink:href="#DejaVuSans-65" x="203.173828"/>
     <use xlink:href="#DejaVuSans-20" x="264.697266"/>
     <use xlink:href="#DejaVuSans-70" x="296.484375"/>
     <use xlink:href="#DejaVuSans-6f" x="359.960938"/>
     <use xlink:href="#DejaVuSans-70" x="421.142578"/>
     <use xlink:href="#DejaVuSans-75" x="484.619141"/>
     <use xlink:href="#DejaVuSans-6c" x="547.998047"/>
     <use xlink:href="#DejaVuSans-61" x="575.78125"/>
     <use xlink:href="#DejaVuSans-74" x="637.060547"/>
     <use xlink:href="#DejaVuSans-69" x="676.269531"/>
     <use xlink:href="#DejaVuSans-6f" x="704.052734"/>
     <use xlink:href="#DejaVuSans-6e" x="765.234375"/>
     <use xlink:href="#DejaVuSans-73" x="828.613281"/>
    </g>
   </g>
   <g id="legend_1">
    <g id="patch_7">
     <path d="M 536.27 247.7465 
L 612.43 247.7465 
Q 615.63 247.7465 615.63 244.5465 
L 615.63 199.1115 
Q 615.63 195.9115 612.43 195.9115 
L 536.27 195.9115 
Q 533.07 195.9115 533.07 199.1115 
L 533.07 244.5465 
Q 533.07 247.7465 536.27 247.7465 
z
" style="fill: #ffffff; opacity: 0.8; stroke: #cccccc; stroke-linejoin: miter"/>
    </g>
    <g id="line2d_18">
     <path d="M 539.47 208.869 
L 555.47 208.869 
L 571.47 208.869 
" style="fill: none; stroke: #1f77b4; stroke-width: 1.5; stroke-linecap: square"/>
    </g>
    <g id="text_19">
     <!-- $\rho_{11}$ -->
     <g transform="translate(584.27 214.469) scale(0.16 -0.16)">
      <defs>
       <path id="DejaVuSans-Oblique-3c1" d="M 1203 2875 
Q 1453 3194 1981 3475 
Q 2188 3584 2756 3584 
Q 3394 3584 3694 3078 
Q 3994 2572 3834 1747 
Q 3672 922 3175 415 
Q 2678 -91 2041 -91 
Q 1656 -91 1409 63 
Q 1163 213 1044 525 
L 681 -1331 
L 103 -1331 
L 697 1716 
Q 838 2438 1203 2875 
z
M 3238 1747 
Q 3359 2381 3169 2744 
Q 2978 3103 2522 3103 
Q 2066 3103 1734 2744 
Q 1403 2381 1281 1747 
Q 1156 1113 1347 750 
Q 1538 391 1994 391 
Q 2450 391 2781 750 
Q 3113 1113 3238 1747 
z
" transform="scale(0.015625)"/>
      </defs>
      <use xlink:href="#DejaVuSans-Oblique-3c1"/>
      <use xlink:href="#DejaVuSans-31" transform="translate(63.476562 -16.40625) scale(0.7)"/>
      <use xlink:href="#DejaVuSans-31" transform="translate(108.012695 -16.40625) scale(0.7)"/>
     </g>
    </g>
    <g id="line2d_19">
     <path d="M 539.47 232.3865 
L 555.47 232.3865 
L 571.47 232.3865 
" style="fill: none; stroke: #ff7f0e; stroke-width: 1.5; stroke-linecap: square"/>
    </g>
    <g id="text_20">
     <!-- $\rho_{22}$ -->
     <g transform="translate(584.27 237.9865) scale(0.16 -0.16)">
      <use xlink:href="#DejaVuSans-Oblique-3c1"/>
      <use xlink:href="#DejaVuSans-32" transform="translate(63.476562 -16.40625) scale(0.7)"/>
      <use xlink:href="#DejaVuSans-32" transform="translate(108.012695 -16.40625) scale(0.7)"/>
     </g>
    </g>
   </g>
  </g>
 </g>
 <defs>
  <clipPath id="pa0ff1efe2e">
   <rect x="65.63" y="27.789" width="558" height="388.08"/>
  </clipPath>
 </defs>
</svg>
